<svg width="14" height="8" viewBox="0 0 14 8" fill="none" xmlns="http://www.w3.org/2000/svg">
<path d="M2.25 5.40625C2.64583 5.80208 3.11458 6 3.65625 6C4.19792 6 4.66667 5.80208 5.0625 5.40625C5.45833 5.01042 5.65625 4.54167 5.65625 4C5.65625 3.45833 5.45833 2.98958 5.0625 2.59375C4.66667 2.19792 4.19792 2 3.65625 2C3.11458 2 2.64583 2.19792 2.25 2.59375C1.85417 2.98958 1.65625 3.45833 1.65625 4C1.65625 4.54167 1.85417 5.01042 2.25 5.40625ZM10.3438 0.65625C11.2604 0.65625 12.0417 0.989583 12.6875 1.65625C13.3333 2.30208 13.6562 3.08333 13.6562 4C13.6562 4.91667 13.3333 5.70833 12.6875 6.375C12.0417 7.02083 11.2604 7.34375 10.3438 7.34375H3.65625C2.73958 7.34375 1.95833 7.02083 1.3125 6.375C0.666667 5.70833 0.34375 4.91667 0.34375 4C0.34375 3.08333 0.666667 2.30208 1.3125 1.65625C1.95833 0.989583 2.73958 0.65625 3.65625 0.65625L10.3438 0.65625Z" fill="white"/>
<path d="M2.25 5.40625C2.64583 5.80208 3.11458 6 3.65625 6C4.19792 6 4.66667 5.80208 5.0625 5.40625C5.45833 5.01042 5.65625 4.54167 5.65625 4C5.65625 3.45833 5.45833 2.98958 5.0625 2.59375C4.66667 2.19792 4.19792 2 3.65625 2C3.11458 2 2.64583 2.19792 2.25 2.59375C1.85417 2.98958 1.65625 3.45833 1.65625 4C1.65625 4.54167 1.85417 5.01042 2.25 5.40625ZM10.3438 0.65625C11.2604 0.65625 12.0417 0.989583 12.6875 1.65625C13.3333 2.30208 13.6562 3.08333 13.6562 4C13.6562 4.91667 13.3333 5.70833 12.6875 6.375C12.0417 7.02083 11.2604 7.34375 10.3438 7.34375H3.65625C2.73958 7.34375 1.95833 7.02083 1.3125 6.375C0.666667 5.70833 0.34375 4.91667 0.34375 4C0.34375 3.08333 0.666667 2.30208 1.3125 1.65625C1.95833 0.989583 2.73958 0.65625 3.65625 0.65625L10.3438 0.65625Z" fill="currentColor"/>
</svg>
