<svg width="16" height="16" viewBox="0 0 16 16" fill="none" xmlns="http://www.w3.org/2000/svg">
<path d="M3.26641 14.0007L3.16641 13.1507L3.03307 13.084C2.98863 13.0618 2.92752 13.0229 2.84974 12.9673L2.04974 13.3007L1.31641 12.034L1.99974 11.5173V11.1673L1.31641 10.634L2.04974 9.36732L2.84974 9.70065C2.9053 9.66732 2.95807 9.63398 3.00807 9.60065C3.05807 9.56732 3.11085 9.53954 3.16641 9.51732L3.26641 8.66732H4.73307L4.83307 9.51732L4.89974 9.55065L4.96641 9.58398C4.98863 9.5951 5.01641 9.61176 5.04974 9.63398L5.14974 9.70065L5.94974 9.36732L6.68307 10.634L5.99974 11.1507V11.5173L9.64974 9.40065L8.89974 10.7173L9.09974 10.8673L6.46641 12.4007L5.94974 13.3007L5.14974 12.9673C5.09418 13.0007 5.04141 13.034 4.99141 13.0673C4.94141 13.1007 4.88863 13.1284 4.83307 13.1507L4.73307 14.0007H3.26641ZM3.99974 10.334C3.72196 10.334 3.48585 10.4312 3.29141 10.6257C3.09696 10.8201 2.99974 11.0562 2.99974 11.334C2.99974 11.6118 3.09696 11.8479 3.29141 12.0423C3.48585 12.2368 3.72196 12.334 3.99974 12.334C4.27752 12.334 4.51363 12.2368 4.70807 12.0423C4.90252 11.8479 4.99974 11.6118 4.99974 11.334C4.99974 11.0562 4.90252 10.8201 4.70807 10.6257C4.51363 10.4312 4.27752 10.334 3.99974 10.334ZM6.59974 6.66732L6.49974 5.81732C6.47752 5.7951 6.44974 5.77843 6.41641 5.76732C6.38307 5.75621 6.3553 5.73954 6.33307 5.71732V9.38398L6.08307 8.95065L5.33307 9.26732V5.86732L4.66641 4.70065L5.33307 4.18398V3.83398L4.64974 3.30065L5.38307 2.03398L6.18307 2.36732C6.23863 2.33398 6.29141 2.30065 6.34141 2.26732C6.39141 2.23398 6.44418 2.20621 6.49974 2.18398L6.59974 1.33398H8.06641L8.16641 2.18398L8.29974 2.25065C8.34418 2.27287 8.4053 2.31176 8.48307 2.36732L9.28307 2.03398L10.0164 3.30065L9.33307 3.81732V4.16732L10.0164 4.70065L9.28307 5.96732L8.48307 5.63398C8.42752 5.66732 8.37474 5.70065 8.32474 5.73398C8.27474 5.76732 8.22196 5.7951 8.16641 5.81732L8.06641 6.66732H6.59974ZM7.33307 3.00065C7.0553 3.00065 6.81918 3.09787 6.62474 3.29232C6.4303 3.48676 6.33307 3.72287 6.33307 4.00065C6.33307 4.27843 6.4303 4.51454 6.62474 4.70898C6.81918 4.90343 7.0553 5.00065 7.33307 5.00065C7.61085 5.00065 7.84696 4.90343 8.04141 4.70898C8.23585 4.51454 8.33307 4.27843 8.33307 4.00065C8.33307 3.72287 8.23585 3.48676 8.04141 3.29232C7.84696 3.09787 7.61085 3.00065 7.33307 3.00065ZM11.2664 14.0007L11.1664 13.1507L11.0331 13.084C10.9886 13.0618 10.9275 13.0229 10.8497 12.9673L10.0497 13.3007L9.31641 12.034L9.99974 11.5173V11.1673L9.31641 10.6507L10.0497 9.36732L10.8497 9.70065C10.8831 9.67843 10.9053 9.66454 10.9164 9.65899L11.1664 9.53399L7.56641 7.00065H8.36641L8.43307 6.40065L11.6831 8.66732H12.7331L12.8331 9.51732L12.8997 9.55065L12.9664 9.58398C12.9886 9.5951 13.0164 9.61176 13.0497 9.63398L13.1497 9.70065L13.9497 9.36732L14.6831 10.634L13.9997 11.1507V11.5007L14.6831 12.034L13.9497 13.3007L13.1497 12.9673C13.0942 13.0007 13.0414 13.034 12.9914 13.0673C12.9414 13.1007 12.8886 13.1284 12.8331 13.1507L12.7331 14.0007H11.2664ZM11.9997 10.334C11.722 10.334 11.4859 10.4312 11.2914 10.6257C11.097 10.8201 10.9997 11.0562 10.9997 11.334C10.9997 11.6118 11.097 11.8479 11.2914 12.0423C11.4859 12.2368 11.722 12.334 11.9997 12.334C12.2775 12.334 12.5136 12.2368 12.7081 12.0423C12.9025 11.8479 12.9997 11.6118 12.9997 11.334C12.9997 11.0562 12.9025 10.8201 12.7081 10.6257C12.5136 10.4312 12.2775 10.334 11.9997 10.334Z" fill="white"/>
<path d="M3.26641 14.0007L3.16641 13.1507L3.03307 13.084C2.98863 13.0618 2.92752 13.0229 2.84974 12.9673L2.04974 13.3007L1.31641 12.034L1.99974 11.5173V11.1673L1.31641 10.634L2.04974 9.36732L2.84974 9.70065C2.9053 9.66732 2.95807 9.63398 3.00807 9.60065C3.05807 9.56732 3.11085 9.53954 3.16641 9.51732L3.26641 8.66732H4.73307L4.83307 9.51732L4.89974 9.55065L4.96641 9.58398C4.98863 9.5951 5.01641 9.61176 5.04974 9.63398L5.14974 9.70065L5.94974 9.36732L6.68307 10.634L5.99974 11.1507V11.5173L9.64974 9.40065L8.89974 10.7173L9.09974 10.8673L6.46641 12.4007L5.94974 13.3007L5.14974 12.9673C5.09418 13.0007 5.04141 13.034 4.99141 13.0673C4.94141 13.1007 4.88863 13.1284 4.83307 13.1507L4.73307 14.0007H3.26641ZM3.99974 10.334C3.72196 10.334 3.48585 10.4312 3.29141 10.6257C3.09696 10.8201 2.99974 11.0562 2.99974 11.334C2.99974 11.6118 3.09696 11.8479 3.29141 12.0423C3.48585 12.2368 3.72196 12.334 3.99974 12.334C4.27752 12.334 4.51363 12.2368 4.70807 12.0423C4.90252 11.8479 4.99974 11.6118 4.99974 11.334C4.99974 11.0562 4.90252 10.8201 4.70807 10.6257C4.51363 10.4312 4.27752 10.334 3.99974 10.334ZM6.59974 6.66732L6.49974 5.81732C6.47752 5.7951 6.44974 5.77843 6.41641 5.76732C6.38307 5.75621 6.3553 5.73954 6.33307 5.71732V9.38398L6.08307 8.95065L5.33307 9.26732V5.86732L4.66641 4.70065L5.33307 4.18398V3.83398L4.64974 3.30065L5.38307 2.03398L6.18307 2.36732C6.23863 2.33398 6.29141 2.30065 6.34141 2.26732C6.39141 2.23398 6.44418 2.20621 6.49974 2.18398L6.59974 1.33398H8.06641L8.16641 2.18398L8.29974 2.25065C8.34418 2.27287 8.4053 2.31176 8.48307 2.36732L9.28307 2.03398L10.0164 3.30065L9.33307 3.81732V4.16732L10.0164 4.70065L9.28307 5.96732L8.48307 5.63398C8.42752 5.66732 8.37474 5.70065 8.32474 5.73398C8.27474 5.76732 8.22196 5.7951 8.16641 5.81732L8.06641 6.66732H6.59974ZM7.33307 3.00065C7.0553 3.00065 6.81918 3.09787 6.62474 3.29232C6.4303 3.48676 6.33307 3.72287 6.33307 4.00065C6.33307 4.27843 6.4303 4.51454 6.62474 4.70898C6.81918 4.90343 7.0553 5.00065 7.33307 5.00065C7.61085 5.00065 7.84696 4.90343 8.04141 4.70898C8.23585 4.51454 8.33307 4.27843 8.33307 4.00065C8.33307 3.72287 8.23585 3.48676 8.04141 3.29232C7.84696 3.09787 7.61085 3.00065 7.33307 3.00065ZM11.2664 14.0007L11.1664 13.1507L11.0331 13.084C10.9886 13.0618 10.9275 13.0229 10.8497 12.9673L10.0497 13.3007L9.31641 12.034L9.99974 11.5173V11.1673L9.31641 10.6507L10.0497 9.36732L10.8497 9.70065C10.8831 9.67843 10.9053 9.66454 10.9164 9.65899L11.1664 9.53399L7.56641 7.00065H8.36641L8.43307 6.40065L11.6831 8.66732H12.7331L12.8331 9.51732L12.8997 9.55065L12.9664 9.58398C12.9886 9.5951 13.0164 9.61176 13.0497 9.63398L13.1497 9.70065L13.9497 9.36732L14.6831 10.634L13.9997 11.1507V11.5007L14.6831 12.034L13.9497 13.3007L13.1497 12.9673C13.0942 13.0007 13.0414 13.034 12.9914 13.0673C12.9414 13.1007 12.8886 13.1284 12.8331 13.1507L12.7331 14.0007H11.2664ZM11.9997 10.334C11.722 10.334 11.4859 10.4312 11.2914 10.6257C11.097 10.8201 10.9997 11.0562 10.9997 11.334C10.9997 11.6118 11.097 11.8479 11.2914 12.0423C11.4859 12.2368 11.722 12.334 11.9997 12.334C12.2775 12.334 12.5136 12.2368 12.7081 12.0423C12.9025 11.8479 12.9997 11.6118 12.9997 11.334C12.9997 11.0562 12.9025 10.8201 12.7081 10.6257C12.5136 10.4312 12.2775 10.334 11.9997 10.334Z" fill="white"/>
<path d="M3.26641 14.0007L3.16641 13.1507L3.03307 13.084C2.98863 13.0618 2.92752 13.0229 2.84974 12.9673L2.04974 13.3007L1.31641 12.034L1.99974 11.5173V11.1673L1.31641 10.634L2.04974 9.36732L2.84974 9.70065C2.9053 9.66732 2.95807 9.63398 3.00807 9.60065C3.05807 9.56732 3.11085 9.53954 3.16641 9.51732L3.26641 8.66732H4.73307L4.83307 9.51732L4.89974 9.55065L4.96641 9.58398C4.98863 9.5951 5.01641 9.61176 5.04974 9.63398L5.14974 9.70065L5.94974 9.36732L6.68307 10.634L5.99974 11.1507V11.5173L9.64974 9.40065L8.89974 10.7173L9.09974 10.8673L6.46641 12.4007L5.94974 13.3007L5.14974 12.9673C5.09418 13.0007 5.04141 13.034 4.99141 13.0673C4.94141 13.1007 4.88863 13.1284 4.83307 13.1507L4.73307 14.0007H3.26641ZM3.99974 10.334C3.72196 10.334 3.48585 10.4312 3.29141 10.6257C3.09696 10.8201 2.99974 11.0562 2.99974 11.334C2.99974 11.6118 3.09696 11.8479 3.29141 12.0423C3.48585 12.2368 3.72196 12.334 3.99974 12.334C4.27752 12.334 4.51363 12.2368 4.70807 12.0423C4.90252 11.8479 4.99974 11.6118 4.99974 11.334C4.99974 11.0562 4.90252 10.8201 4.70807 10.6257C4.51363 10.4312 4.27752 10.334 3.99974 10.334ZM6.59974 6.66732L6.49974 5.81732C6.47752 5.7951 6.44974 5.77843 6.41641 5.76732C6.38307 5.75621 6.3553 5.73954 6.33307 5.71732V9.38398L6.08307 8.95065L5.33307 9.26732V5.86732L4.66641 4.70065L5.33307 4.18398V3.83398L4.64974 3.30065L5.38307 2.03398L6.18307 2.36732C6.23863 2.33398 6.29141 2.30065 6.34141 2.26732C6.39141 2.23398 6.44418 2.20621 6.49974 2.18398L6.59974 1.33398H8.06641L8.16641 2.18398L8.29974 2.25065C8.34418 2.27287 8.4053 2.31176 8.48307 2.36732L9.28307 2.03398L10.0164 3.30065L9.33307 3.81732V4.16732L10.0164 4.70065L9.28307 5.96732L8.48307 5.63398C8.42752 5.66732 8.37474 5.70065 8.32474 5.73398C8.27474 5.76732 8.22196 5.7951 8.16641 5.81732L8.06641 6.66732H6.59974ZM7.33307 3.00065C7.0553 3.00065 6.81918 3.09787 6.62474 3.29232C6.4303 3.48676 6.33307 3.72287 6.33307 4.00065C6.33307 4.27843 6.4303 4.51454 6.62474 4.70898C6.81918 4.90343 7.0553 5.00065 7.33307 5.00065C7.61085 5.00065 7.84696 4.90343 8.04141 4.70898C8.23585 4.51454 8.33307 4.27843 8.33307 4.00065C8.33307 3.72287 8.23585 3.48676 8.04141 3.29232C7.84696 3.09787 7.61085 3.00065 7.33307 3.00065ZM11.2664 14.0007L11.1664 13.1507L11.0331 13.084C10.9886 13.0618 10.9275 13.0229 10.8497 12.9673L10.0497 13.3007L9.31641 12.034L9.99974 11.5173V11.1673L9.31641 10.6507L10.0497 9.36732L10.8497 9.70065C10.8831 9.67843 10.9053 9.66454 10.9164 9.65899L11.1664 9.53399L7.56641 7.00065H8.36641L8.43307 6.40065L11.6831 8.66732H12.7331L12.8331 9.51732L12.8997 9.55065L12.9664 9.58398C12.9886 9.5951 13.0164 9.61176 13.0497 9.63398L13.1497 9.70065L13.9497 9.36732L14.6831 10.634L13.9997 11.1507V11.5007L14.6831 12.034L13.9497 13.3007L13.1497 12.9673C13.0942 13.0007 13.0414 13.034 12.9914 13.0673C12.9414 13.1007 12.8886 13.1284 12.8331 13.1507L12.7331 14.0007H11.2664ZM11.9997 10.334C11.722 10.334 11.4859 10.4312 11.2914 10.6257C11.097 10.8201 10.9997 11.0562 10.9997 11.334C10.9997 11.6118 11.097 11.8479 11.2914 12.0423C11.4859 12.2368 11.722 12.334 11.9997 12.334C12.2775 12.334 12.5136 12.2368 12.7081 12.0423C12.9025 11.8479 12.9997 11.6118 12.9997 11.334C12.9997 11.0562 12.9025 10.8201 12.7081 10.6257C12.5136 10.4312 12.2775 10.334 11.9997 10.334Z" fill="currentColor"/>
</svg>
