<svg width="14" height="12" viewBox="0 0 14 12" fill="none" xmlns="http://www.w3.org/2000/svg">
<path d="M5.5 0.65625L13.5 0.65625V9.34375C13.5 9.69792 13.4062 10.0312 13.2188 10.3438C13.0521 10.6354 12.8125 10.875 12.5 11.0625C12.2083 11.25 11.875 11.3438 11.5 11.3438H4.84375C4.46875 11.3438 4.14583 11.2188 3.875 10.9688C3.625 10.6979 3.5 10.375 3.5 10L3.5 8H5.5V6.5C5.125 6.47917 4.75 6.39583 4.375 6.25C4.02083 6.08333 3.69792 5.86458 3.40625 5.59375V4.84375H2.6875L0.46875 2.625C0.927083 2.16667 1.4375 1.82292 2 1.59375C2.58333 1.36458 3.16667 1.25 3.75 1.25C4.35417 1.25 4.9375 1.36458 5.5 1.59375V0.65625ZM4.75 4.9375C5.04167 5.08333 5.34375 5.15625 5.65625 5.15625C6.15625 5.15625 6.58333 4.97917 6.9375 4.625L7.0625 4.5L6.125 3.5625C5.45833 2.91667 4.66667 2.59375 3.75 2.59375C3.33333 2.59375 2.92708 2.66667 2.53125 2.8125L3.25 3.5H4.75V4.9375ZM12.1562 9.34375V2L6.84375 2V2.40625L10.8438 6.40625V7.34375H9.90625L8 5.46875L7.875 5.59375C7.58333 5.88542 7.23958 6.11458 6.84375 6.28125V8H10.8438V9.34375C10.8438 9.51042 10.9062 9.66667 11.0312 9.8125C11.1562 9.9375 11.3125 10 11.5 10C11.6875 10 11.8438 9.9375 11.9688 9.8125C12.0938 9.66667 12.1562 9.51042 12.1562 9.34375Z" fill="currentColor"/>
</svg>
