<svg width="14" height="12" viewBox="0 0 14 12" fill="none" xmlns="http://www.w3.org/2000/svg">
<path d="M12.3438 0.65625C12.6979 0.65625 13 0.791667 13.25 1.0625C13.5208 1.3125 13.6562 1.625 13.6562 2V10C13.6562 10.375 13.5208 10.6979 13.25 10.9688C13 11.2188 12.6979 11.3438 12.3438 11.3438H1.65625C1.30208 11.3438 0.989583 11.2188 0.71875 10.9688C0.46875 10.6979 0.34375 10.375 0.34375 10L0.34375 2C0.34375 1.625 0.46875 1.3125 0.71875 1.0625C0.989583 0.791667 1.30208 0.65625 1.65625 0.65625L12.3438 0.65625ZM12.3438 10V3.34375L1.65625 3.34375L1.65625 10H12.3438ZM11 9.34375V8H7V9.34375H11ZM4 9.34375L6.65625 6.65625L4 4L3.0625 4.9375L4.78125 6.65625L3.0625 8.40625L4 9.34375Z" fill="currentColor"/>
</svg>
