<svg width="14" height="8" viewBox="0 0 14 8" fill="none" xmlns="http://www.w3.org/2000/svg">
<path d="M8.9375 5.40625C9.33333 5.80208 9.80208 6 10.3438 6C10.8854 6 11.3542 5.80208 11.75 5.40625C12.1458 5.01042 12.3438 4.54167 12.3438 4C12.3438 3.45833 12.1458 2.98958 11.75 2.59375C11.3542 2.19792 10.8854 2 10.3438 2C9.80208 2 9.33333 2.19792 8.9375 2.59375C8.54167 2.98958 8.34375 3.45833 8.34375 4C8.34375 4.54167 8.54167 5.01042 8.9375 5.40625ZM10.3438 0.65625C11.2604 0.65625 12.0417 0.989583 12.6875 1.65625C13.3333 2.30208 13.6562 3.08333 13.6562 4C13.6562 4.91667 13.3333 5.70833 12.6875 6.375C12.0417 7.02083 11.2604 7.34375 10.3438 7.34375H3.65625C2.73958 7.34375 1.95833 7.02083 1.3125 6.375C0.666667 5.70833 0.34375 4.91667 0.34375 4C0.34375 3.08333 0.666667 2.30208 1.3125 1.65625C1.95833 0.989583 2.73958 0.65625 3.65625 0.65625L10.3438 0.65625Z" fill="white"/>
<path d="M8.9375 5.40625C9.33333 5.80208 9.80208 6 10.3438 6C10.8854 6 11.3542 5.80208 11.75 5.40625C12.1458 5.01042 12.3438 4.54167 12.3438 4C12.3438 3.45833 12.1458 2.98958 11.75 2.59375C11.3542 2.19792 10.8854 2 10.3438 2C9.80208 2 9.33333 2.19792 8.9375 2.59375C8.54167 2.98958 8.34375 3.45833 8.34375 4C8.34375 4.54167 8.54167 5.01042 8.9375 5.40625ZM10.3438 0.65625C11.2604 0.65625 12.0417 0.989583 12.6875 1.65625C13.3333 2.30208 13.6562 3.08333 13.6562 4C13.6562 4.91667 13.3333 5.70833 12.6875 6.375C12.0417 7.02083 11.2604 7.34375 10.3438 7.34375H3.65625C2.73958 7.34375 1.95833 7.02083 1.3125 6.375C0.666667 5.70833 0.34375 4.91667 0.34375 4C0.34375 3.08333 0.666667 2.30208 1.3125 1.65625C1.95833 0.989583 2.73958 0.65625 3.65625 0.65625L10.3438 0.65625Z" fill="currentColor"/>
</svg>
