<svg width="16" height="13" viewBox="0 0 16 13" fill="none" xmlns="http://www.w3.org/2000/svg">
<path d="M1.39062 0.640625L4.83594 3.33594C6.17188 2.28125 8.09375 2.375 9.3125 3.59375C10.3203 4.60156 10.5781 6.125 9.99219 7.36719L11.0703 8.21094L13.2969 5.98438C14.1641 5.09375 14.1641 3.6875 13.2969 2.79688C12.4531 1.97656 11.1172 1.92969 10.2266 2.70313L10.0859 2.82031C9.85156 3.03125 9.5 3.00781 9.28906 2.77344C9.07812 2.53906 9.10156 2.1875 9.33594 1.97656L9.47656 1.85938C10.8125 0.6875 12.8281 0.757813 14.0938 2C15.4062 3.3125 15.4062 5.44531 14.0938 6.78125L11.9609 8.91406L15.2656 11.5156C15.5234 11.7031 15.5703 12.0547 15.3594 12.2891C15.1719 12.5469 14.8203 12.5938 14.5859 12.3828L0.710937 1.50781C0.453125 1.32031 0.40625 0.96875 0.617188 0.734375C0.804688 0.476562 1.15625 0.429688 1.39062 0.640625ZM5.77344 4.0625L9.07812 6.64063C9.3125 5.86719 9.125 5 8.51562 4.39062C7.76562 3.64063 6.64062 3.52344 5.77344 4.0625ZM8.75 9.26562L10.0156 10.2734C8.86719 10.625 7.57812 10.3438 6.66406 9.42969C5.96094 8.72656 5.63281 7.78906 5.67969 6.85156L6.94531 7.85938C7.0625 8.14062 7.22656 8.39844 7.46094 8.63281C7.8125 9.00781 8.28125 9.21875 8.75 9.26562ZM3.21875 4.90625L4.10938 5.60938L2.67969 7.03906C1.8125 7.90625 1.8125 9.33594 2.67969 10.2266C3.52344 11.0469 4.85938 11.0938 5.75 10.3203L5.89062 10.2031C6.125 9.99219 6.47656 10.0156 6.6875 10.25C6.89844 10.4844 6.875 10.8359 6.64062 11.0469L6.5 11.1641C5.16406 12.3359 3.14844 12.2656 1.88281 11.0234C0.570312 9.71094 0.570312 7.55469 1.88281 6.24219L3.21875 4.90625Z" fill="white"/>
<path d="M1.39062 0.640625L4.83594 3.33594C6.17188 2.28125 8.09375 2.375 9.3125 3.59375C10.3203 4.60156 10.5781 6.125 9.99219 7.36719L11.0703 8.21094L13.2969 5.98438C14.1641 5.09375 14.1641 3.6875 13.2969 2.79688C12.4531 1.97656 11.1172 1.92969 10.2266 2.70313L10.0859 2.82031C9.85156 3.03125 9.5 3.00781 9.28906 2.77344C9.07812 2.53906 9.10156 2.1875 9.33594 1.97656L9.47656 1.85938C10.8125 0.6875 12.8281 0.757813 14.0938 2C15.4062 3.3125 15.4062 5.44531 14.0938 6.78125L11.9609 8.91406L15.2656 11.5156C15.5234 11.7031 15.5703 12.0547 15.3594 12.2891C15.1719 12.5469 14.8203 12.5938 14.5859 12.3828L0.710937 1.50781C0.453125 1.32031 0.40625 0.96875 0.617188 0.734375C0.804688 0.476562 1.15625 0.429688 1.39062 0.640625ZM5.77344 4.0625L9.07812 6.64063C9.3125 5.86719 9.125 5 8.51562 4.39062C7.76562 3.64063 6.64062 3.52344 5.77344 4.0625ZM8.75 9.26562L10.0156 10.2734C8.86719 10.625 7.57812 10.3438 6.66406 9.42969C5.96094 8.72656 5.63281 7.78906 5.67969 6.85156L6.94531 7.85938C7.0625 8.14062 7.22656 8.39844 7.46094 8.63281C7.8125 9.00781 8.28125 9.21875 8.75 9.26562ZM3.21875 4.90625L4.10938 5.60938L2.67969 7.03906C1.8125 7.90625 1.8125 9.33594 2.67969 10.2266C3.52344 11.0469 4.85938 11.0938 5.75 10.3203L5.89062 10.2031C6.125 9.99219 6.47656 10.0156 6.6875 10.25C6.89844 10.4844 6.875 10.8359 6.64062 11.0469L6.5 11.1641C5.16406 12.3359 3.14844 12.2656 1.88281 11.0234C0.570312 9.71094 0.570312 7.55469 1.88281 6.24219L3.21875 4.90625Z" fill="currentColor"/>
</svg>
