<svg width="13" height="10" viewBox="0 0 13 10" fill="none" xmlns="http://www.w3.org/2000/svg">
<path d="M0 2.65625V4H7.34375V2.65625L0 2.65625ZM0 1.34375V0L7.34375 0V1.34375L0 1.34375ZM0 6.65625L0 5.34375H4.65625V6.65625H0ZM10 4.59375L11.4062 6L11.9062 5.53125C12.0312 5.38542 12.0938 5.22917 12.0938 5.0625C12.0938 4.875 12.0312 4.71875 11.9062 4.59375L11.4062 4.09375C11.2812 3.96875 11.125 3.90625 10.9375 3.90625C10.7708 3.90625 10.6146 3.96875 10.4688 4.09375L10 4.59375ZM9.53125 5.0625L10.9375 6.46875L7.40625 10H6V8.59375L9.53125 5.0625Z" fill="currentColor"/>
</svg>
