<svg width="14" height="12" viewBox="0 0 14 12" fill="none" xmlns="http://www.w3.org/2000/svg">
<path d="M3 6.65625C3.47917 6.65625 3.91667 6.78125 4.3125 7.03125C4.72917 7.26042 5.05208 7.58333 5.28125 8C5.53125 8.39583 5.65625 8.84375 5.65625 9.34375C5.65625 9.82292 5.53125 10.2708 5.28125 10.6875C5.05208 11.0833 4.72917 11.4062 4.3125 11.6562C3.91667 11.8854 3.47917 12 3 12C2.52083 12 2.07292 11.8854 1.65625 11.6562C1.26042 11.4062 0.9375 11.0833 0.6875 10.6875C0.458333 10.2708 0.34375 9.82292 0.34375 9.34375C0.34375 8.84375 0.458333 8.39583 0.6875 8C0.9375 7.58333 1.26042 7.26042 1.65625 7.03125C2.07292 6.78125 2.52083 6.65625 3 6.65625ZM7 0C7.47917 0 7.91667 0.125 8.3125 0.375C8.72917 0.604167 9.05208 0.927083 9.28125 1.34375C9.53125 1.73958 9.65625 2.17708 9.65625 2.65625C9.65625 3.15625 9.53125 3.61458 9.28125 4.03125C9.05208 4.42708 8.72917 4.75 8.3125 5C7.91667 5.22917 7.47917 5.34375 7 5.34375C6.52083 5.34375 6.07292 5.22917 5.65625 5C5.26042 4.75 4.9375 4.42708 4.6875 4.03125C4.45833 3.61458 4.34375 3.15625 4.34375 2.65625C4.34375 2.17708 4.45833 1.73958 4.6875 1.34375C4.9375 0.927083 5.26042 0.604167 5.65625 0.375C6.07292 0.125 6.52083 0 7 0ZM11 6.65625C11.4792 6.65625 11.9167 6.78125 12.3125 7.03125C12.7292 7.26042 13.0521 7.58333 13.2812 8C13.5312 8.39583 13.6562 8.84375 13.6562 9.34375C13.6562 9.82292 13.5312 10.2708 13.2812 10.6875C13.0521 11.0833 12.7292 11.4062 12.3125 11.6562C11.9167 11.8854 11.4792 12 11 12C10.5208 12 10.0729 11.8854 9.65625 11.6562C9.26042 11.4062 8.9375 11.0833 8.6875 10.6875C8.45833 10.2708 8.34375 9.82292 8.34375 9.34375C8.34375 8.84375 8.45833 8.39583 8.6875 8C8.9375 7.58333 9.26042 7.26042 9.65625 7.03125C10.0729 6.78125 10.5208 6.65625 11 6.65625Z" fill="currentColor"/>
</svg>
