<svg width="12" height="14" viewBox="0 0 12 14" fill="none" xmlns="http://www.w3.org/2000/svg">
<path d="M7.34375 0.34375L11.3438 4.34375V12.3438C11.3438 12.6979 11.2083 13.0104 10.9375 13.2812C10.6875 13.5312 10.375 13.6562 10 13.6562H2C1.625 13.6562 1.30208 13.5312 1.03125 13.2812C0.78125 13.0104 0.65625 12.6979 0.65625 12.3438L0.6875 1.65625C0.6875 1.30208 0.8125 1 1.0625 0.75C1.3125 0.479167 1.625 0.34375 2 0.34375L7.34375 0.34375ZM5.28125 11L9.0625 7.21875L8.125 6.28125L5.28125 9.125L3.875 7.6875L2.9375 8.625L5.28125 11ZM6.65625 5H10.3438L6.65625 1.34375V5Z" fill="currentColor"/>
</svg>
