<svg width="14" height="14" viewBox="0 0 14 14" fill="none" xmlns="http://www.w3.org/2000/svg">
<path d="M12.3438 3H13.6562V12.3438C13.6562 12.6979 13.5208 13.0104 13.25 13.2812C13 13.5312 12.6979 13.6562 12.3438 13.6562H3V12.3438H12.3438V3ZM9.65625 0.34375C10.0312 0.34375 10.3438 0.479167 10.5938 0.75C10.8646 1 11 1.30208 11 1.65625V9.65625C11 10.0312 10.8646 10.3542 10.5938 10.625C10.3438 10.875 10.0312 11 9.65625 11H1.65625C1.30208 11 0.989583 10.875 0.71875 10.625C0.46875 10.3542 0.34375 10.0312 0.34375 9.65625L0.34375 1.65625C0.34375 1.30208 0.46875 1 0.71875 0.75C0.989583 0.479167 1.30208 0.34375 1.65625 0.34375L9.65625 0.34375ZM5 9.65625L5 6.34375H1.65625V9.65625H5ZM9.65625 9.65625V6.34375L6.34375 6.34375L6.34375 9.65625H9.65625ZM9.65625 5V1.65625L1.65625 1.65625L1.65625 5L9.65625 5Z" fill="currentColor"/>
</svg>
