<svg width="12" height="12" viewBox="0 0 12 12" fill="none" xmlns="http://www.w3.org/2000/svg">
<path d="M10.6562 2.65625C11.0312 2.65625 11.3438 2.79167 11.5938 3.0625C11.8646 3.3125 12 3.625 12 4V10.6562C12 11.0312 11.8646 11.3542 11.5938 11.625C11.3438 11.875 11.0312 12 10.6562 12H4C3.625 12 3.30208 11.875 3.03125 11.625C2.78125 11.3542 2.65625 11.0312 2.65625 10.6562L2.65625 4C2.65625 3.625 2.78125 3.3125 3.03125 3.0625C3.30208 2.79167 3.625 2.65625 4 2.65625L10.6562 2.65625ZM10.6562 4L4 4V5.34375L10.6562 5.34375V4ZM6.65625 8H8V6.65625H6.65625V8ZM8 9.34375H6.65625V10.6562H8V9.34375ZM5.34375 8V6.65625H4V8H5.34375ZM9.34375 6.65625V8H10.6562V6.65625H9.34375ZM4 9.34375V10.6562H5.34375V9.34375H4ZM9.34375 10.6562H10.6562V9.34375H9.34375V10.6562ZM2 9.34375V8H1.34375L1.34375 1.34375L8 1.34375V2H9.34375V1.34375C9.34375 0.96875 9.20833 0.65625 8.9375 0.40625C8.6875 0.135417 8.375 0 8 0L1.34375 0C0.96875 0 0.645833 0.135417 0.375 0.40625C0.125 0.65625 0 0.96875 0 1.34375L0 8C0 8.375 0.125 8.69792 0.375 8.96875C0.645833 9.21875 0.96875 9.34375 1.34375 9.34375H2Z" fill="currentColor"/>
</svg>
