<svg width="13" height="11" viewBox="0 0 13 11" fill="none" xmlns="http://www.w3.org/2000/svg">
<path d="M10.6562 1.1875C10.9102 1.1875 11.125 1.40234 11.125 1.65625C11.125 1.92969 10.9102 2.125 10.6562 2.125H8.27344C8.15625 2.69141 7.74609 3.14062 7.21875 3.31641V9.3125H10.6562C10.9102 9.3125 11.125 9.52734 11.125 9.78125C11.125 10.0547 10.9102 10.25 10.6562 10.25H6.75H2.84375C2.57031 10.25 2.375 10.0547 2.375 9.78125C2.375 9.52734 2.57031 9.3125 2.84375 9.3125H6.28125V3.31641C5.73438 3.14062 5.32422 2.69141 5.20703 2.125H2.84375C2.57031 2.125 2.375 1.92969 2.375 1.65625C2.375 1.40234 2.57031 1.1875 2.84375 1.1875H5.30469C5.55859 0.640625 6.10547 0.25 6.75 0.25C7.375 0.25 7.94141 0.640625 8.17578 1.1875H10.6562ZM10.5 4.07812L9.07422 6.5H11.9062L10.5 4.07812ZM8.03906 6.85156C7.98047 6.63672 8.05859 6.40234 8.15625 6.22656L10.0117 3.02344C10.1094 2.86719 10.3047 2.75 10.5 2.75C10.6758 2.75 10.8711 2.86719 10.9688 3.02344L12.8242 6.20703C12.9414 6.40234 13 6.63672 12.9609 6.85156C12.7461 7.71094 11.7109 8.375 10.5 8.375C9.26953 8.375 8.23438 7.71094 8.03906 6.85156ZM1.55469 6.5H4.38672L2.96094 4.07812L1.55469 6.5ZM2.96094 8.375C1.75 8.375 0.714844 7.71094 0.5 6.85156C0.460938 6.63672 0.519531 6.40234 0.636719 6.22656L2.49219 3.02344C2.58984 2.86719 2.76562 2.75 2.96094 2.75C3.15625 2.75 3.33203 2.86719 3.42969 3.02344L5.30469 6.20703C5.40234 6.40234 5.48047 6.63672 5.42188 6.85156C5.22656 7.71094 4.19141 8.375 2.96094 8.375ZM6.75 1.1875C6.39844 1.1875 6.125 1.48047 6.125 1.8125C6.125 2.16406 6.39844 2.4375 6.75 2.4375C7.08203 2.4375 7.375 2.16406 7.375 1.8125C7.375 1.48047 7.08203 1.1875 6.75 1.1875Z" fill="currentColor"/>
</svg>
