<svg width="14" height="14" viewBox="0 0 14 14" fill="none" xmlns="http://www.w3.org/2000/svg">
<path d="M7 0.34375C7.91667 0.34375 8.77083 0.520833 9.5625 0.875C10.375 1.20833 11.0833 1.6875 11.6875 2.3125C12.3125 2.91667 12.7917 3.625 13.125 4.4375C13.4792 5.22917 13.6562 6.08333 13.6562 7C13.6562 7.91667 13.4792 8.78125 13.125 9.59375C12.7917 10.3854 12.3125 11.0938 11.6875 11.7188C11.0833 12.3229 10.375 12.8021 9.5625 13.1562C8.77083 13.4896 7.91667 13.6562 7 13.6562C6.08333 13.6562 5.21875 13.4896 4.40625 13.1562C3.61458 12.8021 2.90625 12.3229 2.28125 11.7188C1.67708 11.0938 1.19792 10.3854 0.84375 9.59375C0.510417 8.78125 0.34375 7.91667 0.34375 7C0.34375 6.08333 0.510417 5.22917 0.84375 4.4375C1.19792 3.625 1.67708 2.91667 2.28125 2.3125C2.90625 1.6875 3.61458 1.20833 4.40625 0.875C5.21875 0.520833 6.08333 0.34375 7 0.34375ZM5.34375 10L10 7L5.34375 4L5.34375 10Z" fill="currentColor"/>
</svg>
