<svg width="14" height="12" viewBox="0 0 14 12" fill="none" xmlns="http://www.w3.org/2000/svg">
<path d="M7.65625 3.65625V2.34375H6.34375V3.65625H7.65625ZM7.65625 6.65625V5.34375H6.34375V6.65625H7.65625ZM7.65625 9.65625V8.34375H6.34375V9.65625H7.65625ZM13.6562 4.65625C13.3021 4.65625 12.9896 4.79167 12.7188 5.0625C12.4688 5.33333 12.3438 5.64583 12.3438 6C12.3438 6.35417 12.4688 6.66667 12.7188 6.9375C12.9896 7.20833 13.3021 7.34375 13.6562 7.34375V10C13.6562 10.3542 13.5208 10.6667 13.25 10.9375C13 11.2083 12.6979 11.3438 12.3438 11.3438H1.65625C1.30208 11.3438 0.989583 11.2083 0.71875 10.9375C0.46875 10.6667 0.34375 10.3542 0.34375 10L0.34375 7.34375C0.71875 7.34375 1.03125 7.21875 1.28125 6.96875C1.53125 6.69792 1.65625 6.375 1.65625 6C1.65625 5.64583 1.52083 5.33333 1.25 5.0625C1 4.79167 0.697917 4.65625 0.34375 4.65625L0.34375 2C0.34375 1.625 0.46875 1.3125 0.71875 1.0625C0.989583 0.791667 1.30208 0.65625 1.65625 0.65625L12.3438 0.65625C12.7188 0.65625 13.0312 0.791667 13.2812 1.0625C13.5312 1.3125 13.6562 1.625 13.6562 2V4.65625Z" fill="url(#paint0_linear_4186_31133)" fill-opacity="0.9"/>
<defs>
<linearGradient id="paint0_linear_4186_31133" x1="7" y1="-2" x2="7" y2="14" gradientUnits="userSpaceOnUse">
<stop stop-color="#004899"/>
<stop offset="1" stop-color="#001833"/>
</linearGradient>
</defs>
</svg>
