<svg width="12" height="12" viewBox="0 0 12 12" fill="none" xmlns="http://www.w3.org/2000/svg">
<path d="M10.6562 0C11.0312 0 11.3438 0.135417 11.5938 0.40625C11.8646 0.65625 12 0.96875 12 1.34375V10.6562C12 11.0312 11.8646 11.3542 11.5938 11.625C11.3438 11.875 11.0312 12 10.6562 12H1.34375C0.96875 12 0.645833 11.875 0.375 11.625C0.125 11.3542 0 11.0312 0 10.6562L0 1.34375C0 0.96875 0.125 0.65625 0.375 0.40625C0.645833 0.135417 0.96875 0 1.34375 0L10.6562 0ZM7.34375 9.34375V8H2.65625V9.34375H7.34375ZM9.34375 6.65625V5.34375H2.65625V6.65625H9.34375ZM9.34375 4V2.65625H2.65625V4H9.34375Z" fill="url(#paint0_linear_4186_31128)" fill-opacity="0.9"/>
<defs>
<linearGradient id="paint0_linear_4186_31128" x1="6" y1="-2" x2="6" y2="14" gradientUnits="userSpaceOnUse">
<stop stop-color="#004899"/>
<stop offset="1" stop-color="#001833"/>
</linearGradient>
</defs>
</svg>
