<svg width="158" height="31" viewBox="0 0 158 31" fill="none" xmlns="http://www.w3.org/2000/svg">
<path d="M0.333333 28C0.333333 29.4728 1.52724 30.6667 3 30.6667C4.47276 30.6667 5.66667 29.4728 5.66667 28C5.66667 26.5272 4.47276 25.3333 3 25.3333C1.52724 25.3333 0.333333 26.5272 0.333333 28ZM155.925 28.4944C156.198 28.5357 156.453 28.3478 156.494 28.0748L157.167 23.6253C157.208 23.3523 157.021 23.0975 156.748 23.0562C156.474 23.0149 156.22 23.2028 156.178 23.4758L155.58 27.4309L151.625 26.8328C151.352 26.7916 151.097 26.9794 151.056 27.2525C151.015 27.5255 151.203 27.7803 151.476 27.8216L155.925 28.4944ZM3.42676 28.2605C3.74945 27.7319 4.09332 27.2092 4.45799 26.6925L3.64096 26.1159C3.26386 26.6502 2.90777 27.1915 2.57324 27.7395L3.42676 28.2605ZM6.8089 23.7579C7.62987 22.8462 8.51921 21.9564 9.47429 21.0896L8.80222 20.3491C7.82376 21.2371 6.91052 22.1507 6.06578 23.0888L6.8089 23.7579ZM12.3787 18.6773C13.3577 17.9307 14.3886 17.2043 15.4692 16.4987L14.9226 15.6614C13.8226 16.3795 12.7717 17.12 11.7723 17.8821L12.3787 18.6773ZM18.7083 14.5306C19.7877 13.9196 20.9072 13.327 22.0654 12.7536L21.6217 11.8575C20.4477 12.4387 19.3118 13.0398 18.2157 13.6603L18.7083 14.5306ZM25.5042 11.1565C26.6473 10.6585 27.8221 10.1777 29.0273 9.71445L28.6686 8.78103C27.4502 9.24932 26.2618 9.73569 25.1049 10.2397L25.5042 11.1565ZM32.5964 8.42434C33.7803 8.0223 34.9896 7.6362 36.2233 7.26646L35.9362 6.30856C34.6913 6.68166 33.4704 7.07143 32.2749 7.47746L32.5964 8.42434ZM39.8849 6.23608C41.0955 5.91677 42.327 5.61248 43.5783 5.32355L43.3533 4.34919C42.0922 4.64039 40.8507 4.94715 39.6298 5.26914L39.8849 6.23608ZM47.3035 4.52062C48.5345 4.2737 49.7827 4.04111 51.0473 3.82315L50.8774 2.83768C49.6041 3.05716 48.347 3.29141 47.1069 3.54015L47.3035 4.52062ZM54.8062 3.22552C56.0509 3.04393 57.3099 2.87611 58.5825 2.72233L58.4625 1.72955C57.1819 1.8843 55.9148 2.0532 54.6618 2.236L54.8062 3.22552ZM62.3722 2.30995C63.6272 2.18825 64.8941 2.07991 66.1722 1.98518L66.0983 0.987912C64.8127 1.0832 63.5383 1.19218 62.2757 1.31462L62.3722 2.30995ZM69.9728 1.7455C71.2318 1.67985 72.5008 1.62719 73.7792 1.58773L73.7484 0.588206C72.463 0.627882 71.1869 0.680838 69.9207 0.746859L69.9728 1.7455ZM77.5894 1.50971C78.2242 1.50324 78.8611 1.5 79.5 1.5V0.5C78.8577 0.5 78.2174 0.503261 77.5792 0.509758L77.5894 1.50971ZM79.5 1.5C80.2041 1.5 80.9039 1.50384 81.5994 1.51147L81.6103 0.511533C80.9111 0.503861 80.2077 0.5 79.5 0.5V1.5ZM85.7759 1.60417C87.1844 1.6515 88.5744 1.71472 89.9457 1.79339L90.0029 0.795036C88.6236 0.715908 87.2258 0.652321 85.8095 0.604732L85.7759 1.60417ZM94.1166 2.08455C95.5251 2.20073 96.9127 2.33362 98.2792 2.48268L98.3876 1.48857C97.0122 1.33855 95.6159 1.20482 94.1988 1.08794L94.1166 2.08455ZM102.423 2.99258C103.821 3.18456 105.196 3.39398 106.547 3.62017L106.712 2.63391C105.351 2.40606 103.967 2.19518 102.559 2.00187L102.423 2.99258ZM110.66 4.37487C112.045 4.65188 113.404 4.94715 114.735 5.25991L114.963 4.28642C113.621 3.97107 112.252 3.67343 110.856 3.39427L110.66 4.37487ZM118.782 6.28688C120.147 6.65964 121.48 7.05153 122.782 7.46157L123.083 6.50777C121.768 6.09379 120.423 5.6983 119.046 5.32222L118.782 6.28688ZM126.736 8.79697C128.067 9.27804 129.361 9.77901 130.618 10.2987L131 9.37457C129.729 8.849 128.42 8.3426 127.076 7.85653L126.736 8.79697ZM134.431 11.9853C135.714 12.5919 136.953 13.2191 138.148 13.8654L138.623 12.9859C137.413 12.3308 136.157 11.6954 134.858 11.0813L134.431 11.9853ZM141.746 15.9525C142.952 16.7021 144.104 17.4727 145.201 18.2621L145.785 17.4502C144.669 16.6473 143.498 15.8643 142.274 15.1033L141.746 15.9525ZM148.48 20.8095C149.567 21.723 150.587 22.6568 151.541 23.6083L152.247 22.9006C151.273 21.9282 150.232 20.9751 149.124 20.044L148.48 20.8095ZM154.327 26.668C154.771 27.2067 155.194 27.7497 155.598 28.2967L156.402 27.7033C155.988 27.1416 155.554 26.5844 155.099 26.0323L154.327 26.668ZM0.333333 28C0.333333 29.4728 1.52724 30.6667 3 30.6667C4.47276 30.6667 5.66667 29.4728 5.66667 28C5.66667 26.5272 4.47276 25.3333 3 25.3333C1.52724 25.3333 0.333333 26.5272 0.333333 28ZM155.925 28.4944C156.198 28.5357 156.453 28.3478 156.494 28.0748L157.167 23.6253C157.208 23.3523 157.021 23.0975 156.748 23.0562C156.474 23.0149 156.22 23.2028 156.178 23.4758L155.58 27.4309L151.625 26.8328C151.352 26.7916 151.097 26.9794 151.056 27.2525C151.015 27.5255 151.203 27.7803 151.476 27.8216L155.925 28.4944ZM3.42676 28.2605C3.74945 27.7319 4.09332 27.2092 4.45799 26.6925L3.64096 26.1159C3.26386 26.6502 2.90777 27.1915 2.57324 27.7395L3.42676 28.2605ZM6.8089 23.7579C7.62987 22.8462 8.51921 21.9564 9.47429 21.0896L8.80222 20.3491C7.82376 21.2371 6.91052 22.1507 6.06578 23.0888L6.8089 23.7579ZM12.3787 18.6773C13.3577 17.9307 14.3886 17.2043 15.4692 16.4987L14.9226 15.6614C13.8226 16.3795 12.7717 17.12 11.7723 17.8821L12.3787 18.6773ZM18.7083 14.5306C19.7877 13.9196 20.9072 13.327 22.0654 12.7536L21.6217 11.8575C20.4477 12.4387 19.3118 13.0398 18.2157 13.6603L18.7083 14.5306ZM25.5042 11.1565C26.6473 10.6585 27.8221 10.1777 29.0273 9.71445L28.6686 8.78103C27.4502 9.24932 26.2618 9.73569 25.1049 10.2397L25.5042 11.1565ZM32.5964 8.42434C33.7803 8.0223 34.9896 7.6362 36.2233 7.26646L35.9362 6.30856C34.6913 6.68166 33.4704 7.07143 32.2749 7.47746L32.5964 8.42434ZM39.8849 6.23608C41.0955 5.91677 42.327 5.61248 43.5783 5.32355L43.3533 4.34919C42.0922 4.64039 40.8507 4.94715 39.6298 5.26914L39.8849 6.23608ZM47.3035 4.52062C48.5345 4.2737 49.7827 4.04111 51.0473 3.82315L50.8774 2.83768C49.6041 3.05716 48.347 3.29141 47.1069 3.54015L47.3035 4.52062ZM54.8062 3.22552C56.0509 3.04393 57.3099 2.87611 58.5825 2.72233L58.4625 1.72955C57.1819 1.8843 55.9148 2.0532 54.6618 2.236L54.8062 3.22552ZM62.3722 2.30995C63.6272 2.18825 64.8941 2.07991 66.1722 1.98518L66.0983 0.987912C64.8127 1.0832 63.5383 1.19218 62.2757 1.31462L62.3722 2.30995ZM69.9728 1.7455C71.2318 1.67985 72.5008 1.62719 73.7792 1.58773L73.7484 0.588206C72.463 0.627882 71.1869 0.680838 69.9207 0.746859L69.9728 1.7455ZM77.5894 1.50971C78.2242 1.50324 78.8611 1.5 79.5 1.5V0.5C78.8577 0.5 78.2174 0.503261 77.5792 0.509758L77.5894 1.50971ZM79.5 1.5C80.2041 1.5 80.9039 1.50384 81.5994 1.51147L81.6103 0.511533C80.9111 0.503861 80.2077 0.5 79.5 0.5V1.5ZM85.7759 1.60417C87.1844 1.6515 88.5744 1.71472 89.9457 1.79339L90.0029 0.795036C88.6236 0.715908 87.2258 0.652321 85.8095 0.604732L85.7759 1.60417ZM94.1166 2.08455C95.5251 2.20073 96.9127 2.33362 98.2792 2.48268L98.3876 1.48857C97.0122 1.33855 95.6159 1.20482 94.1988 1.08794L94.1166 2.08455ZM102.423 2.99258C103.821 3.18456 105.196 3.39398 106.547 3.62017L106.712 2.63391C105.351 2.40606 103.967 2.19518 102.559 2.00187L102.423 2.99258ZM110.66 4.37487C112.045 4.65188 113.404 4.94715 114.735 5.25991L114.963 4.28642C113.621 3.97107 112.252 3.67343 110.856 3.39427L110.66 4.37487ZM118.782 6.28688C120.147 6.65964 121.48 7.05153 122.782 7.46157L123.083 6.50777C121.768 6.09379 120.423 5.6983 119.046 5.32222L118.782 6.28688ZM126.736 8.79697C128.067 9.27804 129.361 9.77901 130.618 10.2987L131 9.37457C129.729 8.849 128.42 8.3426 127.076 7.85653L126.736 8.79697ZM134.431 11.9853C135.714 12.5919 136.953 13.2191 138.148 13.8654L138.623 12.9859C137.413 12.3308 136.157 11.6954 134.858 11.0813L134.431 11.9853ZM141.746 15.9525C142.952 16.7021 144.104 17.4727 145.201 18.2621L145.785 17.4502C144.669 16.6473 143.498 15.8643 142.274 15.1033L141.746 15.9525ZM148.48 20.8095C149.567 21.723 150.587 22.6568 151.541 23.6083L152.247 22.9006C151.273 21.9282 150.232 20.9751 149.124 20.044L148.48 20.8095ZM154.327 26.668C154.771 27.2067 155.194 27.7497 155.598 28.2967L156.402 27.7033C155.988 27.1416 155.554 26.5844 155.099 26.0323L154.327 26.668Z" fill="#18191B"/>
</svg>
