<svg width="159" height="50" viewBox="0 0 159 50" fill="none" xmlns="http://www.w3.org/2000/svg">
<path d="M0.333333 47C0.333333 48.4728 1.52724 49.6667 3 49.6667C4.47276 49.6667 5.66667 48.4728 5.66667 47C5.66667 45.5272 4.47276 44.3333 3 44.3333C1.52724 44.3333 0.333333 45.5272 0.333333 47ZM155.816 47.4649C156.073 47.5665 156.363 47.4408 156.465 47.1841L158.121 43C158.223 42.7433 158.097 42.4527 157.84 42.3511C157.584 42.2494 157.293 42.3752 157.192 42.6319L155.719 46.3511L152 44.8787C151.743 44.777 151.453 44.9027 151.351 45.1595C151.249 45.4162 151.375 45.7068 151.632 45.8084L155.816 47.4649ZM3.4707 47.1687C3.69226 46.5503 3.92363 45.9369 4.16465 45.3284L3.23493 44.9601C2.98986 45.5788 2.7546 46.2026 2.5293 46.8313L3.4707 47.1687ZM5.73174 41.7252C6.29467 40.5396 6.89567 39.3751 7.53354 38.2323L6.66035 37.7449C6.01185 38.9068 5.40079 40.0908 4.82839 41.2963L5.73174 41.7252ZM9.55991 34.8646C10.271 33.7652 11.0179 32.6882 11.7994 31.6344L10.9961 31.0387C10.2021 32.1095 9.44305 33.204 8.72024 34.3215L9.55991 34.8646ZM14.2397 28.551C15.0825 27.5518 15.9582 26.5761 16.8657 25.6247L16.142 24.9345C15.2207 25.9005 14.3314 26.8913 13.4753 27.9063L14.2397 28.551ZM19.6642 22.8604C20.6202 21.9703 21.606 21.1044 22.6204 20.2635L21.9822 19.4936C20.9532 20.3466 19.953 21.2252 18.9827 22.1285L19.6642 22.8604ZM25.7182 17.8385C26.7685 17.0622 27.8453 16.3107 28.9476 15.5845L28.3974 14.7494C27.2803 15.4854 26.1888 16.2472 25.1239 17.0343L25.7182 17.8385ZM32.2896 13.506C33.4152 12.8457 34.5642 12.2103 35.7355 11.6003L35.2736 10.7134C34.0876 11.331 32.9239 11.9746 31.7837 12.6435L32.2896 13.506ZM39.275 9.8657C40.4598 9.32025 41.665 8.79958 42.8895 8.30425L42.5145 7.37722C41.2756 7.87837 40.056 8.40526 38.8569 8.95733L39.275 9.8657ZM46.5749 6.91087C47.8067 6.4768 49.0561 6.06741 50.3223 5.68323L50.0319 4.72631C48.7518 5.11473 47.4884 5.52871 46.2425 5.96771L46.5749 6.91087ZM54.118 4.62022C55.3819 4.29515 56.6609 3.99445 57.9541 3.71861L57.7455 2.74061C56.4388 3.01932 55.1463 3.32319 53.8689 3.65174L54.118 4.62022ZM61.8266 2.97462C63.1145 2.75398 64.4152 2.55744 65.728 2.38544L65.5981 1.39392C64.2723 1.56761 62.9587 1.76611 61.6577 1.98898L61.8266 2.97462ZM69.6492 1.94838C70.9493 1.82857 72.2602 1.73243 73.5811 1.66037L73.5266 0.661859C72.1933 0.734594 70.8701 0.831643 69.5575 0.952601L69.6492 1.94838ZM77.5226 1.51775C78.1795 1.50593 78.8387 1.5 79.5 1.5V0.5C78.8327 0.5 78.1675 0.505986 77.5046 0.51791L77.5226 1.51775ZM79.5 1.5C80.1619 1.5 80.8199 1.50579 81.4742 1.51731L81.4918 0.517464C80.8316 0.505845 80.1677 0.5 79.5 0.5V1.5ZM85.3999 1.65691C86.7216 1.72802 88.027 1.82298 89.3159 1.94114L89.4072 0.945318C88.1056 0.826 86.7877 0.730133 85.4536 0.658356L85.3999 1.65691ZM93.2161 2.37538C94.5279 2.54769 95.8217 2.74462 97.0974 2.96541L97.268 1.98006C95.9787 1.75693 94.6715 1.55797 93.3463 1.3839L93.2161 2.37538ZM100.954 3.71686C102.247 3.99735 103.52 4.30301 104.772 4.633L105.027 3.66598C103.76 3.33224 102.473 3.02318 101.167 2.73961L100.954 3.71686ZM108.542 5.71724C109.801 6.11058 111.039 6.52924 112.255 6.97229L112.597 6.0327C111.367 5.58431 110.114 5.16068 108.841 4.76273L108.542 5.71724ZM115.912 8.40447C117.128 8.91499 118.321 9.45076 119.491 10.0107L119.923 9.10879C118.738 8.54172 117.53 7.99924 116.299 7.4824L115.912 8.40447ZM122.982 11.7908C124.14 12.4189 125.274 13.0718 126.382 13.7482L126.903 12.8946C125.78 12.2093 124.632 11.5479 123.458 10.9116L122.982 11.7908ZM129.675 15.8768C130.76 16.6191 131.819 17.385 132.85 18.1734L133.458 17.3788C132.412 16.5799 131.339 15.8036 130.24 15.0514L129.675 15.8768ZM135.902 20.6368C136.902 21.4885 137.873 22.3623 138.816 23.2569L139.504 22.5315C138.549 21.6246 137.564 20.7389 136.551 19.8757L135.902 20.6368ZM141.587 26.0316C142.489 26.9846 143.361 27.9578 144.203 28.9498L144.965 28.3025C144.112 27.2969 143.227 26.3103 142.313 25.3442L141.587 26.0316ZM146.659 32.0055C147.452 33.0491 148.215 34.1107 148.946 35.1887L149.774 34.6273C149.032 33.5344 148.259 32.4583 147.455 31.4003L146.659 32.0055ZM151.059 38.4906C151.735 39.6127 152.38 40.75 152.992 41.9013L153.875 41.4318C153.254 40.2648 152.601 39.1119 151.916 37.9745L151.059 38.4906ZM154.739 45.4106C155.014 46.0035 155.282 46.5996 155.541 47.1986L156.459 46.8014C156.196 46.1943 155.925 45.5901 155.646 44.989L154.739 45.4106ZM0.333333 47C0.333333 48.4728 1.52724 49.6667 3 49.6667C4.47276 49.6667 5.66667 48.4728 5.66667 47C5.66667 45.5272 4.47276 44.3333 3 44.3333C1.52724 44.3333 0.333333 45.5272 0.333333 47ZM155.816 47.4649C156.073 47.5665 156.363 47.4408 156.465 47.1841L158.121 43C158.223 42.7433 158.097 42.4527 157.84 42.3511C157.584 42.2494 157.293 42.3752 157.192 42.6319L155.719 46.3511L152 44.8787C151.743 44.777 151.453 44.9027 151.351 45.1595C151.249 45.4162 151.375 45.7068 151.632 45.8084L155.816 47.4649ZM3.4707 47.1687C3.69226 46.5503 3.92363 45.9369 4.16465 45.3284L3.23493 44.9601C2.98986 45.5788 2.7546 46.2026 2.5293 46.8313L3.4707 47.1687ZM5.73174 41.7252C6.29467 40.5396 6.89567 39.3751 7.53354 38.2323L6.66035 37.7449C6.01185 38.9068 5.40079 40.0908 4.82839 41.2963L5.73174 41.7252ZM9.55991 34.8646C10.271 33.7652 11.0179 32.6882 11.7994 31.6344L10.9961 31.0387C10.2021 32.1095 9.44305 33.204 8.72024 34.3215L9.55991 34.8646ZM14.2397 28.551C15.0825 27.5518 15.9582 26.5761 16.8657 25.6247L16.142 24.9345C15.2207 25.9005 14.3314 26.8913 13.4753 27.9063L14.2397 28.551ZM19.6642 22.8604C20.6202 21.9703 21.606 21.1044 22.6204 20.2635L21.9822 19.4936C20.9532 20.3466 19.953 21.2252 18.9827 22.1285L19.6642 22.8604ZM25.7182 17.8385C26.7685 17.0622 27.8453 16.3107 28.9476 15.5845L28.3974 14.7494C27.2803 15.4854 26.1888 16.2472 25.1239 17.0343L25.7182 17.8385ZM32.2896 13.506C33.4152 12.8457 34.5642 12.2103 35.7355 11.6003L35.2736 10.7134C34.0876 11.331 32.9239 11.9746 31.7837 12.6435L32.2896 13.506ZM39.275 9.8657C40.4598 9.32025 41.665 8.79958 42.8895 8.30425L42.5145 7.37722C41.2756 7.87837 40.056 8.40526 38.8569 8.95733L39.275 9.8657ZM46.5749 6.91087C47.8067 6.4768 49.0561 6.06741 50.3223 5.68323L50.0319 4.72631C48.7518 5.11473 47.4884 5.52871 46.2425 5.96771L46.5749 6.91087ZM54.118 4.62022C55.3819 4.29515 56.6609 3.99445 57.9541 3.71861L57.7455 2.74061C56.4388 3.01932 55.1463 3.32319 53.8689 3.65174L54.118 4.62022ZM61.8266 2.97462C63.1145 2.75398 64.4152 2.55744 65.728 2.38544L65.5981 1.39392C64.2723 1.56761 62.9587 1.76611 61.6577 1.98898L61.8266 2.97462ZM69.6492 1.94838C70.9493 1.82857 72.2602 1.73243 73.5811 1.66037L73.5266 0.661859C72.1933 0.734594 70.8701 0.831643 69.5575 0.952601L69.6492 1.94838ZM77.5226 1.51775C78.1795 1.50593 78.8387 1.5 79.5 1.5V0.5C78.8327 0.5 78.1675 0.505986 77.5046 0.51791L77.5226 1.51775ZM79.5 1.5C80.1619 1.5 80.8199 1.50579 81.4742 1.51731L81.4918 0.517464C80.8316 0.505845 80.1677 0.5 79.5 0.5V1.5ZM85.3999 1.65691C86.7216 1.72802 88.027 1.82298 89.3159 1.94114L89.4072 0.945318C88.1056 0.826 86.7877 0.730133 85.4536 0.658356L85.3999 1.65691ZM93.2161 2.37538C94.5279 2.54769 95.8217 2.74462 97.0974 2.96541L97.268 1.98006C95.9787 1.75693 94.6715 1.55797 93.3463 1.3839L93.2161 2.37538ZM100.954 3.71686C102.247 3.99735 103.52 4.30301 104.772 4.633L105.027 3.66598C103.76 3.33224 102.473 3.02318 101.167 2.73961L100.954 3.71686ZM108.542 5.71724C109.801 6.11058 111.039 6.52924 112.255 6.97229L112.597 6.0327C111.367 5.58431 110.114 5.16068 108.841 4.76273L108.542 5.71724ZM115.912 8.40447C117.128 8.91499 118.321 9.45076 119.491 10.0107L119.923 9.10879C118.738 8.54172 117.53 7.99924 116.299 7.4824L115.912 8.40447ZM122.982 11.7908C124.14 12.4189 125.274 13.0718 126.382 13.7482L126.903 12.8946C125.78 12.2093 124.632 11.5479 123.458 10.9116L122.982 11.7908ZM129.675 15.8768C130.76 16.6191 131.819 17.385 132.85 18.1734L133.458 17.3788C132.412 16.5799 131.339 15.8036 130.24 15.0514L129.675 15.8768ZM135.902 20.6368C136.902 21.4885 137.873 22.3623 138.816 23.2569L139.504 22.5315C138.549 21.6246 137.564 20.7389 136.551 19.8757L135.902 20.6368ZM141.587 26.0316C142.489 26.9846 143.361 27.9578 144.203 28.9498L144.965 28.3025C144.112 27.2969 143.227 26.3103 142.313 25.3442L141.587 26.0316ZM146.659 32.0055C147.452 33.0491 148.215 34.1107 148.946 35.1887L149.774 34.6273C149.032 33.5344 148.259 32.4583 147.455 31.4003L146.659 32.0055ZM151.059 38.4906C151.735 39.6127 152.38 40.75 152.992 41.9013L153.875 41.4318C153.254 40.2648 152.601 39.1119 151.916 37.9745L151.059 38.4906ZM154.739 45.4106C155.014 46.0035 155.282 46.5996 155.541 47.1986L156.459 46.8014C156.196 46.1943 155.925 45.5901 155.646 44.989L154.739 45.4106Z" fill="#18191B"/>
</svg>
