<svg width="0" height="0" class="hidden">
  <symbol fill="none" xmlns="http://www.w3.org/2000/svg" viewBox="0 0 7 10" id="ic_arr_hor">
    <path d="M6.35156 8.82812L5.17969 10L0.179688 5L5.17969 0L6.35156 1.17188L2.52344 5L6.35156 8.82812Z" fill="currentColor"></path>
  </symbol>
  <symbol fill="none" xmlns="http://www.w3.org/2000/svg" viewBox="0 0 10 7" id="ic_arr_ver">
    <path d="M1.17188 0.148438L5 3.97656L8.82812 0.148438L10 1.32031L5 6.32031L0 1.32031L1.17188 0.148438Z" fill="currentColor"></path>
  </symbol>
  <symbol fill="none" xmlns="http://www.w3.org/2000/svg" viewBox="0 0 17 8" id="ic_arrow_hor">
    <path d="M16.3203 4L13 7.32031V4.82031H0.5V3.17969H13V0.679688L16.3203 4Z" fill="currentColor"></path>
  </symbol>
  <symbol fill="none" xmlns="http://www.w3.org/2000/svg" viewBox="0 0 16 11" id="ic_check">
    <path d="M14.7812 1.21875C15.0625 1.53125 15.0625 2 14.7812 2.28125L6.53125 10.5312C6.21875 10.8438 5.75 10.8438 5.46875 10.5312L1.21875 6.28125C0.90625 6 0.90625 5.53125 1.21875 5.25C1.5 4.9375 1.96875 4.9375 2.25 5.25L5.96875 8.96875L13.7188 1.21875C14 0.9375 14.4688 0.9375 14.75 1.21875H14.7812Z" fill="currentColor"></path>
  </symbol>
  <symbol fill="none" xmlns="http://www.w3.org/2000/svg" viewBox="0 0 8 12" id="ic_chromatograph1">
    <path d="M3.34375 12H2.65625L3.34375 7.34375H1C0.666667 7.34375 0.583333 7.19792 0.75 6.90625C0.8125 6.80208 0.822917 6.77083 0.78125 6.8125C1.84375 4.95833 3.13542 2.6875 4.65625 0H5.34375L4.65625 4.65625H7C7.29167 4.65625 7.38542 4.80208 7.28125 5.09375L3.34375 12Z" fill="currentColor"></path>
  </symbol>
  <symbol fill="none" xmlns="http://www.w3.org/2000/svg" viewBox="0 0 14 8" id="ic_chromatograph2">
    <path d="M2.25 5.40625C2.64583 5.80208 3.11458 6 3.65625 6C4.19792 6 4.66667 5.80208 5.0625 5.40625C5.45833 5.01042 5.65625 4.54167 5.65625 4C5.65625 3.45833 5.45833 2.98958 5.0625 2.59375C4.66667 2.19792 4.19792 2 3.65625 2C3.11458 2 2.64583 2.19792 2.25 2.59375C1.85417 2.98958 1.65625 3.45833 1.65625 4C1.65625 4.54167 1.85417 5.01042 2.25 5.40625ZM10.3438 0.65625C11.2604 0.65625 12.0417 0.989583 12.6875 1.65625C13.3333 2.30208 13.6562 3.08333 13.6562 4C13.6562 4.91667 13.3333 5.70833 12.6875 6.375C12.0417 7.02083 11.2604 7.34375 10.3438 7.34375H3.65625C2.73958 7.34375 1.95833 7.02083 1.3125 6.375C0.666667 5.70833 0.34375 4.91667 0.34375 4C0.34375 3.08333 0.666667 2.30208 1.3125 1.65625C1.95833 0.989583 2.73958 0.65625 3.65625 0.65625L10.3438 0.65625Z" fill="white"></path>
    <path d="M2.25 5.40625C2.64583 5.80208 3.11458 6 3.65625 6C4.19792 6 4.66667 5.80208 5.0625 5.40625C5.45833 5.01042 5.65625 4.54167 5.65625 4C5.65625 3.45833 5.45833 2.98958 5.0625 2.59375C4.66667 2.19792 4.19792 2 3.65625 2C3.11458 2 2.64583 2.19792 2.25 2.59375C1.85417 2.98958 1.65625 3.45833 1.65625 4C1.65625 4.54167 1.85417 5.01042 2.25 5.40625ZM10.3438 0.65625C11.2604 0.65625 12.0417 0.989583 12.6875 1.65625C13.3333 2.30208 13.6562 3.08333 13.6562 4C13.6562 4.91667 13.3333 5.70833 12.6875 6.375C12.0417 7.02083 11.2604 7.34375 10.3438 7.34375H3.65625C2.73958 7.34375 1.95833 7.02083 1.3125 6.375C0.666667 5.70833 0.34375 4.91667 0.34375 4C0.34375 3.08333 0.666667 2.30208 1.3125 1.65625C1.95833 0.989583 2.73958 0.65625 3.65625 0.65625L10.3438 0.65625Z" fill="currentColor"></path>
  </symbol>
  <symbol fill="none" xmlns="http://www.w3.org/2000/svg" viewBox="0 0 16 16" id="ic_chromatograph3">
    <path d="M3.26641 14.0007L3.16641 13.1507L3.03307 13.084C2.98863 13.0618 2.92752 13.0229 2.84974 12.9673L2.04974 13.3007L1.31641 12.034L1.99974 11.5173V11.1673L1.31641 10.634L2.04974 9.36732L2.84974 9.70065C2.9053 9.66732 2.95807 9.63398 3.00807 9.60065C3.05807 9.56732 3.11085 9.53954 3.16641 9.51732L3.26641 8.66732H4.73307L4.83307 9.51732L4.89974 9.55065L4.96641 9.58398C4.98863 9.5951 5.01641 9.61176 5.04974 9.63398L5.14974 9.70065L5.94974 9.36732L6.68307 10.634L5.99974 11.1507V11.5173L9.64974 9.40065L8.89974 10.7173L9.09974 10.8673L6.46641 12.4007L5.94974 13.3007L5.14974 12.9673C5.09418 13.0007 5.04141 13.034 4.99141 13.0673C4.94141 13.1007 4.88863 13.1284 4.83307 13.1507L4.73307 14.0007H3.26641ZM3.99974 10.334C3.72196 10.334 3.48585 10.4312 3.29141 10.6257C3.09696 10.8201 2.99974 11.0562 2.99974 11.334C2.99974 11.6118 3.09696 11.8479 3.29141 12.0423C3.48585 12.2368 3.72196 12.334 3.99974 12.334C4.27752 12.334 4.51363 12.2368 4.70807 12.0423C4.90252 11.8479 4.99974 11.6118 4.99974 11.334C4.99974 11.0562 4.90252 10.8201 4.70807 10.6257C4.51363 10.4312 4.27752 10.334 3.99974 10.334ZM6.59974 6.66732L6.49974 5.81732C6.47752 5.7951 6.44974 5.77843 6.41641 5.76732C6.38307 5.75621 6.3553 5.73954 6.33307 5.71732V9.38398L6.08307 8.95065L5.33307 9.26732V5.86732L4.66641 4.70065L5.33307 4.18398V3.83398L4.64974 3.30065L5.38307 2.03398L6.18307 2.36732C6.23863 2.33398 6.29141 2.30065 6.34141 2.26732C6.39141 2.23398 6.44418 2.20621 6.49974 2.18398L6.59974 1.33398H8.06641L8.16641 2.18398L8.29974 2.25065C8.34418 2.27287 8.4053 2.31176 8.48307 2.36732L9.28307 2.03398L10.0164 3.30065L9.33307 3.81732V4.16732L10.0164 4.70065L9.28307 5.96732L8.48307 5.63398C8.42752 5.66732 8.37474 5.70065 8.32474 5.73398C8.27474 5.76732 8.22196 5.7951 8.16641 5.81732L8.06641 6.66732H6.59974ZM7.33307 3.00065C7.0553 3.00065 6.81918 3.09787 6.62474 3.29232C6.4303 3.48676 6.33307 3.72287 6.33307 4.00065C6.33307 4.27843 6.4303 4.51454 6.62474 4.70898C6.81918 4.90343 7.0553 5.00065 7.33307 5.00065C7.61085 5.00065 7.84696 4.90343 8.04141 4.70898C8.23585 4.51454 8.33307 4.27843 8.33307 4.00065C8.33307 3.72287 8.23585 3.48676 8.04141 3.29232C7.84696 3.09787 7.61085 3.00065 7.33307 3.00065ZM11.2664 14.0007L11.1664 13.1507L11.0331 13.084C10.9886 13.0618 10.9275 13.0229 10.8497 12.9673L10.0497 13.3007L9.31641 12.034L9.99974 11.5173V11.1673L9.31641 10.6507L10.0497 9.36732L10.8497 9.70065C10.8831 9.67843 10.9053 9.66454 10.9164 9.65899L11.1664 9.53399L7.56641 7.00065H8.36641L8.43307 6.40065L11.6831 8.66732H12.7331L12.8331 9.51732L12.8997 9.55065L12.9664 9.58398C12.9886 9.5951 13.0164 9.61176 13.0497 9.63398L13.1497 9.70065L13.9497 9.36732L14.6831 10.634L13.9997 11.1507V11.5007L14.6831 12.034L13.9497 13.3007L13.1497 12.9673C13.0942 13.0007 13.0414 13.034 12.9914 13.0673C12.9414 13.1007 12.8886 13.1284 12.8331 13.1507L12.7331 14.0007H11.2664ZM11.9997 10.334C11.722 10.334 11.4859 10.4312 11.2914 10.6257C11.097 10.8201 10.9997 11.0562 10.9997 11.334C10.9997 11.6118 11.097 11.8479 11.2914 12.0423C11.4859 12.2368 11.722 12.334 11.9997 12.334C12.2775 12.334 12.5136 12.2368 12.7081 12.0423C12.9025 11.8479 12.9997 11.6118 12.9997 11.334C12.9997 11.0562 12.9025 10.8201 12.7081 10.6257C12.5136 10.4312 12.2775 10.334 11.9997 10.334Z" fill="white"></path>
    <path d="M3.26641 14.0007L3.16641 13.1507L3.03307 13.084C2.98863 13.0618 2.92752 13.0229 2.84974 12.9673L2.04974 13.3007L1.31641 12.034L1.99974 11.5173V11.1673L1.31641 10.634L2.04974 9.36732L2.84974 9.70065C2.9053 9.66732 2.95807 9.63398 3.00807 9.60065C3.05807 9.56732 3.11085 9.53954 3.16641 9.51732L3.26641 8.66732H4.73307L4.83307 9.51732L4.89974 9.55065L4.96641 9.58398C4.98863 9.5951 5.01641 9.61176 5.04974 9.63398L5.14974 9.70065L5.94974 9.36732L6.68307 10.634L5.99974 11.1507V11.5173L9.64974 9.40065L8.89974 10.7173L9.09974 10.8673L6.46641 12.4007L5.94974 13.3007L5.14974 12.9673C5.09418 13.0007 5.04141 13.034 4.99141 13.0673C4.94141 13.1007 4.88863 13.1284 4.83307 13.1507L4.73307 14.0007H3.26641ZM3.99974 10.334C3.72196 10.334 3.48585 10.4312 3.29141 10.6257C3.09696 10.8201 2.99974 11.0562 2.99974 11.334C2.99974 11.6118 3.09696 11.8479 3.29141 12.0423C3.48585 12.2368 3.72196 12.334 3.99974 12.334C4.27752 12.334 4.51363 12.2368 4.70807 12.0423C4.90252 11.8479 4.99974 11.6118 4.99974 11.334C4.99974 11.0562 4.90252 10.8201 4.70807 10.6257C4.51363 10.4312 4.27752 10.334 3.99974 10.334ZM6.59974 6.66732L6.49974 5.81732C6.47752 5.7951 6.44974 5.77843 6.41641 5.76732C6.38307 5.75621 6.3553 5.73954 6.33307 5.71732V9.38398L6.08307 8.95065L5.33307 9.26732V5.86732L4.66641 4.70065L5.33307 4.18398V3.83398L4.64974 3.30065L5.38307 2.03398L6.18307 2.36732C6.23863 2.33398 6.29141 2.30065 6.34141 2.26732C6.39141 2.23398 6.44418 2.20621 6.49974 2.18398L6.59974 1.33398H8.06641L8.16641 2.18398L8.29974 2.25065C8.34418 2.27287 8.4053 2.31176 8.48307 2.36732L9.28307 2.03398L10.0164 3.30065L9.33307 3.81732V4.16732L10.0164 4.70065L9.28307 5.96732L8.48307 5.63398C8.42752 5.66732 8.37474 5.70065 8.32474 5.73398C8.27474 5.76732 8.22196 5.7951 8.16641 5.81732L8.06641 6.66732H6.59974ZM7.33307 3.00065C7.0553 3.00065 6.81918 3.09787 6.62474 3.29232C6.4303 3.48676 6.33307 3.72287 6.33307 4.00065C6.33307 4.27843 6.4303 4.51454 6.62474 4.70898C6.81918 4.90343 7.0553 5.00065 7.33307 5.00065C7.61085 5.00065 7.84696 4.90343 8.04141 4.70898C8.23585 4.51454 8.33307 4.27843 8.33307 4.00065C8.33307 3.72287 8.23585 3.48676 8.04141 3.29232C7.84696 3.09787 7.61085 3.00065 7.33307 3.00065ZM11.2664 14.0007L11.1664 13.1507L11.0331 13.084C10.9886 13.0618 10.9275 13.0229 10.8497 12.9673L10.0497 13.3007L9.31641 12.034L9.99974 11.5173V11.1673L9.31641 10.6507L10.0497 9.36732L10.8497 9.70065C10.8831 9.67843 10.9053 9.66454 10.9164 9.65899L11.1664 9.53399L7.56641 7.00065H8.36641L8.43307 6.40065L11.6831 8.66732H12.7331L12.8331 9.51732L12.8997 9.55065L12.9664 9.58398C12.9886 9.5951 13.0164 9.61176 13.0497 9.63398L13.1497 9.70065L13.9497 9.36732L14.6831 10.634L13.9997 11.1507V11.5007L14.6831 12.034L13.9497 13.3007L13.1497 12.9673C13.0942 13.0007 13.0414 13.034 12.9914 13.0673C12.9414 13.1007 12.8886 13.1284 12.8331 13.1507L12.7331 14.0007H11.2664ZM11.9997 10.334C11.722 10.334 11.4859 10.4312 11.2914 10.6257C11.097 10.8201 10.9997 11.0562 10.9997 11.334C10.9997 11.6118 11.097 11.8479 11.2914 12.0423C11.4859 12.2368 11.722 12.334 11.9997 12.334C12.2775 12.334 12.5136 12.2368 12.7081 12.0423C12.9025 11.8479 12.9997 11.6118 12.9997 11.334C12.9997 11.0562 12.9025 10.8201 12.7081 10.6257C12.5136 10.4312 12.2775 10.334 11.9997 10.334Z" fill="white"></path>
    <path d="M3.26641 14.0007L3.16641 13.1507L3.03307 13.084C2.98863 13.0618 2.92752 13.0229 2.84974 12.9673L2.04974 13.3007L1.31641 12.034L1.99974 11.5173V11.1673L1.31641 10.634L2.04974 9.36732L2.84974 9.70065C2.9053 9.66732 2.95807 9.63398 3.00807 9.60065C3.05807 9.56732 3.11085 9.53954 3.16641 9.51732L3.26641 8.66732H4.73307L4.83307 9.51732L4.89974 9.55065L4.96641 9.58398C4.98863 9.5951 5.01641 9.61176 5.04974 9.63398L5.14974 9.70065L5.94974 9.36732L6.68307 10.634L5.99974 11.1507V11.5173L9.64974 9.40065L8.89974 10.7173L9.09974 10.8673L6.46641 12.4007L5.94974 13.3007L5.14974 12.9673C5.09418 13.0007 5.04141 13.034 4.99141 13.0673C4.94141 13.1007 4.88863 13.1284 4.83307 13.1507L4.73307 14.0007H3.26641ZM3.99974 10.334C3.72196 10.334 3.48585 10.4312 3.29141 10.6257C3.09696 10.8201 2.99974 11.0562 2.99974 11.334C2.99974 11.6118 3.09696 11.8479 3.29141 12.0423C3.48585 12.2368 3.72196 12.334 3.99974 12.334C4.27752 12.334 4.51363 12.2368 4.70807 12.0423C4.90252 11.8479 4.99974 11.6118 4.99974 11.334C4.99974 11.0562 4.90252 10.8201 4.70807 10.6257C4.51363 10.4312 4.27752 10.334 3.99974 10.334ZM6.59974 6.66732L6.49974 5.81732C6.47752 5.7951 6.44974 5.77843 6.41641 5.76732C6.38307 5.75621 6.3553 5.73954 6.33307 5.71732V9.38398L6.08307 8.95065L5.33307 9.26732V5.86732L4.66641 4.70065L5.33307 4.18398V3.83398L4.64974 3.30065L5.38307 2.03398L6.18307 2.36732C6.23863 2.33398 6.29141 2.30065 6.34141 2.26732C6.39141 2.23398 6.44418 2.20621 6.49974 2.18398L6.59974 1.33398H8.06641L8.16641 2.18398L8.29974 2.25065C8.34418 2.27287 8.4053 2.31176 8.48307 2.36732L9.28307 2.03398L10.0164 3.30065L9.33307 3.81732V4.16732L10.0164 4.70065L9.28307 5.96732L8.48307 5.63398C8.42752 5.66732 8.37474 5.70065 8.32474 5.73398C8.27474 5.76732 8.22196 5.7951 8.16641 5.81732L8.06641 6.66732H6.59974ZM7.33307 3.00065C7.0553 3.00065 6.81918 3.09787 6.62474 3.29232C6.4303 3.48676 6.33307 3.72287 6.33307 4.00065C6.33307 4.27843 6.4303 4.51454 6.62474 4.70898C6.81918 4.90343 7.0553 5.00065 7.33307 5.00065C7.61085 5.00065 7.84696 4.90343 8.04141 4.70898C8.23585 4.51454 8.33307 4.27843 8.33307 4.00065C8.33307 3.72287 8.23585 3.48676 8.04141 3.29232C7.84696 3.09787 7.61085 3.00065 7.33307 3.00065ZM11.2664 14.0007L11.1664 13.1507L11.0331 13.084C10.9886 13.0618 10.9275 13.0229 10.8497 12.9673L10.0497 13.3007L9.31641 12.034L9.99974 11.5173V11.1673L9.31641 10.6507L10.0497 9.36732L10.8497 9.70065C10.8831 9.67843 10.9053 9.66454 10.9164 9.65899L11.1664 9.53399L7.56641 7.00065H8.36641L8.43307 6.40065L11.6831 8.66732H12.7331L12.8331 9.51732L12.8997 9.55065L12.9664 9.58398C12.9886 9.5951 13.0164 9.61176 13.0497 9.63398L13.1497 9.70065L13.9497 9.36732L14.6831 10.634L13.9997 11.1507V11.5007L14.6831 12.034L13.9497 13.3007L13.1497 12.9673C13.0942 13.0007 13.0414 13.034 12.9914 13.0673C12.9414 13.1007 12.8886 13.1284 12.8331 13.1507L12.7331 14.0007H11.2664ZM11.9997 10.334C11.722 10.334 11.4859 10.4312 11.2914 10.6257C11.097 10.8201 10.9997 11.0562 10.9997 11.334C10.9997 11.6118 11.097 11.8479 11.2914 12.0423C11.4859 12.2368 11.722 12.334 11.9997 12.334C12.2775 12.334 12.5136 12.2368 12.7081 12.0423C12.9025 11.8479 12.9997 11.6118 12.9997 11.334C12.9997 11.0562 12.9025 10.8201 12.7081 10.6257C12.5136 10.4312 12.2775 10.334 11.9997 10.334Z" fill="currentColor"></path>
  </symbol>
  <symbol fill="none" xmlns="http://www.w3.org/2000/svg" viewBox="0 0 14 8" id="ic_chromatograph4">
    <path d="M8.9375 5.40625C9.33333 5.80208 9.80208 6 10.3438 6C10.8854 6 11.3542 5.80208 11.75 5.40625C12.1458 5.01042 12.3438 4.54167 12.3438 4C12.3438 3.45833 12.1458 2.98958 11.75 2.59375C11.3542 2.19792 10.8854 2 10.3438 2C9.80208 2 9.33333 2.19792 8.9375 2.59375C8.54167 2.98958 8.34375 3.45833 8.34375 4C8.34375 4.54167 8.54167 5.01042 8.9375 5.40625ZM10.3438 0.65625C11.2604 0.65625 12.0417 0.989583 12.6875 1.65625C13.3333 2.30208 13.6562 3.08333 13.6562 4C13.6562 4.91667 13.3333 5.70833 12.6875 6.375C12.0417 7.02083 11.2604 7.34375 10.3438 7.34375H3.65625C2.73958 7.34375 1.95833 7.02083 1.3125 6.375C0.666667 5.70833 0.34375 4.91667 0.34375 4C0.34375 3.08333 0.666667 2.30208 1.3125 1.65625C1.95833 0.989583 2.73958 0.65625 3.65625 0.65625L10.3438 0.65625Z" fill="white"></path>
    <path d="M8.9375 5.40625C9.33333 5.80208 9.80208 6 10.3438 6C10.8854 6 11.3542 5.80208 11.75 5.40625C12.1458 5.01042 12.3438 4.54167 12.3438 4C12.3438 3.45833 12.1458 2.98958 11.75 2.59375C11.3542 2.19792 10.8854 2 10.3438 2C9.80208 2 9.33333 2.19792 8.9375 2.59375C8.54167 2.98958 8.34375 3.45833 8.34375 4C8.34375 4.54167 8.54167 5.01042 8.9375 5.40625ZM10.3438 0.65625C11.2604 0.65625 12.0417 0.989583 12.6875 1.65625C13.3333 2.30208 13.6562 3.08333 13.6562 4C13.6562 4.91667 13.3333 5.70833 12.6875 6.375C12.0417 7.02083 11.2604 7.34375 10.3438 7.34375H3.65625C2.73958 7.34375 1.95833 7.02083 1.3125 6.375C0.666667 5.70833 0.34375 4.91667 0.34375 4C0.34375 3.08333 0.666667 2.30208 1.3125 1.65625C1.95833 0.989583 2.73958 0.65625 3.65625 0.65625L10.3438 0.65625Z" fill="currentColor"></path>
  </symbol>
  <symbol fill="none" xmlns="http://www.w3.org/2000/svg" viewBox="0 0 16 13" id="ic_chromatograph5">
    <path d="M1.39062 0.640625L4.83594 3.33594C6.17188 2.28125 8.09375 2.375 9.3125 3.59375C10.3203 4.60156 10.5781 6.125 9.99219 7.36719L11.0703 8.21094L13.2969 5.98438C14.1641 5.09375 14.1641 3.6875 13.2969 2.79688C12.4531 1.97656 11.1172 1.92969 10.2266 2.70313L10.0859 2.82031C9.85156 3.03125 9.5 3.00781 9.28906 2.77344C9.07812 2.53906 9.10156 2.1875 9.33594 1.97656L9.47656 1.85938C10.8125 0.6875 12.8281 0.757813 14.0938 2C15.4062 3.3125 15.4062 5.44531 14.0938 6.78125L11.9609 8.91406L15.2656 11.5156C15.5234 11.7031 15.5703 12.0547 15.3594 12.2891C15.1719 12.5469 14.8203 12.5938 14.5859 12.3828L0.710937 1.50781C0.453125 1.32031 0.40625 0.96875 0.617188 0.734375C0.804688 0.476562 1.15625 0.429688 1.39062 0.640625ZM5.77344 4.0625L9.07812 6.64063C9.3125 5.86719 9.125 5 8.51562 4.39062C7.76562 3.64063 6.64062 3.52344 5.77344 4.0625ZM8.75 9.26562L10.0156 10.2734C8.86719 10.625 7.57812 10.3438 6.66406 9.42969C5.96094 8.72656 5.63281 7.78906 5.67969 6.85156L6.94531 7.85938C7.0625 8.14062 7.22656 8.39844 7.46094 8.63281C7.8125 9.00781 8.28125 9.21875 8.75 9.26562ZM3.21875 4.90625L4.10938 5.60938L2.67969 7.03906C1.8125 7.90625 1.8125 9.33594 2.67969 10.2266C3.52344 11.0469 4.85938 11.0938 5.75 10.3203L5.89062 10.2031C6.125 9.99219 6.47656 10.0156 6.6875 10.25C6.89844 10.4844 6.875 10.8359 6.64062 11.0469L6.5 11.1641C5.16406 12.3359 3.14844 12.2656 1.88281 11.0234C0.570312 9.71094 0.570312 7.55469 1.88281 6.24219L3.21875 4.90625Z" fill="white"></path>
    <path d="M1.39062 0.640625L4.83594 3.33594C6.17188 2.28125 8.09375 2.375 9.3125 3.59375C10.3203 4.60156 10.5781 6.125 9.99219 7.36719L11.0703 8.21094L13.2969 5.98438C14.1641 5.09375 14.1641 3.6875 13.2969 2.79688C12.4531 1.97656 11.1172 1.92969 10.2266 2.70313L10.0859 2.82031C9.85156 3.03125 9.5 3.00781 9.28906 2.77344C9.07812 2.53906 9.10156 2.1875 9.33594 1.97656L9.47656 1.85938C10.8125 0.6875 12.8281 0.757813 14.0938 2C15.4062 3.3125 15.4062 5.44531 14.0938 6.78125L11.9609 8.91406L15.2656 11.5156C15.5234 11.7031 15.5703 12.0547 15.3594 12.2891C15.1719 12.5469 14.8203 12.5938 14.5859 12.3828L0.710937 1.50781C0.453125 1.32031 0.40625 0.96875 0.617188 0.734375C0.804688 0.476562 1.15625 0.429688 1.39062 0.640625ZM5.77344 4.0625L9.07812 6.64063C9.3125 5.86719 9.125 5 8.51562 4.39062C7.76562 3.64063 6.64062 3.52344 5.77344 4.0625ZM8.75 9.26562L10.0156 10.2734C8.86719 10.625 7.57812 10.3438 6.66406 9.42969C5.96094 8.72656 5.63281 7.78906 5.67969 6.85156L6.94531 7.85938C7.0625 8.14062 7.22656 8.39844 7.46094 8.63281C7.8125 9.00781 8.28125 9.21875 8.75 9.26562ZM3.21875 4.90625L4.10938 5.60938L2.67969 7.03906C1.8125 7.90625 1.8125 9.33594 2.67969 10.2266C3.52344 11.0469 4.85938 11.0938 5.75 10.3203L5.89062 10.2031C6.125 9.99219 6.47656 10.0156 6.6875 10.25C6.89844 10.4844 6.875 10.8359 6.64062 11.0469L6.5 11.1641C5.16406 12.3359 3.14844 12.2656 1.88281 11.0234C0.570312 9.71094 0.570312 7.55469 1.88281 6.24219L3.21875 4.90625Z" fill="currentColor"></path>
  </symbol>
  <symbol fill="none" xmlns="http://www.w3.org/2000/svg" viewBox="0 0 14 12" id="ic_chromatograph6">
    <path d="M12.3438 0.65625C12.6979 0.65625 13 0.791667 13.25 1.0625C13.5208 1.3125 13.6562 1.625 13.6562 2V10C13.6562 10.375 13.5208 10.6979 13.25 10.9688C13 11.2188 12.6979 11.3438 12.3438 11.3438H1.65625C1.30208 11.3438 0.989583 11.2188 0.71875 10.9688C0.46875 10.6979 0.34375 10.375 0.34375 10L0.34375 2C0.34375 1.625 0.46875 1.3125 0.71875 1.0625C0.989583 0.791667 1.30208 0.65625 1.65625 0.65625L12.3438 0.65625ZM12.3438 10V3.34375L1.65625 3.34375L1.65625 10H12.3438ZM11 9.34375V8H7V9.34375H11ZM4 9.34375L6.65625 6.65625L4 4L3.0625 4.9375L4.78125 6.65625L3.0625 8.40625L4 9.34375Z" fill="currentColor"></path>
  </symbol>
  <symbol fill="none" xmlns="http://www.w3.org/2000/svg" viewBox="0 0 14 12" id="ic_chromatograph7">
    <path d="M5.5 0.65625L13.5 0.65625V9.34375C13.5 9.69792 13.4062 10.0312 13.2188 10.3438C13.0521 10.6354 12.8125 10.875 12.5 11.0625C12.2083 11.25 11.875 11.3438 11.5 11.3438H4.84375C4.46875 11.3438 4.14583 11.2188 3.875 10.9688C3.625 10.6979 3.5 10.375 3.5 10L3.5 8H5.5V6.5C5.125 6.47917 4.75 6.39583 4.375 6.25C4.02083 6.08333 3.69792 5.86458 3.40625 5.59375V4.84375H2.6875L0.46875 2.625C0.927083 2.16667 1.4375 1.82292 2 1.59375C2.58333 1.36458 3.16667 1.25 3.75 1.25C4.35417 1.25 4.9375 1.36458 5.5 1.59375V0.65625ZM4.75 4.9375C5.04167 5.08333 5.34375 5.15625 5.65625 5.15625C6.15625 5.15625 6.58333 4.97917 6.9375 4.625L7.0625 4.5L6.125 3.5625C5.45833 2.91667 4.66667 2.59375 3.75 2.59375C3.33333 2.59375 2.92708 2.66667 2.53125 2.8125L3.25 3.5H4.75V4.9375ZM12.1562 9.34375V2L6.84375 2V2.40625L10.8438 6.40625V7.34375H9.90625L8 5.46875L7.875 5.59375C7.58333 5.88542 7.23958 6.11458 6.84375 6.28125V8H10.8438V9.34375C10.8438 9.51042 10.9062 9.66667 11.0312 9.8125C11.1562 9.9375 11.3125 10 11.5 10C11.6875 10 11.8438 9.9375 11.9688 9.8125C12.0938 9.66667 12.1562 9.51042 12.1562 9.34375Z" fill="currentColor"></path>
  </symbol>
  <symbol fill="none" xmlns="http://www.w3.org/2000/svg" viewBox="0 0 12 12" id="ic_close">
    <path d="M11.5293 1.58398L7.11328 6L11.5293 10.416L10.416 11.5293L6 7.11328L1.58398 11.5293L0.470703 10.416L4.88672 6L0.470703 1.58398L1.58398 0.470703L6 4.88672L10.416 0.470703L11.5293 1.58398Z" fill="currentColor"></path>
  </symbol>
  <symbol fill="none" xmlns="http://www.w3.org/2000/svg" viewBox="0 0 4 12" id="ic_exp">
    <path d="M0.65625 0H3.34375V8H0.65625L0.65625 0ZM1.03125 11.625C0.78125 11.3542 0.65625 11.0312 0.65625 10.6562C0.65625 10.2812 0.78125 9.96875 1.03125 9.71875C1.30208 9.46875 1.625 9.34375 2 9.34375C2.375 9.34375 2.6875 9.46875 2.9375 9.71875C3.20833 9.96875 3.34375 10.2812 3.34375 10.6562C3.34375 11.0312 3.20833 11.3542 2.9375 11.625C2.6875 11.875 2.375 12 2 12C1.625 12 1.30208 11.875 1.03125 11.625Z" fill="currentColor"></path>
  </symbol>
  <symbol fill="none" xmlns="http://www.w3.org/2000/svg" viewBox="0 0 12 8" id="ic_menu">
    <path d="M0 0L12 0V1.34375L0 1.34375V0ZM0 4.65625V3.34375L12 3.34375V4.65625H0ZM0 8V6.65625H12V8H0Z" fill="currentColor"></path>
  </symbol>
  <symbol fill="none" xmlns="http://www.w3.org/2000/svg" viewBox="0 0 12 12" id="ic_menu1">
    <path d="M10.6562 0C11.0312 0 11.3438 0.135417 11.5938 0.40625C11.8646 0.65625 12 0.96875 12 1.34375V10.6562C12 11.0312 11.8646 11.3542 11.5938 11.625C11.3438 11.875 11.0312 12 10.6562 12H1.34375C0.96875 12 0.645833 11.875 0.375 11.625C0.125 11.3542 0 11.0312 0 10.6562L0 1.34375C0 0.96875 0.125 0.65625 0.375 0.40625C0.645833 0.135417 0.96875 0 1.34375 0L10.6562 0ZM7.34375 9.34375V8H2.65625V9.34375H7.34375ZM9.34375 6.65625V5.34375L2.65625 5.34375L2.65625 6.65625H9.34375ZM9.34375 4V2.65625L2.65625 2.65625V4L9.34375 4Z" fill="currentColor"></path>
  </symbol>
  <symbol fill="none" xmlns="http://www.w3.org/2000/svg" viewBox="0 0 12 14" id="ic_menu2">
    <path d="M7.34375 0.34375L11.3438 4.34375V12.3438C11.3438 12.6979 11.2083 13.0104 10.9375 13.2812C10.6875 13.5312 10.375 13.6562 10 13.6562H2C1.625 13.6562 1.30208 13.5312 1.03125 13.2812C0.78125 13.0104 0.65625 12.6979 0.65625 12.3438L0.6875 1.65625C0.6875 1.30208 0.8125 1 1.0625 0.75C1.3125 0.479167 1.625 0.34375 2 0.34375L7.34375 0.34375ZM5.28125 11L9.0625 7.21875L8.125 6.28125L5.28125 9.125L3.875 7.6875L2.9375 8.625L5.28125 11ZM6.65625 5H10.3438L6.65625 1.34375V5Z" fill="currentColor"></path>
  </symbol>
  <symbol fill="none" xmlns="http://www.w3.org/2000/svg" viewBox="0 0 13 10" id="ic_menu3">
    <path d="M0 2.65625V4H7.34375V2.65625L0 2.65625ZM0 1.34375V0L7.34375 0V1.34375L0 1.34375ZM0 6.65625L0 5.34375H4.65625V6.65625H0ZM10 4.59375L11.4062 6L11.9062 5.53125C12.0312 5.38542 12.0938 5.22917 12.0938 5.0625C12.0938 4.875 12.0312 4.71875 11.9062 4.59375L11.4062 4.09375C11.2812 3.96875 11.125 3.90625 10.9375 3.90625C10.7708 3.90625 10.6146 3.96875 10.4688 4.09375L10 4.59375ZM9.53125 5.0625L10.9375 6.46875L7.40625 10H6V8.59375L9.53125 5.0625Z" fill="currentColor"></path>
  </symbol>
  <symbol fill="none" xmlns="http://www.w3.org/2000/svg" viewBox="0 0 12 12" id="ic_menu4">
    <path d="M10.6562 2.65625C11.0312 2.65625 11.3438 2.79167 11.5938 3.0625C11.8646 3.3125 12 3.625 12 4V10.6562C12 11.0312 11.8646 11.3542 11.5938 11.625C11.3438 11.875 11.0312 12 10.6562 12H4C3.625 12 3.30208 11.875 3.03125 11.625C2.78125 11.3542 2.65625 11.0312 2.65625 10.6562L2.65625 4C2.65625 3.625 2.78125 3.3125 3.03125 3.0625C3.30208 2.79167 3.625 2.65625 4 2.65625L10.6562 2.65625ZM10.6562 4L4 4V5.34375L10.6562 5.34375V4ZM6.65625 8H8V6.65625H6.65625V8ZM8 9.34375H6.65625V10.6562H8V9.34375ZM5.34375 8V6.65625H4V8H5.34375ZM9.34375 6.65625V8H10.6562V6.65625H9.34375ZM4 9.34375V10.6562H5.34375V9.34375H4ZM9.34375 10.6562H10.6562V9.34375H9.34375V10.6562ZM2 9.34375V8H1.34375L1.34375 1.34375L8 1.34375V2H9.34375V1.34375C9.34375 0.96875 9.20833 0.65625 8.9375 0.40625C8.6875 0.135417 8.375 0 8 0L1.34375 0C0.96875 0 0.645833 0.135417 0.375 0.40625C0.125 0.65625 0 0.96875 0 1.34375L0 8C0 8.375 0.125 8.69792 0.375 8.96875C0.645833 9.21875 0.96875 9.34375 1.34375 9.34375H2Z" fill="currentColor"></path>
  </symbol>
  <symbol fill="none" xmlns="http://www.w3.org/2000/svg" viewBox="0 0 14 14" id="ic_menu5">
    <path d="M12.3438 3H13.6562V12.3438C13.6562 12.6979 13.5208 13.0104 13.25 13.2812C13 13.5312 12.6979 13.6562 12.3438 13.6562H3V12.3438H12.3438V3ZM9.65625 0.34375C10.0312 0.34375 10.3438 0.479167 10.5938 0.75C10.8646 1 11 1.30208 11 1.65625V9.65625C11 10.0312 10.8646 10.3542 10.5938 10.625C10.3438 10.875 10.0312 11 9.65625 11H1.65625C1.30208 11 0.989583 10.875 0.71875 10.625C0.46875 10.3542 0.34375 10.0312 0.34375 9.65625L0.34375 1.65625C0.34375 1.30208 0.46875 1 0.71875 0.75C0.989583 0.479167 1.30208 0.34375 1.65625 0.34375L9.65625 0.34375ZM5 9.65625L5 6.34375H1.65625V9.65625H5ZM9.65625 9.65625V6.34375L6.34375 6.34375L6.34375 9.65625H9.65625ZM9.65625 5V1.65625L1.65625 1.65625L1.65625 5L9.65625 5Z" fill="currentColor"></path>
  </symbol>
  <symbol fill="none" xmlns="http://www.w3.org/2000/svg" viewBox="0 0 14 12" id="ic_menu6">
    <path d="M3 6.65625C3.47917 6.65625 3.91667 6.78125 4.3125 7.03125C4.72917 7.26042 5.05208 7.58333 5.28125 8C5.53125 8.39583 5.65625 8.84375 5.65625 9.34375C5.65625 9.82292 5.53125 10.2708 5.28125 10.6875C5.05208 11.0833 4.72917 11.4062 4.3125 11.6562C3.91667 11.8854 3.47917 12 3 12C2.52083 12 2.07292 11.8854 1.65625 11.6562C1.26042 11.4062 0.9375 11.0833 0.6875 10.6875C0.458333 10.2708 0.34375 9.82292 0.34375 9.34375C0.34375 8.84375 0.458333 8.39583 0.6875 8C0.9375 7.58333 1.26042 7.26042 1.65625 7.03125C2.07292 6.78125 2.52083 6.65625 3 6.65625ZM7 0C7.47917 0 7.91667 0.125 8.3125 0.375C8.72917 0.604167 9.05208 0.927083 9.28125 1.34375C9.53125 1.73958 9.65625 2.17708 9.65625 2.65625C9.65625 3.15625 9.53125 3.61458 9.28125 4.03125C9.05208 4.42708 8.72917 4.75 8.3125 5C7.91667 5.22917 7.47917 5.34375 7 5.34375C6.52083 5.34375 6.07292 5.22917 5.65625 5C5.26042 4.75 4.9375 4.42708 4.6875 4.03125C4.45833 3.61458 4.34375 3.15625 4.34375 2.65625C4.34375 2.17708 4.45833 1.73958 4.6875 1.34375C4.9375 0.927083 5.26042 0.604167 5.65625 0.375C6.07292 0.125 6.52083 0 7 0ZM11 6.65625C11.4792 6.65625 11.9167 6.78125 12.3125 7.03125C12.7292 7.26042 13.0521 7.58333 13.2812 8C13.5312 8.39583 13.6562 8.84375 13.6562 9.34375C13.6562 9.82292 13.5312 10.2708 13.2812 10.6875C13.0521 11.0833 12.7292 11.4062 12.3125 11.6562C11.9167 11.8854 11.4792 12 11 12C10.5208 12 10.0729 11.8854 9.65625 11.6562C9.26042 11.4062 8.9375 11.0833 8.6875 10.6875C8.45833 10.2708 8.34375 9.82292 8.34375 9.34375C8.34375 8.84375 8.45833 8.39583 8.6875 8C8.9375 7.58333 9.26042 7.26042 9.65625 7.03125C10.0729 6.78125 10.5208 6.65625 11 6.65625Z" fill="currentColor"></path>
  </symbol>
  <symbol fill="none" xmlns="http://www.w3.org/2000/svg" viewBox="0 0 14 12" id="ic_move">
    <path d="M11 6V4H1V2.65625H11V0.65625L13.6562 3.34375L11 6ZM3 6L3 8H13V9.34375H3V11.3438L0.34375 8.65625L3 6Z" fill="currentColor"></path>
  </symbol>
  <symbol fill="none" xmlns="http://www.w3.org/2000/svg" viewBox="0 0 10 2" id="ic_remove">
    <path d="M9.07422 1.57422L0.925781 1.57422V0.425781L9.07422 0.425781V1.57422Z" fill="currentColor"></path>
  </symbol>
  <symbol fill="none" xmlns="http://www.w3.org/2000/svg" viewBox="0 0 13 11" id="ic_scales">
    <path d="M10.6562 1.1875C10.9102 1.1875 11.125 1.40234 11.125 1.65625C11.125 1.92969 10.9102 2.125 10.6562 2.125H8.27344C8.15625 2.69141 7.74609 3.14062 7.21875 3.31641V9.3125H10.6562C10.9102 9.3125 11.125 9.52734 11.125 9.78125C11.125 10.0547 10.9102 10.25 10.6562 10.25H6.75H2.84375C2.57031 10.25 2.375 10.0547 2.375 9.78125C2.375 9.52734 2.57031 9.3125 2.84375 9.3125H6.28125V3.31641C5.73438 3.14062 5.32422 2.69141 5.20703 2.125H2.84375C2.57031 2.125 2.375 1.92969 2.375 1.65625C2.375 1.40234 2.57031 1.1875 2.84375 1.1875H5.30469C5.55859 0.640625 6.10547 0.25 6.75 0.25C7.375 0.25 7.94141 0.640625 8.17578 1.1875H10.6562ZM10.5 4.07812L9.07422 6.5H11.9062L10.5 4.07812ZM8.03906 6.85156C7.98047 6.63672 8.05859 6.40234 8.15625 6.22656L10.0117 3.02344C10.1094 2.86719 10.3047 2.75 10.5 2.75C10.6758 2.75 10.8711 2.86719 10.9688 3.02344L12.8242 6.20703C12.9414 6.40234 13 6.63672 12.9609 6.85156C12.7461 7.71094 11.7109 8.375 10.5 8.375C9.26953 8.375 8.23438 7.71094 8.03906 6.85156ZM1.55469 6.5H4.38672L2.96094 4.07812L1.55469 6.5ZM2.96094 8.375C1.75 8.375 0.714844 7.71094 0.5 6.85156C0.460938 6.63672 0.519531 6.40234 0.636719 6.22656L2.49219 3.02344C2.58984 2.86719 2.76562 2.75 2.96094 2.75C3.15625 2.75 3.33203 2.86719 3.42969 3.02344L5.30469 6.20703C5.40234 6.40234 5.48047 6.63672 5.42188 6.85156C5.22656 7.71094 4.19141 8.375 2.96094 8.375ZM6.75 1.1875C6.39844 1.1875 6.125 1.48047 6.125 1.8125C6.125 2.16406 6.39844 2.4375 6.75 2.4375C7.08203 2.4375 7.375 2.16406 7.375 1.8125C7.375 1.48047 7.08203 1.1875 6.75 1.1875Z" fill="currentColor"></path>
  </symbol>
  <symbol fill="none" xmlns="http://www.w3.org/2000/svg" viewBox="0 0 12 12" id="ic_tasks">
    <path d="M10.6562 2.65625C11.0312 2.65625 11.3438 2.79167 11.5938 3.0625C11.8646 3.3125 12 3.625 12 4V10.6562C12 11.0312 11.8646 11.3542 11.5938 11.625C11.3438 11.875 11.0312 12 10.6562 12H4C3.625 12 3.30208 11.875 3.03125 11.625C2.78125 11.3542 2.65625 11.0312 2.65625 10.6562L2.65625 4C2.65625 3.625 2.78125 3.3125 3.03125 3.0625C3.30208 2.79167 3.625 2.65625 4 2.65625L10.6562 2.65625ZM10.6562 4L4 4V5.34375L10.6562 5.34375V4ZM6.65625 8H8V6.65625H6.65625V8ZM8 9.34375H6.65625V10.6562H8V9.34375ZM5.34375 8V6.65625H4V8H5.34375ZM9.34375 6.65625V8H10.6562V6.65625H9.34375ZM4 9.34375V10.6562H5.34375V9.34375H4ZM9.34375 10.6562H10.6562V9.34375H9.34375V10.6562ZM2 9.34375V8H1.34375L1.34375 1.34375L8 1.34375V2H9.34375V1.34375C9.34375 0.96875 9.20833 0.65625 8.9375 0.40625C8.6875 0.135417 8.375 0 8 0L1.34375 0C0.96875 0 0.645833 0.135417 0.375 0.40625C0.125 0.65625 0 0.96875 0 1.34375L0 8C0 8.375 0.125 8.69792 0.375 8.96875C0.645833 9.21875 0.96875 9.34375 1.34375 9.34375H2Z" fill="currentColor"></path>
  </symbol>
  <symbol fill="none" xmlns="http://www.w3.org/2000/svg" viewBox="0 0 14 14" id="ic_video_play">
    <path d="M7 0.34375C7.91667 0.34375 8.77083 0.520833 9.5625 0.875C10.375 1.20833 11.0833 1.6875 11.6875 2.3125C12.3125 2.91667 12.7917 3.625 13.125 4.4375C13.4792 5.22917 13.6562 6.08333 13.6562 7C13.6562 7.91667 13.4792 8.78125 13.125 9.59375C12.7917 10.3854 12.3125 11.0938 11.6875 11.7188C11.0833 12.3229 10.375 12.8021 9.5625 13.1562C8.77083 13.4896 7.91667 13.6562 7 13.6562C6.08333 13.6562 5.21875 13.4896 4.40625 13.1562C3.61458 12.8021 2.90625 12.3229 2.28125 11.7188C1.67708 11.0938 1.19792 10.3854 0.84375 9.59375C0.510417 8.78125 0.34375 7.91667 0.34375 7C0.34375 6.08333 0.510417 5.22917 0.84375 4.4375C1.19792 3.625 1.67708 2.91667 2.28125 2.3125C2.90625 1.6875 3.61458 1.20833 4.40625 0.875C5.21875 0.520833 6.08333 0.34375 7 0.34375ZM5.34375 10L10 7L5.34375 4L5.34375 10Z" fill="currentColor"></path>
  </symbol>
</svg>