<svg width="0" height="0" class="hidden">
  <symbol fill="none" xmlns="http://www.w3.org/2000/svg" viewBox="0 0 7 10" id="ic_arr_hor">
    <path d="M6.35156 8.82812L5.17969 10L0.179688 5L5.17969 0L6.35156 1.17188L2.52344 5L6.35156 8.82812Z" fill="currentColor"></path>
  </symbol>
  <symbol fill="none" xmlns="http://www.w3.org/2000/svg" viewBox="0 0 10 7" id="ic_arr_ver">
    <path d="M1.17188 0.148438L5 3.97656L8.82812 0.148438L10 1.32031L5 6.32031L0 1.32031L1.17188 0.148438Z" fill="currentColor"></path>
  </symbol>
  <symbol fill="none" xmlns="http://www.w3.org/2000/svg" viewBox="0 0 12 12" id="ic_close">
    <path d="M11.5293 1.58398L7.11328 6L11.5293 10.416L10.416 11.5293L6 7.11328L1.58398 11.5293L0.470703 10.416L4.88672 6L0.470703 1.58398L1.58398 0.470703L6 4.88672L10.416 0.470703L11.5293 1.58398Z" fill="currentColor"></path>
  </symbol>
  <symbol fill="none" xmlns="http://www.w3.org/2000/svg" viewBox="0 0 12 8" id="ic_menu">
    <path d="M0 0L12 0V1.34375L0 1.34375V0ZM0 4.65625V3.34375L12 3.34375V4.65625H0ZM0 8V6.65625H12V8H0Z" fill="currentColor"></path>
  </symbol>
  <symbol fill="none" xmlns="http://www.w3.org/2000/svg" viewBox="0 0 12 12" id="ic_menu1">
    <path d="M10.6562 0C11.0312 0 11.3438 0.135417 11.5938 0.40625C11.8646 0.65625 12 0.96875 12 1.34375V10.6562C12 11.0312 11.8646 11.3542 11.5938 11.625C11.3438 11.875 11.0312 12 10.6562 12H1.34375C0.96875 12 0.645833 11.875 0.375 11.625C0.125 11.3542 0 11.0312 0 10.6562L0 1.34375C0 0.96875 0.125 0.65625 0.375 0.40625C0.645833 0.135417 0.96875 0 1.34375 0L10.6562 0ZM7.34375 9.34375V8H2.65625V9.34375H7.34375ZM9.34375 6.65625V5.34375L2.65625 5.34375L2.65625 6.65625H9.34375ZM9.34375 4V2.65625L2.65625 2.65625V4L9.34375 4Z" fill="currentColor"></path>
  </symbol>
  <symbol fill="none" xmlns="http://www.w3.org/2000/svg" viewBox="0 0 12 14" id="ic_menu2">
    <path d="M7.34375 0.34375L11.3438 4.34375V12.3438C11.3438 12.6979 11.2083 13.0104 10.9375 13.2812C10.6875 13.5312 10.375 13.6562 10 13.6562H2C1.625 13.6562 1.30208 13.5312 1.03125 13.2812C0.78125 13.0104 0.65625 12.6979 0.65625 12.3438L0.6875 1.65625C0.6875 1.30208 0.8125 1 1.0625 0.75C1.3125 0.479167 1.625 0.34375 2 0.34375L7.34375 0.34375ZM5.28125 11L9.0625 7.21875L8.125 6.28125L5.28125 9.125L3.875 7.6875L2.9375 8.625L5.28125 11ZM6.65625 5H10.3438L6.65625 1.34375V5Z" fill="currentColor"></path>
  </symbol>
  <symbol fill="none" xmlns="http://www.w3.org/2000/svg" viewBox="0 0 13 10" id="ic_menu3">
    <path d="M0 2.65625V4H7.34375V2.65625L0 2.65625ZM0 1.34375V0L7.34375 0V1.34375L0 1.34375ZM0 6.65625L0 5.34375H4.65625V6.65625H0ZM10 4.59375L11.4062 6L11.9062 5.53125C12.0312 5.38542 12.0938 5.22917 12.0938 5.0625C12.0938 4.875 12.0312 4.71875 11.9062 4.59375L11.4062 4.09375C11.2812 3.96875 11.125 3.90625 10.9375 3.90625C10.7708 3.90625 10.6146 3.96875 10.4688 4.09375L10 4.59375ZM9.53125 5.0625L10.9375 6.46875L7.40625 10H6V8.59375L9.53125 5.0625Z" fill="currentColor"></path>
  </symbol>
  <symbol fill="none" xmlns="http://www.w3.org/2000/svg" viewBox="0 0 12 12" id="ic_menu4">
    <path d="M10.6562 2.65625C11.0312 2.65625 11.3438 2.79167 11.5938 3.0625C11.8646 3.3125 12 3.625 12 4V10.6562C12 11.0312 11.8646 11.3542 11.5938 11.625C11.3438 11.875 11.0312 12 10.6562 12H4C3.625 12 3.30208 11.875 3.03125 11.625C2.78125 11.3542 2.65625 11.0312 2.65625 10.6562L2.65625 4C2.65625 3.625 2.78125 3.3125 3.03125 3.0625C3.30208 2.79167 3.625 2.65625 4 2.65625L10.6562 2.65625ZM10.6562 4L4 4V5.34375L10.6562 5.34375V4ZM6.65625 8H8V6.65625H6.65625V8ZM8 9.34375H6.65625V10.6562H8V9.34375ZM5.34375 8V6.65625H4V8H5.34375ZM9.34375 6.65625V8H10.6562V6.65625H9.34375ZM4 9.34375V10.6562H5.34375V9.34375H4ZM9.34375 10.6562H10.6562V9.34375H9.34375V10.6562ZM2 9.34375V8H1.34375L1.34375 1.34375L8 1.34375V2H9.34375V1.34375C9.34375 0.96875 9.20833 0.65625 8.9375 0.40625C8.6875 0.135417 8.375 0 8 0L1.34375 0C0.96875 0 0.645833 0.135417 0.375 0.40625C0.125 0.65625 0 0.96875 0 1.34375L0 8C0 8.375 0.125 8.69792 0.375 8.96875C0.645833 9.21875 0.96875 9.34375 1.34375 9.34375H2Z" fill="currentColor"></path>
  </symbol>
  <symbol fill="none" xmlns="http://www.w3.org/2000/svg" viewBox="0 0 14 14" id="ic_menu5">
    <path d="M12.3438 3H13.6562V12.3438C13.6562 12.6979 13.5208 13.0104 13.25 13.2812C13 13.5312 12.6979 13.6562 12.3438 13.6562H3V12.3438H12.3438V3ZM9.65625 0.34375C10.0312 0.34375 10.3438 0.479167 10.5938 0.75C10.8646 1 11 1.30208 11 1.65625V9.65625C11 10.0312 10.8646 10.3542 10.5938 10.625C10.3438 10.875 10.0312 11 9.65625 11H1.65625C1.30208 11 0.989583 10.875 0.71875 10.625C0.46875 10.3542 0.34375 10.0312 0.34375 9.65625L0.34375 1.65625C0.34375 1.30208 0.46875 1 0.71875 0.75C0.989583 0.479167 1.30208 0.34375 1.65625 0.34375L9.65625 0.34375ZM5 9.65625L5 6.34375H1.65625V9.65625H5ZM9.65625 9.65625V6.34375L6.34375 6.34375L6.34375 9.65625H9.65625ZM9.65625 5V1.65625L1.65625 1.65625L1.65625 5L9.65625 5Z" fill="currentColor"></path>
  </symbol>
  <symbol fill="none" xmlns="http://www.w3.org/2000/svg" viewBox="0 0 14 12" id="ic_menu6">
    <path d="M3 6.65625C3.47917 6.65625 3.91667 6.78125 4.3125 7.03125C4.72917 7.26042 5.05208 7.58333 5.28125 8C5.53125 8.39583 5.65625 8.84375 5.65625 9.34375C5.65625 9.82292 5.53125 10.2708 5.28125 10.6875C5.05208 11.0833 4.72917 11.4062 4.3125 11.6562C3.91667 11.8854 3.47917 12 3 12C2.52083 12 2.07292 11.8854 1.65625 11.6562C1.26042 11.4062 0.9375 11.0833 0.6875 10.6875C0.458333 10.2708 0.34375 9.82292 0.34375 9.34375C0.34375 8.84375 0.458333 8.39583 0.6875 8C0.9375 7.58333 1.26042 7.26042 1.65625 7.03125C2.07292 6.78125 2.52083 6.65625 3 6.65625ZM7 0C7.47917 0 7.91667 0.125 8.3125 0.375C8.72917 0.604167 9.05208 0.927083 9.28125 1.34375C9.53125 1.73958 9.65625 2.17708 9.65625 2.65625C9.65625 3.15625 9.53125 3.61458 9.28125 4.03125C9.05208 4.42708 8.72917 4.75 8.3125 5C7.91667 5.22917 7.47917 5.34375 7 5.34375C6.52083 5.34375 6.07292 5.22917 5.65625 5C5.26042 4.75 4.9375 4.42708 4.6875 4.03125C4.45833 3.61458 4.34375 3.15625 4.34375 2.65625C4.34375 2.17708 4.45833 1.73958 4.6875 1.34375C4.9375 0.927083 5.26042 0.604167 5.65625 0.375C6.07292 0.125 6.52083 0 7 0ZM11 6.65625C11.4792 6.65625 11.9167 6.78125 12.3125 7.03125C12.7292 7.26042 13.0521 7.58333 13.2812 8C13.5312 8.39583 13.6562 8.84375 13.6562 9.34375C13.6562 9.82292 13.5312 10.2708 13.2812 10.6875C13.0521 11.0833 12.7292 11.4062 12.3125 11.6562C11.9167 11.8854 11.4792 12 11 12C10.5208 12 10.0729 11.8854 9.65625 11.6562C9.26042 11.4062 8.9375 11.0833 8.6875 10.6875C8.45833 10.2708 8.34375 9.82292 8.34375 9.34375C8.34375 8.84375 8.45833 8.39583 8.6875 8C8.9375 7.58333 9.26042 7.26042 9.65625 7.03125C10.0729 6.78125 10.5208 6.65625 11 6.65625Z" fill="currentColor"></path>
  </symbol>
  <symbol fill="none" xmlns="http://www.w3.org/2000/svg" viewBox="0 0 10 2" id="ic_remove">
    <path d="M9.07422 1.57422L0.925781 1.57422V0.425781L9.07422 0.425781V1.57422Z" fill="currentColor"></path>
  </symbol>
  <symbol fill="none" xmlns="http://www.w3.org/2000/svg" viewBox="0 0 13 11" id="ic_scales">
    <path d="M10.6562 1.1875C10.9102 1.1875 11.125 1.40234 11.125 1.65625C11.125 1.92969 10.9102 2.125 10.6562 2.125H8.27344C8.15625 2.69141 7.74609 3.14062 7.21875 3.31641V9.3125H10.6562C10.9102 9.3125 11.125 9.52734 11.125 9.78125C11.125 10.0547 10.9102 10.25 10.6562 10.25H6.75H2.84375C2.57031 10.25 2.375 10.0547 2.375 9.78125C2.375 9.52734 2.57031 9.3125 2.84375 9.3125H6.28125V3.31641C5.73438 3.14062 5.32422 2.69141 5.20703 2.125H2.84375C2.57031 2.125 2.375 1.92969 2.375 1.65625C2.375 1.40234 2.57031 1.1875 2.84375 1.1875H5.30469C5.55859 0.640625 6.10547 0.25 6.75 0.25C7.375 0.25 7.94141 0.640625 8.17578 1.1875H10.6562ZM10.5 4.07812L9.07422 6.5H11.9062L10.5 4.07812ZM8.03906 6.85156C7.98047 6.63672 8.05859 6.40234 8.15625 6.22656L10.0117 3.02344C10.1094 2.86719 10.3047 2.75 10.5 2.75C10.6758 2.75 10.8711 2.86719 10.9688 3.02344L12.8242 6.20703C12.9414 6.40234 13 6.63672 12.9609 6.85156C12.7461 7.71094 11.7109 8.375 10.5 8.375C9.26953 8.375 8.23438 7.71094 8.03906 6.85156ZM1.55469 6.5H4.38672L2.96094 4.07812L1.55469 6.5ZM2.96094 8.375C1.75 8.375 0.714844 7.71094 0.5 6.85156C0.460938 6.63672 0.519531 6.40234 0.636719 6.22656L2.49219 3.02344C2.58984 2.86719 2.76562 2.75 2.96094 2.75C3.15625 2.75 3.33203 2.86719 3.42969 3.02344L5.30469 6.20703C5.40234 6.40234 5.48047 6.63672 5.42188 6.85156C5.22656 7.71094 4.19141 8.375 2.96094 8.375ZM6.75 1.1875C6.39844 1.1875 6.125 1.48047 6.125 1.8125C6.125 2.16406 6.39844 2.4375 6.75 2.4375C7.08203 2.4375 7.375 2.16406 7.375 1.8125C7.375 1.48047 7.08203 1.1875 6.75 1.1875Z" fill="currentColor"></path>
  </symbol>
  <symbol fill="none" xmlns="http://www.w3.org/2000/svg" viewBox="0 0 12 12" id="ic_tasks">
    <path d="M10.6562 2.65625C11.0312 2.65625 11.3438 2.79167 11.5938 3.0625C11.8646 3.3125 12 3.625 12 4V10.6562C12 11.0312 11.8646 11.3542 11.5938 11.625C11.3438 11.875 11.0312 12 10.6562 12H4C3.625 12 3.30208 11.875 3.03125 11.625C2.78125 11.3542 2.65625 11.0312 2.65625 10.6562L2.65625 4C2.65625 3.625 2.78125 3.3125 3.03125 3.0625C3.30208 2.79167 3.625 2.65625 4 2.65625L10.6562 2.65625ZM10.6562 4L4 4V5.34375L10.6562 5.34375V4ZM6.65625 8H8V6.65625H6.65625V8ZM8 9.34375H6.65625V10.6562H8V9.34375ZM5.34375 8V6.65625H4V8H5.34375ZM9.34375 6.65625V8H10.6562V6.65625H9.34375ZM4 9.34375V10.6562H5.34375V9.34375H4ZM9.34375 10.6562H10.6562V9.34375H9.34375V10.6562ZM2 9.34375V8H1.34375L1.34375 1.34375L8 1.34375V2H9.34375V1.34375C9.34375 0.96875 9.20833 0.65625 8.9375 0.40625C8.6875 0.135417 8.375 0 8 0L1.34375 0C0.96875 0 0.645833 0.135417 0.375 0.40625C0.125 0.65625 0 0.96875 0 1.34375L0 8C0 8.375 0.125 8.69792 0.375 8.96875C0.645833 9.21875 0.96875 9.34375 1.34375 9.34375H2Z" fill="currentColor"></path>
  </symbol>
  <symbol fill="none" xmlns="http://www.w3.org/2000/svg" viewBox="0 0 14 14" id="ic_video_play">
    <path d="M7 0.34375C7.91667 0.34375 8.77083 0.520833 9.5625 0.875C10.375 1.20833 11.0833 1.6875 11.6875 2.3125C12.3125 2.91667 12.7917 3.625 13.125 4.4375C13.4792 5.22917 13.6562 6.08333 13.6562 7C13.6562 7.91667 13.4792 8.78125 13.125 9.59375C12.7917 10.3854 12.3125 11.0938 11.6875 11.7188C11.0833 12.3229 10.375 12.8021 9.5625 13.1562C8.77083 13.4896 7.91667 13.6562 7 13.6562C6.08333 13.6562 5.21875 13.4896 4.40625 13.1562C3.61458 12.8021 2.90625 12.3229 2.28125 11.7188C1.67708 11.0938 1.19792 10.3854 0.84375 9.59375C0.510417 8.78125 0.34375 7.91667 0.34375 7C0.34375 6.08333 0.510417 5.22917 0.84375 4.4375C1.19792 3.625 1.67708 2.91667 2.28125 2.3125C2.90625 1.6875 3.61458 1.20833 4.40625 0.875C5.21875 0.520833 6.08333 0.34375 7 0.34375ZM5.34375 10L10 7L5.34375 4L5.34375 10Z" fill="currentColor"></path>
  </symbol>
</svg>