<svg width="1920" height="40" viewBox="0 0 1920 40" fill="none" xmlns="http://www.w3.org/2000/svg">
<g clip-path="url(#clip0_4432_48250)" filter="url(#filter0_d_4432_48250)">
<path d="M0 8H1920V40H0V8Z" fill="#E2E2E8"/>
<path d="M11.6621 18.4688V27H10.5957V18.4688H11.6621ZM13.9062 18.4688V19.3945H8.35742V18.4688H13.9062ZM16.707 27.1172C16.3281 27.1172 15.9863 27.0605 15.6816 26.9473C15.377 26.834 15.1172 26.6621 14.9023 26.4316C14.6875 26.1973 14.5234 25.9023 14.4102 25.5469C14.2969 25.1914 14.2402 24.7715 14.2402 24.2871V23.5723C14.2402 23.0137 14.3047 22.541 14.4336 22.1543C14.5664 21.7676 14.7441 21.457 14.9668 21.2227C15.1895 20.9844 15.4414 20.8125 15.7227 20.707C16.0039 20.5977 16.293 20.543 16.5898 20.543C16.9883 20.543 17.3281 20.6074 17.6094 20.7363C17.8906 20.8652 18.1191 21.0566 18.2949 21.3105C18.4707 21.5645 18.5996 21.877 18.6816 22.248C18.7676 22.6191 18.8105 23.0469 18.8105 23.5312V24.1348H14.8496V23.25H17.7734V23.1035C17.7578 22.7754 17.7129 22.4863 17.6387 22.2363C17.5684 21.9863 17.4512 21.791 17.2871 21.6504C17.123 21.5059 16.8906 21.4336 16.5898 21.4336C16.3984 21.4336 16.2207 21.4668 16.0566 21.5332C15.8965 21.5957 15.7578 21.707 15.6406 21.8672C15.5273 22.0234 15.4375 22.2402 15.3711 22.5176C15.3086 22.7949 15.2773 23.1465 15.2773 23.5723V24.2871C15.2773 24.627 15.3086 24.9199 15.3711 25.166C15.4375 25.4082 15.5332 25.6094 15.6582 25.7695C15.7871 25.9258 15.9434 26.043 16.127 26.1211C16.3145 26.1953 16.5273 26.2324 16.7656 26.2324C17.1133 26.2324 17.4004 26.166 17.627 26.0332C17.8535 25.8965 18.0508 25.7227 18.2188 25.5117L18.7637 26.1621C18.6504 26.3223 18.502 26.4766 18.3184 26.625C18.1387 26.7695 17.916 26.8887 17.6504 26.9824C17.3887 27.0723 17.0742 27.1172 16.707 27.1172ZM21.1953 20.6602V27H20.1582V20.6602H21.1953ZM24.6816 20.6602L22.1328 24.293H20.8496L20.6855 23.3438H21.7109L23.4395 20.6602H24.6816ZM23.5332 27L21.6758 24.1289L22.3379 23.3438L24.834 27H23.5332ZM27.3008 26.3438L28.7129 20.6602H29.8145L27.7227 27.9785C27.6719 28.1348 27.6035 28.3027 27.5176 28.4824C27.4355 28.666 27.3301 28.8398 27.2012 29.0039C27.0723 29.168 26.918 29.3008 26.7383 29.4023C26.5586 29.5078 26.3477 29.5605 26.1055 29.5605C26.0312 29.5605 25.9355 29.5488 25.8184 29.5254C25.7051 29.502 25.623 29.4824 25.5723 29.4668V28.5879C25.5957 28.5918 25.6328 28.5957 25.6836 28.5996C25.7344 28.6074 25.7715 28.6113 25.7949 28.6113C25.998 28.6113 26.1699 28.5781 26.3105 28.5117C26.4551 28.4492 26.5781 28.3418 26.6797 28.1895C26.7812 28.041 26.8672 27.8359 26.9375 27.5742L27.3008 26.3438ZM26.3867 20.6602L27.6465 25.582L27.916 26.7246L27.1777 27.123L25.2559 20.6602H26.3867ZM38.3457 26.1094L38.2402 28.8809H37.3203V27H36.5996V26.1094H38.3457ZM30.8633 20.6602H31.9004V26.1094H33.6875V20.6602H34.7246V26.1094H36.5176V20.6602H37.5547V27H30.8633V20.6602ZM40.6309 25.2832L42.9277 20.6602H43.9648V27H42.9277V22.377L40.6309 27H39.5996V20.6602H40.6309V25.2832ZM46.748 25.2832L49.0449 20.6602H50.082V27H49.0449V22.377L46.748 27H45.7168V20.6602H46.748V25.2832ZM48.7695 18.3633H49.6484C49.6484 18.668 49.5781 18.9395 49.4375 19.1777C49.2969 19.4121 49.0957 19.5957 48.834 19.7285C48.5723 19.8613 48.2617 19.9277 47.9023 19.9277C47.3594 19.9277 46.9297 19.7832 46.6133 19.4941C46.3008 19.2012 46.1445 18.8242 46.1445 18.3633H47.0234C47.0234 18.5938 47.0898 18.7969 47.2227 18.9727C47.3555 19.1484 47.582 19.2363 47.9023 19.2363C48.2148 19.2363 48.4375 19.1484 48.5703 18.9727C48.7031 18.7969 48.7695 18.5938 48.7695 18.3633ZM58.0215 20.6602V21.5566H55.4902V20.6602H58.0215ZM55.625 20.6602V27H54.5879V20.6602H55.625ZM58.9531 20.6602V27H57.916V20.6602H58.9531ZM60.3945 24.1348V23.5312C60.3945 23.0391 60.457 22.6074 60.582 22.2363C60.707 21.8613 60.8809 21.5488 61.1035 21.2988C61.3262 21.0488 61.5859 20.8613 61.8828 20.7363C62.1797 20.6074 62.498 20.543 62.8379 20.543C63.1855 20.543 63.5078 20.6074 63.8047 20.7363C64.1016 20.8613 64.3613 21.0488 64.584 21.2988C64.8105 21.5488 64.9863 21.8613 65.1113 22.2363C65.2363 22.6074 65.2988 23.0391 65.2988 23.5312V24.1348C65.2988 24.627 65.2363 25.0605 65.1113 25.4355C64.9863 25.8066 64.8125 26.1172 64.5898 26.3672C64.3672 26.6172 64.1074 26.8047 63.8105 26.9297C63.5137 27.0547 63.1934 27.1172 62.8496 27.1172C62.5059 27.1172 62.1855 27.0547 61.8887 26.9297C61.5918 26.8047 61.3301 26.6172 61.1035 26.3672C60.8809 26.1172 60.707 25.8066 60.582 25.4355C60.457 25.0605 60.3945 24.627 60.3945 24.1348ZM61.4316 23.5312V24.1348C61.4316 24.4824 61.4668 24.7871 61.5371 25.0488C61.6074 25.3105 61.707 25.5293 61.8359 25.7051C61.9648 25.8809 62.1152 26.0137 62.2871 26.1035C62.459 26.1895 62.6465 26.2324 62.8496 26.2324C63.084 26.2324 63.2891 26.1895 63.4648 26.1035C63.6445 26.0137 63.793 25.8809 63.9102 25.7051C64.0273 25.5293 64.1152 25.3105 64.1738 25.0488C64.2324 24.7871 64.2617 24.4824 64.2617 24.1348V23.5312C64.2617 23.1836 64.2266 22.8809 64.1562 22.623C64.0859 22.3613 63.9863 22.1426 63.8574 21.9668C63.7285 21.7871 63.5762 21.6543 63.4004 21.5684C63.2285 21.4785 63.041 21.4336 62.8379 21.4336C62.6387 21.4336 62.4531 21.4785 62.2812 21.5684C62.1094 21.6543 61.959 21.7871 61.8301 21.9668C61.7051 22.1426 61.6074 22.3613 61.5371 22.623C61.4668 22.8809 61.4316 23.1836 61.4316 23.5312ZM70.0801 20.6602V21.5566H67.5547V20.6602H70.0801ZM71.0059 20.6602V27H69.9746V20.6602H71.0059ZM67.3086 20.6602H68.3457L68.1992 23.7188C68.1758 24.1914 68.1367 24.6094 68.082 24.9727C68.0312 25.332 67.959 25.6406 67.8652 25.8984C67.7754 26.1562 67.6621 26.3672 67.5254 26.5312C67.3926 26.6914 67.2324 26.8105 67.0449 26.8887C66.8613 26.9629 66.6484 27 66.4062 27H66.0957V26.0449L66.3008 26.0273C66.4375 26.0156 66.5547 25.9766 66.6523 25.9102C66.7539 25.8438 66.8359 25.7461 66.8984 25.6172C66.9648 25.4844 67.0176 25.3145 67.0566 25.1074C67.0996 24.9004 67.1328 24.6543 67.1562 24.3691C67.1797 24.084 67.1973 23.752 67.209 23.373L67.3086 20.6602ZM73.5371 22.8398H75.084C75.5215 22.8398 75.8887 22.9297 76.1855 23.1094C76.4824 23.2852 76.707 23.5293 76.8594 23.8418C77.0117 24.1504 77.0879 24.502 77.0879 24.8965C77.0879 25.1895 77.0449 25.4648 76.959 25.7227C76.873 25.9766 76.7441 26.1992 76.5723 26.3906C76.4043 26.582 76.1953 26.7324 75.9453 26.8418C75.6992 26.9473 75.4121 27 75.084 27H72.7637V20.6602H73.7949V26.1094H75.084C75.3262 26.1094 75.5176 26.0527 75.6582 25.9395C75.7988 25.8262 75.8984 25.6797 75.957 25.5C76.0195 25.3203 76.0508 25.1328 76.0508 24.9375C76.0508 24.7461 76.0195 24.5586 75.957 24.375C75.8984 24.1914 75.7988 24.0391 75.6582 23.918C75.5176 23.793 75.3262 23.7305 75.084 23.7305H73.5371V22.8398ZM80.457 23.9707H79.4316V23.3027H80.375C80.6016 23.3027 80.7793 23.2656 80.9082 23.1914C81.0371 23.1133 81.1289 23.0059 81.1836 22.8691C81.2383 22.7324 81.2656 22.5723 81.2656 22.3887C81.2656 22.2246 81.2344 22.0703 81.1719 21.9258C81.1094 21.7773 81.0078 21.6582 80.8672 21.5684C80.7266 21.4746 80.5391 21.4277 80.3047 21.4277C80.1133 21.4277 79.9395 21.4727 79.7832 21.5625C79.627 21.6484 79.5039 21.7676 79.4141 21.9199C79.3242 22.0684 79.2793 22.2363 79.2793 22.4238H78.248C78.248 22.0371 78.3398 21.7051 78.5234 21.4277C78.7109 21.1465 78.9609 20.9297 79.2734 20.7773C79.5859 20.625 79.9297 20.5488 80.3047 20.5488C80.6172 20.5488 80.8965 20.5898 81.1426 20.6719C81.3887 20.75 81.5977 20.8672 81.7695 21.0234C81.9414 21.1758 82.0723 21.3672 82.1621 21.5977C82.2559 21.8242 82.3027 22.0879 82.3027 22.3887C82.3027 22.6035 82.2598 22.8066 82.1738 22.998C82.0879 23.1895 81.9648 23.3594 81.8047 23.5078C81.6445 23.6523 81.4492 23.7656 81.2188 23.8477C80.9922 23.9297 80.7383 23.9707 80.457 23.9707ZM79.4316 23.5605H80.457C80.7695 23.5605 81.0469 23.5977 81.2891 23.6719C81.5312 23.7422 81.7344 23.8477 81.8984 23.9883C82.0664 24.1289 82.1914 24.3027 82.2734 24.5098C82.3594 24.7129 82.4023 24.9473 82.4023 25.2129C82.4023 25.5098 82.3516 25.7773 82.25 26.0156C82.1484 26.25 82.0039 26.4492 81.8164 26.6133C81.6328 26.7773 81.4121 26.9023 81.1543 26.9883C80.9004 27.0742 80.6172 27.1172 80.3047 27.1172C79.9531 27.1172 79.6133 27.0469 79.2852 26.9062C78.9609 26.7656 78.6934 26.5488 78.4824 26.2559C78.2715 25.959 78.166 25.582 78.166 25.125H79.1973C79.1973 25.3164 79.2422 25.498 79.332 25.6699C79.4258 25.8418 79.5547 25.9805 79.7188 26.0859C79.8867 26.1914 80.082 26.2441 80.3047 26.2441C80.5391 26.2441 80.7344 26.1973 80.8906 26.1035C81.0469 26.0098 81.1641 25.8848 81.2422 25.7285C81.3203 25.5723 81.3594 25.4023 81.3594 25.2188C81.3594 24.9805 81.3242 24.7891 81.2539 24.6445C81.1836 24.5 81.0762 24.3945 80.9316 24.3281C80.7871 24.2578 80.6016 24.2227 80.375 24.2227H79.4316V23.5605ZM83.5625 24.1348V23.5312C83.5625 23.0391 83.625 22.6074 83.75 22.2363C83.875 21.8613 84.0488 21.5488 84.2715 21.2988C84.4941 21.0488 84.7539 20.8613 85.0508 20.7363C85.3477 20.6074 85.666 20.543 86.0059 20.543C86.3535 20.543 86.6758 20.6074 86.9727 20.7363C87.2695 20.8613 87.5293 21.0488 87.752 21.2988C87.9785 21.5488 88.1543 21.8613 88.2793 22.2363C88.4043 22.6074 88.4668 23.0391 88.4668 23.5312V24.1348C88.4668 24.627 88.4043 25.0605 88.2793 25.4355C88.1543 25.8066 87.9805 26.1172 87.7578 26.3672C87.5352 26.6172 87.2754 26.8047 86.9785 26.9297C86.6816 27.0547 86.3613 27.1172 86.0176 27.1172C85.6738 27.1172 85.3535 27.0547 85.0566 26.9297C84.7598 26.8047 84.498 26.6172 84.2715 26.3672C84.0488 26.1172 83.875 25.8066 83.75 25.4355C83.625 25.0605 83.5625 24.627 83.5625 24.1348ZM84.5996 23.5312V24.1348C84.5996 24.4824 84.6348 24.7871 84.7051 25.0488C84.7754 25.3105 84.875 25.5293 85.0039 25.7051C85.1328 25.8809 85.2832 26.0137 85.4551 26.1035C85.627 26.1895 85.8145 26.2324 86.0176 26.2324C86.252 26.2324 86.457 26.1895 86.6328 26.1035C86.8125 26.0137 86.9609 25.8809 87.0781 25.7051C87.1953 25.5293 87.2832 25.3105 87.3418 25.0488C87.4004 24.7871 87.4297 24.4824 87.4297 24.1348V23.5312C87.4297 23.1836 87.3945 22.8809 87.3242 22.623C87.2539 22.3613 87.1543 22.1426 87.0254 21.9668C86.8965 21.7871 86.7441 21.6543 86.5684 21.5684C86.3965 21.4785 86.209 21.4336 86.0059 21.4336C85.8066 21.4336 85.6211 21.4785 85.4492 21.5684C85.2773 21.6543 85.127 21.7871 84.998 21.9668C84.873 22.1426 84.7754 22.3613 84.7051 22.623C84.6348 22.8809 84.5996 23.1836 84.5996 23.5312ZM92.3574 24.2109H90.6641L90.6523 23.3438H92.0117C92.2812 23.3438 92.5039 23.3105 92.6797 23.2441C92.8594 23.1777 92.9941 23.0781 93.084 22.9453C93.1738 22.8125 93.2188 22.6484 93.2188 22.4531C93.2188 22.3008 93.1934 22.168 93.1426 22.0547C93.0918 21.9375 93.0156 21.8418 92.9141 21.7676C92.8164 21.6895 92.6934 21.6328 92.5449 21.5977C92.3965 21.5586 92.2227 21.5391 92.0234 21.5391H90.9277V27H89.8965V20.6602H92.0234C92.3672 20.6602 92.6758 20.6953 92.9492 20.7656C93.2266 20.8359 93.4609 20.9434 93.6523 21.0879C93.8477 21.2285 93.9961 21.4082 94.0977 21.627C94.2031 21.8457 94.2559 22.1035 94.2559 22.4004C94.2559 22.5918 94.2227 22.7734 94.1562 22.9453C94.0898 23.1172 93.9902 23.2695 93.8574 23.4023C93.7285 23.5352 93.5684 23.6445 93.377 23.7305C93.1855 23.8125 92.9648 23.8652 92.7148 23.8887L92.3574 24.2109ZM92.3574 27H90.2773L90.8105 26.1211H92.3574C92.5957 26.1211 92.791 26.084 92.9434 26.0098C93.0957 25.9316 93.209 25.8223 93.2832 25.6816C93.3613 25.5371 93.4004 25.3652 93.4004 25.166C93.4004 24.9668 93.3613 24.7969 93.2832 24.6562C93.209 24.5117 93.0957 24.4023 92.9434 24.3281C92.791 24.25 92.5957 24.2109 92.3574 24.2109H90.9688L90.9805 23.3438H92.6973L93.0605 23.6719C93.3613 23.6992 93.6133 23.7852 93.8164 23.9297C94.0234 24.0742 94.1777 24.2578 94.2793 24.4805C94.3848 24.6992 94.4375 24.9375 94.4375 25.1953C94.4375 25.4922 94.3906 25.7539 94.2969 25.9805C94.2031 26.207 94.0664 26.3965 93.8867 26.5488C93.707 26.6973 93.4883 26.8105 93.2305 26.8887C92.9727 26.9629 92.6816 27 92.3574 27ZM98.9551 25.916V22.4766C98.9551 22.2266 98.916 22.0254 98.8379 21.873C98.7637 21.7207 98.6504 21.6094 98.498 21.5391C98.3496 21.4688 98.1621 21.4336 97.9355 21.4336C97.7168 21.4336 97.5273 21.4785 97.3672 21.5684C97.2109 21.6582 97.0898 21.7773 97.0039 21.9258C96.9219 22.0742 96.8809 22.2383 96.8809 22.418H95.8438C95.8438 22.1914 95.8926 21.9668 95.9902 21.7441C96.0918 21.5215 96.2363 21.3203 96.4238 21.1406C96.6113 20.957 96.8359 20.8125 97.0977 20.707C97.3633 20.5977 97.6602 20.543 97.9883 20.543C98.3789 20.543 98.7246 20.6074 99.0254 20.7363C99.3262 20.8613 99.5625 21.0664 99.7344 21.3516C99.9062 21.6367 99.9922 22.0156 99.9922 22.4883V25.6172C99.9922 25.8281 100.008 26.0527 100.039 26.291C100.074 26.5293 100.123 26.7344 100.186 26.9062V27H99.1133C99.0625 26.875 99.0234 26.709 98.9961 26.502C98.9688 26.291 98.9551 26.0957 98.9551 25.916ZM99.1191 23.1562L99.1309 23.918H98.4102C98.1641 23.918 97.9395 23.9453 97.7363 24C97.5371 24.0547 97.3652 24.1348 97.2207 24.2402C97.0762 24.3418 96.9648 24.4688 96.8867 24.6211C96.8125 24.7734 96.7754 24.9473 96.7754 25.1426C96.7754 25.3965 96.8105 25.5996 96.8809 25.752C96.9512 25.9004 97.0566 26.0078 97.1973 26.0742C97.3379 26.1406 97.5156 26.1738 97.7305 26.1738C97.9922 26.1738 98.2227 26.1133 98.4219 25.9922C98.6211 25.8711 98.7754 25.7246 98.8848 25.5527C98.998 25.3809 99.0508 25.2207 99.043 25.0723L99.2715 25.5586C99.2559 25.7109 99.2051 25.877 99.1191 26.0566C99.0371 26.2324 98.9219 26.4023 98.7734 26.5664C98.625 26.7266 98.4492 26.8594 98.2461 26.9648C98.0469 27.0664 97.8223 27.1172 97.5723 27.1172C97.2051 27.1172 96.8828 27.0469 96.6055 26.9062C96.332 26.7656 96.1191 26.5586 95.9668 26.2852C95.8145 26.0117 95.7383 25.6738 95.7383 25.2715C95.7383 24.9668 95.791 24.6855 95.8965 24.4277C96.002 24.1699 96.1582 23.9473 96.3652 23.7598C96.5723 23.5684 96.832 23.4199 97.1445 23.3145C97.4609 23.209 97.8262 23.1562 98.2402 23.1562H99.1191ZM103.789 20.6602V27H102.752V20.6602H103.789ZM105.518 20.6602V21.5391H101.047V20.6602H105.518ZM108.418 27.1172C108.039 27.1172 107.697 27.0605 107.393 26.9473C107.088 26.834 106.828 26.6621 106.613 26.4316C106.398 26.1973 106.234 25.9023 106.121 25.5469C106.008 25.1914 105.951 24.7715 105.951 24.2871V23.5723C105.951 23.0137 106.016 22.541 106.145 22.1543C106.277 21.7676 106.455 21.457 106.678 21.2227C106.9 20.9844 107.152 20.8125 107.434 20.707C107.715 20.5977 108.004 20.543 108.301 20.543C108.699 20.543 109.039 20.6074 109.32 20.7363C109.602 20.8652 109.83 21.0566 110.006 21.3105C110.182 21.5645 110.311 21.877 110.393 22.248C110.479 22.6191 110.521 23.0469 110.521 23.5312V24.1348H106.561V23.25H109.484V23.1035C109.469 22.7754 109.424 22.4863 109.35 22.2363C109.279 21.9863 109.162 21.791 108.998 21.6504C108.834 21.5059 108.602 21.4336 108.301 21.4336C108.109 21.4336 107.932 21.4668 107.768 21.5332C107.607 21.5957 107.469 21.707 107.352 21.8672C107.238 22.0234 107.148 22.2402 107.082 22.5176C107.02 22.7949 106.988 23.1465 106.988 23.5723V24.2871C106.988 24.627 107.02 24.9199 107.082 25.166C107.148 25.4082 107.244 25.6094 107.369 25.7695C107.498 25.9258 107.654 26.043 107.838 26.1211C108.025 26.1953 108.238 26.2324 108.477 26.2324C108.824 26.2324 109.111 26.166 109.338 26.0332C109.564 25.8965 109.762 25.7227 109.93 25.5117L110.475 26.1621C110.361 26.3223 110.213 26.4766 110.029 26.625C109.85 26.7695 109.627 26.8887 109.361 26.9824C109.1 27.0723 108.785 27.1172 108.418 27.1172ZM115.314 20.6602V21.5566H112.789V20.6602H115.314ZM116.24 20.6602V27H115.209V20.6602H116.24ZM112.543 20.6602H113.58L113.434 23.7188C113.41 24.1914 113.371 24.6094 113.316 24.9727C113.266 25.332 113.193 25.6406 113.1 25.8984C113.01 26.1562 112.896 26.3672 112.76 26.5312C112.627 26.6914 112.467 26.8105 112.279 26.8887C112.096 26.9629 111.883 27 111.641 27H111.33V26.0449L111.535 26.0273C111.672 26.0156 111.789 25.9766 111.887 25.9102C111.988 25.8438 112.07 25.7461 112.133 25.6172C112.199 25.4844 112.252 25.3145 112.291 25.1074C112.334 24.9004 112.367 24.6543 112.391 24.3691C112.414 24.084 112.432 23.752 112.443 23.373L112.543 20.6602ZM118.771 22.8398H120.318C120.756 22.8398 121.123 22.9297 121.42 23.1094C121.717 23.2852 121.941 23.5293 122.094 23.8418C122.246 24.1504 122.322 24.502 122.322 24.8965C122.322 25.1895 122.279 25.4648 122.193 25.7227C122.107 25.9766 121.979 26.1992 121.807 26.3906C121.639 26.582 121.43 26.7324 121.18 26.8418C120.934 26.9473 120.646 27 120.318 27H117.998V20.6602H119.029V26.1094H120.318C120.561 26.1094 120.752 26.0527 120.893 25.9395C121.033 25.8262 121.133 25.6797 121.191 25.5C121.254 25.3203 121.285 25.1328 121.285 24.9375C121.285 24.7461 121.254 24.5586 121.191 24.375C121.133 24.1914 121.033 24.0391 120.893 23.918C120.752 23.793 120.561 23.7305 120.318 23.7305H118.771V22.8398ZM123.676 26.4258C123.676 26.2422 123.732 26.0879 123.846 25.9629C123.963 25.834 124.131 25.7695 124.35 25.7695C124.568 25.7695 124.734 25.834 124.848 25.9629C124.965 26.0879 125.023 26.2422 125.023 26.4258C125.023 26.6055 124.965 26.7578 124.848 26.8828C124.734 27.0078 124.568 27.0703 124.35 27.0703C124.131 27.0703 123.963 27.0078 123.846 26.8828C123.732 26.7578 123.676 26.6055 123.676 26.4258ZM123.67 21.252C123.67 21.0684 123.727 20.9141 123.84 20.7891C123.957 20.6602 124.125 20.5957 124.344 20.5957C124.562 20.5957 124.729 20.6602 124.842 20.7891C124.959 20.9141 125.018 21.0684 125.018 21.252C125.018 21.4316 124.959 21.584 124.842 21.709C124.729 21.834 124.562 21.8965 124.344 21.8965C124.125 21.8965 123.957 21.834 123.84 21.709C123.727 21.584 123.67 21.4316 123.67 21.252ZM130.473 18.4688V27H129.395V18.4688H130.473ZM134.861 18.4688L131.779 23.1621H130.045L129.863 22.2246H131.129L133.525 18.4688H134.861ZM133.748 27L131.182 23.0156L131.785 22.0254L135.061 27H133.748ZM135.547 24.1348V23.5312C135.547 23.0391 135.609 22.6074 135.734 22.2363C135.859 21.8613 136.033 21.5488 136.256 21.2988C136.479 21.0488 136.738 20.8613 137.035 20.7363C137.332 20.6074 137.65 20.543 137.99 20.543C138.338 20.543 138.66 20.6074 138.957 20.7363C139.254 20.8613 139.514 21.0488 139.736 21.2988C139.963 21.5488 140.139 21.8613 140.264 22.2363C140.389 22.6074 140.451 23.0391 140.451 23.5312V24.1348C140.451 24.627 140.389 25.0605 140.264 25.4355C140.139 25.8066 139.965 26.1172 139.742 26.3672C139.52 26.6172 139.26 26.8047 138.963 26.9297C138.666 27.0547 138.346 27.1172 138.002 27.1172C137.658 27.1172 137.338 27.0547 137.041 26.9297C136.744 26.8047 136.482 26.6172 136.256 26.3672C136.033 26.1172 135.859 25.8066 135.734 25.4355C135.609 25.0605 135.547 24.627 135.547 24.1348ZM136.584 23.5312V24.1348C136.584 24.4824 136.619 24.7871 136.689 25.0488C136.76 25.3105 136.859 25.5293 136.988 25.7051C137.117 25.8809 137.268 26.0137 137.439 26.1035C137.611 26.1895 137.799 26.2324 138.002 26.2324C138.236 26.2324 138.441 26.1895 138.617 26.1035C138.797 26.0137 138.945 25.8809 139.062 25.7051C139.18 25.5293 139.268 25.3105 139.326 25.0488C139.385 24.7871 139.414 24.4824 139.414 24.1348V23.5312C139.414 23.1836 139.379 22.8809 139.309 22.623C139.238 22.3613 139.139 22.1426 139.01 21.9668C138.881 21.7871 138.729 21.6543 138.553 21.5684C138.381 21.4785 138.193 21.4336 137.99 21.4336C137.791 21.4336 137.605 21.4785 137.434 21.5684C137.262 21.6543 137.111 21.7871 136.982 21.9668C136.857 22.1426 136.76 22.3613 136.689 22.623C136.619 22.8809 136.584 23.1836 136.584 23.5312ZM145.396 23.4082V24.2871H142.707V23.4082H145.396ZM142.918 20.6602V27H141.881V20.6602H142.918ZM146.24 20.6602V27H145.203V20.6602H146.24ZM150.09 26.2324C150.297 26.2324 150.484 26.1914 150.652 26.1094C150.824 26.0234 150.965 25.8906 151.074 25.7109C151.184 25.5273 151.246 25.2891 151.262 24.9961H152.234C152.219 25.418 152.111 25.7891 151.912 26.1094C151.717 26.4258 151.459 26.6738 151.139 26.8535C150.822 27.0293 150.473 27.1172 150.09 27.1172C149.68 27.1172 149.322 27.0508 149.018 26.918C148.717 26.7852 148.467 26.5938 148.268 26.3438C148.072 26.0898 147.926 25.7832 147.828 25.4238C147.73 25.0605 147.682 24.6484 147.682 24.1875V23.4727C147.682 23.0117 147.73 22.6016 147.828 22.2422C147.926 21.8789 148.072 21.5723 148.268 21.3223C148.467 21.0684 148.717 20.875 149.018 20.7422C149.322 20.6094 149.68 20.543 150.09 20.543C150.52 20.543 150.891 20.6348 151.203 20.8184C151.52 20.998 151.766 21.2598 151.941 21.6035C152.121 21.9434 152.219 22.3555 152.234 22.8398H151.262C151.246 22.5273 151.189 22.2676 151.092 22.0605C150.994 21.8496 150.861 21.6934 150.693 21.5918C150.525 21.4863 150.324 21.4336 150.09 21.4336C149.816 21.4336 149.59 21.4824 149.41 21.5801C149.234 21.6738 149.096 21.8105 148.994 21.9902C148.893 22.1699 148.82 22.3848 148.777 22.6348C148.738 22.8848 148.719 23.1641 148.719 23.4727V24.1875C148.719 24.4961 148.738 24.7773 148.777 25.0312C148.82 25.2812 148.891 25.4961 148.988 25.6758C149.09 25.8555 149.23 25.9941 149.41 26.0918C149.59 26.1855 149.816 26.2324 150.09 26.2324ZM155.715 20.6602V27H154.678V20.6602H155.715ZM157.443 20.6602V21.5391H152.973V20.6602H157.443ZM161.557 25.916V22.4766C161.557 22.2266 161.518 22.0254 161.439 21.873C161.365 21.7207 161.252 21.6094 161.1 21.5391C160.951 21.4688 160.764 21.4336 160.537 21.4336C160.318 21.4336 160.129 21.4785 159.969 21.5684C159.812 21.6582 159.691 21.7773 159.605 21.9258C159.523 22.0742 159.482 22.2383 159.482 22.418H158.445C158.445 22.1914 158.494 21.9668 158.592 21.7441C158.693 21.5215 158.838 21.3203 159.025 21.1406C159.213 20.957 159.438 20.8125 159.699 20.707C159.965 20.5977 160.262 20.543 160.59 20.543C160.98 20.543 161.326 20.6074 161.627 20.7363C161.928 20.8613 162.164 21.0664 162.336 21.3516C162.508 21.6367 162.594 22.0156 162.594 22.4883V25.6172C162.594 25.8281 162.609 26.0527 162.641 26.291C162.676 26.5293 162.725 26.7344 162.787 26.9062V27H161.715C161.664 26.875 161.625 26.709 161.598 26.502C161.57 26.291 161.557 26.0957 161.557 25.916ZM161.721 23.1562L161.732 23.918H161.012C160.766 23.918 160.541 23.9453 160.338 24C160.139 24.0547 159.967 24.1348 159.822 24.2402C159.678 24.3418 159.566 24.4688 159.488 24.6211C159.414 24.7734 159.377 24.9473 159.377 25.1426C159.377 25.3965 159.412 25.5996 159.482 25.752C159.553 25.9004 159.658 26.0078 159.799 26.0742C159.939 26.1406 160.117 26.1738 160.332 26.1738C160.594 26.1738 160.824 26.1133 161.023 25.9922C161.223 25.8711 161.377 25.7246 161.486 25.5527C161.6 25.3809 161.652 25.2207 161.645 25.0723L161.873 25.5586C161.857 25.7109 161.807 25.877 161.721 26.0566C161.639 26.2324 161.523 26.4023 161.375 26.5664C161.227 26.7266 161.051 26.8594 160.848 26.9648C160.648 27.0664 160.424 27.1172 160.174 27.1172C159.807 27.1172 159.484 27.0469 159.207 26.9062C158.934 26.7656 158.721 26.5586 158.568 26.2852C158.416 26.0117 158.34 25.6738 158.34 25.2715C158.34 24.9668 158.393 24.6855 158.498 24.4277C158.604 24.1699 158.76 23.9473 158.967 23.7598C159.174 23.5684 159.434 23.4199 159.746 23.3145C160.062 23.209 160.428 23.1562 160.842 23.1562H161.721ZM167.814 23.4082V24.2871H165.125V23.4082H167.814ZM165.336 20.6602V27H164.299V20.6602H165.336ZM168.658 20.6602V27H167.621V20.6602H168.658ZM172.59 20.6602V27H171.553V20.6602H172.59ZM174.318 20.6602V21.5391H169.848V20.6602H174.318ZM176.545 25.2832L178.842 20.6602H179.879V27H178.842V22.377L176.545 27H175.514V20.6602H176.545V25.2832ZM185.146 23.4082V24.2871H182.457V23.4082H185.146ZM182.668 20.6602V27H181.631V20.6602H182.668ZM185.99 20.6602V27H184.953V20.6602H185.99ZM191.668 18.4688V27H190.59V18.4688H191.668ZM196.057 18.4688L192.975 23.1621H191.24L191.059 22.2246H192.324L194.721 18.4688H196.057ZM194.943 27L192.377 23.0156L192.98 22.0254L196.256 27H194.943ZM196.742 24.1348V23.5312C196.742 23.0391 196.805 22.6074 196.93 22.2363C197.055 21.8613 197.229 21.5488 197.451 21.2988C197.674 21.0488 197.934 20.8613 198.23 20.7363C198.527 20.6074 198.846 20.543 199.186 20.543C199.533 20.543 199.855 20.6074 200.152 20.7363C200.449 20.8613 200.709 21.0488 200.932 21.2988C201.158 21.5488 201.334 21.8613 201.459 22.2363C201.584 22.6074 201.646 23.0391 201.646 23.5312V24.1348C201.646 24.627 201.584 25.0605 201.459 25.4355C201.334 25.8066 201.16 26.1172 200.938 26.3672C200.715 26.6172 200.455 26.8047 200.158 26.9297C199.861 27.0547 199.541 27.1172 199.197 27.1172C198.854 27.1172 198.533 27.0547 198.236 26.9297C197.939 26.8047 197.678 26.6172 197.451 26.3672C197.229 26.1172 197.055 25.8066 196.93 25.4355C196.805 25.0605 196.742 24.627 196.742 24.1348ZM197.779 23.5312V24.1348C197.779 24.4824 197.814 24.7871 197.885 25.0488C197.955 25.3105 198.055 25.5293 198.184 25.7051C198.312 25.8809 198.463 26.0137 198.635 26.1035C198.807 26.1895 198.994 26.2324 199.197 26.2324C199.432 26.2324 199.637 26.1895 199.812 26.1035C199.992 26.0137 200.141 25.8809 200.258 25.7051C200.375 25.5293 200.463 25.3105 200.521 25.0488C200.58 24.7871 200.609 24.4824 200.609 24.1348V23.5312C200.609 23.1836 200.574 22.8809 200.504 22.623C200.434 22.3613 200.334 22.1426 200.205 21.9668C200.076 21.7871 199.924 21.6543 199.748 21.5684C199.576 21.4785 199.389 21.4336 199.186 21.4336C198.986 21.4336 198.801 21.4785 198.629 21.5684C198.457 21.6543 198.307 21.7871 198.178 21.9668C198.053 22.1426 197.955 22.3613 197.885 22.623C197.814 22.8809 197.779 23.1836 197.779 23.5312ZM206.592 23.4082V24.2871H203.902V23.4082H206.592ZM204.113 20.6602V27H203.076V20.6602H204.113ZM207.436 20.6602V27H206.398V20.6602H207.436ZM211.285 26.2324C211.492 26.2324 211.68 26.1914 211.848 26.1094C212.02 26.0234 212.16 25.8906 212.27 25.7109C212.379 25.5273 212.441 25.2891 212.457 24.9961H213.43C213.414 25.418 213.307 25.7891 213.107 26.1094C212.912 26.4258 212.654 26.6738 212.334 26.8535C212.018 27.0293 211.668 27.1172 211.285 27.1172C210.875 27.1172 210.518 27.0508 210.213 26.918C209.912 26.7852 209.662 26.5938 209.463 26.3438C209.268 26.0898 209.121 25.7832 209.023 25.4238C208.926 25.0605 208.877 24.6484 208.877 24.1875V23.4727C208.877 23.0117 208.926 22.6016 209.023 22.2422C209.121 21.8789 209.268 21.5723 209.463 21.3223C209.662 21.0684 209.912 20.875 210.213 20.7422C210.518 20.6094 210.875 20.543 211.285 20.543C211.715 20.543 212.086 20.6348 212.398 20.8184C212.715 20.998 212.961 21.2598 213.137 21.6035C213.316 21.9434 213.414 22.3555 213.43 22.8398H212.457C212.441 22.5273 212.385 22.2676 212.287 22.0605C212.189 21.8496 212.057 21.6934 211.889 21.5918C211.721 21.4863 211.52 21.4336 211.285 21.4336C211.012 21.4336 210.785 21.4824 210.605 21.5801C210.43 21.6738 210.291 21.8105 210.189 21.9902C210.088 22.1699 210.016 22.3848 209.973 22.6348C209.934 22.8848 209.914 23.1641 209.914 23.4727V24.1875C209.914 24.4961 209.934 24.7773 209.973 25.0312C210.016 25.2812 210.086 25.4961 210.184 25.6758C210.285 25.8555 210.426 25.9941 210.605 26.0918C210.785 26.1855 211.012 26.2324 211.285 26.2324ZM216.91 20.6602V27H215.873V20.6602H216.91ZM218.639 20.6602V21.5391H214.168V20.6602H218.639ZM222.752 25.916V22.4766C222.752 22.2266 222.713 22.0254 222.635 21.873C222.561 21.7207 222.447 21.6094 222.295 21.5391C222.146 21.4688 221.959 21.4336 221.732 21.4336C221.514 21.4336 221.324 21.4785 221.164 21.5684C221.008 21.6582 220.887 21.7773 220.801 21.9258C220.719 22.0742 220.678 22.2383 220.678 22.418H219.641C219.641 22.1914 219.689 21.9668 219.787 21.7441C219.889 21.5215 220.033 21.3203 220.221 21.1406C220.408 20.957 220.633 20.8125 220.895 20.707C221.16 20.5977 221.457 20.543 221.785 20.543C222.176 20.543 222.521 20.6074 222.822 20.7363C223.123 20.8613 223.359 21.0664 223.531 21.3516C223.703 21.6367 223.789 22.0156 223.789 22.4883V25.6172C223.789 25.8281 223.805 26.0527 223.836 26.291C223.871 26.5293 223.92 26.7344 223.982 26.9062V27H222.91C222.859 26.875 222.82 26.709 222.793 26.502C222.766 26.291 222.752 26.0957 222.752 25.916ZM222.916 23.1562L222.928 23.918H222.207C221.961 23.918 221.736 23.9453 221.533 24C221.334 24.0547 221.162 24.1348 221.018 24.2402C220.873 24.3418 220.762 24.4688 220.684 24.6211C220.609 24.7734 220.572 24.9473 220.572 25.1426C220.572 25.3965 220.607 25.5996 220.678 25.752C220.748 25.9004 220.854 26.0078 220.994 26.0742C221.135 26.1406 221.312 26.1738 221.527 26.1738C221.789 26.1738 222.02 26.1133 222.219 25.9922C222.418 25.8711 222.572 25.7246 222.682 25.5527C222.795 25.3809 222.848 25.2207 222.84 25.0723L223.068 25.5586C223.053 25.7109 223.002 25.877 222.916 26.0566C222.834 26.2324 222.719 26.4023 222.57 26.5664C222.422 26.7266 222.246 26.8594 222.043 26.9648C221.844 27.0664 221.619 27.1172 221.369 27.1172C221.002 27.1172 220.68 27.0469 220.402 26.9062C220.129 26.7656 219.916 26.5586 219.764 26.2852C219.611 26.0117 219.535 25.6738 219.535 25.2715C219.535 24.9668 219.588 24.6855 219.693 24.4277C219.799 24.1699 219.955 23.9473 220.162 23.7598C220.369 23.5684 220.629 23.4199 220.941 23.3145C221.258 23.209 221.623 23.1562 222.037 23.1562H222.916ZM229.01 23.4082V24.2871H226.32V23.4082H229.01ZM226.531 20.6602V27H225.494V20.6602H226.531ZM229.854 20.6602V27H228.816V20.6602H229.854ZM233.785 20.6602V27H232.748V20.6602H233.785ZM235.514 20.6602V21.5391H231.043V20.6602H235.514ZM237.74 25.2832L240.037 20.6602H241.074V27H240.037V22.377L237.74 27H236.709V20.6602H237.74V25.2832ZM246.342 23.4082V24.2871H243.652V23.4082H246.342ZM243.863 20.6602V27H242.826V20.6602H243.863ZM247.186 20.6602V27H246.148V20.6602H247.186ZM248.621 24.1348V23.5312C248.621 23.0391 248.684 22.6074 248.809 22.2363C248.934 21.8613 249.107 21.5488 249.33 21.2988C249.553 21.0488 249.812 20.8613 250.109 20.7363C250.406 20.6074 250.725 20.543 251.064 20.543C251.412 20.543 251.734 20.6074 252.031 20.7363C252.328 20.8613 252.588 21.0488 252.811 21.2988C253.037 21.5488 253.213 21.8613 253.338 22.2363C253.463 22.6074 253.525 23.0391 253.525 23.5312V24.1348C253.525 24.627 253.463 25.0605 253.338 25.4355C253.213 25.8066 253.039 26.1172 252.816 26.3672C252.594 26.6172 252.334 26.8047 252.037 26.9297C251.74 27.0547 251.42 27.1172 251.076 27.1172C250.732 27.1172 250.412 27.0547 250.115 26.9297C249.818 26.8047 249.557 26.6172 249.33 26.3672C249.107 26.1172 248.934 25.8066 248.809 25.4355C248.684 25.0605 248.621 24.627 248.621 24.1348ZM249.658 23.5312V24.1348C249.658 24.4824 249.693 24.7871 249.764 25.0488C249.834 25.3105 249.934 25.5293 250.062 25.7051C250.191 25.8809 250.342 26.0137 250.514 26.1035C250.686 26.1895 250.873 26.2324 251.076 26.2324C251.311 26.2324 251.516 26.1895 251.691 26.1035C251.871 26.0137 252.02 25.8809 252.137 25.7051C252.254 25.5293 252.342 25.3105 252.4 25.0488C252.459 24.7871 252.488 24.4824 252.488 24.1348V23.5312C252.488 23.1836 252.453 22.8809 252.383 22.623C252.312 22.3613 252.213 22.1426 252.084 21.9668C251.955 21.7871 251.803 21.6543 251.627 21.5684C251.455 21.4785 251.268 21.4336 251.064 21.4336C250.865 21.4336 250.68 21.4785 250.508 21.5684C250.336 21.6543 250.186 21.7871 250.057 21.9668C249.932 22.1426 249.834 22.3613 249.764 22.623C249.693 22.8809 249.658 23.1836 249.658 23.5312ZM257.416 24.2109H255.723L255.711 23.3438H257.07C257.34 23.3438 257.562 23.3105 257.738 23.2441C257.918 23.1777 258.053 23.0781 258.143 22.9453C258.232 22.8125 258.277 22.6484 258.277 22.4531C258.277 22.3008 258.252 22.168 258.201 22.0547C258.15 21.9375 258.074 21.8418 257.973 21.7676C257.875 21.6895 257.752 21.6328 257.604 21.5977C257.455 21.5586 257.281 21.5391 257.082 21.5391H255.986V27H254.955V20.6602H257.082C257.426 20.6602 257.734 20.6953 258.008 20.7656C258.285 20.8359 258.52 20.9434 258.711 21.0879C258.906 21.2285 259.055 21.4082 259.156 21.627C259.262 21.8457 259.314 22.1035 259.314 22.4004C259.314 22.5918 259.281 22.7734 259.215 22.9453C259.148 23.1172 259.049 23.2695 258.916 23.4023C258.787 23.5352 258.627 23.6445 258.436 23.7305C258.244 23.8125 258.023 23.8652 257.773 23.8887L257.416 24.2109ZM257.416 27H255.336L255.869 26.1211H257.416C257.654 26.1211 257.85 26.084 258.002 26.0098C258.154 25.9316 258.268 25.8223 258.342 25.6816C258.42 25.5371 258.459 25.3652 258.459 25.166C258.459 24.9668 258.42 24.7969 258.342 24.6562C258.268 24.5117 258.154 24.4023 258.002 24.3281C257.85 24.25 257.654 24.2109 257.416 24.2109H256.027L256.039 23.3438H257.756L258.119 23.6719C258.42 23.6992 258.672 23.7852 258.875 23.9297C259.082 24.0742 259.236 24.2578 259.338 24.4805C259.443 24.6992 259.496 24.9375 259.496 25.1953C259.496 25.4922 259.449 25.7539 259.355 25.9805C259.262 26.207 259.125 26.3965 258.945 26.5488C258.766 26.6973 258.547 26.8105 258.289 26.8887C258.031 26.9629 257.74 27 257.416 27ZM262.033 25.2832L264.33 20.6602H265.367V27H264.33V22.377L262.033 27H261.002V20.6602H262.033V25.2832ZM271.133 20.6602V27H270.096V20.6602H271.133ZM270.781 23.5723V24.4629C270.586 24.5449 270.395 24.6191 270.207 24.6855C270.02 24.748 269.822 24.7988 269.615 24.8379C269.408 24.873 269.178 24.8906 268.924 24.8906C268.514 24.8906 268.152 24.8047 267.84 24.6328C267.531 24.457 267.291 24.1934 267.119 23.8418C266.947 23.4863 266.861 23.0391 266.861 22.5V20.6484H267.898V22.5C267.898 22.8516 267.938 23.1367 268.016 23.3555C268.098 23.5742 268.215 23.7363 268.367 23.8418C268.523 23.9434 268.709 23.9941 268.924 23.9941C269.166 23.9941 269.389 23.9766 269.592 23.9414C269.795 23.9023 269.992 23.8516 270.184 23.7891C270.379 23.7266 270.578 23.6543 270.781 23.5723Z" fill="#1B1716"/>
<path d="M1899.18 29.8203V30.3203H1899.68V29.8203H1899.18ZM1894.18 29.8203H1893.68V30.3203H1894.18V29.8203ZM1892.54 24.8594L1892.47 24.3644L1891.23 24.5409L1892.25 25.2662L1892.54 24.8594ZM1891.41 26.1484L1891.13 26.5645L1891.14 26.569L1891.41 26.1484ZM1892.5 29.8203V30.3203H1893V29.8203H1892.5ZM1880.82 29.8203H1880.32V30.3203H1880.82V29.8203ZM1881.91 26.1484L1881.64 25.7278L1881.91 26.1484ZM1888.4 22.4375L1888.04 22.0838L1888.04 22.0936L1888.4 22.4375ZM1884.92 22.4375L1885.28 22.0839L1884.92 22.4375ZM1884.92 18.9219L1885.28 19.2754L1884.92 18.9219ZM1888.4 18.9219L1888.04 19.2659L1888.04 19.2754L1888.4 18.9219ZM1893.32 25.3203C1894 25.3203 1894.76 25.4179 1895.59 25.6187L1895.82 24.6469C1894.93 24.4311 1894.1 24.3203 1893.32 24.3203V25.3203ZM1895.59 25.6187C1896.39 25.8142 1897.13 26.131 1897.82 26.569L1898.36 25.7278C1897.58 25.2284 1896.73 24.8681 1895.82 24.6469L1895.59 25.6187ZM1897.82 26.569C1898.47 26.9903 1898.68 27.3897 1898.68 27.75H1899.68C1899.68 26.9124 1899.16 26.2441 1898.36 25.7278L1897.82 26.569ZM1898.68 27.75V29.8203H1899.68V27.75H1898.68ZM1899.18 29.3203H1894.18V30.3203H1899.18V29.3203ZM1894.68 29.8203V27.75H1893.68V29.8203H1894.68ZM1894.68 27.75C1894.68 26.4132 1894.03 25.3091 1892.83 24.4525L1892.25 25.2662C1893.24 25.9722 1893.68 26.7951 1893.68 27.75H1894.68ZM1892.61 25.3544C1892.76 25.3333 1892.99 25.3203 1893.32 25.3203V24.3203C1892.97 24.3203 1892.69 24.3333 1892.47 24.3644L1892.61 25.3544ZM1884.41 25.6187C1885.24 25.4179 1886 25.3203 1886.68 25.3203V24.3203C1885.9 24.3203 1885.07 24.4311 1884.18 24.6469L1884.41 25.6187ZM1886.68 25.3203C1887.36 25.3203 1888.12 25.4179 1888.94 25.6187L1889.18 24.6469C1888.29 24.4311 1887.46 24.3203 1886.68 24.3203V25.3203ZM1888.94 25.6187C1889.75 25.8139 1890.48 26.1297 1891.13 26.5645L1891.68 25.7324C1890.93 25.2297 1890.09 24.8684 1889.18 24.6469L1888.94 25.6187ZM1891.14 26.569C1891.79 26.9903 1892 27.3897 1892 27.75H1893C1893 26.9124 1892.48 26.2441 1891.68 25.7278L1891.14 26.569ZM1892 27.75V29.8203H1893V27.75H1892ZM1892.5 29.3203H1880.82V30.3203H1892.5V29.3203ZM1881.32 29.8203V27.75H1880.32V29.8203H1881.32ZM1881.32 27.75C1881.32 27.3897 1881.53 26.9903 1882.18 26.569L1881.64 25.7278C1880.84 26.2441 1880.32 26.9124 1880.32 27.75H1881.32ZM1882.18 26.569C1882.87 26.131 1883.61 25.8142 1884.41 25.6187L1884.18 24.6469C1883.27 24.8681 1882.42 25.2284 1881.64 25.7278L1882.18 26.569ZM1888.04 22.0936C1887.66 22.4895 1887.22 22.6797 1886.68 22.6797V23.6797C1887.5 23.6797 1888.2 23.3751 1888.76 22.7814L1888.04 22.0936ZM1886.68 22.6797C1886.14 22.6797 1885.68 22.4885 1885.28 22.0839L1884.57 22.7911C1885.15 23.3761 1885.87 23.6797 1886.68 23.6797V22.6797ZM1885.28 22.0839C1884.87 21.6794 1884.68 21.2193 1884.68 20.6797H1883.68C1883.68 21.4943 1883.98 22.206 1884.57 22.7911L1885.28 22.0839ZM1884.68 20.6797C1884.68 20.1401 1884.87 19.68 1885.28 19.2754L1884.57 18.5683C1883.98 19.1534 1883.68 19.8651 1883.68 20.6797H1884.68ZM1885.28 19.2754C1885.68 18.8709 1886.14 18.6797 1886.68 18.6797V17.6797C1885.87 17.6797 1885.15 17.9833 1884.57 18.5683L1885.28 19.2754ZM1886.68 18.6797C1887.22 18.6797 1887.66 18.8699 1888.04 19.2657L1888.76 18.578C1888.2 17.9843 1887.5 17.6797 1886.68 17.6797V18.6797ZM1888.04 19.2754C1888.45 19.68 1888.64 20.1401 1888.64 20.6797H1889.64C1889.64 19.8651 1889.34 19.1534 1888.75 18.5683L1888.04 19.2754ZM1888.64 20.6797C1888.64 21.2193 1888.45 21.6794 1888.04 22.0839L1888.75 22.7911C1889.34 22.206 1889.64 21.4943 1889.64 20.6797H1888.64ZM1894.72 22.0839C1894.32 22.4885 1893.86 22.6797 1893.32 22.6797V23.6797C1894.13 23.6797 1894.85 23.3761 1895.43 22.7911L1894.72 22.0839ZM1893.32 22.6797C1892.78 22.6797 1892.32 22.4885 1891.92 22.0839L1891.21 22.7911C1891.79 23.3761 1892.51 23.6797 1893.32 23.6797V22.6797ZM1891.92 22.0839C1891.51 21.6794 1891.32 21.2193 1891.32 20.6797H1890.32C1890.32 21.4943 1890.62 22.206 1891.21 22.7911L1891.92 22.0839ZM1891.32 20.6797C1891.32 20.1401 1891.51 19.68 1891.92 19.2754L1891.21 18.5683C1890.62 19.1534 1890.32 19.8651 1890.32 20.6797H1891.32ZM1891.92 19.2754C1892.32 18.8709 1892.78 18.6797 1893.32 18.6797V17.6797C1892.51 17.6797 1891.79 17.9833 1891.21 18.5683L1891.92 19.2754ZM1893.32 18.6797C1893.86 18.6797 1894.32 18.8709 1894.72 19.2754L1895.43 18.5683C1894.85 17.9833 1894.13 17.6797 1893.32 17.6797V18.6797ZM1894.72 19.2754C1895.13 19.68 1895.32 20.1401 1895.32 20.6797H1896.32C1896.32 19.8651 1896.02 19.1534 1895.43 18.5683L1894.72 19.2754ZM1895.32 20.6797C1895.32 21.2193 1895.13 21.6794 1894.72 22.0839L1895.43 22.7911C1896.02 22.206 1896.32 21.4943 1896.32 20.6797H1895.32Z" fill="black"/>
</g>
<defs>
<filter id="filter0_d_4432_48250" x="-8" y="0" width="1948" height="60" filterUnits="userSpaceOnUse" color-interpolation-filters="sRGB">
<feFlood flood-opacity="0" result="BackgroundImageFix"/>
<feColorMatrix in="SourceAlpha" type="matrix" values="0 0 0 0 0 0 0 0 0 0 0 0 0 0 0 0 0 0 127 0" result="hardAlpha"/>
<feOffset dx="6" dy="6"/>
<feGaussianBlur stdDeviation="7"/>
<feColorMatrix type="matrix" values="0 0 0 0 0.00225694 0 0 0 0 0.128646 0 0 0 0 0.270833 0 0 0 0.15 0"/>
<feBlend mode="normal" in2="BackgroundImageFix" result="effect1_dropShadow_4432_48250"/>
<feBlend mode="normal" in="SourceGraphic" in2="effect1_dropShadow_4432_48250" result="shape"/>
</filter>
<clipPath id="clip0_4432_48250">
<rect width="1920" height="32" fill="white" transform="translate(0 8)"/>
</clipPath>
</defs>
</svg>
