<svg width="418" height="92" viewBox="0 0 418 92" fill="none" xmlns="http://www.w3.org/2000/svg">
<g opacity="0.3">
<path d="M8.68799 6V14H7.26611V6H8.68799ZM2.56689 14L5.10596 9.79687L2.71143 6H4.48877L6.37939 9.37891H9.60986L11.4692 6H13.2388L10.8794 9.79297L13.3872 14H11.6724L9.8169 10.7227H6.15674L4.26611 14H2.56689ZM15.3042 16.25C15.1115 16.25 14.9331 16.2344 14.769 16.2031C14.6076 16.1745 14.4787 16.1406 14.3823 16.1016L14.7104 15C14.9162 15.0599 15.0998 15.0885 15.2612 15.0859C15.4227 15.0833 15.5646 15.0326 15.687 14.9336C15.812 14.8372 15.9175 14.6758 16.0034 14.4492L16.1245 14.125L13.9487 8H15.4487L16.8315 12.5312H16.894L18.2808 8H19.7847L17.3823 14.7266C17.2703 15.0443 17.1219 15.3164 16.937 15.543C16.7521 15.7721 16.5256 15.9466 16.2573 16.0664C15.9917 16.1888 15.674 16.25 15.3042 16.25ZM20.7632 16.25V8H22.1538V8.99219H22.2358C22.3088 8.84635 22.4116 8.69141 22.5444 8.52734C22.6772 8.36068 22.8569 8.21875 23.0835 8.10156C23.3101 7.98177 23.5991 7.92188 23.9507 7.92188C24.4142 7.92188 24.8322 8.04036 25.2046 8.27734C25.5796 8.51172 25.8765 8.85937 26.0952 9.32031C26.3166 9.77865 26.4272 10.3411 26.4272 11.0078C26.4272 11.6667 26.3192 12.2266 26.103 12.6875C25.8869 13.1484 25.5926 13.5 25.2202 13.7422C24.8478 13.9844 24.4259 14.1055 23.9546 14.1055C23.6108 14.1055 23.3257 14.0482 23.0991 13.9336C22.8726 13.819 22.6903 13.681 22.5522 13.5195C22.4168 13.3555 22.3114 13.2005 22.2358 13.0547H22.1772V16.25H20.7632ZM22.1499 11C22.1499 11.388 22.2046 11.7279 22.314 12.0195C22.4259 12.3112 22.5861 12.5391 22.7944 12.7031C23.0054 12.8646 23.2606 12.9453 23.5601 12.9453C23.8726 12.9453 24.1343 12.862 24.3452 12.6953C24.5562 12.526 24.715 12.2956 24.8218 12.0039C24.9312 11.7096 24.9858 11.375 24.9858 11C24.9858 10.6276 24.9325 10.2969 24.8257 10.0078C24.7189 9.71875 24.5601 9.49219 24.3491 9.32812C24.1382 9.16406 23.8752 9.08203 23.5601 9.08203C23.258 9.08203 23.0015 9.16146 22.7905 9.32031C22.5796 9.47917 22.4194 9.70182 22.3101 9.98828C22.2033 10.2747 22.1499 10.612 22.1499 11ZM31.7593 10.4141V11.5742H28.564V10.4141H31.7593ZM29.0015 8V14H27.6382V8H29.0015ZM32.6851 8V14H31.3257V8H32.6851ZM35.8423 14.1211C35.4621 14.1211 35.1196 14.0534 34.8149 13.918C34.5129 13.7799 34.2733 13.5768 34.0962 13.3086C33.9217 13.0404 33.8345 12.7096 33.8345 12.3164C33.8345 11.9779 33.897 11.6979 34.022 11.4766C34.147 11.2552 34.3175 11.0781 34.5337 10.9453C34.7498 10.8125 34.9933 10.7122 35.2642 10.6445C35.5376 10.5742 35.8201 10.5234 36.1118 10.4922C36.4634 10.4557 36.7485 10.4232 36.9673 10.3945C37.186 10.3633 37.3449 10.3164 37.4438 10.2539C37.5454 10.1888 37.5962 10.0885 37.5962 9.95312V9.92969C37.5962 9.63542 37.509 9.40755 37.3345 9.24609C37.16 9.08464 36.9087 9.00391 36.5806 9.00391C36.2342 9.00391 35.9595 9.07943 35.7563 9.23047C35.5558 9.38151 35.4204 9.5599 35.3501 9.76562L34.0298 9.57812C34.134 9.21354 34.3058 8.90885 34.5454 8.66406C34.785 8.41667 35.078 8.23177 35.4243 8.10937C35.7707 7.98438 36.1535 7.92188 36.5728 7.92188C36.8618 7.92188 37.1496 7.95573 37.436 8.02344C37.7225 8.09115 37.9842 8.20312 38.2212 8.35937C38.4582 8.51302 38.6483 8.72266 38.7915 8.98828C38.9373 9.25391 39.0103 9.58594 39.0103 9.98437V14H37.6509V13.1758H37.604C37.5181 13.3424 37.397 13.4987 37.2407 13.6445C37.0871 13.7878 36.8931 13.9036 36.6587 13.9922C36.4269 14.0781 36.1548 14.1211 35.8423 14.1211ZM36.2095 13.082C36.4933 13.082 36.7394 13.026 36.9478 12.9141C37.1561 12.7995 37.3162 12.6484 37.4282 12.4609C37.5428 12.2734 37.6001 12.069 37.6001 11.8477V11.1406C37.5558 11.1771 37.4803 11.2109 37.3735 11.2422C37.2694 11.2734 37.1522 11.3008 37.022 11.3242C36.8918 11.3477 36.7629 11.3685 36.6353 11.3867C36.5076 11.4049 36.397 11.4206 36.3032 11.4336C36.0923 11.4622 35.9035 11.5091 35.7368 11.5742C35.5701 11.6393 35.4386 11.7305 35.3423 11.8477C35.2459 11.9622 35.1978 12.1107 35.1978 12.293C35.1978 12.5534 35.2928 12.75 35.4829 12.8828C35.673 13.0156 35.9152 13.082 36.2095 13.082ZM40.0181 14L40.0103 12.8359H40.2173C40.3735 12.8359 40.505 12.8008 40.6118 12.7305C40.7186 12.6602 40.8071 12.543 40.8774 12.3789C40.9478 12.2122 41.0024 11.9883 41.0415 11.707C41.0806 11.4258 41.1079 11.0755 41.1235 10.6562L41.229 8H45.604V14H44.2368V9.16016H42.5142L42.4204 11.0937C42.397 11.5937 42.341 12.0273 42.2524 12.3945C42.1665 12.7591 42.0441 13.0599 41.8853 13.2969C41.729 13.5339 41.5324 13.7109 41.2954 13.8281C41.0584 13.9427 40.7785 14 40.4556 14H40.0181ZM51.4829 14.1211C51.1027 14.1211 50.7603 14.0534 50.4556 13.918C50.1535 13.7799 49.9139 13.5768 49.7368 13.3086C49.5623 13.0404 49.4751 12.7096 49.4751 12.3164C49.4751 11.9779 49.5376 11.6979 49.6626 11.4766C49.7876 11.2552 49.9582 11.0781 50.1743 10.9453C50.3905 10.8125 50.634 10.7122 50.9048 10.6445C51.1782 10.5742 51.4608 10.5234 51.7524 10.4922C52.104 10.4557 52.3892 10.4232 52.6079 10.3945C52.8267 10.3633 52.9855 10.3164 53.0845 10.2539C53.186 10.1888 53.2368 10.0885 53.2368 9.95312V9.92969C53.2368 9.63542 53.1496 9.40755 52.9751 9.24609C52.8006 9.08464 52.5493 9.00391 52.2212 9.00391C51.8748 9.00391 51.6001 9.07943 51.397 9.23047C51.1965 9.38151 51.061 9.5599 50.9907 9.76562L49.6704 9.57812C49.7746 9.21354 49.9465 8.90885 50.186 8.66406C50.4256 8.41667 50.7186 8.23177 51.0649 8.10937C51.4113 7.98438 51.7941 7.92188 52.2134 7.92188C52.5024 7.92188 52.7902 7.95573 53.0767 8.02344C53.3631 8.09115 53.6248 8.20312 53.8618 8.35937C54.0988 8.51302 54.2889 8.72266 54.4321 8.98828C54.578 9.25391 54.6509 9.58594 54.6509 9.98437V14H53.2915V13.1758H53.2446C53.1587 13.3424 53.0376 13.4987 52.8813 13.6445C52.7277 13.7878 52.5337 13.9036 52.2993 13.9922C52.0675 14.0781 51.7954 14.1211 51.4829 14.1211ZM51.8501 13.082C52.134 13.082 52.38 13.026 52.5884 12.9141C52.7967 12.7995 52.9569 12.6484 53.0688 12.4609C53.1834 12.2734 53.2407 12.069 53.2407 11.8477V11.1406C53.1965 11.1771 53.1209 11.2109 53.0142 11.2422C52.91 11.2734 52.7928 11.3008 52.6626 11.3242C52.5324 11.3477 52.4035 11.3685 52.2759 11.3867C52.1483 11.4049 52.0376 11.4206 51.9438 11.4336C51.7329 11.4622 51.5441 11.5091 51.3774 11.5742C51.2108 11.6393 51.0793 11.7305 50.9829 11.8477C50.8866 11.9622 50.8384 12.1107 50.8384 12.293C50.8384 12.5534 50.9334 12.75 51.1235 12.8828C51.3136 13.0156 51.5558 13.082 51.8501 13.082ZM56.0728 14V8H57.4868V10.4219H58.0024L59.8071 8H61.5103L59.2876 10.9453L61.5337 14H59.8228L58.1782 11.7383H57.4868V14H56.0728ZM62.0073 9.16016V8H67.2573V9.16016H65.3159V14H63.9487V9.16016H62.0073ZM69.7466 12.0859L72.1489 8H73.6021V14H72.2349V9.91016L69.8403 14H68.3833V8H69.7466V12.0859ZM75.0542 14V8H77.5737C78.2847 8 78.8459 8.14193 79.2573 8.42578C79.6714 8.70964 79.8784 9.10547 79.8784 9.61328C79.8784 9.94922 79.7612 10.224 79.5269 10.4375C79.2951 10.6484 78.9787 10.7904 78.5776 10.8633C78.8927 10.8893 79.1688 10.9687 79.4058 11.1016C79.6453 11.2344 79.8328 11.4089 79.9683 11.625C80.1037 11.8411 80.1714 12.0898 80.1714 12.3711C80.1714 12.7018 80.0841 12.9896 79.9097 13.2344C79.7378 13.4766 79.4865 13.6654 79.1558 13.8008C78.8276 13.9336 78.4292 14 77.9604 14H75.0542ZM76.3784 12.8867H77.9604C78.2209 12.8867 78.4253 12.8255 78.5737 12.7031C78.7222 12.5781 78.7964 12.4089 78.7964 12.1953C78.7964 11.9479 78.7222 11.7539 78.5737 11.6133C78.4253 11.4701 78.2209 11.3984 77.9604 11.3984H76.3784V12.8867ZM76.3784 10.4844H77.6011C77.7938 10.4844 77.9591 10.457 78.0972 10.4023C78.2352 10.3451 78.3407 10.2656 78.4136 10.1641C78.4865 10.0599 78.5229 9.9362 78.5229 9.79297C78.5229 9.58724 78.4383 9.42578 78.269 9.30859C78.1024 9.19141 77.8706 9.13281 77.5737 9.13281H76.3784V10.4844ZM85.4595 10.4141V11.5742H82.2642V10.4141H85.4595ZM82.7017 8V14H81.3384V8H82.7017ZM86.3853 8V14H85.0259V8H86.3853ZM90.4331 14.1172C89.8472 14.1172 89.3394 13.9883 88.9097 13.7305C88.48 13.4727 88.1466 13.112 87.9097 12.6484C87.6753 12.1849 87.5581 11.6432 87.5581 11.0234C87.5581 10.4036 87.6753 9.86068 87.9097 9.39453C88.1466 8.92839 88.48 8.56641 88.9097 8.30859C89.3394 8.05078 89.8472 7.92188 90.4331 7.92188C91.019 7.92188 91.5269 8.05078 91.9565 8.30859C92.3862 8.56641 92.7183 8.92839 92.9526 9.39453C93.1896 9.86068 93.3081 10.4036 93.3081 11.0234C93.3081 11.6432 93.1896 12.1849 92.9526 12.6484C92.7183 13.112 92.3862 13.4727 91.9565 13.7305C91.5269 13.9883 91.019 14.1172 90.4331 14.1172ZM90.4409 12.9844C90.7586 12.9844 91.0243 12.8971 91.2378 12.7227C91.4513 12.5456 91.6102 12.3086 91.7144 12.0117C91.8211 11.7148 91.8745 11.3841 91.8745 11.0195C91.8745 10.6523 91.8211 10.3203 91.7144 10.0234C91.6102 9.72396 91.4513 9.48568 91.2378 9.30859C91.0243 9.13151 90.7586 9.04297 90.4409 9.04297C90.1154 9.04297 89.8446 9.13151 89.6284 9.30859C89.4149 9.48568 89.2547 9.72396 89.1479 10.0234C89.0438 10.3203 88.9917 10.6523 88.9917 11.0195C88.9917 11.3841 89.0438 11.7148 89.1479 12.0117C89.2547 12.3086 89.4149 12.5456 89.6284 12.7227C89.8446 12.8971 90.1154 12.9844 90.4409 12.9844ZM97.1255 14.1172C96.5265 14.1172 96.0122 13.9857 95.5825 13.7227C95.1554 13.4596 94.826 13.0964 94.5942 12.6328C94.3651 12.1667 94.2505 11.6302 94.2505 11.0234C94.2505 10.4141 94.3677 9.8763 94.6021 9.41016C94.8364 8.94141 95.1672 8.57682 95.5942 8.31641C96.0239 8.05339 96.5317 7.92188 97.1177 7.92188C97.6047 7.92188 98.0356 8.01172 98.4106 8.19141C98.7882 8.36849 99.089 8.61979 99.313 8.94531C99.5369 9.26823 99.6646 9.64583 99.6958 10.0781H98.3442C98.2896 9.78906 98.1593 9.54818 97.9536 9.35547C97.7505 9.16016 97.4784 9.0625 97.1372 9.0625C96.8481 9.0625 96.5942 9.14062 96.3755 9.29687C96.1567 9.45052 95.9862 9.67187 95.8638 9.96094C95.744 10.25 95.6841 10.5964 95.6841 11C95.6841 11.4089 95.744 11.7604 95.8638 12.0547C95.9836 12.3464 96.1515 12.5716 96.3677 12.7305C96.5864 12.8867 96.8429 12.9648 97.1372 12.9648C97.3455 12.9648 97.5317 12.9258 97.6958 12.8477C97.8625 12.7669 98.0018 12.651 98.1138 12.5C98.2257 12.349 98.3026 12.1654 98.3442 11.9492H99.6958C99.6619 12.3737 99.5369 12.75 99.3208 13.0781C99.1047 13.4036 98.8104 13.6589 98.438 13.8437C98.0656 14.026 97.6281 14.1172 97.1255 14.1172ZM100.421 9.16016V8H105.671V9.16016H103.73V14H102.363V9.16016H100.421ZM108.161 12.0859L110.563 8H112.016V14H110.649V9.91016L108.254 14H106.797V8H108.161V12.0859Z" fill="#F0F0F6"/>
</g>
<g opacity="0.3">
<path d="M137.85 8.69922H136.389C136.347 8.45964 136.27 8.2474 136.158 8.0625C136.046 7.875 135.907 7.71615 135.74 7.58594C135.574 7.45573 135.383 7.35807 135.17 7.29297C134.959 7.22526 134.731 7.19141 134.486 7.19141C134.051 7.19141 133.666 7.30078 133.33 7.51953C132.994 7.73568 132.731 8.05339 132.541 8.47266C132.351 8.88932 132.256 9.39844 132.256 10C132.256 10.612 132.351 11.1276 132.541 11.5469C132.734 11.9635 132.997 12.2786 133.33 12.4922C133.666 12.7031 134.05 12.8086 134.482 12.8086C134.722 12.8086 134.946 12.7773 135.154 12.7148C135.365 12.6497 135.554 12.5547 135.721 12.4297C135.89 12.3047 136.032 12.151 136.146 11.9687C136.264 11.7865 136.344 11.5781 136.389 11.3437L137.85 11.3516C137.795 11.7318 137.676 12.0885 137.494 12.4219C137.314 12.7552 137.079 13.0495 136.787 13.3047C136.495 13.5573 136.154 13.7552 135.764 13.8984C135.373 14.0391 134.939 14.1094 134.463 14.1094C133.76 14.1094 133.132 13.9466 132.58 13.6211C132.028 13.2956 131.593 12.8255 131.275 12.2109C130.958 11.5964 130.799 10.8594 130.799 10C130.799 9.13802 130.959 8.40104 131.279 7.78906C131.6 7.17448 132.036 6.70443 132.588 6.37891C133.14 6.05339 133.765 5.89062 134.463 5.89062C134.908 5.89062 135.322 5.95312 135.705 6.07812C136.088 6.20312 136.429 6.38672 136.729 6.62891C137.028 6.86849 137.274 7.16276 137.467 7.51172C137.662 7.85807 137.79 8.25391 137.85 8.69922ZM140.478 12.0859L142.88 8H144.333V14H142.966V9.91016L140.571 14H139.114V8H140.478V12.0859ZM149.754 8V9.16016H147.168V14H145.785V8H149.754ZM155.009 10.4141V11.5742H151.813V10.4141H155.009ZM152.251 8V14H150.888V8H152.251ZM155.935 8V14H154.575V8H155.935ZM159.092 14.1211C158.712 14.1211 158.369 14.0534 158.064 13.918C157.762 13.7799 157.523 13.5768 157.346 13.3086C157.171 13.0404 157.084 12.7096 157.084 12.3164C157.084 11.9779 157.146 11.6979 157.271 11.4766C157.396 11.2552 157.567 11.0781 157.783 10.9453C157.999 10.8125 158.243 10.7122 158.514 10.6445C158.787 10.5742 159.07 10.5234 159.361 10.4922C159.713 10.4557 159.998 10.4232 160.217 10.3945C160.436 10.3633 160.594 10.3164 160.693 10.2539C160.795 10.1888 160.846 10.0885 160.846 9.95312V9.92969C160.846 9.63542 160.758 9.40755 160.584 9.24609C160.41 9.08464 160.158 9.00391 159.83 9.00391C159.484 9.00391 159.209 9.07943 159.006 9.23047C158.805 9.38151 158.67 9.5599 158.6 9.76562L157.279 9.57812C157.383 9.21354 157.555 8.90885 157.795 8.66406C158.035 8.41667 158.327 8.23177 158.674 8.10937C159.02 7.98438 159.403 7.92188 159.822 7.92188C160.111 7.92188 160.399 7.95573 160.686 8.02344C160.972 8.09115 161.234 8.20312 161.471 8.35937C161.708 8.51302 161.898 8.72266 162.041 8.98828C162.187 9.25391 162.26 9.58594 162.26 9.98437V14H160.9V13.1758H160.854C160.768 13.3424 160.646 13.4987 160.49 13.6445C160.337 13.7878 160.143 13.9036 159.908 13.9922C159.676 14.0781 159.404 14.1211 159.092 14.1211ZM159.459 13.082C159.743 13.082 159.989 13.026 160.197 12.9141C160.406 12.7995 160.566 12.6484 160.678 12.4609C160.792 12.2734 160.85 12.069 160.85 11.8477V11.1406C160.805 11.1771 160.73 11.2109 160.623 11.2422C160.519 11.2734 160.402 11.3008 160.271 11.3242C160.141 11.3477 160.012 11.3685 159.885 11.3867C159.757 11.4049 159.646 11.4206 159.553 11.4336C159.342 11.4622 159.153 11.5091 158.986 11.5742C158.82 11.6393 158.688 11.7305 158.592 11.8477C158.495 11.9622 158.447 12.1107 158.447 12.293C158.447 12.5534 158.542 12.75 158.732 12.8828C158.923 13.0156 159.165 13.082 159.459 13.082ZM163.268 14L163.26 12.8359H163.467C163.623 12.8359 163.755 12.8008 163.861 12.7305C163.968 12.6602 164.057 12.543 164.127 12.3789C164.197 12.2122 164.252 11.9883 164.291 11.707C164.33 11.4258 164.357 11.0755 164.373 10.6562L164.479 8H168.854V14H167.486V9.16016H165.764L165.67 11.0937C165.646 11.5937 165.59 12.0273 165.502 12.3945C165.416 12.7591 165.294 13.0599 165.135 13.2969C164.979 13.5339 164.782 13.7109 164.545 13.8281C164.308 13.9427 164.028 14 163.705 14H163.268ZM171.234 9.95312H173.004C173.77 9.95312 174.362 10.1393 174.781 10.5117C175.201 10.8841 175.411 11.3724 175.414 11.9766C175.411 12.3698 175.315 12.7187 175.125 13.0234C174.938 13.3281 174.664 13.5677 174.305 13.7422C173.948 13.9141 173.514 14 173.004 14H170.277V8H171.641V12.8398H173.004C173.311 12.8398 173.564 12.7617 173.762 12.6055C173.96 12.4466 174.059 12.2435 174.059 11.9961C174.059 11.7357 173.96 11.5234 173.762 11.3594C173.564 11.1953 173.311 11.1133 173.004 11.1133H171.234V9.95312ZM176.16 14V8H177.574V14H176.16ZM183.124 12.0859L185.526 8H186.979V14H185.612V9.91016L183.218 14H181.761V8H183.124V12.0859ZM192.553 10.4141V11.5742H189.357V10.4141H192.553ZM189.795 8V14H188.432V8H189.795ZM193.479 8V14H192.119V8H193.479ZM194.237 9.16016V8H199.487V9.16016H197.546V14H196.179V9.16016H194.237ZM203.022 14.1172C202.421 14.1172 201.901 13.9922 201.464 13.7422C201.029 13.4896 200.694 13.1328 200.46 12.6719C200.226 12.2083 200.108 11.6628 200.108 11.0352C200.108 10.418 200.226 9.8763 200.46 9.41016C200.697 8.94141 201.028 8.57682 201.452 8.31641C201.877 8.05339 202.375 7.92188 202.948 7.92188C203.318 7.92188 203.667 7.98177 203.995 8.10156C204.326 8.21875 204.618 8.40104 204.87 8.64844C205.125 8.89583 205.326 9.21094 205.472 9.59375C205.618 9.97396 205.69 10.4271 205.69 10.9531V11.3867H200.772V10.4336H204.335C204.332 10.1628 204.274 9.92187 204.159 9.71094C204.045 9.4974 203.884 9.32943 203.679 9.20703C203.476 9.08464 203.239 9.02344 202.968 9.02344C202.679 9.02344 202.425 9.09375 202.206 9.23437C201.987 9.3724 201.817 9.55469 201.694 9.78125C201.575 10.0052 201.513 10.2513 201.511 10.5195V11.3516C201.511 11.7005 201.575 12 201.702 12.25C201.83 12.4974 202.008 12.6875 202.237 12.8203C202.466 12.9505 202.735 13.0156 203.042 13.0156C203.248 13.0156 203.434 12.987 203.601 12.9297C203.767 12.8698 203.912 12.7826 204.034 12.668C204.157 12.5534 204.249 12.4115 204.312 12.2422L205.632 12.3906C205.549 12.7396 205.39 13.0443 205.155 13.3047C204.924 13.5625 204.627 13.763 204.265 13.9062C203.903 14.0469 203.489 14.1172 203.022 14.1172ZM206.887 16.25V8H208.277V8.99219H208.359C208.432 8.84635 208.535 8.69141 208.668 8.52734C208.801 8.36068 208.98 8.21875 209.207 8.10156C209.434 7.98177 209.723 7.92188 210.074 7.92188C210.538 7.92188 210.956 8.04036 211.328 8.27734C211.703 8.51172 212 8.85937 212.219 9.32031C212.44 9.77865 212.551 10.3411 212.551 11.0078C212.551 11.6667 212.443 12.2266 212.227 12.6875C212.01 13.1484 211.716 13.5 211.344 13.7422C210.971 13.9844 210.549 14.1055 210.078 14.1055C209.734 14.1055 209.449 14.0482 209.223 13.9336C208.996 13.819 208.814 13.681 208.676 13.5195C208.54 13.3555 208.435 13.2005 208.359 13.0547H208.301V16.25H206.887ZM208.273 11C208.273 11.388 208.328 11.7279 208.438 12.0195C208.549 12.3112 208.71 12.5391 208.918 12.7031C209.129 12.8646 209.384 12.9453 209.684 12.9453C209.996 12.9453 210.258 12.862 210.469 12.6953C210.68 12.526 210.839 12.2956 210.945 12.0039C211.055 11.7096 211.109 11.375 211.109 11C211.109 10.6276 211.056 10.2969 210.949 10.0078C210.842 9.71875 210.684 9.49219 210.473 9.32812C210.262 9.16406 209.999 9.08203 209.684 9.08203C209.382 9.08203 209.125 9.16146 208.914 9.32031C208.703 9.47917 208.543 9.70182 208.434 9.98828C208.327 10.2747 208.273 10.612 208.273 11ZM215.488 14.1211C215.108 14.1211 214.766 14.0534 214.461 13.918C214.159 13.7799 213.919 13.5768 213.742 13.3086C213.568 13.0404 213.48 12.7096 213.48 12.3164C213.48 11.9779 213.543 11.6979 213.668 11.4766C213.793 11.2552 213.964 11.0781 214.18 10.9453C214.396 10.8125 214.639 10.7122 214.91 10.6445C215.184 10.5742 215.466 10.5234 215.758 10.4922C216.109 10.4557 216.395 10.4232 216.613 10.3945C216.832 10.3633 216.991 10.3164 217.09 10.2539C217.191 10.1888 217.242 10.0885 217.242 9.95312V9.92969C217.242 9.63542 217.155 9.40755 216.98 9.24609C216.806 9.08464 216.555 9.00391 216.227 9.00391C215.88 9.00391 215.605 9.07943 215.402 9.23047C215.202 9.38151 215.066 9.5599 214.996 9.76562L213.676 9.57812C213.78 9.21354 213.952 8.90885 214.191 8.66406C214.431 8.41667 214.724 8.23177 215.07 8.10937C215.417 7.98438 215.799 7.92188 216.219 7.92188C216.508 7.92188 216.796 7.95573 217.082 8.02344C217.368 8.09115 217.63 8.20312 217.867 8.35937C218.104 8.51302 218.294 8.72266 218.438 8.98828C218.583 9.25391 218.656 9.58594 218.656 9.98437V14H217.297V13.1758H217.25C217.164 13.3424 217.043 13.4987 216.887 13.6445C216.733 13.7878 216.539 13.9036 216.305 13.9922C216.073 14.0781 215.801 14.1211 215.488 14.1211ZM215.855 13.082C216.139 13.082 216.385 13.026 216.594 12.9141C216.802 12.7995 216.962 12.6484 217.074 12.4609C217.189 12.2734 217.246 12.069 217.246 11.8477V11.1406C217.202 11.1771 217.126 11.2109 217.02 11.2422C216.915 11.2734 216.798 11.3008 216.668 11.3242C216.538 11.3477 216.409 11.3685 216.281 11.3867C216.154 11.4049 216.043 11.4206 215.949 11.4336C215.738 11.4622 215.549 11.5091 215.383 11.5742C215.216 11.6393 215.085 11.7305 214.988 11.8477C214.892 11.9622 214.844 12.1107 214.844 12.293C214.844 12.5534 214.939 12.75 215.129 12.8828C215.319 13.0156 215.561 13.082 215.855 13.082ZM220.078 14V8H221.492V10.4219H222.008L223.813 8H225.516L223.293 10.9453L225.539 14H223.828L222.184 11.7383H221.492V14H220.078ZM226.013 9.16016V8H231.263V9.16016H229.321V14H227.954V9.16016H226.013ZM233.752 12.0859L236.154 8H237.607V14H236.24V9.91016L233.846 14H232.389V8H233.752V12.0859ZM239.06 14V8H241.579C242.29 8 242.851 8.14193 243.263 8.42578C243.677 8.70964 243.884 9.10547 243.884 9.61328C243.884 9.94922 243.767 10.224 243.532 10.4375C243.3 10.6484 242.984 10.7904 242.583 10.8633C242.898 10.8893 243.174 10.9687 243.411 11.1016C243.651 11.2344 243.838 11.4089 243.974 11.625C244.109 11.8411 244.177 12.0898 244.177 12.3711C244.177 12.7018 244.09 12.9896 243.915 13.2344C243.743 13.4766 243.492 13.6654 243.161 13.8008C242.833 13.9336 242.435 14 241.966 14H239.06ZM240.384 12.8867H241.966C242.226 12.8867 242.431 12.8255 242.579 12.7031C242.728 12.5781 242.802 12.4089 242.802 12.1953C242.802 11.9479 242.728 11.7539 242.579 11.6133C242.431 11.4701 242.226 11.3984 241.966 11.3984H240.384V12.8867ZM240.384 10.4844H241.606C241.799 10.4844 241.965 10.457 242.103 10.4023C242.241 10.3451 242.346 10.2656 242.419 10.1641C242.492 10.0599 242.528 9.9362 242.528 9.79297C242.528 9.58724 242.444 9.42578 242.274 9.30859C242.108 9.19141 241.876 9.13281 241.579 9.13281H240.384V10.4844ZM249.465 10.4141V11.5742H246.27V10.4141H249.465ZM246.707 8V14H245.344V8H246.707ZM250.391 8V14H249.031V8H250.391ZM254.438 14.1172C253.853 14.1172 253.345 13.9883 252.915 13.7305C252.485 13.4727 252.152 13.112 251.915 12.6484C251.681 12.1849 251.563 11.6432 251.563 11.0234C251.563 10.4036 251.681 9.86068 251.915 9.39453C252.152 8.92839 252.485 8.56641 252.915 8.30859C253.345 8.05078 253.853 7.92188 254.438 7.92188C255.024 7.92188 255.532 8.05078 255.962 8.30859C256.392 8.56641 256.724 8.92839 256.958 9.39453C257.195 9.86068 257.313 10.4036 257.313 11.0234C257.313 11.6432 257.195 12.1849 256.958 12.6484C256.724 13.112 256.392 13.4727 255.962 13.7305C255.532 13.9883 255.024 14.1172 254.438 14.1172ZM254.446 12.9844C254.764 12.9844 255.03 12.8971 255.243 12.7227C255.457 12.5456 255.616 12.3086 255.72 12.0117C255.826 11.7148 255.88 11.3841 255.88 11.0195C255.88 10.6523 255.826 10.3203 255.72 10.0234C255.616 9.72396 255.457 9.48568 255.243 9.30859C255.03 9.13151 254.764 9.04297 254.446 9.04297C254.121 9.04297 253.85 9.13151 253.634 9.30859C253.42 9.48568 253.26 9.72396 253.153 10.0234C253.049 10.3203 252.997 10.6523 252.997 11.0195C252.997 11.3841 253.049 11.7148 253.153 12.0117C253.26 12.3086 253.42 12.5456 253.634 12.7227C253.85 12.8971 254.121 12.9844 254.446 12.9844Z" fill="#F0F0F6"/>
</g>
<g opacity="0.3">
<path d="M268.87 14H267.323L270.14 6H271.929L274.749 14H273.202L271.065 7.64062H271.003L268.87 14ZM268.921 10.8633H273.14V12.0273H268.921V10.8633ZM279.861 10.4141V11.5742H276.666V10.4141H279.861ZM277.104 8V14H275.74V8H277.104ZM280.787 8V14H279.428V8H280.787ZM283.944 14.1211C283.564 14.1211 283.222 14.0534 282.917 13.918C282.615 13.7799 282.375 13.5768 282.198 13.3086C282.024 13.0404 281.937 12.7096 281.937 12.3164C281.937 11.9779 281.999 11.6979 282.124 11.4766C282.249 11.2552 282.42 11.0781 282.636 10.9453C282.852 10.8125 283.095 10.7122 283.366 10.6445C283.64 10.5742 283.922 10.5234 284.214 10.4922C284.565 10.4557 284.851 10.4232 285.069 10.3945C285.288 10.3633 285.447 10.3164 285.546 10.2539C285.647 10.1888 285.698 10.0885 285.698 9.95312V9.92969C285.698 9.63542 285.611 9.40755 285.437 9.24609C285.262 9.08464 285.011 9.00391 284.683 9.00391C284.336 9.00391 284.062 9.07943 283.858 9.23047C283.658 9.38151 283.522 9.5599 283.452 9.76562L282.132 9.57812C282.236 9.21354 282.408 8.90885 282.647 8.66406C282.887 8.41667 283.18 8.23177 283.526 8.10937C283.873 7.98438 284.256 7.92188 284.675 7.92188C284.964 7.92188 285.252 7.95573 285.538 8.02344C285.825 8.09115 286.086 8.20312 286.323 8.35937C286.56 8.51302 286.75 8.72266 286.894 8.98828C287.039 9.25391 287.112 9.58594 287.112 9.98437V14H285.753V13.1758H285.706C285.62 13.3424 285.499 13.4987 285.343 13.6445C285.189 13.7878 284.995 13.9036 284.761 13.9922C284.529 14.0781 284.257 14.1211 283.944 14.1211ZM284.312 13.082C284.595 13.082 284.841 13.026 285.05 12.9141C285.258 12.7995 285.418 12.6484 285.53 12.4609C285.645 12.2734 285.702 12.069 285.702 11.8477V11.1406C285.658 11.1771 285.582 11.2109 285.476 11.2422C285.371 11.2734 285.254 11.3008 285.124 11.3242C284.994 11.3477 284.865 11.3685 284.737 11.3867C284.61 11.4049 284.499 11.4206 284.405 11.4336C284.194 11.4622 284.006 11.5091 283.839 11.5742C283.672 11.6393 283.541 11.7305 283.444 11.8477C283.348 11.9622 283.3 12.1107 283.3 12.293C283.3 12.5534 283.395 12.75 283.585 12.8828C283.775 13.0156 284.017 13.082 284.312 13.082ZM288.12 14L288.112 12.8359H288.319C288.476 12.8359 288.607 12.8008 288.714 12.7305C288.821 12.6602 288.909 12.543 288.979 12.3789C289.05 12.2122 289.104 11.9883 289.144 11.707C289.183 11.4258 289.21 11.0755 289.226 10.6562L289.331 8H293.706V14H292.339V9.16016H290.616L290.522 11.0937C290.499 11.5937 290.443 12.0273 290.354 12.3945C290.269 12.7591 290.146 13.0599 289.987 13.2969C289.831 13.5339 289.634 13.7109 289.397 13.8281C289.16 13.9427 288.881 14 288.558 14H288.12ZM296.493 12.0859L298.896 8H300.349V14H298.981V9.91016L296.587 14H295.13V8H296.493V12.0859ZM301.469 12.3555H302.871C302.884 12.5794 302.984 12.7526 303.172 12.875C303.359 12.9974 303.603 13.0586 303.902 13.0586C304.207 13.0586 304.464 12.9922 304.672 12.8594C304.883 12.724 304.988 12.5195 304.988 12.2461C304.988 12.0846 304.948 11.9427 304.867 11.8203C304.786 11.6953 304.673 11.599 304.527 11.5312C304.382 11.4635 304.21 11.4297 304.012 11.4297H303.094V10.4258H304.012C304.306 10.4258 304.529 10.3581 304.68 10.2227C304.833 10.0872 304.91 9.91667 304.91 9.71094C304.91 9.48958 304.829 9.3099 304.668 9.17187C304.509 9.03385 304.289 8.96484 304.008 8.96484C303.727 8.96484 303.492 9.02865 303.305 9.15625C303.12 9.28385 303.023 9.44792 303.016 9.64844H301.621C301.626 9.29948 301.73 8.99609 301.934 8.73828C302.139 8.48047 302.415 8.27995 302.762 8.13672C303.111 7.99349 303.504 7.92188 303.941 7.92188C304.41 7.92188 304.815 7.99219 305.156 8.13281C305.497 8.27344 305.76 8.47005 305.945 8.72266C306.13 8.97266 306.223 9.26693 306.223 9.60547C306.223 9.93099 306.121 10.2005 305.918 10.4141C305.715 10.625 305.441 10.776 305.098 10.8672V10.9297C305.335 10.9427 305.548 11.0104 305.738 11.1328C305.928 11.2526 306.079 11.4154 306.191 11.6211C306.303 11.8268 306.359 12.0651 306.359 12.3359C306.359 12.7031 306.254 13.0208 306.043 13.2891C305.832 13.5547 305.542 13.7591 305.172 13.9023C304.805 14.0456 304.384 14.1172 303.91 14.1172C303.449 14.1172 303.036 14.0482 302.672 13.9102C302.31 13.7695 302.022 13.5677 301.809 13.3047C301.595 13.0417 301.482 12.7253 301.469 12.3555ZM312.857 14.1172C312.256 14.1172 311.736 13.9922 311.299 13.7422C310.864 13.4896 310.529 13.1328 310.295 12.6719C310.061 12.2083 309.943 11.6628 309.943 11.0352C309.943 10.418 310.061 9.8763 310.295 9.41016C310.532 8.94141 310.863 8.57682 311.287 8.31641C311.712 8.05339 312.21 7.92188 312.783 7.92188C313.153 7.92188 313.502 7.98177 313.83 8.10156C314.161 8.21875 314.452 8.40104 314.705 8.64844C314.96 8.89583 315.161 9.21094 315.307 9.59375C315.452 9.97396 315.525 10.4271 315.525 10.9531V11.3867H310.607V10.4336H314.17C314.167 10.1628 314.109 9.92187 313.994 9.71094C313.88 9.4974 313.719 9.32943 313.514 9.20703C313.311 9.08464 313.074 9.02344 312.803 9.02344C312.514 9.02344 312.26 9.09375 312.041 9.23437C311.822 9.3724 311.652 9.55469 311.529 9.78125C311.41 10.0052 311.348 10.2513 311.346 10.5195V11.3516C311.346 11.7005 311.41 12 311.537 12.25C311.665 12.4974 311.843 12.6875 312.072 12.8203C312.301 12.9505 312.57 13.0156 312.877 13.0156C313.083 13.0156 313.269 12.987 313.436 12.9297C313.602 12.8698 313.747 12.7826 313.869 12.668C313.992 12.5534 314.084 12.4115 314.146 12.2422L315.467 12.3906C315.383 12.7396 315.225 13.0443 314.99 13.3047C314.758 13.5625 314.462 13.763 314.1 13.9062C313.738 14.0469 313.324 14.1172 312.857 14.1172ZM316.19 15.7422V12.8359H316.667C316.795 12.737 316.901 12.6029 316.987 12.4336C317.073 12.2617 317.144 12.0599 317.198 11.8281C317.256 11.5937 317.302 11.332 317.339 11.043C317.375 10.7513 317.408 10.4375 317.437 10.1016L317.608 8H321.944V12.8359H322.874V15.7422H321.507V14H317.581V15.7422H316.19ZM318.12 12.8359H320.593V9.14062H318.835L318.741 10.1016C318.689 10.737 318.62 11.2812 318.534 11.7344C318.448 12.1875 318.31 12.5547 318.12 12.8359ZM325.293 12.0859L327.695 8H329.148V14H327.781V9.91016L325.387 14H323.93V8H325.293V12.0859ZM334.722 10.4141V11.5742H331.526V10.4141H334.722ZM331.964 8V14H330.601V8H331.964ZM335.647 8V14H334.288V8H335.647ZM339.695 14.1172C339.109 14.1172 338.602 13.9883 338.172 13.7305C337.742 13.4727 337.409 13.112 337.172 12.6484C336.938 12.1849 336.82 11.6432 336.82 11.0234C336.82 10.4036 336.938 9.86068 337.172 9.39453C337.409 8.92839 337.742 8.56641 338.172 8.30859C338.602 8.05078 339.109 7.92188 339.695 7.92188C340.281 7.92188 340.789 8.05078 341.219 8.30859C341.648 8.56641 341.98 8.92839 342.215 9.39453C342.452 9.86068 342.57 10.4036 342.57 11.0234C342.57 11.6432 342.452 12.1849 342.215 12.6484C341.98 13.112 341.648 13.4727 341.219 13.7305C340.789 13.9883 340.281 14.1172 339.695 14.1172ZM339.703 12.9844C340.021 12.9844 340.286 12.8971 340.5 12.7227C340.714 12.5456 340.872 12.3086 340.977 12.0117C341.083 11.7148 341.137 11.3841 341.137 11.0195C341.137 10.6523 341.083 10.3203 340.977 10.0234C340.872 9.72396 340.714 9.48568 340.5 9.30859C340.286 9.13151 340.021 9.04297 339.703 9.04297C339.378 9.04297 339.107 9.13151 338.891 9.30859C338.677 9.48568 338.517 9.72396 338.41 10.0234C338.306 10.3203 338.254 10.6523 338.254 11.0195C338.254 11.3841 338.306 11.7148 338.41 12.0117C338.517 12.3086 338.677 12.5456 338.891 12.7227C339.107 12.8971 339.378 12.9844 339.703 12.9844ZM345.134 12.0859L347.536 8H348.989V14H347.622V9.91016L345.228 14H343.771V8H345.134V12.0859ZM347.149 5.9375H348.208C348.208 6.39323 348.043 6.76302 347.712 7.04687C347.384 7.32812 346.938 7.46875 346.376 7.46875C345.819 7.46875 345.375 7.32812 345.044 7.04687C344.716 6.76302 344.553 6.39323 344.556 5.9375H345.606C345.606 6.125 345.664 6.29297 345.778 6.44141C345.896 6.58724 346.095 6.66016 346.376 6.66016C346.652 6.66016 346.849 6.58724 346.966 6.44141C347.086 6.29557 347.147 6.1276 347.149 5.9375ZM353.17 14V8H358.236V14H356.873V9.16016H354.521V14H353.17ZM359.69 16.25V8H361.081V8.99219H361.163C361.236 8.84635 361.339 8.69141 361.472 8.52734C361.604 8.36068 361.784 8.21875 362.011 8.10156C362.237 7.98177 362.526 7.92188 362.878 7.92188C363.341 7.92188 363.759 8.04036 364.132 8.27734C364.507 8.51172 364.804 8.85937 365.022 9.32031C365.244 9.77865 365.354 10.3411 365.354 11.0078C365.354 11.6667 365.246 12.2266 365.03 12.6875C364.814 13.1484 364.52 13.5 364.147 13.7422C363.775 13.9844 363.353 14.1055 362.882 14.1055C362.538 14.1055 362.253 14.0482 362.026 13.9336C361.8 13.819 361.618 13.681 361.479 13.5195C361.344 13.3555 361.239 13.2005 361.163 13.0547H361.104V16.25H359.69ZM361.077 11C361.077 11.388 361.132 11.7279 361.241 12.0195C361.353 12.3112 361.513 12.5391 361.722 12.7031C361.933 12.8646 362.188 12.9453 362.487 12.9453C362.8 12.9453 363.062 12.862 363.272 12.6953C363.483 12.526 363.642 12.2956 363.749 12.0039C363.858 11.7096 363.913 11.375 363.913 11C363.913 10.6276 363.86 10.2969 363.753 10.0078C363.646 9.71875 363.487 9.49219 363.276 9.32812C363.065 9.16406 362.802 9.08203 362.487 9.08203C362.185 9.08203 361.929 9.16146 361.718 9.32031C361.507 9.47917 361.347 9.70182 361.237 9.98828C361.131 10.2747 361.077 10.612 361.077 11ZM369.183 14.1172C368.597 14.1172 368.089 13.9883 367.659 13.7305C367.229 13.4727 366.896 13.112 366.659 12.6484C366.425 12.1849 366.308 11.6432 366.308 11.0234C366.308 10.4036 366.425 9.86068 366.659 9.39453C366.896 8.92839 367.229 8.56641 367.659 8.30859C368.089 8.05078 368.597 7.92188 369.183 7.92188C369.769 7.92188 370.276 8.05078 370.706 8.30859C371.136 8.56641 371.468 8.92839 371.702 9.39453C371.939 9.86068 372.058 10.4036 372.058 11.0234C372.058 11.6432 371.939 12.1849 371.702 12.6484C371.468 13.112 371.136 13.4727 370.706 13.7305C370.276 13.9883 369.769 14.1172 369.183 14.1172ZM369.19 12.9844C369.508 12.9844 369.774 12.8971 369.987 12.7227C370.201 12.5456 370.36 12.3086 370.464 12.0117C370.571 11.7148 370.624 11.3841 370.624 11.0195C370.624 10.6523 370.571 10.3203 370.464 10.0234C370.36 9.72396 370.201 9.48568 369.987 9.30859C369.774 9.13151 369.508 9.04297 369.19 9.04297C368.865 9.04297 368.594 9.13151 368.378 9.30859C368.164 9.48568 368.004 9.72396 367.897 10.0234C367.793 10.3203 367.741 10.6523 367.741 11.0195C367.741 11.3841 367.793 11.7148 367.897 12.0117C368.004 12.3086 368.164 12.5456 368.378 12.7227C368.594 12.8971 368.865 12.9844 369.19 12.9844ZM378.066 5.78125L378.559 6.69531C378.384 6.84635 378.189 6.95573 377.973 7.02344C377.757 7.09115 377.503 7.13542 377.211 7.15625C376.922 7.17448 376.578 7.1875 376.18 7.19531C375.732 7.20573 375.366 7.29036 375.082 7.44922C374.798 7.60807 374.581 7.84896 374.43 8.17187C374.279 8.49219 374.18 8.90104 374.133 9.39844H374.199C374.387 9.03125 374.65 8.7513 374.988 8.55859C375.327 8.36589 375.724 8.26953 376.18 8.26953C376.677 8.26953 377.116 8.38151 377.496 8.60547C377.879 8.82682 378.177 9.14844 378.391 9.57031C378.607 9.99219 378.715 10.5026 378.715 11.1016C378.715 11.7187 378.599 12.2539 378.367 12.707C378.135 13.1576 377.806 13.5052 377.379 13.75C376.954 13.9948 376.451 14.1172 375.867 14.1172C375.286 14.1172 374.781 13.9909 374.352 13.7383C373.924 13.4831 373.594 13.1068 373.359 12.6094C373.128 12.1094 373.012 11.4935 373.012 10.7617V10.2227C373.012 8.8112 373.275 7.75781 373.801 7.0625C374.327 6.36719 375.107 6.01302 376.141 6C376.448 5.99479 376.723 5.99349 376.965 5.99609C377.21 5.9987 377.423 5.98698 377.605 5.96094C377.788 5.9349 377.941 5.875 378.066 5.78125ZM375.875 12.9844C376.164 12.9844 376.414 12.9102 376.625 12.7617C376.836 12.6107 376.997 12.3971 377.109 12.1211C377.224 11.8451 377.281 11.5182 377.281 11.1406C377.281 10.7682 377.224 10.4518 377.109 10.1914C376.995 9.92839 376.832 9.72786 376.621 9.58984C376.41 9.45182 376.159 9.38281 375.867 9.38281C375.648 9.38281 375.452 9.42187 375.277 9.5C375.103 9.57812 374.954 9.69271 374.832 9.84375C374.71 9.99479 374.616 10.1784 374.551 10.3945C374.486 10.6107 374.451 10.8594 374.445 11.1406C374.445 11.7057 374.573 12.1549 374.828 12.4883C375.083 12.819 375.432 12.9844 375.875 12.9844ZM380.875 9.95312H382.645C383.41 9.95312 384.003 10.1393 384.422 10.5117C384.841 10.8841 385.052 11.3724 385.055 11.9766C385.052 12.3698 384.956 12.7187 384.766 13.0234C384.578 13.3281 384.305 13.5677 383.945 13.7422C383.589 13.9141 383.155 14 382.645 14H379.918V8H381.281V12.8398H382.645C382.952 12.8398 383.204 12.7617 383.402 12.6055C383.6 12.4466 383.699 12.2435 383.699 11.9961C383.699 11.7357 383.6 11.5234 383.402 11.3594C383.204 11.1953 382.952 11.1133 382.645 11.1133H380.875V9.95312ZM385.801 14V8H387.215V14H385.801Z" fill="#F0F0F6"/>
</g>
<g opacity="0.3">
<path d="M9.72803 32.6992H8.26709C8.22542 32.4596 8.1486 32.2474 8.03662 32.0625C7.92464 31.875 7.78532 31.7161 7.61865 31.5859C7.45199 31.4557 7.26188 31.3581 7.04834 31.293C6.8374 31.2253 6.60954 31.1914 6.36475 31.1914C5.92985 31.1914 5.54443 31.3008 5.2085 31.5195C4.87256 31.7357 4.60954 32.0534 4.41943 32.4727C4.22933 32.8893 4.13428 33.3984 4.13428 34C4.13428 34.612 4.22933 35.1276 4.41943 35.5469C4.61214 35.9635 4.87516 36.2786 5.2085 36.4922C5.54443 36.7031 5.92855 36.8086 6.36084 36.8086C6.60042 36.8086 6.82438 36.7773 7.03271 36.7148C7.24365 36.6497 7.43245 36.5547 7.59912 36.4297C7.76839 36.3047 7.91032 36.151 8.0249 35.9687C8.14209 35.7865 8.22282 35.5781 8.26709 35.3437L9.72803 35.3516C9.67334 35.7318 9.55485 36.0885 9.37256 36.4219C9.19287 36.7552 8.95719 37.0495 8.66553 37.3047C8.37386 37.5573 8.03272 37.7552 7.64209 37.8984C7.25146 38.0391 6.81787 38.1094 6.34131 38.1094C5.63818 38.1094 5.01058 37.9466 4.4585 37.6211C3.90641 37.2956 3.47152 36.8255 3.15381 36.2109C2.8361 35.5964 2.67725 34.8594 2.67725 34C2.67725 33.138 2.8374 32.401 3.15771 31.7891C3.47803 31.1745 3.91423 30.7044 4.46631 30.3789C5.01839 30.0534 5.64339 29.8906 6.34131 29.8906C6.78662 29.8906 7.20068 29.9531 7.5835 30.0781C7.96631 30.2031 8.30745 30.3867 8.60693 30.6289C8.90641 30.8685 9.15251 31.1628 9.34522 31.5117C9.54053 31.8581 9.66813 32.2539 9.72803 32.6992ZM10.6646 33.1602V32H15.9146V33.1602H13.9731V38H12.606V33.1602H10.6646ZM18.52 38.1211C18.1398 38.1211 17.7974 38.0534 17.4927 37.918C17.1906 37.7799 16.951 37.5768 16.7739 37.3086C16.5994 37.0404 16.5122 36.7096 16.5122 36.3164C16.5122 35.9779 16.5747 35.6979 16.6997 35.4766C16.8247 35.2552 16.9953 35.0781 17.2114 34.9453C17.4276 34.8125 17.6711 34.7122 17.9419 34.6445C18.2153 34.5742 18.4979 34.5234 18.7896 34.4922C19.1411 34.4557 19.4263 34.4232 19.645 34.3945C19.8638 34.3633 20.0226 34.3164 20.1216 34.2539C20.2231 34.1888 20.2739 34.0885 20.2739 33.9531V33.9297C20.2739 33.6354 20.1867 33.4076 20.0122 33.2461C19.8377 33.0846 19.5864 33.0039 19.2583 33.0039C18.9119 33.0039 18.6372 33.0794 18.4341 33.2305C18.2336 33.3815 18.0981 33.5599 18.0278 33.7656L16.7075 33.5781C16.8117 33.2135 16.9836 32.9089 17.2231 32.6641C17.4627 32.4167 17.7557 32.2318 18.1021 32.1094C18.4484 31.9844 18.8312 31.9219 19.2505 31.9219C19.5396 31.9219 19.8273 31.9557 20.1138 32.0234C20.4002 32.0911 20.6619 32.2031 20.8989 32.3594C21.1359 32.513 21.326 32.7227 21.4692 32.9883C21.6151 33.2539 21.688 33.5859 21.688 33.9844V38H20.3286V37.1758H20.2817C20.1958 37.3424 20.0747 37.4987 19.9185 37.6445C19.7648 37.7878 19.5708 37.9036 19.3364 37.9922C19.1047 38.0781 18.8325 38.1211 18.52 38.1211ZM18.8872 37.082C19.1711 37.082 19.4172 37.026 19.6255 36.9141C19.8338 36.7995 19.994 36.6484 20.106 36.4609C20.2205 36.2734 20.2778 36.069 20.2778 35.8477V35.1406C20.2336 35.1771 20.158 35.2109 20.0513 35.2422C19.9471 35.2734 19.8299 35.3008 19.6997 35.3242C19.5695 35.3477 19.4406 35.3685 19.313 35.3867C19.1854 35.4049 19.0747 35.4206 18.981 35.4336C18.77 35.4622 18.5812 35.5091 18.4146 35.5742C18.2479 35.6393 18.1164 35.7305 18.02 35.8477C17.9237 35.9622 17.8755 36.1107 17.8755 36.293C17.8755 36.5534 17.9705 36.75 18.1606 36.8828C18.3507 37.0156 18.5929 37.082 18.8872 37.082ZM22.438 33.1602V32H27.688V33.1602H25.7466V38H24.3794V33.1602H22.438ZM29.6929 40.25C29.5002 40.25 29.3218 40.2344 29.1577 40.2031C28.9963 40.1745 28.8674 40.1406 28.771 40.1016L29.0991 39C29.3049 39.0599 29.4884 39.0885 29.6499 39.0859C29.8114 39.0833 29.9533 39.0326 30.0757 38.9336C30.2007 38.8372 30.3062 38.6758 30.3921 38.4492L30.5132 38.125L28.3374 32H29.8374L31.2202 36.5312H31.2827L32.6694 32H34.1733L31.771 38.7266C31.659 39.0443 31.5106 39.3164 31.3257 39.543C31.1408 39.7721 30.9142 39.9466 30.646 40.0664C30.3804 40.1888 30.0627 40.25 29.6929 40.25ZM37.5649 38.1172C36.966 38.1172 36.4517 37.9857 36.022 37.7227C35.5949 37.4596 35.2655 37.0964 35.0337 36.6328C34.8045 36.1667 34.6899 35.6302 34.6899 35.0234C34.6899 34.4141 34.8071 33.8763 35.0415 33.4102C35.2759 32.9414 35.6066 32.5768 36.0337 32.3164C36.4634 32.0534 36.9712 31.9219 37.5571 31.9219C38.0441 31.9219 38.4751 32.0117 38.8501 32.1914C39.2277 32.3685 39.5285 32.6198 39.7524 32.9453C39.9764 33.2682 40.104 33.6458 40.1353 34.0781H38.7837C38.729 33.7891 38.5988 33.5482 38.3931 33.3555C38.1899 33.1602 37.9178 33.0625 37.5767 33.0625C37.2876 33.0625 37.0337 33.1406 36.8149 33.2969C36.5962 33.4505 36.4256 33.6719 36.3032 33.9609C36.1834 34.25 36.1235 34.5964 36.1235 35C36.1235 35.4089 36.1834 35.7604 36.3032 36.0547C36.423 36.3464 36.591 36.5716 36.8071 36.7305C37.0259 36.8867 37.2824 36.9648 37.5767 36.9648C37.785 36.9648 37.9712 36.9258 38.1353 36.8477C38.3019 36.7669 38.4412 36.651 38.5532 36.5C38.6652 36.349 38.742 36.1654 38.7837 35.9492H40.1353C40.1014 36.3737 39.9764 36.75 39.7603 37.0781C39.5441 37.4036 39.2498 37.6589 38.8774 37.8437C38.505 38.026 38.0675 38.1172 37.5649 38.1172ZM44.0249 38V32H49.0913V38H47.728V33.1602H45.3765V38H44.0249ZM50.5454 40.25V32H51.936V32.9922H52.0181C52.091 32.8464 52.1938 32.6914 52.3267 32.5273C52.4595 32.3607 52.6392 32.2187 52.8657 32.1016C53.0923 31.9818 53.3813 31.9219 53.7329 31.9219C54.1965 31.9219 54.6144 32.0404 54.9868 32.2773C55.3618 32.5117 55.6587 32.8594 55.8774 33.3203C56.0988 33.7786 56.2095 34.3411 56.2095 35.0078C56.2095 35.6667 56.1014 36.2266 55.8853 36.6875C55.6691 37.1484 55.3748 37.5 55.0024 37.7422C54.63 37.9844 54.2082 38.1055 53.7368 38.1055C53.3931 38.1055 53.1079 38.0482 52.8813 37.9336C52.6548 37.819 52.4725 37.681 52.3345 37.5195C52.1991 37.3555 52.0936 37.2005 52.0181 37.0547H51.9595V40.25H50.5454ZM51.9321 35C51.9321 35.388 51.9868 35.7279 52.0962 36.0195C52.2082 36.3112 52.3683 36.5391 52.5767 36.7031C52.7876 36.8646 53.0428 36.9453 53.3423 36.9453C53.6548 36.9453 53.9165 36.862 54.1274 36.6953C54.3384 36.526 54.4972 36.2956 54.604 36.0039C54.7134 35.7096 54.7681 35.375 54.7681 35C54.7681 34.6276 54.7147 34.2969 54.6079 34.0078C54.5011 33.7187 54.3423 33.4922 54.1313 33.3281C53.9204 33.1641 53.6574 33.082 53.3423 33.082C53.0402 33.082 52.7837 33.1615 52.5728 33.3203C52.3618 33.4792 52.2017 33.7018 52.0923 33.9883C51.9855 34.2747 51.9321 34.612 51.9321 35ZM58.7837 36.0859L61.186 32H62.6392V38H61.272V33.9102L58.8774 38H57.4204V32H58.7837V36.0859ZM68.8999 29.7812L69.3921 30.6953C69.2176 30.8464 69.0223 30.9557 68.8062 31.0234C68.59 31.0911 68.3361 31.1354 68.0444 31.1562C67.7554 31.1745 67.4116 31.1875 67.0132 31.1953C66.5653 31.2057 66.1994 31.2904 65.9155 31.4492C65.6317 31.6081 65.4142 31.849 65.2632 32.1719C65.1121 32.4922 65.0132 32.901 64.9663 33.3984H65.0327C65.2202 33.0312 65.4832 32.7513 65.8218 32.5586C66.1603 32.3659 66.5575 32.2695 67.0132 32.2695C67.5106 32.2695 67.9494 32.3815 68.3296 32.6055C68.7124 32.8268 69.0106 33.1484 69.2241 33.5703C69.4403 33.9922 69.5483 34.5026 69.5483 35.1016C69.5483 35.7187 69.4325 36.2539 69.2007 36.707C68.9689 37.1576 68.6395 37.5052 68.2124 37.75C67.7879 37.9948 67.284 38.1172 66.7007 38.1172C66.12 38.1172 65.6147 37.9909 65.1851 37.7383C64.758 37.4831 64.4272 37.1068 64.1929 36.6094C63.9611 36.1094 63.8452 35.4935 63.8452 34.7617V34.2227C63.8452 32.8112 64.1082 31.7578 64.6343 31.0625C65.1603 30.3672 65.9403 30.013 66.9741 30C67.2814 29.9948 67.5562 29.9935 67.7983 29.9961C68.0431 29.9987 68.2567 29.987 68.439 29.9609C68.6213 29.9349 68.7749 29.875 68.8999 29.7812ZM66.7085 36.9844C66.9976 36.9844 67.2476 36.9102 67.4585 36.7617C67.6694 36.6107 67.8309 36.3971 67.9429 36.1211C68.0575 35.8451 68.1147 35.5182 68.1147 35.1406C68.1147 34.7682 68.0575 34.4518 67.9429 34.1914C67.8283 33.9284 67.6655 33.7279 67.4546 33.5898C67.2437 33.4518 66.9924 33.3828 66.7007 33.3828C66.4819 33.3828 66.2853 33.4219 66.1108 33.5C65.9364 33.5781 65.7879 33.6927 65.6655 33.8438C65.5431 33.9948 65.4494 34.1784 65.3843 34.3945C65.3192 34.6107 65.284 34.8594 65.2788 35.1406C65.2788 35.7057 65.4064 36.1549 65.6616 36.4883C65.9168 36.819 66.2658 36.9844 66.7085 36.9844ZM73.3687 38.1172C72.7827 38.1172 72.2749 37.9883 71.8452 37.7305C71.4155 37.4727 71.0822 37.112 70.8452 36.6484C70.6108 36.1849 70.4937 35.6432 70.4937 35.0234C70.4937 34.4036 70.6108 33.8607 70.8452 33.3945C71.0822 32.9284 71.4155 32.5664 71.8452 32.3086C72.2749 32.0508 72.7827 31.9219 73.3687 31.9219C73.9546 31.9219 74.4624 32.0508 74.8921 32.3086C75.3218 32.5664 75.6538 32.9284 75.8882 33.3945C76.1252 33.8607 76.2437 34.4036 76.2437 35.0234C76.2437 35.6432 76.1252 36.1849 75.8882 36.6484C75.6538 37.112 75.3218 37.4727 74.8921 37.7305C74.4624 37.9883 73.9546 38.1172 73.3687 38.1172ZM73.3765 36.9844C73.6942 36.9844 73.9598 36.8971 74.1733 36.7227C74.3869 36.5456 74.5457 36.3086 74.6499 36.0117C74.7567 35.7148 74.8101 35.3841 74.8101 35.0195C74.8101 34.6523 74.7567 34.3203 74.6499 34.0234C74.5457 33.724 74.3869 33.4857 74.1733 33.3086C73.9598 33.1315 73.6942 33.043 73.3765 33.043C73.0509 33.043 72.7801 33.1315 72.564 33.3086C72.3504 33.4857 72.1903 33.724 72.0835 34.0234C71.9793 34.3203 71.9272 34.6523 71.9272 35.0195C71.9272 35.3841 71.9793 35.7148 72.0835 36.0117C72.1903 36.3086 72.3504 36.5456 72.564 36.7227C72.7801 36.8971 73.0509 36.9844 73.3765 36.9844ZM77.4438 40.25V32H78.8345V32.9922H78.9165C78.9894 32.8464 79.0923 32.6914 79.2251 32.5273C79.3579 32.3607 79.5376 32.2187 79.7642 32.1016C79.9907 31.9818 80.2798 31.9219 80.6313 31.9219C81.0949 31.9219 81.5129 32.0404 81.8853 32.2773C82.2603 32.5117 82.5571 32.8594 82.7759 33.3203C82.9972 33.7786 83.1079 34.3411 83.1079 35.0078C83.1079 35.6667 82.9998 36.2266 82.7837 36.6875C82.5675 37.1484 82.2733 37.5 81.9009 37.7422C81.5285 37.9844 81.1066 38.1055 80.6353 38.1055C80.2915 38.1055 80.0063 38.0482 79.7798 37.9336C79.5532 37.819 79.3709 37.681 79.2329 37.5195C79.0975 37.3555 78.992 37.2005 78.9165 37.0547H78.8579V40.25H77.4438ZM78.8306 35C78.8306 35.388 78.8853 35.7279 78.9946 36.0195C79.1066 36.3112 79.2668 36.5391 79.4751 36.7031C79.686 36.8646 79.9412 36.9453 80.2407 36.9453C80.5532 36.9453 80.8149 36.862 81.0259 36.6953C81.2368 36.526 81.3957 36.2956 81.5024 36.0039C81.6118 35.7096 81.6665 35.375 81.6665 35C81.6665 34.6276 81.6131 34.2969 81.5063 34.0078C81.3996 33.7187 81.2407 33.4922 81.0298 33.3281C80.8188 33.1641 80.5558 33.082 80.2407 33.082C79.9386 33.082 79.6821 33.1615 79.4712 33.3203C79.2603 33.4792 79.1001 33.7018 78.9907 33.9883C78.884 34.2747 78.8306 34.612 78.8306 35ZM86.0454 38.1211C85.6652 38.1211 85.3228 38.0534 85.0181 37.918C84.716 37.7799 84.4764 37.5768 84.2993 37.3086C84.1248 37.0404 84.0376 36.7096 84.0376 36.3164C84.0376 35.9779 84.1001 35.6979 84.2251 35.4766C84.3501 35.2552 84.5207 35.0781 84.7368 34.9453C84.953 34.8125 85.1965 34.7122 85.4673 34.6445C85.7407 34.5742 86.0233 34.5234 86.3149 34.4922C86.6665 34.4557 86.9517 34.4232 87.1704 34.3945C87.3892 34.3633 87.548 34.3164 87.647 34.2539C87.7485 34.1888 87.7993 34.0885 87.7993 33.9531V33.9297C87.7993 33.6354 87.7121 33.4076 87.5376 33.2461C87.3631 33.0846 87.1118 33.0039 86.7837 33.0039C86.4373 33.0039 86.1626 33.0794 85.9595 33.2305C85.759 33.3815 85.6235 33.5599 85.5532 33.7656L84.2329 33.5781C84.3371 33.2135 84.509 32.9089 84.7485 32.6641C84.9881 32.4167 85.2811 32.2318 85.6274 32.1094C85.9738 31.9844 86.3566 31.9219 86.7759 31.9219C87.0649 31.9219 87.3527 31.9557 87.6392 32.0234C87.9256 32.0911 88.1873 32.2031 88.4243 32.3594C88.6613 32.513 88.8514 32.7227 88.9946 32.9883C89.1405 33.2539 89.2134 33.5859 89.2134 33.9844V38H87.854V37.1758H87.8071C87.7212 37.3424 87.6001 37.4987 87.4438 37.6445C87.2902 37.7878 87.0962 37.9036 86.8618 37.9922C86.63 38.0781 86.3579 38.1211 86.0454 38.1211ZM86.4126 37.082C86.6965 37.082 86.9425 37.026 87.1509 36.9141C87.3592 36.7995 87.5194 36.6484 87.6313 36.4609C87.7459 36.2734 87.8032 36.069 87.8032 35.8477V35.1406C87.759 35.1771 87.6834 35.2109 87.5767 35.2422C87.4725 35.2734 87.3553 35.3008 87.2251 35.3242C87.0949 35.3477 86.966 35.3685 86.8384 35.3867C86.7108 35.4049 86.6001 35.4206 86.5063 35.4336C86.2954 35.4622 86.1066 35.5091 85.9399 35.5742C85.7733 35.6393 85.6418 35.7305 85.5454 35.8477C85.4491 35.9622 85.4009 36.1107 85.4009 36.293C85.4009 36.5534 85.4959 36.75 85.686 36.8828C85.8761 37.0156 86.1183 37.082 86.4126 37.082Z" fill="#F0F0F6"/>
</g>
<g opacity="0.3">
<path d="M137.936 32.6992H136.475C136.433 32.4596 136.357 32.2474 136.245 32.0625C136.133 31.875 135.993 31.7161 135.827 31.5859C135.66 31.4557 135.47 31.3581 135.256 31.293C135.045 31.2253 134.818 31.1914 134.573 31.1914C134.138 31.1914 133.752 31.3008 133.417 31.5195C133.081 31.7357 132.818 32.0534 132.627 32.4727C132.437 32.8893 132.342 33.3984 132.342 34C132.342 34.612 132.437 35.1276 132.627 35.5469C132.82 35.9635 133.083 36.2786 133.417 36.4922C133.752 36.7031 134.137 36.8086 134.569 36.8086C134.808 36.8086 135.032 36.7773 135.241 36.7148C135.452 36.6497 135.64 36.5547 135.807 36.4297C135.976 36.3047 136.118 36.151 136.233 35.9687C136.35 35.7865 136.431 35.5781 136.475 35.3437L137.936 35.3516C137.881 35.7318 137.763 36.0885 137.581 36.4219C137.401 36.7552 137.165 37.0495 136.874 37.3047C136.582 37.5573 136.241 37.7552 135.85 37.8984C135.459 38.0391 135.026 38.1094 134.549 38.1094C133.846 38.1094 133.219 37.9466 132.667 37.6211C132.114 37.2956 131.68 36.8255 131.362 36.2109C131.044 35.5964 130.885 34.8594 130.885 34C130.885 33.138 131.045 32.401 131.366 31.7891C131.686 31.1745 132.122 30.7044 132.674 30.3789C133.226 30.0534 133.851 29.8906 134.549 29.8906C134.995 29.8906 135.409 29.9531 135.792 30.0781C136.174 30.2031 136.515 30.3867 136.815 30.6289C137.114 30.8685 137.361 31.1628 137.553 31.5117C137.749 31.8581 137.876 32.2539 137.936 32.6992ZM139.201 38V32H144.267V38H142.904V33.1602H140.552V38H139.201ZM148.377 38.1172C147.776 38.1172 147.256 37.9922 146.819 37.7422C146.384 37.4896 146.049 37.1328 145.815 36.6719C145.581 36.2083 145.463 35.6628 145.463 35.0352C145.463 34.418 145.581 33.8763 145.815 33.4102C146.052 32.9414 146.383 32.5768 146.807 32.3164C147.232 32.0534 147.73 31.9219 148.303 31.9219C148.673 31.9219 149.022 31.9818 149.35 32.1016C149.681 32.2187 149.972 32.401 150.225 32.6484C150.48 32.8958 150.681 33.2109 150.827 33.5937C150.972 33.974 151.045 34.4271 151.045 34.9531V35.3867H146.127V34.4336H149.69C149.687 34.1628 149.629 33.9219 149.514 33.7109C149.4 33.4974 149.239 33.3294 149.034 33.207C148.831 33.0846 148.594 33.0234 148.323 33.0234C148.034 33.0234 147.78 33.0937 147.561 33.2344C147.342 33.3724 147.172 33.5547 147.049 33.7812C146.93 34.0052 146.868 34.2513 146.866 34.5195V35.3516C146.866 35.7005 146.93 36 147.057 36.25C147.185 36.4974 147.363 36.6875 147.592 36.8203C147.821 36.9505 148.09 37.0156 148.397 37.0156C148.603 37.0156 148.789 36.987 148.956 36.9297C149.122 36.8698 149.267 36.7826 149.389 36.668C149.512 36.5534 149.604 36.4115 149.667 36.2422L150.987 36.3906C150.903 36.7396 150.745 37.0443 150.51 37.3047C150.278 37.5625 149.982 37.763 149.62 37.9062C149.258 38.0469 148.844 38.1172 148.377 38.1172ZM152.242 38V32H153.656V34.4219H154.171L155.976 32H157.679L155.457 34.9453L157.703 38H155.992L154.347 35.7383H153.656V38H152.242ZM158.176 33.1602V32H163.426V33.1602H161.485V38H160.118V33.1602H158.176ZM164.552 40.25V32H165.943V32.9922H166.025C166.098 32.8464 166.201 32.6914 166.333 32.5273C166.466 32.3607 166.646 32.2187 166.873 32.1016C167.099 31.9818 167.388 31.9219 167.74 31.9219C168.203 31.9219 168.621 32.0404 168.994 32.2773C169.369 32.5117 169.666 32.8594 169.884 33.3203C170.106 33.7786 170.216 34.3411 170.216 35.0078C170.216 35.6667 170.108 36.2266 169.892 36.6875C169.676 37.1484 169.382 37.5 169.009 37.7422C168.637 37.9844 168.215 38.1055 167.744 38.1055C167.4 38.1055 167.115 38.0482 166.888 37.9336C166.662 37.819 166.479 37.681 166.341 37.5195C166.206 37.3555 166.1 37.2005 166.025 37.0547H165.966V40.25H164.552ZM165.939 35C165.939 35.388 165.994 35.7279 166.103 36.0195C166.215 36.3112 166.375 36.5391 166.583 36.7031C166.794 36.8646 167.05 36.9453 167.349 36.9453C167.662 36.9453 167.923 36.862 168.134 36.6953C168.345 36.526 168.504 36.2956 168.611 36.0039C168.72 35.7096 168.775 35.375 168.775 35C168.775 34.6276 168.722 34.2969 168.615 34.0078C168.508 33.7187 168.349 33.4922 168.138 33.3281C167.927 33.1641 167.664 33.082 167.349 33.082C167.047 33.082 166.791 33.1615 166.58 33.3203C166.369 33.4792 166.208 33.7018 166.099 33.9883C165.992 34.2747 165.939 34.612 165.939 35Z" fill="#F0F0F6"/>
</g>
<g opacity="0.3">
<path d="M10.2158 58C10.2158 58.862 10.0544 59.6003 9.73145 60.2148C9.41113 60.8268 8.97363 61.2956 8.41895 61.6211C7.86686 61.9466 7.24056 62.1094 6.54004 62.1094C5.83952 62.1094 5.21191 61.9466 4.65723 61.6211C4.10514 61.293 3.66764 60.8229 3.34473 60.2109C3.02441 59.5964 2.86426 58.8594 2.86426 58C2.86426 57.138 3.02441 56.401 3.34473 55.7891C3.66764 55.1745 4.10514 54.7044 4.65723 54.3789C5.21191 54.0534 5.83952 53.8906 6.54004 53.8906C7.24056 53.8906 7.86686 54.0534 8.41895 54.3789C8.97363 54.7044 9.41113 55.1745 9.73145 55.7891C10.0544 56.401 10.2158 57.138 10.2158 58ZM8.75879 58C8.75879 57.3932 8.66374 56.8815 8.47363 56.4648C8.28613 56.0456 8.02572 55.7292 7.69238 55.5156C7.35905 55.2995 6.97494 55.1914 6.54004 55.1914C6.10514 55.1914 5.72103 55.2995 5.3877 55.5156C5.05436 55.7292 4.79264 56.0456 4.60254 56.4648C4.41504 56.8815 4.32129 57.3932 4.32129 58C4.32129 58.6068 4.41504 59.1198 4.60254 59.5391C4.79264 59.9557 5.05436 60.2721 5.3877 60.4883C5.72103 60.7018 6.10514 60.8086 6.54004 60.8086C6.97494 60.8086 7.35905 60.7018 7.69238 60.4883C8.02572 60.2721 8.28613 59.9557 8.47363 59.5391C8.66374 59.1198 8.75879 58.6068 8.75879 58ZM16.5352 56V62H15.1758V56H16.5352ZM15.8984 58.7109V59.8672C15.7448 59.9349 15.5703 59.9961 15.375 60.0508C15.1823 60.1029 14.9779 60.1445 14.7617 60.1758C14.5482 60.207 14.3346 60.2227 14.1211 60.2227C13.319 60.2227 12.6849 60.043 12.2188 59.6836C11.7552 59.3216 11.5234 58.7578 11.5234 57.9922V55.9922H12.875V57.9922C12.875 58.25 12.9206 58.457 13.0117 58.6133C13.1029 58.7695 13.2409 58.8841 13.4258 58.957C13.6107 59.0273 13.8424 59.0625 14.1211 59.0625C14.4336 59.0625 14.7305 59.0312 15.0117 58.9687C15.293 58.9062 15.5885 58.8203 15.8984 58.7109ZM20.6143 62.1172C20.0127 62.1172 19.4932 61.9922 19.0557 61.7422C18.6208 61.4896 18.2861 61.1328 18.0518 60.6719C17.8174 60.2083 17.7002 59.6628 17.7002 59.0352C17.7002 58.418 17.8174 57.8763 18.0518 57.4102C18.2887 56.9414 18.6195 56.5768 19.0439 56.3164C19.4684 56.0534 19.9671 55.9219 20.54 55.9219C20.9098 55.9219 21.2588 55.9818 21.5869 56.1016C21.9176 56.2187 22.2093 56.401 22.4619 56.6484C22.7171 56.8958 22.9176 57.2109 23.0635 57.5937C23.2093 57.974 23.2822 58.4271 23.2822 58.9531V59.3867H18.3643V58.4336H21.9268C21.9242 58.1628 21.8656 57.9219 21.751 57.7109C21.6364 57.4974 21.4762 57.3294 21.2705 57.207C21.0674 57.0846 20.8304 57.0234 20.5596 57.0234C20.2705 57.0234 20.0166 57.0937 19.7979 57.2344C19.5791 57.3724 19.4085 57.5547 19.2861 57.7812C19.1663 58.0052 19.1051 58.2513 19.1025 58.5195V59.3516C19.1025 59.7005 19.1663 60 19.2939 60.25C19.4215 60.4974 19.5999 60.6875 19.8291 60.8203C20.0583 60.9505 20.3265 61.0156 20.6338 61.0156C20.8395 61.0156 21.0257 60.987 21.1924 60.9297C21.359 60.8698 21.5036 60.7826 21.626 60.668C21.7484 60.5534 21.8408 60.4115 21.9033 60.2422L23.2236 60.3906C23.1403 60.7396 22.9814 61.0443 22.7471 61.3047C22.5153 61.5625 22.2184 61.763 21.8564 61.9062C21.4945 62.0469 21.0804 62.1172 20.6143 62.1172ZM24.4785 64.25V56H25.8691V56.9922H25.9512C26.0241 56.8464 26.127 56.6914 26.2598 56.5273C26.3926 56.3607 26.5723 56.2187 26.7988 56.1016C27.0254 55.9818 27.3145 55.9219 27.666 55.9219C28.1296 55.9219 28.5475 56.0404 28.9199 56.2773C29.2949 56.5117 29.5918 56.8594 29.8105 57.3203C30.0319 57.7786 30.1426 58.3411 30.1426 59.0078C30.1426 59.6667 30.0345 60.2266 29.8184 60.6875C29.6022 61.1484 29.3079 61.5 28.9355 61.7422C28.5632 61.9844 28.1413 62.1055 27.6699 62.1055C27.3262 62.1055 27.041 62.0482 26.8145 61.9336C26.5879 61.819 26.4056 61.681 26.2676 61.5195C26.1322 61.3555 26.0267 61.2005 25.9512 61.0547H25.8926V64.25H24.4785ZM25.8652 59C25.8652 59.388 25.9199 59.7279 26.0293 60.0195C26.1413 60.3112 26.3014 60.5391 26.5098 60.7031C26.7207 60.8646 26.9759 60.9453 27.2754 60.9453C27.5879 60.9453 27.8496 60.862 28.0605 60.6953C28.2715 60.526 28.4303 60.2956 28.5371 60.0039C28.6465 59.7096 28.7012 59.375 28.7012 59C28.7012 58.6276 28.6478 58.2969 28.541 58.0078C28.4342 57.7187 28.2754 57.4922 28.0645 57.3281C27.8535 57.1641 27.5905 57.082 27.2754 57.082C26.9733 57.082 26.7168 57.1615 26.5059 57.3203C26.2949 57.4792 26.1348 57.7018 26.0254 57.9883C25.9186 58.2747 25.8652 58.612 25.8652 59ZM34.0098 62.1172C33.4082 62.1172 32.8887 61.9922 32.4512 61.7422C32.0163 61.4896 31.6816 61.1328 31.4473 60.6719C31.2129 60.2083 31.0957 59.6628 31.0957 59.0352C31.0957 58.418 31.2129 57.8763 31.4473 57.4102C31.6842 56.9414 32.015 56.5768 32.4395 56.3164C32.8639 56.0534 33.3626 55.9219 33.9355 55.9219C34.3053 55.9219 34.6543 55.9818 34.9824 56.1016C35.3132 56.2187 35.6048 56.401 35.8574 56.6484C36.1126 56.8958 36.3132 57.2109 36.459 57.5937C36.6048 57.974 36.6777 58.4271 36.6777 58.9531V59.3867H31.7598V58.4336H35.3223C35.3197 58.1628 35.2611 57.9219 35.1465 57.7109C35.0319 57.4974 34.8717 57.3294 34.666 57.207C34.4629 57.0846 34.2259 57.0234 33.9551 57.0234C33.666 57.0234 33.4121 57.0937 33.1934 57.2344C32.9746 57.3724 32.804 57.5547 32.6816 57.7812C32.5618 58.0052 32.5007 58.2513 32.498 58.5195V59.3516C32.498 59.7005 32.5618 60 32.6895 60.25C32.8171 60.4974 32.9954 60.6875 33.2246 60.8203C33.4538 60.9505 33.722 61.0156 34.0293 61.0156C34.235 61.0156 34.4212 60.987 34.5879 60.9297C34.7546 60.8698 34.8991 60.7826 35.0215 60.668C35.1439 60.5534 35.2363 60.4115 35.2988 60.2422L36.6191 60.3906C36.5358 60.7396 36.377 61.0443 36.1426 61.3047C35.9108 61.5625 35.6139 61.763 35.252 61.9062C34.89 62.0469 34.4759 62.1172 34.0098 62.1172ZM37.3428 63.7422V60.8359H37.8193C37.9469 60.737 38.0537 60.6029 38.1396 60.4336C38.2256 60.2617 38.2959 60.0599 38.3506 59.8281C38.4079 59.5937 38.4548 59.332 38.4912 59.043C38.5277 58.7513 38.5602 58.4375 38.5889 58.1016L38.7607 56H43.0967V60.8359H44.0264V63.7422H42.6592V62H38.7334V63.7422H37.3428ZM39.2725 60.8359H41.7451V57.1406H39.9873L39.8936 58.1016C39.8415 58.737 39.7725 59.2812 39.6865 59.7344C39.6006 60.1875 39.4626 60.5547 39.2725 60.8359ZM46.0391 57.9531H47.8086C48.5742 57.9531 49.1667 58.1393 49.5859 58.5117C50.0052 58.8841 50.2161 59.3724 50.2187 59.9766C50.2161 60.3698 50.1198 60.7187 49.9297 61.0234C49.7422 61.3281 49.4688 61.5677 49.1094 61.7422C48.7526 61.9141 48.319 62 47.8086 62H45.082V56H46.4453V60.8398H47.8086C48.1159 60.8398 48.3685 60.7617 48.5664 60.6055C48.7643 60.4466 48.8633 60.2435 48.8633 59.9961C48.8633 59.7357 48.7643 59.5234 48.5664 59.3594C48.3685 59.1953 48.1159 59.1133 47.8086 59.1133H46.0391V57.9531ZM54.1592 62V56H56.6787C57.3896 56 57.9508 56.1419 58.3623 56.4258C58.7764 56.7096 58.9834 57.1055 58.9834 57.6133C58.9834 57.9492 58.8662 58.224 58.6318 58.4375C58.4001 58.6484 58.0837 58.7904 57.6826 58.8633C57.9977 58.8893 58.2738 58.9687 58.5107 59.1016C58.7503 59.2344 58.9378 59.4089 59.0732 59.625C59.2087 59.8411 59.2764 60.0898 59.2764 60.3711C59.2764 60.7018 59.1891 60.9896 59.0146 61.2344C58.8428 61.4766 58.5915 61.6654 58.2607 61.8008C57.9326 61.9336 57.5342 62 57.0654 62H54.1592ZM55.4834 60.8867H57.0654C57.3258 60.8867 57.5303 60.8255 57.6787 60.7031C57.8271 60.5781 57.9014 60.4089 57.9014 60.1953C57.9014 59.9479 57.8271 59.7539 57.6787 59.6133C57.5303 59.4701 57.3258 59.3984 57.0654 59.3984H55.4834V60.8867ZM55.4834 58.4844H56.7061C56.8988 58.4844 57.0641 58.457 57.2021 58.4023C57.3402 58.3451 57.4456 58.2656 57.5186 58.1641C57.5915 58.0599 57.6279 57.9362 57.6279 57.793C57.6279 57.5872 57.5433 57.4258 57.374 57.3086C57.2074 57.1914 56.9756 57.1328 56.6787 57.1328H55.4834V58.4844ZM61.4004 57.9531H63.1699C63.9355 57.9531 64.528 58.1393 64.9473 58.5117C65.3665 58.8841 65.5775 59.3724 65.5801 59.9766C65.5775 60.3698 65.4811 60.7187 65.291 61.0234C65.1035 61.3281 64.8301 61.5677 64.4707 61.7422C64.1139 61.9141 63.6803 62 63.1699 62H60.4434V56H61.8066V60.8398H63.1699C63.4772 60.8398 63.7298 60.7617 63.9277 60.6055C64.1257 60.4466 64.2246 60.2435 64.2246 59.9961C64.2246 59.7357 64.1257 59.5234 63.9277 59.3594C63.7298 59.1953 63.4772 59.1133 63.1699 59.1133H61.4004V57.9531ZM66.3262 62V56H67.7402V62H66.3262ZM69.1982 62V56H74.2646V62H72.9014V57.1602H70.5498V62H69.1982ZM78.3359 62.1172C77.75 62.1172 77.2422 61.9883 76.8125 61.7305C76.3828 61.4727 76.0495 61.112 75.8125 60.6484C75.5781 60.1849 75.4609 59.6432 75.4609 59.0234C75.4609 58.4036 75.5781 57.8607 75.8125 57.3945C76.0495 56.9284 76.3828 56.5664 76.8125 56.3086C77.2422 56.0508 77.75 55.9219 78.3359 55.9219C78.9219 55.9219 79.4297 56.0508 79.8594 56.3086C80.2891 56.5664 80.6211 56.9284 80.8555 57.3945C81.0924 57.8607 81.2109 58.4036 81.2109 59.0234C81.2109 59.6432 81.0924 60.1849 80.8555 60.6484C80.6211 61.112 80.2891 61.4727 79.8594 61.7305C79.4297 61.9883 78.9219 62.1172 78.3359 62.1172ZM78.3438 60.9844C78.6615 60.9844 78.9271 60.8971 79.1406 60.7227C79.3542 60.5456 79.513 60.3086 79.6172 60.0117C79.724 59.7148 79.7773 59.3841 79.7773 59.0195C79.7773 58.6523 79.724 58.3203 79.6172 58.0234C79.513 57.724 79.3542 57.4857 79.1406 57.3086C78.9271 57.1315 78.6615 57.043 78.3438 57.043C78.0182 57.043 77.7474 57.1315 77.5313 57.3086C77.3177 57.4857 77.1576 57.724 77.0508 58.0234C76.9466 58.3203 76.8945 58.6523 76.8945 59.0195C76.8945 59.3841 76.9466 59.7148 77.0508 60.0117C77.1576 60.3086 77.3177 60.5456 77.5313 60.7227C77.7474 60.8971 78.0182 60.9844 78.3438 60.9844ZM81.9971 62L81.9893 60.8359H82.1963C82.3525 60.8359 82.484 60.8008 82.5908 60.7305C82.6976 60.6602 82.7861 60.543 82.8564 60.3789C82.9268 60.2122 82.9814 59.9883 83.0205 59.707C83.0596 59.4258 83.0869 59.0755 83.1025 58.6562L83.208 56H87.583V62H86.2158V57.1602H84.4932L84.3994 59.0937C84.376 59.5937 84.32 60.0273 84.2314 60.3945C84.1455 60.7591 84.0231 61.0599 83.8643 61.2969C83.708 61.5339 83.5114 61.7109 83.2744 61.8281C83.0374 61.9427 82.7575 62 82.4346 62H81.9971ZM93.1279 58.4141V59.5742H89.9326V58.4141H93.1279ZM90.3701 56V62H89.0068V56H90.3701ZM94.0537 56V62H92.6943V56H94.0537ZM98.1406 62.1172C97.5391 62.1172 97.0195 61.9922 96.582 61.7422C96.1471 61.4896 95.8125 61.1328 95.5781 60.6719C95.3438 60.2083 95.2266 59.6628 95.2266 59.0352C95.2266 58.418 95.3438 57.8763 95.5781 57.4102C95.8151 56.9414 96.1458 56.5768 96.5703 56.3164C96.9948 56.0534 97.4935 55.9219 98.0664 55.9219C98.4362 55.9219 98.7852 55.9818 99.1133 56.1016C99.444 56.2187 99.7357 56.401 99.9883 56.6484C100.243 56.8958 100.444 57.2109 100.59 57.5937C100.736 57.974 100.809 58.4271 100.809 58.9531V59.3867H95.8906V58.4336H99.4531C99.4505 58.1628 99.3919 57.9219 99.2773 57.7109C99.1628 57.4974 99.0026 57.3294 98.7969 57.207C98.5938 57.0846 98.3568 57.0234 98.0859 57.0234C97.7969 57.0234 97.543 57.0937 97.3242 57.2344C97.1055 57.3724 96.9349 57.5547 96.8125 57.7812C96.6927 58.0052 96.6315 58.2513 96.6289 58.5195V59.3516C96.6289 59.7005 96.6927 60 96.8203 60.25C96.9479 60.4974 97.1263 60.6875 97.3555 60.8203C97.5846 60.9505 97.8529 61.0156 98.1602 61.0156C98.3659 61.0156 98.5521 60.987 98.7188 60.9297C98.8854 60.8698 99.0299 60.7826 99.1523 60.668C99.2747 60.5534 99.3672 60.4115 99.4297 60.2422L100.75 60.3906C100.667 60.7396 100.508 61.0443 100.273 61.3047C100.042 61.5625 99.7448 61.763 99.3828 61.9062C99.0208 62.0469 98.6068 62.1172 98.1406 62.1172ZM106.126 58.4141V59.5742H102.931V58.4141H106.126ZM103.368 56V62H102.005V56H103.368ZM107.052 56V62H105.692V56H107.052ZM109.846 60.0859L112.248 56H113.701V62H112.334V57.9102L109.939 62H108.482V56H109.846V60.0859ZM118.7 62V57.1484H117.419C117.093 57.1484 116.843 57.224 116.669 57.375C116.494 57.526 116.409 57.7135 116.411 57.9375C116.409 58.1615 116.491 58.3464 116.657 58.4922C116.824 58.638 117.062 58.7109 117.372 58.7109H119.146V59.7422H117.372C116.893 59.7422 116.479 59.6667 116.13 59.5156C115.781 59.3646 115.513 59.151 115.325 58.875C115.138 58.599 115.044 58.276 115.044 57.9062C115.044 57.5208 115.139 57.1862 115.329 56.9023C115.522 56.6159 115.795 56.3945 116.149 56.2383C116.506 56.0794 116.929 56 117.419 56H120.024V62H118.7ZM114.825 62L116.501 58.9219H117.896L116.216 62H114.825Z" fill="#F0F0F6"/>
</g>
<g opacity="0.3">
<rect width="133" height="20" transform="translate(128 48)" fill="#2C5B9D"/>
<path d="M139.897 56.6992H138.437C138.395 56.4596 138.318 56.2474 138.206 56.0625C138.094 55.875 137.955 55.7161 137.788 55.5859C137.621 55.4557 137.431 55.3581 137.218 55.293C137.007 55.2253 136.779 55.1914 136.534 55.1914C136.099 55.1914 135.714 55.3008 135.378 55.5195C135.042 55.7357 134.779 56.0534 134.589 56.4727C134.399 56.8893 134.304 57.3984 134.304 58C134.304 58.612 134.399 59.1276 134.589 59.5469C134.782 59.9635 135.045 60.2786 135.378 60.4922C135.714 60.7031 136.098 60.8086 136.53 60.8086C136.77 60.8086 136.994 60.7773 137.202 60.7148C137.413 60.6497 137.602 60.5547 137.769 60.4297C137.938 60.3047 138.08 60.151 138.194 59.9687C138.312 59.7865 138.392 59.5781 138.437 59.3437L139.897 59.3516C139.843 59.7318 139.724 60.0885 139.542 60.4219C139.362 60.7552 139.127 61.0495 138.835 61.3047C138.543 61.5573 138.202 61.7552 137.812 61.8984C137.421 62.0391 136.987 62.1094 136.511 62.1094C135.808 62.1094 135.18 61.9466 134.628 61.6211C134.076 61.2956 133.641 60.8255 133.323 60.2109C133.006 59.5964 132.847 58.8594 132.847 58C132.847 57.138 133.007 56.401 133.327 55.7891C133.647 55.1745 134.084 54.7044 134.636 54.3789C135.188 54.0534 135.813 53.8906 136.511 53.8906C136.956 53.8906 137.37 53.9531 137.753 54.0781C138.136 54.2031 138.477 54.3867 138.776 54.6289C139.076 54.8685 139.322 55.1628 139.515 55.5117C139.71 55.8581 139.838 56.2539 139.897 56.6992ZM140.834 57.1602V56H146.084V57.1602H144.143V62H142.775V57.1602H140.834ZM148.689 62.1211C148.309 62.1211 147.967 62.0534 147.662 61.918C147.36 61.7799 147.12 61.5768 146.943 61.3086C146.769 61.0404 146.682 60.7096 146.682 60.3164C146.682 59.9779 146.744 59.6979 146.869 59.4766C146.994 59.2552 147.165 59.0781 147.381 58.9453C147.597 58.8125 147.84 58.7122 148.111 58.6445C148.385 58.5742 148.667 58.5234 148.959 58.4922C149.311 58.4557 149.596 58.4232 149.814 58.3945C150.033 58.3633 150.192 58.3164 150.291 58.2539C150.393 58.1888 150.443 58.0885 150.443 57.9531V57.9297C150.443 57.6354 150.356 57.4076 150.182 57.2461C150.007 57.0846 149.756 57.0039 149.428 57.0039C149.081 57.0039 148.807 57.0794 148.604 57.2305C148.403 57.3815 148.268 57.5599 148.197 57.7656L146.877 57.5781C146.981 57.2135 147.153 56.9089 147.393 56.6641C147.632 56.4167 147.925 56.2318 148.271 56.1094C148.618 55.9844 149.001 55.9219 149.42 55.9219C149.709 55.9219 149.997 55.9557 150.283 56.0234C150.57 56.0911 150.831 56.2031 151.068 56.3594C151.305 56.513 151.495 56.7227 151.639 56.9883C151.785 57.2539 151.857 57.5859 151.857 57.9844V62H150.498V61.1758H150.451C150.365 61.3424 150.244 61.4987 150.088 61.6445C149.934 61.7878 149.74 61.9036 149.506 61.9922C149.274 62.0781 149.002 62.1211 148.689 62.1211ZM149.057 61.082C149.34 61.082 149.587 61.026 149.795 60.9141C150.003 60.7995 150.163 60.6484 150.275 60.4609C150.39 60.2734 150.447 60.069 150.447 59.8477V59.1406C150.403 59.1771 150.327 59.2109 150.221 59.2422C150.117 59.2734 149.999 59.3008 149.869 59.3242C149.739 59.3477 149.61 59.3685 149.482 59.3867C149.355 59.4049 149.244 59.4206 149.15 59.4336C148.939 59.4622 148.751 59.5091 148.584 59.5742C148.417 59.6393 148.286 59.7305 148.189 59.8477C148.093 59.9622 148.045 60.1107 148.045 60.293C148.045 60.5534 148.14 60.75 148.33 60.8828C148.52 61.0156 148.762 61.082 149.057 61.082ZM152.607 57.1602V56H157.857V57.1602H155.916V62H154.549V57.1602H152.607ZM159.862 64.25C159.67 64.25 159.491 64.2344 159.327 64.2031C159.166 64.1745 159.037 64.1406 158.94 64.1016L159.269 63C159.474 63.0599 159.658 63.0885 159.819 63.0859C159.981 63.0833 160.123 63.0326 160.245 62.9336C160.37 62.8372 160.476 62.6758 160.562 62.4492L160.683 62.125L158.507 56H160.007L161.39 60.5312H161.452L162.839 56H164.343L161.94 62.7266C161.828 63.0443 161.68 63.3164 161.495 63.543C161.31 63.7721 161.084 63.9466 160.815 64.0664C160.55 64.1888 160.232 64.25 159.862 64.25ZM167.734 62.1172C167.135 62.1172 166.621 61.9857 166.191 61.7227C165.764 61.4596 165.435 61.0964 165.203 60.6328C164.974 60.1667 164.859 59.6302 164.859 59.0234C164.859 58.4141 164.977 57.8763 165.211 57.4102C165.445 56.9414 165.776 56.5768 166.203 56.3164C166.633 56.0534 167.141 55.9219 167.727 55.9219C168.214 55.9219 168.645 56.0117 169.02 56.1914C169.397 56.3685 169.698 56.6198 169.922 56.9453C170.146 57.2682 170.273 57.6458 170.305 58.0781H168.953C168.898 57.7891 168.768 57.5482 168.563 57.3555C168.359 57.1602 168.087 57.0625 167.746 57.0625C167.457 57.0625 167.203 57.1406 166.984 57.2969C166.766 57.4505 166.595 57.6719 166.473 57.9609C166.353 58.25 166.293 58.5964 166.293 59C166.293 59.4089 166.353 59.7604 166.473 60.0547C166.592 60.3464 166.76 60.5716 166.977 60.7305C167.195 60.8867 167.452 60.9648 167.746 60.9648C167.954 60.9648 168.141 60.9258 168.305 60.8477C168.471 60.7669 168.611 60.651 168.723 60.5C168.835 60.349 168.911 60.1654 168.953 59.9492H170.305C170.271 60.3737 170.146 60.75 169.93 61.0781C169.714 61.4036 169.419 61.6589 169.047 61.8437C168.674 62.026 168.237 62.1172 167.734 62.1172Z" fill="white"/>
</g>
<rect width="418" height="16" transform="translate(0 76)" fill="#38383A"/>
<path opacity="0.3" d="M203.15 84C203.15 84.862 202.988 85.6003 202.666 86.2148C202.345 86.8268 201.908 87.2956 201.353 87.6211C200.801 87.9466 200.175 88.1094 199.474 88.1094C198.774 88.1094 198.146 87.9466 197.591 87.6211C197.039 87.293 196.602 86.8229 196.279 86.2109C195.958 85.5964 195.798 84.8594 195.798 84C195.798 83.138 195.958 82.401 196.279 81.7891C196.602 81.1745 197.039 80.7044 197.591 80.3789C198.146 80.0534 198.774 79.8906 199.474 79.8906C200.175 79.8906 200.801 80.0534 201.353 80.3789C201.908 80.7044 202.345 81.1745 202.666 81.7891C202.988 82.401 203.15 83.138 203.15 84ZM201.693 84C201.693 83.3932 201.598 82.8815 201.408 82.4648C201.22 82.0456 200.96 81.7292 200.626 81.5156C200.293 81.2995 199.909 81.1914 199.474 81.1914C199.039 81.1914 198.655 81.2995 198.322 81.5156C197.988 81.7292 197.727 82.0456 197.537 82.4648C197.349 82.8815 197.255 83.3932 197.255 84C197.255 84.6068 197.349 85.1198 197.537 85.5391C197.727 85.9557 197.988 86.2721 198.322 86.4883C198.655 86.7018 199.039 86.8086 199.474 86.8086C199.909 86.8086 200.293 86.7018 200.626 86.4883C200.96 86.2721 201.22 85.9557 201.408 85.5391C201.598 85.1198 201.693 84.6068 201.693 84ZM204.458 88V82H205.872V84.4219H206.387L208.192 82H209.895L207.672 84.9453L209.918 88H208.208L206.563 85.7383H205.872V88H204.458ZM214.841 84.4141V85.5742H211.646V84.4141H214.841ZM212.083 82V88H210.72V82H212.083ZM215.767 82V88H214.408V82H215.767ZM218.924 88.1211C218.544 88.1211 218.202 88.0534 217.897 87.918C217.595 87.7799 217.355 87.5768 217.178 87.3086C217.004 87.0404 216.917 86.7096 216.917 86.3164C216.917 85.9779 216.979 85.6979 217.104 85.4766C217.229 85.2552 217.4 85.0781 217.616 84.9453C217.832 84.8125 218.075 84.7122 218.346 84.6445C218.62 84.5742 218.902 84.5234 219.194 84.4922C219.545 84.4557 219.831 84.4232 220.049 84.3945C220.268 84.3633 220.427 84.3164 220.526 84.2539C220.627 84.1888 220.678 84.0885 220.678 83.9531V83.9297C220.678 83.6354 220.591 83.4076 220.417 83.2461C220.242 83.0846 219.991 83.0039 219.663 83.0039C219.316 83.0039 219.042 83.0794 218.838 83.2305C218.638 83.3815 218.502 83.5599 218.432 83.7656L217.112 83.5781C217.216 83.2135 217.388 82.9089 217.627 82.6641C217.867 82.4167 218.16 82.2318 218.506 82.1094C218.853 81.9844 219.236 81.9219 219.655 81.9219C219.944 81.9219 220.232 81.9557 220.518 82.0234C220.805 82.0911 221.066 82.2031 221.303 82.3594C221.54 82.513 221.73 82.7227 221.874 82.9883C222.019 83.2539 222.092 83.5859 222.092 83.9844V88H220.733V87.1758H220.686C220.6 87.3424 220.479 87.4987 220.323 87.6445C220.169 87.7878 219.975 87.9036 219.741 87.9922C219.509 88.0781 219.237 88.1211 218.924 88.1211ZM219.292 87.082C219.575 87.082 219.821 87.026 220.03 86.9141C220.238 86.7995 220.398 86.6484 220.51 86.4609C220.625 86.2734 220.682 86.069 220.682 85.8477V85.1406C220.638 85.1771 220.562 85.2109 220.456 85.2422C220.351 85.2734 220.234 85.3008 220.104 85.3242C219.974 85.3477 219.845 85.3685 219.717 85.3867C219.59 85.4049 219.479 85.4206 219.385 85.4336C219.174 85.4622 218.986 85.5091 218.819 85.5742C218.652 85.6393 218.521 85.7305 218.424 85.8477C218.328 85.9622 218.28 86.1107 218.28 86.293C218.28 86.5534 218.375 86.75 218.565 86.8828C218.755 87.0156 218.997 87.082 219.292 87.082Z" fill="#F0F0F6"/>
</svg>
