<svg width="86" height="88" viewBox="0 0 86 88" fill="none" xmlns="http://www.w3.org/2000/svg">
<path opacity="0.3" d="M27.8125 6.6875L26.5938 7.90625L24.0938 5.40625L25.3125 4.1875C25.4375 4.0625 25.5938 4 25.7812 4C25.9688 4 26.125 4.0625 26.25 4.1875L27.8125 5.75C27.9375 5.875 28 6.03125 28 6.21875C28 6.40625 27.9375 6.5625 27.8125 6.6875ZM16 13.5L23.375 6.125L25.875 8.625L18.5 16H16V13.5Z" fill="#F0F0F6"/>
<path opacity="0.3" d="M39.1646 14V6H42.2271C42.8052 6 43.2856 6.09115 43.6685 6.27344C44.0539 6.45312 44.3416 6.69922 44.5317 7.01172C44.7244 7.32422 44.8208 7.67839 44.8208 8.07422C44.8208 8.39974 44.7583 8.67839 44.6333 8.91016C44.5083 9.13932 44.3403 9.32552 44.1294 9.46875C43.9185 9.61198 43.6828 9.71484 43.4224 9.77734V9.85547C43.7062 9.87109 43.9784 9.95833 44.2388 10.1172C44.5018 10.2734 44.7166 10.4948 44.8833 10.7812C45.05 11.0677 45.1333 11.4141 45.1333 11.8203C45.1333 12.2344 45.033 12.6068 44.8325 12.9375C44.632 13.2656 44.3299 13.5247 43.9263 13.7148C43.5226 13.9049 43.0148 14 42.4028 14H39.1646ZM40.6138 12.7891H42.1724C42.6984 12.7891 43.0773 12.6888 43.3091 12.4883C43.5435 12.2852 43.6606 12.0247 43.6606 11.707C43.6606 11.4701 43.6021 11.2565 43.4849 11.0664C43.3677 10.8737 43.201 10.7227 42.9849 10.6133C42.7687 10.5013 42.5109 10.4453 42.2114 10.4453H40.6138V12.7891ZM40.6138 9.40234H42.0474C42.2974 9.40234 42.5226 9.35677 42.7231 9.26562C42.9237 9.17187 43.0812 9.04036 43.1958 8.87109C43.313 8.69922 43.3716 8.49609 43.3716 8.26172C43.3716 7.95182 43.2622 7.69661 43.0435 7.49609C42.8273 7.29557 42.5057 7.19531 42.0786 7.19531H40.6138V9.40234ZM45.9995 12.3555H47.4019C47.4149 12.5794 47.5151 12.7526 47.7026 12.875C47.8901 12.9974 48.1336 13.0586 48.4331 13.0586C48.7378 13.0586 48.9943 12.9922 49.2026 12.8594C49.4136 12.724 49.519 12.5195 49.519 12.2461C49.519 12.0846 49.4787 11.9427 49.3979 11.8203C49.3172 11.6953 49.2039 11.599 49.0581 11.5312C48.9123 11.4635 48.7404 11.4297 48.5425 11.4297H47.6245V10.4258H48.5425C48.8368 10.4258 49.0594 10.3581 49.2104 10.2227C49.3641 10.0872 49.4409 9.91667 49.4409 9.71094C49.4409 9.48958 49.3602 9.3099 49.1987 9.17187C49.0399 9.03385 48.8198 8.96484 48.5386 8.96484C48.2573 8.96484 48.0229 9.02865 47.8354 9.15625C47.6506 9.28385 47.5542 9.44792 47.5464 9.64844H46.1519C46.1571 9.29948 46.2612 8.99609 46.4644 8.73828C46.6701 8.48047 46.9461 8.27995 47.2925 8.13672C47.6414 7.99349 48.0347 7.92188 48.4722 7.92188C48.9409 7.92188 49.3459 7.99219 49.687 8.13281C50.0282 8.27344 50.2912 8.47005 50.4761 8.72266C50.661 8.97266 50.7534 9.26693 50.7534 9.60547C50.7534 9.93099 50.6519 10.2005 50.4487 10.4141C50.2456 10.625 49.9722 10.776 49.6284 10.8672V10.9297C49.8654 10.9427 50.0789 11.0104 50.269 11.1328C50.4591 11.2526 50.6102 11.4154 50.7222 11.6211C50.8341 11.8268 50.8901 12.0651 50.8901 12.3359C50.8901 12.7031 50.7847 13.0208 50.5737 13.2891C50.3628 13.5547 50.0724 13.7591 49.7026 13.9023C49.3354 14.0456 48.9149 14.1172 48.4409 14.1172C47.98 14.1172 47.5672 14.0482 47.2026 13.9102C46.8407 13.7695 46.5529 13.5677 46.3394 13.3047C46.1258 13.0417 46.0125 12.7253 45.9995 12.3555ZM55.5503 14V9.14844H54.269C53.9435 9.14844 53.6935 9.22396 53.519 9.375C53.3446 9.52604 53.2586 9.71354 53.2612 9.9375C53.2586 10.1615 53.3407 10.3464 53.5073 10.4922C53.674 10.638 53.9123 10.7109 54.2222 10.7109H55.9956V11.7422H54.2222C53.743 11.7422 53.3289 11.6667 52.98 11.5156C52.631 11.3646 52.3628 11.151 52.1753 10.875C51.9878 10.599 51.894 10.276 51.894 9.90625C51.894 9.52083 51.9891 9.1862 52.1792 8.90234C52.3719 8.61589 52.6453 8.39453 52.9995 8.23828C53.3563 8.07943 53.7795 8 54.269 8H56.8745V14H55.5503ZM51.6753 14L53.3511 10.9219H54.7456L53.0659 14H51.6753ZM57.6265 9.16016V8H62.8765V9.16016H60.9351V14H59.5679V9.16016H57.6265ZM64.9595 9.95312H66.729C67.4946 9.95312 68.0871 10.1393 68.5063 10.5117C68.9256 10.8841 69.1366 11.3724 69.1392 11.9766C69.1366 12.3698 69.0402 12.7187 68.8501 13.0234C68.6626 13.3281 68.3892 13.5677 68.0298 13.7422C67.673 13.9141 67.2394 14 66.729 14H64.0024V8H65.3657V12.8398H66.729C67.0363 12.8398 67.2889 12.7617 67.4868 12.6055C67.6847 12.4466 67.7837 12.2435 67.7837 11.9961C67.7837 11.7357 67.6847 11.5234 67.4868 11.3594C67.2889 11.1953 67.0363 11.1133 66.729 11.1133H64.9595V9.95312Z" fill="#F0F0F6"/>
<g opacity="0.3">
<path d="M27.8125 31.6875L26.5938 32.9062L24.0938 30.4062L25.3125 29.1875C25.4375 29.0625 25.5938 29 25.7812 29C25.9688 29 26.125 29.0625 26.25 29.1875L27.8125 30.75C27.9375 30.875 28 31.0312 28 31.2188C28 31.4062 27.9375 31.5625 27.8125 31.6875ZM16 38.5L23.375 31.125L25.875 33.625L18.5 41H16V38.5Z" fill="#F0F0F6"/>
<path d="M46.1128 35C46.1128 35.862 45.9513 36.6003 45.6284 37.2148C45.3081 37.8268 44.8706 38.2956 44.3159 38.6211C43.7638 38.9466 43.1375 39.1094 42.437 39.1094C41.7365 39.1094 41.1089 38.9466 40.5542 38.6211C40.0021 38.293 39.5646 37.8229 39.2417 37.2109C38.9214 36.5964 38.7612 35.8594 38.7612 35C38.7612 34.138 38.9214 33.401 39.2417 32.7891C39.5646 32.1745 40.0021 31.7044 40.5542 31.3789C41.1089 31.0534 41.7365 30.8906 42.437 30.8906C43.1375 30.8906 43.7638 31.0534 44.3159 31.3789C44.8706 31.7044 45.3081 32.1745 45.6284 32.7891C45.9513 33.401 46.1128 34.138 46.1128 35ZM44.6558 35C44.6558 34.3932 44.5607 33.8815 44.3706 33.4648C44.1831 33.0456 43.9227 32.7292 43.5894 32.5156C43.256 32.2995 42.8719 32.1914 42.437 32.1914C42.0021 32.1914 41.618 32.2995 41.2847 32.5156C40.9513 32.7292 40.6896 33.0456 40.4995 33.4648C40.312 33.8815 40.2183 34.3932 40.2183 35C40.2183 35.6068 40.312 36.1198 40.4995 36.5391C40.6896 36.9557 40.9513 37.2721 41.2847 37.4883C41.618 37.7018 42.0021 37.8086 42.437 37.8086C42.8719 37.8086 43.256 37.7018 43.5894 37.4883C43.9227 37.2721 44.1831 36.9557 44.3706 36.5391C44.5607 36.1198 44.6558 35.6068 44.6558 35ZM47.0923 34.1602V33H52.3423V34.1602H50.4009V39H49.0337V34.1602H47.0923ZM52.4429 40.7422V37.8359H52.9194C53.047 37.737 53.1538 37.6029 53.2397 37.4336C53.3257 37.2617 53.396 37.0599 53.4507 36.8281C53.508 36.5937 53.5549 36.332 53.5913 36.043C53.6278 35.7513 53.6603 35.4375 53.689 35.1016L53.8608 33H58.1968V37.8359H59.1265V40.7422H57.7593V39H53.8335V40.7422H52.4429ZM54.3726 37.8359H56.8452V34.1406H55.0874L54.9937 35.1016C54.9416 35.737 54.8726 36.2812 54.7866 36.7344C54.7007 37.1875 54.5627 37.5547 54.3726 37.8359ZM61.9087 39.1211C61.5285 39.1211 61.186 39.0534 60.8813 38.918C60.5793 38.7799 60.3397 38.5768 60.1626 38.3086C59.9881 38.0404 59.9009 37.7096 59.9009 37.3164C59.9009 36.9779 59.9634 36.6979 60.0884 36.4766C60.2134 36.2552 60.384 36.0781 60.6001 35.9453C60.8162 35.8125 61.0597 35.7122 61.3306 35.6445C61.604 35.5742 61.8866 35.5234 62.1782 35.4922C62.5298 35.4557 62.8149 35.4232 63.0337 35.3945C63.2524 35.3633 63.4113 35.3164 63.5103 35.2539C63.6118 35.1888 63.6626 35.0885 63.6626 34.9531V34.9297C63.6626 34.6354 63.5754 34.4076 63.4009 34.2461C63.2264 34.0846 62.9751 34.0039 62.647 34.0039C62.3006 34.0039 62.0259 34.0794 61.8228 34.2305C61.6222 34.3815 61.4868 34.5599 61.4165 34.7656L60.0962 34.5781C60.2004 34.2135 60.3722 33.9089 60.6118 33.6641C60.8514 33.4167 61.1444 33.2318 61.4907 33.1094C61.8371 32.9844 62.2199 32.9219 62.6392 32.9219C62.9282 32.9219 63.216 32.9557 63.5024 33.0234C63.7889 33.0911 64.0506 33.2031 64.2876 33.3594C64.5246 33.513 64.7147 33.7227 64.8579 33.9883C65.0037 34.2539 65.0767 34.5859 65.0767 34.9844V39H63.7173V38.1758H63.6704C63.5845 38.3424 63.4634 38.4987 63.3071 38.6445C63.1535 38.7878 62.9595 38.9036 62.7251 38.9922C62.4933 39.0781 62.2212 39.1211 61.9087 39.1211ZM62.2759 38.082C62.5597 38.082 62.8058 38.026 63.0142 37.9141C63.2225 37.7995 63.3826 37.6484 63.4946 37.4609C63.6092 37.2734 63.6665 37.069 63.6665 36.8477V36.1406C63.6222 36.1771 63.5467 36.2109 63.4399 36.2422C63.3358 36.2734 63.2186 36.3008 63.0884 36.3242C62.9582 36.3477 62.8293 36.3685 62.7017 36.3867C62.5741 36.4049 62.4634 36.4206 62.3696 36.4336C62.1587 36.4622 61.9699 36.5091 61.8032 36.5742C61.6366 36.6393 61.505 36.7305 61.4087 36.8477C61.3123 36.9622 61.2642 37.1107 61.2642 37.293C61.2642 37.5534 61.3592 37.75 61.5493 37.8828C61.7394 38.0156 61.9816 38.082 62.2759 38.082ZM65.8267 34.1602V33H71.0767V34.1602H69.1353V39H67.7681V34.1602H65.8267ZM73.1597 34.9531H74.9292C75.6948 34.9531 76.2873 35.1393 76.7065 35.5117C77.1258 35.8841 77.3368 36.3724 77.3394 36.9766C77.3368 37.3698 77.2404 37.7187 77.0503 38.0234C76.8628 38.3281 76.5894 38.5677 76.23 38.7422C75.8732 38.9141 75.4396 39 74.9292 39H72.2026V33H73.5659V37.8398H74.9292C75.2365 37.8398 75.4891 37.7617 75.687 37.6055C75.8849 37.4466 75.9839 37.2435 75.9839 36.9961C75.9839 36.7357 75.8849 36.5234 75.687 36.3594C75.4891 36.1953 75.2365 36.1133 74.9292 36.1133H73.1597V34.9531Z" fill="#F0F0F6"/>
</g>
<g opacity="0.3">
<rect width="86" height="16" transform="translate(0 72)" fill="#38383A"/>
<path d="M33.6782 77.2148V76H40.061V77.2148H37.5884V84H36.1509V77.2148H33.6782ZM41.229 84V78H42.6431V84H41.229ZM41.9399 77.1484C41.716 77.1484 41.5233 77.0742 41.3618 76.9258C41.2004 76.7747 41.1196 76.5937 41.1196 76.3828C41.1196 76.1693 41.2004 75.9883 41.3618 75.8398C41.5233 75.6888 41.716 75.6133 41.9399 75.6133C42.1665 75.6133 42.3592 75.6888 42.5181 75.8398C42.6795 75.9883 42.7603 76.1693 42.7603 76.3828C42.7603 76.5937 42.6795 76.7747 42.5181 76.9258C42.3592 77.0742 42.1665 77.1484 41.9399 77.1484ZM45.5112 76V84H44.0972V76H45.5112ZM49.6216 84.1172C49.02 84.1172 48.5005 83.9922 48.063 83.7422C47.6281 83.4896 47.2935 83.1328 47.0591 82.6719C46.8247 82.2083 46.7075 81.6628 46.7075 81.0352C46.7075 80.418 46.8247 79.8763 47.0591 79.4102C47.2961 78.9414 47.6268 78.5768 48.0513 78.3164C48.4757 78.0534 48.9744 77.9219 49.5474 77.9219C49.9172 77.9219 50.2661 77.9818 50.5942 78.1016C50.925 78.2187 51.2166 78.401 51.4692 78.6484C51.7244 78.8958 51.925 79.2109 52.0708 79.5937C52.2166 79.974 52.2896 80.4271 52.2896 80.9531V81.3867H47.3716V80.4336H50.9341C50.9315 80.1628 50.8729 79.9219 50.7583 79.7109C50.6437 79.4974 50.4836 79.3294 50.2778 79.207C50.0747 79.0846 49.8377 79.0234 49.5669 79.0234C49.2778 79.0234 49.0239 79.0937 48.8052 79.2344C48.5864 79.3724 48.4159 79.5547 48.2935 79.7812C48.1737 80.0052 48.1125 80.2513 48.1099 80.5195V81.3516C48.1099 81.7005 48.1737 82 48.3013 82.25C48.4289 82.4974 48.6073 82.6875 48.8364 82.8203C49.0656 82.9505 49.3338 83.0156 49.6411 83.0156C49.8468 83.0156 50.033 82.987 50.1997 82.9297C50.3664 82.8698 50.5109 82.7826 50.6333 82.668C50.7557 82.5534 50.8481 82.4115 50.9106 82.2422L52.231 82.3906C52.1476 82.7396 51.9888 83.0443 51.7544 83.3047C51.5226 83.5625 51.2257 83.763 50.8638 83.9062C50.5018 84.0469 50.0877 84.1172 49.6216 84.1172Z" fill="#F0F0F6"/>
</g>
</svg>
