<svg width="116" height="72" viewBox="0 0 116 72" fill="none" xmlns="http://www.w3.org/2000/svg">
<rect width="16" height="72" fill="#38383A"/>
<path opacity="0.3" d="M11.3437 13.3438L4.65625 13.3438L8 10L11.3437 13.3438Z" fill="white"/>
<path opacity="0.3" d="M4.65625 34.6562H11.3438L8 38L4.65625 34.6562Z" fill="white"/>
<path opacity="0.3" d="M12 56.2812L8 60.2812L4 56.2812L4.9375 55.3438L8 58.375L11.0625 55.3438L12 56.2812ZM12 60.6562L8 64.6562L4 60.6562L4.9375 59.7188L8 62.7812L11.0625 59.7188L12 60.6562Z" fill="white"/>
<path opacity="0.3" d="M35.8125 6.6875L34.5938 7.90625L32.0938 5.40625L33.3125 4.1875C33.4375 4.0625 33.5938 4 33.7812 4C33.9688 4 34.125 4.0625 34.25 4.1875L35.8125 5.75C35.9375 5.875 36 6.03125 36 6.21875C36 6.40625 35.9375 6.5625 35.8125 6.6875ZM24 13.5L31.375 6.125L33.875 8.625L26.5 16H24V13.5Z" fill="#F0F0F6"/>
<path opacity="0.3" d="M47.1646 14V6H50.2271C50.8052 6 51.2856 6.09115 51.6685 6.27344C52.0539 6.45312 52.3416 6.69922 52.5317 7.01172C52.7244 7.32422 52.8208 7.67839 52.8208 8.07422C52.8208 8.39974 52.7583 8.67839 52.6333 8.91016C52.5083 9.13932 52.3403 9.32552 52.1294 9.46875C51.9185 9.61198 51.6828 9.71484 51.4224 9.77734V9.85547C51.7062 9.87109 51.9784 9.95833 52.2388 10.1172C52.5018 10.2734 52.7166 10.4948 52.8833 10.7812C53.05 11.0677 53.1333 11.4141 53.1333 11.8203C53.1333 12.2344 53.033 12.6068 52.8325 12.9375C52.632 13.2656 52.3299 13.5247 51.9263 13.7148C51.5226 13.9049 51.0148 14 50.4028 14H47.1646ZM48.6138 12.7891H50.1724C50.6984 12.7891 51.0773 12.6888 51.3091 12.4883C51.5435 12.2852 51.6606 12.0247 51.6606 11.707C51.6606 11.4701 51.6021 11.2565 51.4849 11.0664C51.3677 10.8737 51.201 10.7227 50.9849 10.6133C50.7687 10.5013 50.5109 10.4453 50.2114 10.4453H48.6138V12.7891ZM48.6138 9.40234H50.0474C50.2974 9.40234 50.5226 9.35677 50.7231 9.26562C50.9237 9.17187 51.0812 9.04036 51.1958 8.87109C51.313 8.69922 51.3716 8.49609 51.3716 8.26172C51.3716 7.95182 51.2622 7.69661 51.0435 7.49609C50.8273 7.29557 50.5057 7.19531 50.0786 7.19531H48.6138V9.40234ZM53.9995 12.3555H55.4019C55.4149 12.5794 55.5151 12.7526 55.7026 12.875C55.8901 12.9974 56.1336 13.0586 56.4331 13.0586C56.7378 13.0586 56.9943 12.9922 57.2026 12.8594C57.4136 12.724 57.519 12.5195 57.519 12.2461C57.519 12.0846 57.4787 11.9427 57.3979 11.8203C57.3172 11.6953 57.2039 11.599 57.0581 11.5312C56.9123 11.4635 56.7404 11.4297 56.5425 11.4297H55.6245V10.4258H56.5425C56.8368 10.4258 57.0594 10.3581 57.2104 10.2227C57.3641 10.0872 57.4409 9.91667 57.4409 9.71094C57.4409 9.48958 57.3602 9.3099 57.1987 9.17187C57.0399 9.03385 56.8198 8.96484 56.5386 8.96484C56.2573 8.96484 56.0229 9.02865 55.8354 9.15625C55.6506 9.28385 55.5542 9.44792 55.5464 9.64844H54.1519C54.1571 9.29948 54.2612 8.99609 54.4644 8.73828C54.6701 8.48047 54.9461 8.27995 55.2925 8.13672C55.6414 7.99349 56.0347 7.92188 56.4722 7.92188C56.9409 7.92188 57.3459 7.99219 57.687 8.13281C58.0282 8.27344 58.2912 8.47005 58.4761 8.72266C58.661 8.97266 58.7534 9.26693 58.7534 9.60547C58.7534 9.93099 58.6519 10.2005 58.4487 10.4141C58.2456 10.625 57.9722 10.776 57.6284 10.8672V10.9297C57.8654 10.9427 58.0789 11.0104 58.269 11.1328C58.4591 11.2526 58.6102 11.4154 58.7222 11.6211C58.8341 11.8268 58.8901 12.0651 58.8901 12.3359C58.8901 12.7031 58.7847 13.0208 58.5737 13.2891C58.3628 13.5547 58.0724 13.7591 57.7026 13.9023C57.3354 14.0456 56.9149 14.1172 56.4409 14.1172C55.98 14.1172 55.5672 14.0482 55.2026 13.9102C54.8407 13.7695 54.5529 13.5677 54.3394 13.3047C54.1258 13.0417 54.0125 12.7253 53.9995 12.3555ZM63.5503 14V9.14844H62.269C61.9435 9.14844 61.6935 9.22396 61.519 9.375C61.3446 9.52604 61.2586 9.71354 61.2612 9.9375C61.2586 10.1615 61.3407 10.3464 61.5073 10.4922C61.674 10.638 61.9123 10.7109 62.2222 10.7109H63.9956V11.7422H62.2222C61.743 11.7422 61.3289 11.6667 60.98 11.5156C60.631 11.3646 60.3628 11.151 60.1753 10.875C59.9878 10.599 59.894 10.276 59.894 9.90625C59.894 9.52083 59.9891 9.1862 60.1792 8.90234C60.3719 8.61589 60.6453 8.39453 60.9995 8.23828C61.3563 8.07943 61.7795 8 62.269 8H64.8745V14H63.5503ZM59.6753 14L61.3511 10.9219H62.7456L61.0659 14H59.6753ZM65.6265 9.16016V8H70.8765V9.16016H68.9351V14H67.5679V9.16016H65.6265ZM72.9595 9.95312H74.729C75.4946 9.95312 76.0871 10.1393 76.5063 10.5117C76.9256 10.8841 77.1366 11.3724 77.1392 11.9766C77.1366 12.3698 77.0402 12.7187 76.8501 13.0234C76.6626 13.3281 76.3892 13.5677 76.0298 13.7422C75.673 13.9141 75.2394 14 74.729 14H72.0024V8H73.3657V12.8398H74.729C75.0363 12.8398 75.2889 12.7617 75.4868 12.6055C75.6847 12.4466 75.7837 12.2435 75.7837 11.9961C75.7837 11.7357 75.6847 11.5234 75.4868 11.3594C75.2889 11.1953 75.0363 11.1133 74.729 11.1133H72.9595V9.95312Z" fill="#F0F0F6"/>
<g opacity="0.3">
<path d="M35.8125 30.6875L34.5938 31.9062L32.0938 29.4062L33.3125 28.1875C33.4375 28.0625 33.5938 28 33.7812 28C33.9688 28 34.125 28.0625 34.25 28.1875L35.8125 29.75C35.9375 29.875 36 30.0312 36 30.2188C36 30.4062 35.9375 30.5625 35.8125 30.6875ZM24 37.5L31.375 30.125L33.875 32.625L26.5 40H24V37.5Z" fill="#F0F0F6"/>
<path d="M47.978 38.1094V36.8906H48.4351C48.6408 36.8906 48.8101 36.8607 48.9429 36.8008C49.0757 36.7409 49.1825 36.6549 49.2632 36.543C49.3465 36.431 49.4155 36.3008 49.4702 36.1523L49.5757 35.8828L46.7163 30H48.2319L50.2241 34.2812L51.9468 30H53.439L50.6812 36.5234C50.5535 36.8047 50.4064 37.0664 50.2397 37.3086C50.0731 37.5482 49.8556 37.7422 49.5874 37.8906C49.3218 38.0365 48.9754 38.1094 48.5483 38.1094H47.978ZM53.8774 39.7422V36.8359H54.354C54.4816 36.737 54.5884 36.6029 54.6743 36.4336C54.7603 36.2617 54.8306 36.0599 54.8853 35.8281C54.9425 35.5937 54.9894 35.332 55.0259 35.043C55.0623 34.7513 55.0949 34.4375 55.1235 34.1016L55.2954 32H59.6313V36.8359H60.561V39.7422H59.1938V38H55.2681V39.7422H53.8774ZM55.8071 36.8359H58.2798V33.1406H56.522L56.4282 34.1016C56.3761 34.737 56.3071 35.2812 56.2212 35.7344C56.1353 36.1875 55.9972 36.5547 55.8071 36.8359ZM63.3433 38.1211C62.9631 38.1211 62.6206 38.0534 62.3159 37.918C62.0138 37.7799 61.7743 37.5768 61.5972 37.3086C61.4227 37.0404 61.3354 36.7096 61.3354 36.3164C61.3354 35.9779 61.3979 35.6979 61.5229 35.4766C61.6479 35.2552 61.8185 35.0781 62.0347 34.9453C62.2508 34.8125 62.4943 34.7122 62.7651 34.6445C63.0386 34.5742 63.3211 34.5234 63.6128 34.4922C63.9644 34.4557 64.2495 34.4232 64.4683 34.3945C64.687 34.3633 64.8459 34.3164 64.9448 34.2539C65.0464 34.1888 65.0972 34.0885 65.0972 33.9531V33.9297C65.0972 33.6354 65.0099 33.4076 64.8354 33.2461C64.661 33.0846 64.4097 33.0039 64.0815 33.0039C63.7352 33.0039 63.4604 33.0794 63.2573 33.2305C63.0568 33.3815 62.9214 33.5599 62.8511 33.7656L61.5308 33.5781C61.6349 33.2135 61.8068 32.9089 62.0464 32.6641C62.286 32.4167 62.5789 32.2318 62.9253 32.1094C63.2716 31.9844 63.6545 31.9219 64.0737 31.9219C64.3628 31.9219 64.6506 31.9557 64.937 32.0234C65.2235 32.0911 65.4852 32.2031 65.7222 32.3594C65.9591 32.513 66.1493 32.7227 66.2925 32.9883C66.4383 33.2539 66.5112 33.5859 66.5112 33.9844V38H65.1519V37.1758H65.105C65.019 37.3424 64.8979 37.4987 64.7417 37.6445C64.5881 37.7878 64.394 37.9036 64.1597 37.9922C63.9279 38.0781 63.6558 38.1211 63.3433 38.1211ZM63.7104 37.082C63.9943 37.082 64.2404 37.026 64.4487 36.9141C64.6571 36.7995 64.8172 36.6484 64.9292 36.4609C65.0438 36.2734 65.1011 36.069 65.1011 35.8477V35.1406C65.0568 35.1771 64.9813 35.2109 64.8745 35.2422C64.7703 35.2734 64.6532 35.3008 64.5229 35.3242C64.3927 35.3477 64.2638 35.3685 64.1362 35.3867C64.0086 35.4049 63.8979 35.4206 63.8042 35.4336C63.5933 35.4622 63.4045 35.5091 63.2378 35.5742C63.0711 35.6393 62.9396 35.7305 62.8433 35.8477C62.7469 35.9622 62.6987 36.1107 62.6987 36.293C62.6987 36.5534 62.7938 36.75 62.9839 36.8828C63.174 37.0156 63.4162 37.082 63.7104 37.082ZM67.519 38L67.5112 36.8359H67.7183C67.8745 36.8359 68.006 36.8008 68.1128 36.7305C68.2196 36.6602 68.3081 36.543 68.3784 36.3789C68.4487 36.2122 68.5034 35.9883 68.5425 35.707C68.5815 35.4258 68.6089 35.0755 68.6245 34.6562L68.73 32H73.105V38H71.7378V33.1602H70.0151L69.9214 35.0937C69.8979 35.5937 69.842 36.0273 69.7534 36.3945C69.6675 36.7591 69.5451 37.0599 69.3862 37.2969C69.23 37.5339 69.0334 37.7109 68.7964 37.8281C68.5594 37.9427 68.2795 38 67.9565 38H67.519ZM75.8921 36.0859L78.2944 32H79.7476V38H78.3804V33.9102L75.9858 38H74.5288V32H75.8921V36.0859ZM80.5278 33.1602V32H85.7778V33.1602H83.8364V38H82.4692V33.1602H80.5278ZM87.8608 33.9531H89.6304C90.396 33.9531 90.9884 34.1393 91.4077 34.5117C91.827 34.8841 92.0379 35.3724 92.0405 35.9766C92.0379 36.3698 91.9416 36.7187 91.7515 37.0234C91.564 37.3281 91.2905 37.5677 90.9312 37.7422C90.5744 37.9141 90.1408 38 89.6304 38H86.9038V32H88.2671V36.8398H89.6304C89.9377 36.8398 90.1903 36.7617 90.3882 36.6055C90.5861 36.4466 90.6851 36.2435 90.6851 35.9961C90.6851 35.7357 90.5861 35.5234 90.3882 35.3594C90.1903 35.1953 89.9377 35.1133 89.6304 35.1133H87.8608V33.9531Z" fill="#F0F0F6"/>
</g>
<g opacity="0.3">
<path d="M35.8125 54.6875L34.5938 55.9062L32.0938 53.4062L33.3125 52.1875C33.4375 52.0625 33.5938 52 33.7812 52C33.9688 52 34.125 52.0625 34.25 52.1875L35.8125 53.75C35.9375 53.875 36 54.0312 36 54.2188C36 54.4062 35.9375 54.5625 35.8125 54.6875ZM24 61.5L31.375 54.125L33.875 56.625L26.5 64H24V61.5Z" fill="#F0F0F6"/>
<path d="M53.7612 56.6992H52.3003C52.2586 56.4596 52.1818 56.2474 52.0698 56.0625C51.9578 55.875 51.8185 55.7161 51.6519 55.5859C51.4852 55.4557 51.2951 55.3581 51.0815 55.293C50.8706 55.2253 50.6427 55.1914 50.3979 55.1914C49.9631 55.1914 49.5776 55.3008 49.2417 55.5195C48.9058 55.7357 48.6427 56.0534 48.4526 56.4727C48.2625 56.8893 48.1675 57.3984 48.1675 58C48.1675 58.612 48.2625 59.1276 48.4526 59.5469C48.6453 59.9635 48.9084 60.2786 49.2417 60.4922C49.5776 60.7031 49.9618 60.8086 50.394 60.8086C50.6336 60.8086 50.8576 60.7773 51.0659 60.7148C51.2769 60.6497 51.4657 60.5547 51.6323 60.4297C51.8016 60.3047 51.9435 60.151 52.0581 59.9687C52.1753 59.7865 52.256 59.5781 52.3003 59.3437L53.7612 59.3516C53.7065 59.7318 53.5881 60.0885 53.4058 60.4219C53.2261 60.7552 52.9904 61.0495 52.6987 61.3047C52.4071 61.5573 52.0659 61.7552 51.6753 61.8984C51.2847 62.0391 50.8511 62.1094 50.3745 62.1094C49.6714 62.1094 49.0438 61.9466 48.4917 61.6211C47.9396 61.2956 47.5047 60.8255 47.187 60.2109C46.8693 59.5964 46.7104 58.8594 46.7104 58C46.7104 57.138 46.8706 56.401 47.1909 55.7891C47.5112 55.1745 47.9474 54.7044 48.4995 54.3789C49.0516 54.0534 49.6766 53.8906 50.3745 53.8906C50.8198 53.8906 51.2339 53.9531 51.6167 54.0781C51.9995 54.2031 52.3407 54.3867 52.6401 54.6289C52.9396 54.8685 53.1857 55.1628 53.3784 55.5117C53.5737 55.8581 53.7013 56.2539 53.7612 56.6992ZM59.8345 53.7812L60.3267 54.6953C60.1522 54.8464 59.9569 54.9557 59.7407 55.0234C59.5246 55.0911 59.2707 55.1354 58.979 55.1562C58.6899 55.1745 58.3462 55.1875 57.9478 55.1953C57.4998 55.2057 57.134 55.2904 56.8501 55.4492C56.5662 55.6081 56.3488 55.849 56.1978 56.1719C56.0467 56.4922 55.9478 56.901 55.9009 57.3984H55.9673C56.1548 57.0312 56.4178 56.7513 56.7563 56.5586C57.0949 56.3659 57.492 56.2695 57.9478 56.2695C58.4451 56.2695 58.884 56.3815 59.2642 56.6055C59.647 56.8268 59.9451 57.1484 60.1587 57.5703C60.3748 57.9922 60.4829 58.5026 60.4829 59.1016C60.4829 59.7187 60.367 60.2539 60.1353 60.707C59.9035 61.1576 59.5741 61.5052 59.147 61.75C58.7225 61.9948 58.2186 62.1172 57.6353 62.1172C57.0545 62.1172 56.5493 61.9909 56.1196 61.7383C55.6925 61.4831 55.3618 61.1068 55.1274 60.6094C54.8957 60.1094 54.7798 59.4935 54.7798 58.7617V58.2227C54.7798 56.8112 55.0428 55.7578 55.5688 55.0625C56.0949 54.3672 56.8748 54.013 57.9087 54C58.216 53.9948 58.4907 53.9935 58.7329 53.9961C58.9777 53.9987 59.1912 53.987 59.3735 53.9609C59.5558 53.9349 59.7095 53.875 59.8345 53.7812ZM57.6431 60.9844C57.9321 60.9844 58.1821 60.9102 58.3931 60.7617C58.604 60.6107 58.7655 60.3971 58.8774 60.1211C58.992 59.8451 59.0493 59.5182 59.0493 59.1406C59.0493 58.7682 58.992 58.4518 58.8774 58.1914C58.7629 57.9284 58.6001 57.7279 58.3892 57.5898C58.1782 57.4518 57.9269 57.3828 57.6353 57.3828C57.4165 57.3828 57.2199 57.4219 57.0454 57.5C56.8709 57.5781 56.7225 57.6927 56.6001 57.8438C56.4777 57.9948 56.384 58.1784 56.3188 58.3945C56.2537 58.6107 56.2186 58.8594 56.2134 59.1406C56.2134 59.7057 56.341 60.1549 56.5962 60.4883C56.8514 60.819 57.2004 60.9844 57.6431 60.9844ZM61.686 64.25V56H63.0767V56.9922H63.1587C63.2316 56.8464 63.3345 56.6914 63.4673 56.5273C63.6001 56.3607 63.7798 56.2187 64.0063 56.1016C64.2329 55.9818 64.522 55.9219 64.8735 55.9219C65.3371 55.9219 65.755 56.0404 66.1274 56.2773C66.5024 56.5117 66.7993 56.8594 67.0181 57.3203C67.2394 57.7786 67.3501 58.3411 67.3501 59.0078C67.3501 59.6667 67.242 60.2266 67.0259 60.6875C66.8097 61.1484 66.5155 61.5 66.1431 61.7422C65.7707 61.9844 65.3488 62.1055 64.8774 62.1055C64.5337 62.1055 64.2485 62.0482 64.022 61.9336C63.7954 61.819 63.6131 61.681 63.4751 61.5195C63.3397 61.3555 63.2342 61.2005 63.1587 61.0547H63.1001V64.25H61.686ZM63.0728 59C63.0728 59.388 63.1274 59.7279 63.2368 60.0195C63.3488 60.3112 63.509 60.5391 63.7173 60.7031C63.9282 60.8646 64.1834 60.9453 64.4829 60.9453C64.7954 60.9453 65.0571 60.862 65.2681 60.6953C65.479 60.526 65.6379 60.2956 65.7446 60.0039C65.854 59.7096 65.9087 59.375 65.9087 59C65.9087 58.6276 65.8553 58.2969 65.7485 58.0078C65.6418 57.7187 65.4829 57.4922 65.272 57.3281C65.061 57.1641 64.798 57.082 64.4829 57.082C64.1808 57.082 63.9243 57.1615 63.7134 57.3203C63.5024 57.4792 63.3423 57.7018 63.2329 57.9883C63.1261 58.2747 63.0728 58.612 63.0728 59ZM71.1782 62.1172C70.5923 62.1172 70.0845 61.9883 69.6548 61.7305C69.2251 61.4727 68.8918 61.112 68.6548 60.6484C68.4204 60.1849 68.3032 59.6432 68.3032 59.0234C68.3032 58.4036 68.4204 57.8607 68.6548 57.3945C68.8918 56.9284 69.2251 56.5664 69.6548 56.3086C70.0845 56.0508 70.5923 55.9219 71.1782 55.9219C71.7642 55.9219 72.272 56.0508 72.7017 56.3086C73.1313 56.5664 73.4634 56.9284 73.6978 57.3945C73.9347 57.8607 74.0532 58.4036 74.0532 59.0234C74.0532 59.6432 73.9347 60.1849 73.6978 60.6484C73.4634 61.112 73.1313 61.4727 72.7017 61.7305C72.272 61.9883 71.7642 62.1172 71.1782 62.1172ZM71.186 60.9844C71.5037 60.9844 71.7694 60.8971 71.9829 60.7227C72.1965 60.5456 72.3553 60.3086 72.4595 60.0117C72.5662 59.7148 72.6196 59.3841 72.6196 59.0195C72.6196 58.6523 72.5662 58.3203 72.4595 58.0234C72.3553 57.724 72.1965 57.4857 71.9829 57.3086C71.7694 57.1315 71.5037 57.043 71.186 57.043C70.8605 57.043 70.5897 57.1315 70.3735 57.3086C70.16 57.4857 69.9998 57.724 69.8931 58.0234C69.7889 58.3203 69.7368 58.6523 69.7368 59.0195C69.7368 59.3841 69.7889 59.7148 69.8931 60.0117C69.9998 60.3086 70.16 60.5456 70.3735 60.7227C70.5897 60.8971 70.8605 60.9844 71.186 60.9844ZM77.8706 62.1172C77.2716 62.1172 76.7573 61.9857 76.3276 61.7227C75.9006 61.4596 75.5711 61.0964 75.3394 60.6328C75.1102 60.1667 74.9956 59.6302 74.9956 59.0234C74.9956 58.4141 75.1128 57.8763 75.3472 57.4102C75.5815 56.9414 75.9123 56.5768 76.3394 56.3164C76.769 56.0534 77.2769 55.9219 77.8628 55.9219C78.3498 55.9219 78.7808 56.0117 79.1558 56.1914C79.5334 56.3685 79.8341 56.6198 80.0581 56.9453C80.2821 57.2682 80.4097 57.6458 80.4409 58.0781H79.0894C79.0347 57.7891 78.9045 57.5482 78.6987 57.3555C78.4956 57.1602 78.2235 57.0625 77.8823 57.0625C77.5933 57.0625 77.3394 57.1406 77.1206 57.2969C76.9019 57.4505 76.7313 57.6719 76.6089 57.9609C76.4891 58.25 76.4292 58.5964 76.4292 59C76.4292 59.4089 76.4891 59.7604 76.6089 60.0547C76.7287 60.3464 76.8966 60.5716 77.1128 60.7305C77.3315 60.8867 77.5881 60.9648 77.8823 60.9648C78.0907 60.9648 78.2769 60.9258 78.4409 60.8477C78.6076 60.7669 78.7469 60.651 78.8589 60.5C78.9709 60.349 79.0477 60.1654 79.0894 59.9492H80.4409C80.4071 60.3737 80.2821 60.75 80.0659 61.0781C79.8498 61.4036 79.5555 61.6589 79.1831 61.8437C78.8107 62.026 78.3732 62.1172 77.8706 62.1172Z" fill="#F0F0F6"/>
<path d="M104.656 56.6562H111.344L108 60L104.656 56.6562Z" fill="white"/>
</g>
</svg>
