<svg width="31" height="26" viewBox="0 0 31 26" fill="none" xmlns="http://www.w3.org/2000/svg">
<path d="M7.64062 1.35938H31V4.64062H7.64062V1.35938ZM7.64062 14.6406V11.3594H31V14.6406H7.64062ZM7.64062 24.6406V21.3594H31V24.6406H7.64062ZM0.84375 21.2812C1.36458 20.7604 1.96354 20.5 2.64062 20.5C3.31771 20.5 3.89062 20.7604 4.35938 21.2812C4.88021 21.75 5.14062 22.3229 5.14062 23C5.14062 23.6771 4.88021 24.276 4.35938 24.7969C3.89062 25.2656 3.31771 25.5 2.64062 25.5C1.96354 25.5 1.36458 25.2656 0.84375 24.7969C0.375 24.276 0.140625 23.6771 0.140625 23C0.140625 22.3229 0.375 21.75 0.84375 21.2812ZM0.84375 1.20312C1.36458 0.734375 1.96354 0.5 2.64062 0.5C3.31771 0.5 3.89062 0.734375 4.35938 1.20312C4.88021 1.67188 5.14062 2.27083 5.14062 3C5.14062 3.72917 4.88021 4.32812 4.35938 4.79688C3.89062 5.26562 3.31771 5.5 2.64062 5.5C1.96354 5.5 1.36458 5.26562 0.84375 4.79688C0.375 4.32812 0.140625 3.72917 0.140625 3C0.140625 2.27083 0.375 1.67188 0.84375 1.20312ZM0.84375 11.2031C1.36458 10.7344 1.96354 10.5 2.64062 10.5C3.31771 10.5 3.89062 10.7344 4.35938 11.2031C4.88021 11.6719 5.14062 12.2708 5.14062 13C5.14062 13.7292 4.88021 14.3281 4.35938 14.7969C3.89062 15.2656 3.31771 15.5 2.64062 15.5C1.96354 15.5 1.36458 15.2656 0.84375 14.7969C0.375 14.3281 0.140625 13.7292 0.140625 13C0.140625 12.2708 0.375 11.6719 0.84375 11.2031Z" fill="#F0F0F6"/>
</svg>
