<svg width="30" height="34" viewBox="0 0 30 34" fill="none" xmlns="http://www.w3.org/2000/svg">
<path d="M27.5 2.85938L30 0.359375V28.6406C30 29.5781 29.7656 30.4375 29.2969 31.2188C28.8802 31.9479 28.2812 32.5469 27.5 33.0156C26.7708 33.4323 25.9375 33.6406 25 33.6406H5C4.0625 33.6406 3.20312 33.4323 2.42188 33.0156C1.69271 32.5469 1.09375 31.9479 0.625 31.2188C0.208333 30.4375 0 29.5781 0 28.6406V23.6406H5V0.359375L7.5 2.85938L10 0.359375L12.5 2.85938L15 0.359375L17.5 2.85938L20 0.359375L22.5 2.85938L25 0.359375L27.5 2.85938ZM26.6406 28.6406V5.35938H8.35938V23.6406H23.3594V28.6406C23.3594 29.1094 23.5156 29.526 23.8281 29.8906C24.1406 30.2031 24.5312 30.3594 25 30.3594C25.4688 30.3594 25.8594 30.2031 26.1719 29.8906C26.4844 29.526 26.6406 29.1094 26.6406 28.6406ZM10 8.64062V12H20V8.64062H10ZM21.6406 8.64062V12H25V8.64062H21.6406ZM10 13.6406V17H20V13.6406H10ZM21.6406 13.6406V17H25V13.6406H21.6406Z" fill="white"/>
</svg>
