<svg width="40" height="863" viewBox="0 0 40 863" fill="none" xmlns="http://www.w3.org/2000/svg">
<rect width="40" height="863" fill="#008376"/>
<g opacity="0.3">
<path d="M26.9844 14.4395L21.4062 20.0176L26.9844 25.5957L25.5781 27.002L20 21.4238L14.4219 27.002L13.0156 25.5957L18.5938 20.0176L13.0156 14.4395L14.4219 13.0332L20 18.6113L25.5781 13.0332L26.9844 14.4395Z" fill="white"/>
</g>
<path opacity="0.3" d="M13.9091 832.988L27 832.988L27 834.573L15.571 834.573L15.571 834.65L17.6932 837.846L16.0824 837.846L13.9091 834.573L13.9091 832.988ZM27 829.223L25.8494 829.223L21.1193 824.902C20.5653 824.395 20.0838 823.977 19.6747 823.649C19.2614 823.321 18.8736 823.078 18.5114 822.92C18.1449 822.759 17.7614 822.678 17.3608 822.678C16.9006 822.678 16.5021 822.788 16.1655 823.01C15.8288 823.227 15.5689 823.526 15.3857 823.905C15.2024 824.284 15.1108 824.71 15.1108 825.183C15.1108 825.686 15.2152 826.125 15.424 826.5C15.6286 826.871 15.9162 827.158 16.2869 827.363C16.6577 827.563 17.0923 827.663 17.5909 827.663L17.5909 829.172C16.8239 829.172 16.1506 828.995 15.571 828.641C14.9915 828.288 14.5398 827.806 14.2159 827.197C13.892 826.583 13.7301 825.895 13.7301 825.132C13.7301 824.365 13.892 823.685 14.2159 823.093C14.5398 822.501 14.9766 822.036 15.5263 821.7C16.076 821.363 16.6875 821.195 17.3608 821.195C17.8423 821.195 18.3132 821.282 18.7734 821.457C19.2294 821.627 19.7386 821.925 20.3011 822.352C20.8594 822.773 21.5412 823.359 22.3466 824.109L25.4915 827.05L25.5937 827.05L25.5937 820.964L27 820.964L27 829.223ZM27.179 808.915C27.1705 809.452 27.0682 809.989 26.8722 810.526C26.6761 811.063 26.3459 811.553 25.8814 811.996C25.4126 812.44 24.7798 812.795 23.983 813.064C23.1818 813.332 22.1761 813.467 20.9659 813.467C19.8068 813.467 18.7798 813.358 17.8849 813.141C16.9858 812.923 16.2294 812.608 15.6158 812.195C14.9979 811.781 14.5291 811.283 14.2095 810.699C13.8899 810.111 13.7301 809.448 13.7301 808.711C13.7301 807.978 13.8771 807.326 14.1712 806.755C14.4609 806.18 14.8658 805.711 15.3857 805.349C15.9055 804.987 16.5043 804.752 17.1818 804.646L17.1818 806.205C16.5937 806.35 16.1058 806.631 15.718 807.049C15.3303 807.467 15.1364 808.021 15.1364 808.711C15.1364 809.725 15.5774 810.524 16.4595 811.108C17.3416 811.687 18.5795 811.979 20.1733 811.984L20.1733 811.881C19.8111 811.643 19.5021 811.359 19.2464 811.031C18.9865 810.699 18.7862 810.332 18.6456 809.932C18.505 809.531 18.4347 809.107 18.4347 808.66C18.4347 807.91 18.6222 807.224 18.9972 806.602C19.3679 805.979 19.8814 805.481 20.5376 805.106C21.1896 804.731 21.9375 804.543 22.7812 804.543C23.5909 804.543 24.3324 804.724 25.0057 805.087C25.6747 805.449 26.2074 805.958 26.6037 806.614C26.9957 807.266 27.1875 808.033 27.179 808.915ZM25.7727 808.915C25.7727 808.379 25.6385 807.897 25.37 807.471C25.1016 807.04 24.7415 806.702 24.2898 806.455C23.8381 806.203 23.3352 806.077 22.7812 806.077C22.2401 806.077 21.7479 806.199 21.3047 806.442C20.8572 806.68 20.5014 807.011 20.2372 807.433C19.973 807.85 19.8409 808.327 19.8409 808.864C19.8409 809.269 19.9219 809.646 20.0838 809.996C20.2415 810.345 20.4588 810.652 20.7358 810.916C21.0128 811.176 21.3303 811.381 21.6882 811.53C22.0419 811.679 22.4148 811.754 22.8068 811.754C23.3267 811.754 23.8125 811.632 24.2642 811.389C24.7159 811.142 25.0803 810.805 25.3572 810.379C25.6342 809.949 25.7727 809.461 25.7727 808.915ZM27.179 797.76C27.179 798.723 26.9169 799.543 26.3928 800.221C25.8643 800.898 25.0994 801.416 24.098 801.774C23.0923 802.132 21.8778 802.311 20.4545 802.311C19.0398 802.311 17.8317 802.132 16.8303 801.774C15.8246 801.412 15.0575 800.892 14.5291 800.214C13.9964 799.532 13.7301 798.714 13.7301 797.76C13.7301 796.805 13.9964 795.989 14.5291 795.312C15.0575 794.63 15.8246 794.11 16.8303 793.752C17.8317 793.39 19.0398 793.209 20.4545 793.209C21.8778 793.209 23.0923 793.388 24.098 793.746C25.0994 794.104 25.8643 794.621 26.3928 795.299C26.9169 795.976 27.179 796.797 27.179 797.76ZM25.7727 797.76C25.7727 796.805 25.3125 796.064 24.392 795.535C23.4716 795.007 22.1591 794.743 20.4545 794.743C19.321 794.743 18.3558 794.864 17.5589 795.107C16.7621 795.346 16.1548 795.691 15.7372 796.143C15.3196 796.59 15.1108 797.129 15.1108 797.76C15.1108 798.706 15.5774 799.445 16.5107 799.978C17.4396 800.51 18.7543 800.777 20.4545 800.777C21.5881 800.777 22.5511 800.657 23.3437 800.419C24.1364 800.18 24.7393 799.837 25.1527 799.39C25.566 798.938 25.7727 798.395 25.7727 797.76ZM13.9091 785.487L13.9091 783.902L25.5426 783.902L25.5426 779.3L13.9091 779.3L13.9091 777.714L25.5426 777.714L25.5426 773.112L13.9091 773.112L13.9091 771.527L27 771.527L27 785.487L13.9091 785.487ZM13.9091 761.701L27 761.701L27 763.286L13.9091 763.286L13.9091 761.701ZM21.0937 757.218L27 757.218L27 758.727L17.1818 758.727L17.1818 757.269L18.7159 757.269L18.7159 757.142C18.2173 756.911 17.8168 756.562 17.5142 756.093C17.2074 755.624 17.054 755.019 17.054 754.278C17.054 753.613 17.1903 753.031 17.4631 752.533C17.7315 752.034 18.1406 751.646 18.6903 751.369C19.2358 751.093 19.9261 750.954 20.7614 750.954L27 750.954L27 752.463L20.8636 752.463C20.0923 752.463 19.4915 752.663 19.0611 753.063C18.6264 753.464 18.4091 754.014 18.4091 754.713C18.4091 755.194 18.5135 755.624 18.7223 756.004C18.9311 756.379 19.2358 756.675 19.6364 756.892C20.0369 757.11 20.5227 757.218 21.0937 757.218ZM17.1818 743.825L18.4602 743.825L18.4602 749.118L17.1818 749.118L17.1818 743.825ZM27 747.533L15.8267 747.533C15.2642 747.533 14.7954 747.401 14.4204 747.136C14.0454 746.872 13.7642 746.529 13.5767 746.107C13.3892 745.685 13.2954 745.24 13.2954 744.771C13.2954 744.401 13.3253 744.098 13.3849 743.864C13.4446 743.629 13.5 743.455 13.5511 743.339L14.8551 743.774C14.8295 743.851 14.7976 743.957 14.7592 744.094C14.7209 744.226 14.7017 744.401 14.7017 744.618C14.7017 745.116 14.8274 745.477 15.0788 745.698C15.3303 745.915 15.6989 746.024 16.1847 746.024L27 746.024L27 747.533ZM27 741.711L17.1818 741.711L17.1818 740.203L27 740.203L27 741.711ZM15.5455 740.944C15.5455 741.238 15.4453 741.492 15.245 741.705C15.0447 741.914 14.804 742.018 14.5227 742.018C14.2415 742.018 14.0007 741.914 13.8004 741.705C13.6001 741.492 13.5 741.238 13.5 740.944C13.5 740.65 13.6001 740.399 13.8004 740.19C14.0007 739.977 14.2415 739.87 14.5227 739.87C14.804 739.87 15.0447 739.977 15.245 740.19C15.4453 740.399 15.5455 740.65 15.5455 740.944ZM21.0937 735.931L27 735.931L27 737.44L17.1818 737.44L17.1818 735.982L18.7159 735.982L18.7159 735.854C18.2173 735.624 17.8168 735.275 17.5142 734.806C17.2074 734.337 17.054 733.732 17.054 732.991C17.054 732.326 17.1903 731.744 17.4631 731.246C17.7315 730.747 18.1406 730.359 18.6903 730.082C19.2358 729.805 19.9261 729.667 20.7614 729.667L27 729.667L27 731.175L20.8636 731.175C20.0923 731.175 19.4915 731.376 19.0611 731.776C18.6264 732.177 18.4091 732.727 18.4091 733.425C18.4091 733.907 18.5135 734.337 18.7223 734.717C18.9311 735.092 19.2358 735.388 19.6364 735.605C20.0369 735.822 20.5227 735.931 21.0937 735.931ZM27 726.91L17.1818 726.91L17.1818 725.402L27 725.402L27 726.91ZM15.5454 726.143C15.5454 726.437 15.4453 726.691 15.245 726.904C15.0447 727.113 14.804 727.217 14.5227 727.217C14.2415 727.217 14.0007 727.113 13.8004 726.904C13.6001 726.691 13.5 726.437 13.5 726.143C13.5 725.849 13.6001 725.598 13.8004 725.389C14.0007 725.176 14.2415 725.069 14.5227 725.069C14.804 725.069 15.0447 725.176 15.245 725.389C15.4453 725.598 15.5454 725.849 15.5454 726.143ZM17.1818 718.369L18.4602 718.369L18.4602 723.457L17.1818 723.457L17.1818 718.369ZM14.8295 721.974L14.8295 720.466L24.1875 720.466C24.6136 720.466 24.9332 720.404 25.1463 720.28C25.3551 720.152 25.4957 719.99 25.5682 719.794C25.6364 719.594 25.6704 719.383 25.6704 719.162C25.6704 718.995 25.6619 718.859 25.6449 718.752C25.6236 718.646 25.6065 718.561 25.5937 718.497L26.9489 718.19C26.9872 718.292 27.0256 718.435 27.0639 718.618C27.1065 718.801 27.1278 719.034 27.1278 719.315C27.1278 719.741 27.0362 720.159 26.853 720.568C26.6697 720.973 26.3906 721.309 26.0156 721.578C25.6406 721.842 25.1676 721.974 24.5966 721.974L14.8295 721.974ZM30.6818 715.128C30.6818 715.384 30.6605 715.612 30.6179 715.812C30.5795 716.012 30.5412 716.151 30.5028 716.228L29.1733 715.844C29.267 715.478 29.3011 715.154 29.2756 714.873C29.25 714.591 29.1243 714.342 28.8984 714.125C28.6768 713.903 28.3168 713.701 27.8182 713.517L27.0511 713.236L17.1818 716.867L17.1818 715.23L25.0057 712.52L25.0057 712.418L17.1818 709.708L17.1818 708.071L28.4318 712.239C28.9389 712.426 29.3587 712.659 29.691 712.936C30.0277 713.213 30.277 713.534 30.4389 713.901C30.6008 714.263 30.6818 714.672 30.6818 715.128ZM13.9091 699.228L27 699.228L27 700.813L13.9091 700.813L13.9091 699.228ZM13.9091 694.464L27 694.464L27 696.05L13.9091 696.05L13.9091 694.464ZM19.7514 669.809L21.1577 669.809L21.1577 687.809L19.7514 687.809L19.7514 669.809ZM27 663.161L13.9091 663.161L13.9091 658.738C13.9091 657.711 14.0945 656.871 14.4652 656.219C14.8317 655.563 15.3281 655.077 15.9545 654.762C16.581 654.446 17.2798 654.289 18.0511 654.289C18.8224 654.289 19.5234 654.446 20.1541 654.762C20.7848 655.073 21.2876 655.554 21.6626 656.206C22.0334 656.858 22.2187 657.694 22.2187 658.712L22.2187 661.882L20.8125 661.882L20.8125 658.763C20.8125 658.06 20.691 657.495 20.4481 657.069C20.2052 656.643 19.8771 656.334 19.4638 656.142C19.0462 655.946 18.5753 655.848 18.0511 655.848C17.527 655.848 17.0582 655.946 16.6449 656.142C16.2315 656.334 15.9077 656.645 15.6733 657.076C15.4347 657.506 15.3153 658.077 15.3153 658.789L15.3153 661.576L27 661.576L27 663.161ZM27.2045 647.929C27.2045 648.875 26.9957 649.691 26.5781 650.377C26.1562 651.059 25.5682 651.585 24.8139 651.956C24.0554 652.322 23.1733 652.505 22.1676 652.505C21.1619 652.505 20.2756 652.322 19.5085 651.956C18.7372 651.585 18.1364 651.069 17.706 650.409C17.2713 649.744 17.054 648.968 17.054 648.082C17.054 647.571 17.1392 647.066 17.3097 646.567C17.4801 646.069 17.7571 645.615 18.1406 645.206C18.5199 644.797 19.0227 644.471 19.6491 644.228C20.2756 643.985 21.0469 643.863 21.9631 643.863L22.6023 643.863L22.6023 651.431L21.2983 651.431L21.2983 645.397C20.7443 645.397 20.25 645.508 19.8153 645.73C19.3807 645.947 19.0376 646.258 18.7862 646.663C18.5348 647.064 18.4091 647.537 18.4091 648.082C18.4091 648.683 18.5582 649.203 18.8565 649.642C19.1506 650.076 19.5341 650.411 20.0071 650.645C20.4801 650.88 20.9872 650.997 21.5284 650.997L22.3977 650.997C23.1392 650.997 23.7677 650.869 24.2834 650.613C24.7947 650.353 25.1847 649.993 25.4531 649.533C25.7173 649.073 25.8494 648.538 25.8494 647.929C25.8494 647.532 25.794 647.174 25.6832 646.855C25.5682 646.531 25.3977 646.252 25.1719 646.017C24.9418 645.783 24.6562 645.602 24.3153 645.474L24.7244 644.017C25.2187 644.17 25.6534 644.428 26.0284 644.79C26.3991 645.152 26.6889 645.6 26.8977 646.132C27.1023 646.665 27.2045 647.264 27.2045 647.929ZM27 642.446L22.0142 638.457L17.1818 642.395L17.1818 640.605L21.375 637.332L21.375 636.514L17.1818 636.514L17.1818 635.006L21.375 635.006L21.375 634.213L17.1818 630.94L17.1818 629.15L22.0142 633.062L27 629.099L27 630.915L22.7812 634.238L22.7812 635.006L27 635.006L27 636.514L22.7812 636.514L22.7812 637.281L27 640.631L27 642.446ZM24.7756 625.435L17.1818 620.705L17.1818 618.966L27 618.966L27 620.475L19.4062 620.475L27 625.179L27 626.944L17.1818 626.944L17.1818 625.435L24.7756 625.435ZM24.9545 610.834L17.1818 607.408L17.1818 605.976L27 610.22L27 611.448L17.1818 615.615L17.1818 614.209L24.9545 610.834ZM17.1818 614.695L27 614.695L27 616.203L17.1818 616.203L17.1818 614.695ZM27 606.973L17.1818 606.973L17.1818 605.465L27 605.465L27 606.973ZM17.1818 591.581L18.5881 591.581L18.5881 596.132L27 596.132L27 597.641L17.1818 597.641L17.1818 591.581ZM27.2045 585.9C27.2045 586.787 26.9936 587.564 26.5717 588.233C26.1498 588.898 25.5596 589.418 24.8011 589.793C24.0426 590.164 23.1562 590.349 22.142 590.349C21.1193 590.349 20.2266 590.164 19.4638 589.793C18.701 589.418 18.1087 588.898 17.6868 588.233C17.2649 587.564 17.054 586.787 17.054 585.9C17.054 585.014 17.2649 584.238 17.6868 583.574C18.1087 582.904 18.701 582.385 19.4638 582.014C20.2266 581.639 21.1193 581.451 22.142 581.451C23.1562 581.451 24.0426 581.639 24.8011 582.014C25.5596 582.385 26.1498 582.904 26.5717 583.574C26.9936 584.238 27.2045 585.014 27.2045 585.9ZM25.8494 585.9C25.8494 585.227 25.6768 584.673 25.3317 584.238C24.9865 583.804 24.5327 583.482 23.9702 583.273C23.4077 583.064 22.7983 582.96 22.142 582.96C21.4858 582.96 20.8743 583.064 20.3075 583.273C19.7408 583.482 19.2827 583.804 18.9332 584.238C18.5838 584.673 18.4091 585.227 18.4091 585.9C18.4091 586.574 18.5838 587.127 18.9332 587.562C19.2827 587.997 19.7408 588.319 20.3075 588.527C20.8743 588.736 21.4858 588.841 22.142 588.841C22.7983 588.841 23.4077 588.736 23.9702 588.527C24.5327 588.319 24.9865 587.997 25.3317 587.562C25.6768 587.127 25.8494 586.574 25.8494 585.9ZM18.5881 580.432L17.1818 580.432L17.1818 572.455L18.5881 572.455L18.5881 575.676L27 575.676L27 577.185L18.5881 577.185L18.5881 580.432ZM27.2045 566.775C27.2045 567.662 26.9936 568.439 26.5717 569.108C26.1498 569.773 25.5596 570.293 24.8011 570.668C24.0426 571.039 23.1562 571.224 22.142 571.224C21.1193 571.224 20.2266 571.039 19.4638 570.668C18.701 570.293 18.1087 569.773 17.6868 569.108C17.2649 568.439 17.054 567.662 17.054 566.775C17.054 565.889 17.2649 565.113 17.6868 564.449C18.1087 563.779 18.701 563.26 19.4638 562.889C20.2266 562.514 21.1193 562.326 22.142 562.326C23.1562 562.326 24.0426 562.514 24.8011 562.889C25.5596 563.26 26.1498 563.779 26.5717 564.449C26.9936 565.113 27.2045 565.889 27.2045 566.775ZM25.8494 566.775C25.8494 566.102 25.6768 565.548 25.3317 565.113C24.9865 564.679 24.5327 564.357 23.9702 564.148C23.4077 563.939 22.7983 563.835 22.142 563.835C21.4858 563.835 20.8743 563.939 20.3075 564.148C19.7408 564.357 19.2827 564.679 18.9332 565.113C18.5838 565.548 18.4091 566.102 18.4091 566.775C18.4091 567.449 18.5838 568.002 18.9332 568.437C19.2827 568.872 19.7408 569.194 20.3075 569.402C20.8743 569.611 21.4858 569.716 22.142 569.716C22.7983 569.716 23.4077 569.611 23.9702 569.402C24.5327 569.194 24.9865 568.872 25.3317 568.437C25.6768 568.002 25.8494 567.449 25.8494 566.775ZM27 560.024L17.1818 560.024L17.1818 556.009C17.1818 554.953 17.4204 554.113 17.8977 553.491C18.375 552.869 19.0057 552.558 19.7898 552.558C20.3864 552.558 20.8487 552.735 21.1768 553.088C21.5007 553.442 21.7202 553.896 21.8352 554.45C21.8864 554.088 22.0142 553.736 22.2187 553.395C22.4233 553.05 22.7045 552.764 23.0625 552.539C23.4162 552.313 23.8508 552.2 24.3665 552.2C24.8693 552.2 25.3189 552.328 25.7152 552.583C26.1115 552.839 26.4247 553.205 26.6548 553.683C26.8849 554.16 27 554.731 27 555.396L27 560.024ZM25.6193 558.592L25.6193 555.396C25.6193 554.876 25.4957 554.469 25.2486 554.175C25.0014 553.881 24.6648 553.734 24.2386 553.734C23.7315 553.734 23.3331 553.881 23.0433 554.175C22.7493 554.469 22.6023 554.876 22.6023 555.396L22.6023 558.592L25.6193 558.592ZM21.2983 558.592L21.2983 556.009C21.2983 555.605 21.2429 555.257 21.1321 554.968C21.017 554.678 20.8551 554.456 20.6463 554.303C20.4332 554.145 20.1818 554.066 19.892 554.066C19.4787 554.066 19.1548 554.239 18.9204 554.584C18.6818 554.929 18.5625 555.404 18.5625 556.009L18.5625 558.592L21.2983 558.592ZM21.4006 543.345L22.8068 543.345L22.8068 548.766L21.4006 548.766L21.4006 543.345ZM17.1818 548.408L27 548.408L27 549.916L17.1818 549.916L17.1818 548.408ZM17.1818 542.195L27 542.195L27 543.703L17.1818 543.703L17.1818 542.195ZM27.2045 535.451C27.2045 536.337 26.9936 537.115 26.5717 537.784C26.1498 538.449 25.5596 538.969 24.8011 539.344C24.0426 539.714 23.1562 539.9 22.142 539.9C21.1193 539.9 20.2265 539.714 19.4638 539.344C18.701 538.969 18.1087 538.449 17.6868 537.784C17.2649 537.115 17.054 536.337 17.054 535.451C17.054 534.565 17.2649 533.789 17.6868 533.124C18.1087 532.455 18.701 531.935 19.4638 531.565C20.2265 531.19 21.1193 531.002 22.142 531.002C23.1562 531.002 24.0426 531.19 24.8011 531.565C25.5596 531.935 26.1498 532.455 26.5717 533.124C26.9936 533.789 27.2045 534.565 27.2045 535.451ZM25.8494 535.451C25.8494 534.778 25.6768 534.224 25.3317 533.789C24.9865 533.354 24.5327 533.033 23.9702 532.824C23.4077 532.615 22.7983 532.511 22.142 532.511C21.4858 532.511 20.8743 532.615 20.3075 532.824C19.7408 533.033 19.2827 533.354 18.9332 533.789C18.5838 534.224 18.4091 534.778 18.4091 535.451C18.4091 536.124 18.5838 536.678 18.9332 537.113C19.2827 537.548 19.7408 537.869 20.3075 538.078C20.8743 538.287 21.4858 538.391 22.142 538.391C22.7983 538.391 23.4077 538.287 23.9702 538.078C24.5327 537.869 24.9865 537.548 25.3317 537.113C25.6768 536.678 25.8494 536.124 25.8494 535.451ZM27.2045 524.711C27.2045 525.631 26.9872 526.424 26.5525 527.089C26.1179 527.753 25.5192 528.265 24.7564 528.623C23.9936 528.981 23.1221 529.16 22.142 529.16C21.1449 529.16 20.2649 528.976 19.5021 528.61C18.7351 528.239 18.1363 527.724 17.706 527.063C17.2713 526.398 17.054 525.623 17.054 524.736C17.054 524.046 17.1818 523.424 17.4375 522.87C17.6932 522.316 18.0511 521.862 18.5113 521.508C18.9716 521.155 19.5085 520.935 20.1221 520.85L20.1221 522.358C19.6747 522.474 19.2784 522.729 18.9332 523.126C18.5838 523.518 18.4091 524.046 18.4091 524.711C18.4091 525.299 18.5625 525.814 18.8693 526.258C19.1719 526.697 19.6001 527.04 20.1541 527.287C20.7038 527.53 21.3494 527.651 22.0909 527.651C22.8494 527.651 23.5099 527.532 24.0724 527.293C24.6349 527.05 25.0717 526.709 25.3828 526.27C25.6939 525.827 25.8494 525.307 25.8494 524.711C25.8494 524.319 25.7812 523.963 25.6449 523.643C25.5085 523.324 25.3125 523.053 25.0568 522.831C24.8011 522.61 24.4943 522.452 24.1363 522.358L24.1363 520.85C24.7159 520.935 25.2379 521.146 25.7024 521.483C26.1626 521.815 26.5291 522.256 26.8018 522.806C27.0703 523.351 27.2045 523.986 27.2045 524.711ZM18.5881 519.418L17.1818 519.418L17.1818 511.441L18.5881 511.441L18.5881 514.662L27 514.662L27 516.171L18.5881 516.171L18.5881 519.418ZM24.7756 507.732L17.1818 503.002L17.1818 501.263L27 501.263L27 502.772L19.4062 502.772L27 507.476L27 509.24L17.1818 509.24L17.1818 507.732L24.7756 507.732Z" fill="white"/>
</svg>
