<svg width="831" height="105" viewBox="0 0 831 105" fill="none" xmlns="http://www.w3.org/2000/svg">
<path opacity="0.4" d="M1.05682 8.27273H2.31818L5.28409 15.517H5.38636L8.35227 8.27273H9.61364V17H8.625V10.3693H8.53977L5.8125 17H4.85795L2.13068 10.3693H2.04545V17H1.05682V8.27273ZM14.3406 17.1364C13.7099 17.1364 13.1658 16.9972 12.7085 16.7188C12.2539 16.4375 11.9031 16.0455 11.6559 15.5426C11.4116 15.0369 11.2894 14.4489 11.2894 13.7784C11.2894 13.108 11.4116 12.517 11.6559 12.0057C11.9031 11.4915 12.2468 11.0909 12.6871 10.804C13.1303 10.5142 13.6474 10.3693 14.2383 10.3693C14.5792 10.3693 14.9158 10.4261 15.2482 10.5398C15.5806 10.6534 15.8832 10.8381 16.1559 11.0938C16.4286 11.3466 16.646 11.6818 16.8079 12.0994C16.9698 12.517 17.0508 13.0312 17.0508 13.642V14.0682H12.0053V13.1989H16.0281C16.0281 12.8295 15.9542 12.5 15.8065 12.2102C15.6616 11.9205 15.4542 11.6918 15.1843 11.5241C14.9173 11.3565 14.6019 11.2727 14.2383 11.2727C13.8377 11.2727 13.4911 11.3722 13.1985 11.571C12.9087 11.767 12.6857 12.0227 12.5295 12.3381C12.3732 12.6534 12.2951 12.9915 12.2951 13.3523V13.9318C12.2951 14.4261 12.3803 14.8452 12.5508 15.1889C12.7241 15.5298 12.9641 15.7898 13.271 15.9688C13.5778 16.1449 13.9343 16.233 14.3406 16.233C14.6048 16.233 14.8434 16.196 15.0565 16.1222C15.2724 16.0455 15.4585 15.9318 15.6147 15.7812C15.771 15.6278 15.8917 15.4375 15.9769 15.2102L16.9485 15.483C16.8462 15.8125 16.6744 16.1023 16.4329 16.3523C16.1914 16.5994 15.8931 16.7926 15.538 16.9318C15.1829 17.0682 14.7837 17.1364 14.3406 17.1364ZM17.9712 11.392V10.4545H23.2894V11.392H21.1417V17H20.136V11.392H17.9712ZM27.0756 17.1364C26.4847 17.1364 25.9663 16.9957 25.5202 16.7145C25.0771 16.4332 24.7305 16.0398 24.4805 15.5341C24.2333 15.0284 24.1097 14.4375 24.1097 13.7614C24.1097 13.0795 24.2333 12.4844 24.4805 11.9759C24.7305 11.4673 25.0771 11.0724 25.5202 10.7912C25.9663 10.5099 26.4847 10.3693 27.0756 10.3693C27.6665 10.3693 28.1836 10.5099 28.6268 10.7912C29.0728 11.0724 29.4194 11.4673 29.6665 11.9759C29.9165 12.4844 30.0415 13.0795 30.0415 13.7614C30.0415 14.4375 29.9165 15.0284 29.6665 15.5341C29.4194 16.0398 29.0728 16.4332 28.6268 16.7145C28.1836 16.9957 27.6665 17.1364 27.0756 17.1364ZM27.0756 16.233C27.5245 16.233 27.8938 16.1179 28.1836 15.8878C28.4734 15.6577 28.6879 15.3551 28.8271 14.9801C28.9663 14.6051 29.0359 14.1989 29.0359 13.7614C29.0359 13.3239 28.9663 12.9162 28.8271 12.5384C28.6879 12.1605 28.4734 11.8551 28.1836 11.6222C27.8938 11.3892 27.5245 11.2727 27.0756 11.2727C26.6268 11.2727 26.2575 11.3892 25.9677 11.6222C25.6779 11.8551 25.4634 12.1605 25.3242 12.5384C25.185 12.9162 25.1154 13.3239 25.1154 13.7614C25.1154 14.1989 25.185 14.6051 25.3242 14.9801C25.4634 15.3551 25.6779 15.6577 25.9677 15.8878C26.2575 16.1179 26.6268 16.233 27.0756 16.233ZM30.8778 18.875V16.0625H31.4233C31.5568 15.9233 31.6719 15.7727 31.7685 15.6108C31.8651 15.4489 31.9489 15.2571 32.0199 15.0355C32.0938 14.8111 32.1563 14.5384 32.2074 14.2173C32.2585 13.8935 32.304 13.5028 32.3438 13.0455L32.5653 10.4545H36.7244V16.0625H37.7301V18.875H36.7244V17H31.8835V18.875H30.8778ZM32.5653 16.0625H35.7188V11.392H33.5028L33.3324 13.0455C33.2614 13.7301 33.1733 14.3281 33.0682 14.8395C32.9631 15.3509 32.7955 15.7585 32.5653 16.0625ZM45.0991 17.1364C44.5082 17.1364 43.9897 16.9957 43.5437 16.7145C43.1005 16.4332 42.7539 16.0398 42.5039 15.5341C42.2567 15.0284 42.1332 14.4375 42.1332 13.7614C42.1332 13.0795 42.2567 12.4844 42.5039 11.9759C42.7539 11.4673 43.1005 11.0724 43.5437 10.7912C43.9897 10.5099 44.5082 10.3693 45.0991 10.3693C45.69 10.3693 46.207 10.5099 46.6502 10.7912C47.0962 11.0724 47.4428 11.4673 47.69 11.9759C47.94 12.4844 48.065 13.0795 48.065 13.7614C48.065 14.4375 47.94 15.0284 47.69 15.5341C47.4428 16.0398 47.0962 16.4332 46.6502 16.7145C46.207 16.9957 45.69 17.1364 45.0991 17.1364ZM45.0991 16.233C45.5479 16.233 45.9173 16.1179 46.207 15.8878C46.4968 15.6577 46.7113 15.3551 46.8505 14.9801C46.9897 14.6051 47.0593 14.1989 47.0593 13.7614C47.0593 13.3239 46.9897 12.9162 46.8505 12.5384C46.7113 12.1605 46.4968 11.8551 46.207 11.6222C45.9173 11.3892 45.5479 11.2727 45.0991 11.2727C44.6502 11.2727 44.2809 11.3892 43.9911 11.6222C43.7013 11.8551 43.4869 12.1605 43.3477 12.5384C43.2085 12.9162 43.1388 13.3239 43.1388 13.7614C43.1388 14.1989 43.2085 14.6051 43.3477 14.9801C43.4869 15.3551 43.7013 15.6577 43.9911 15.8878C44.2809 16.1179 44.6502 16.233 45.0991 16.233ZM54.4581 8L54.9695 8.61364C54.7706 8.80682 54.5405 8.94176 54.2791 9.01847C54.0178 9.09517 53.7223 9.14205 53.3928 9.15909C53.0632 9.17614 52.6967 9.19318 52.2933 9.21023C51.8388 9.22727 51.4624 9.33807 51.1641 9.54261C50.8658 9.74716 50.6357 10.0426 50.4737 10.429C50.3118 10.8153 50.2081 11.2898 50.1626 11.8523H50.2479C50.4695 11.4432 50.7763 11.142 51.1683 10.9489C51.5604 10.7557 51.9808 10.6591 52.4297 10.6591C52.9411 10.6591 53.4013 10.7784 53.8104 11.017C54.2195 11.2557 54.5433 11.6094 54.782 12.0781C55.0206 12.5469 55.1399 13.125 55.1399 13.8125C55.1399 14.4972 55.0178 15.0881 54.7734 15.5852C54.532 16.0824 54.1925 16.4659 53.755 16.7358C53.3203 17.0028 52.8104 17.1364 52.2251 17.1364C51.6399 17.1364 51.1271 16.9986 50.6868 16.723C50.2464 16.4446 49.9041 16.0327 49.6598 15.4872C49.4155 14.9389 49.2933 14.2614 49.2933 13.4545V12.7557C49.2933 11.2983 49.5405 10.1932 50.0348 9.44034C50.532 8.6875 51.2791 8.2983 52.2763 8.27273C52.6286 8.26136 52.9425 8.25852 53.218 8.2642C53.4936 8.26989 53.7337 8.2571 53.9382 8.22585C54.1428 8.1946 54.3161 8.11932 54.4581 8ZM52.2251 16.233C52.62 16.233 52.9595 16.1335 53.2436 15.9347C53.5305 15.7358 53.7507 15.456 53.9041 15.0952C54.0575 14.7315 54.1342 14.304 54.1342 13.8125C54.1342 13.3352 54.0561 12.929 53.8999 12.5938C53.7464 12.2585 53.5263 12.0028 53.2393 11.8267C52.9524 11.6506 52.6087 11.5625 52.2081 11.5625C51.9155 11.5625 51.6527 11.6122 51.4197 11.7116C51.1868 11.8111 50.9879 11.9574 50.8232 12.1506C50.6584 12.3437 50.5305 12.5795 50.4396 12.858C50.3516 13.1364 50.3047 13.4545 50.299 13.8125C50.299 14.5455 50.4709 15.1321 50.8146 15.5724C51.1584 16.0128 51.6286 16.233 52.2251 16.233ZM56.6783 19.4545V10.4545H57.6499V11.4943H57.7692C57.843 11.3807 57.9453 11.2358 58.076 11.0597C58.2095 10.8807 58.3999 10.7216 58.647 10.5824C58.897 10.4403 59.2351 10.3693 59.6612 10.3693C60.2124 10.3693 60.6982 10.5071 61.1186 10.7827C61.5391 11.0582 61.8672 11.4489 62.103 11.9545C62.3388 12.4602 62.4567 13.0568 62.4567 13.7443C62.4567 14.4375 62.3388 15.0384 62.103 15.5469C61.8672 16.0526 61.5405 16.4446 61.1229 16.723C60.7053 16.9986 60.2237 17.1364 59.6783 17.1364C59.2578 17.1364 58.9212 17.0668 58.6683 16.9276C58.4155 16.7855 58.2209 16.625 58.0845 16.446C57.9482 16.2642 57.843 16.1136 57.7692 15.9943H57.6839V19.4545H56.6783ZM57.6669 13.7273C57.6669 14.2216 57.7393 14.6577 57.8842 15.0355C58.0291 15.4105 58.2408 15.7045 58.5192 15.9176C58.7976 16.1278 59.1385 16.233 59.5419 16.233C59.9624 16.233 60.3132 16.1222 60.5945 15.9006C60.8786 15.6761 61.0916 15.375 61.2337 14.9972C61.3786 14.6165 61.451 14.1932 61.451 13.7273C61.451 13.267 61.38 12.8523 61.2379 12.483C61.0987 12.1108 60.8871 11.8168 60.603 11.6009C60.3217 11.3821 59.968 11.2727 59.5419 11.2727C59.1328 11.2727 58.7891 11.3764 58.5107 11.5838C58.2322 11.7884 58.022 12.0753 57.88 12.4446C57.7379 12.8111 57.6669 13.2386 57.6669 13.7273ZM65.9169 17.1534C65.5021 17.1534 65.1257 17.0753 64.7876 16.919C64.4496 16.7599 64.1811 16.5312 63.9822 16.233C63.7834 15.9318 63.6839 15.5682 63.6839 15.142C63.6839 14.767 63.7578 14.4631 63.9055 14.2301C64.0533 13.9943 64.2507 13.8097 64.4979 13.6761C64.745 13.5426 65.0178 13.4432 65.3161 13.3778C65.6172 13.3097 65.9197 13.2557 66.2237 13.2159C66.6214 13.1648 66.9439 13.1264 67.1911 13.1009C67.4411 13.0724 67.6229 13.0256 67.7365 12.9602C67.853 12.8949 67.9112 12.7812 67.9112 12.6193V12.5852C67.9112 12.1648 67.7962 11.8381 67.5661 11.6051C67.3388 11.3722 66.9936 11.2557 66.5305 11.2557C66.0504 11.2557 65.674 11.3608 65.4013 11.571C65.1286 11.7812 64.9368 12.0057 64.826 12.2443L63.8714 11.9034C64.0419 11.5057 64.2692 11.196 64.5533 10.9744C64.8402 10.75 65.1527 10.5937 65.4908 10.5057C65.8317 10.4148 66.1669 10.3693 66.4964 10.3693C66.7067 10.3693 66.9482 10.3949 67.2209 10.446C67.4964 10.4943 67.7621 10.5952 68.0178 10.7486C68.2763 10.902 68.4908 11.1335 68.6612 11.4432C68.8317 11.7528 68.9169 12.1676 68.9169 12.6875V17H67.9112V16.1136H67.8601C67.7919 16.2557 67.6783 16.4077 67.5192 16.5696C67.3601 16.7315 67.1484 16.8693 66.8842 16.983C66.62 17.0966 66.2976 17.1534 65.9169 17.1534ZM66.0703 16.25C66.468 16.25 66.8033 16.1719 67.076 16.0156C67.3516 15.8594 67.5589 15.6577 67.6982 15.4105C67.8402 15.1634 67.9112 14.9034 67.9112 14.6307V13.7102C67.8686 13.7614 67.7749 13.8082 67.63 13.8509C67.4879 13.8906 67.3232 13.9261 67.1357 13.9574C66.951 13.9858 66.7706 14.0114 66.5945 14.0341C66.4212 14.054 66.2805 14.071 66.1726 14.0852C65.9112 14.1193 65.6669 14.1747 65.4396 14.2514C65.2152 14.3253 65.0334 14.4375 64.8942 14.5881C64.7578 14.7358 64.6896 14.9375 64.6896 15.1932C64.6896 15.5426 64.8189 15.8068 65.0774 15.9858C65.3388 16.1619 65.6697 16.25 66.0703 16.25ZM75.6104 8L76.1218 8.61364C75.9229 8.80682 75.6928 8.94176 75.4315 9.01847C75.1701 9.09517 74.8746 9.14205 74.5451 9.15909C74.2156 9.17614 73.8491 9.19318 73.4457 9.21023C72.9911 9.22727 72.6147 9.33807 72.3164 9.54261C72.0181 9.74716 71.788 10.0426 71.6261 10.429C71.4641 10.8153 71.3604 11.2898 71.315 11.8523H71.4002C71.6218 11.4432 71.9286 11.142 72.3207 10.9489C72.7127 10.7557 73.1332 10.6591 73.582 10.6591C74.0934 10.6591 74.5536 10.7784 74.9627 11.017C75.3718 11.2557 75.6957 11.6094 75.9343 12.0781C76.1729 12.5469 76.2923 13.125 76.2923 13.8125C76.2923 14.4972 76.1701 15.0881 75.9258 15.5852C75.6843 16.0824 75.3448 16.4659 74.9073 16.7358C74.4727 17.0028 73.9627 17.1364 73.3775 17.1364C72.7923 17.1364 72.2795 16.9986 71.8391 16.723C71.3988 16.4446 71.0565 16.0327 70.8121 15.4872C70.5678 14.9389 70.4457 14.2614 70.4457 13.4545V12.7557C70.4457 11.2983 70.6928 10.1932 71.1871 9.44034C71.6843 8.6875 72.4315 8.2983 73.4286 8.27273C73.7809 8.26136 74.0948 8.25852 74.3704 8.2642C74.646 8.26989 74.886 8.2571 75.0906 8.22585C75.2951 8.1946 75.4684 8.11932 75.6104 8ZM73.3775 16.233C73.7724 16.233 74.1119 16.1335 74.396 15.9347C74.6829 15.7358 74.9031 15.456 75.0565 15.0952C75.2099 14.7315 75.2866 14.304 75.2866 13.8125C75.2866 13.3352 75.2085 12.929 75.0522 12.5938C74.8988 12.2585 74.6786 12.0028 74.3917 11.8267C74.1048 11.6506 73.761 11.5625 73.3604 11.5625C73.0678 11.5625 72.805 11.6122 72.5721 11.7116C72.3391 11.8111 72.1403 11.9574 71.9755 12.1506C71.8107 12.3437 71.6829 12.5795 71.592 12.858C71.5039 13.1364 71.457 13.4545 71.4513 13.8125C71.4513 14.5455 71.6232 15.1321 71.967 15.5724C72.3107 16.0128 72.7809 16.233 73.3775 16.233ZM80.4897 17.1364C79.8988 17.1364 79.3803 16.9957 78.9343 16.7145C78.4911 16.4332 78.1445 16.0398 77.8945 15.5341C77.6474 15.0284 77.5238 14.4375 77.5238 13.7614C77.5238 13.0795 77.6474 12.4844 77.8945 11.9759C78.1445 11.4673 78.4911 11.0724 78.9343 10.7912C79.3803 10.5099 79.8988 10.3693 80.4897 10.3693C81.0806 10.3693 81.5977 10.5099 82.0408 10.7912C82.4869 11.0724 82.8335 11.4673 83.0806 11.9759C83.3306 12.4844 83.4556 13.0795 83.4556 13.7614C83.4556 14.4375 83.3306 15.0284 83.0806 15.5341C82.8335 16.0398 82.4869 16.4332 82.0408 16.7145C81.5977 16.9957 81.0806 17.1364 80.4897 17.1364ZM80.4897 16.233C80.9386 16.233 81.3079 16.1179 81.5977 15.8878C81.8874 15.6577 82.1019 15.3551 82.2411 14.9801C82.3803 14.6051 82.4499 14.1989 82.4499 13.7614C82.4499 13.3239 82.3803 12.9162 82.2411 12.5384C82.1019 12.1605 81.8874 11.8551 81.5977 11.6222C81.3079 11.3892 80.9386 11.2727 80.4897 11.2727C80.0408 11.2727 79.6715 11.3892 79.3817 11.6222C79.092 11.8551 78.8775 12.1605 78.7383 12.5384C78.5991 12.9162 78.5295 13.3239 78.5295 13.7614C78.5295 14.1989 78.5991 14.6051 78.7383 14.9801C78.8775 15.3551 79.092 15.6577 79.3817 15.8878C79.6715 16.1179 80.0408 16.233 80.4897 16.233ZM84.1353 11.392V10.4545H89.4535V11.392H87.3058V17H86.3001V11.392H84.1353ZM90.9205 17V10.4545H91.9261V13.3011H92.5909L94.9432 10.4545H96.2386L93.5966 13.608L96.2727 17H94.9773L92.8295 14.2386H91.9261V17H90.9205ZM98.3714 15.517L101.525 10.4545H102.684V17H101.678V11.9375L98.5419 17H97.3658V10.4545H98.3714V15.517Z" fill="#18191B"/>
<path opacity="0.4" d="M7.58523 35.2727V44H6.52841V36.2102H2.13068V44H1.07386V35.2727H7.58523ZM9.58061 46.4545V37.4545H10.5522V38.4943H10.6715C10.7454 38.3807 10.8477 38.2358 10.9783 38.0597C11.1119 37.8807 11.3022 37.7216 11.5494 37.5824C11.7994 37.4403 12.1374 37.3693 12.5636 37.3693C13.1147 37.3693 13.6005 37.5071 14.021 37.7827C14.4414 38.0582 14.7695 38.4489 15.0053 38.9545C15.2411 39.4602 15.359 40.0568 15.359 40.7443C15.359 41.4375 15.2411 42.0384 15.0053 42.5469C14.7695 43.0526 14.4428 43.4446 14.0252 43.723C13.6076 43.9986 13.1261 44.1364 12.5806 44.1364C12.1602 44.1364 11.8235 44.0668 11.5707 43.9276C11.3178 43.7855 11.1232 43.625 10.9869 43.446C10.8505 43.2642 10.7454 43.1136 10.6715 42.9943H10.5863V46.4545H9.58061ZM10.5692 40.7273C10.5692 41.2216 10.6417 41.6577 10.7866 42.0355C10.9315 42.4105 11.1431 42.7045 11.4215 42.9176C11.6999 43.1278 12.0408 43.233 12.4442 43.233C12.8647 43.233 13.2156 43.1222 13.4968 42.9006C13.7809 42.6761 13.994 42.375 14.136 41.9972C14.2809 41.6165 14.3533 41.1932 14.3533 40.7273C14.3533 40.267 14.2823 39.8523 14.1403 39.483C14.0011 39.1108 13.7894 38.8168 13.5053 38.6009C13.2241 38.3821 12.8704 38.2727 12.4442 38.2727C12.0352 38.2727 11.6914 38.3764 11.413 38.5838C11.1346 38.7884 10.9244 39.0753 10.7823 39.4446C10.6403 39.8111 10.5692 40.2386 10.5692 40.7273ZM17.8988 42.517L21.0522 37.4545H22.2113V44H21.2056V38.9375L18.0692 44H16.8931V37.4545H17.8988V42.517ZM28.4339 40.267V41.2045H24.8203V40.267H28.4339ZM25.0589 37.4545V44H24.0533V37.4545H25.0589ZM29.201 37.4545V44H28.1953V37.4545H29.201ZM30.147 38.392V37.4545H35.4652V38.392H33.3175V44H32.3118V38.392H30.147ZM39.3366 44.1364C38.706 44.1364 38.1619 43.9972 37.7045 43.7188C37.25 43.4375 36.8991 43.0455 36.652 42.5426C36.4077 42.0369 36.2855 41.4489 36.2855 40.7784C36.2855 40.108 36.4077 39.517 36.652 39.0057C36.8991 38.4915 37.2429 38.0909 37.6832 37.804C38.1264 37.5142 38.6435 37.3693 39.2344 37.3693C39.5753 37.3693 39.9119 37.4261 40.2443 37.5398C40.5767 37.6534 40.8793 37.8381 41.152 38.0938C41.4247 38.3466 41.642 38.6818 41.804 39.0994C41.9659 39.517 42.0469 40.0312 42.0469 40.642V41.0682H37.0014V40.1989H41.0241C41.0241 39.8295 40.9503 39.5 40.8026 39.2102C40.6577 38.9205 40.4503 38.6918 40.1804 38.5241C39.9134 38.3565 39.598 38.2727 39.2344 38.2727C38.8338 38.2727 38.4872 38.3722 38.1946 38.571C37.9048 38.767 37.6818 39.0227 37.5256 39.3381C37.3693 39.6534 37.2912 39.9915 37.2912 40.3523V40.9318C37.2912 41.4261 37.3764 41.8452 37.5469 42.1889C37.7202 42.5298 37.9602 42.7898 38.267 42.9688C38.5739 43.1449 38.9304 43.233 39.3366 43.233C39.6009 43.233 39.8395 43.196 40.0526 43.1222C40.2685 43.0455 40.4545 42.9318 40.6108 42.7812C40.767 42.6278 40.8878 42.4375 40.973 42.2102L41.9446 42.483C41.8423 42.8125 41.6705 43.1023 41.429 43.3523C41.1875 43.5994 40.8892 43.7926 40.5341 43.9318C40.179 44.0682 39.7798 44.1364 39.3366 44.1364ZM43.5767 46.4545V37.4545H44.5483V38.4943H44.6676C44.7415 38.3807 44.8438 38.2358 44.9744 38.0597C45.108 37.8807 45.2983 37.7216 45.5455 37.5824C45.7955 37.4403 46.1335 37.3693 46.5597 37.3693C47.1108 37.3693 47.5966 37.5071 48.017 37.7827C48.4375 38.0582 48.7656 38.4489 49.0014 38.9545C49.2372 39.4602 49.3551 40.0568 49.3551 40.7443C49.3551 41.4375 49.2372 42.0384 49.0014 42.5469C48.7656 43.0526 48.4389 43.4446 48.0213 43.723C47.6037 43.9986 47.1222 44.1364 46.5767 44.1364C46.1563 44.1364 45.8196 44.0668 45.5668 43.9276C45.3139 43.7855 45.1193 43.625 44.983 43.446C44.8466 43.2642 44.7415 43.1136 44.6676 42.9943H44.5824V46.4545H43.5767ZM44.5653 40.7273C44.5653 41.2216 44.6378 41.6577 44.7827 42.0355C44.9276 42.4105 45.1392 42.7045 45.4176 42.9176C45.696 43.1278 46.0369 43.233 46.4403 43.233C46.8608 43.233 47.2116 43.1222 47.4929 42.9006C47.777 42.6761 47.9901 42.375 48.1321 41.9972C48.277 41.6165 48.3494 41.1932 48.3494 40.7273C48.3494 40.267 48.2784 39.8523 48.1364 39.483C47.9972 39.1108 47.7855 38.8168 47.5014 38.6009C47.2202 38.3821 46.8665 38.2727 46.4403 38.2727C46.0313 38.2727 45.6875 38.3764 45.4091 38.5838C45.1307 38.7884 44.9205 39.0753 44.7784 39.4446C44.6364 39.8111 44.5653 40.2386 44.5653 40.7273ZM56.9233 44.1364C56.3324 44.1364 55.8139 43.9957 55.3679 43.7145C54.9247 43.4332 54.5781 43.0398 54.3281 42.5341C54.081 42.0284 53.9574 41.4375 53.9574 40.7614C53.9574 40.0795 54.081 39.4844 54.3281 38.9759C54.5781 38.4673 54.9247 38.0724 55.3679 37.7912C55.8139 37.5099 56.3324 37.3693 56.9233 37.3693C57.5142 37.3693 58.0313 37.5099 58.4744 37.7912C58.9205 38.0724 59.267 38.4673 59.5142 38.9759C59.7642 39.4844 59.8892 40.0795 59.8892 40.7614C59.8892 41.4375 59.7642 42.0284 59.5142 42.5341C59.267 43.0398 58.9205 43.4332 58.4744 43.7145C58.0313 43.9957 57.5142 44.1364 56.9233 44.1364ZM56.9233 43.233C57.3722 43.233 57.7415 43.1179 58.0312 42.8878C58.321 42.6577 58.5355 42.3551 58.6747 41.9801C58.8139 41.6051 58.8835 41.1989 58.8835 40.7614C58.8835 40.3239 58.8139 39.9162 58.6747 39.5384C58.5355 39.1605 58.321 38.8551 58.0312 38.6222C57.7415 38.3892 57.3722 38.2727 56.9233 38.2727C56.4744 38.2727 56.1051 38.3892 55.8153 38.6222C55.5256 38.8551 55.3111 39.1605 55.1719 39.5384C55.0327 39.9162 54.9631 40.3239 54.9631 40.7614C54.9631 41.1989 55.0327 41.6051 55.1719 41.9801C55.3111 42.3551 55.5256 42.6577 55.8153 42.8878C56.1051 43.1179 56.4744 43.233 56.9233 43.233ZM60.5689 38.392V37.4545H65.8871V38.392H63.7393V44H62.7337V38.392H60.5689ZM72.0597 37.4545V44H71.054V37.4545H72.0597ZM71.6676 40.5739V41.5114C71.4403 41.5966 71.2145 41.6719 70.9901 41.7372C70.7656 41.7997 70.5298 41.8494 70.2827 41.8864C70.0355 41.9205 69.7642 41.9375 69.4688 41.9375C68.7273 41.9375 68.1321 41.7372 67.6832 41.3366C67.2372 40.9361 67.0142 40.3352 67.0142 39.5341V37.4375H68.0199V39.5341C68.0199 39.8693 68.0838 40.1449 68.2116 40.3608C68.3395 40.5767 68.5128 40.7372 68.7315 40.8423C68.9503 40.9474 69.196 41 69.4688 41C69.8949 41 70.2798 40.9616 70.6236 40.8849C70.9702 40.8054 71.3182 40.7017 71.6676 40.5739ZM76.6491 44.1364C76.0185 44.1364 75.4744 43.9972 75.017 43.7188C74.5625 43.4375 74.2116 43.0455 73.9645 42.5426C73.7202 42.0369 73.598 41.4489 73.598 40.7784C73.598 40.108 73.7202 39.517 73.9645 39.0057C74.2116 38.4915 74.5554 38.0909 74.9957 37.804C75.4389 37.5142 75.956 37.3693 76.5469 37.3693C76.8878 37.3693 77.2244 37.4261 77.5568 37.5398C77.8892 37.6534 78.1918 37.8381 78.4645 38.0938C78.7372 38.3466 78.9545 38.6818 79.1165 39.0994C79.2784 39.517 79.3594 40.0312 79.3594 40.642V41.0682H74.3139V40.1989H78.3366C78.3366 39.8295 78.2628 39.5 78.1151 39.2102C77.9702 38.9205 77.7628 38.6918 77.4929 38.5241C77.2259 38.3565 76.9105 38.2727 76.5469 38.2727C76.1463 38.2727 75.7997 38.3722 75.5071 38.571C75.2173 38.767 74.9943 39.0227 74.8381 39.3381C74.6818 39.6534 74.6037 39.9915 74.6037 40.3523V40.9318C74.6037 41.4261 74.6889 41.8452 74.8594 42.1889C75.0327 42.5298 75.2727 42.7898 75.5795 42.9688C75.8864 43.1449 76.2429 43.233 76.6491 43.233C76.9134 43.233 77.152 43.196 77.3651 43.1222C77.581 43.0455 77.767 42.9318 77.9233 42.7812C78.0795 42.6278 78.2003 42.4375 78.2855 42.2102L79.2571 42.483C79.1548 42.8125 78.983 43.1023 78.7415 43.3523C78.5 43.5994 78.2017 43.7926 77.8466 43.9318C77.4915 44.0682 77.0923 44.1364 76.6491 44.1364ZM80.2798 38.392V37.4545H85.598V38.392H83.4503V44H82.4446V38.392H80.2798ZM88.6513 44.1534C88.2365 44.1534 87.8601 44.0753 87.522 43.919C87.1839 43.7599 86.9155 43.5312 86.7166 43.233C86.5178 42.9318 86.4183 42.5682 86.4183 42.142C86.4183 41.767 86.4922 41.4631 86.6399 41.2301C86.7876 40.9943 86.9851 40.8097 87.2322 40.6761C87.4794 40.5426 87.7521 40.4432 88.0504 40.3778C88.3516 40.3097 88.6541 40.2557 88.9581 40.2159C89.3558 40.1648 89.6783 40.1264 89.9254 40.1009C90.1754 40.0724 90.3572 40.0256 90.4709 39.9602C90.5874 39.8949 90.6456 39.7812 90.6456 39.6193V39.5852C90.6456 39.1648 90.5305 38.8381 90.3004 38.6051C90.0732 38.3722 89.728 38.2557 89.2649 38.2557C88.7848 38.2557 88.4084 38.3608 88.1357 38.571C87.8629 38.7812 87.6712 39.0057 87.5604 39.2443L86.6058 38.9034C86.7763 38.5057 87.0036 38.196 87.2876 37.9744C87.5746 37.75 87.8871 37.5937 88.2251 37.5057C88.5661 37.4148 88.9013 37.3693 89.2308 37.3693C89.4411 37.3693 89.6825 37.3949 89.9553 37.446C90.2308 37.4943 90.4964 37.5952 90.7521 37.7486C91.0107 37.902 91.2251 38.1335 91.3956 38.4432C91.5661 38.7528 91.6513 39.1676 91.6513 39.6875V44H90.6456V43.1136H90.5945C90.5263 43.2557 90.4126 43.4077 90.2536 43.5696C90.0945 43.7315 89.8828 43.8693 89.6186 43.983C89.3544 44.0966 89.032 44.1534 88.6513 44.1534ZM88.8047 43.25C89.2024 43.25 89.5376 43.1719 89.8104 43.0156C90.0859 42.8594 90.2933 42.6577 90.4325 42.4105C90.5746 42.1634 90.6456 41.9034 90.6456 41.6307V40.7102C90.603 40.7614 90.5092 40.8082 90.3643 40.8509C90.2223 40.8906 90.0575 40.9261 89.87 40.9574C89.6854 40.9858 89.505 41.0114 89.3288 41.0341C89.1555 41.054 89.0149 41.071 88.907 41.0852C88.6456 41.1193 88.4013 41.1747 88.174 41.2514C87.9496 41.3253 87.7678 41.4375 87.6286 41.5881C87.4922 41.7358 87.424 41.9375 87.424 42.1932C87.424 42.5426 87.5533 42.8068 87.8118 42.9858C88.0732 43.1619 88.4041 43.25 88.8047 43.25ZM99.521 44.1364C98.93 44.1364 98.4116 43.9957 97.9656 43.7145C97.5224 43.4332 97.1758 43.0398 96.9258 42.5341C96.6786 42.0284 96.555 41.4375 96.555 40.7614C96.555 40.0795 96.6786 39.4844 96.9258 38.9759C97.1758 38.4673 97.5224 38.0724 97.9656 37.7912C98.4116 37.5099 98.93 37.3693 99.521 37.3693C100.112 37.3693 100.629 37.5099 101.072 37.7912C101.518 38.0724 101.865 38.4673 102.112 38.9759C102.362 39.4844 102.487 40.0795 102.487 40.7614C102.487 41.4375 102.362 42.0284 102.112 42.5341C101.865 43.0398 101.518 43.4332 101.072 43.7145C100.629 43.9957 100.112 44.1364 99.521 44.1364ZM99.521 43.233C99.9698 43.233 100.339 43.1179 100.629 42.8878C100.919 42.6577 101.133 42.3551 101.272 41.9801C101.412 41.6051 101.481 41.1989 101.481 40.7614C101.481 40.3239 101.412 39.9162 101.272 39.5384C101.133 39.1605 100.919 38.8551 100.629 38.6222C100.339 38.3892 99.9698 38.2727 99.521 38.2727C99.0721 38.2727 98.7028 38.3892 98.413 38.6222C98.1232 38.8551 97.9087 39.1605 97.7695 39.5384C97.6303 39.9162 97.5607 40.3239 97.5607 40.7614C97.5607 41.1989 97.6303 41.6051 97.7695 41.9801C97.9087 42.3551 98.1232 42.6577 98.413 42.8878C98.7028 43.1179 99.0721 43.233 99.521 43.233ZM107.397 44V37.4545H110.073C110.778 37.4545 111.337 37.6136 111.752 37.9318C112.167 38.25 112.374 38.6705 112.374 39.1932C112.374 39.5909 112.256 39.8991 112.021 40.1179C111.785 40.3338 111.482 40.4801 111.113 40.5568C111.354 40.5909 111.589 40.6761 111.816 40.8125C112.046 40.9489 112.237 41.1364 112.387 41.375C112.538 41.6108 112.613 41.9006 112.613 42.2443C112.613 42.5795 112.528 42.8793 112.357 43.1435C112.187 43.4077 111.942 43.6165 111.624 43.7699C111.306 43.9233 110.925 44 110.482 44H107.397ZM108.352 43.0795H110.482C110.829 43.0795 111.1 42.9972 111.296 42.8324C111.492 42.6676 111.59 42.4432 111.59 42.1591C111.59 41.821 111.492 41.5554 111.296 41.3622C111.1 41.1662 110.829 41.0682 110.482 41.0682H108.352V43.0795ZM108.352 40.1989H110.073C110.343 40.1989 110.575 40.1619 110.768 40.0881C110.961 40.0114 111.109 39.9034 111.211 39.7642C111.316 39.6222 111.369 39.4545 111.369 39.2614C111.369 38.9858 111.254 38.7699 111.023 38.6136C110.793 38.4545 110.477 38.375 110.073 38.375H108.352V40.1989ZM114.135 44V37.4545H116.811C117.516 37.4545 118.076 37.6136 118.49 37.9318C118.905 38.25 119.113 38.6705 119.113 39.1932C119.113 39.5909 118.995 39.8991 118.759 40.1179C118.523 40.3338 118.221 40.4801 117.851 40.5568C118.093 40.5909 118.327 40.6761 118.554 40.8125C118.784 40.9489 118.975 41.1364 119.125 41.375C119.276 41.6108 119.351 41.9006 119.351 42.2443C119.351 42.5795 119.266 42.8793 119.096 43.1435C118.925 43.4077 118.681 43.6165 118.363 43.7699C118.044 43.9233 117.664 44 117.221 44H114.135ZM115.09 43.0795H117.221C117.567 43.0795 117.838 42.9972 118.034 42.8324C118.23 42.6676 118.328 42.4432 118.328 42.1591C118.328 41.821 118.23 41.5554 118.034 41.3622C117.838 41.1662 117.567 41.0682 117.221 41.0682H115.09V43.0795ZM115.09 40.1989H116.811C117.081 40.1989 117.313 40.1619 117.506 40.0881C117.699 40.0114 117.847 39.9034 117.949 39.7642C118.054 39.6222 118.107 39.4545 118.107 39.2614C118.107 38.9858 117.992 38.7699 117.762 38.6136C117.532 38.4545 117.215 38.375 116.811 38.375H115.09V40.1989ZM123.533 44.1364C122.942 44.1364 122.423 43.9957 121.977 43.7145C121.534 43.4332 121.188 43.0398 120.938 42.5341C120.69 42.0284 120.567 41.4375 120.567 40.7614C120.567 40.0795 120.69 39.4844 120.938 38.9759C121.188 38.4673 121.534 38.0724 121.977 37.7912C122.423 37.5099 122.942 37.3693 123.533 37.3693C124.124 37.3693 124.641 37.5099 125.084 37.7912C125.53 38.0724 125.876 38.4673 126.124 38.9759C126.374 39.4844 126.499 40.0795 126.499 40.7614C126.499 41.4375 126.374 42.0284 126.124 42.5341C125.876 43.0398 125.53 43.4332 125.084 43.7145C124.641 43.9957 124.124 44.1364 123.533 44.1364ZM123.533 43.233C123.982 43.233 124.351 43.1179 124.641 42.8878C124.93 42.6577 125.145 42.3551 125.284 41.9801C125.423 41.6051 125.493 41.1989 125.493 40.7614C125.493 40.3239 125.423 39.9162 125.284 39.5384C125.145 39.1605 124.93 38.8551 124.641 38.6222C124.351 38.3892 123.982 38.2727 123.533 38.2727C123.084 38.2727 122.714 38.3892 122.425 38.6222C122.135 38.8551 121.92 39.1605 121.781 39.5384C121.642 39.9162 121.572 40.3239 121.572 40.7614C121.572 41.1989 121.642 41.6051 121.781 41.9801C121.92 42.3551 122.135 42.6577 122.425 42.8878C122.714 43.1179 123.084 43.233 123.533 43.233ZM127.335 45.875V43.0625H127.88C128.014 42.9233 128.129 42.7727 128.225 42.6108C128.322 42.4489 128.406 42.2571 128.477 42.0355C128.551 41.8111 128.613 41.5384 128.664 41.2173C128.716 40.8935 128.761 40.5028 128.801 40.0455L129.022 37.4545H133.181V43.0625H134.187V45.875H133.181V44H128.341V45.875H127.335ZM129.022 43.0625H132.176V38.392H129.96L129.789 40.0455C129.718 40.7301 129.63 41.3281 129.525 41.8395C129.42 42.3509 129.252 42.7585 129.022 43.0625ZM138.266 44.1364C137.636 44.1364 137.092 43.9972 136.634 43.7188C136.18 43.4375 135.829 43.0455 135.582 42.5426C135.337 42.0369 135.215 41.4489 135.215 40.7784C135.215 40.108 135.337 39.517 135.582 39.0057C135.829 38.4915 136.173 38.0909 136.613 37.804C137.056 37.5142 137.573 37.3693 138.164 37.3693C138.505 37.3693 138.842 37.4261 139.174 37.5398C139.506 37.6534 139.809 37.8381 140.082 38.0938C140.354 38.3466 140.572 38.6818 140.734 39.0994C140.896 39.517 140.977 40.0312 140.977 40.642V41.0682H135.931V40.1989H139.954C139.954 39.8295 139.88 39.5 139.732 39.2102C139.587 38.9205 139.38 38.6918 139.11 38.5241C138.843 38.3565 138.528 38.2727 138.164 38.2727C137.763 38.2727 137.417 38.3722 137.124 38.571C136.835 38.767 136.612 39.0227 136.455 39.3381C136.299 39.6534 136.221 39.9915 136.221 40.3523V40.9318C136.221 41.4261 136.306 41.8452 136.477 42.1889C136.65 42.5298 136.89 42.7898 137.197 42.9688C137.504 43.1449 137.86 43.233 138.266 43.233C138.531 43.233 138.769 43.196 138.982 43.1222C139.198 43.0455 139.384 42.9318 139.54 42.7812C139.697 42.6278 139.817 42.4375 139.903 42.2102L140.874 42.483C140.772 42.8125 140.6 43.1023 140.359 43.3523C140.117 43.5994 139.819 43.7926 139.464 43.9318C139.109 44.0682 138.71 44.1364 138.266 44.1364Z" fill="#18191B"/>
<path opacity="0.4" d="M7.58523 62.2727V71H6.52841V63.2102H2.13068V71H1.07386V62.2727H7.58523ZM10.2283 73.4545C10.0579 73.4545 9.90589 73.4403 9.77237 73.4119C9.63885 73.3864 9.54652 73.3608 9.49538 73.3352L9.75107 72.4489C9.99538 72.5114 10.2113 72.5341 10.3988 72.517C10.5863 72.5 10.7525 72.4162 10.8974 72.2656C11.0451 72.1179 11.18 71.8778 11.3022 71.5455L11.4897 71.0341L9.06925 64.4545H10.1602L11.967 69.6705H12.0352L13.842 64.4545H14.9329L12.1545 71.9545C12.0295 72.2926 11.8746 72.5724 11.69 72.794C11.5053 73.0185 11.2908 73.1847 11.0465 73.2926C10.805 73.4006 10.5323 73.4545 10.2283 73.4545ZM15.8853 65.392V64.4545H21.2035V65.392H19.0558V71H18.0501V65.392H15.8853ZM23.5398 66.8239H25.4148C26.1818 66.8239 26.7685 67.0185 27.1747 67.4077C27.581 67.7969 27.7841 68.2898 27.7841 68.8864C27.7841 69.2784 27.6932 69.6349 27.5114 69.956C27.3295 70.2741 27.0625 70.5284 26.7102 70.7188C26.358 70.9062 25.9261 71 25.4148 71H22.6705V64.4545H23.6761V70.0625H25.4148C25.8125 70.0625 26.1392 69.9574 26.3949 69.7472C26.6506 69.5369 26.7784 69.267 26.7784 68.9375C26.7784 68.5909 26.6506 68.3082 26.3949 68.0895C26.1392 67.8707 25.8125 67.7614 25.4148 67.7614H23.5398V66.8239ZM32.69 71V64.4545H33.6957V67.3011H34.3604L36.7127 64.4545H38.0082L35.3661 67.608L38.0423 71H36.7468L34.5991 68.2386H33.6957V71H32.69ZM42.5103 73.4545V64.4545H43.4819V65.4943H43.6012C43.6751 65.3807 43.7773 65.2358 43.908 65.0597C44.0415 64.8807 44.2319 64.7216 44.479 64.5824C44.729 64.4403 45.0671 64.3693 45.4933 64.3693C46.0444 64.3693 46.5302 64.5071 46.9506 64.7827C47.3711 65.0582 47.6992 65.4489 47.935 65.9545C48.1708 66.4602 48.2887 67.0568 48.2887 67.7443C48.2887 68.4375 48.1708 69.0384 47.935 69.5469C47.6992 70.0526 47.3725 70.4446 46.9549 70.723C46.5373 70.9986 46.0558 71.1364 45.5103 71.1364C45.0898 71.1364 44.7532 71.0668 44.5004 70.9276C44.2475 70.7855 44.0529 70.625 43.9165 70.446C43.7802 70.2642 43.6751 70.1136 43.6012 69.9943H43.516V73.4545H42.5103ZM43.4989 67.7273C43.4989 68.2216 43.5714 68.6577 43.7163 69.0355C43.8612 69.4105 44.0728 69.7045 44.3512 69.9176C44.6296 70.1278 44.9705 70.233 45.3739 70.233C45.7944 70.233 46.1452 70.1222 46.4265 69.9006C46.7106 69.6761 46.9237 69.375 47.0657 68.9972C47.2106 68.6165 47.283 68.1932 47.283 67.7273C47.283 67.267 47.212 66.8523 47.07 66.483C46.9308 66.1108 46.7191 65.8168 46.435 65.6009C46.1538 65.3821 45.8001 65.2727 45.3739 65.2727C44.9648 65.2727 44.6211 65.3764 44.3427 65.5838C44.0643 65.7884 43.854 66.0753 43.712 66.4446C43.57 66.8111 43.4989 67.2386 43.4989 67.7273ZM52.5671 71.1364C51.9364 71.1364 51.3924 70.9972 50.935 70.7188C50.4805 70.4375 50.1296 70.0455 49.8825 69.5426C49.6381 69.0369 49.516 68.4489 49.516 67.7784C49.516 67.108 49.6381 66.517 49.8825 66.0057C50.1296 65.4915 50.4734 65.0909 50.9137 64.804C51.3569 64.5142 51.8739 64.3693 52.4648 64.3693C52.8058 64.3693 53.1424 64.4261 53.4748 64.5398C53.8072 64.6534 54.1097 64.8381 54.3825 65.0938C54.6552 65.3466 54.8725 65.6818 55.0344 66.0994C55.1964 66.517 55.2773 67.0312 55.2773 67.642V68.0682H50.2319V67.1989H54.2546C54.2546 66.8295 54.1808 66.5 54.033 66.2102C53.8881 65.9205 53.6808 65.6918 53.4109 65.5241C53.1438 65.3565 52.8285 65.2727 52.4648 65.2727C52.0643 65.2727 51.7177 65.3722 51.4251 65.571C51.1353 65.767 50.9123 66.0227 50.756 66.3381C50.5998 66.6534 50.5217 66.9915 50.5217 67.3523V67.9318C50.5217 68.4261 50.6069 68.8452 50.7773 69.1889C50.9506 69.5298 51.1907 69.7898 51.4975 69.9688C51.8043 70.1449 52.1609 70.233 52.5671 70.233C52.8313 70.233 53.07 70.196 53.283 70.1222C53.4989 70.0455 53.685 69.9318 53.8413 69.7812C53.9975 69.6278 54.1183 69.4375 54.2035 69.2102L55.1751 69.483C55.0728 69.8125 54.9009 70.1023 54.6594 70.3523C54.418 70.5994 54.1197 70.7926 53.7646 70.9318C53.4094 71.0682 53.0103 71.1364 52.5671 71.1364ZM56.3981 69.3295H57.4719C57.4947 69.625 57.6282 69.8494 57.8725 70.0028C58.1197 70.1562 58.4407 70.233 58.8356 70.233C59.239 70.233 59.5842 70.1506 59.8711 69.9858C60.158 69.8182 60.3015 69.5483 60.3015 69.1761C60.3015 68.9574 60.2475 68.767 60.1396 68.6051C60.0316 68.4403 59.8796 68.3125 59.6836 68.2216C59.4876 68.1307 59.256 68.0852 58.989 68.0852H57.864V67.1818H58.989C59.3896 67.1818 59.685 67.0909 59.8754 66.9091C60.0685 66.7273 60.1651 66.5 60.1651 66.2273C60.1651 65.9347 60.0614 65.7003 59.854 65.5241C59.6467 65.3452 59.3526 65.2557 58.9719 65.2557C58.5884 65.2557 58.2688 65.3423 58.0131 65.5156C57.7575 65.6861 57.6225 65.9062 57.6083 66.1761H56.5515C56.5629 65.8239 56.6708 65.5128 56.8754 65.2429C57.0799 64.9702 57.3583 64.7571 57.7106 64.6037C58.0629 64.4474 58.4663 64.3693 58.9208 64.3693C59.381 64.3693 59.7802 64.4503 60.1183 64.6122C60.4592 64.7713 60.7219 64.9886 60.9066 65.2642C61.0941 65.5369 61.1879 65.8466 61.1879 66.1932C61.1879 66.5625 61.0842 66.8608 60.8768 67.0881C60.6694 67.3153 60.4094 67.4773 60.0969 67.5739V67.642C60.3441 67.6591 60.5586 67.7386 60.7404 67.8807C60.9251 68.0199 61.0685 68.2031 61.1708 68.4304C61.2731 68.6548 61.3242 68.9034 61.3242 69.1761C61.3242 69.5739 61.2177 69.9205 61.0046 70.2159C60.7915 70.5085 60.4989 70.7358 60.1268 70.8977C59.7546 71.0568 59.3299 71.1364 58.8526 71.1364C58.3896 71.1364 57.9748 71.0611 57.6083 70.9105C57.2418 70.7571 56.9506 70.5455 56.7347 70.2756C56.5217 70.0028 56.4094 69.6875 56.3981 69.3295ZM63.3846 73.4545C63.2141 73.4545 63.0621 73.4403 62.9286 73.4119C62.7951 73.3864 62.7028 73.3608 62.6516 73.3352L62.9073 72.4489C63.1516 72.5114 63.3675 72.5341 63.555 72.517C63.7425 72.5 63.9087 72.4162 64.0536 72.2656C64.2013 72.1179 64.3363 71.8778 64.4585 71.5455L64.646 71.0341L62.2255 64.4545H63.3164L65.1232 69.6705H65.1914L66.9982 64.4545H68.0891L65.3107 71.9545C65.1857 72.2926 65.0309 72.5724 64.8462 72.794C64.6616 73.0185 64.4471 73.1847 64.2028 73.2926C63.9613 73.4006 63.6886 73.4545 63.3846 73.4545ZM68.2862 71V70.0625H68.5249C68.7209 70.0625 68.8842 70.0241 69.0149 69.9474C69.1456 69.8679 69.2507 69.7301 69.3303 69.5341C69.4126 69.3352 69.4751 69.0597 69.5178 68.7074C69.5632 68.3523 69.5959 67.9006 69.6158 67.3523L69.7351 64.4545H74.0987V71H73.093V65.392H70.6896L70.5874 67.7273C70.5646 68.2642 70.5163 68.7372 70.4425 69.1463C70.3714 69.5526 70.2621 69.8935 70.1143 70.169C69.9695 70.4446 69.7763 70.652 69.5348 70.7912C69.2933 70.9304 68.9908 71 68.6271 71H68.2862ZM76.8132 66.8239H78.6882C79.4553 66.8239 80.0419 67.0185 80.4482 67.4077C80.8544 67.7969 81.0575 68.2898 81.0575 68.8864C81.0575 69.2784 80.9666 69.6349 80.7848 69.956C80.603 70.2741 80.3359 70.5284 79.9837 70.7188C79.6314 70.9062 79.1996 71 78.6882 71H75.9439V64.4545H76.9496V70.0625H78.6882C79.0859 70.0625 79.4126 69.9574 79.6683 69.7472C79.924 69.5369 80.0518 69.267 80.0518 68.9375C80.0518 68.5909 79.924 68.3082 79.6683 68.0895C79.4126 67.8707 79.0859 67.7614 78.6882 67.7614H76.8132V66.8239ZM81.5337 65.392V64.4545H86.8519V65.392H84.7042V71H83.6985V65.392H81.5337ZM89.9052 71.1534C89.4904 71.1534 89.114 71.0753 88.7759 70.919C88.4379 70.7599 88.1694 70.5312 87.9705 70.233C87.7717 69.9318 87.6722 69.5682 87.6722 69.142C87.6722 68.767 87.7461 68.4631 87.8938 68.2301C88.0415 67.9943 88.239 67.8097 88.4862 67.6761C88.7333 67.5426 89.006 67.4432 89.3043 67.3778C89.6055 67.3097 89.908 67.2557 90.212 67.2159C90.6097 67.1648 90.9322 67.1264 91.1793 67.1009C91.4293 67.0724 91.6112 67.0256 91.7248 66.9602C91.8413 66.8949 91.8995 66.7812 91.8995 66.6193V66.5852C91.8995 66.1648 91.7844 65.8381 91.5543 65.6051C91.3271 65.3722 90.9819 65.2557 90.5188 65.2557C90.0387 65.2557 89.6623 65.3608 89.3896 65.571C89.1168 65.7812 88.9251 66.0057 88.8143 66.2443L87.8597 65.9034C88.0302 65.5057 88.2575 65.196 88.5415 64.9744C88.8285 64.75 89.141 64.5937 89.479 64.5057C89.82 64.4148 90.1552 64.3693 90.4847 64.3693C90.695 64.3693 90.9364 64.3949 91.2092 64.446C91.4847 64.4943 91.7504 64.5952 92.006 64.7486C92.2646 64.902 92.479 65.1335 92.6495 65.4432C92.82 65.7528 92.9052 66.1676 92.9052 66.6875V71H91.8995V70.1136H91.8484C91.7802 70.2557 91.6665 70.4077 91.5075 70.5696C91.3484 70.7315 91.1367 70.8693 90.8725 70.983C90.6083 71.0966 90.2859 71.1534 89.9052 71.1534ZM90.0586 70.25C90.4563 70.25 90.7915 70.1719 91.0643 70.0156C91.3398 69.8594 91.5472 69.6577 91.6864 69.4105C91.8285 69.1634 91.8995 68.9034 91.8995 68.6307V67.7102C91.8569 67.7614 91.7631 67.8082 91.6183 67.8509C91.4762 67.8906 91.3114 67.9261 91.1239 67.9574C90.9393 67.9858 90.7589 68.0114 90.5827 68.0341C90.4094 68.054 90.2688 68.071 90.1609 68.0852C89.8995 68.1193 89.6552 68.1747 89.4279 68.2514C89.2035 68.3253 89.0217 68.4375 88.8825 68.5881C88.7461 68.7358 88.6779 68.9375 88.6779 69.1932C88.6779 69.5426 88.8072 69.8068 89.0657 69.9858C89.3271 70.1619 89.658 70.25 90.0586 70.25ZM93.8501 65.392V64.4545H99.1683V65.392H97.0206V71H96.0149V65.392H93.8501ZM102.222 71.1534C101.807 71.1534 101.43 71.0753 101.092 70.919C100.754 70.7599 100.486 70.5312 100.287 70.233C100.088 69.9318 99.9886 69.5682 99.9886 69.142C99.9886 68.767 100.063 68.4631 100.21 68.2301C100.358 67.9943 100.555 67.8097 100.803 67.6761C101.05 67.5426 101.322 67.4432 101.621 67.3778C101.922 67.3097 102.224 67.2557 102.528 67.2159C102.926 67.1648 103.249 67.1264 103.496 67.1009C103.746 67.0724 103.928 67.0256 104.041 66.9602C104.158 66.8949 104.216 66.7812 104.216 66.6193V66.5852C104.216 66.1648 104.101 65.8381 103.871 65.6051C103.643 65.3722 103.298 65.2557 102.835 65.2557C102.355 65.2557 101.979 65.3608 101.706 65.571C101.433 65.7812 101.241 66.0057 101.131 66.2443L100.176 65.9034C100.347 65.5057 100.574 65.196 100.858 64.9744C101.145 64.75 101.457 64.5937 101.795 64.5057C102.136 64.4148 102.472 64.3693 102.801 64.3693C103.011 64.3693 103.253 64.3949 103.526 64.446C103.801 64.4943 104.067 64.5952 104.322 64.7486C104.581 64.902 104.795 65.1335 104.966 65.4432C105.136 65.7528 105.222 66.1676 105.222 66.6875V71H104.216V70.1136H104.165C104.097 70.2557 103.983 70.4077 103.824 70.5696C103.665 70.7315 103.453 70.8693 103.189 70.983C102.925 71.0966 102.602 71.1534 102.222 71.1534ZM102.375 70.25C102.773 70.25 103.108 70.1719 103.381 70.0156C103.656 69.8594 103.864 69.6577 104.003 69.4105C104.145 69.1634 104.216 68.9034 104.216 68.6307V67.7102C104.173 67.7614 104.08 67.8082 103.935 67.8509C103.793 67.8906 103.628 67.9261 103.44 67.9574C103.256 67.9858 103.075 68.0114 102.899 68.0341C102.726 68.054 102.585 68.071 102.477 68.0852C102.216 68.1193 101.972 68.1747 101.744 68.2514C101.52 68.3253 101.338 68.4375 101.199 68.5881C101.063 68.7358 100.994 68.9375 100.994 69.1932C100.994 69.5426 101.124 69.8068 101.382 69.9858C101.643 70.1619 101.974 70.25 102.375 70.25ZM110.637 69.6364L112.921 64.4545H113.875L111.046 71H110.228L107.449 64.4545H108.387L110.637 69.6364ZM108.063 64.4545V71H107.057V64.4545H108.063ZM113.211 71V64.4545H114.216V71H113.211Z" fill="#18191B"/>
<path opacity="0.4" d="M1.05682 98V89.2727H2.11364V93.1591H6.76705V89.2727H7.82386V98H6.76705V94.0966H2.11364V98H1.05682ZM11.7294 98.1534C11.3146 98.1534 10.9382 98.0753 10.6001 97.919C10.2621 97.7599 9.99361 97.5312 9.79474 97.233C9.59588 96.9318 9.49645 96.5682 9.49645 96.142C9.49645 95.767 9.57031 95.4631 9.71804 95.2301C9.86577 94.9943 10.0632 94.8097 10.3104 94.6761C10.5575 94.5426 10.8303 94.4432 11.1286 94.3778C11.4297 94.3097 11.7322 94.2557 12.0362 94.2159C12.4339 94.1648 12.7564 94.1264 13.0036 94.1009C13.2536 94.0724 13.4354 94.0256 13.549 93.9602C13.6655 93.8949 13.7237 93.7812 13.7237 93.6193V93.5852C13.7237 93.1648 13.6087 92.8381 13.3786 92.6051C13.1513 92.3722 12.8061 92.2557 12.343 92.2557C11.8629 92.2557 11.4865 92.3608 11.2138 92.571C10.9411 92.7812 10.7493 93.0057 10.6385 93.2443L9.68395 92.9034C9.8544 92.5057 10.0817 92.196 10.3658 91.9744C10.6527 91.75 10.9652 91.5937 11.3033 91.5057C11.6442 91.4148 11.9794 91.3693 12.3089 91.3693C12.5192 91.3693 12.7607 91.3949 13.0334 91.446C13.3089 91.4943 13.5746 91.5952 13.8303 91.7486C14.0888 91.902 14.3033 92.1335 14.4737 92.4432C14.6442 92.7528 14.7294 93.1676 14.7294 93.6875V98H13.7237V97.1136H13.6726C13.6044 97.2557 13.4908 97.4077 13.3317 97.5696C13.1726 97.7315 12.9609 97.8693 12.6967 97.983C12.4325 98.0966 12.1101 98.1534 11.7294 98.1534ZM11.8828 97.25C12.2805 97.25 12.6158 97.1719 12.8885 97.0156C13.1641 96.8594 13.3714 96.6577 13.5107 96.4105C13.6527 96.1634 13.7237 95.9034 13.7237 95.6307V94.7102C13.6811 94.7614 13.5874 94.8082 13.4425 94.8509C13.3004 94.8906 13.1357 94.9261 12.9482 94.9574C12.7635 94.9858 12.5831 95.0114 12.407 95.0341C12.2337 95.054 12.093 95.071 11.9851 95.0852C11.7237 95.1193 11.4794 95.1747 11.2521 95.2514C11.0277 95.3253 10.8459 95.4375 10.7067 95.5881C10.5703 95.7358 10.5021 95.9375 10.5021 96.1932C10.5021 96.5426 10.6314 96.8068 10.8899 96.9858C11.1513 97.1619 11.4822 97.25 11.8828 97.25ZM16.1559 96.3295H17.2298C17.2525 96.625 17.386 96.8494 17.6303 97.0028C17.8775 97.1562 18.1985 97.233 18.5934 97.233C18.9968 97.233 19.342 97.1506 19.6289 96.9858C19.9158 96.8182 20.0593 96.5483 20.0593 96.1761C20.0593 95.9574 20.0053 95.767 19.8974 95.6051C19.7894 95.4403 19.6374 95.3125 19.4414 95.2216C19.2454 95.1307 19.0138 95.0852 18.7468 95.0852H17.6218V94.1818H18.7468C19.1474 94.1818 19.4428 94.0909 19.6332 93.9091C19.8263 93.7273 19.9229 93.5 19.9229 93.2273C19.9229 92.9347 19.8192 92.7003 19.6119 92.5241C19.4045 92.3452 19.1104 92.2557 18.7298 92.2557C18.3462 92.2557 18.0266 92.3423 17.771 92.5156C17.5153 92.6861 17.3803 92.9062 17.3661 93.1761H16.3093C16.3207 92.8239 16.4286 92.5128 16.6332 92.2429C16.8377 91.9702 17.1161 91.7571 17.4684 91.6037C17.8207 91.4474 18.2241 91.3693 18.6786 91.3693C19.1388 91.3693 19.538 91.4503 19.8761 91.6122C20.217 91.7713 20.4798 91.9886 20.6644 92.2642C20.8519 92.5369 20.9457 92.8466 20.9457 93.1932C20.9457 93.5625 20.842 93.8608 20.6346 94.0881C20.4272 94.3153 20.1673 94.4773 19.8548 94.5739V94.642C20.1019 94.6591 20.3164 94.7386 20.4982 94.8807C20.6829 95.0199 20.8263 95.2031 20.9286 95.4304C21.0309 95.6548 21.082 95.9034 21.082 96.1761C21.082 96.5739 20.9755 96.9205 20.7624 97.2159C20.5494 97.5085 20.2567 97.7358 19.8846 97.8977C19.5124 98.0568 19.0877 98.1364 18.6104 98.1364C18.1474 98.1364 17.7326 98.0611 17.3661 97.9105C16.9996 97.7571 16.7085 97.5455 16.4925 97.2756C16.2795 97.0028 16.1673 96.6875 16.1559 96.3295ZM22.4947 98V91.4545H25.1708C25.8754 91.4545 26.435 91.6136 26.8498 91.9318C27.2646 92.25 27.4719 92.6705 27.4719 93.1932C27.4719 93.5909 27.354 93.8991 27.1183 94.1179C26.8825 94.3338 26.5799 94.4801 26.2106 94.5568C26.4521 94.5909 26.6864 94.6761 26.9137 94.8125C27.1438 94.9489 27.3342 95.1364 27.4847 95.375C27.6353 95.6108 27.7106 95.9006 27.7106 96.2443C27.7106 96.5795 27.6254 96.8793 27.4549 97.1435C27.2844 97.4077 27.0401 97.6165 26.7219 97.7699C26.4038 97.9233 26.0231 98 25.5799 98H22.4947ZM23.4492 97.0795H25.5799C25.9265 97.0795 26.1978 96.9972 26.3938 96.8324C26.5898 96.6676 26.6879 96.4432 26.6879 96.1591C26.6879 95.821 26.5898 95.5554 26.3938 95.3622C26.1978 95.1662 25.9265 95.0682 25.5799 95.0682H23.4492V97.0795ZM23.4492 94.1989H25.1708C25.4407 94.1989 25.6722 94.1619 25.8654 94.0881C26.0586 94.0114 26.2063 93.9034 26.3086 93.7642C26.4137 93.6222 26.4663 93.4545 26.4663 93.2614C26.4663 92.9858 26.3512 92.7699 26.1211 92.6136C25.891 92.4545 25.5742 92.375 25.1708 92.375H23.4492V94.1989ZM31.1591 98.1534C30.7443 98.1534 30.3679 98.0753 30.0298 97.919C29.6918 97.7599 29.4233 97.5312 29.2244 97.233C29.0256 96.9318 28.9261 96.5682 28.9261 96.142C28.9261 95.767 29 95.4631 29.1477 95.2301C29.2955 94.9943 29.4929 94.8097 29.7401 94.6761C29.9872 94.5426 30.2599 94.4432 30.5582 94.3778C30.8594 94.3097 31.1619 94.2557 31.4659 94.2159C31.8636 94.1648 32.1861 94.1264 32.4332 94.1009C32.6832 94.0724 32.8651 94.0256 32.9787 93.9602C33.0952 93.8949 33.1534 93.7812 33.1534 93.6193V93.5852C33.1534 93.1648 33.0384 92.8381 32.8082 92.6051C32.581 92.3722 32.2358 92.2557 31.7727 92.2557C31.2926 92.2557 30.9162 92.3608 30.6435 92.571C30.3707 92.7812 30.179 93.0057 30.0682 93.2443L29.1136 92.9034C29.2841 92.5057 29.5114 92.196 29.7955 91.9744C30.0824 91.75 30.3949 91.5937 30.733 91.5057C31.0739 91.4148 31.4091 91.3693 31.7386 91.3693C31.9489 91.3693 32.1903 91.3949 32.4631 91.446C32.7386 91.4943 33.0043 91.5952 33.2599 91.7486C33.5185 91.902 33.733 92.1335 33.9034 92.4432C34.0739 92.7528 34.1591 93.1676 34.1591 93.6875V98H33.1534V97.1136H33.1023C33.0341 97.2557 32.9205 97.4077 32.7614 97.5696C32.6023 97.7315 32.3906 97.8693 32.1264 97.983C31.8622 98.0966 31.5398 98.1534 31.1591 98.1534ZM31.3125 97.25C31.7102 97.25 32.0455 97.1719 32.3182 97.0156C32.5938 96.8594 32.8011 96.6577 32.9403 96.4105C33.0824 96.1634 33.1534 95.9034 33.1534 95.6307V94.7102C33.1108 94.7614 33.017 94.8082 32.8722 94.8509C32.7301 94.8906 32.5653 94.9261 32.3778 94.9574C32.1932 94.9858 32.0128 95.0114 31.8366 95.0341C31.6634 95.054 31.5227 95.071 31.4148 95.0852C31.1534 95.1193 30.9091 95.1747 30.6818 95.2514C30.4574 95.3253 30.2756 95.4375 30.1364 95.5881C30 95.7358 29.9318 95.9375 29.9318 96.1932C29.9318 96.5426 30.0611 96.8068 30.3196 96.9858C30.581 97.1619 30.9119 97.25 31.3125 97.25ZM40.3754 94.267V95.2045H36.7617V94.267H40.3754ZM37.0004 91.4545V98H35.9947V91.4545H37.0004ZM41.1424 91.4545V98H40.1367V91.4545H41.1424ZM43.9847 96.517L47.1381 91.4545H48.2972V98H47.2915V92.9375L44.1552 98H42.979V91.4545H43.9847V96.517ZM52.8835 98.1364C52.2528 98.1364 51.7088 97.9972 51.2514 97.7188C50.7969 97.4375 50.446 97.0455 50.1989 96.5426C49.9545 96.0369 49.8324 95.4489 49.8324 94.7784C49.8324 94.108 49.9545 93.517 50.1989 93.0057C50.446 92.4915 50.7898 92.0909 51.2301 91.804C51.6733 91.5142 52.1903 91.3693 52.7812 91.3693C53.1222 91.3693 53.4588 91.4261 53.7912 91.5398C54.1236 91.6534 54.4261 91.8381 54.6989 92.0938C54.9716 92.3466 55.1889 92.6818 55.3509 93.0994C55.5128 93.517 55.5938 94.0312 55.5938 94.642V95.0682H50.5483V94.1989H54.571C54.571 93.8295 54.4972 93.5 54.3494 93.2102C54.2045 92.9205 53.9972 92.6918 53.7273 92.5241C53.4602 92.3565 53.1449 92.2727 52.7812 92.2727C52.3807 92.2727 52.0341 92.3722 51.7415 92.571C51.4517 92.767 51.2287 93.0227 51.0724 93.3381C50.9162 93.6534 50.8381 93.9915 50.8381 94.3523V94.9318C50.8381 95.4261 50.9233 95.8452 51.0938 96.1889C51.267 96.5298 51.5071 96.7898 51.8139 96.9688C52.1207 97.1449 52.4773 97.233 52.8835 97.233C53.1477 97.233 53.3864 97.196 53.5994 97.1222C53.8153 97.0455 54.0014 96.9318 54.1577 96.7812C54.3139 96.6278 54.4347 96.4375 54.5199 96.2102L55.4915 96.483C55.3892 96.8125 55.2173 97.1023 54.9759 97.3523C54.7344 97.5994 54.4361 97.7926 54.081 97.9318C53.7259 98.0682 53.3267 98.1364 52.8835 98.1364ZM60.4986 100.455V91.4545H61.4702V92.4943H61.5895C61.6634 92.3807 61.7656 92.2358 61.8963 92.0597C62.0298 91.8807 62.2202 91.7216 62.4673 91.5824C62.7173 91.4403 63.0554 91.3693 63.4815 91.3693C64.0327 91.3693 64.5185 91.5071 64.9389 91.7827C65.3594 92.0582 65.6875 92.4489 65.9233 92.9545C66.1591 93.4602 66.277 94.0568 66.277 94.7443C66.277 95.4375 66.1591 96.0384 65.9233 96.5469C65.6875 97.0526 65.3608 97.4446 64.9432 97.723C64.5256 97.9986 64.044 98.1364 63.4986 98.1364C63.0781 98.1364 62.7415 98.0668 62.4886 97.9276C62.2358 97.7855 62.0412 97.625 61.9048 97.446C61.7685 97.2642 61.6634 97.1136 61.5895 96.9943H61.5043V100.455H60.4986ZM61.4872 94.7273C61.4872 95.2216 61.5597 95.6577 61.7045 96.0355C61.8494 96.4105 62.0611 96.7045 62.3395 96.9176C62.6179 97.1278 62.9588 97.233 63.3622 97.233C63.7827 97.233 64.1335 97.1222 64.4148 96.9006C64.6989 96.6761 64.9119 96.375 65.054 95.9972C65.1989 95.6165 65.2713 95.1932 65.2713 94.7273C65.2713 94.267 65.2003 93.8523 65.0582 93.483C64.919 93.1108 64.7074 92.8168 64.4233 92.6009C64.142 92.3821 63.7884 92.2727 63.3622 92.2727C62.9531 92.2727 62.6094 92.3764 62.331 92.5838C62.0526 92.7884 61.8423 93.0753 61.7003 93.4446C61.5582 93.8111 61.4872 94.2386 61.4872 94.7273ZM70.5554 98.1364C69.9247 98.1364 69.3807 97.9972 68.9233 97.7188C68.4688 97.4375 68.1179 97.0455 67.8707 96.5426C67.6264 96.0369 67.5043 95.4489 67.5043 94.7784C67.5043 94.108 67.6264 93.517 67.8707 93.0057C68.1179 92.4915 68.4616 92.0909 68.902 91.804C69.3452 91.5142 69.8622 91.3693 70.4531 91.3693C70.794 91.3693 71.1307 91.4261 71.4631 91.5398C71.7955 91.6534 72.098 91.8381 72.3707 92.0938C72.6435 92.3466 72.8608 92.6818 73.0227 93.0994C73.1847 93.517 73.2656 94.0312 73.2656 94.642V95.0682H68.2202V94.1989H72.2429C72.2429 93.8295 72.169 93.5 72.0213 93.2102C71.8764 92.9205 71.669 92.6918 71.3991 92.5241C71.1321 92.3565 70.8168 92.2727 70.4531 92.2727C70.0526 92.2727 69.706 92.3722 69.4134 92.571C69.1236 92.767 68.9006 93.0227 68.7443 93.3381C68.5881 93.6534 68.5099 93.9915 68.5099 94.3523V94.9318C68.5099 95.4261 68.5952 95.8452 68.7656 96.1889C68.9389 96.5298 69.179 96.7898 69.4858 96.9688C69.7926 97.1449 70.1491 97.233 70.5554 97.233C70.8196 97.233 71.0582 97.196 71.2713 97.1222C71.4872 97.0455 71.6733 96.9318 71.8295 96.7812C71.9858 96.6278 72.1065 96.4375 72.1918 96.2102L73.1634 96.483C73.0611 96.8125 72.8892 97.1023 72.6477 97.3523C72.4063 97.5994 72.108 97.7926 71.7528 97.9318C71.3977 98.0682 70.9986 98.1364 70.5554 98.1364ZM74.3864 96.3295H75.4602C75.483 96.625 75.6165 96.8494 75.8608 97.0028C76.108 97.1562 76.429 97.233 76.8239 97.233C77.2273 97.233 77.5724 97.1506 77.8594 96.9858C78.1463 96.8182 78.2898 96.5483 78.2898 96.1761C78.2898 95.9574 78.2358 95.767 78.1278 95.6051C78.0199 95.4403 77.8679 95.3125 77.6719 95.2216C77.4759 95.1307 77.2443 95.0852 76.9773 95.0852H75.8523V94.1818H76.9773C77.3778 94.1818 77.6733 94.0909 77.8636 93.9091C78.0568 93.7273 78.1534 93.5 78.1534 93.2273C78.1534 92.9347 78.0497 92.7003 77.8423 92.5241C77.6349 92.3452 77.3409 92.2557 76.9602 92.2557C76.5767 92.2557 76.2571 92.3423 76.0014 92.5156C75.7457 92.6861 75.6108 92.9062 75.5966 93.1761H74.5398C74.5511 92.8239 74.6591 92.5128 74.8636 92.2429C75.0682 91.9702 75.3466 91.7571 75.6989 91.6037C76.0511 91.4474 76.4545 91.3693 76.9091 91.3693C77.3693 91.3693 77.7685 91.4503 78.1065 91.6122C78.4474 91.7713 78.7102 91.9886 78.8949 92.2642C79.0824 92.5369 79.1761 92.8466 79.1761 93.1932C79.1761 93.5625 79.0724 93.8608 78.8651 94.0881C78.6577 94.3153 78.3977 94.4773 78.0852 94.5739V94.642C78.3324 94.6591 78.5469 94.7386 78.7287 94.8807C78.9134 95.0199 79.0568 95.2031 79.1591 95.4304C79.2614 95.6548 79.3125 95.9034 79.3125 96.1761C79.3125 96.5739 79.206 96.9205 78.9929 97.2159C78.7798 97.5085 78.4872 97.7358 78.1151 97.8977C77.7429 98.0568 77.3182 98.1364 76.8409 98.1364C76.3778 98.1364 75.9631 98.0611 75.5966 97.9105C75.2301 97.7571 74.9389 97.5455 74.723 97.2756C74.5099 97.0028 74.3977 96.6875 74.3864 96.3295ZM81.3729 100.455C81.2024 100.455 81.0504 100.44 80.9169 100.412C80.7834 100.386 80.6911 100.361 80.6399 100.335L80.8956 99.4489C81.1399 99.5114 81.3558 99.5341 81.5433 99.517C81.7308 99.5 81.897 99.4162 82.0419 99.2656C82.1896 99.1179 82.3246 98.8778 82.4467 98.5455L82.6342 98.0341L80.2138 91.4545H81.3047L83.1115 96.6705H83.1797L84.9865 91.4545H86.0774L83.299 98.9545C83.174 99.2926 83.0192 99.5724 82.8345 99.794C82.6499 100.018 82.4354 100.185 82.1911 100.293C81.9496 100.401 81.6768 100.455 81.3729 100.455ZM86.2745 98V97.0625H86.5131C86.7092 97.0625 86.8725 97.0241 87.0032 96.9474C87.1339 96.8679 87.239 96.7301 87.3185 96.5341C87.4009 96.3352 87.4634 96.0597 87.506 95.7074C87.5515 95.3523 87.5842 94.9006 87.604 94.3523L87.7234 91.4545H92.087V98H91.0813V92.392H88.6779L88.5756 94.7273C88.5529 95.2642 88.5046 95.7372 88.4308 96.1463C88.3597 96.5526 88.2504 96.8935 88.1026 97.169C87.9577 97.4446 87.7646 97.652 87.5231 97.7912C87.2816 97.9304 86.979 98 86.6154 98H86.2745ZM94.8015 93.8239H96.6765C97.4435 93.8239 98.0302 94.0185 98.4364 94.4077C98.8427 94.7969 99.0458 95.2898 99.0458 95.8864C99.0458 96.2784 98.9549 96.6349 98.7731 96.956C98.5913 97.2741 98.3242 97.5284 97.9719 97.7188C97.6197 97.9062 97.1879 98 96.6765 98H93.9322V91.4545H94.9379V97.0625H96.6765C97.0742 97.0625 97.4009 96.9574 97.6566 96.7472C97.9123 96.5369 98.0401 96.267 98.0401 95.9375C98.0401 95.5909 97.9123 95.3082 97.6566 95.0895C97.4009 94.8707 97.0742 94.7614 96.6765 94.7614H94.8015V93.8239ZM99.522 92.392V91.4545H104.84V92.392H102.692V98H101.687V92.392H99.522ZM107.893 98.1534C107.479 98.1534 107.102 98.0753 106.764 97.919C106.426 97.7599 106.158 97.5312 105.959 97.233C105.76 96.9318 105.661 96.5682 105.661 96.142C105.661 95.767 105.734 95.4631 105.882 95.2301C106.03 94.9943 106.227 94.8097 106.474 94.6761C106.722 94.5426 106.994 94.4432 107.293 94.3778C107.594 94.3097 107.896 94.2557 108.2 94.2159C108.598 94.1648 108.92 94.1264 109.168 94.1009C109.418 94.0724 109.599 94.0256 109.713 93.9602C109.83 93.8949 109.888 93.7812 109.888 93.6193V93.5852C109.888 93.1648 109.773 92.8381 109.543 92.6051C109.315 92.3722 108.97 92.2557 108.507 92.2557C108.027 92.2557 107.651 92.3608 107.378 92.571C107.105 92.7812 106.913 93.0057 106.803 93.2443L105.848 92.9034C106.018 92.5057 106.246 92.196 106.53 91.9744C106.817 91.75 107.129 91.5937 107.467 91.5057C107.808 91.4148 108.143 91.3693 108.473 91.3693C108.683 91.3693 108.925 91.3949 109.197 91.446C109.473 91.4943 109.739 91.5952 109.994 91.7486C110.253 91.902 110.467 92.1335 110.638 92.4432C110.808 92.7528 110.893 93.1676 110.893 93.6875V98H109.888V97.1136H109.837C109.768 97.2557 109.655 97.4077 109.496 97.5696C109.337 97.7315 109.125 97.8693 108.861 97.983C108.597 98.0966 108.274 98.1534 107.893 98.1534ZM108.047 97.25C108.445 97.25 108.78 97.1719 109.053 97.0156C109.328 96.8594 109.536 96.6577 109.675 96.4105C109.817 96.1634 109.888 95.9034 109.888 95.6307V94.7102C109.845 94.7614 109.751 94.8082 109.607 94.8509C109.464 94.8906 109.3 94.9261 109.112 94.9574C108.928 94.9858 108.747 95.0114 108.571 95.0341C108.398 95.054 108.257 95.071 108.149 95.0852C107.888 95.1193 107.643 95.1747 107.416 95.2514C107.192 95.3253 107.01 95.4375 106.871 95.5881C106.734 95.7358 106.666 95.9375 106.666 96.1932C106.666 96.5426 106.795 96.8068 107.054 96.9858C107.315 97.1619 107.646 97.25 108.047 97.25ZM111.838 92.392V91.4545H117.157V92.392H115.009V98H114.003V92.392H111.838ZM120.21 98.1534C119.795 98.1534 119.419 98.0753 119.081 97.919C118.743 97.7599 118.474 97.5312 118.275 97.233C118.076 96.9318 117.977 96.5682 117.977 96.142C117.977 95.767 118.051 95.4631 118.199 95.2301C118.346 94.9943 118.544 94.8097 118.791 94.6761C119.038 94.5426 119.311 94.4432 119.609 94.3778C119.91 94.3097 120.213 94.2557 120.517 94.2159C120.914 94.1648 121.237 94.1264 121.484 94.1009C121.734 94.0724 121.916 94.0256 122.029 93.9602C122.146 93.8949 122.204 93.7812 122.204 93.6193V93.5852C122.204 93.1648 122.089 92.8381 121.859 92.6051C121.632 92.3722 121.287 92.2557 120.824 92.2557C120.343 92.2557 119.967 92.3608 119.694 92.571C119.422 92.7812 119.23 93.0057 119.119 93.2443L118.164 92.9034C118.335 92.5057 118.562 92.196 118.846 91.9744C119.133 91.75 119.446 91.5937 119.784 91.5057C120.125 91.4148 120.46 91.3693 120.789 91.3693C121 91.3693 121.241 91.3949 121.514 91.446C121.789 91.4943 122.055 91.5952 122.311 91.7486C122.569 91.902 122.784 92.1335 122.954 92.4432C123.125 92.7528 123.21 93.1676 123.21 93.6875V98H122.204V97.1136H122.153C122.085 97.2557 121.971 97.4077 121.812 97.5696C121.653 97.7315 121.441 97.8693 121.177 97.983C120.913 98.0966 120.591 98.1534 120.21 98.1534ZM120.363 97.25C120.761 97.25 121.096 97.1719 121.369 97.0156C121.645 96.8594 121.852 96.6577 121.991 96.4105C122.133 96.1634 122.204 95.9034 122.204 95.6307V94.7102C122.162 94.7614 122.068 94.8082 121.923 94.8509C121.781 94.8906 121.616 94.9261 121.429 94.9574C121.244 94.9858 121.064 95.0114 120.887 95.0341C120.714 95.054 120.574 95.071 120.466 95.0852C120.204 95.1193 119.96 95.1747 119.733 95.2514C119.508 95.3253 119.326 95.4375 119.187 95.5881C119.051 95.7358 118.983 95.9375 118.983 96.1932C118.983 96.5426 119.112 96.8068 119.37 96.9858C119.632 97.1619 119.963 97.25 120.363 97.25Z" fill="#18191B"/>
<g opacity="0.3">
<rect x="157.5" y="0.5" width="673" height="23" stroke="#737781"/>
</g>
<g opacity="0.3">
<rect x="157.5" y="27.5" width="673" height="23" stroke="#737781"/>
</g>
<g opacity="0.3">
<rect x="157.5" y="54.5" width="673" height="23" stroke="#737781"/>
</g>
<g opacity="0.3">
<rect x="157.5" y="81.5" width="673" height="23" stroke="#737781"/>
</g>
</svg>
