<svg width="277" height="20" viewBox="0 0 277 20" fill="none" xmlns="http://www.w3.org/2000/svg">
<g opacity="0.3">
<path d="M10.8203 7.5H15.4297L10.8203 2.92969V7.5ZM13.3203 13.3203V11.6797H10.8203V9.17969H9.17969V11.6797H6.67969V13.3203H9.17969V15.8203H10.8203V13.3203H13.3203ZM11.6797 1.67969L16.6797 6.67969V16.6797C16.6797 17.1224 16.5104 17.513 16.1719 17.8516C15.8333 18.1641 15.4427 18.3203 15 18.3203H5C4.55729 18.3203 4.16667 18.1641 3.82812 17.8516C3.48958 17.513 3.32031 17.1224 3.32031 16.6797L3.35938 3.32031C3.35938 2.8776 3.51562 2.5 3.82812 2.1875C4.16667 1.84896 4.55729 1.67969 5 1.67969H11.6797Z" fill="#1A1C20"/>
<path d="M34.6797 12.5L38 9.17969L41.3203 12.5L40.1484 13.7109L38.8203 12.3828V15.8203H37.1797V12.3828L35.8516 13.6719L34.6797 12.5ZM43 16.6797V7.5H38.8203V3.32031H33V16.6797H43ZM39.6797 1.67969L44.6797 6.67969V16.6797C44.6797 17.1224 44.5104 17.513 44.1719 17.8516C43.8333 18.1641 43.4427 18.3203 43 18.3203H33C32.5573 18.3203 32.1667 18.1641 31.8281 17.8516C31.4896 17.513 31.3203 17.1224 31.3203 16.6797L31.3594 3.32031C31.3594 2.8776 31.5156 2.5 31.8281 2.1875C32.1667 1.84896 32.5573 1.67969 33 1.67969H39.6797Z" fill="#1A1C20"/>
<path d="M68.5 7.5V4.17969H60.1797V7.5H68.5ZM64.2422 15.0781C64.737 15.5729 65.3229 15.8203 66 15.8203C66.6771 15.8203 67.263 15.5729 67.7578 15.0781C68.2526 14.5833 68.5 13.9974 68.5 13.3203C68.5 12.6432 68.2526 12.0573 67.7578 11.5625C67.263 11.0677 66.6771 10.8203 66 10.8203C65.3229 10.8203 64.737 11.0677 64.2422 11.5625C63.7474 12.0573 63.5 12.6432 63.5 13.3203C63.5 13.9974 63.7474 14.5833 64.2422 15.0781ZM70.1797 2.5L73.5 5.82031V15.8203C73.5 16.263 73.3307 16.6536 72.9922 16.9922C72.6536 17.3307 72.263 17.5 71.8203 17.5H60.1797C59.7109 17.5 59.3073 17.3438 58.9688 17.0312C58.6562 16.6927 58.5 16.2891 58.5 15.8203V4.17969C58.5 3.71094 58.6562 3.32031 58.9688 3.00781C59.3073 2.66927 59.7109 2.5 60.1797 2.5H70.1797Z" fill="#1A1C20"/>
<path d="M101.5 10.3516L94.3516 17.5H88.1797C87.7109 17.5 87.3073 17.3438 86.9688 17.0312C86.6562 16.6927 86.5 16.2891 86.5 15.8203V4.17969C86.5 3.71094 86.6562 3.32031 86.9688 3.00781C87.3073 2.66927 87.7109 2.5 88.1797 2.5H98.1797L101.5 5.82031V10.3516ZM96.5 12.5C96.5 12.0312 96.3828 11.6146 96.1484 11.25C95.9401 10.8594 95.6406 10.5599 95.25 10.3516C94.8854 10.1172 94.4688 10 94 10C93.5312 10 93.1016 10.1172 92.7109 10.3516C92.3464 10.5599 92.0469 10.8594 91.8125 11.25C91.6042 11.6146 91.5 12.0312 91.5 12.5C91.5 12.9688 91.6042 13.3984 91.8125 13.7891C92.0469 14.1536 92.3464 14.4531 92.7109 14.6875C93.1016 14.8958 93.5312 15 94 15C94.4688 15 94.8854 14.8958 95.25 14.6875C95.6406 14.4531 95.9401 14.1536 96.1484 13.7891C96.3828 13.3984 96.5 12.9688 96.5 12.5ZM89 5V8.32031H96.5V5H89ZM100.641 13.5547L96.5 17.6953V19.1797H97.9844L102.125 15L100.641 13.5547ZM103.375 13.75C103.453 13.6719 103.492 13.5807 103.492 13.4766C103.492 13.3464 103.453 13.2422 103.375 13.1641L102.477 12.2656C102.398 12.1875 102.294 12.1484 102.164 12.1484C102.06 12.1484 101.969 12.1875 101.891 12.2656L101.188 13.0078L102.672 14.4531L103.375 13.75Z" fill="#1A1C20"/>
</g>
<g opacity="0.3">
<path d="M143 2.5V5.82031H133V2.5H143ZM143.234 9.76562C143.391 9.92188 143.586 10 143.82 10C144.055 10 144.25 9.92188 144.406 9.76562C144.589 9.60938 144.68 9.41406 144.68 9.17969C144.68 8.94531 144.589 8.75 144.406 8.59375C144.25 8.41146 144.055 8.32031 143.82 8.32031C143.586 8.32031 143.391 8.41146 143.234 8.59375C143.078 8.75 143 8.94531 143 9.17969C143 9.41406 143.078 9.60938 143.234 9.76562ZM141.32 15.8203V11.6797H134.68V15.8203H141.32ZM143.82 6.67969C144.497 6.67969 145.083 6.92708 145.578 7.42188C146.073 7.91667 146.32 8.5026 146.32 9.17969V14.1797H143V17.5H133V14.1797H129.68V9.17969C129.68 8.5026 129.927 7.91667 130.422 7.42188C130.917 6.92708 131.503 6.67969 132.18 6.67969H143.82Z" fill="#1A1C20"/>
</g>
<g opacity="0.3">
<path d="M176.18 16.6797V15H187.82V16.6797H176.18ZM176.18 8.32031L182 2.5L187.82 8.32031H184.5V13.3203H179.5V8.32031H176.18Z" fill="#1A1C20"/>
</g>
<g opacity="0.3">
<path d="M204.18 16.6797V15H215.82V16.6797H204.18ZM215.82 7.5L210 13.3203L204.18 7.5H207.5V2.5H212.5V7.5H215.82Z" fill="#1A1C20"/>
</g>
<g opacity="0.3">
<path d="M259.82 11.6797V10H257.32V7.5H255.68V10H253.18V11.6797H255.68V14.1797H257.32V11.6797H259.82ZM260.68 5C261.148 5 261.539 5.16927 261.852 5.50781C262.164 5.82031 262.32 6.21094 262.32 6.67969V15C262.32 15.4688 262.164 15.8724 261.852 16.2109C261.539 16.5234 261.148 16.6797 260.68 16.6797H247.32C246.852 16.6797 246.461 16.5234 246.148 16.2109C245.836 15.8724 245.68 15.4688 245.68 15V5C245.68 4.53125 245.836 4.14062 246.148 3.82812C246.461 3.48958 246.852 3.32031 247.32 3.32031H252.32L254 5H260.68Z" fill="#1A1C20"/>
<path d="M268.938 7.71875L272 10.7812L275.062 7.71875L276 8.65625L272 12.6562L268 8.65625L268.938 7.71875Z" fill="#2850A8"/>
</g>
</svg>
