<svg width="132" height="24" viewBox="0 0 132 24" fill="none" xmlns="http://www.w3.org/2000/svg">
<g opacity="0.3">
<path d="M16.6562 6C17.0104 6 17.3229 6.13542 17.5938 6.40625C17.8646 6.67708 18 6.98958 18 7.34375V16.6562C18 17.0104 17.8646 17.3229 17.5938 17.5938C17.3229 17.8646 17.0104 18 16.6562 18H7.34375C6.98958 18 6.67708 17.8646 6.40625 17.5938C6.13542 17.3229 6 17.0104 6 16.6562V7.34375C6 6.98958 6.13542 6.67708 6.40625 6.40625C6.67708 6.13542 6.98958 6 7.34375 6H16.6562ZM16.6562 7.34375H7.34375V16.6562H16.6562V7.34375Z" fill="black" fill-opacity="0.6"/>
<path d="M31.5039 12.0098H29.7695L29.7578 11.1016H31.3691C31.6113 11.1016 31.8262 11.0469 32.0137 10.9375C32.2012 10.8281 32.3477 10.6719 32.4531 10.4688C32.5625 10.2617 32.6172 10.0156 32.6172 9.73047C32.6172 9.41797 32.5703 9.16406 32.4766 8.96875C32.3867 8.76953 32.248 8.625 32.0605 8.53516C31.877 8.44141 31.6426 8.39453 31.3574 8.39453H29.998V16H28.9199V7.46875H31.3574C31.7246 7.46875 32.0527 7.51367 32.3418 7.60352C32.6309 7.68945 32.875 7.82617 33.0742 8.01367C33.2773 8.19727 33.4316 8.43164 33.5371 8.7168C33.6426 9.00195 33.6953 9.34375 33.6953 9.74219C33.6953 10.0938 33.6152 10.4121 33.4551 10.6973C33.2988 10.9785 33.0801 11.209 32.7988 11.3887C32.5176 11.5684 32.1934 11.6836 31.8262 11.7344L31.5039 12.0098ZM31.4629 16H29.3242L29.9512 15.0801H31.4629C31.7441 15.0801 31.9824 15.0176 32.1777 14.8926C32.373 14.7676 32.5215 14.5918 32.623 14.3652C32.7285 14.1348 32.7812 13.8633 32.7812 13.5508C32.7812 13.2344 32.7383 12.9609 32.6523 12.7305C32.5664 12.5 32.4297 12.3223 32.2422 12.1973C32.0547 12.0723 31.8086 12.0098 31.5039 12.0098H30.1152L30.127 11.1016H32.002L32.2422 11.4297C32.5938 11.4648 32.8887 11.582 33.127 11.7812C33.3691 11.9766 33.5508 12.2266 33.6719 12.5312C33.7969 12.8359 33.8594 13.1719 33.8594 13.5391C33.8594 14.0703 33.7598 14.5195 33.5605 14.8867C33.3652 15.25 33.0879 15.5273 32.7285 15.7188C32.3691 15.9062 31.9473 16 31.4629 16ZM38.9395 12.4082V13.2871H36.25V12.4082H38.9395ZM36.4609 9.66016V16H35.4238V9.66016H36.4609ZM39.7832 9.66016V16H38.7461V9.66016H39.7832ZM43.7031 16.1172C43.3242 16.1172 42.9824 16.0605 42.6777 15.9473C42.373 15.834 42.1133 15.6621 41.8984 15.4316C41.6836 15.1973 41.5195 14.9023 41.4062 14.5469C41.293 14.1914 41.2363 13.7715 41.2363 13.2871V12.5723C41.2363 12.0137 41.3008 11.541 41.4297 11.1543C41.5625 10.7676 41.7402 10.457 41.9629 10.2227C42.1855 9.98438 42.4375 9.8125 42.7188 9.70703C43 9.59766 43.2891 9.54297 43.5859 9.54297C43.9844 9.54297 44.3242 9.60742 44.6055 9.73633C44.8867 9.86523 45.1152 10.0566 45.291 10.3105C45.4668 10.5645 45.5957 10.877 45.6777 11.248C45.7637 11.6191 45.8066 12.0469 45.8066 12.5312V13.1348H41.8457V12.25H44.7695V12.1035C44.7539 11.7754 44.709 11.4863 44.6348 11.2363C44.5645 10.9863 44.4473 10.791 44.2832 10.6504C44.1191 10.5059 43.8867 10.4336 43.5859 10.4336C43.3945 10.4336 43.2168 10.4668 43.0527 10.5332C42.8926 10.5957 42.7539 10.707 42.6367 10.8672C42.5234 11.0234 42.4336 11.2402 42.3672 11.5176C42.3047 11.7949 42.2734 12.1465 42.2734 12.5723V13.2871C42.2734 13.627 42.3047 13.9199 42.3672 14.166C42.4336 14.4082 42.5293 14.6094 42.6543 14.7695C42.7832 14.9258 42.9395 15.043 43.123 15.1211C43.3105 15.1953 43.5234 15.2324 43.7617 15.2324C44.1094 15.2324 44.3965 15.166 44.623 15.0332C44.8496 14.8965 45.0469 14.7227 45.2148 14.5117L45.7598 15.1621C45.6465 15.3223 45.498 15.4766 45.3145 15.625C45.1348 15.7695 44.9121 15.8887 44.6465 15.9824C44.3848 16.0723 44.0703 16.1172 43.7031 16.1172ZM46.8438 13.1348V12.5312C46.8438 12.0391 46.9062 11.6074 47.0312 11.2363C47.1562 10.8613 47.3301 10.5488 47.5527 10.2988C47.7754 10.0488 48.0352 9.86133 48.332 9.73633C48.6289 9.60742 48.9473 9.54297 49.2871 9.54297C49.6348 9.54297 49.957 9.60742 50.2539 9.73633C50.5508 9.86133 50.8105 10.0488 51.0332 10.2988C51.2598 10.5488 51.4355 10.8613 51.5605 11.2363C51.6855 11.6074 51.748 12.0391 51.748 12.5312V13.1348C51.748 13.627 51.6855 14.0605 51.5605 14.4355C51.4355 14.8066 51.2617 15.1172 51.0391 15.3672C50.8164 15.6172 50.5566 15.8047 50.2598 15.9297C49.9629 16.0547 49.6426 16.1172 49.2988 16.1172C48.9551 16.1172 48.6348 16.0547 48.3379 15.9297C48.041 15.8047 47.7793 15.6172 47.5527 15.3672C47.3301 15.1172 47.1562 14.8066 47.0312 14.4355C46.9062 14.0605 46.8438 13.627 46.8438 13.1348ZM47.8809 12.5312V13.1348C47.8809 13.4824 47.916 13.7871 47.9863 14.0488C48.0566 14.3105 48.1562 14.5293 48.2852 14.7051C48.4141 14.8809 48.5645 15.0137 48.7363 15.1035C48.9082 15.1895 49.0957 15.2324 49.2988 15.2324C49.5332 15.2324 49.7383 15.1895 49.9141 15.1035C50.0938 15.0137 50.2422 14.8809 50.3594 14.7051C50.4766 14.5293 50.5645 14.3105 50.623 14.0488C50.6816 13.7871 50.7109 13.4824 50.7109 13.1348V12.5312C50.7109 12.1836 50.6758 11.8809 50.6055 11.623C50.5352 11.3613 50.4355 11.1426 50.3066 10.9668C50.1777 10.7871 50.0254 10.6543 49.8496 10.5684C49.6777 10.4785 49.4902 10.4336 49.2871 10.4336C49.0879 10.4336 48.9023 10.4785 48.7305 10.5684C48.5586 10.6543 48.4082 10.7871 48.2793 10.9668C48.1543 11.1426 48.0566 11.3613 47.9863 11.623C47.916 11.8809 47.8809 12.1836 47.8809 12.5312ZM57.1914 9.66016V16H56.1543V9.66016H57.1914ZM56.8398 12.5723V13.4629C56.6445 13.5449 56.4531 13.6191 56.2656 13.6855C56.0781 13.748 55.8809 13.7988 55.6738 13.8379C55.4668 13.873 55.2363 13.8906 54.9824 13.8906C54.5723 13.8906 54.2109 13.8047 53.8984 13.6328C53.5898 13.457 53.3496 13.1934 53.1777 12.8418C53.0059 12.4863 52.9199 12.0391 52.9199 11.5V9.64844H53.957V11.5C53.957 11.8516 53.9961 12.1367 54.0742 12.3555C54.1562 12.5742 54.2734 12.7363 54.4258 12.8418C54.582 12.9434 54.7676 12.9941 54.9824 12.9941C55.2246 12.9941 55.4473 12.9766 55.6504 12.9414C55.8535 12.9023 56.0508 12.8516 56.2422 12.7891C56.4375 12.7266 56.6367 12.6543 56.8398 12.5723ZM61.1172 16.1172C60.7383 16.1172 60.3965 16.0605 60.0918 15.9473C59.7871 15.834 59.5273 15.6621 59.3125 15.4316C59.0977 15.1973 58.9336 14.9023 58.8203 14.5469C58.707 14.1914 58.6504 13.7715 58.6504 13.2871V12.5723C58.6504 12.0137 58.7148 11.541 58.8438 11.1543C58.9766 10.7676 59.1543 10.457 59.377 10.2227C59.5996 9.98438 59.8516 9.8125 60.1328 9.70703C60.4141 9.59766 60.7031 9.54297 61 9.54297C61.3984 9.54297 61.7383 9.60742 62.0195 9.73633C62.3008 9.86523 62.5293 10.0566 62.7051 10.3105C62.8809 10.5645 63.0098 10.877 63.0918 11.248C63.1777 11.6191 63.2207 12.0469 63.2207 12.5312V13.1348H59.2598V12.25H62.1836V12.1035C62.168 11.7754 62.123 11.4863 62.0488 11.2363C61.9785 10.9863 61.8613 10.791 61.6973 10.6504C61.5332 10.5059 61.3008 10.4336 61 10.4336C60.8086 10.4336 60.6309 10.4668 60.4668 10.5332C60.3066 10.5957 60.168 10.707 60.0508 10.8672C59.9375 11.0234 59.8477 11.2402 59.7812 11.5176C59.7188 11.7949 59.6875 12.1465 59.6875 12.5723V13.2871C59.6875 13.627 59.7188 13.9199 59.7812 14.166C59.8477 14.4082 59.9434 14.6094 60.0684 14.7695C60.1973 14.9258 60.3535 15.043 60.5371 15.1211C60.7246 15.1953 60.9375 15.2324 61.1758 15.2324C61.5234 15.2324 61.8105 15.166 62.0371 15.0332C62.2637 14.8965 62.4609 14.7227 62.6289 14.5117L63.1738 15.1621C63.0605 15.3223 62.9121 15.4766 62.7285 15.625C62.5488 15.7695 62.3262 15.8887 62.0605 15.9824C61.7988 16.0723 61.4844 16.1172 61.1172 16.1172ZM65.5117 10.8789V18.4375H64.4746V9.66016H65.418L65.5117 10.8789ZM69.0566 12.543V13.1348C69.0566 13.6348 69.0098 14.0723 68.916 14.4473C68.8262 14.8184 68.6914 15.1289 68.5117 15.3789C68.3359 15.625 68.1191 15.8105 67.8613 15.9355C67.6035 16.0566 67.3086 16.1172 66.9766 16.1172C66.6445 16.1172 66.3555 16.0547 66.1094 15.9297C65.8672 15.8008 65.6621 15.6152 65.4941 15.373C65.3301 15.1309 65.1992 14.8398 65.1016 14.5C65.0078 14.1562 64.9434 13.7715 64.9082 13.3457V12.4434C64.9434 11.9941 65.0078 11.5918 65.1016 11.2363C65.1953 10.877 65.3242 10.5723 65.4883 10.3223C65.6562 10.0684 65.8613 9.875 66.1035 9.74219C66.3496 9.60938 66.6367 9.54297 66.9648 9.54297C67.3047 9.54297 67.6035 9.60156 67.8613 9.71875C68.123 9.83594 68.3418 10.0176 68.5176 10.2637C68.6973 10.5059 68.832 10.8164 68.9219 11.1953C69.0117 11.5703 69.0566 12.0195 69.0566 12.543ZM68.0195 13.1348V12.543C68.0195 12.1914 67.9922 11.8848 67.9375 11.623C67.8867 11.3613 67.8047 11.1445 67.6914 10.9727C67.5781 10.8008 67.4355 10.6719 67.2637 10.5859C67.0918 10.5 66.8848 10.457 66.6426 10.457C66.4355 10.457 66.252 10.5 66.0918 10.5859C65.9355 10.6719 65.8008 10.7891 65.6875 10.9375C65.5742 11.082 65.4805 11.248 65.4062 11.4355C65.332 11.6191 65.2773 11.8105 65.2422 12.0098V13.7852C65.3086 14.0352 65.3965 14.2715 65.5059 14.4941C65.6152 14.7129 65.7617 14.8906 65.9453 15.0273C66.1328 15.1641 66.3691 15.2324 66.6543 15.2324C66.8926 15.2324 67.0977 15.1895 67.2695 15.1035C67.4414 15.0176 67.582 14.8887 67.6914 14.7168C67.8047 14.541 67.8867 14.3223 67.9375 14.0605C67.9922 13.7949 68.0195 13.4863 68.0195 13.1348ZM72.6602 16.1172C72.2812 16.1172 71.9395 16.0605 71.6348 15.9473C71.3301 15.834 71.0703 15.6621 70.8555 15.4316C70.6406 15.1973 70.4766 14.9023 70.3633 14.5469C70.25 14.1914 70.1934 13.7715 70.1934 13.2871V12.5723C70.1934 12.0137 70.2578 11.541 70.3867 11.1543C70.5195 10.7676 70.6973 10.457 70.9199 10.2227C71.1426 9.98438 71.3945 9.8125 71.6758 9.70703C71.957 9.59766 72.2461 9.54297 72.543 9.54297C72.9414 9.54297 73.2812 9.60742 73.5625 9.73633C73.8438 9.86523 74.0723 10.0566 74.248 10.3105C74.4238 10.5645 74.5527 10.877 74.6348 11.248C74.7207 11.6191 74.7637 12.0469 74.7637 12.5312V13.1348H70.8027V12.25H73.7266V12.1035C73.7109 11.7754 73.666 11.4863 73.5918 11.2363C73.5215 10.9863 73.4043 10.791 73.2402 10.6504C73.0762 10.5059 72.8438 10.4336 72.543 10.4336C72.3516 10.4336 72.1738 10.4668 72.0098 10.5332C71.8496 10.5957 71.7109 10.707 71.5938 10.8672C71.4805 11.0234 71.3906 11.2402 71.3242 11.5176C71.2617 11.7949 71.2305 12.1465 71.2305 12.5723V13.2871C71.2305 13.627 71.2617 13.9199 71.3242 14.166C71.3906 14.4082 71.4863 14.6094 71.6113 14.7695C71.7402 14.9258 71.8965 15.043 72.0801 15.1211C72.2676 15.1953 72.4805 15.2324 72.7188 15.2324C73.0664 15.2324 73.3535 15.166 73.5801 15.0332C73.8066 14.8965 74.0039 14.7227 74.1719 14.5117L74.7168 15.1621C74.6035 15.3223 74.4551 15.4766 74.2715 15.625C74.0918 15.7695 73.8691 15.8887 73.6035 15.9824C73.3418 16.0723 73.0273 16.1172 72.6602 16.1172ZM76.9844 9.66016H78.0215L77.9453 12.0332C77.9258 12.6348 77.8672 13.1543 77.7695 13.5918C77.6719 14.0293 77.5469 14.4023 77.3945 14.7109C77.2422 15.0156 77.0703 15.2715 76.8789 15.4785C76.6875 15.6855 76.4883 15.8594 76.2812 16H75.7773L75.8008 15.1152L76.0059 15.1094C76.1191 14.957 76.2266 14.8008 76.3281 14.6406C76.4297 14.4766 76.5215 14.2832 76.6035 14.0605C76.6855 13.834 76.752 13.5586 76.8027 13.2344C76.8574 12.9062 76.8926 12.5059 76.9082 12.0332L76.9844 9.66016ZM77.2246 9.66016H80.5234V16H79.4863V10.6621H77.2246V9.66016ZM75.5781 15.1094H81.2617V17.8691H80.2246V16H76.6152V17.8691H75.5723L75.5781 15.1094ZM86.0605 12.4082V13.2871H83.3711V12.4082H86.0605ZM83.582 9.66016V16H82.5449V9.66016H83.582ZM86.9043 9.66016V16H85.8672V9.66016H86.9043ZM91.6621 14.916V11.4766C91.6621 11.2266 91.623 11.0254 91.5449 10.873C91.4707 10.7207 91.3574 10.6094 91.2051 10.5391C91.0566 10.4688 90.8691 10.4336 90.6426 10.4336C90.4238 10.4336 90.2344 10.4785 90.0742 10.5684C89.918 10.6582 89.7969 10.7773 89.7109 10.9258C89.6289 11.0742 89.5879 11.2383 89.5879 11.418H88.5508C88.5508 11.1914 88.5996 10.9668 88.6973 10.7441C88.7988 10.5215 88.9434 10.3203 89.1309 10.1406C89.3184 9.95703 89.543 9.8125 89.8047 9.70703C90.0703 9.59766 90.3672 9.54297 90.6953 9.54297C91.0859 9.54297 91.4316 9.60742 91.7324 9.73633C92.0332 9.86133 92.2695 10.0664 92.4414 10.3516C92.6133 10.6367 92.6992 11.0156 92.6992 11.4883V14.6172C92.6992 14.8281 92.7148 15.0527 92.7461 15.291C92.7812 15.5293 92.8301 15.7344 92.8926 15.9062V16H91.8203C91.7695 15.875 91.7305 15.709 91.7031 15.502C91.6758 15.291 91.6621 15.0957 91.6621 14.916ZM91.8262 12.1562L91.8379 12.918H91.1172C90.8711 12.918 90.6465 12.9453 90.4434 13C90.2441 13.0547 90.0723 13.1348 89.9277 13.2402C89.7832 13.3418 89.6719 13.4688 89.5938 13.6211C89.5195 13.7734 89.4824 13.9473 89.4824 14.1426C89.4824 14.3965 89.5176 14.5996 89.5879 14.752C89.6582 14.9004 89.7637 15.0078 89.9043 15.0742C90.0449 15.1406 90.2227 15.1738 90.4375 15.1738C90.6992 15.1738 90.9297 15.1133 91.1289 14.9922C91.3281 14.8711 91.4824 14.7246 91.5918 14.5527C91.7051 14.3809 91.7578 14.2207 91.75 14.0723L91.9785 14.5586C91.9629 14.7109 91.9121 14.877 91.8262 15.0566C91.7441 15.2324 91.6289 15.4023 91.4805 15.5664C91.332 15.7266 91.1562 15.8594 90.9531 15.9648C90.7539 16.0664 90.5293 16.1172 90.2793 16.1172C89.9121 16.1172 89.5898 16.0469 89.3125 15.9062C89.0391 15.7656 88.8262 15.5586 88.6738 15.2852C88.5215 15.0117 88.4453 14.6738 88.4453 14.2715C88.4453 13.9668 88.498 13.6855 88.6035 13.4277C88.709 13.1699 88.8652 12.9473 89.0723 12.7598C89.2793 12.5684 89.5391 12.4199 89.8516 12.3145C90.168 12.209 90.5332 12.1562 90.9473 12.1562H91.8262ZM95.3594 12.9766H96.4727L94.9082 16H93.7949L95.3594 12.9766ZM96.1738 9.66016H98.4473V16H97.416V10.5391H96.1738C95.9355 10.5391 95.7402 10.5918 95.5879 10.6973C95.4355 10.7988 95.3242 10.9316 95.2539 11.0957C95.1836 11.2598 95.1484 11.4297 95.1484 11.6055C95.1484 11.7773 95.1797 11.9434 95.2422 12.1035C95.3086 12.2598 95.4102 12.3887 95.5469 12.4902C95.6875 12.5918 95.8672 12.6426 96.0859 12.6426H97.6738V13.5332H96.0859C95.7734 13.5332 95.4941 13.4844 95.248 13.3867C95.0059 13.2891 94.7988 13.1543 94.627 12.9824C94.459 12.8066 94.3301 12.6016 94.2402 12.3672C94.1543 12.1289 94.1113 11.8711 94.1113 11.5938C94.1113 11.3164 94.1562 11.0605 94.2461 10.8262C94.3398 10.5918 94.4746 10.3867 94.6504 10.2109C94.8301 10.0352 95.0469 9.90039 95.3008 9.80664C95.5547 9.70898 95.8457 9.66016 96.1738 9.66016ZM106.381 9.66016V10.5566H103.85V9.66016H106.381ZM103.984 9.66016V16H102.947V9.66016H103.984ZM107.312 9.66016V16H106.275V9.66016H107.312ZM110.008 10.8789V18.4375H108.971V9.66016H109.914L110.008 10.8789ZM113.553 12.543V13.1348C113.553 13.6348 113.506 14.0723 113.412 14.4473C113.322 14.8184 113.188 15.1289 113.008 15.3789C112.832 15.625 112.615 15.8105 112.357 15.9355C112.1 16.0566 111.805 16.1172 111.473 16.1172C111.141 16.1172 110.852 16.0547 110.605 15.9297C110.363 15.8008 110.158 15.6152 109.99 15.373C109.826 15.1309 109.695 14.8398 109.598 14.5C109.504 14.1562 109.439 13.7715 109.404 13.3457V12.4434C109.439 11.9941 109.504 11.5918 109.598 11.2363C109.691 10.877 109.82 10.5723 109.984 10.3223C110.152 10.0684 110.357 9.875 110.6 9.74219C110.846 9.60938 111.133 9.54297 111.461 9.54297C111.801 9.54297 112.1 9.60156 112.357 9.71875C112.619 9.83594 112.838 10.0176 113.014 10.2637C113.193 10.5059 113.328 10.8164 113.418 11.1953C113.508 11.5703 113.553 12.0195 113.553 12.543ZM112.516 13.1348V12.543C112.516 12.1914 112.488 11.8848 112.434 11.623C112.383 11.3613 112.301 11.1445 112.188 10.9727C112.074 10.8008 111.932 10.6719 111.76 10.5859C111.588 10.5 111.381 10.457 111.139 10.457C110.932 10.457 110.748 10.5 110.588 10.5859C110.432 10.6719 110.297 10.7891 110.184 10.9375C110.07 11.082 109.977 11.248 109.902 11.4355C109.828 11.6191 109.773 11.8105 109.738 12.0098V13.7852C109.805 14.0352 109.893 14.2715 110.002 14.4941C110.111 14.7129 110.258 14.8906 110.441 15.0273C110.629 15.1641 110.865 15.2324 111.15 15.2324C111.389 15.2324 111.594 15.1895 111.766 15.1035C111.938 15.0176 112.078 14.8887 112.188 14.7168C112.301 14.541 112.383 14.3223 112.434 14.0605C112.488 13.7949 112.516 13.4863 112.516 13.1348ZM114.672 13.1348V12.5312C114.672 12.0391 114.734 11.6074 114.859 11.2363C114.984 10.8613 115.158 10.5488 115.381 10.2988C115.604 10.0488 115.863 9.86133 116.16 9.73633C116.457 9.60742 116.775 9.54297 117.115 9.54297C117.463 9.54297 117.785 9.60742 118.082 9.73633C118.379 9.86133 118.639 10.0488 118.861 10.2988C119.088 10.5488 119.264 10.8613 119.389 11.2363C119.514 11.6074 119.576 12.0391 119.576 12.5312V13.1348C119.576 13.627 119.514 14.0605 119.389 14.4355C119.264 14.8066 119.09 15.1172 118.867 15.3672C118.645 15.6172 118.385 15.8047 118.088 15.9297C117.791 16.0547 117.471 16.1172 117.127 16.1172C116.783 16.1172 116.463 16.0547 116.166 15.9297C115.869 15.8047 115.607 15.6172 115.381 15.3672C115.158 15.1172 114.984 14.8066 114.859 14.4355C114.734 14.0605 114.672 13.627 114.672 13.1348ZM115.709 12.5312V13.1348C115.709 13.4824 115.744 13.7871 115.814 14.0488C115.885 14.3105 115.984 14.5293 116.113 14.7051C116.242 14.8809 116.393 15.0137 116.564 15.1035C116.736 15.1895 116.924 15.2324 117.127 15.2324C117.361 15.2324 117.566 15.1895 117.742 15.1035C117.922 15.0137 118.07 14.8809 118.188 14.7051C118.305 14.5293 118.393 14.3105 118.451 14.0488C118.51 13.7871 118.539 13.4824 118.539 13.1348V12.5312C118.539 12.1836 118.504 11.8809 118.434 11.623C118.363 11.3613 118.264 11.1426 118.135 10.9668C118.006 10.7871 117.854 10.6543 117.678 10.5684C117.506 10.4785 117.318 10.4336 117.115 10.4336C116.916 10.4336 116.73 10.4785 116.559 10.5684C116.387 10.6543 116.236 10.7871 116.107 10.9668C115.982 11.1426 115.885 11.3613 115.814 11.623C115.744 11.8809 115.709 12.1836 115.709 12.5312ZM124.316 6.90039H125.154C125.154 7.2832 125.102 7.58789 124.996 7.81445C124.895 8.03711 124.758 8.20898 124.586 8.33008C124.414 8.45117 124.223 8.54297 124.012 8.60547C123.801 8.66797 123.586 8.72852 123.367 8.78711C123.094 8.85742 122.838 8.96875 122.6 9.12109C122.361 9.26953 122.156 9.48047 121.984 9.75391C121.816 10.0273 121.693 10.3828 121.615 10.8203C121.541 11.2578 121.527 11.7988 121.574 12.4434V12.9824H120.73V12.4434C120.73 11.7207 120.789 11.0898 120.906 10.5508C121.023 10.0117 121.189 9.55664 121.404 9.18555C121.619 8.81445 121.873 8.51953 122.166 8.30078C122.459 8.08203 122.783 7.93164 123.139 7.84961C123.365 7.79102 123.566 7.72852 123.742 7.66211C123.922 7.5918 124.062 7.49805 124.164 7.38086C124.266 7.26367 124.316 7.10352 124.316 6.90039ZM123.326 10.0234C123.674 10.0234 123.982 10.0957 124.252 10.2402C124.521 10.3848 124.75 10.5859 124.938 10.8438C125.125 11.1016 125.268 11.4062 125.365 11.7578C125.463 12.1055 125.512 12.4844 125.512 12.8945V13.0234C125.512 13.4648 125.459 13.875 125.354 14.2539C125.248 14.6289 125.092 14.957 124.885 15.2383C124.682 15.5156 124.432 15.7324 124.135 15.8887C123.838 16.0449 123.5 16.123 123.121 16.123C122.742 16.123 122.404 16.0449 122.107 15.8887C121.814 15.7324 121.564 15.5156 121.357 15.2383C121.154 14.957 120.998 14.6289 120.889 14.2539C120.783 13.875 120.73 13.4648 120.73 13.0234V12.8945C120.73 12.7969 120.748 12.7012 120.783 12.6074C120.818 12.5137 120.859 12.418 120.906 12.3203C120.953 12.2227 120.996 12.1191 121.035 12.0098C121.156 11.6582 121.324 11.332 121.539 11.0312C121.754 10.7305 122.01 10.4883 122.307 10.3047C122.607 10.1172 122.947 10.0234 123.326 10.0234ZM123.115 10.9082C122.799 10.9082 122.541 11 122.342 11.1836C122.146 11.3672 122.002 11.6113 121.908 11.916C121.814 12.2168 121.768 12.543 121.768 12.8945V13.0234C121.768 13.3203 121.793 13.6016 121.844 13.8672C121.895 14.1328 121.975 14.3691 122.084 14.5762C122.193 14.7793 122.334 14.9395 122.506 15.0566C122.678 15.1738 122.883 15.2324 123.121 15.2324C123.359 15.2324 123.562 15.1738 123.73 15.0566C123.902 14.9395 124.043 14.7793 124.152 14.5762C124.262 14.3691 124.342 14.1328 124.393 13.8672C124.447 13.6016 124.475 13.3203 124.475 13.0234V12.8945C124.475 12.6289 124.447 12.377 124.393 12.1387C124.342 11.9004 124.262 11.6895 124.152 11.5059C124.043 11.3223 123.902 11.1777 123.73 11.0723C123.559 10.9629 123.354 10.9082 123.115 10.9082ZM129.842 14.916V11.4766C129.842 11.2266 129.803 11.0254 129.725 10.873C129.65 10.7207 129.537 10.6094 129.385 10.5391C129.236 10.4688 129.049 10.4336 128.822 10.4336C128.604 10.4336 128.414 10.4785 128.254 10.5684C128.098 10.6582 127.977 10.7773 127.891 10.9258C127.809 11.0742 127.768 11.2383 127.768 11.418H126.73C126.73 11.1914 126.779 10.9668 126.877 10.7441C126.979 10.5215 127.123 10.3203 127.311 10.1406C127.498 9.95703 127.723 9.8125 127.984 9.70703C128.25 9.59766 128.547 9.54297 128.875 9.54297C129.266 9.54297 129.611 9.60742 129.912 9.73633C130.213 9.86133 130.449 10.0664 130.621 10.3516C130.793 10.6367 130.879 11.0156 130.879 11.4883V14.6172C130.879 14.8281 130.895 15.0527 130.926 15.291C130.961 15.5293 131.01 15.7344 131.072 15.9062V16H130C129.949 15.875 129.91 15.709 129.883 15.502C129.855 15.291 129.842 15.0957 129.842 14.916ZM130.006 12.1562L130.018 12.918H129.297C129.051 12.918 128.826 12.9453 128.623 13C128.424 13.0547 128.252 13.1348 128.107 13.2402C127.963 13.3418 127.852 13.4688 127.773 13.6211C127.699 13.7734 127.662 13.9473 127.662 14.1426C127.662 14.3965 127.697 14.5996 127.768 14.752C127.838 14.9004 127.943 15.0078 128.084 15.0742C128.225 15.1406 128.402 15.1738 128.617 15.1738C128.879 15.1738 129.109 15.1133 129.309 14.9922C129.508 14.8711 129.662 14.7246 129.771 14.5527C129.885 14.3809 129.938 14.2207 129.93 14.0723L130.158 14.5586C130.143 14.7109 130.092 14.877 130.006 15.0566C129.924 15.2324 129.809 15.4023 129.66 15.5664C129.512 15.7266 129.336 15.8594 129.133 15.9648C128.934 16.0664 128.709 16.1172 128.459 16.1172C128.092 16.1172 127.77 16.0469 127.492 15.9062C127.219 15.7656 127.006 15.5586 126.854 15.2852C126.701 15.0117 126.625 14.6738 126.625 14.2715C126.625 13.9668 126.678 13.6855 126.783 13.4277C126.889 13.1699 127.045 12.9473 127.252 12.7598C127.459 12.5684 127.719 12.4199 128.031 12.3145C128.348 12.209 128.713 12.1562 129.127 12.1562H130.006Z" fill="#1B1716"/>
</g>
</svg>
