<svg width="924" height="424" viewBox="0 0 924 424" fill="none" xmlns="http://www.w3.org/2000/svg">
<g clip-path="url(#clip0_4432_48885)">
<rect width="924" height="424" fill="#F3F3F9"/>
<path opacity="0.4" d="M25.1676 22.4545C25.1676 23.8821 24.897 25.0966 24.3558 26.098C23.8189 27.0994 23.0859 27.8643 22.157 28.3928C21.2322 28.9169 20.1925 29.179 19.0376 29.179C17.8743 29.179 16.8303 28.9148 15.9055 28.3864C14.9808 27.858 14.25 27.093 13.7131 26.0916C13.1761 25.0902 12.9077 23.8778 12.9077 22.4545C12.9077 21.027 13.1761 19.8125 13.7131 18.8111C14.25 17.8097 14.9808 17.0469 15.9055 16.5227C16.8303 15.9943 17.8743 15.7301 19.0376 15.7301C20.1925 15.7301 21.2322 15.9943 22.157 16.5227C23.0859 17.0469 23.8189 17.8097 24.3558 18.8111C24.897 19.8125 25.1676 21.027 25.1676 22.4545ZM22.3615 22.4545C22.3615 21.5298 22.223 20.75 21.946 20.1151C21.6733 19.4801 21.2876 18.9986 20.7891 18.6705C20.2905 18.3423 19.7067 18.1783 19.0376 18.1783C18.3686 18.1783 17.7848 18.3423 17.2862 18.6705C16.7876 18.9986 16.3999 19.4801 16.1229 20.1151C15.8501 20.75 15.7138 21.5298 15.7138 22.4545C15.7138 23.3793 15.8501 24.1591 16.1229 24.794C16.3999 25.429 16.7876 25.9105 17.2862 26.2386C17.7848 26.5668 18.3686 26.7308 19.0376 26.7308C19.7067 26.7308 20.2905 26.5668 20.7891 26.2386C21.2876 25.9105 21.6733 25.429 21.946 24.794C22.223 24.1591 22.3615 23.3793 22.3615 22.4545ZM35.6873 19.1818V29H33.1049V19.1818H35.6873ZM34.4281 23.4901V25.6378C34.2193 25.7315 33.9593 25.821 33.6483 25.9062C33.3372 25.9872 33.0112 26.0533 32.6703 26.1044C32.3294 26.1555 32.0098 26.1811 31.7115 26.1811C30.301 26.1811 29.1909 25.8913 28.3812 25.3118C27.5716 24.728 27.1667 23.7969 27.1667 22.5185V19.169H29.7363V22.5185C29.7363 22.8977 29.8002 23.1982 29.9281 23.4197C30.0602 23.6413 30.269 23.8011 30.5545 23.8991C30.8443 23.9929 31.2299 24.0398 31.7115 24.0398C32.1589 24.0398 32.5978 23.9929 33.0282 23.8991C33.4586 23.8054 33.9252 23.669 34.4281 23.4901ZM42.2759 29.1918C41.266 29.1918 40.3967 28.9872 39.668 28.5781C38.9435 28.1648 38.3853 27.581 37.9933 26.8267C37.6012 26.0682 37.4052 25.1712 37.4052 24.1357C37.4052 23.1257 37.6012 22.2393 37.9933 21.4766C38.3853 20.7138 38.9371 20.1193 39.6488 19.6932C40.3647 19.267 41.2042 19.054 42.1673 19.054C42.815 19.054 43.418 19.1584 43.9762 19.3672C44.5387 19.5717 45.0288 19.8807 45.4464 20.294C45.8683 20.7074 46.1964 21.2273 46.4308 21.8537C46.6651 22.4759 46.7823 23.2045 46.7823 24.0398V24.7876H38.4918V23.1001H44.2191C44.2191 22.7081 44.1339 22.3608 43.9634 22.0582C43.793 21.7557 43.5565 21.5192 43.2539 21.3487C42.9556 21.174 42.6083 21.0866 42.212 21.0866C41.7987 21.0866 41.4322 21.1825 41.1126 21.3743C40.7972 21.5618 40.5501 21.8153 40.3711 22.1349C40.1921 22.4503 40.1005 22.8018 40.0962 23.1896V24.794C40.0962 25.2798 40.1857 25.6996 40.3647 26.0533C40.5479 26.407 40.8058 26.6797 41.1381 26.8714C41.4705 27.0632 41.8647 27.1591 42.3207 27.1591C42.6232 27.1591 42.9002 27.1165 43.1516 27.0312C43.4031 26.946 43.6183 26.8182 43.7972 26.6477C43.9762 26.4773 44.1126 26.2685 44.2063 26.0213L46.7248 26.1875C46.5969 26.7926 46.3349 27.321 45.9386 27.7727C45.5465 28.2202 45.0394 28.5696 44.4173 28.821C43.7994 29.0682 43.0856 29.1918 42.2759 29.1918ZM48.5593 32.6818V19.1818H51.244V20.831H51.3654C51.4847 20.5668 51.6573 20.2983 51.8832 20.0256C52.1133 19.7486 52.4116 19.5185 52.7781 19.3352C53.1488 19.1477 53.609 19.054 54.1587 19.054C54.8746 19.054 55.5352 19.2415 56.1403 19.6165C56.7454 19.9872 57.229 20.5476 57.5913 21.2976C57.9535 22.0433 58.1346 22.9787 58.1346 24.1037C58.1346 25.1989 57.9577 26.1236 57.604 26.8778C57.2546 27.6278 56.7773 28.1967 56.1722 28.5845C55.5714 28.968 54.8981 29.1598 54.1523 29.1598C53.6239 29.1598 53.1744 29.0724 52.8036 28.8977C52.4371 28.723 52.1367 28.5036 51.9023 28.2393C51.668 27.9709 51.489 27.7003 51.3654 27.4276H51.2823V32.6818H48.5593ZM51.2248 24.0909C51.2248 24.6747 51.3058 25.1839 51.4677 25.6186C51.6296 26.0533 51.864 26.392 52.1708 26.6349C52.4776 26.8736 52.8505 26.9929 53.2894 26.9929C53.7326 26.9929 54.1076 26.8714 54.4144 26.6286C54.7212 26.3814 54.9535 26.0405 55.1112 25.6058C55.2731 25.1669 55.354 24.6619 55.354 24.0909C55.354 23.5241 55.2752 23.0256 55.1175 22.5952C54.9599 22.1648 54.7276 21.8281 54.4208 21.5852C54.114 21.3423 53.7369 21.2209 53.2894 21.2209C52.8462 21.2209 52.4712 21.3381 52.1644 21.5724C51.8619 21.8068 51.6296 22.1392 51.4677 22.5696C51.3058 23 51.2248 23.5071 51.2248 24.0909ZM64.4244 29.1918C63.4144 29.1918 62.5451 28.9872 61.8164 28.5781C61.092 28.1648 60.5337 27.581 60.1417 26.8267C59.7496 26.0682 59.5536 25.1712 59.5536 24.1357C59.5536 23.1257 59.7496 22.2393 60.1417 21.4766C60.5337 20.7138 61.0856 20.1193 61.7972 19.6932C62.5131 19.267 63.3526 19.054 64.3157 19.054C64.9634 19.054 65.5664 19.1584 66.1246 19.3672C66.6871 19.5717 67.1772 19.8807 67.5948 20.294C68.0167 20.7074 68.3448 21.2273 68.5792 21.8537C68.8136 22.4759 68.9308 23.2045 68.9308 24.0398V24.7876H60.6403V23.1001H66.3675C66.3675 22.7081 66.2823 22.3608 66.1119 22.0582C65.9414 21.7557 65.7049 21.5192 65.4023 21.3487C65.104 21.174 64.7567 21.0866 64.3604 21.0866C63.9471 21.0866 63.5806 21.1825 63.261 21.3743C62.9457 21.5618 62.6985 21.8153 62.5195 22.1349C62.3406 22.4503 62.2489 22.8018 62.2447 23.1896V24.794C62.2447 25.2798 62.3342 25.6996 62.5131 26.0533C62.6964 26.407 62.9542 26.6797 63.2866 26.8714C63.619 27.0632 64.0131 27.1591 64.4691 27.1591C64.7717 27.1591 65.0487 27.1165 65.3001 27.0312C65.5515 26.946 65.7667 26.8182 65.9457 26.6477C66.1246 26.4773 66.261 26.2685 66.3548 26.0213L68.8732 26.1875C68.7454 26.7926 68.4833 27.321 68.087 27.7727C67.695 28.2202 67.1879 28.5696 66.5657 28.821C65.9478 29.0682 65.234 29.1918 64.4244 29.1918ZM69.9407 31.8764V26.8395H70.695C70.9123 26.7031 71.087 26.4858 71.2191 26.1875C71.3555 25.8892 71.4663 25.5376 71.5515 25.1328C71.641 24.728 71.7092 24.2912 71.756 23.8224C71.8072 23.3494 71.8519 22.8722 71.8903 22.3906L72.146 19.1818H79.6758V26.8395H81.1971V31.8764H78.6019V29H72.5998V31.8764H69.9407ZM73.4052 26.8395H77.1062V21.2784H74.4599L74.3576 22.3906C74.2852 23.4389 74.1808 24.3295 74.0444 25.0625C73.908 25.7912 73.695 26.3835 73.4052 26.8395ZM84.4906 22.1989H87.4245C88.7243 22.1989 89.7385 22.5099 90.4672 23.1321C91.1958 23.75 91.5602 24.5767 91.5602 25.6122C91.5602 26.2855 91.3961 26.8778 91.068 27.3892C90.7399 27.8963 90.2669 28.2926 89.649 28.5781C89.0311 28.8594 88.2896 29 87.4245 29H82.7839V19.1818H85.3855V26.8587H87.4245C87.8805 26.8587 88.2555 26.7436 88.5495 26.5135C88.8436 26.2834 88.9927 25.9893 88.997 25.6314C88.9927 25.2521 88.8436 24.9432 88.5495 24.7045C88.2555 24.4616 87.8805 24.3402 87.4245 24.3402H84.4906V22.1989ZM97.532 29V19.1818H101.719C102.929 19.1818 103.886 19.4119 104.589 19.8722C105.292 20.3324 105.643 20.9865 105.643 21.8345C105.643 22.3672 105.445 22.8104 105.049 23.1641C104.653 23.5178 104.103 23.7564 103.4 23.88C103.988 23.9226 104.489 24.0568 104.902 24.2827C105.32 24.5043 105.637 24.7919 105.854 25.1456C106.076 25.4993 106.187 25.8913 106.187 26.3217C106.187 26.88 106.038 27.3594 105.739 27.7599C105.445 28.1605 105.013 28.4673 104.442 28.6804C103.875 28.8935 103.183 29 102.364 29H97.532ZM100.07 26.9609H102.364C102.744 26.9609 103.04 26.8714 103.253 26.6925C103.47 26.5092 103.579 26.2599 103.579 25.9446C103.579 25.5952 103.47 25.3203 103.253 25.12C103.04 24.9197 102.744 24.8196 102.364 24.8196H100.07V26.9609ZM100.07 23.2216H101.776C102.049 23.2216 102.281 23.1832 102.473 23.1065C102.669 23.0256 102.818 22.9105 102.92 22.7614C103.027 22.6122 103.08 22.4354 103.08 22.2308C103.08 21.9283 102.959 21.6918 102.716 21.5213C102.473 21.3509 102.141 21.2656 101.719 21.2656H100.07V23.2216ZM109.61 22.1989H112.544C113.843 22.1989 114.858 22.5099 115.586 23.1321C116.315 23.75 116.679 24.5767 116.679 25.6122C116.679 26.2855 116.515 26.8778 116.187 27.3892C115.859 27.8963 115.386 28.2926 114.768 28.5781C114.15 28.8594 113.409 29 112.544 29H107.903V19.1818H110.505V26.8587H112.544C113 26.8587 113.375 26.7436 113.669 26.5135C113.963 26.2834 114.112 25.9893 114.116 25.6314C114.112 25.2521 113.963 24.9432 113.669 24.7045C113.375 24.4616 113 24.3402 112.544 24.3402H109.61V22.1989ZM117.734 29V19.1818H120.457V29H117.734ZM122.634 29V19.1818H131.218V29H128.616V21.3232H125.203V29H122.634ZM137.827 29.1918C136.835 29.1918 135.976 28.9808 135.251 28.5589C134.531 28.1328 133.975 27.5405 133.583 26.782C133.191 26.0192 132.995 25.1349 132.995 24.1293C132.995 23.1151 133.191 22.2287 133.583 21.4702C133.975 20.7074 134.531 20.1151 135.251 19.6932C135.976 19.267 136.835 19.054 137.827 19.054C138.82 19.054 139.677 19.267 140.397 19.6932C141.121 20.1151 141.68 20.7074 142.072 21.4702C142.464 22.2287 142.66 23.1151 142.66 24.1293C142.66 25.1349 142.464 26.0192 142.072 26.782C141.68 27.5405 141.121 28.1328 140.397 28.5589C139.677 28.9808 138.82 29.1918 137.827 29.1918ZM137.84 27.0824C138.292 27.0824 138.669 26.9545 138.972 26.6989C139.274 26.4389 139.502 26.0852 139.656 25.6378C139.813 25.1903 139.892 24.6811 139.892 24.1101C139.892 23.5391 139.813 23.0298 139.656 22.5824C139.502 22.1349 139.274 21.7812 138.972 21.5213C138.669 21.2614 138.292 21.1314 137.84 21.1314C137.384 21.1314 137.001 21.2614 136.69 21.5213C136.383 21.7812 136.151 22.1349 135.993 22.5824C135.839 23.0298 135.763 23.5391 135.763 24.1101C135.763 24.6811 135.839 25.1903 135.993 25.6378C136.151 26.0852 136.383 26.4389 136.69 26.6989C137.001 26.9545 137.384 27.0824 137.84 27.0824ZM143.855 29L143.842 26.8395H144.168C144.398 26.8395 144.597 26.7841 144.763 26.6733C144.933 26.5582 145.074 26.3729 145.185 26.1172C145.295 25.8615 145.383 25.5227 145.447 25.1009C145.511 24.6747 145.553 24.1506 145.575 23.5284L145.734 19.1818H153.2V29H150.605V21.3232H148.183L148.029 24.321C147.991 25.1435 147.891 25.8509 147.729 26.4432C147.571 27.0355 147.352 27.5213 147.07 27.9006C146.789 28.2756 146.45 28.5526 146.054 28.7315C145.658 28.9105 145.197 29 144.673 29H143.855ZM162.144 23.0043V25.1456H157.018V23.0043H162.144ZM157.913 19.1818V29H155.311V19.1818H157.913ZM163.851 19.1818V29H161.269V19.1818H163.851ZM170.438 29.1918C169.428 29.1918 168.559 28.9872 167.83 28.5781C167.106 28.1648 166.547 27.581 166.155 26.8267C165.763 26.0682 165.567 25.1712 165.567 24.1357C165.567 23.1257 165.763 22.2393 166.155 21.4766C166.547 20.7138 167.099 20.1193 167.811 19.6932C168.527 19.267 169.366 19.054 170.329 19.054C170.977 19.054 171.58 19.1584 172.138 19.3672C172.701 19.5717 173.191 19.8807 173.608 20.294C174.03 20.7074 174.358 21.2273 174.593 21.8537C174.827 22.4759 174.944 23.2045 174.944 24.0398V24.7876H166.654V23.1001H172.381C172.381 22.7081 172.296 22.3608 172.126 22.0582C171.955 21.7557 171.719 21.5192 171.416 21.3487C171.118 21.174 170.77 21.0866 170.374 21.0866C169.961 21.0866 169.594 21.1825 169.275 21.3743C168.959 21.5618 168.712 21.8153 168.533 22.1349C168.354 22.4503 168.263 22.8018 168.258 23.1896V24.794C168.258 25.2798 168.348 25.6996 168.527 26.0533C168.71 26.407 168.968 26.6797 169.3 26.8714C169.633 27.0632 170.027 27.1591 170.483 27.1591C170.785 27.1591 171.062 27.1165 171.314 27.0312C171.565 26.946 171.78 26.8182 171.959 26.6477C172.138 26.4773 172.275 26.2685 172.368 26.0213L174.887 26.1875C174.759 26.7926 174.497 27.321 174.101 27.7727C173.709 28.2202 173.202 28.5696 172.579 28.821C171.961 29.0682 171.248 29.1918 170.438 29.1918ZM183.555 23.0043V25.1456H178.428V23.0043H183.555ZM179.323 19.1818V29H176.721V19.1818H179.323ZM185.261 19.1818V29H182.679V19.1818H185.261ZM189.975 25.4077L193.51 19.1818H196.195V29H193.6V22.755L190.078 29H187.374V19.1818H189.975V25.4077ZM204.131 29V21.3168H202.29C201.791 21.3168 201.412 21.4318 201.152 21.6619C200.892 21.892 200.764 22.1648 200.768 22.4801C200.764 22.7997 200.888 23.0703 201.139 23.2919C201.395 23.5092 201.77 23.6179 202.264 23.6179H205.038V25.4588H202.264C201.425 25.4588 200.698 25.331 200.084 25.0753C199.471 24.8196 198.998 24.4638 198.665 24.0078C198.333 23.5476 198.169 23.0128 198.173 22.4034C198.169 21.7642 198.333 21.2038 198.665 20.7223C198.998 20.2365 199.473 19.8594 200.091 19.5909C200.713 19.3182 201.446 19.1818 202.29 19.1818H206.668V29H204.131ZM197.892 29L200.621 23.8864H203.223L200.5 29H197.892Z" fill="#1A1C20"/>
<g opacity="0.3">
<path d="M910.984 14.4219L905.406 20L910.984 25.5781L909.578 26.9844L904 21.4062L898.422 26.9844L897.016 25.5781L902.594 20L897.016 14.4219L898.422 13.0156L904 18.5938L909.578 13.0156L910.984 14.4219Z" fill="#1A1C20"/>
</g>
<g opacity="0.4">
<rect width="78" height="24" transform="translate(0 44)" fill="#D9D9E0"/>
<path d="M15.9815 51.7727V60.5H14.4134V53.0852H10.5952V60.5H9.02699V51.7727H15.9815ZM20.6594 60.6278C20.0202 60.6278 19.4663 60.4872 18.9975 60.206C18.5288 59.9247 18.1651 59.5312 17.9066 59.0256C17.6509 58.5199 17.5231 57.929 17.5231 57.2528C17.5231 56.5767 17.6509 55.9844 17.9066 55.4759C18.1651 54.9673 18.5288 54.5724 18.9975 54.2912C19.4663 54.0099 20.0202 53.8693 20.6594 53.8693C21.2987 53.8693 21.8526 54.0099 22.3214 54.2912C22.7901 54.5724 23.1523 54.9673 23.408 55.4759C23.6665 55.9844 23.7958 56.5767 23.7958 57.2528C23.7958 57.929 23.6665 58.5199 23.408 59.0256C23.1523 59.5312 22.7901 59.9247 22.3214 60.206C21.8526 60.4872 21.2987 60.6278 20.6594 60.6278ZM20.668 59.392C21.0146 59.392 21.3043 59.2969 21.5373 59.1065C21.7702 58.9134 21.9435 58.6548 22.0572 58.331C22.1737 58.0071 22.2319 57.6463 22.2319 57.2486C22.2319 56.848 22.1737 56.4858 22.0572 56.1619C21.9435 55.8352 21.7702 55.5753 21.5373 55.3821C21.3043 55.1889 21.0146 55.0923 20.668 55.0923C20.3129 55.0923 20.0174 55.1889 19.7816 55.3821C19.5487 55.5753 19.3739 55.8352 19.2575 56.1619C19.1438 56.4858 19.087 56.848 19.087 57.2486C19.087 57.6463 19.1438 58.0071 19.2575 58.331C19.3739 58.6548 19.5487 58.9134 19.7816 59.1065C20.0174 59.2969 20.3129 59.392 20.668 59.392ZM24.3839 55.2202V53.9545H30.1112V55.2202H27.9933V60.5H26.5018V55.2202H24.3839ZM33.9251 60.6278C33.2859 60.6278 32.7319 60.4872 32.2631 60.206C31.7944 59.9247 31.4308 59.5312 31.1722 59.0256C30.9165 58.5199 30.7887 57.929 30.7887 57.2528C30.7887 56.5767 30.9165 55.9844 31.1722 55.4759C31.4308 54.9673 31.7944 54.5724 32.2631 54.2912C32.7319 54.0099 33.2859 53.8693 33.9251 53.8693C34.5643 53.8693 35.1183 54.0099 35.587 54.2912C36.0558 54.5724 36.418 54.9673 36.6737 55.4759C36.9322 55.9844 37.0614 56.5767 37.0614 57.2528C37.0614 57.929 36.9322 58.5199 36.6737 59.0256C36.418 59.5312 36.0558 59.9247 35.587 60.206C35.1183 60.4872 34.5643 60.6278 33.9251 60.6278ZM33.9336 59.392C34.2802 59.392 34.57 59.2969 34.8029 59.1065C35.0359 58.9134 35.2092 58.6548 35.3228 58.331C35.4393 58.0071 35.4975 57.6463 35.4975 57.2486C35.4975 56.848 35.4393 56.4858 35.3228 56.1619C35.2092 55.8352 35.0359 55.5753 34.8029 55.3821C34.57 55.1889 34.2802 55.0923 33.9336 55.0923C33.5785 55.0923 33.283 55.1889 33.0472 55.3821C32.8143 55.5753 32.6396 55.8352 32.5231 56.1619C32.4094 56.4858 32.3526 56.848 32.3526 57.2486C32.3526 57.6463 32.4094 58.0071 32.5231 58.331C32.6396 58.6548 32.8143 58.9134 33.0472 59.1065C33.283 59.2969 33.5785 59.392 33.9336 59.392ZM38.3707 60.5V53.9545H39.9134V56.5966H40.4759L42.4446 53.9545H44.3026L41.8778 57.1676L44.3281 60.5H42.4616L40.6676 58.0327H39.9134V60.5H38.3707Z" fill="#1A1C20"/>
<rect width="78" height="24" transform="translate(78 44)" fill="#D9D9E0"/>
<path d="M86.4773 53.098V51.7727H93.4403V53.098H90.7429V60.5H89.1747V53.098H86.4773ZM95.522 58.4119L98.1428 53.9545H99.728V60.5H98.2365V56.0384L95.6243 60.5H94.0348V53.9545H95.522V58.4119ZM101.312 60.5V53.9545H106.839V60.5H105.352V55.2202H102.787V60.5H101.312Z" fill="#1A1C20"/>
<rect width="120" height="24" transform="translate(156 44)" fill="#D9D9E0"/>
<path d="M164.861 60.5V51.7727H168.202C168.832 51.7727 169.357 51.8722 169.774 52.071C170.195 52.267 170.509 52.5355 170.716 52.8764C170.926 53.2173 171.031 53.6037 171.031 54.0355C171.031 54.3906 170.963 54.6946 170.827 54.9474C170.69 55.1974 170.507 55.4006 170.277 55.5568C170.047 55.7131 169.79 55.8253 169.506 55.8935V55.9787C169.815 55.9957 170.112 56.0909 170.396 56.2642C170.683 56.4347 170.918 56.6761 171.099 56.9886C171.281 57.3011 171.372 57.679 171.372 58.1222C171.372 58.5739 171.263 58.9801 171.044 59.3409C170.825 59.6989 170.496 59.9815 170.055 60.1889C169.615 60.3963 169.061 60.5 168.393 60.5H164.861ZM166.442 59.179H168.142C168.716 59.179 169.129 59.0696 169.382 58.8509C169.638 58.6293 169.766 58.3452 169.766 57.9986C169.766 57.7401 169.702 57.5071 169.574 57.2997C169.446 57.0895 169.264 56.9247 169.028 56.8054C168.793 56.6832 168.511 56.6222 168.185 56.6222H166.442V59.179ZM166.442 55.4844H168.006C168.278 55.4844 168.524 55.4347 168.743 55.3352C168.962 55.233 169.134 55.0895 169.259 54.9048C169.386 54.7173 169.45 54.4957 169.45 54.2401C169.45 53.902 169.331 53.6236 169.092 53.4048C168.857 53.1861 168.506 53.0767 168.04 53.0767H166.442V55.4844ZM172.679 62.9545V53.9545H174.196V55.0369H174.286C174.365 54.8778 174.478 54.7088 174.623 54.5298C174.767 54.348 174.963 54.1932 175.211 54.0653C175.458 53.9347 175.773 53.8693 176.157 53.8693C176.662 53.8693 177.118 53.9986 177.525 54.2571C177.934 54.5128 178.257 54.892 178.496 55.3949C178.738 55.8949 178.858 56.5085 178.858 57.2358C178.858 57.9545 178.74 58.5653 178.505 59.0682C178.269 59.571 177.948 59.9545 177.542 60.2188C177.135 60.483 176.675 60.6151 176.161 60.6151C175.786 60.6151 175.475 60.5526 175.228 60.4276C174.98 60.3026 174.782 60.152 174.631 59.9759C174.483 59.7969 174.368 59.6278 174.286 59.4688H174.222V62.9545H172.679ZM174.192 57.2273C174.192 57.6506 174.252 58.0213 174.371 58.3395C174.493 58.6577 174.668 58.9062 174.895 59.0852C175.125 59.2614 175.404 59.3494 175.73 59.3494C176.071 59.3494 176.357 59.2585 176.587 59.0767C176.817 58.892 176.99 58.6406 177.107 58.3224C177.226 58.0014 177.286 57.6364 177.286 57.2273C177.286 56.821 177.228 56.4602 177.111 56.1449C176.995 55.8295 176.821 55.5824 176.591 55.4034C176.361 55.2244 176.074 55.1349 175.73 55.1349C175.401 55.1349 175.121 55.2216 174.891 55.3949C174.661 55.5682 174.486 55.8111 174.367 56.1236C174.25 56.4361 174.192 56.804 174.192 57.2273ZM183.077 60.6278C182.421 60.6278 181.854 60.4915 181.377 60.2188C180.902 59.9432 180.537 59.554 180.282 59.0511C180.026 58.5455 179.898 57.9503 179.898 57.2656C179.898 56.5923 180.026 56.0014 180.282 55.4929C180.54 54.9815 180.901 54.5838 181.364 54.2997C181.827 54.0128 182.371 53.8693 182.996 53.8693C183.4 53.8693 183.78 53.9347 184.138 54.0653C184.499 54.1932 184.817 54.392 185.093 54.6619C185.371 54.9318 185.59 55.2756 185.749 55.6932C185.908 56.108 185.988 56.6023 185.988 57.1761V57.6491H180.623V56.6094H184.509C184.506 56.3139 184.442 56.0511 184.317 55.821C184.192 55.5881 184.017 55.4048 183.793 55.2713C183.571 55.1378 183.313 55.071 183.017 55.071C182.702 55.071 182.425 55.1477 182.186 55.3011C181.948 55.4517 181.762 55.6506 181.628 55.8977C181.498 56.142 181.431 56.4105 181.428 56.7031V57.6108C181.428 57.9915 181.498 58.3182 181.637 58.5909C181.776 58.8608 181.971 59.0682 182.221 59.2131C182.471 59.3551 182.763 59.4261 183.098 59.4261C183.323 59.4261 183.526 59.3949 183.708 59.3324C183.89 59.267 184.047 59.1719 184.181 59.0469C184.314 58.9219 184.415 58.767 184.483 58.5824L185.924 58.7443C185.833 59.125 185.659 59.4574 185.404 59.7415C185.151 60.0227 184.827 60.2415 184.432 60.3977C184.037 60.5511 183.586 60.6278 183.077 60.6278ZM191.06 58.706L193.003 53.9545H194.247L191.601 60.5H190.523L187.936 53.9545H189.168L191.06 58.706ZM188.78 53.9545V60.5H187.293V53.9545H188.78ZM193.403 60.5V53.9545H194.878V60.5H193.403ZM200.303 60.5V55.2074H198.905C198.55 55.2074 198.277 55.2898 198.087 55.4545C197.896 55.6193 197.803 55.8239 197.805 56.0682C197.803 56.3125 197.892 56.5142 198.074 56.6733C198.256 56.8324 198.516 56.9119 198.854 56.9119H200.788V58.0369H198.854C198.331 58.0369 197.879 57.9545 197.499 57.7898C197.118 57.625 196.825 57.392 196.621 57.0909C196.416 56.7898 196.314 56.4375 196.314 56.0341C196.314 55.6136 196.418 55.2486 196.625 54.9389C196.835 54.6264 197.134 54.3849 197.52 54.2145C197.909 54.0412 198.371 53.9545 198.905 53.9545H201.747V60.5H200.303ZM196.075 60.5L197.903 57.142H199.425L197.592 60.5H196.075ZM205.915 58.706H207.445C207.459 58.9503 207.568 59.1392 207.773 59.2727C207.977 59.4062 208.243 59.473 208.57 59.473C208.902 59.473 209.182 59.4006 209.409 59.2557C209.639 59.108 209.754 58.8849 209.754 58.5866C209.754 58.4105 209.71 58.2557 209.622 58.1222C209.534 57.9858 209.411 57.8807 209.251 57.8068C209.092 57.733 208.905 57.696 208.689 57.696H207.688V56.6009H208.689C209.01 56.6009 209.253 56.527 209.418 56.3793C209.585 56.2315 209.669 56.0455 209.669 55.821C209.669 55.5795 209.581 55.3835 209.405 55.233C209.232 55.0824 208.991 55.0071 208.685 55.0071C208.378 55.0071 208.122 55.0767 207.918 55.2159C207.716 55.3551 207.611 55.5341 207.602 55.7528H206.081C206.087 55.3722 206.2 55.0412 206.422 54.7599C206.646 54.4787 206.947 54.2599 207.325 54.1037C207.706 53.9474 208.135 53.8693 208.612 53.8693C209.124 53.8693 209.565 53.946 209.938 54.0994C210.31 54.2528 210.597 54.4673 210.798 54.7429C211 55.0156 211.101 55.3366 211.101 55.706C211.101 56.0611 210.99 56.3551 210.768 56.5881C210.547 56.8182 210.249 56.983 209.874 57.0824V57.1506C210.132 57.1648 210.365 57.2386 210.572 57.3722C210.78 57.5028 210.945 57.6804 211.067 57.9048C211.189 58.1293 211.25 58.3892 211.25 58.6847C211.25 59.0852 211.135 59.4318 210.905 59.7244C210.675 60.0142 210.358 60.2372 209.955 60.3935C209.554 60.5497 209.095 60.6278 208.578 60.6278C208.075 60.6278 207.625 60.5526 207.227 60.402C206.832 60.2486 206.518 60.0284 206.286 59.7415C206.053 59.4545 205.929 59.1094 205.915 58.706ZM214.348 60.6321C213.933 60.6321 213.56 60.5582 213.227 60.4105C212.898 60.2599 212.636 60.0384 212.443 59.7457C212.253 59.4531 212.158 59.0923 212.158 58.6634C212.158 58.294 212.226 57.9886 212.362 57.7472C212.499 57.5057 212.685 57.3125 212.92 57.1676C213.156 57.0227 213.422 56.9134 213.717 56.8395C214.016 56.7628 214.324 56.7074 214.642 56.6733C215.026 56.6335 215.337 56.598 215.575 56.5668C215.814 56.5327 215.987 56.4815 216.095 56.4134C216.206 56.3423 216.261 56.233 216.261 56.0852V56.0597C216.261 55.7386 216.166 55.4901 215.976 55.3139C215.786 55.1378 215.511 55.0497 215.153 55.0497C214.776 55.0497 214.476 55.1321 214.254 55.2969C214.036 55.4616 213.888 55.6562 213.811 55.8807L212.371 55.6761C212.484 55.2784 212.672 54.946 212.933 54.679C213.195 54.4091 213.514 54.2074 213.892 54.0739C214.27 53.9375 214.688 53.8693 215.145 53.8693C215.46 53.8693 215.774 53.9062 216.087 53.9801C216.399 54.054 216.685 54.1761 216.943 54.3466C217.202 54.5142 217.409 54.7429 217.565 55.0327C217.724 55.3224 217.804 55.6847 217.804 56.1193V60.5H216.321V59.6009H216.27C216.176 59.7827 216.044 59.9531 215.874 60.1122C215.706 60.2685 215.494 60.3949 215.239 60.4915C214.986 60.5852 214.689 60.6321 214.348 60.6321ZM214.749 59.4986C215.058 59.4986 215.327 59.4375 215.554 59.3153C215.781 59.1903 215.956 59.0256 216.078 58.821C216.203 58.6165 216.266 58.3935 216.266 58.152V57.3807C216.217 57.4205 216.135 57.4574 216.018 57.4915C215.905 57.5256 215.777 57.5554 215.635 57.581C215.493 57.6065 215.352 57.6293 215.213 57.6491C215.074 57.669 214.953 57.6861 214.851 57.7003C214.621 57.7315 214.415 57.7827 214.233 57.8537C214.051 57.9247 213.908 58.0241 213.803 58.152C213.697 58.277 213.645 58.4389 213.645 58.6378C213.645 58.9219 213.749 59.1364 213.956 59.2812C214.163 59.4261 214.428 59.4986 214.749 59.4986ZM223.224 60.5V55.2074H221.827C221.472 55.2074 221.199 55.2898 221.009 55.4545C220.818 55.6193 220.724 55.8239 220.727 56.0682C220.724 56.3125 220.814 56.5142 220.996 56.6733C221.178 56.8324 221.438 56.9119 221.776 56.9119H223.71V58.0369H221.776C221.253 58.0369 220.801 57.9545 220.42 57.7898C220.04 57.625 219.747 57.392 219.543 57.0909C219.338 56.7898 219.236 56.4375 219.236 56.0341C219.236 55.6136 219.339 55.2486 219.547 54.9389C219.757 54.6264 220.055 54.3849 220.442 54.2145C220.831 54.0412 221.293 53.9545 221.827 53.9545H224.669V60.5H223.224ZM218.997 60.5L220.825 57.142H222.347L220.514 60.5H218.997ZM226.222 60.5V53.9545H228.971C229.746 53.9545 230.359 54.1094 230.808 54.419C231.259 54.7287 231.485 55.1605 231.485 55.7145C231.485 56.081 231.357 56.3807 231.102 56.6136C230.849 56.8437 230.504 56.9986 230.066 57.0781C230.41 57.1065 230.711 57.1932 230.969 57.3381C231.231 57.483 231.435 57.6733 231.583 57.9091C231.731 58.1449 231.805 58.4162 231.805 58.723C231.805 59.0838 231.71 59.3977 231.519 59.6648C231.332 59.929 231.058 60.1349 230.697 60.2827C230.339 60.4276 229.904 60.5 229.393 60.5H226.222ZM227.667 59.2855H229.393C229.677 59.2855 229.9 59.2187 230.062 59.0852C230.224 58.9489 230.305 58.7642 230.305 58.5312C230.305 58.2614 230.224 58.0497 230.062 57.8963C229.9 57.7401 229.677 57.6619 229.393 57.6619H227.667V59.2855ZM227.667 56.6648H229.001C229.211 56.6648 229.391 56.6349 229.542 56.5753C229.692 56.5128 229.808 56.4261 229.887 56.3153C229.967 56.2017 230.006 56.0668 230.006 55.9105C230.006 55.6861 229.914 55.5099 229.729 55.3821C229.548 55.2543 229.295 55.1903 228.971 55.1903H227.667V56.6648ZM232.626 60.5L232.618 59.2301H232.843C233.014 59.2301 233.157 59.1918 233.274 59.1151C233.39 59.0384 233.487 58.9105 233.564 58.7315C233.64 58.5497 233.7 58.3054 233.743 57.9986C233.785 57.6918 233.815 57.3097 233.832 56.8523L233.947 53.9545H238.72V60.5H237.228V55.2202H235.349L235.247 57.3295C235.221 57.875 235.16 58.348 235.064 58.7486C234.97 59.1463 234.836 59.4744 234.663 59.733C234.493 59.9915 234.278 60.1847 234.02 60.3125C233.761 60.4375 233.456 60.5 233.103 60.5H232.626ZM243.171 60.6278C242.515 60.6278 241.948 60.4915 241.471 60.2188C240.996 59.9432 240.631 59.554 240.375 59.0511C240.12 58.5455 239.992 57.9503 239.992 57.2656C239.992 56.5923 240.12 56.0014 240.375 55.4929C240.634 54.9815 240.995 54.5838 241.458 54.2997C241.921 54.0128 242.465 53.8693 243.09 53.8693C243.493 53.8693 243.874 53.9347 244.232 54.0653C244.593 54.1932 244.911 54.392 245.186 54.6619C245.465 54.9318 245.684 55.2756 245.843 55.6932C246.002 56.108 246.081 56.6023 246.081 57.1761V57.6491H240.716V56.6094H244.603C244.6 56.3139 244.536 56.0511 244.411 55.821C244.286 55.5881 244.111 55.4048 243.887 55.2713C243.665 55.1378 243.407 55.071 243.111 55.071C242.796 55.071 242.519 55.1477 242.28 55.3011C242.042 55.4517 241.855 55.6506 241.722 55.8977C241.591 56.142 241.525 56.4105 241.522 56.7031V57.6108C241.522 57.9915 241.591 58.3182 241.73 58.5909C241.87 58.8608 242.064 59.0682 242.314 59.2131C242.564 59.3551 242.857 59.4261 243.192 59.4261C243.417 59.4261 243.62 59.3949 243.801 59.3324C243.983 59.267 244.141 59.1719 244.275 59.0469C244.408 58.9219 244.509 58.767 244.577 58.5824L246.017 58.7443C245.926 59.125 245.753 59.4574 245.498 59.7415C245.245 60.0227 244.921 60.2415 244.526 60.3977C244.131 60.5511 243.679 60.6278 243.171 60.6278ZM251.882 56.5881V57.8537H248.396V56.5881H251.882ZM248.874 53.9545V60.5H247.386V53.9545H248.874ZM252.892 53.9545V60.5H251.409V53.9545H252.892ZM255.94 58.4119L258.561 53.9545H260.146V60.5H258.654V56.0384L256.042 60.5H254.453V53.9545H255.94V58.4119ZM265.599 60.5V55.2074H264.202C263.847 55.2074 263.574 55.2898 263.384 55.4545C263.193 55.6193 263.099 55.8239 263.102 56.0682C263.099 56.3125 263.189 56.5142 263.371 56.6733C263.553 56.8324 263.813 56.9119 264.151 56.9119H266.085V58.0369H264.151C263.628 58.0369 263.176 57.9545 262.795 57.7898C262.415 57.625 262.122 57.392 261.918 57.0909C261.713 56.7898 261.611 56.4375 261.611 56.0341C261.611 55.6136 261.714 55.2486 261.922 54.9389C262.132 54.6264 262.43 54.3849 262.817 54.2145C263.206 54.0412 263.668 53.9545 264.202 53.9545H267.044V60.5H265.599ZM261.372 60.5L263.2 57.142H264.722L262.889 60.5H261.372Z" fill="#1A1C20"/>
<rect width="120" height="24" transform="translate(276 44)" fill="#D9D9E0"/>
<path d="M284.861 60.5V51.7727H286.442V55.4673H290.486V51.7727H292.071V60.5H290.486V56.7926H286.442V60.5H284.861ZM295.606 60.6321C295.191 60.6321 294.817 60.5582 294.485 60.4105C294.156 60.2599 293.894 60.0384 293.701 59.7457C293.511 59.4531 293.415 59.0923 293.415 58.6634C293.415 58.294 293.484 57.9886 293.62 57.7472C293.756 57.5057 293.942 57.3125 294.178 57.1676C294.414 57.0227 294.68 56.9134 294.975 56.8395C295.273 56.7628 295.582 56.7074 295.9 56.6733C296.283 56.6335 296.594 56.598 296.833 56.5668C297.072 56.5327 297.245 56.4815 297.353 56.4134C297.464 56.3423 297.519 56.233 297.519 56.0852V56.0597C297.519 55.7386 297.424 55.4901 297.234 55.3139C297.043 55.1378 296.769 55.0497 296.411 55.0497C296.033 55.0497 295.734 55.1321 295.512 55.2969C295.293 55.4616 295.146 55.6562 295.069 55.8807L293.629 55.6761C293.742 55.2784 293.93 54.946 294.191 54.679C294.452 54.4091 294.772 54.2074 295.15 54.0739C295.528 53.9375 295.945 53.8693 296.403 53.8693C296.718 53.8693 297.032 53.9062 297.344 53.9801C297.657 54.054 297.942 54.1761 298.201 54.3466C298.46 54.5142 298.667 54.7429 298.823 55.0327C298.982 55.3224 299.062 55.6847 299.062 56.1193V60.5H297.579V59.6009H297.528C297.434 59.7827 297.302 59.9531 297.131 60.1122C296.964 60.2685 296.752 60.3949 296.496 60.4915C296.244 60.5852 295.947 60.6321 295.606 60.6321ZM296.006 59.4986C296.316 59.4986 296.585 59.4375 296.812 59.3153C297.039 59.1903 297.214 59.0256 297.336 58.821C297.461 58.6165 297.523 58.3935 297.523 58.152V57.3807C297.475 57.4205 297.393 57.4574 297.276 57.4915C297.163 57.5256 297.035 57.5554 296.893 57.581C296.751 57.6065 296.61 57.6293 296.471 57.6491C296.332 57.669 296.211 57.6861 296.109 57.7003C295.879 57.7315 295.673 57.7827 295.491 57.8537C295.309 57.9247 295.165 58.0241 295.06 58.152C294.955 58.277 294.903 58.4389 294.903 58.6378C294.903 58.9219 295.006 59.1364 295.214 59.2812C295.421 59.4261 295.685 59.4986 296.006 59.4986ZM300.251 58.706H301.781C301.795 58.9503 301.904 59.1392 302.109 59.2727C302.313 59.4062 302.579 59.473 302.906 59.473C303.238 59.473 303.518 59.4006 303.745 59.2557C303.975 59.108 304.09 58.8849 304.09 58.5866C304.09 58.4105 304.046 58.2557 303.958 58.1222C303.87 57.9858 303.746 57.8807 303.587 57.8068C303.428 57.733 303.241 57.696 303.025 57.696H302.023V56.6009H303.025C303.346 56.6009 303.589 56.527 303.754 56.3793C303.921 56.2315 304.005 56.0455 304.005 55.821C304.005 55.5795 303.917 55.3835 303.741 55.233C303.567 55.0824 303.327 55.0071 303.021 55.0071C302.714 55.0071 302.458 55.0767 302.254 55.2159C302.052 55.3551 301.947 55.5341 301.938 55.7528H300.417C300.423 55.3722 300.536 55.0412 300.758 54.7599C300.982 54.4787 301.283 54.2599 301.661 54.1037C302.042 53.9474 302.471 53.8693 302.948 53.8693C303.46 53.8693 303.901 53.946 304.273 54.0994C304.646 54.2528 304.933 54.4673 305.134 54.7429C305.336 55.0156 305.437 55.3366 305.437 55.706C305.437 56.0611 305.326 56.3551 305.104 56.5881C304.883 56.8182 304.585 56.983 304.21 57.0824V57.1506C304.468 57.1648 304.701 57.2386 304.908 57.3722C305.116 57.5028 305.281 57.6804 305.403 57.9048C305.525 58.1293 305.586 58.3892 305.586 58.6847C305.586 59.0852 305.471 59.4318 305.241 59.7244C305.011 60.0142 304.694 60.2372 304.29 60.3935C303.89 60.5497 303.431 60.6278 302.914 60.6278C302.411 60.6278 301.961 60.5526 301.563 60.402C301.168 60.2486 300.854 60.0284 300.621 59.7415C300.388 59.4545 300.265 59.1094 300.251 58.706ZM306.8 60.5V53.9545H309.549C310.325 53.9545 310.937 54.1094 311.386 54.419C311.837 54.7287 312.063 55.1605 312.063 55.7145C312.063 56.081 311.935 56.3807 311.68 56.6136C311.427 56.8437 311.082 56.9986 310.644 57.0781C310.988 57.1065 311.289 57.1932 311.548 57.3381C311.809 57.483 312.013 57.6733 312.161 57.9091C312.309 58.1449 312.383 58.4162 312.383 58.723C312.383 59.0838 312.288 59.3977 312.097 59.6648C311.91 59.929 311.636 60.1349 311.275 60.2827C310.917 60.4276 310.482 60.5 309.971 60.5H306.8ZM308.245 59.2855H309.971C310.255 59.2855 310.478 59.2187 310.64 59.0852C310.802 58.9489 310.883 58.7642 310.883 58.5312C310.883 58.2614 310.802 58.0497 310.64 57.8963C310.478 57.7401 310.255 57.6619 309.971 57.6619H308.245V59.2855ZM308.245 56.6648H309.579C309.789 56.6648 309.969 56.6349 310.12 56.5753C310.271 56.5128 310.386 56.4261 310.465 56.3153C310.545 56.2017 310.585 56.0668 310.585 55.9105C310.585 55.6861 310.492 55.5099 310.308 55.3821C310.126 55.2543 309.873 55.1903 309.549 55.1903H308.245V56.6648ZM315.539 60.6321C315.125 60.6321 314.751 60.5582 314.419 60.4105C314.089 60.2599 313.828 60.0384 313.635 59.7457C313.444 59.4531 313.349 59.0923 313.349 58.6634C313.349 58.294 313.417 57.9886 313.554 57.7472C313.69 57.5057 313.876 57.3125 314.112 57.1676C314.348 57.0227 314.613 56.9134 314.909 56.8395C315.207 56.7628 315.515 56.7074 315.833 56.6733C316.217 56.6335 316.528 56.598 316.767 56.5668C317.005 56.5327 317.179 56.4815 317.287 56.4134C317.397 56.3423 317.453 56.233 317.453 56.0852V56.0597C317.453 55.7386 317.358 55.4901 317.167 55.3139C316.977 55.1378 316.703 55.0497 316.345 55.0497C315.967 55.0497 315.667 55.1321 315.446 55.2969C315.227 55.4616 315.079 55.6562 315.002 55.8807L313.562 55.6761C313.676 55.2784 313.863 54.946 314.125 54.679C314.386 54.4091 314.706 54.2074 315.083 54.0739C315.461 53.9375 315.879 53.8693 316.336 53.8693C316.652 53.8693 316.966 53.9062 317.278 53.9801C317.591 54.054 317.876 54.1761 318.135 54.3466C318.393 54.5142 318.6 54.7429 318.757 55.0327C318.916 55.3224 318.995 55.6847 318.995 56.1193V60.5H317.512V59.6009H317.461C317.368 59.7827 317.235 59.9531 317.065 60.1122C316.897 60.2685 316.686 60.3949 316.43 60.4915C316.177 60.5852 315.88 60.6321 315.539 60.6321ZM315.94 59.4986C316.25 59.4986 316.518 59.4375 316.745 59.3153C316.973 59.1903 317.147 59.0256 317.27 58.821C317.395 58.6165 317.457 58.3935 317.457 58.152V57.3807C317.409 57.4205 317.326 57.4574 317.21 57.4915C317.096 57.5256 316.968 57.5554 316.826 57.581C316.684 57.6065 316.544 57.6293 316.404 57.6491C316.265 57.669 316.145 57.6861 316.042 57.7003C315.812 57.7315 315.606 57.7827 315.424 57.8537C315.243 57.9247 315.099 58.0241 314.994 58.152C314.889 58.277 314.836 58.4389 314.836 58.6378C314.836 58.9219 314.94 59.1364 315.147 59.2812C315.355 59.4261 315.619 59.4986 315.94 59.4986ZM325.042 56.5881V57.8537H321.556V56.5881H325.042ZM322.034 53.9545V60.5H320.547V53.9545H322.034ZM326.052 53.9545V60.5H324.569V53.9545H326.052ZM329.1 58.4119L331.721 53.9545H333.306V60.5H331.815V56.0384L329.202 60.5H327.613V53.9545H329.1V58.4119ZM337.788 60.6278C337.132 60.6278 336.565 60.4915 336.088 60.2188C335.613 59.9432 335.248 59.554 334.993 59.0511C334.737 58.5455 334.609 57.9503 334.609 57.2656C334.609 56.5923 334.737 56.0014 334.993 55.4929C335.251 54.9815 335.612 54.5838 336.075 54.2997C336.538 54.0128 337.082 53.8693 337.707 53.8693C338.11 53.8693 338.491 53.9347 338.849 54.0653C339.21 54.1932 339.528 54.392 339.804 54.6619C340.082 54.9318 340.301 55.2756 340.46 55.6932C340.619 56.108 340.699 56.6023 340.699 57.1761V57.6491H335.333V56.6094H339.22C339.217 56.3139 339.153 56.0511 339.028 55.821C338.903 55.5881 338.728 55.4048 338.504 55.2713C338.282 55.1378 338.024 55.071 337.728 55.071C337.413 55.071 337.136 55.1477 336.897 55.3011C336.659 55.4517 336.473 55.6506 336.339 55.8977C336.208 56.142 336.142 56.4105 336.139 56.7031V57.6108C336.139 57.9915 336.208 58.3182 336.348 58.5909C336.487 58.8608 336.681 59.0682 336.931 59.2131C337.181 59.3551 337.474 59.4261 337.809 59.4261C338.034 59.4261 338.237 59.3949 338.419 59.3324C338.6 59.267 338.758 59.1719 338.892 59.0469C339.025 58.9219 339.126 58.767 339.194 58.5824L340.635 58.7443C340.544 59.125 340.37 59.4574 340.115 59.7415C339.862 60.0227 339.538 60.2415 339.143 60.3977C338.748 60.5511 338.297 60.6278 337.788 60.6278ZM344.98 62.9545V53.9545H346.497V55.0369H346.587C346.666 54.8778 346.778 54.7088 346.923 54.5298C347.068 54.348 347.264 54.1932 347.511 54.0653C347.759 53.9347 348.074 53.8693 348.457 53.8693C348.963 53.8693 349.419 53.9986 349.825 54.2571C350.234 54.5128 350.558 54.892 350.797 55.3949C351.038 55.8949 351.159 56.5085 351.159 57.2358C351.159 57.9545 351.041 58.5653 350.805 59.0682C350.57 59.571 350.249 59.9545 349.842 60.2188C349.436 60.483 348.976 60.6151 348.462 60.6151C348.087 60.6151 347.776 60.5526 347.528 60.4276C347.281 60.3026 347.082 60.152 346.932 59.9759C346.784 59.7969 346.669 59.6278 346.587 59.4688H346.523V62.9545H344.98ZM346.493 57.2273C346.493 57.6506 346.553 58.0213 346.672 58.3395C346.794 58.6577 346.969 58.9062 347.196 59.0852C347.426 59.2614 347.705 59.3494 348.031 59.3494C348.372 59.3494 348.658 59.2585 348.888 59.0767C349.118 58.892 349.291 58.6406 349.408 58.3224C349.527 58.0014 349.587 57.6364 349.587 57.2273C349.587 56.821 349.528 56.4602 349.412 56.1449C349.295 55.8295 349.122 55.5824 348.892 55.4034C348.662 55.2244 348.375 55.1349 348.031 55.1349C347.702 55.1349 347.422 55.2216 347.192 55.3949C346.962 55.5682 346.787 55.8111 346.668 56.1236C346.551 56.4361 346.493 56.804 346.493 57.2273ZM355.378 60.6278C354.722 60.6278 354.155 60.4915 353.678 60.2188C353.203 59.9432 352.838 59.554 352.582 59.0511C352.327 58.5455 352.199 57.9503 352.199 57.2656C352.199 56.5923 352.327 56.0014 352.582 55.4929C352.841 54.9815 353.202 54.5838 353.665 54.2997C354.128 54.0128 354.672 53.8693 355.297 53.8693C355.7 53.8693 356.081 53.9347 356.439 54.0653C356.8 54.1932 357.118 54.392 357.393 54.6619C357.672 54.9318 357.891 55.2756 358.05 55.6932C358.209 56.108 358.288 56.6023 358.288 57.1761V57.6491H352.923V56.6094H356.81C356.807 56.3139 356.743 56.0511 356.618 55.821C356.493 55.5881 356.318 55.4048 356.094 55.2713C355.872 55.1378 355.614 55.071 355.318 55.071C355.003 55.071 354.726 55.1477 354.487 55.3011C354.249 55.4517 354.063 55.6506 353.929 55.8977C353.798 56.142 353.732 56.4105 353.729 56.7031V57.6108C353.729 57.9915 353.798 58.3182 353.938 58.5909C354.077 58.8608 354.271 59.0682 354.521 59.2131C354.771 59.3551 355.064 59.4261 355.399 59.4261C355.624 59.4261 355.827 59.3949 356.009 59.3324C356.19 59.267 356.348 59.1719 356.482 59.0469C356.615 58.9219 356.716 58.767 356.784 58.5824L358.224 58.7443C358.134 59.125 357.96 59.4574 357.705 59.7415C357.452 60.0227 357.128 60.2415 356.733 60.3977C356.338 60.5511 355.886 60.6278 355.378 60.6278ZM359.231 58.706H360.761C360.775 58.9503 360.885 59.1392 361.089 59.2727C361.294 59.4062 361.559 59.473 361.886 59.473C362.218 59.473 362.498 59.4006 362.725 59.2557C362.956 59.108 363.071 58.8849 363.071 58.5866C363.071 58.4105 363.027 58.2557 362.939 58.1222C362.85 57.9858 362.727 57.8807 362.568 57.8068C362.409 57.733 362.221 57.696 362.005 57.696H361.004V56.6009H362.005C362.326 56.6009 362.569 56.527 362.734 56.3793C362.902 56.2315 362.985 56.0455 362.985 55.821C362.985 55.5795 362.897 55.3835 362.721 55.233C362.548 55.0824 362.308 55.0071 362.001 55.0071C361.694 55.0071 361.439 55.0767 361.234 55.2159C361.032 55.3551 360.927 55.5341 360.919 55.7528H359.397C359.403 55.3722 359.517 55.0412 359.738 54.7599C359.963 54.4787 360.264 54.2599 360.642 54.1037C361.022 53.9474 361.451 53.8693 361.929 53.8693C362.44 53.8693 362.882 53.946 363.254 54.0994C363.626 54.2528 363.913 54.4673 364.115 54.7429C364.316 55.0156 364.417 55.3366 364.417 55.706C364.417 56.0611 364.306 56.3551 364.085 56.5881C363.863 56.8182 363.565 56.983 363.19 57.0824V57.1506C363.449 57.1648 363.681 57.2386 363.889 57.3722C364.096 57.5028 364.261 57.6804 364.383 57.9048C364.505 58.1293 364.566 58.3892 364.566 58.6847C364.566 59.0852 364.451 59.4318 364.221 59.7244C363.991 60.0142 363.674 60.2372 363.271 60.3935C362.87 60.5497 362.412 60.6278 361.895 60.6278C361.392 60.6278 360.941 60.5526 360.544 60.402C360.149 60.2486 359.835 60.0284 359.602 59.7415C359.369 59.4545 359.245 59.1094 359.231 58.706ZM366.74 62.9545C366.529 62.9545 366.335 62.9375 366.156 62.9034C365.98 62.8722 365.839 62.8352 365.734 62.7926L366.092 61.5909C366.316 61.6563 366.517 61.6875 366.693 61.6847C366.869 61.6818 367.024 61.6264 367.157 61.5185C367.294 61.4134 367.409 61.2372 367.502 60.9901L367.635 60.6364L365.261 53.9545H366.897L368.406 58.8977H368.474L369.987 53.9545H371.627L369.007 61.2926C368.885 61.6392 368.723 61.9361 368.521 62.1832C368.319 62.4332 368.072 62.6236 367.779 62.7543C367.49 62.8878 367.143 62.9545 366.74 62.9545ZM371.704 60.5L371.696 59.2301H371.922C372.092 59.2301 372.235 59.1918 372.352 59.1151C372.468 59.0384 372.565 58.9105 372.642 58.7315C372.718 58.5497 372.778 58.3054 372.821 57.9986C372.863 57.6918 372.893 57.3097 372.91 56.8523L373.025 53.9545H377.798V60.5H376.306V55.2202H374.427L374.325 57.3295C374.299 57.875 374.238 58.348 374.142 58.7486C374.048 59.1463 373.914 59.4744 373.741 59.733C373.571 59.9915 373.356 60.1847 373.098 60.3125C372.839 60.4375 372.534 60.5 372.181 60.5H371.704ZM380.327 60.5938C380.069 60.5938 379.847 60.5028 379.662 60.321C379.478 60.1392 379.387 59.9176 379.39 59.6562C379.387 59.4006 379.478 59.1818 379.662 59C379.847 58.8182 380.069 58.7273 380.327 58.7273C380.577 58.7273 380.794 58.8182 380.979 59C381.167 59.1818 381.262 59.4006 381.265 59.6562C381.262 59.8295 381.216 59.9872 381.128 60.1293C381.043 60.2713 380.929 60.3849 380.787 60.4702C380.648 60.5526 380.495 60.5938 380.327 60.5938ZM383.425 60.5938C383.167 60.5938 382.945 60.5028 382.76 60.321C382.576 60.1392 382.485 59.9176 382.488 59.6562C382.485 59.4006 382.576 59.1818 382.76 59C382.945 58.8182 383.167 58.7273 383.425 58.7273C383.675 58.7273 383.892 58.8182 384.077 59C384.265 59.1818 384.36 59.4006 384.363 59.6562C384.36 59.8295 384.314 59.9872 384.226 60.1293C384.141 60.2713 384.027 60.3849 383.885 60.4702C383.746 60.5526 383.593 60.5938 383.425 60.5938ZM386.519 60.5938C386.26 60.5938 386.039 60.5028 385.854 60.321C385.669 60.1392 385.578 59.9176 385.581 59.6562C385.578 59.4006 385.669 59.1818 385.854 59C386.039 58.8182 386.26 58.7273 386.519 58.7273C386.769 58.7273 386.986 58.8182 387.171 59C387.358 59.1818 387.453 59.4006 387.456 59.6562C387.453 59.8295 387.408 59.9872 387.32 60.1293C387.235 60.2713 387.121 60.3849 386.979 60.4702C386.84 60.5526 386.686 60.5938 386.519 60.5938Z" fill="#1A1C20"/>
<rect width="120" height="24" transform="translate(396 44)" fill="#D9D9E0"/>
<path d="M411.982 51.7727V60.5H410.413V53.0852H406.595V60.5H405.027V51.7727H411.982ZM416.659 60.6278C416.02 60.6278 415.466 60.4872 414.998 60.206C414.529 59.9247 414.165 59.5312 413.907 59.0256C413.651 58.5199 413.523 57.929 413.523 57.2528C413.523 56.5767 413.651 55.9844 413.907 55.4759C414.165 54.9673 414.529 54.5724 414.998 54.2912C415.466 54.0099 416.02 53.8693 416.659 53.8693C417.299 53.8693 417.853 54.0099 418.321 54.2912C418.79 54.5724 419.152 54.9673 419.408 55.4759C419.667 55.9844 419.796 56.5767 419.796 57.2528C419.796 57.929 419.667 58.5199 419.408 59.0256C419.152 59.5312 418.79 59.9247 418.321 60.206C417.853 60.4872 417.299 60.6278 416.659 60.6278ZM416.668 59.392C417.015 59.392 417.304 59.2969 417.537 59.1065C417.77 58.9134 417.944 58.6548 418.057 58.331C418.174 58.0071 418.232 57.6463 418.232 57.2486C418.232 56.848 418.174 56.4858 418.057 56.1619C417.944 55.8352 417.77 55.5753 417.537 55.3821C417.304 55.1889 417.015 55.0923 416.668 55.0923C416.313 55.0923 416.017 55.1889 415.782 55.3821C415.549 55.5753 415.374 55.8352 415.257 56.1619C415.144 56.4858 415.087 56.848 415.087 57.2486C415.087 57.6463 415.144 58.0071 415.257 58.331C415.374 58.6548 415.549 58.9134 415.782 59.1065C416.017 59.2969 416.313 59.392 416.668 59.392ZM420.653 60.5L420.645 59.2301H420.871C421.041 59.2301 421.185 59.1918 421.301 59.1151C421.418 59.0384 421.514 58.9105 421.591 58.7315C421.668 58.5497 421.727 58.3054 421.77 57.9986C421.813 57.6918 421.842 57.3097 421.859 56.8523L421.974 53.9545H426.747V60.5H425.256V55.2202H423.376L423.274 57.3295C423.249 57.875 423.188 58.348 423.091 58.7486C422.997 59.1463 422.864 59.4744 422.69 59.733C422.52 59.9915 422.305 60.1847 422.047 60.3125C421.788 60.4375 421.483 60.5 421.131 60.5H420.653ZM429.344 56.0852H431.275C432.11 56.0852 432.756 56.2884 433.214 56.6946C433.671 57.1009 433.901 57.6335 433.904 58.2926C433.901 58.7216 433.796 59.1023 433.589 59.4347C433.384 59.767 433.086 60.0284 432.694 60.2188C432.305 60.4062 431.832 60.5 431.275 60.5H428.3V53.9545H429.788V59.2344H431.275C431.61 59.2344 431.886 59.1491 432.102 58.9787C432.317 58.8054 432.425 58.5838 432.425 58.3139C432.425 58.0298 432.317 57.7983 432.102 57.6193C431.886 57.4403 431.61 57.3509 431.275 57.3509H429.344V56.0852ZM434.864 58.706H436.394C436.408 58.9503 436.517 59.1392 436.722 59.2727C436.926 59.4062 437.192 59.473 437.519 59.473C437.851 59.473 438.131 59.4006 438.358 59.2557C438.588 59.108 438.703 58.8849 438.703 58.5866C438.703 58.4105 438.659 58.2557 438.571 58.1222C438.483 57.9858 438.36 57.8807 438.201 57.8068C438.042 57.733 437.854 57.696 437.638 57.696H436.637V56.6009H437.638C437.959 56.6009 438.202 56.527 438.367 56.3793C438.534 56.2315 438.618 56.0455 438.618 55.821C438.618 55.5795 438.53 55.3835 438.354 55.233C438.181 55.0824 437.941 55.0071 437.634 55.0071C437.327 55.0071 437.071 55.0767 436.867 55.2159C436.665 55.3551 436.56 55.5341 436.551 55.7528H435.03C435.036 55.3722 435.15 55.0412 435.371 54.7599C435.596 54.4787 435.897 54.2599 436.275 54.1037C436.655 53.9474 437.084 53.8693 437.561 53.8693C438.073 53.8693 438.515 53.946 438.887 54.0994C439.259 54.2528 439.546 54.4673 439.748 54.7429C439.949 55.0156 440.05 55.3366 440.05 55.706C440.05 56.0611 439.939 56.3551 439.718 56.5881C439.496 56.8182 439.198 56.983 438.823 57.0824V57.1506C439.081 57.1648 439.314 57.2386 439.522 57.3722C439.729 57.5028 439.894 57.6804 440.016 57.9048C440.138 58.1293 440.199 58.3892 440.199 58.6847C440.199 59.0852 440.084 59.4318 439.854 59.7244C439.624 60.0142 439.307 60.2372 438.904 60.3935C438.503 60.5497 438.044 60.6278 437.527 60.6278C437.025 60.6278 436.574 60.5526 436.176 60.402C435.782 60.2486 435.468 60.0284 435.235 59.7415C435.002 59.4545 434.878 59.1094 434.864 58.706ZM444.269 60.6278C443.63 60.6278 443.076 60.4872 442.607 60.206C442.138 59.9247 441.775 59.5312 441.516 59.0256C441.26 58.5199 441.132 57.929 441.132 57.2528C441.132 56.5767 441.26 55.9844 441.516 55.4759C441.775 54.9673 442.138 54.5724 442.607 54.2912C443.076 54.0099 443.63 53.8693 444.269 53.8693C444.908 53.8693 445.462 54.0099 445.931 54.2912C446.4 54.5724 446.762 54.9673 447.017 55.4759C447.276 55.9844 447.405 56.5767 447.405 57.2528C447.405 57.929 447.276 58.5199 447.017 59.0256C446.762 59.5312 446.4 59.9247 445.931 60.206C445.462 60.4872 444.908 60.6278 444.269 60.6278ZM444.277 59.392C444.624 59.392 444.914 59.2969 445.147 59.1065C445.38 58.9134 445.553 58.6548 445.667 58.331C445.783 58.0071 445.841 57.6463 445.841 57.2486C445.841 56.848 445.783 56.4858 445.667 56.1619C445.553 55.8352 445.38 55.5753 445.147 55.3821C444.914 55.1889 444.624 55.0923 444.277 55.0923C443.922 55.0923 443.627 55.1889 443.391 55.3821C443.158 55.5753 442.983 55.8352 442.867 56.1619C442.753 56.4858 442.696 56.848 442.696 57.2486C442.696 57.6463 442.753 58.0071 442.867 58.331C442.983 58.6548 443.158 58.9134 443.391 59.1065C443.627 59.2969 443.922 59.392 444.277 59.392ZM448.714 60.5V53.9545H451.463C452.239 53.9545 452.851 54.1094 453.3 54.419C453.751 54.7287 453.977 55.1605 453.977 55.7145C453.977 56.081 453.849 56.3807 453.594 56.6136C453.341 56.8437 452.996 56.9986 452.558 57.0781C452.902 57.1065 453.203 57.1932 453.462 57.3381C453.723 57.483 453.928 57.6733 454.075 57.9091C454.223 58.1449 454.297 58.4162 454.297 58.723C454.297 59.0838 454.202 59.3977 454.011 59.6648C453.824 59.929 453.55 60.1349 453.189 60.2827C452.831 60.4276 452.396 60.5 451.885 60.5H448.714ZM450.159 59.2855H451.885C452.169 59.2855 452.392 59.2187 452.554 59.0852C452.716 58.9489 452.797 58.7642 452.797 58.5312C452.797 58.2614 452.716 58.0497 452.554 57.8963C452.392 57.7401 452.169 57.6619 451.885 57.6619H450.159V59.2855ZM450.159 56.6648H451.493C451.703 56.6648 451.884 56.6349 452.034 56.5753C452.185 56.5128 452.3 56.4261 452.379 56.3153C452.459 56.2017 452.499 56.0668 452.499 55.9105C452.499 55.6861 452.406 55.5099 452.222 55.3821C452.04 55.2543 451.787 55.1903 451.463 55.1903H450.159V56.6648ZM457.453 60.6321C457.039 60.6321 456.665 60.5582 456.333 60.4105C456.003 60.2599 455.742 60.0384 455.549 59.7457C455.358 59.4531 455.263 59.0923 455.263 58.6634C455.263 58.294 455.331 57.9886 455.468 57.7472C455.604 57.5057 455.79 57.3125 456.026 57.1676C456.262 57.0227 456.527 56.9134 456.823 56.8395C457.121 56.7628 457.429 56.7074 457.748 56.6733C458.131 56.6335 458.442 56.598 458.681 56.5668C458.919 56.5327 459.093 56.4815 459.201 56.4134C459.311 56.3423 459.367 56.233 459.367 56.0852V56.0597C459.367 55.7386 459.272 55.4901 459.081 55.3139C458.891 55.1378 458.617 55.0497 458.259 55.0497C457.881 55.0497 457.581 55.1321 457.36 55.2969C457.141 55.4616 456.993 55.6562 456.917 55.8807L455.476 55.6761C455.59 55.2784 455.777 54.946 456.039 54.679C456.3 54.4091 456.62 54.2074 456.998 54.0739C457.375 53.9375 457.793 53.8693 458.25 53.8693C458.566 53.8693 458.88 53.9062 459.192 53.9801C459.505 54.054 459.79 54.1761 460.049 54.3466C460.307 54.5142 460.515 54.7429 460.671 55.0327C460.83 55.3224 460.909 55.6847 460.909 56.1193V60.5H459.426V59.6009H459.375C459.282 59.7827 459.15 59.9531 458.979 60.1122C458.811 60.2685 458.6 60.3949 458.344 60.4915C458.091 60.5852 457.794 60.6321 457.453 60.6321ZM457.854 59.4986C458.164 59.4986 458.432 59.4375 458.659 59.3153C458.887 59.1903 459.061 59.0256 459.184 58.821C459.309 58.6165 459.371 58.3935 459.371 58.152V57.3807C459.323 57.4205 459.24 57.4574 459.124 57.4915C459.01 57.5256 458.882 57.5554 458.74 57.581C458.598 57.6065 458.458 57.6293 458.319 57.6491C458.179 57.669 458.059 57.6861 457.956 57.7003C457.726 57.7315 457.52 57.7827 457.338 57.8537C457.157 57.9247 457.013 58.0241 456.908 58.152C456.803 58.277 456.75 58.4389 456.75 58.6378C456.75 58.9219 456.854 59.1364 457.061 59.2812C457.269 59.4261 457.533 59.4986 457.854 59.4986ZM461.728 55.2202V53.9545H467.455V55.2202H465.337V60.5H463.846V55.2202H461.728ZM471.311 60.6278C470.655 60.6278 470.088 60.4915 469.611 60.2188C469.137 59.9432 468.772 59.554 468.516 59.0511C468.26 58.5455 468.132 57.9503 468.132 57.2656C468.132 56.5923 468.26 56.0014 468.516 55.4929C468.775 54.9815 469.135 54.5838 469.598 54.2997C470.061 54.0128 470.605 53.8693 471.23 53.8693C471.634 53.8693 472.015 53.9347 472.373 54.0653C472.733 54.1932 473.051 54.392 473.327 54.6619C473.605 54.9318 473.824 55.2756 473.983 55.6932C474.142 56.108 474.222 56.6023 474.222 57.1761V57.6491H468.857V56.6094H472.743C472.74 56.3139 472.676 56.0511 472.551 55.821C472.426 55.5881 472.252 55.4048 472.027 55.2713C471.806 55.1378 471.547 55.071 471.252 55.071C470.936 55.071 470.659 55.1477 470.421 55.3011C470.182 55.4517 469.996 55.6506 469.863 55.8977C469.732 56.142 469.665 56.4105 469.662 56.7031V57.6108C469.662 57.9915 469.732 58.3182 469.871 58.5909C470.01 58.8608 470.205 59.0682 470.455 59.2131C470.705 59.3551 470.998 59.4261 471.333 59.4261C471.557 59.4261 471.76 59.3949 471.942 59.3324C472.124 59.267 472.282 59.1719 472.415 59.0469C472.549 58.9219 472.65 58.767 472.718 58.5824L474.158 58.7443C474.067 59.125 473.894 59.4574 473.638 59.7415C473.385 60.0227 473.061 60.2415 472.667 60.3977C472.272 60.5511 471.82 60.6278 471.311 60.6278ZM475.075 60.5L475.067 59.2301H475.293C475.463 59.2301 475.607 59.1918 475.723 59.1151C475.839 59.0384 475.936 58.9105 476.013 58.7315C476.089 58.5497 476.149 58.3054 476.192 57.9986C476.234 57.6918 476.264 57.3097 476.281 56.8523L476.396 53.9545H481.169V60.5H479.678V55.2202H477.798L477.696 57.3295C477.67 57.875 477.609 58.348 477.513 58.7486C477.419 59.1463 477.286 59.4744 477.112 59.733C476.942 59.9915 476.727 60.1847 476.469 60.3125C476.21 60.4375 475.905 60.5 475.553 60.5H475.075ZM483.766 56.0852H485.697C486.532 56.0852 487.178 56.2884 487.636 56.6946C488.093 57.1009 488.323 57.6335 488.326 58.2926C488.323 58.7216 488.218 59.1023 488.011 59.4347C487.806 59.767 487.508 60.0284 487.116 60.2188C486.727 60.4062 486.254 60.5 485.697 60.5H482.722V53.9545H484.21V59.2344H485.697C486.032 59.2344 486.308 59.1491 486.523 58.9787C486.739 58.8054 486.847 58.5838 486.847 58.3139C486.847 58.0298 486.739 57.7983 486.523 57.6193C486.308 57.4403 486.032 57.3509 485.697 57.3509H483.766V56.0852Z" fill="#1A1C20"/>
<rect width="120" height="24" transform="translate(516 44)" fill="#D9D9E0"/>
<path d="M524.861 51.7727H526.795L529.386 58.0966H529.489L532.08 51.7727H534.014V60.5H532.497V54.5043H532.416L530.004 60.4744H528.871L526.459 54.4915H526.378V60.5H524.861V51.7727ZM538.565 60.6278C537.909 60.6278 537.342 60.4915 536.865 60.2188C536.391 59.9432 536.026 59.554 535.77 59.0511C535.514 58.5455 535.386 57.9503 535.386 57.2656C535.386 56.5923 535.514 56.0014 535.77 55.4929C536.028 54.9815 536.389 54.5838 536.852 54.2997C537.315 54.0128 537.859 53.8693 538.484 53.8693C538.888 53.8693 539.268 53.9347 539.626 54.0653C539.987 54.1932 540.305 54.392 540.581 54.6619C540.859 54.9318 541.078 55.2756 541.237 55.6932C541.396 56.108 541.476 56.6023 541.476 57.1761V57.6491H536.111V56.6094H539.997C539.994 56.3139 539.93 56.0511 539.805 55.821C539.68 55.5881 539.506 55.4048 539.281 55.2713C539.06 55.1378 538.801 55.071 538.506 55.071C538.19 55.071 537.913 55.1477 537.675 55.3011C537.436 55.4517 537.25 55.6506 537.116 55.8977C536.986 56.142 536.919 56.4105 536.916 56.7031V57.6108C536.916 57.9915 536.986 58.3182 537.125 58.5909C537.264 58.8608 537.459 59.0682 537.709 59.2131C537.959 59.3551 538.251 59.4261 538.587 59.4261C538.811 59.4261 539.014 59.3949 539.196 59.3324C539.378 59.267 539.536 59.1719 539.669 59.0469C539.803 58.9219 539.903 58.767 539.972 58.5824L541.412 58.7443C541.321 59.125 541.148 59.4574 540.892 59.7415C540.639 60.0227 540.315 60.2415 539.92 60.3977C539.526 60.5511 539.074 60.6278 538.565 60.6278ZM542.235 55.2202V53.9545H547.963V55.2202H545.845V60.5H544.353V55.2202H542.235ZM551.777 60.6278C551.137 60.6278 550.583 60.4872 550.115 60.206C549.646 59.9247 549.282 59.5312 549.024 59.0256C548.768 58.5199 548.64 57.929 548.64 57.2528C548.64 56.5767 548.768 55.9844 549.024 55.4759C549.282 54.9673 549.646 54.5724 550.115 54.2912C550.583 54.0099 551.137 53.8693 551.777 53.8693C552.416 53.8693 552.97 54.0099 553.439 54.2912C553.907 54.5724 554.27 54.9673 554.525 55.4759C554.784 55.9844 554.913 56.5767 554.913 57.2528C554.913 57.929 554.784 58.5199 554.525 59.0256C554.27 59.5312 553.907 59.9247 553.439 60.206C552.97 60.4872 552.416 60.6278 551.777 60.6278ZM551.785 59.392C552.132 59.392 552.422 59.2969 552.654 59.1065C552.887 58.9134 553.061 58.6548 553.174 58.331C553.291 58.0071 553.349 57.6463 553.349 57.2486C553.349 56.848 553.291 56.4858 553.174 56.1619C553.061 55.8352 552.887 55.5753 552.654 55.3821C552.422 55.1889 552.132 55.0923 551.785 55.0923C551.43 55.0923 551.135 55.1889 550.899 55.3821C550.666 55.5753 550.491 55.8352 550.375 56.1619C550.261 56.4858 550.204 56.848 550.204 57.2486C550.204 57.6463 550.261 58.0071 550.375 58.331C550.491 58.6548 550.666 58.9134 550.899 59.1065C551.135 59.2969 551.43 59.392 551.785 59.392ZM555.643 62.4006V59.2301H556.163C556.302 59.1222 556.418 58.9759 556.512 58.7912C556.606 58.6037 556.683 58.3835 556.742 58.1307C556.805 57.875 556.856 57.5895 556.896 57.2741C556.935 56.956 556.971 56.6136 557.002 56.2472L557.19 53.9545H561.92V59.2301H562.934V62.4006H561.442V60.5H557.16V62.4006H555.643ZM557.748 59.2301H560.445V55.1989H558.528L558.425 56.2472C558.369 56.9403 558.293 57.5341 558.2 58.0284C558.106 58.5227 557.955 58.9233 557.748 59.2301ZM569.917 60.6278C569.264 60.6278 568.703 60.4844 568.234 60.1974C567.768 59.9105 567.409 59.5142 567.156 59.0085C566.906 58.5 566.781 57.9148 566.781 57.2528C566.781 56.5881 566.909 56.0014 567.164 55.4929C567.42 54.9815 567.781 54.5838 568.247 54.2997C568.716 54.0128 569.27 53.8693 569.909 53.8693C570.44 53.8693 570.91 53.9673 571.319 54.1634C571.731 54.3565 572.059 54.6307 572.304 54.9858C572.548 55.3381 572.687 55.75 572.721 56.2216H571.247C571.187 55.9062 571.045 55.6435 570.821 55.4332C570.599 55.2202 570.302 55.1136 569.93 55.1136C569.615 55.1136 569.338 55.1989 569.099 55.3693C568.86 55.5369 568.674 55.7784 568.541 56.0938C568.41 56.4091 568.345 56.7869 568.345 57.2273C568.345 57.6733 568.41 58.0568 568.541 58.3778C568.672 58.696 568.855 58.9418 569.091 59.1151C569.329 59.2855 569.609 59.3707 569.93 59.3707C570.157 59.3707 570.36 59.3281 570.539 59.2429C570.721 59.1548 570.873 59.0284 570.995 58.8636C571.118 58.6989 571.201 58.4986 571.247 58.2628H572.721C572.684 58.7259 572.548 59.1364 572.312 59.4943C572.076 59.8494 571.755 60.1278 571.349 60.3295C570.943 60.5284 570.466 60.6278 569.917 60.6278ZM579.234 51.5341L579.771 52.5312C579.58 52.696 579.367 52.8153 579.131 52.8892C578.896 52.9631 578.619 53.0114 578.3 53.0341C577.985 53.054 577.61 53.0682 577.175 53.0767C576.687 53.0881 576.288 53.1804 575.978 53.3537C575.668 53.527 575.431 53.7898 575.266 54.142C575.102 54.4915 574.994 54.9375 574.942 55.4801H575.015C575.219 55.0795 575.506 54.7741 575.876 54.5639C576.245 54.3537 576.678 54.2486 577.175 54.2486C577.718 54.2486 578.197 54.3707 578.612 54.6151C579.029 54.8565 579.354 55.2074 579.587 55.6676C579.823 56.1278 579.941 56.6847 579.941 57.3381C579.941 58.0114 579.815 58.5952 579.562 59.0895C579.309 59.581 578.95 59.9602 578.484 60.2273C578.021 60.4943 577.471 60.6278 576.835 60.6278C576.201 60.6278 575.65 60.4901 575.181 60.2145C574.715 59.9361 574.354 59.5256 574.099 58.983C573.846 58.4375 573.719 57.7656 573.719 56.9673V56.3793C573.719 54.8395 574.006 53.6903 574.58 52.9318C575.154 52.1733 576.005 51.7869 577.133 51.7727C577.468 51.767 577.768 51.7656 578.032 51.7685C578.299 51.7713 578.532 51.7585 578.731 51.7301C578.93 51.7017 579.097 51.6364 579.234 51.5341ZM576.843 59.392C577.158 59.392 577.431 59.3111 577.661 59.1491C577.891 58.9844 578.067 58.7514 578.19 58.4503C578.315 58.1491 578.377 57.7926 578.377 57.3807C578.377 56.9744 578.315 56.6293 578.19 56.3452C578.065 56.0582 577.887 55.8395 577.657 55.6889C577.427 55.5384 577.153 55.4631 576.835 55.4631C576.596 55.4631 576.381 55.5057 576.191 55.5909C576.001 55.6761 575.839 55.8011 575.705 55.9659C575.572 56.1307 575.469 56.331 575.398 56.5668C575.327 56.8026 575.289 57.0739 575.283 57.3807C575.283 57.9972 575.423 58.4872 575.701 58.8509C575.979 59.2116 576.36 59.392 576.843 59.392ZM584.109 60.6278C583.469 60.6278 582.915 60.4872 582.447 60.206C581.978 59.9247 581.614 59.5312 581.356 59.0256C581.1 58.5199 580.972 57.929 580.972 57.2528C580.972 56.5767 581.1 55.9844 581.356 55.4759C581.614 54.9673 581.978 54.5724 582.447 54.2912C582.915 54.0099 583.469 53.8693 584.109 53.8693C584.748 53.8693 585.302 54.0099 585.771 54.2912C586.239 54.5724 586.602 54.9673 586.857 55.4759C587.116 55.9844 587.245 56.5767 587.245 57.2528C587.245 57.929 587.116 58.5199 586.857 59.0256C586.602 59.5312 586.239 59.9247 585.771 60.206C585.302 60.4872 584.748 60.6278 584.109 60.6278ZM584.117 59.392C584.464 59.392 584.754 59.2969 584.987 59.1065C585.219 58.9134 585.393 58.6548 585.506 58.331C585.623 58.0071 585.681 57.6463 585.681 57.2486C585.681 56.848 585.623 56.4858 585.506 56.1619C585.393 55.8352 585.219 55.5753 584.987 55.3821C584.754 55.1889 584.464 55.0923 584.117 55.0923C583.762 55.0923 583.467 55.1889 583.231 55.3821C582.998 55.5753 582.823 55.8352 582.707 56.1619C582.593 56.4858 582.536 56.848 582.536 57.2486C582.536 57.6463 582.593 58.0071 582.707 58.331C582.823 58.6548 582.998 58.9134 583.231 59.1065C583.467 59.2969 583.762 59.392 584.117 59.392ZM588.554 62.9545V53.9545H590.071V55.0369H590.161C590.24 54.8778 590.353 54.7088 590.498 54.5298C590.642 54.348 590.838 54.1932 591.086 54.0653C591.333 53.9347 591.648 53.8693 592.032 53.8693C592.537 53.8693 592.993 53.9986 593.4 54.2571C593.809 54.5128 594.132 54.892 594.371 55.3949C594.613 55.8949 594.733 56.5085 594.733 57.2358C594.733 57.9545 594.615 58.5653 594.38 59.0682C594.144 59.571 593.823 59.9545 593.417 60.2188C593.01 60.483 592.55 60.6151 592.036 60.6151C591.661 60.6151 591.35 60.5526 591.103 60.4276C590.855 60.3026 590.657 60.152 590.506 59.9759C590.358 59.7969 590.243 59.6278 590.161 59.4688H590.097V62.9545H588.554ZM590.067 57.2273C590.067 57.6506 590.127 58.0213 590.246 58.3395C590.368 58.6577 590.543 58.9062 590.77 59.0852C591 59.2614 591.279 59.3494 591.605 59.3494C591.946 59.3494 592.232 59.2585 592.462 59.0767C592.692 58.892 592.865 58.6406 592.982 58.3224C593.101 58.0014 593.161 57.6364 593.161 57.2273C593.161 56.821 593.103 56.4602 592.986 56.1449C592.87 55.8295 592.696 55.5824 592.466 55.4034C592.236 55.2244 591.949 55.1349 591.605 55.1349C591.276 55.1349 590.996 55.2216 590.766 55.3949C590.536 55.5682 590.361 55.8111 590.242 56.1236C590.125 56.4361 590.067 56.804 590.067 57.2273ZM597.938 60.6321C597.523 60.6321 597.15 60.5582 596.817 60.4105C596.488 60.2599 596.226 60.0384 596.033 59.7457C595.843 59.4531 595.748 59.0923 595.748 58.6634C595.748 58.294 595.816 57.9886 595.952 57.7472C596.088 57.5057 596.275 57.3125 596.51 57.1676C596.746 57.0227 597.012 56.9134 597.307 56.8395C597.605 56.7628 597.914 56.7074 598.232 56.6733C598.615 56.6335 598.926 56.598 599.165 56.5668C599.404 56.5327 599.577 56.4815 599.685 56.4134C599.796 56.3423 599.851 56.233 599.851 56.0852V56.0597C599.851 55.7386 599.756 55.4901 599.566 55.3139C599.375 55.1378 599.101 55.0497 598.743 55.0497C598.365 55.0497 598.066 55.1321 597.844 55.2969C597.625 55.4616 597.478 55.6562 597.401 55.8807L595.961 55.6761C596.074 55.2784 596.262 54.946 596.523 54.679C596.784 54.4091 597.104 54.2074 597.482 54.0739C597.86 53.9375 598.277 53.8693 598.735 53.8693C599.05 53.8693 599.364 53.9062 599.676 53.9801C599.989 54.054 600.275 54.1761 600.533 54.3466C600.792 54.5142 600.999 54.7429 601.155 55.0327C601.314 55.3224 601.394 55.6847 601.394 56.1193V60.5H599.911V59.6009H599.86C599.766 59.7827 599.634 59.9531 599.463 60.1122C599.296 60.2685 599.084 60.3949 598.828 60.4915C598.576 60.5852 598.279 60.6321 597.938 60.6321ZM598.338 59.4986C598.648 59.4986 598.917 59.4375 599.144 59.3153C599.371 59.1903 599.546 59.0256 599.668 58.821C599.793 58.6165 599.855 58.3935 599.855 58.152V57.3807C599.807 57.4205 599.725 57.4574 599.608 57.4915C599.495 57.5256 599.367 57.5554 599.225 57.581C599.083 57.6065 598.942 57.6293 598.803 57.6491C598.664 57.669 598.543 57.6861 598.441 57.7003C598.211 57.7315 598.005 57.7827 597.823 57.8537C597.641 57.9247 597.498 58.0241 597.392 58.152C597.287 58.277 597.235 58.4389 597.235 58.6378C597.235 58.9219 597.338 59.1364 597.546 59.2812C597.753 59.4261 598.017 59.4986 598.338 59.4986ZM605.342 62.4006V59.2301H605.862C606.001 59.1222 606.118 58.9759 606.211 58.7912C606.305 58.6037 606.382 58.3835 606.441 58.1307C606.504 57.875 606.555 57.5895 606.595 57.2741C606.635 56.956 606.67 56.6136 606.701 56.2472L606.889 53.9545H611.619V59.2301H612.633V62.4006H611.142V60.5H606.859V62.4006H605.342ZM607.447 59.2301H610.145V55.1989H608.227L608.125 56.2472C608.068 56.9403 607.993 57.5341 607.899 58.0284C607.805 58.5227 607.654 58.9233 607.447 59.2301ZM614.761 60.5938C614.502 60.5938 614.281 60.5028 614.096 60.321C613.911 60.1392 613.82 59.9176 613.823 59.6562C613.82 59.4006 613.911 59.1818 614.096 59C614.281 58.8182 614.502 58.7273 614.761 58.7273C615.011 58.7273 615.228 58.8182 615.413 59C615.6 59.1818 615.695 59.4006 615.698 59.6562C615.695 59.8295 615.65 59.9872 615.562 60.1293C615.477 60.2713 615.363 60.3849 615.221 60.4702C615.082 60.5526 614.928 60.5938 614.761 60.5938ZM617.859 60.5938C617.6 60.5938 617.379 60.5028 617.194 60.321C617.009 60.1392 616.918 59.9176 616.921 59.6562C616.918 59.4006 617.009 59.1818 617.194 59C617.379 58.8182 617.6 58.7273 617.859 58.7273C618.109 58.7273 618.326 58.8182 618.511 59C618.698 59.1818 618.793 59.4006 618.796 59.6562C618.793 59.8295 618.748 59.9872 618.66 60.1293C618.575 60.2713 618.461 60.3849 618.319 60.4702C618.18 60.5526 618.026 60.5938 617.859 60.5938ZM620.952 60.5938C620.694 60.5938 620.472 60.5028 620.288 60.321C620.103 60.1392 620.012 59.9176 620.015 59.6562C620.012 59.4006 620.103 59.1818 620.288 59C620.472 58.8182 620.694 58.7273 620.952 58.7273C621.202 58.7273 621.42 58.8182 621.604 59C621.792 59.1818 621.887 59.4006 621.89 59.6562C621.887 59.8295 621.842 59.9872 621.754 60.1293C621.668 60.2713 621.555 60.3849 621.413 60.4702C621.273 60.5526 621.12 60.5938 620.952 60.5938Z" fill="#1A1C20"/>
<rect width="288" height="24" transform="translate(636 44)" fill="#D9D9E0"/>
<path d="M651.982 51.7727V60.5H650.413V53.0852H646.595V60.5H645.027V51.7727H651.982ZM656.659 60.6278C656.02 60.6278 655.466 60.4872 654.998 60.206C654.529 59.9247 654.165 59.5312 653.907 59.0256C653.651 58.5199 653.523 57.929 653.523 57.2528C653.523 56.5767 653.651 55.9844 653.907 55.4759C654.165 54.9673 654.529 54.5724 654.998 54.2912C655.466 54.0099 656.02 53.8693 656.659 53.8693C657.299 53.8693 657.853 54.0099 658.321 54.2912C658.79 54.5724 659.152 54.9673 659.408 55.4759C659.667 55.9844 659.796 56.5767 659.796 57.2528C659.796 57.929 659.667 58.5199 659.408 59.0256C659.152 59.5312 658.79 59.9247 658.321 60.206C657.853 60.4872 657.299 60.6278 656.659 60.6278ZM656.668 59.392C657.015 59.392 657.304 59.2969 657.537 59.1065C657.77 58.9134 657.944 58.6548 658.057 58.331C658.174 58.0071 658.232 57.6463 658.232 57.2486C658.232 56.848 658.174 56.4858 658.057 56.1619C657.944 55.8352 657.77 55.5753 657.537 55.3821C657.304 55.1889 657.015 55.0923 656.668 55.0923C656.313 55.0923 656.017 55.1889 655.782 55.3821C655.549 55.5753 655.374 55.8352 655.257 56.1619C655.144 56.4858 655.087 56.848 655.087 57.2486C655.087 57.6463 655.144 58.0071 655.257 58.331C655.374 58.6548 655.549 58.9134 655.782 59.1065C656.017 59.2969 656.313 59.392 656.668 59.392ZM660.526 62.4006V59.2301H661.045C661.185 59.1222 661.301 58.9759 661.395 58.7912C661.489 58.6037 661.565 58.3835 661.625 58.1307C661.688 57.875 661.739 57.5895 661.778 57.2741C661.818 56.956 661.854 56.6136 661.885 56.2472L662.072 53.9545H666.803V59.2301H667.817V62.4006H666.325V60.5H662.043V62.4006H660.526ZM662.631 59.2301H665.328V55.1989H663.411L663.308 56.2472C663.251 56.9403 663.176 57.5341 663.082 58.0284C662.989 58.5227 662.838 58.9233 662.631 59.2301ZM668.968 62.9545V53.9545H670.485V55.0369H670.575C670.654 54.8778 670.767 54.7088 670.912 54.5298C671.056 54.348 671.252 54.1932 671.5 54.0653C671.747 53.9347 672.062 53.8693 672.446 53.8693C672.951 53.8693 673.407 53.9986 673.814 54.2571C674.223 54.5128 674.547 54.892 674.785 55.3949C675.027 55.8949 675.147 56.5085 675.147 57.2358C675.147 57.9545 675.029 58.5653 674.794 59.0682C674.558 59.571 674.237 59.9545 673.831 60.2188C673.424 60.483 672.964 60.6151 672.45 60.6151C672.075 60.6151 671.764 60.5526 671.517 60.4276C671.27 60.3026 671.071 60.152 670.92 59.9759C670.772 59.7969 670.657 59.6278 670.575 59.4688H670.511V62.9545H668.968ZM670.481 57.2273C670.481 57.6506 670.541 58.0213 670.66 58.3395C670.782 58.6577 670.957 58.9062 671.184 59.0852C671.414 59.2614 671.693 59.3494 672.02 59.3494C672.36 59.3494 672.646 59.2585 672.876 59.0767C673.106 58.892 673.279 58.6406 673.396 58.3224C673.515 58.0014 673.575 57.6364 673.575 57.2273C673.575 56.821 673.517 56.4602 673.4 56.1449C673.284 55.8295 673.11 55.5824 672.88 55.4034C672.65 55.2244 672.363 55.1349 672.02 55.1349C671.69 55.1349 671.41 55.2216 671.18 55.3949C670.95 55.5682 670.775 55.8111 670.656 56.1236C670.539 56.4361 670.481 56.804 670.481 57.2273ZM679.324 60.6278C678.684 60.6278 678.13 60.4872 677.662 60.206C677.193 59.9247 676.829 59.5312 676.571 59.0256C676.315 58.5199 676.187 57.929 676.187 57.2528C676.187 56.5767 676.315 55.9844 676.571 55.4759C676.829 54.9673 677.193 54.5724 677.662 54.2912C678.13 54.0099 678.684 53.8693 679.324 53.8693C679.963 53.8693 680.517 54.0099 680.985 54.2912C681.454 54.5724 681.816 54.9673 682.072 55.4759C682.331 55.9844 682.46 56.5767 682.46 57.2528C682.46 57.929 682.331 58.5199 682.072 59.0256C681.816 59.5312 681.454 59.9247 680.985 60.206C680.517 60.4872 679.963 60.6278 679.324 60.6278ZM679.332 59.392C679.679 59.392 679.968 59.2969 680.201 59.1065C680.434 58.9134 680.608 58.6548 680.721 58.331C680.838 58.0071 680.896 57.6463 680.896 57.2486C680.896 56.848 680.838 56.4858 680.721 56.1619C680.608 55.8352 680.434 55.5753 680.201 55.3821C679.968 55.1889 679.679 55.0923 679.332 55.0923C678.977 55.0923 678.681 55.1889 678.446 55.3821C678.213 55.5753 678.038 55.8352 677.922 56.1619C677.808 56.4858 677.751 56.848 677.751 57.2486C677.751 57.6463 677.808 58.0071 677.922 58.331C678.038 58.6548 678.213 58.9134 678.446 59.1065C678.681 59.2969 678.977 59.392 679.332 59.392ZM689.015 51.5341L689.552 52.5312C689.362 52.696 689.148 52.8153 688.913 52.8892C688.677 52.9631 688.4 53.0114 688.082 53.0341C687.766 53.054 687.391 53.0682 686.957 53.0767C686.468 53.0881 686.069 53.1804 685.759 53.3537C685.45 53.527 685.212 53.7898 685.048 54.142C684.883 54.4915 684.775 54.9375 684.724 55.4801H684.796C685.001 55.0795 685.288 54.7741 685.657 54.5639C686.026 54.3537 686.46 54.2486 686.957 54.2486C687.499 54.2486 687.978 54.3707 688.393 54.6151C688.81 54.8565 689.136 55.2074 689.369 55.6676C689.604 56.1278 689.722 56.6847 689.722 57.3381C689.722 58.0114 689.596 58.5952 689.343 59.0895C689.09 59.581 688.731 59.9602 688.265 60.2273C687.802 60.4943 687.252 60.6278 686.616 60.6278C685.982 60.6278 685.431 60.4901 684.962 60.2145C684.496 59.9361 684.136 59.5256 683.88 58.983C683.627 58.4375 683.501 57.7656 683.501 56.9673V56.3793C683.501 54.8395 683.788 53.6903 684.362 52.9318C684.935 52.1733 685.786 51.7869 686.914 51.7727C687.249 51.767 687.549 51.7656 687.813 51.7685C688.08 51.7713 688.313 51.7585 688.512 51.7301C688.711 51.7017 688.879 51.6364 689.015 51.5341ZM686.624 59.392C686.94 59.392 687.212 59.3111 687.442 59.1491C687.673 58.9844 687.849 58.7514 687.971 58.4503C688.096 58.1491 688.158 57.7926 688.158 57.3807C688.158 56.9744 688.096 56.6293 687.971 56.3452C687.846 56.0582 687.668 55.8395 687.438 55.6889C687.208 55.5384 686.934 55.4631 686.616 55.4631C686.377 55.4631 686.163 55.5057 685.972 55.5909C685.782 55.6761 685.62 55.8011 685.487 55.9659C685.353 56.1307 685.251 56.331 685.18 56.5668C685.109 56.8026 685.07 57.0739 685.065 57.3807C685.065 57.9972 685.204 58.4872 685.482 58.8509C685.761 59.2116 686.141 59.392 686.624 59.392ZM695.531 56.5881V57.8537H692.045V56.5881H695.531ZM692.522 53.9545V60.5H691.035V53.9545H692.522ZM696.54 53.9545V60.5H695.058V53.9545H696.54ZM700.956 60.6278C700.317 60.6278 699.763 60.4872 699.294 60.206C698.826 59.9247 698.462 59.5312 698.203 59.0256C697.948 58.5199 697.82 57.929 697.82 57.2528C697.82 56.5767 697.948 55.9844 698.203 55.4759C698.462 54.9673 698.826 54.5724 699.294 54.2912C699.763 54.0099 700.317 53.8693 700.956 53.8693C701.596 53.8693 702.15 54.0099 702.618 54.2912C703.087 54.5724 703.449 54.9673 703.705 55.4759C703.963 55.9844 704.093 56.5767 704.093 57.2528C704.093 57.929 703.963 58.5199 703.705 59.0256C703.449 59.5312 703.087 59.9247 702.618 60.206C702.15 60.4872 701.596 60.6278 700.956 60.6278ZM700.965 59.392C701.311 59.392 701.601 59.2969 701.834 59.1065C702.067 58.9134 702.24 58.6548 702.354 58.331C702.471 58.0071 702.529 57.6463 702.529 57.2486C702.529 56.848 702.471 56.4858 702.354 56.1619C702.24 55.8352 702.067 55.5753 701.834 55.3821C701.601 55.1889 701.311 55.0923 700.965 55.0923C700.61 55.0923 700.314 55.1889 700.078 55.3821C699.846 55.5753 699.671 55.8352 699.554 56.1619C699.441 56.4858 699.384 56.848 699.384 57.2486C699.384 57.6463 699.441 58.0071 699.554 58.331C699.671 58.6548 699.846 58.9134 700.078 59.1065C700.314 59.2969 700.61 59.392 700.965 59.392ZM708.257 60.6278C707.604 60.6278 707.043 60.4844 706.574 60.1974C706.108 59.9105 705.749 59.5142 705.496 59.0085C705.246 58.5 705.121 57.9148 705.121 57.2528C705.121 56.5881 705.249 56.0014 705.504 55.4929C705.76 54.9815 706.121 54.5838 706.587 54.2997C707.055 54.0128 707.609 53.8693 708.249 53.8693C708.78 53.8693 709.25 53.9673 709.659 54.1634C710.071 54.3565 710.399 54.6307 710.643 54.9858C710.888 55.3381 711.027 55.75 711.061 56.2216H709.587C709.527 55.9062 709.385 55.6435 709.161 55.4332C708.939 55.2202 708.642 55.1136 708.27 55.1136C707.955 55.1136 707.678 55.1989 707.439 55.3693C707.2 55.5369 707.014 55.7784 706.881 56.0938C706.75 56.4091 706.685 56.7869 706.685 57.2273C706.685 57.6733 706.75 58.0568 706.881 58.3778C707.011 58.696 707.195 58.9418 707.43 59.1151C707.669 59.2855 707.949 59.3707 708.27 59.3707C708.497 59.3707 708.7 59.3281 708.879 59.2429C709.061 59.1548 709.213 59.0284 709.335 58.8636C709.457 58.6989 709.541 58.4986 709.587 58.2628H711.061C711.024 58.7259 710.888 59.1364 710.652 59.4943C710.416 59.8494 710.095 60.1278 709.689 60.3295C709.283 60.5284 708.805 60.6278 708.257 60.6278ZM711.853 55.2202V53.9545H717.58V55.2202H715.462V60.5H713.971V55.2202H711.853ZM720.295 58.4119L722.916 53.9545H724.501V60.5H723.01V56.0384L720.398 60.5H718.808V53.9545H720.295V58.4119Z" fill="#1A1C20"/>
</g>
</g>
<rect x="0.5" y="0.5" width="923" height="423" stroke="#C3C6D2"/>
<defs>
<clipPath id="clip0_4432_48885">
<rect width="924" height="424" fill="white"/>
</clipPath>
</defs>
</svg>
