<svg width="839" height="89" viewBox="0 0 839 89" fill="none" xmlns="http://www.w3.org/2000/svg">
<path opacity="0.4" d="M9.05682 17V8.27273H12.108C12.7159 8.27273 13.2173 8.37784 13.6122 8.58807C14.0071 8.79545 14.3011 9.07528 14.4943 9.42756C14.6875 9.77699 14.7841 10.1648 14.7841 10.5909C14.7841 10.9659 14.7173 11.2756 14.5838 11.5199C14.4531 11.7642 14.2798 11.9574 14.0639 12.0994C13.8509 12.2415 13.6193 12.3466 13.3693 12.4148V12.5C13.6364 12.517 13.9048 12.6108 14.1747 12.7812C14.4446 12.9517 14.6705 13.196 14.8523 13.5142C15.0341 13.8324 15.125 14.2216 15.125 14.6818C15.125 15.1193 15.0256 15.5128 14.8267 15.8622C14.6278 16.2116 14.3139 16.4886 13.8849 16.6932C13.456 16.8977 12.8977 17 12.2102 17H9.05682ZM10.1136 16.0625H12.2102C12.9006 16.0625 13.3906 15.929 13.6804 15.6619C13.973 15.392 14.1193 15.0653 14.1193 14.6818C14.1193 14.3864 14.044 14.1136 13.8935 13.8636C13.7429 13.6108 13.5284 13.4091 13.25 13.2585C12.9716 13.1051 12.642 13.0284 12.2614 13.0284H10.1136V16.0625ZM10.1136 12.108H12.0739C12.392 12.108 12.679 12.0455 12.9347 11.9205C13.1932 11.7955 13.3977 11.6193 13.5483 11.392C13.7017 11.1648 13.7784 10.8977 13.7784 10.5909C13.7784 10.2074 13.6449 9.8821 13.3778 9.61506C13.1108 9.34517 12.6875 9.21023 12.108 9.21023H10.1136V12.108ZM16.3161 17L18.9751 13.6761L16.3501 10.4545H17.5433L19.7251 13.25H20.2706V10.4545H21.2763V13.25H21.8047L23.9865 10.4545H25.1797L22.5717 13.6761L25.2138 17H24.0036L21.7876 14.1875H21.2763V17H20.2706V14.1875H19.7592L17.5263 17H16.3161ZM28.5771 17.1534C28.1623 17.1534 27.7859 17.0753 27.4478 16.919C27.1097 16.7599 26.8413 16.5312 26.6424 16.233C26.4435 15.9318 26.3441 15.5682 26.3441 15.142C26.3441 14.767 26.418 14.4631 26.5657 14.2301C26.7134 13.9943 26.9109 13.8097 27.158 13.6761C27.4052 13.5426 27.6779 13.4432 27.9762 13.3778C28.2773 13.3097 28.5799 13.2557 28.8839 13.2159C29.2816 13.1648 29.604 13.1264 29.8512 13.1009C30.1012 13.0724 30.283 13.0256 30.3967 12.9602C30.5131 12.8949 30.5714 12.7812 30.5714 12.6193V12.5852C30.5714 12.1648 30.4563 11.8381 30.2262 11.6051C29.9989 11.3722 29.6538 11.2557 29.1907 11.2557C28.7106 11.2557 28.3342 11.3608 28.0614 11.571C27.7887 11.7812 27.5969 12.0057 27.4862 12.2443L26.5316 11.9034C26.7021 11.5057 26.9293 11.196 27.2134 10.9744C27.5004 10.75 27.8129 10.5937 28.1509 10.5057C28.4918 10.4148 28.8271 10.3693 29.1566 10.3693C29.3668 10.3693 29.6083 10.3949 29.881 10.446C30.1566 10.4943 30.4222 10.5952 30.6779 10.7486C30.9364 10.902 31.1509 11.1335 31.3214 11.4432C31.4918 11.7528 31.5771 12.1676 31.5771 12.6875V17H30.5714V16.1136H30.5202C30.4521 16.2557 30.3384 16.4077 30.1793 16.5696C30.0202 16.7315 29.8086 16.8693 29.5444 16.983C29.2802 17.0966 28.9577 17.1534 28.5771 17.1534ZM28.7305 16.25C29.1282 16.25 29.4634 16.1719 29.7362 16.0156C30.0117 15.8594 30.2191 15.6577 30.3583 15.4105C30.5004 15.1634 30.5714 14.9034 30.5714 14.6307V13.7102C30.5288 13.7614 30.435 13.8082 30.2901 13.8509C30.1481 13.8906 29.9833 13.9261 29.7958 13.9574C29.6112 13.9858 29.4308 14.0114 29.2546 14.0341C29.0813 14.054 28.9407 14.071 28.8327 14.0852C28.5714 14.1193 28.3271 14.1747 28.0998 14.2514C27.8754 14.3253 27.6935 14.4375 27.5543 14.5881C27.418 14.7358 27.3498 14.9375 27.3498 15.1932C27.3498 15.5426 27.479 15.8068 27.7376 15.9858C27.9989 16.1619 28.3299 16.25 28.7305 16.25ZM32.8331 17V16.0625H33.0717C33.2678 16.0625 33.4311 16.0241 33.5618 15.9474C33.6925 15.8679 33.7976 15.7301 33.8771 15.5341C33.9595 15.3352 34.022 15.0597 34.0646 14.7074C34.1101 14.3523 34.1428 13.9006 34.1626 13.3523L34.282 10.4545H38.6456V17H37.6399V11.392H35.2365L35.1342 13.7273C35.1115 14.2642 35.0632 14.7372 34.9893 15.1463C34.9183 15.5526 34.8089 15.8935 34.6612 16.169C34.5163 16.4446 34.3232 16.652 34.0817 16.7912C33.8402 16.9304 33.5376 17 33.174 17H32.8331ZM42.4169 17.1534C42.0021 17.1534 41.6257 17.0753 41.2876 16.919C40.9496 16.7599 40.6811 16.5312 40.4822 16.233C40.2834 15.9318 40.1839 15.5682 40.1839 15.142C40.1839 14.767 40.2578 14.4631 40.4055 14.2301C40.5533 13.9943 40.7507 13.8097 40.9979 13.6761C41.245 13.5426 41.5178 13.4432 41.8161 13.3778C42.1172 13.3097 42.4197 13.2557 42.7237 13.2159C43.1214 13.1648 43.4439 13.1264 43.6911 13.1009C43.9411 13.0724 44.1229 13.0256 44.2365 12.9602C44.353 12.8949 44.4112 12.7812 44.4112 12.6193V12.5852C44.4112 12.1648 44.2962 11.8381 44.0661 11.6051C43.8388 11.3722 43.4936 11.2557 43.0305 11.2557C42.5504 11.2557 42.174 11.3608 41.9013 11.571C41.6286 11.7812 41.4368 12.0057 41.326 12.2443L40.3714 11.9034C40.5419 11.5057 40.7692 11.196 41.0533 10.9744C41.3402 10.75 41.6527 10.5937 41.9908 10.5057C42.3317 10.4148 42.6669 10.3693 42.9964 10.3693C43.2067 10.3693 43.4482 10.3949 43.7209 10.446C43.9964 10.4943 44.2621 10.5952 44.5178 10.7486C44.7763 10.902 44.9908 11.1335 45.1612 11.4432C45.3317 11.7528 45.4169 12.1676 45.4169 12.6875V17H44.4112V16.1136H44.3601C44.2919 16.2557 44.1783 16.4077 44.0192 16.5696C43.8601 16.7315 43.6484 16.8693 43.3842 16.983C43.12 17.0966 42.7976 17.1534 42.4169 17.1534ZM42.5703 16.25C42.968 16.25 43.3033 16.1719 43.576 16.0156C43.8516 15.8594 44.0589 15.6577 44.1982 15.4105C44.3402 15.1634 44.4112 14.9034 44.4112 14.6307V13.7102C44.3686 13.7614 44.2749 13.8082 44.13 13.8509C43.9879 13.8906 43.8232 13.9261 43.6357 13.9574C43.451 13.9858 43.2706 14.0114 43.0945 14.0341C42.9212 14.054 42.7805 14.071 42.6726 14.0852C42.4112 14.1193 42.1669 14.1747 41.9396 14.2514C41.7152 14.3253 41.5334 14.4375 41.3942 14.5881C41.2578 14.7358 41.1896 14.9375 41.1896 15.1932C41.1896 15.5426 41.3189 15.8068 41.5774 15.9858C41.8388 16.1619 42.1697 16.25 42.5703 16.25Z" fill="#18191B"/>
<path opacity="0.4" d="M9.05682 34.2727H10.3182L13.2841 41.517H13.3864L16.3523 34.2727H17.6136V43H16.625V36.3693H16.5398L13.8125 43H12.858L10.1307 36.3693H10.0455V43H9.05682V34.2727ZM22.3406 43.1364C21.7099 43.1364 21.1658 42.9972 20.7085 42.7188C20.2539 42.4375 19.9031 42.0455 19.6559 41.5426C19.4116 41.0369 19.2894 40.4489 19.2894 39.7784C19.2894 39.108 19.4116 38.517 19.6559 38.0057C19.9031 37.4915 20.2468 37.0909 20.6871 36.804C21.1303 36.5142 21.6474 36.3693 22.2383 36.3693C22.5792 36.3693 22.9158 36.4261 23.2482 36.5398C23.5806 36.6534 23.8832 36.8381 24.1559 37.0938C24.4286 37.3466 24.646 37.6818 24.8079 38.0994C24.9698 38.517 25.0508 39.0312 25.0508 39.642V40.0682H20.0053V39.1989H24.0281C24.0281 38.8295 23.9542 38.5 23.8065 38.2102C23.6616 37.9205 23.4542 37.6918 23.1843 37.5241C22.9173 37.3565 22.6019 37.2727 22.2383 37.2727C21.8377 37.2727 21.4911 37.3722 21.1985 37.571C20.9087 37.767 20.6857 38.0227 20.5295 38.3381C20.3732 38.6534 20.2951 38.9915 20.2951 39.3523V39.9318C20.2951 40.4261 20.3803 40.8452 20.5508 41.1889C20.7241 41.5298 20.9641 41.7898 21.271 41.9688C21.5778 42.1449 21.9343 42.233 22.3406 42.233C22.6048 42.233 22.8434 42.196 23.0565 42.1222C23.2724 42.0455 23.4585 41.9318 23.6147 41.7812C23.771 41.6278 23.8917 41.4375 23.9769 41.2102L24.9485 41.483C24.8462 41.8125 24.6744 42.1023 24.4329 42.3523C24.1914 42.5994 23.8931 42.7926 23.538 42.9318C23.1829 43.0682 22.7837 43.1364 22.3406 43.1364ZM25.9712 37.392V36.4545H31.2894V37.392H29.1417V43H28.136V37.392H25.9712ZM35.0756 43.1364C34.4847 43.1364 33.9663 42.9957 33.5202 42.7145C33.0771 42.4332 32.7305 42.0398 32.4805 41.5341C32.2333 41.0284 32.1097 40.4375 32.1097 39.7614C32.1097 39.0795 32.2333 38.4844 32.4805 37.9759C32.7305 37.4673 33.0771 37.0724 33.5202 36.7912C33.9663 36.5099 34.4847 36.3693 35.0756 36.3693C35.6665 36.3693 36.1836 36.5099 36.6268 36.7912C37.0728 37.0724 37.4194 37.4673 37.6665 37.9759C37.9165 38.4844 38.0415 39.0795 38.0415 39.7614C38.0415 40.4375 37.9165 41.0284 37.6665 41.5341C37.4194 42.0398 37.0728 42.4332 36.6268 42.7145C36.1836 42.9957 35.6665 43.1364 35.0756 43.1364ZM35.0756 42.233C35.5245 42.233 35.8938 42.1179 36.1836 41.8878C36.4734 41.6577 36.6879 41.3551 36.8271 40.9801C36.9663 40.6051 37.0359 40.1989 37.0359 39.7614C37.0359 39.3239 36.9663 38.9162 36.8271 38.5384C36.6879 38.1605 36.4734 37.8551 36.1836 37.6222C35.8938 37.3892 35.5245 37.2727 35.0756 37.2727C34.6268 37.2727 34.2575 37.3892 33.9677 37.6222C33.6779 37.8551 33.4634 38.1605 33.3242 38.5384C33.185 38.9162 33.1154 39.3239 33.1154 39.7614C33.1154 40.1989 33.185 40.6051 33.3242 40.9801C33.4634 41.3551 33.6779 41.6577 33.9677 41.8878C34.2575 42.1179 34.6268 42.233 35.0756 42.233ZM38.8778 44.875V42.0625H39.4233C39.5568 41.9233 39.6719 41.7727 39.7685 41.6108C39.8651 41.4489 39.9489 41.2571 40.0199 41.0355C40.0938 40.8111 40.1563 40.5384 40.2074 40.2173C40.2585 39.8935 40.304 39.5028 40.3438 39.0455L40.5653 36.4545H44.7244V42.0625H45.7301V44.875H44.7244V43H39.8835V44.875H38.8778ZM40.5653 42.0625H43.7188V37.392H41.5028L41.3324 39.0455C41.2614 39.7301 41.1733 40.3281 41.0682 40.8395C40.9631 41.3509 40.7955 41.7585 40.5653 42.0625ZM50.44 43V36.4545H55.5877V43H54.582V37.392H51.4457V43H50.44ZM57.4244 45.4545V36.4545H58.396V37.4943H58.5153C58.5891 37.3807 58.6914 37.2358 58.8221 37.0597C58.9556 36.8807 59.146 36.7216 59.3931 36.5824C59.6431 36.4403 59.9812 36.3693 60.4073 36.3693C60.9585 36.3693 61.4442 36.5071 61.8647 36.7827C62.2852 37.0582 62.6133 37.4489 62.8491 37.9545C63.0849 38.4602 63.2028 39.0568 63.2028 39.7443C63.2028 40.4375 63.0849 41.0384 62.8491 41.5469C62.6133 42.0526 62.2866 42.4446 61.869 42.723C61.4513 42.9986 60.9698 43.1364 60.4244 43.1364C60.0039 43.1364 59.6673 43.0668 59.4144 42.9276C59.1616 42.7855 58.967 42.625 58.8306 42.446C58.6942 42.2642 58.5891 42.1136 58.5153 41.9943H58.43V45.4545H57.4244ZM58.413 39.7273C58.413 40.2216 58.4854 40.6577 58.6303 41.0355C58.7752 41.4105 58.9869 41.7045 59.2653 41.9176C59.5437 42.1278 59.8846 42.233 60.288 42.233C60.7085 42.233 61.0593 42.1222 61.3406 41.9006C61.6246 41.6761 61.8377 41.375 61.9798 40.9972C62.1246 40.6165 62.1971 40.1932 62.1971 39.7273C62.1971 39.267 62.1261 38.8523 61.984 38.483C61.8448 38.1108 61.6332 37.8168 61.3491 37.6009C61.0678 37.3821 60.7141 37.2727 60.288 37.2727C59.8789 37.2727 59.5352 37.3764 59.2567 37.5838C58.9783 37.7884 58.7681 38.0753 58.6261 38.4446C58.484 38.8111 58.413 39.2386 58.413 39.7273ZM67.396 43.1364C66.805 43.1364 66.2866 42.9957 65.8406 42.7145C65.3974 42.4332 65.0508 42.0398 64.8008 41.5341C64.5536 41.0284 64.43 40.4375 64.43 39.7614C64.43 39.0795 64.5536 38.4844 64.8008 37.9759C65.0508 37.4673 65.3974 37.0724 65.8406 36.7912C66.2866 36.5099 66.805 36.3693 67.396 36.3693C67.9869 36.3693 68.5039 36.5099 68.9471 36.7912C69.3931 37.0724 69.7397 37.4673 69.9869 37.9759C70.2369 38.4844 70.3619 39.0795 70.3619 39.7614C70.3619 40.4375 70.2369 41.0284 69.9869 41.5341C69.7397 42.0398 69.3931 42.4332 68.9471 42.7145C68.5039 42.9957 67.9869 43.1364 67.396 43.1364ZM67.396 42.233C67.8448 42.233 68.2141 42.1179 68.5039 41.8878C68.7937 41.6577 69.0082 41.3551 69.1474 40.9801C69.2866 40.6051 69.3562 40.1989 69.3562 39.7614C69.3562 39.3239 69.2866 38.9162 69.1474 38.5384C69.0082 38.1605 68.7937 37.8551 68.5039 37.6222C68.2141 37.3892 67.8448 37.2727 67.396 37.2727C66.9471 37.2727 66.5778 37.3892 66.288 37.6222C65.9982 37.8551 65.7837 38.1605 65.6445 38.5384C65.5053 38.9162 65.4357 39.3239 65.4357 39.7614C65.4357 40.1989 65.5053 40.6051 65.6445 40.9801C65.7837 41.3551 65.9982 41.6577 66.288 41.8878C66.5778 42.1179 66.9471 42.233 67.396 42.233ZM76.755 34L77.2663 34.6136C77.0675 34.8068 76.8374 34.9418 76.576 35.0185C76.3146 35.0952 76.0192 35.142 75.6896 35.1591C75.3601 35.1761 74.9936 35.1932 74.5902 35.2102C74.1357 35.2273 73.7592 35.3381 73.4609 35.5426C73.1626 35.7472 72.9325 36.0426 72.7706 36.429C72.6087 36.8153 72.505 37.2898 72.4595 37.8523H72.5447C72.7663 37.4432 73.0732 37.142 73.4652 36.9489C73.8572 36.7557 74.2777 36.6591 74.7266 36.6591C75.2379 36.6591 75.6982 36.7784 76.1072 37.017C76.5163 37.2557 76.8402 37.6094 77.0788 38.0781C77.3175 38.5469 77.4368 39.125 77.4368 39.8125C77.4368 40.4972 77.3146 41.0881 77.0703 41.5852C76.8288 42.0824 76.4893 42.4659 76.0518 42.7358C75.6172 43.0028 75.1072 43.1364 74.522 43.1364C73.9368 43.1364 73.424 42.9986 72.9837 42.723C72.5433 42.4446 72.201 42.0327 71.9567 41.4872C71.7124 40.9389 71.5902 40.2614 71.5902 39.4545V38.7557C71.5902 37.2983 71.8374 36.1932 72.3317 35.4403C72.8288 34.6875 73.576 34.2983 74.5732 34.2727C74.9254 34.2614 75.2393 34.2585 75.5149 34.2642C75.7905 34.2699 76.0305 34.2571 76.2351 34.2259C76.4396 34.1946 76.6129 34.1193 76.755 34ZM74.522 42.233C74.9169 42.233 75.2564 42.1335 75.5405 41.9347C75.8274 41.7358 76.0476 41.456 76.201 41.0952C76.3544 40.7315 76.4311 40.304 76.4311 39.8125C76.4311 39.3352 76.353 38.929 76.1967 38.5938C76.0433 38.2585 75.8232 38.0028 75.5362 37.8267C75.2493 37.6506 74.9055 37.5625 74.505 37.5625C74.2124 37.5625 73.9496 37.6122 73.7166 37.7116C73.4837 37.8111 73.2848 37.9574 73.12 38.1506C72.9553 38.3437 72.8274 38.5795 72.7365 38.858C72.6484 39.1364 72.6016 39.4545 72.5959 39.8125C72.5959 40.5455 72.7678 41.1321 73.1115 41.5724C73.4553 42.0128 73.9254 42.233 74.522 42.233ZM81.6342 43.1364C81.0433 43.1364 80.5249 42.9957 80.0788 42.7145C79.6357 42.4332 79.2891 42.0398 79.0391 41.5341C78.7919 41.0284 78.6683 40.4375 78.6683 39.7614C78.6683 39.0795 78.7919 38.4844 79.0391 37.9759C79.2891 37.4673 79.6357 37.0724 80.0788 36.7912C80.5249 36.5099 81.0433 36.3693 81.6342 36.3693C82.2251 36.3693 82.7422 36.5099 83.1854 36.7912C83.6314 37.0724 83.978 37.4673 84.2251 37.9759C84.4751 38.4844 84.6001 39.0795 84.6001 39.7614C84.6001 40.4375 84.4751 41.0284 84.2251 41.5341C83.978 42.0398 83.6314 42.4332 83.1854 42.7145C82.7422 42.9957 82.2251 43.1364 81.6342 43.1364ZM81.6342 42.233C82.0831 42.233 82.4524 42.1179 82.7422 41.8878C83.032 41.6577 83.2464 41.3551 83.3857 40.9801C83.5249 40.6051 83.5945 40.1989 83.5945 39.7614C83.5945 39.3239 83.5249 38.9162 83.3857 38.5384C83.2464 38.1605 83.032 37.8551 82.7422 37.6222C82.4524 37.3892 82.0831 37.2727 81.6342 37.2727C81.1854 37.2727 80.8161 37.3892 80.5263 37.6222C80.2365 37.8551 80.022 38.1605 79.8828 38.5384C79.7436 38.9162 79.674 39.3239 79.674 39.7614C79.674 40.1989 79.7436 40.6051 79.8828 40.9801C80.022 41.3551 80.2365 41.6577 80.5263 41.8878C80.8161 42.1179 81.1854 42.233 81.6342 42.233ZM88.7944 43.1364C88.2035 43.1364 87.685 42.9957 87.239 42.7145C86.7958 42.4332 86.4492 42.0398 86.1992 41.5341C85.9521 41.0284 85.8285 40.4375 85.8285 39.7614C85.8285 39.0795 85.9521 38.4844 86.1992 37.9759C86.4492 37.4673 86.7958 37.0724 87.239 36.7912C87.685 36.5099 88.2035 36.3693 88.7944 36.3693C89.3853 36.3693 89.9023 36.5099 90.3455 36.7912C90.7915 37.0724 91.1381 37.4673 91.3853 37.9759C91.6353 38.4844 91.7603 39.0795 91.7603 39.7614C91.7603 40.4375 91.6353 41.0284 91.3853 41.5341C91.1381 42.0398 90.7915 42.4332 90.3455 42.7145C89.9023 42.9957 89.3853 43.1364 88.7944 43.1364ZM88.7944 42.233C89.2433 42.233 89.6126 42.1179 89.9023 41.8878C90.1921 41.6577 90.4066 41.3551 90.5458 40.9801C90.685 40.6051 90.7546 40.1989 90.7546 39.7614C90.7546 39.3239 90.685 38.9162 90.5458 38.5384C90.4066 38.1605 90.1921 37.8551 89.9023 37.6222C89.6126 37.3892 89.2433 37.2727 88.7944 37.2727C88.3455 37.2727 87.9762 37.3892 87.6864 37.6222C87.3967 37.8551 87.1822 38.1605 87.043 38.5384C86.9038 38.9162 86.8342 39.3239 86.8342 39.7614C86.8342 40.1989 86.9038 40.6051 87.043 40.9801C87.1822 41.3551 87.3967 41.6577 87.6864 41.8878C87.9762 42.1179 88.3455 42.233 88.7944 42.233ZM98.1534 34L98.6648 34.6136C98.4659 34.8068 98.2358 34.9418 97.9744 35.0185C97.7131 35.0952 97.4176 35.142 97.0881 35.1591C96.7585 35.1761 96.392 35.1932 95.9886 35.2102C95.5341 35.2273 95.1577 35.3381 94.8594 35.5426C94.5611 35.7472 94.331 36.0426 94.169 36.429C94.0071 36.8153 93.9034 37.2898 93.858 37.8523H93.9432C94.1648 37.4432 94.4716 37.142 94.8636 36.9489C95.2557 36.7557 95.6761 36.6591 96.125 36.6591C96.6364 36.6591 97.0966 36.7784 97.5057 37.017C97.9148 37.2557 98.2386 37.6094 98.4773 38.0781C98.7159 38.5469 98.8352 39.125 98.8352 39.8125C98.8352 40.4972 98.7131 41.0881 98.4688 41.5852C98.2273 42.0824 97.8878 42.4659 97.4503 42.7358C97.0156 43.0028 96.5057 43.1364 95.9205 43.1364C95.3352 43.1364 94.8224 42.9986 94.3821 42.723C93.9418 42.4446 93.5994 42.0327 93.3551 41.4872C93.1108 40.9389 92.9886 40.2614 92.9886 39.4545V38.7557C92.9886 37.2983 93.2358 36.1932 93.7301 35.4403C94.2273 34.6875 94.9744 34.2983 95.9716 34.2727C96.3239 34.2614 96.6378 34.2585 96.9134 34.2642C97.1889 34.2699 97.429 34.2571 97.6335 34.2259C97.8381 34.1946 98.0114 34.1193 98.1534 34ZM95.9205 42.233C96.3153 42.233 96.6548 42.1335 96.9389 41.9347C97.2259 41.7358 97.446 41.456 97.5994 41.0952C97.7528 40.7315 97.8295 40.304 97.8295 39.8125C97.8295 39.3352 97.7514 38.929 97.5952 38.5938C97.4418 38.2585 97.2216 38.0028 96.9347 37.8267C96.6477 37.6506 96.304 37.5625 95.9034 37.5625C95.6108 37.5625 95.348 37.6122 95.1151 37.7116C94.8821 37.8111 94.6832 37.9574 94.5185 38.1506C94.3537 38.3437 94.2259 38.5795 94.1349 38.858C94.0469 39.1364 94 39.4545 93.9943 39.8125C93.9943 40.5455 94.1662 41.1321 94.5099 41.5724C94.8537 42.0128 95.3239 42.233 95.9205 42.233ZM100.374 45.4545V36.4545H101.345V37.4943H101.464C101.538 37.3807 101.641 37.2358 101.771 37.0597C101.905 36.8807 102.095 36.7216 102.342 36.5824C102.592 36.4403 102.93 36.3693 103.357 36.3693C103.908 36.3693 104.393 36.5071 104.814 36.7827C105.234 37.0582 105.563 37.4489 105.798 37.9545C106.034 38.4602 106.152 39.0568 106.152 39.7443C106.152 40.4375 106.034 41.0384 105.798 41.5469C105.563 42.0526 105.236 42.4446 104.818 42.723C104.401 42.9986 103.919 43.1364 103.374 43.1364C102.953 43.1364 102.616 43.0668 102.364 42.9276C102.111 42.7855 101.916 42.625 101.78 42.446C101.643 42.2642 101.538 42.1136 101.464 41.9943H101.379V45.4545H100.374ZM101.362 39.7273C101.362 40.2216 101.435 40.6577 101.58 41.0355C101.724 41.4105 101.936 41.7045 102.214 41.9176C102.493 42.1278 102.834 42.233 103.237 42.233C103.658 42.233 104.009 42.1222 104.29 41.9006C104.574 41.6761 104.787 41.375 104.929 40.9972C105.074 40.6165 105.146 40.1932 105.146 39.7273C105.146 39.267 105.075 38.8523 104.933 38.483C104.794 38.1108 104.582 37.8168 104.298 37.6009C104.017 37.3821 103.663 37.2727 103.237 37.2727C102.828 37.2727 102.484 37.3764 102.206 37.5838C101.928 37.7884 101.717 38.0753 101.575 38.4446C101.433 38.8111 101.362 39.2386 101.362 39.7273ZM109.612 43.1534C109.197 43.1534 108.821 43.0753 108.483 42.919C108.145 42.7599 107.876 42.5312 107.678 42.233C107.479 41.9318 107.379 41.5682 107.379 41.142C107.379 40.767 107.453 40.4631 107.601 40.2301C107.749 39.9943 107.946 39.8097 108.193 39.6761C108.44 39.5426 108.713 39.4432 109.011 39.3778C109.313 39.3097 109.615 39.2557 109.919 39.2159C110.317 39.1648 110.639 39.1264 110.886 39.1009C111.136 39.0724 111.318 39.0256 111.432 38.9602C111.548 38.8949 111.607 38.7812 111.607 38.6193V38.5852C111.607 38.1648 111.491 37.8381 111.261 37.6051C111.034 37.3722 110.689 37.2557 110.226 37.2557C109.746 37.2557 109.369 37.3608 109.097 37.571C108.824 37.7812 108.632 38.0057 108.521 38.2443L107.567 37.9034C107.737 37.5057 107.964 37.196 108.249 36.9744C108.536 36.75 108.848 36.5937 109.186 36.5057C109.527 36.4148 109.862 36.3693 110.192 36.3693C110.402 36.3693 110.643 36.3949 110.916 36.446C111.192 36.4943 111.457 36.5952 111.713 36.7486C111.972 36.902 112.186 37.1335 112.357 37.4432C112.527 37.7528 112.612 38.1676 112.612 38.6875V43H111.607V42.1136H111.555C111.487 42.2557 111.374 42.4077 111.214 42.5696C111.055 42.7315 110.844 42.8693 110.58 42.983C110.315 43.0966 109.993 43.1534 109.612 43.1534ZM109.766 42.25C110.163 42.25 110.499 42.1719 110.771 42.0156C111.047 41.8594 111.254 41.6577 111.393 41.4105C111.536 41.1634 111.607 40.9034 111.607 40.6307V39.7102C111.564 39.7614 111.47 39.8082 111.325 39.8509C111.183 39.8906 111.018 39.9261 110.831 39.9574C110.646 39.9858 110.466 40.0114 110.29 40.0341C110.116 40.054 109.976 40.071 109.868 40.0852C109.607 40.1193 109.362 40.1747 109.135 40.2514C108.911 40.3253 108.729 40.4375 108.589 40.5881C108.453 40.7358 108.385 40.9375 108.385 41.1932C108.385 41.5426 108.514 41.8068 108.773 41.9858C109.034 42.1619 109.365 42.25 109.766 42.25ZM119.306 34L119.817 34.6136C119.618 34.8068 119.388 34.9418 119.127 35.0185C118.865 35.0952 118.57 35.142 118.24 35.1591C117.911 35.1761 117.544 35.1932 117.141 35.2102C116.686 35.2273 116.31 35.3381 116.012 35.5426C115.713 35.7472 115.483 36.0426 115.321 36.429C115.159 36.8153 115.056 37.2898 115.01 37.8523H115.096C115.317 37.4432 115.624 37.142 116.016 36.9489C116.408 36.7557 116.828 36.6591 117.277 36.6591C117.789 36.6591 118.249 36.7784 118.658 37.017C119.067 37.2557 119.391 37.6094 119.63 38.0781C119.868 38.5469 119.988 39.125 119.988 39.8125C119.988 40.4972 119.865 41.0881 119.621 41.5852C119.38 42.0824 119.04 42.4659 118.603 42.7358C118.168 43.0028 117.658 43.1364 117.073 43.1364C116.488 43.1364 115.975 42.9986 115.534 42.723C115.094 42.4446 114.752 42.0327 114.507 41.4872C114.263 40.9389 114.141 40.2614 114.141 39.4545V38.7557C114.141 37.2983 114.388 36.1932 114.882 35.4403C115.38 34.6875 116.127 34.2983 117.124 34.2727C117.476 34.2614 117.79 34.2585 118.066 34.2642C118.341 34.2699 118.581 34.2571 118.786 34.2259C118.99 34.1946 119.164 34.1193 119.306 34ZM117.073 42.233C117.468 42.233 117.807 42.1335 118.091 41.9347C118.378 41.7358 118.598 41.456 118.752 41.0952C118.905 40.7315 118.982 40.304 118.982 39.8125C118.982 39.3352 118.904 38.929 118.748 38.5938C118.594 38.2585 118.374 38.0028 118.087 37.8267C117.8 37.6506 117.456 37.5625 117.056 37.5625C116.763 37.5625 116.5 37.6122 116.267 37.7116C116.034 37.8111 115.836 37.9574 115.671 38.1506C115.506 38.3437 115.378 38.5795 115.287 38.858C115.199 39.1364 115.152 39.4545 115.147 39.8125C115.147 40.5455 115.319 41.1321 115.662 41.5724C116.006 42.0128 116.476 42.233 117.073 42.233ZM124.185 43.1364C123.594 43.1364 123.076 42.9957 122.63 42.7145C122.186 42.4332 121.84 42.0398 121.59 41.5341C121.343 41.0284 121.219 40.4375 121.219 39.7614C121.219 39.0795 121.343 38.4844 121.59 37.9759C121.84 37.4673 122.186 37.0724 122.63 36.7912C123.076 36.5099 123.594 36.3693 124.185 36.3693C124.776 36.3693 125.293 36.5099 125.736 36.7912C126.182 37.0724 126.529 37.4673 126.776 37.9759C127.026 38.4844 127.151 39.0795 127.151 39.7614C127.151 40.4375 127.026 41.0284 126.776 41.5341C126.529 42.0398 126.182 42.4332 125.736 42.7145C125.293 42.9957 124.776 43.1364 124.185 43.1364ZM124.185 42.233C124.634 42.233 125.003 42.1179 125.293 41.8878C125.583 41.6577 125.797 41.3551 125.936 40.9801C126.076 40.6051 126.145 40.1989 126.145 39.7614C126.145 39.3239 126.076 38.9162 125.936 38.5384C125.797 38.1605 125.583 37.8551 125.293 37.6222C125.003 37.3892 124.634 37.2727 124.185 37.2727C123.736 37.2727 123.367 37.3892 123.077 37.6222C122.787 37.8551 122.573 38.1605 122.434 38.5384C122.294 38.9162 122.225 39.3239 122.225 39.7614C122.225 40.1989 122.294 40.6051 122.434 40.9801C122.573 41.3551 122.787 41.6577 123.077 41.8878C123.367 42.1179 123.736 42.233 124.185 42.233ZM127.831 37.392V36.4545H133.149V37.392H131.001V43H129.995V37.392H127.831ZM134.616 43V36.4545H135.621V39.3011H136.286L138.638 36.4545H139.934L137.292 39.608L139.968 43H138.673L136.525 40.2386H135.621V43H134.616ZM142.067 41.517L145.22 36.4545H146.379V43H145.374V37.9375L142.237 43H141.061V36.4545H142.067V41.517Z" fill="#18191B"/>
<path opacity="0.4" d="M38.5405 71.8182V82H36.4126V73.5682H32.2962V82H30.1683V71.8182H38.5405ZM40.5502 84.8636V74.3636H42.6383V75.6463H42.7328C42.8256 75.4408 42.9598 75.232 43.1355 75.0199C43.3145 74.8045 43.5465 74.6255 43.8315 74.483C44.1199 74.3371 44.4778 74.2642 44.9054 74.2642C45.4622 74.2642 45.9759 74.41 46.4466 74.7017C46.9172 74.9901 47.2934 75.4259 47.5751 76.0092C47.8568 76.5893 47.9977 77.3168 47.9977 78.1918C47.9977 79.0436 47.8601 79.7628 47.585 80.3494C47.3133 80.9328 46.9421 81.3752 46.4714 81.6768C46.0041 81.9751 45.4804 82.1243 44.9004 82.1243C44.4894 82.1243 44.1397 82.0563 43.8514 81.9205C43.5663 81.7846 43.3327 81.6139 43.1504 81.4084C42.9681 81.1996 42.8289 80.9891 42.7328 80.777H42.6681V84.8636H40.5502ZM42.6234 78.1818C42.6234 78.6359 42.6864 79.032 42.8123 79.37C42.9383 79.7081 43.1206 79.9716 43.3592 80.1605C43.5978 80.3461 43.8878 80.4389 44.2292 80.4389C44.5739 80.4389 44.8656 80.3445 45.1042 80.1555C45.3429 79.9633 45.5235 79.6982 45.6461 79.3601C45.7721 79.0187 45.835 78.6259 45.835 78.1818C45.835 77.741 45.7737 77.3532 45.6511 77.0185C45.5285 76.6837 45.3478 76.4219 45.1092 76.233C44.8706 76.044 44.5772 75.9496 44.2292 75.9496C43.8845 75.9496 43.5929 76.0407 43.3542 76.223C43.1189 76.4053 42.9383 76.6638 42.8123 76.9986C42.6864 77.3333 42.6234 77.7277 42.6234 78.1818ZM52.8599 82.1491C52.0877 82.1491 51.4198 81.9851 50.8564 81.657C50.2962 81.3255 49.8637 80.8648 49.5588 80.2749C49.2538 79.6816 49.1014 78.9938 49.1014 78.2116C49.1014 77.4228 49.2538 76.7334 49.5588 76.1435C49.8637 75.5502 50.2962 75.0895 50.8564 74.7614C51.4198 74.4299 52.0877 74.2642 52.8599 74.2642C53.6322 74.2642 54.2984 74.4299 54.8585 74.7614C55.4219 75.0895 55.8561 75.5502 56.161 76.1435C56.466 76.7334 56.6184 77.4228 56.6184 78.2116C56.6184 78.9938 56.466 79.6816 56.161 80.2749C55.8561 80.8648 55.4219 81.3255 54.8585 81.657C54.2984 81.9851 53.6322 82.1491 52.8599 82.1491ZM52.8699 80.5085C53.2212 80.5085 53.5145 80.4091 53.7498 80.2102C53.9851 80.008 54.1625 79.733 54.2818 79.3849C54.4044 79.0369 54.4657 78.6409 54.4657 78.1967C54.4657 77.7526 54.4044 77.3565 54.2818 77.0085C54.1625 76.6605 53.9851 76.3854 53.7498 76.1832C53.5145 75.9811 53.2212 75.88 52.8699 75.88C52.5152 75.88 52.2169 75.9811 51.975 76.1832C51.7363 76.3854 51.5557 76.6605 51.4331 77.0085C51.3137 77.3565 51.2541 77.7526 51.2541 78.1967C51.2541 78.6409 51.3137 79.0369 51.4331 79.3849C51.5557 79.733 51.7363 80.008 51.975 80.2102C52.2169 80.4091 52.5152 80.5085 52.8699 80.5085ZM64.3443 71.5597L64.9906 72.9418C64.7752 73.1207 64.5365 73.2533 64.2747 73.3395C64.0128 73.4223 63.6996 73.477 63.335 73.5036C62.9738 73.5301 62.533 73.5483 62.0126 73.5582C61.4226 73.5649 60.9421 73.6593 60.5708 73.8416C60.1996 74.0239 59.9179 74.3106 59.7257 74.7017C59.5334 75.0895 59.4075 75.5966 59.3478 76.223H59.4224C59.6511 75.7557 59.9726 75.3944 60.3869 75.1392C60.8045 74.884 61.3199 74.7564 61.9331 74.7564C62.5827 74.7564 63.1511 74.8989 63.6383 75.1839C64.1288 75.469 64.51 75.8783 64.7818 76.4119C65.0536 76.9455 65.1895 77.5852 65.1895 78.331C65.1895 79.1065 65.037 79.781 64.7321 80.3544C64.4305 80.9245 64.0012 81.367 63.4444 81.6818C62.8876 81.9934 62.2247 82.1491 61.4558 82.1491C60.6835 82.1491 60.0173 81.9867 59.4572 81.6619C58.9004 81.3371 58.4695 80.8582 58.1646 80.2251C57.863 79.5921 57.7122 78.8132 57.7122 77.8885V77.2621C57.7122 75.4226 58.0701 74.0587 58.786 73.1705C59.502 72.2822 60.5543 71.8314 61.943 71.8182C62.3208 71.8116 62.6622 71.8099 62.9672 71.8132C63.2721 71.8165 63.5389 71.8016 63.7676 71.7685C63.9996 71.7353 64.1918 71.6657 64.3443 71.5597ZM61.4657 80.5085C61.7905 80.5085 62.069 80.424 62.301 80.255C62.5363 80.0859 62.7169 79.844 62.8429 79.5291C62.9721 79.2143 63.0368 78.8381 63.0368 78.4006C63.0368 77.9664 62.9721 77.5985 62.8429 77.2969C62.7169 76.992 62.5363 76.7599 62.301 76.6009C62.0656 76.4418 61.7839 76.3622 61.4558 76.3622C61.2105 76.3622 60.9901 76.407 60.7946 76.4964C60.599 76.5859 60.4316 76.7185 60.2924 76.8942C60.1565 77.0665 60.0505 77.2803 59.9743 77.5355C59.9013 77.7874 59.8649 78.0758 59.8649 78.4006C59.8649 79.0535 60.0057 79.5689 60.2875 79.9467C60.5725 80.3213 60.9653 80.5085 61.4657 80.5085ZM70.0455 82.1491C69.2732 82.1491 68.6054 81.9851 68.0419 81.657C67.4818 81.3255 67.0492 80.8648 66.7443 80.2749C66.4394 79.6816 66.2869 78.9938 66.2869 78.2116C66.2869 77.4228 66.4394 76.7334 66.7443 76.1435C67.0492 75.5502 67.4818 75.0895 68.0419 74.7614C68.6054 74.4299 69.2732 74.2642 70.0455 74.2642C70.8177 74.2642 71.4839 74.4299 72.044 74.7614C72.6075 75.0895 73.0417 75.5502 73.3466 76.1435C73.6515 76.7334 73.804 77.4228 73.804 78.2116C73.804 78.9938 73.6515 79.6816 73.3466 80.2749C73.0417 80.8648 72.6075 81.3255 72.044 81.657C71.4839 81.9851 70.8177 82.1491 70.0455 82.1491ZM70.0554 80.5085C70.4067 80.5085 70.7 80.4091 70.9354 80.2102C71.1707 80.008 71.348 79.733 71.4673 79.3849C71.59 79.0369 71.6513 78.6409 71.6513 78.1967C71.6513 77.7526 71.59 77.3565 71.4673 77.0085C71.348 76.6605 71.1707 76.3854 70.9354 76.1832C70.7 75.9811 70.4067 75.88 70.0554 75.88C69.7008 75.88 69.4025 75.9811 69.1605 76.1832C68.9219 76.3854 68.7412 76.6605 68.6186 77.0085C68.4993 77.3565 68.4396 77.7526 68.4396 78.1967C68.4396 78.6409 68.4993 79.0369 68.6186 79.3849C68.7412 79.733 68.9219 80.008 69.1605 80.2102C69.4025 80.4091 69.7008 80.5085 70.0554 80.5085ZM78.6314 82.1491C77.8591 82.1491 77.1913 81.9851 76.6278 81.657C76.0677 81.3255 75.6352 80.8648 75.3303 80.2749C75.0253 79.6816 74.8729 78.9938 74.8729 78.2116C74.8729 77.4228 75.0253 76.7334 75.3303 76.1435C75.6352 75.5502 76.0677 75.0895 76.6278 74.7614C77.1913 74.4299 77.8591 74.2642 78.6314 74.2642C79.4036 74.2642 80.0698 74.4299 80.63 74.7614C81.1934 75.0895 81.6276 75.5502 81.9325 76.1435C82.2375 76.7334 82.3899 77.4228 82.3899 78.2116C82.3899 78.9938 82.2375 79.6816 81.9325 80.2749C81.6276 80.8648 81.1934 81.3255 80.63 81.657C80.0698 81.9851 79.4036 82.1491 78.6314 82.1491ZM78.6413 80.5085C78.9927 80.5085 79.286 80.4091 79.5213 80.2102C79.7566 80.008 79.9339 79.733 80.0533 79.3849C80.1759 79.0369 80.2372 78.6409 80.2372 78.1967C80.2372 77.7526 80.1759 77.3565 80.0533 77.0085C79.9339 76.6605 79.7566 76.3854 79.5213 76.1832C79.286 75.9811 78.9927 75.88 78.6413 75.88C78.2867 75.88 77.9884 75.9811 77.7464 76.1832C77.5078 76.3854 77.3272 76.6605 77.2045 77.0085C77.0852 77.3565 77.0256 77.7526 77.0256 78.1967C77.0256 78.6409 77.0852 79.0369 77.2045 79.3849C77.3272 79.733 77.5078 80.008 77.7464 80.2102C77.9884 80.4091 78.2867 80.5085 78.6413 80.5085ZM83.0275 76.0291V74.3636H89.948V76.0291H87.487V82H85.4686V76.0291H83.0275ZM97.5806 71.5597L98.2269 72.9418C98.0115 73.1207 97.7728 73.2533 97.511 73.3395C97.2492 73.4223 96.936 73.477 96.5714 73.5036C96.2101 73.5301 95.7693 73.5483 95.2489 73.5582C94.659 73.5649 94.1784 73.6593 93.8072 73.8416C93.436 74.0239 93.1542 74.3106 92.962 74.7017C92.7698 75.0895 92.6438 75.5966 92.5842 76.223H92.6587C92.8874 75.7557 93.2089 75.3944 93.6232 75.1392C94.0408 74.884 94.5562 74.7564 95.1694 74.7564C95.819 74.7564 96.3874 74.8989 96.8746 75.1839C97.3652 75.469 97.7463 75.8783 98.0181 76.4119C98.2899 76.9455 98.4258 77.5852 98.4258 78.331C98.4258 79.1065 98.2733 79.781 97.9684 80.3544C97.6668 80.9245 97.2376 81.367 96.6808 81.6818C96.1239 81.9934 95.4611 82.1491 94.6921 82.1491C93.9199 82.1491 93.2537 81.9867 92.6935 81.6619C92.1367 81.3371 91.7058 80.8582 91.4009 80.2251C91.0993 79.5921 90.9485 78.8132 90.9485 77.8885V77.2621C90.9485 75.4226 91.3065 74.0587 92.0224 73.1705C92.7383 72.2822 93.7906 71.8314 95.1793 71.8182C95.5572 71.8116 95.8986 71.8099 96.2035 71.8132C96.5084 71.8165 96.7752 71.8016 97.0039 71.7685C97.2359 71.7353 97.4281 71.6657 97.5806 71.5597ZM94.7021 80.5085C95.0269 80.5085 95.3053 80.424 95.5373 80.255C95.7726 80.0859 95.9532 79.844 96.0792 79.5291C96.2085 79.2143 96.2731 78.8381 96.2731 78.4006C96.2731 77.9664 96.2085 77.5985 96.0792 77.2969C95.9532 76.992 95.7726 76.7599 95.5373 76.6009C95.302 76.4418 95.0202 76.3622 94.6921 76.3622C94.4469 76.3622 94.2264 76.407 94.0309 76.4964C93.8353 76.5859 93.668 76.7185 93.5288 76.8942C93.3929 77.0665 93.2868 77.2803 93.2106 77.5355C93.1377 77.7874 93.1012 78.0758 93.1012 78.4006C93.1012 79.0535 93.2421 79.5689 93.5238 79.9467C93.8088 80.3213 94.2016 80.5085 94.7021 80.5085ZM103.282 82.1491C102.51 82.1491 101.842 81.9851 101.278 81.657C100.718 81.3255 100.286 80.8648 99.9806 80.2749C99.6757 79.6816 99.5233 78.9938 99.5233 78.2116C99.5233 77.4228 99.6757 76.7334 99.9806 76.1435C100.286 75.5502 100.718 75.0895 101.278 74.7614C101.842 74.4299 102.51 74.2642 103.282 74.2642C104.054 74.2642 104.72 74.4299 105.28 74.7614C105.844 75.0895 106.278 75.5502 106.583 76.1435C106.888 76.7334 107.04 77.4228 107.04 78.2116C107.04 78.9938 106.888 79.6816 106.583 80.2749C106.278 80.8648 105.844 81.3255 105.28 81.657C104.72 81.9851 104.054 82.1491 103.282 82.1491ZM103.292 80.5085C103.643 80.5085 103.936 80.4091 104.172 80.2102C104.407 80.008 104.584 79.733 104.704 79.3849C104.826 79.0369 104.888 78.6409 104.888 78.1967C104.888 77.7526 104.826 77.3565 104.704 77.0085C104.584 76.6605 104.407 76.3854 104.172 76.1832C103.936 75.9811 103.643 75.88 103.292 75.88C102.937 75.88 102.639 75.9811 102.397 76.1832C102.158 76.3854 101.978 76.6605 101.855 77.0085C101.736 77.3565 101.676 77.7526 101.676 78.1967C101.676 78.6409 101.736 79.0369 101.855 79.3849C101.978 79.733 102.158 80.008 102.397 80.2102C102.639 80.4091 102.937 80.5085 103.292 80.5085ZM108.417 84.8636V74.3636H110.506V75.6463H110.6C110.693 75.4408 110.827 75.232 111.003 75.0199C111.182 74.8045 111.414 74.6255 111.699 74.483C111.987 74.3371 112.345 74.2642 112.773 74.2642C113.329 74.2642 113.843 74.41 114.314 74.7017C114.784 74.9901 115.161 75.4259 115.442 76.0092C115.724 76.5893 115.865 77.3168 115.865 78.1918C115.865 79.0436 115.727 79.7628 115.452 80.3494C115.18 80.9328 114.809 81.3752 114.339 81.6768C113.871 81.9751 113.348 82.1243 112.768 82.1243C112.357 82.1243 112.007 82.0563 111.719 81.9205C111.434 81.7846 111.2 81.6139 111.018 81.4084C110.835 81.1996 110.696 80.9891 110.6 80.777H110.535V84.8636H108.417ZM110.491 78.1818C110.491 78.6359 110.554 79.032 110.68 79.37C110.805 79.7081 110.988 79.9716 111.226 80.1605C111.465 80.3461 111.755 80.4389 112.096 80.4389C112.441 80.4389 112.733 80.3445 112.971 80.1555C113.21 79.9633 113.391 79.6982 113.513 79.3601C113.639 79.0187 113.702 78.6259 113.702 78.1818C113.702 77.741 113.641 77.3532 113.518 77.0185C113.396 76.6837 113.215 76.4219 112.976 76.233C112.738 76.044 112.444 75.9496 112.096 75.9496C111.752 75.9496 111.46 76.0407 111.221 76.223C110.986 76.4053 110.805 76.6638 110.68 76.9986C110.554 77.3333 110.491 77.7277 110.491 78.1818ZM122.591 77.3366V79.0021H118.604V77.3366H122.591ZM119.3 74.3636V82H117.277V74.3636H119.3ZM123.919 74.3636V82H121.91V74.3636H123.919ZM127.585 79.206L130.335 74.3636H132.423V82H130.404V77.1428L127.665 82H125.562V74.3636H127.585V79.206ZM134.121 82V74.3636H136.238V77.3267H136.835L138.913 74.3636H141.399L138.699 78.152L141.429 82H138.913L137.029 79.2905H136.238V82H134.121Z" fill="#18191B"/>
<g opacity="0.3">
<rect x="165.5" y="0.5" width="673" height="23" stroke="#737781"/>
</g>
<g opacity="0.3">
<rect x="165.5" y="27.5" width="673" height="23" stroke="#737781"/>
</g>
<g opacity="0.3">
<path d="M9.34375 72.3438L16.6562 77L9.34375 81.6562V72.3438Z" fill="#38383A"/>
</g>
</svg>
