<svg width="152" height="20" viewBox="0 0 152 20" fill="none" xmlns="http://www.w3.org/2000/svg">
<g opacity="0.3">
<path d="M1.25977 5.46875H2.30273L4.53516 12.4238L6.76172 5.46875H7.80469L4.93945 14H4.11914L1.25977 5.46875ZM0.919922 5.46875H1.83398L1.99219 10.6719V14H0.919922V5.46875ZM7.22461 5.46875H8.13867V14H7.06641V10.6719L7.22461 5.46875ZM10.9746 12.2832L13.2715 7.66016H14.3086V14H13.2715V9.37695L10.9746 14H9.94336V7.66016H10.9746V12.2832ZM19.5762 10.4082V11.2871H16.8867V10.4082H19.5762ZM17.0977 7.66016V14H16.0605V7.66016H17.0977ZM20.4199 7.66016V14H19.3828V7.66016H20.4199ZM22.1016 13.4258C22.1016 13.2422 22.1582 13.0879 22.2715 12.9629C22.3887 12.834 22.5566 12.7695 22.7754 12.7695C22.9941 12.7695 23.1602 12.834 23.2734 12.9629C23.3906 13.0879 23.4492 13.2422 23.4492 13.4258C23.4492 13.6055 23.3906 13.7578 23.2734 13.8828C23.1602 14.0078 22.9941 14.0703 22.7754 14.0703C22.5566 14.0703 22.3887 14.0078 22.2715 13.8828C22.1582 13.7578 22.1016 13.6055 22.1016 13.4258ZM22.0957 8.25195C22.0957 8.06836 22.1523 7.91406 22.2656 7.78906C22.3828 7.66016 22.5508 7.5957 22.7695 7.5957C22.9883 7.5957 23.1543 7.66016 23.2676 7.78906C23.3848 7.91406 23.4434 8.06836 23.4434 8.25195C23.4434 8.43164 23.3848 8.58398 23.2676 8.70898C23.1543 8.83398 22.9883 8.89648 22.7695 8.89648C22.5508 8.89648 22.3828 8.83398 22.2656 8.70898C22.1523 8.58398 22.0957 8.43164 22.0957 8.25195Z" fill="#1B1716"/>
<rect x="34.5" y="0.5" width="90" height="19" stroke="#1A1C20"/>
<g clip-path="url(#clip0_4432_48441)">
<path d="M84.2441 9.05469V10.3555C84.2441 11.0547 84.1895 11.6445 84.0801 12.125C83.9746 12.6055 83.8223 12.9922 83.623 13.2852C83.4238 13.5781 83.1836 13.791 82.9023 13.9238C82.625 14.0527 82.3125 14.1172 81.9648 14.1172C81.6914 14.1172 81.4355 14.0762 81.1973 13.9941C80.9629 13.9121 80.752 13.7812 80.5645 13.6016C80.377 13.418 80.2168 13.1797 80.084 12.8867C79.9512 12.5938 79.8496 12.2383 79.7793 11.8203C79.709 11.4023 79.6738 10.9141 79.6738 10.3555V9.05469C79.6738 8.35547 79.7285 7.76953 79.8379 7.29688C79.9473 6.82422 80.1016 6.44531 80.3008 6.16016C80.5039 5.87109 80.7441 5.66406 81.0215 5.53906C81.3027 5.41406 81.6152 5.35156 81.959 5.35156C82.2363 5.35156 82.4922 5.39258 82.7266 5.47461C82.9648 5.55273 83.1758 5.67969 83.3594 5.85547C83.5469 6.02734 83.707 6.25781 83.8398 6.54688C83.9727 6.83203 84.0723 7.18164 84.1387 7.5957C84.209 8.00977 84.2441 8.49609 84.2441 9.05469ZM83.2129 10.5312V8.87305C83.2129 8.49023 83.1953 8.1543 83.1602 7.86523C83.125 7.57227 83.0723 7.32227 83.002 7.11523C82.9355 6.9082 82.8516 6.74023 82.75 6.61133C82.6484 6.48242 82.5312 6.38867 82.3984 6.33008C82.2656 6.26758 82.1191 6.23633 81.959 6.23633C81.7598 6.23633 81.582 6.28516 81.4258 6.38281C81.2734 6.47656 81.1426 6.62695 81.0332 6.83398C80.9277 7.04102 80.8477 7.3125 80.793 7.64844C80.7383 7.98438 80.7109 8.39258 80.7109 8.87305V10.5312C80.7109 10.9141 80.7285 11.252 80.7637 11.5449C80.8027 11.8379 80.8555 12.0918 80.9219 12.3066C80.9922 12.5176 81.0781 12.6914 81.1797 12.8281C81.2812 12.9648 81.3984 13.0664 81.5312 13.1328C81.6641 13.1953 81.8086 13.2266 81.9648 13.2266C82.1719 13.2266 82.3516 13.1758 82.5039 13.0742C82.6602 12.9727 82.791 12.8145 82.8965 12.5996C83.002 12.3809 83.0801 12.1016 83.1309 11.7617C83.1855 11.418 83.2129 11.0078 83.2129 10.5312ZM85.7734 13.4258C85.7734 13.2422 85.8301 13.0879 85.9434 12.9629C86.0605 12.834 86.2285 12.7695 86.4473 12.7695C86.666 12.7695 86.832 12.834 86.9453 12.9629C87.0625 13.0879 87.1211 13.2422 87.1211 13.4258C87.1211 13.6055 87.0625 13.7578 86.9453 13.8828C86.832 14.0078 86.666 14.0703 86.4473 14.0703C86.2285 14.0703 86.0605 14.0078 85.9434 13.8828C85.8301 13.7578 85.7734 13.6055 85.7734 13.4258ZM93.3379 9.05469V10.3555C93.3379 11.0547 93.2832 11.6445 93.1738 12.125C93.0684 12.6055 92.916 12.9922 92.7168 13.2852C92.5176 13.5781 92.2773 13.791 91.9961 13.9238C91.7188 14.0527 91.4062 14.1172 91.0586 14.1172C90.7852 14.1172 90.5293 14.0762 90.291 13.9941C90.0566 13.9121 89.8457 13.7812 89.6582 13.6016C89.4707 13.418 89.3105 13.1797 89.1777 12.8867C89.0449 12.5938 88.9434 12.2383 88.873 11.8203C88.8027 11.4023 88.7676 10.9141 88.7676 10.3555V9.05469C88.7676 8.35547 88.8223 7.76953 88.9316 7.29688C89.041 6.82422 89.1953 6.44531 89.3945 6.16016C89.5977 5.87109 89.8379 5.66406 90.1152 5.53906C90.3965 5.41406 90.709 5.35156 91.0527 5.35156C91.3301 5.35156 91.5859 5.39258 91.8203 5.47461C92.0586 5.55273 92.2695 5.67969 92.4531 5.85547C92.6406 6.02734 92.8008 6.25781 92.9336 6.54688C93.0664 6.83203 93.166 7.18164 93.2324 7.5957C93.3027 8.00977 93.3379 8.49609 93.3379 9.05469ZM92.3066 10.5312V8.87305C92.3066 8.49023 92.2891 8.1543 92.2539 7.86523C92.2188 7.57227 92.166 7.32227 92.0957 7.11523C92.0293 6.9082 91.9453 6.74023 91.8438 6.61133C91.7422 6.48242 91.625 6.38867 91.4922 6.33008C91.3594 6.26758 91.2129 6.23633 91.0527 6.23633C90.8535 6.23633 90.6758 6.28516 90.5195 6.38281C90.3672 6.47656 90.2363 6.62695 90.127 6.83398C90.0215 7.04102 89.9414 7.3125 89.8867 7.64844C89.832 7.98438 89.8047 8.39258 89.8047 8.87305V10.5312C89.8047 10.9141 89.8223 11.252 89.8574 11.5449C89.8965 11.8379 89.9492 12.0918 90.0156 12.3066C90.0859 12.5176 90.1719 12.6914 90.2734 12.8281C90.375 12.9648 90.4922 13.0664 90.625 13.1328C90.7578 13.1953 90.9023 13.2266 91.0586 13.2266C91.2656 13.2266 91.4453 13.1758 91.5977 13.0742C91.7539 12.9727 91.8848 12.8145 91.9902 12.5996C92.0957 12.3809 92.1738 12.1016 92.2246 11.7617C92.2793 11.418 92.3066 11.0078 92.3066 10.5312ZM99.2676 9.05469V10.3555C99.2676 11.0547 99.2129 11.6445 99.1035 12.125C98.998 12.6055 98.8457 12.9922 98.6465 13.2852C98.4473 13.5781 98.207 13.791 97.9258 13.9238C97.6484 14.0527 97.3359 14.1172 96.9883 14.1172C96.7148 14.1172 96.459 14.0762 96.2207 13.9941C95.9863 13.9121 95.7754 13.7812 95.5879 13.6016C95.4004 13.418 95.2402 13.1797 95.1074 12.8867C94.9746 12.5938 94.873 12.2383 94.8027 11.8203C94.7324 11.4023 94.6973 10.9141 94.6973 10.3555V9.05469C94.6973 8.35547 94.752 7.76953 94.8613 7.29688C94.9707 6.82422 95.125 6.44531 95.3242 6.16016C95.5273 5.87109 95.7676 5.66406 96.0449 5.53906C96.3262 5.41406 96.6387 5.35156 96.9824 5.35156C97.2598 5.35156 97.5156 5.39258 97.75 5.47461C97.9883 5.55273 98.1992 5.67969 98.3828 5.85547C98.5703 6.02734 98.7305 6.25781 98.8633 6.54688C98.9961 6.83203 99.0957 7.18164 99.1621 7.5957C99.2324 8.00977 99.2676 8.49609 99.2676 9.05469ZM98.2363 10.5312V8.87305C98.2363 8.49023 98.2188 8.1543 98.1836 7.86523C98.1484 7.57227 98.0957 7.32227 98.0254 7.11523C97.959 6.9082 97.875 6.74023 97.7734 6.61133C97.6719 6.48242 97.5547 6.38867 97.4219 6.33008C97.2891 6.26758 97.1426 6.23633 96.9824 6.23633C96.7832 6.23633 96.6055 6.28516 96.4492 6.38281C96.2969 6.47656 96.166 6.62695 96.0566 6.83398C95.9512 7.04102 95.8711 7.3125 95.8164 7.64844C95.7617 7.98438 95.7344 8.39258 95.7344 8.87305V10.5312C95.7344 10.9141 95.752 11.252 95.7871 11.5449C95.8262 11.8379 95.8789 12.0918 95.9453 12.3066C96.0156 12.5176 96.1016 12.6914 96.2031 12.8281C96.3047 12.9648 96.4219 13.0664 96.5547 13.1328C96.6875 13.1953 96.832 13.2266 96.9883 13.2266C97.1953 13.2266 97.375 13.1758 97.5273 13.0742C97.6836 12.9727 97.8145 12.8145 97.9199 12.5996C98.0254 12.3809 98.1035 12.1016 98.1543 11.7617C98.209 11.418 98.2363 11.0078 98.2363 10.5312Z" fill="#38383A"/>
</g>
<path d="M114 14.125L116.125 12L117.062 12.9375L114 16L110.938 12.9375L111.875 12L114 14.125ZM114 5.875L111.875 8L110.938 7.0625L114 4L117.062 7.0625L116.125 8L114 5.875Z" fill="#2850A8"/>
<path d="M138.184 4.90039H139.021C139.021 5.2832 138.969 5.58789 138.863 5.81445C138.762 6.03711 138.625 6.20898 138.453 6.33008C138.281 6.45117 138.09 6.54297 137.879 6.60547C137.668 6.66797 137.453 6.72852 137.234 6.78711C136.961 6.85742 136.705 6.96875 136.467 7.12109C136.229 7.26953 136.023 7.48047 135.852 7.75391C135.684 8.02734 135.561 8.38281 135.482 8.82031C135.408 9.25781 135.395 9.79883 135.441 10.4434V10.9824H134.598V10.4434C134.598 9.7207 134.656 9.08984 134.773 8.55078C134.891 8.01172 135.057 7.55664 135.271 7.18555C135.486 6.81445 135.74 6.51953 136.033 6.30078C136.326 6.08203 136.65 5.93164 137.006 5.84961C137.232 5.79102 137.434 5.72852 137.609 5.66211C137.789 5.5918 137.93 5.49805 138.031 5.38086C138.133 5.26367 138.184 5.10352 138.184 4.90039ZM137.193 8.02344C137.541 8.02344 137.85 8.0957 138.119 8.24023C138.389 8.38477 138.617 8.58594 138.805 8.84375C138.992 9.10156 139.135 9.40625 139.232 9.75781C139.33 10.1055 139.379 10.4844 139.379 10.8945V11.0234C139.379 11.4648 139.326 11.875 139.221 12.2539C139.115 12.6289 138.959 12.957 138.752 13.2383C138.549 13.5156 138.299 13.7324 138.002 13.8887C137.705 14.0449 137.367 14.123 136.988 14.123C136.609 14.123 136.271 14.0449 135.975 13.8887C135.682 13.7324 135.432 13.5156 135.225 13.2383C135.021 12.957 134.865 12.6289 134.756 12.2539C134.65 11.875 134.598 11.4648 134.598 11.0234V10.8945C134.598 10.7969 134.615 10.7012 134.65 10.6074C134.686 10.5137 134.727 10.418 134.773 10.3203C134.82 10.2227 134.863 10.1191 134.902 10.0098C135.023 9.6582 135.191 9.33203 135.406 9.03125C135.621 8.73047 135.877 8.48828 136.174 8.30469C136.475 8.11719 136.814 8.02344 137.193 8.02344ZM136.982 8.9082C136.666 8.9082 136.408 9 136.209 9.18359C136.014 9.36719 135.869 9.61133 135.775 9.91602C135.682 10.2168 135.635 10.543 135.635 10.8945V11.0234C135.635 11.3203 135.66 11.6016 135.711 11.8672C135.762 12.1328 135.842 12.3691 135.951 12.5762C136.061 12.7793 136.201 12.9395 136.373 13.0566C136.545 13.1738 136.75 13.2324 136.988 13.2324C137.227 13.2324 137.43 13.1738 137.598 13.0566C137.77 12.9395 137.91 12.7793 138.02 12.5762C138.129 12.3691 138.209 12.1328 138.26 11.8672C138.314 11.6016 138.342 11.3203 138.342 11.0234V10.8945C138.342 10.6289 138.314 10.377 138.26 10.1387C138.209 9.90039 138.129 9.68945 138.02 9.50586C137.91 9.32227 137.77 9.17773 137.598 9.07227C137.426 8.96289 137.221 8.9082 136.982 8.9082ZM143.709 12.916V9.47656C143.709 9.22656 143.67 9.02539 143.592 8.87305C143.518 8.7207 143.404 8.60938 143.252 8.53906C143.104 8.46875 142.916 8.43359 142.689 8.43359C142.471 8.43359 142.281 8.47852 142.121 8.56836C141.965 8.6582 141.844 8.77734 141.758 8.92578C141.676 9.07422 141.635 9.23828 141.635 9.41797H140.598C140.598 9.19141 140.646 8.9668 140.744 8.74414C140.846 8.52148 140.99 8.32031 141.178 8.14062C141.365 7.95703 141.59 7.8125 141.852 7.70703C142.117 7.59766 142.414 7.54297 142.742 7.54297C143.133 7.54297 143.479 7.60742 143.779 7.73633C144.08 7.86133 144.316 8.06641 144.488 8.35156C144.66 8.63672 144.746 9.01562 144.746 9.48828V12.6172C144.746 12.8281 144.762 13.0527 144.793 13.291C144.828 13.5293 144.877 13.7344 144.939 13.9062V14H143.867C143.816 13.875 143.777 13.709 143.75 13.502C143.723 13.291 143.709 13.0957 143.709 12.916ZM143.873 10.1562L143.885 10.918H143.164C142.918 10.918 142.693 10.9453 142.49 11C142.291 11.0547 142.119 11.1348 141.975 11.2402C141.83 11.3418 141.719 11.4688 141.641 11.6211C141.566 11.7734 141.529 11.9473 141.529 12.1426C141.529 12.3965 141.564 12.5996 141.635 12.752C141.705 12.9004 141.811 13.0078 141.951 13.0742C142.092 13.1406 142.27 13.1738 142.484 13.1738C142.746 13.1738 142.977 13.1133 143.176 12.9922C143.375 12.8711 143.529 12.7246 143.639 12.5527C143.752 12.3809 143.805 12.2207 143.797 12.0723L144.025 12.5586C144.01 12.7109 143.959 12.877 143.873 13.0566C143.791 13.2324 143.676 13.4023 143.527 13.5664C143.379 13.7266 143.203 13.8594 143 13.9648C142.801 14.0664 142.576 14.1172 142.326 14.1172C141.959 14.1172 141.637 14.0469 141.359 13.9062C141.086 13.7656 140.873 13.5586 140.721 13.2852C140.568 13.0117 140.492 12.6738 140.492 12.2715C140.492 11.9668 140.545 11.6855 140.65 11.4277C140.756 11.1699 140.912 10.9473 141.119 10.7598C141.326 10.5684 141.586 10.4199 141.898 10.3145C142.215 10.209 142.58 10.1562 142.994 10.1562H143.873ZM147.395 8.87891V16.4375H146.357V7.66016H147.301L147.395 8.87891ZM150.939 10.543V11.1348C150.939 11.6348 150.893 12.0723 150.799 12.4473C150.709 12.8184 150.574 13.1289 150.395 13.3789C150.219 13.625 150.002 13.8105 149.744 13.9355C149.486 14.0566 149.191 14.1172 148.859 14.1172C148.527 14.1172 148.238 14.0547 147.992 13.9297C147.75 13.8008 147.545 13.6152 147.377 13.373C147.213 13.1309 147.082 12.8398 146.984 12.5C146.891 12.1562 146.826 11.7715 146.791 11.3457V10.4434C146.826 9.99414 146.891 9.5918 146.984 9.23633C147.078 8.87695 147.207 8.57227 147.371 8.32227C147.539 8.06836 147.744 7.875 147.986 7.74219C148.232 7.60938 148.52 7.54297 148.848 7.54297C149.188 7.54297 149.486 7.60156 149.744 7.71875C150.006 7.83594 150.225 8.01758 150.4 8.26367C150.58 8.50586 150.715 8.81641 150.805 9.19531C150.895 9.57031 150.939 10.0195 150.939 10.543ZM149.902 11.1348V10.543C149.902 10.1914 149.875 9.88477 149.82 9.62305C149.77 9.36133 149.688 9.14453 149.574 8.97266C149.461 8.80078 149.318 8.67188 149.146 8.58594C148.975 8.5 148.768 8.45703 148.525 8.45703C148.318 8.45703 148.135 8.5 147.975 8.58594C147.818 8.67188 147.684 8.78906 147.57 8.9375C147.457 9.08203 147.363 9.24805 147.289 9.43555C147.215 9.61914 147.16 9.81055 147.125 10.0098V11.7852C147.191 12.0352 147.279 12.2715 147.389 12.4941C147.498 12.7129 147.645 12.8906 147.828 13.0273C148.016 13.1641 148.252 13.2324 148.537 13.2324C148.775 13.2324 148.98 13.1895 149.152 13.1035C149.324 13.0176 149.465 12.8887 149.574 12.7168C149.688 12.541 149.77 12.3223 149.82 12.0605C149.875 11.7949 149.902 11.4863 149.902 11.1348Z" fill="#1B1716"/>
</g>
<defs>
<clipPath id="clip0_4432_48441">
<rect width="21" height="12" fill="white" transform="translate(79 4)"/>
</clipPath>
</defs>
</svg>
