<svg width="73" height="20" viewBox="0 0 73 20" fill="none" xmlns="http://www.w3.org/2000/svg">
<g opacity="0.3">
<path d="M14.6562 4C15.0104 4 15.3229 4.13542 15.5938 4.40625C15.8646 4.67708 16 4.98958 16 5.34375V14.6562C16 15.0104 15.8646 15.3229 15.5938 15.5938C15.3229 15.8646 15.0104 16 14.6562 16H5.34375C4.98958 16 4.67708 15.8646 4.40625 15.5938C4.13542 15.3229 4 15.0104 4 14.6562V5.34375C4 4.98958 4.13542 4.67708 4.40625 4.40625C4.67708 4.13542 4.98958 4 5.34375 4H14.6562ZM14.6562 5.34375H5.34375V14.6562H14.6562V5.34375Z" fill="#1A1C20"/>
<path d="M28.3066 7.66016V8.55664H25.7754V7.66016H28.3066ZM25.9102 7.66016V14H24.873V7.66016H25.9102ZM29.2383 7.66016V14H28.2012V7.66016H29.2383ZM30.6797 11.1348V10.5312C30.6797 10.0391 30.7422 9.60742 30.8672 9.23633C30.9922 8.86133 31.166 8.54883 31.3887 8.29883C31.6113 8.04883 31.8711 7.86133 32.168 7.73633C32.4648 7.60742 32.7832 7.54297 33.123 7.54297C33.4707 7.54297 33.793 7.60742 34.0898 7.73633C34.3867 7.86133 34.6465 8.04883 34.8691 8.29883C35.0957 8.54883 35.2715 8.86133 35.3965 9.23633C35.5215 9.60742 35.584 10.0391 35.584 10.5312V11.1348C35.584 11.627 35.5215 12.0605 35.3965 12.4355C35.2715 12.8066 35.0977 13.1172 34.875 13.3672C34.6523 13.6172 34.3926 13.8047 34.0957 13.9297C33.7988 14.0547 33.4785 14.1172 33.1348 14.1172C32.791 14.1172 32.4707 14.0547 32.1738 13.9297C31.877 13.8047 31.6152 13.6172 31.3887 13.3672C31.166 13.1172 30.9922 12.8066 30.8672 12.4355C30.7422 12.0605 30.6797 11.627 30.6797 11.1348ZM31.7168 10.5312V11.1348C31.7168 11.4824 31.752 11.7871 31.8223 12.0488C31.8926 12.3105 31.9922 12.5293 32.1211 12.7051C32.25 12.8809 32.4004 13.0137 32.5723 13.1035C32.7441 13.1895 32.9316 13.2324 33.1348 13.2324C33.3691 13.2324 33.5742 13.1895 33.75 13.1035C33.9297 13.0137 34.0781 12.8809 34.1953 12.7051C34.3125 12.5293 34.4004 12.3105 34.459 12.0488C34.5176 11.7871 34.5469 11.4824 34.5469 11.1348V10.5312C34.5469 10.1836 34.5117 9.88086 34.4414 9.62305C34.3711 9.36133 34.2715 9.14258 34.1426 8.9668C34.0137 8.78711 33.8613 8.6543 33.6855 8.56836C33.5137 8.47852 33.3262 8.43359 33.123 8.43359C32.9238 8.43359 32.7383 8.47852 32.5664 8.56836C32.3945 8.6543 32.2441 8.78711 32.1152 8.9668C31.9902 9.14258 31.8926 9.36133 31.8223 9.62305C31.752 9.88086 31.7168 10.1836 31.7168 10.5312ZM39.7676 14V7.66016H40.8047V13.1094H43.0957V7.66016H44.1328V14H39.7676ZM44.8008 13.1094L44.6953 15.8809H43.7754V14H43.0547V13.1094H44.8008ZM48.2344 14.1172C47.8555 14.1172 47.5137 14.0605 47.209 13.9473C46.9043 13.834 46.6445 13.6621 46.4297 13.4316C46.2148 13.1973 46.0508 12.9023 45.9375 12.5469C45.8242 12.1914 45.7676 11.7715 45.7676 11.2871V10.5723C45.7676 10.0137 45.832 9.54102 45.9609 9.1543C46.0938 8.76758 46.2715 8.45703 46.4941 8.22266C46.7168 7.98438 46.9688 7.8125 47.25 7.70703C47.5312 7.59766 47.8203 7.54297 48.1172 7.54297C48.5156 7.54297 48.8555 7.60742 49.1367 7.73633C49.418 7.86523 49.6465 8.05664 49.8223 8.31055C49.998 8.56445 50.127 8.87695 50.209 9.24805C50.2949 9.61914 50.3379 10.0469 50.3379 10.5312V11.1348H46.377V10.25H49.3008V10.1035C49.2852 9.77539 49.2402 9.48633 49.166 9.23633C49.0957 8.98633 48.9785 8.79102 48.8145 8.65039C48.6504 8.50586 48.418 8.43359 48.1172 8.43359C47.9258 8.43359 47.748 8.4668 47.584 8.5332C47.4238 8.5957 47.2852 8.70703 47.168 8.86719C47.0547 9.02344 46.9648 9.24023 46.8984 9.51758C46.8359 9.79492 46.8047 10.1465 46.8047 10.5723V11.2871C46.8047 11.627 46.8359 11.9199 46.8984 12.166C46.9648 12.4082 47.0605 12.6094 47.1855 12.7695C47.3145 12.9258 47.4707 13.043 47.6543 13.1211C47.8418 13.1953 48.0547 13.2324 48.293 13.2324C48.6406 13.2324 48.9277 13.166 49.1543 13.0332C49.3809 12.8965 49.5781 12.7227 49.7461 12.5117L50.291 13.1621C50.1777 13.3223 50.0293 13.4766 49.8457 13.625C49.666 13.7695 49.4434 13.8887 49.1777 13.9824C48.916 14.0723 48.6016 14.1172 48.2344 14.1172ZM55.2012 10.4082V11.2871H52.5117V10.4082H55.2012ZM52.7227 7.66016V14H51.6855V7.66016H52.7227ZM56.0449 7.66016V14H55.0078V7.66016H56.0449ZM59.9766 7.66016V14H58.9395V7.66016H59.9766ZM61.7051 7.66016V8.53906H57.2344V7.66016H61.7051ZM63.8438 8.87891V16.4375H62.8066V7.66016H63.75L63.8438 8.87891ZM67.3887 10.543V11.1348C67.3887 11.6348 67.3418 12.0723 67.248 12.4473C67.1582 12.8184 67.0234 13.1289 66.8438 13.3789C66.668 13.625 66.4512 13.8105 66.1934 13.9355C65.9355 14.0566 65.6406 14.1172 65.3086 14.1172C64.9766 14.1172 64.6875 14.0547 64.4414 13.9297C64.1992 13.8008 63.9941 13.6152 63.8262 13.373C63.6621 13.1309 63.5312 12.8398 63.4336 12.5C63.3398 12.1562 63.2754 11.7715 63.2402 11.3457V10.4434C63.2754 9.99414 63.3398 9.5918 63.4336 9.23633C63.5273 8.87695 63.6562 8.57227 63.8203 8.32227C63.9883 8.06836 64.1934 7.875 64.4355 7.74219C64.6816 7.60938 64.9688 7.54297 65.2969 7.54297C65.6367 7.54297 65.9355 7.60156 66.1934 7.71875C66.4551 7.83594 66.6738 8.01758 66.8496 8.26367C67.0293 8.50586 67.1641 8.81641 67.2539 9.19531C67.3438 9.57031 67.3887 10.0195 67.3887 10.543ZM66.3516 11.1348V10.543C66.3516 10.1914 66.3242 9.88477 66.2695 9.62305C66.2188 9.36133 66.1367 9.14453 66.0234 8.97266C65.9102 8.80078 65.7676 8.67188 65.5957 8.58594C65.4238 8.5 65.2168 8.45703 64.9746 8.45703C64.7676 8.45703 64.584 8.5 64.4238 8.58594C64.2676 8.67188 64.1328 8.78906 64.0195 8.9375C63.9062 9.08203 63.8125 9.24805 63.7383 9.43555C63.6641 9.61914 63.6094 9.81055 63.5742 10.0098V11.7852C63.6406 12.0352 63.7285 12.2715 63.8379 12.4941C63.9473 12.7129 64.0938 12.8906 64.2773 13.0273C64.4648 13.1641 64.7012 13.2324 64.9863 13.2324C65.2246 13.2324 65.4297 13.1895 65.6016 13.1035C65.7734 13.0176 65.9141 12.8887 66.0234 12.7168C66.1367 12.541 66.2188 12.3223 66.2695 12.0605C66.3242 11.7949 66.3516 11.4863 66.3516 11.1348ZM70.125 13.3438L71.5371 7.66016H72.6387L70.5469 14.9785C70.4961 15.1348 70.4277 15.3027 70.3418 15.4824C70.2598 15.666 70.1543 15.8398 70.0254 16.0039C69.8965 16.168 69.7422 16.3008 69.5625 16.4023C69.3828 16.5078 69.1719 16.5605 68.9297 16.5605C68.8555 16.5605 68.7598 16.5488 68.6426 16.5254C68.5293 16.502 68.4473 16.4824 68.3965 16.4668V15.5879C68.4199 15.5918 68.457 15.5957 68.5078 15.5996C68.5586 15.6074 68.5957 15.6113 68.6191 15.6113C68.8223 15.6113 68.9941 15.5781 69.1348 15.5117C69.2793 15.4492 69.4023 15.3418 69.5039 15.1895C69.6055 15.041 69.6914 14.8359 69.7617 14.5742L70.125 13.3438ZM69.2109 7.66016L70.4707 12.582L70.7402 13.7246L70.002 14.123L68.0801 7.66016H69.2109Z" fill="#1A1C20"/>
</g>
</svg>
