<svg width="540" height="44" viewBox="0 0 540 44" fill="none" xmlns="http://www.w3.org/2000/svg">
<g opacity="0.3">
<rect width="96" height="20" fill="#E4E2E4"/>
<path d="M21.6611 15.9297V12.8164H22.1963C22.376 12.6732 22.5439 12.4714 22.7002 12.2109C22.8564 11.9505 22.9893 11.5937 23.0986 11.1406C23.208 10.6875 23.2835 10.1016 23.3252 9.38281L23.5361 6H28.6494V12.8164H29.54V15.9219H28.1494V14H23.0518V15.9297H21.6611ZM23.8838 12.8164H27.2588V7.21484H24.8408L24.7158 9.38281C24.682 9.92708 24.6273 10.4141 24.5518 10.8438C24.4762 11.2734 24.3812 11.6523 24.2666 11.9805C24.152 12.306 24.0244 12.5846 23.8838 12.8164ZM33.2754 14.1172C32.6895 14.1172 32.1816 13.9883 31.752 13.7305C31.3223 13.4727 30.9889 13.112 30.752 12.6484C30.5176 12.1849 30.4004 11.6432 30.4004 11.0234C30.4004 10.4036 30.5176 9.86068 30.752 9.39453C30.9889 8.92839 31.3223 8.56641 31.752 8.30859C32.1816 8.05078 32.6895 7.92188 33.2754 7.92188C33.8613 7.92188 34.3691 8.05078 34.7988 8.30859C35.2285 8.56641 35.5605 8.92839 35.7949 9.39453C36.0319 9.86068 36.1504 10.4036 36.1504 11.0234C36.1504 11.6432 36.0319 12.1849 35.7949 12.6484C35.5605 13.112 35.2285 13.4727 34.7988 13.7305C34.3691 13.9883 33.8613 14.1172 33.2754 14.1172ZM33.2832 12.9844C33.6009 12.9844 33.8665 12.8971 34.0801 12.7227C34.2936 12.5456 34.4525 12.3086 34.5566 12.0117C34.6634 11.7148 34.7168 11.3841 34.7168 11.0195C34.7168 10.6523 34.6634 10.3203 34.5566 10.0234C34.4525 9.72396 34.2936 9.48568 34.0801 9.30859C33.8665 9.13151 33.6009 9.04297 33.2832 9.04297C32.9577 9.04297 32.6868 9.13151 32.4707 9.30859C32.2572 9.48568 32.097 9.72396 31.9902 10.0234C31.8861 10.3203 31.834 10.6523 31.834 11.0195C31.834 11.3841 31.8861 11.7148 31.9902 12.0117C32.097 12.3086 32.2572 12.5456 32.4707 12.7227C32.6868 12.8971 32.9577 12.9844 33.2832 12.9844ZM42.1592 5.78125L42.6514 6.69531C42.4769 6.84635 42.2816 6.95573 42.0654 7.02344C41.8493 7.09115 41.5954 7.13542 41.3037 7.15625C41.0146 7.17448 40.6709 7.1875 40.2725 7.19531C39.8245 7.20573 39.4587 7.29036 39.1748 7.44922C38.891 7.60807 38.6735 7.84896 38.5225 8.17187C38.3714 8.49219 38.2725 8.90104 38.2256 9.39844H38.292C38.4795 9.03125 38.7425 8.7513 39.0811 8.55859C39.4196 8.36589 39.8167 8.26953 40.2725 8.26953C40.7699 8.26953 41.2087 8.38151 41.5889 8.60547C41.9717 8.82682 42.2699 9.14844 42.4834 9.57031C42.6995 9.99219 42.8076 10.5026 42.8076 11.1016C42.8076 11.7187 42.6917 12.2539 42.46 12.707C42.2282 13.1576 41.8988 13.5052 41.4717 13.75C41.0472 13.9948 40.5433 14.1172 39.96 14.1172C39.3792 14.1172 38.874 13.9909 38.4443 13.7383C38.0173 13.4831 37.6865 13.1068 37.4521 12.6094C37.2204 12.1094 37.1045 11.4935 37.1045 10.7617V10.2227C37.1045 8.8112 37.3675 7.75781 37.8936 7.0625C38.4196 6.36719 39.1995 6.01302 40.2334 6C40.5407 5.99479 40.8154 5.99349 41.0576 5.99609C41.3024 5.9987 41.516 5.98698 41.6982 5.96094C41.8805 5.9349 42.0342 5.875 42.1592 5.78125ZM39.9678 12.9844C40.2568 12.9844 40.5068 12.9102 40.7178 12.7617C40.9287 12.6107 41.0902 12.3971 41.2021 12.1211C41.3167 11.8451 41.374 11.5182 41.374 11.1406C41.374 10.7682 41.3167 10.4518 41.2021 10.1914C41.0876 9.92839 40.9248 9.72786 40.7139 9.58984C40.5029 9.45182 40.2516 9.38281 39.96 9.38281C39.7412 9.38281 39.5446 9.42187 39.3701 9.5C39.1956 9.57812 39.0472 9.69271 38.9248 9.84375C38.8024 9.99479 38.7087 10.1784 38.6436 10.3945C38.5785 10.6107 38.5433 10.8594 38.5381 11.1406C38.5381 11.7057 38.6657 12.1549 38.9209 12.4883C39.1761 12.819 39.5251 12.9844 39.9678 12.9844ZM45.7373 14.1211C45.3571 14.1211 45.0146 14.0534 44.71 13.918C44.4079 13.7799 44.1683 13.5768 43.9912 13.3086C43.8167 13.0404 43.7295 12.7096 43.7295 12.3164C43.7295 11.9779 43.792 11.6979 43.917 11.4766C44.042 11.2552 44.2126 11.0781 44.4287 10.9453C44.6449 10.8125 44.8883 10.7122 45.1592 10.6445C45.4326 10.5742 45.7152 10.5234 46.0068 10.4922C46.3584 10.4557 46.6436 10.4232 46.8623 10.3945C47.0811 10.3633 47.2399 10.3164 47.3389 10.2539C47.4404 10.1888 47.4912 10.0885 47.4912 9.95312V9.92969C47.4912 9.63542 47.404 9.40755 47.2295 9.24609C47.055 9.08464 46.8037 9.00391 46.4756 9.00391C46.1292 9.00391 45.8545 9.07943 45.6514 9.23047C45.4508 9.38151 45.3154 9.5599 45.2451 9.76562L43.9248 9.57812C44.029 9.21354 44.2008 8.90885 44.4404 8.66406C44.68 8.41667 44.973 8.23177 45.3193 8.10937C45.6657 7.98438 46.0485 7.92188 46.4678 7.92188C46.7568 7.92188 47.0446 7.95573 47.3311 8.02344C47.6175 8.09115 47.8792 8.20312 48.1162 8.35937C48.3532 8.51302 48.5433 8.72266 48.6865 8.98828C48.8324 9.25391 48.9053 9.58594 48.9053 9.98437V14H47.5459V13.1758H47.499C47.4131 13.3424 47.292 13.4987 47.1357 13.6445C46.9821 13.7878 46.7881 13.9036 46.5537 13.9922C46.3219 14.0781 46.0498 14.1211 45.7373 14.1211ZM46.1045 13.082C46.3883 13.082 46.6344 13.026 46.8428 12.9141C47.0511 12.7995 47.2113 12.6484 47.3232 12.4609C47.4378 12.2734 47.4951 12.069 47.4951 11.8477V11.1406C47.4508 11.1771 47.3753 11.2109 47.2686 11.2422C47.1644 11.2734 47.0472 11.3008 46.917 11.3242C46.7868 11.3477 46.6579 11.3685 46.5303 11.3867C46.4027 11.4049 46.292 11.4206 46.1982 11.4336C45.9873 11.4622 45.7985 11.5091 45.6318 11.5742C45.4652 11.6393 45.3337 11.7305 45.2373 11.8477C45.141 11.9622 45.0928 12.1107 45.0928 12.293C45.0928 12.5534 45.1878 12.75 45.3779 12.8828C45.568 13.0156 45.8102 13.082 46.1045 13.082ZM50.3271 14V8H52.8467C53.5576 8 54.1188 8.14193 54.5303 8.42578C54.9443 8.70964 55.1514 9.10547 55.1514 9.61328C55.1514 9.94922 55.0342 10.224 54.7998 10.4375C54.568 10.6484 54.2516 10.7904 53.8506 10.8633C54.1657 10.8893 54.4417 10.9687 54.6787 11.1016C54.9183 11.2344 55.1058 11.4089 55.2412 11.625C55.3766 11.8411 55.4443 12.0898 55.4443 12.3711C55.4443 12.7018 55.3571 12.9896 55.1826 13.2344C55.0107 13.4766 54.7594 13.6654 54.4287 13.8008C54.1006 13.9336 53.7021 14 53.2334 14H50.3271ZM51.6514 12.8867H53.2334C53.4938 12.8867 53.6982 12.8255 53.8467 12.7031C53.9951 12.5781 54.0693 12.4089 54.0693 12.1953C54.0693 11.9479 53.9951 11.7539 53.8467 11.6133C53.6982 11.4701 53.4938 11.3984 53.2334 11.3984H51.6514V12.8867ZM51.6514 10.4844H52.874C53.0667 10.4844 53.2321 10.457 53.3701 10.4023C53.5081 10.3451 53.6136 10.2656 53.6865 10.1641C53.7594 10.0599 53.7959 9.9362 53.7959 9.79297C53.7959 9.58724 53.7113 9.42578 53.542 9.30859C53.3753 9.19141 53.1436 9.13281 52.8467 9.13281H51.6514V10.4844ZM57.9746 12.0859L60.377 8H61.8301V14H60.4629V9.91016L58.0684 14H56.6113V8H57.9746V12.0859ZM62.6104 9.16016V8H67.8604V9.16016H65.9189V14H64.5518V9.16016H62.6104ZM69.9434 9.95312H71.7129C72.4785 9.95312 73.071 10.1393 73.4902 10.5117C73.9095 10.8841 74.1204 11.3724 74.123 11.9766C74.1204 12.3698 74.0241 12.7187 73.834 13.0234C73.6465 13.3281 73.373 13.5677 73.0137 13.7422C72.6569 13.9141 72.2233 14 71.7129 14H68.9863V8H70.3496V12.8398H71.7129C72.0202 12.8398 72.2728 12.7617 72.4707 12.6055C72.6686 12.4466 72.7676 12.2435 72.7676 11.9961C72.7676 11.7357 72.6686 11.5234 72.4707 11.3594C72.2728 11.1953 72.0202 11.1133 71.7129 11.1133H69.9434V9.95312Z" fill="#474649"/>
<rect width="96" height="20" transform="translate(100)" fill="#E4E2E4"/>
<path d="M126.478 14.1094V12.8906H126.935C127.141 12.8906 127.31 12.8607 127.443 12.8008C127.576 12.7409 127.682 12.6549 127.763 12.543C127.847 12.431 127.916 12.3008 127.97 12.1523L128.076 11.8828L125.216 6H126.732L128.724 10.2812L130.447 6H131.939L129.181 12.5234C129.054 12.8047 128.906 13.0664 128.74 13.3086C128.573 13.5482 128.356 13.7422 128.087 13.8906C127.822 14.0365 127.475 14.1094 127.048 14.1094H126.478ZM132.377 15.7422V12.8359H132.854C132.982 12.737 133.088 12.6029 133.174 12.4336C133.26 12.2617 133.331 12.0599 133.385 11.8281C133.443 11.5937 133.489 11.332 133.526 11.043C133.562 10.7513 133.595 10.4375 133.624 10.1016L133.795 8H138.131V12.8359H139.061V15.7422H137.694V14H133.768V15.7422H132.377ZM134.307 12.8359H136.78V9.14062H135.022L134.928 10.1016C134.876 10.737 134.807 11.2812 134.721 11.7344C134.635 12.1875 134.497 12.5547 134.307 12.8359ZM141.843 14.1211C141.463 14.1211 141.121 14.0534 140.816 13.918C140.514 13.7799 140.274 13.5768 140.097 13.3086C139.923 13.0404 139.835 12.7096 139.835 12.3164C139.835 11.9779 139.898 11.6979 140.023 11.4766C140.148 11.2552 140.319 11.0781 140.535 10.9453C140.751 10.8125 140.994 10.7122 141.265 10.6445C141.539 10.5742 141.821 10.5234 142.113 10.4922C142.464 10.4557 142.75 10.4232 142.968 10.3945C143.187 10.3633 143.346 10.3164 143.445 10.2539C143.546 10.1888 143.597 10.0885 143.597 9.95312V9.92969C143.597 9.63542 143.51 9.40755 143.335 9.24609C143.161 9.08464 142.91 9.00391 142.582 9.00391C142.235 9.00391 141.96 9.07943 141.757 9.23047C141.557 9.38151 141.421 9.5599 141.351 9.76562L140.031 9.57812C140.135 9.21354 140.307 8.90885 140.546 8.66406C140.786 8.41667 141.079 8.23177 141.425 8.10937C141.772 7.98438 142.154 7.92188 142.574 7.92188C142.863 7.92188 143.151 7.95573 143.437 8.02344C143.723 8.09115 143.985 8.20312 144.222 8.35937C144.459 8.51302 144.649 8.72266 144.792 8.98828C144.938 9.25391 145.011 9.58594 145.011 9.98437V14H143.652V13.1758H143.605C143.519 13.3424 143.398 13.4987 143.242 13.6445C143.088 13.7878 142.894 13.9036 142.66 13.9922C142.428 14.0781 142.156 14.1211 141.843 14.1211ZM142.21 13.082C142.494 13.082 142.74 13.026 142.949 12.9141C143.157 12.7995 143.317 12.6484 143.429 12.4609C143.544 12.2734 143.601 12.069 143.601 11.8477V11.1406C143.557 11.1771 143.481 11.2109 143.375 11.2422C143.27 11.2734 143.153 11.3008 143.023 11.3242C142.893 11.3477 142.764 11.3685 142.636 11.3867C142.509 11.4049 142.398 11.4206 142.304 11.4336C142.093 11.4622 141.904 11.5091 141.738 11.5742C141.571 11.6393 141.44 11.7305 141.343 11.8477C141.247 11.9622 141.199 12.1107 141.199 12.293C141.199 12.5534 141.294 12.75 141.484 12.8828C141.674 13.0156 141.916 13.082 142.21 13.082ZM146.019 14L146.011 12.8359H146.218C146.375 12.8359 146.506 12.8008 146.613 12.7305C146.72 12.6602 146.808 12.543 146.878 12.3789C146.949 12.2122 147.003 11.9883 147.042 11.707C147.082 11.4258 147.109 11.0755 147.125 10.6562L147.23 8H151.605V14H150.238V9.16016H148.515L148.421 11.0937C148.398 11.5937 148.342 12.0273 148.253 12.3945C148.167 12.7591 148.045 13.0599 147.886 13.2969C147.73 13.5339 147.533 13.7109 147.296 13.8281C147.059 13.9427 146.779 14 146.457 14H146.019ZM154.392 12.0859L156.794 8H158.248V14H156.88V9.91016L154.486 14H153.029V8H154.392V12.0859ZM159.028 9.16016V8H164.278V9.16016H162.336V14H160.969V9.16016H159.028ZM166.361 9.95312H168.13C168.896 9.95312 169.488 10.1393 169.908 10.5117C170.327 10.8841 170.538 11.3724 170.541 11.9766C170.538 12.3698 170.442 12.7187 170.251 13.0234C170.064 13.3281 169.791 13.5677 169.431 13.7422C169.074 13.9141 168.641 14 168.13 14H165.404V8H166.767V12.8398H168.13C168.438 12.8398 168.69 12.7617 168.888 12.6055C169.086 12.4466 169.185 12.2435 169.185 11.9961C169.185 11.7357 169.086 11.5234 168.888 11.3594C168.69 11.1953 168.438 11.1133 168.13 11.1133H166.361V9.95312Z" fill="#474649"/>
<rect width="96" height="20" transform="translate(200)" fill="#E4E2E4"/>
<path d="M238.261 8.69922H236.8C236.759 8.45964 236.682 8.2474 236.57 8.0625C236.458 7.875 236.319 7.71615 236.152 7.58594C235.985 7.45573 235.795 7.35807 235.582 7.29297C235.371 7.22526 235.143 7.19141 234.898 7.19141C234.463 7.19141 234.078 7.30078 233.742 7.51953C233.406 7.73568 233.143 8.05339 232.953 8.47266C232.763 8.88932 232.667 9.39844 232.667 10C232.667 10.612 232.763 11.1276 232.953 11.5469C233.145 11.9635 233.408 12.2786 233.742 12.4922C234.078 12.7031 234.462 12.8086 234.894 12.8086C235.134 12.8086 235.358 12.7773 235.566 12.7148C235.777 12.6497 235.966 12.5547 236.132 12.4297C236.302 12.3047 236.444 12.151 236.558 11.9687C236.675 11.7865 236.756 11.5781 236.8 11.3437L238.261 11.3516C238.207 11.7318 238.088 12.0885 237.906 12.4219C237.726 12.7552 237.49 13.0495 237.199 13.3047C236.907 13.5573 236.566 13.7552 236.175 13.8984C235.785 14.0391 235.351 14.1094 234.875 14.1094C234.171 14.1094 233.544 13.9466 232.992 13.6211C232.44 13.2956 232.005 12.8255 231.687 12.2109C231.369 11.5964 231.21 10.8594 231.21 10C231.21 9.13802 231.371 8.40104 231.691 7.78906C232.011 7.17448 232.447 6.70443 233 6.37891C233.552 6.05339 234.177 5.89062 234.875 5.89062C235.32 5.89062 235.734 5.95312 236.117 6.07812C236.5 6.20312 236.841 6.38672 237.14 6.62891C237.44 6.86849 237.686 7.16276 237.878 7.51172C238.074 7.85807 238.201 8.25391 238.261 8.69922ZM244.334 5.78125L244.827 6.69531C244.652 6.84635 244.457 6.95573 244.241 7.02344C244.025 7.09115 243.771 7.13542 243.479 7.15625C243.19 7.17448 242.846 7.1875 242.448 7.19531C242 7.20573 241.634 7.29036 241.35 7.44922C241.066 7.60807 240.849 7.84896 240.698 8.17187C240.547 8.49219 240.448 8.90104 240.401 9.39844H240.467C240.655 9.03125 240.918 8.7513 241.256 8.55859C241.595 8.36589 241.992 8.26953 242.448 8.26953C242.945 8.26953 243.384 8.38151 243.764 8.60547C244.147 8.82682 244.445 9.14844 244.659 9.57031C244.875 9.99219 244.983 10.5026 244.983 11.1016C244.983 11.7187 244.867 12.2539 244.635 12.707C244.403 13.1576 244.074 13.5052 243.647 13.75C243.222 13.9948 242.719 14.1172 242.135 14.1172C241.555 14.1172 241.049 13.9909 240.62 13.7383C240.193 13.4831 239.862 13.1068 239.627 12.6094C239.396 12.1094 239.28 11.4935 239.28 10.7617V10.2227C239.28 8.8112 239.543 7.75781 240.069 7.0625C240.595 6.36719 241.375 6.01302 242.409 6C242.716 5.99479 242.991 5.99349 243.233 5.99609C243.478 5.9987 243.691 5.98698 243.874 5.96094C244.056 5.9349 244.209 5.875 244.334 5.78125ZM242.143 12.9844C242.432 12.9844 242.682 12.9102 242.893 12.7617C243.104 12.6107 243.265 12.3971 243.377 12.1211C243.492 11.8451 243.549 11.5182 243.549 11.1406C243.549 10.7682 243.492 10.4518 243.377 10.1914C243.263 9.92839 243.1 9.72786 242.889 9.58984C242.678 9.45182 242.427 9.38281 242.135 9.38281C241.917 9.38281 241.72 9.42187 241.545 9.5C241.371 9.57812 241.222 9.69271 241.1 9.84375C240.978 9.99479 240.884 10.1784 240.819 10.3945C240.754 10.6107 240.719 10.8594 240.713 11.1406C240.713 11.7057 240.841 12.1549 241.096 12.4883C241.351 12.819 241.7 12.9844 242.143 12.9844ZM246.186 16.25V8H247.577V8.99219H247.659C247.732 8.84635 247.834 8.69141 247.967 8.52734C248.1 8.36068 248.28 8.21875 248.506 8.10156C248.733 7.98177 249.022 7.92188 249.374 7.92188C249.837 7.92188 250.255 8.04036 250.627 8.27734C251.002 8.51172 251.299 8.85937 251.518 9.32031C251.739 9.77865 251.85 10.3411 251.85 11.0078C251.85 11.6667 251.742 12.2266 251.526 12.6875C251.31 13.1484 251.015 13.5 250.643 13.7422C250.271 13.9844 249.849 14.1055 249.377 14.1055C249.034 14.1055 248.749 14.0482 248.522 13.9336C248.295 13.819 248.113 13.681 247.975 13.5195C247.84 13.3555 247.734 13.2005 247.659 13.0547H247.6V16.25H246.186ZM247.573 11C247.573 11.388 247.627 11.7279 247.737 12.0195C247.849 12.3112 248.009 12.5391 248.217 12.7031C248.428 12.8646 248.683 12.9453 248.983 12.9453C249.295 12.9453 249.557 12.862 249.768 12.6953C249.979 12.526 250.138 12.2956 250.245 12.0039C250.354 11.7096 250.409 11.375 250.409 11C250.409 10.6276 250.355 10.2969 250.249 10.0078C250.142 9.71875 249.983 9.49219 249.772 9.32812C249.561 9.16406 249.298 9.08203 248.983 9.08203C248.681 9.08203 248.424 9.16146 248.213 9.32031C248.002 9.47917 247.842 9.70182 247.733 9.98828C247.626 10.2747 247.573 10.612 247.573 11ZM255.678 14.1172C255.092 14.1172 254.584 13.9883 254.155 13.7305C253.725 13.4727 253.392 13.112 253.155 12.6484C252.92 12.1849 252.803 11.6432 252.803 11.0234C252.803 10.4036 252.92 9.86068 253.155 9.39453C253.392 8.92839 253.725 8.56641 254.155 8.30859C254.584 8.05078 255.092 7.92188 255.678 7.92188C256.264 7.92188 256.772 8.05078 257.202 8.30859C257.631 8.56641 257.963 8.92839 258.198 9.39453C258.435 9.86068 258.553 10.4036 258.553 11.0234C258.553 11.6432 258.435 12.1849 258.198 12.6484C257.963 13.112 257.631 13.4727 257.202 13.7305C256.772 13.9883 256.264 14.1172 255.678 14.1172ZM255.686 12.9844C256.004 12.9844 256.269 12.8971 256.483 12.7227C256.696 12.5456 256.855 12.3086 256.959 12.0117C257.066 11.7148 257.12 11.3841 257.12 11.0195C257.12 10.6523 257.066 10.3203 256.959 10.0234C256.855 9.72396 256.696 9.48568 256.483 9.30859C256.269 9.13151 256.004 9.04297 255.686 9.04297C255.361 9.04297 255.09 9.13151 254.874 9.30859C254.66 9.48568 254.5 9.72396 254.393 10.0234C254.289 10.3203 254.237 10.6523 254.237 11.0195C254.237 11.3841 254.289 11.7148 254.393 12.0117C254.5 12.3086 254.66 12.5456 254.874 12.7227C255.09 12.8971 255.361 12.9844 255.686 12.9844ZM262.371 14.1172C261.772 14.1172 261.257 13.9857 260.828 13.7227C260.401 13.4596 260.071 13.0964 259.839 12.6328C259.61 12.1667 259.496 11.6302 259.496 11.0234C259.496 10.4141 259.613 9.8763 259.847 9.41016C260.082 8.94141 260.412 8.57682 260.839 8.31641C261.269 8.05339 261.777 7.92188 262.363 7.92188C262.85 7.92188 263.281 8.01172 263.656 8.19141C264.033 8.36849 264.334 8.61979 264.558 8.94531C264.782 9.26823 264.91 9.64583 264.941 10.0781H263.589C263.535 9.78906 263.404 9.54818 263.199 9.35547C262.996 9.16016 262.723 9.0625 262.382 9.0625C262.093 9.0625 261.839 9.14062 261.621 9.29687C261.402 9.45052 261.231 9.67187 261.109 9.96094C260.989 10.25 260.929 10.5964 260.929 11C260.929 11.4089 260.989 11.7604 261.109 12.0547C261.229 12.3464 261.397 12.5716 261.613 12.7305C261.832 12.8867 262.088 12.9648 262.382 12.9648C262.591 12.9648 262.777 12.9258 262.941 12.8477C263.108 12.7669 263.247 12.651 263.359 12.5C263.471 12.349 263.548 12.1654 263.589 11.9492H264.941C264.907 12.3737 264.782 12.75 264.566 13.0781C264.35 13.4036 264.056 13.6589 263.683 13.8437C263.311 14.026 262.873 14.1172 262.371 14.1172Z" fill="#474649"/>
<rect width="96" height="20" transform="translate(300)" fill="#E4E2E4"/>
<path d="M317.062 8.69922H315.601C315.559 8.45964 315.482 8.2474 315.37 8.0625C315.258 7.875 315.119 7.71615 314.952 7.58594C314.785 7.45573 314.595 7.35807 314.382 7.29297C314.171 7.22526 313.943 7.19141 313.698 7.19141C313.263 7.19141 312.878 7.30078 312.542 7.51953C312.206 7.73568 311.943 8.05339 311.753 8.47266C311.563 8.88932 311.468 9.39844 311.468 10C311.468 10.612 311.563 11.1276 311.753 11.5469C311.946 11.9635 312.209 12.2786 312.542 12.4922C312.878 12.7031 313.262 12.8086 313.694 12.8086C313.934 12.8086 314.158 12.7773 314.366 12.7148C314.577 12.6497 314.766 12.5547 314.933 12.4297C315.102 12.3047 315.244 12.151 315.358 11.9687C315.476 11.7865 315.556 11.5781 315.601 11.3437L317.062 11.3516C317.007 11.7318 316.888 12.0885 316.706 12.4219C316.526 12.7552 316.291 13.0495 315.999 13.3047C315.707 13.5573 315.366 13.7552 314.976 13.8984C314.585 14.0391 314.151 14.1094 313.675 14.1094C312.972 14.1094 312.344 13.9466 311.792 13.6211C311.24 13.2956 310.805 12.8255 310.487 12.2109C310.17 11.5964 310.011 10.8594 310.011 10C310.011 9.13802 310.171 8.40104 310.491 7.78906C310.812 7.17448 311.248 6.70443 311.8 6.37891C312.352 6.05339 312.977 5.89062 313.675 5.89062C314.12 5.89062 314.534 5.95312 314.917 6.07812C315.3 6.20312 315.641 6.38672 315.94 6.62891C316.24 6.86849 316.486 7.16276 316.679 7.51172C316.874 7.85807 317.002 8.25391 317.062 8.69922ZM323.135 5.78125L323.627 6.69531C323.452 6.84635 323.257 6.95573 323.041 7.02344C322.825 7.09115 322.571 7.13542 322.279 7.15625C321.99 7.17448 321.646 7.1875 321.248 7.19531C320.8 7.20573 320.434 7.29036 320.15 7.44922C319.867 7.60807 319.649 7.84896 319.498 8.17187C319.347 8.49219 319.248 8.90104 319.201 9.39844H319.268C319.455 9.03125 319.718 8.7513 320.057 8.55859C320.395 8.36589 320.792 8.26953 321.248 8.26953C321.745 8.26953 322.184 8.38151 322.564 8.60547C322.947 8.82682 323.245 9.14844 323.459 9.57031C323.675 9.99219 323.783 10.5026 323.783 11.1016C323.783 11.7187 323.667 12.2539 323.436 12.707C323.204 13.1576 322.874 13.5052 322.447 13.75C322.023 13.9948 321.519 14.1172 320.936 14.1172C320.355 14.1172 319.85 13.9909 319.42 13.7383C318.993 13.4831 318.662 13.1068 318.428 12.6094C318.196 12.1094 318.08 11.4935 318.08 10.7617V10.2227C318.08 8.8112 318.343 7.75781 318.869 7.0625C319.395 6.36719 320.175 6.01302 321.209 6C321.516 5.99479 321.791 5.99349 322.033 5.99609C322.278 5.9987 322.492 5.98698 322.674 5.96094C322.856 5.9349 323.01 5.875 323.135 5.78125ZM320.943 12.9844C321.232 12.9844 321.482 12.9102 321.693 12.7617C321.904 12.6107 322.066 12.3971 322.178 12.1211C322.292 11.8451 322.35 11.5182 322.35 11.1406C322.35 10.7682 322.292 10.4518 322.178 10.1914C322.063 9.92839 321.9 9.72786 321.689 9.58984C321.479 9.45182 321.227 9.38281 320.936 9.38281C320.717 9.38281 320.52 9.42187 320.346 9.5C320.171 9.57812 320.023 9.69271 319.9 9.84375C319.778 9.99479 319.684 10.1784 319.619 10.3945C319.554 10.6107 319.519 10.8594 319.514 11.1406C319.514 11.7057 319.641 12.1549 319.896 12.4883C320.152 12.819 320.501 12.9844 320.943 12.9844ZM324.986 16.25V8H326.377V8.99219H326.459C326.532 8.84635 326.635 8.69141 326.768 8.52734C326.9 8.36068 327.08 8.21875 327.307 8.10156C327.533 7.98177 327.822 7.92188 328.174 7.92188C328.637 7.92188 329.055 8.04036 329.428 8.27734C329.803 8.51172 330.1 8.85937 330.318 9.32031C330.54 9.77865 330.65 10.3411 330.65 11.0078C330.65 11.6667 330.542 12.2266 330.326 12.6875C330.11 13.1484 329.816 13.5 329.443 13.7422C329.071 13.9844 328.649 14.1055 328.178 14.1055C327.834 14.1055 327.549 14.0482 327.322 13.9336C327.096 13.819 326.913 13.681 326.775 13.5195C326.64 13.3555 326.535 13.2005 326.459 13.0547H326.4V16.25H324.986ZM326.373 11C326.373 11.388 326.428 11.7279 326.537 12.0195C326.649 12.3112 326.809 12.5391 327.018 12.7031C327.229 12.8646 327.484 12.9453 327.783 12.9453C328.096 12.9453 328.357 12.862 328.568 12.6953C328.779 12.526 328.938 12.2956 329.045 12.0039C329.154 11.7096 329.209 11.375 329.209 11C329.209 10.6276 329.156 10.2969 329.049 10.0078C328.942 9.71875 328.783 9.49219 328.572 9.32812C328.361 9.16406 328.098 9.08203 327.783 9.08203C327.481 9.08203 327.225 9.16146 327.014 9.32031C326.803 9.47917 326.643 9.70182 326.533 9.98828C326.426 10.2747 326.373 10.612 326.373 11ZM334.479 14.1172C333.893 14.1172 333.385 13.9883 332.955 13.7305C332.525 13.4727 332.192 13.112 331.955 12.6484C331.721 12.1849 331.604 11.6432 331.604 11.0234C331.604 10.4036 331.721 9.86068 331.955 9.39453C332.192 8.92839 332.525 8.56641 332.955 8.30859C333.385 8.05078 333.893 7.92188 334.479 7.92188C335.064 7.92188 335.572 8.05078 336.002 8.30859C336.432 8.56641 336.764 8.92839 336.998 9.39453C337.235 9.86068 337.354 10.4036 337.354 11.0234C337.354 11.6432 337.235 12.1849 336.998 12.6484C336.764 13.112 336.432 13.4727 336.002 13.7305C335.572 13.9883 335.064 14.1172 334.479 14.1172ZM334.486 12.9844C334.804 12.9844 335.07 12.8971 335.283 12.7227C335.497 12.5456 335.656 12.3086 335.76 12.0117C335.867 11.7148 335.92 11.3841 335.92 11.0195C335.92 10.6523 335.867 10.3203 335.76 10.0234C335.656 9.72396 335.497 9.48568 335.283 9.30859C335.07 9.13151 334.804 9.04297 334.486 9.04297C334.161 9.04297 333.89 9.13151 333.674 9.30859C333.46 9.48568 333.3 9.72396 333.193 10.0234C333.089 10.3203 333.037 10.6523 333.037 11.0195C333.037 11.3841 333.089 11.7148 333.193 12.0117C333.3 12.3086 333.46 12.5456 333.674 12.7227C333.89 12.8971 334.161 12.9844 334.486 12.9844ZM341.171 14.1172C340.572 14.1172 340.058 13.9857 339.628 13.7227C339.201 13.4596 338.871 13.0964 338.64 12.6328C338.41 12.1667 338.296 11.6302 338.296 11.0234C338.296 10.4141 338.413 9.8763 338.647 9.41016C338.882 8.94141 339.213 8.57682 339.64 8.31641C340.069 8.05339 340.577 7.92188 341.163 7.92188C341.65 7.92188 342.081 8.01172 342.456 8.19141C342.834 8.36849 343.134 8.61979 343.358 8.94531C343.582 9.26823 343.71 9.64583 343.741 10.0781H342.39C342.335 9.78906 342.205 9.54818 341.999 9.35547C341.796 9.16016 341.524 9.0625 341.183 9.0625C340.894 9.0625 340.64 9.14062 340.421 9.29687C340.202 9.45052 340.032 9.67187 339.909 9.96094C339.789 10.25 339.729 10.5964 339.729 11C339.729 11.4089 339.789 11.7604 339.909 12.0547C340.029 12.3464 340.197 12.5716 340.413 12.7305C340.632 12.8867 340.888 12.9648 341.183 12.9648C341.391 12.9648 341.577 12.9258 341.741 12.8477C341.908 12.7669 342.047 12.651 342.159 12.5C342.271 12.349 342.348 12.1654 342.39 11.9492H343.741C343.707 12.3737 343.582 12.75 343.366 13.0781C343.15 13.4036 342.856 13.6589 342.483 13.8437C342.111 14.026 341.674 14.1172 341.171 14.1172ZM347.631 14V8H352.697V14H351.334V9.16016H348.982V14H347.631ZM354.815 16.25C354.623 16.25 354.444 16.2344 354.28 16.2031C354.119 16.1745 353.99 16.1406 353.894 16.1016L354.222 15C354.427 15.0599 354.611 15.0885 354.772 15.0859C354.934 15.0833 355.076 15.0326 355.198 14.9336C355.323 14.8372 355.429 14.6758 355.515 14.4492L355.636 14.125L353.46 8H354.96L356.343 12.5312H356.405L357.792 8H359.296L356.894 14.7266C356.782 15.0443 356.633 15.3164 356.448 15.543C356.263 15.7721 356.037 15.9466 355.769 16.0664C355.503 16.1888 355.185 16.25 354.815 16.25ZM362.688 14.1172C362.089 14.1172 361.574 13.9857 361.145 13.7227C360.717 13.4596 360.388 13.0964 360.156 12.6328C359.927 12.1667 359.813 11.6302 359.813 11.0234C359.813 10.4141 359.93 9.8763 360.164 9.41016C360.398 8.94141 360.729 8.57682 361.156 8.31641C361.586 8.05339 362.094 7.92188 362.68 7.92188C363.167 7.92188 363.598 8.01172 363.973 8.19141C364.35 8.36849 364.651 8.61979 364.875 8.94531C365.099 9.26823 365.227 9.64583 365.258 10.0781H363.906C363.852 9.78906 363.721 9.54818 363.516 9.35547C363.313 9.16016 363.04 9.0625 362.699 9.0625C362.41 9.0625 362.156 9.14062 361.938 9.29687C361.719 9.45052 361.548 9.67187 361.426 9.96094C361.306 10.25 361.246 10.5964 361.246 11C361.246 11.4089 361.306 11.7604 361.426 12.0547C361.546 12.3464 361.714 12.5716 361.93 12.7305C362.148 12.8867 362.405 12.9648 362.699 12.9648C362.908 12.9648 363.094 12.9258 363.258 12.8477C363.424 12.7669 363.564 12.651 363.676 12.5C363.788 12.349 363.865 12.1654 363.906 11.9492H365.258C365.224 12.3737 365.099 12.75 364.883 13.0781C364.667 13.4036 364.372 13.6589 364 13.8437C363.628 14.026 363.19 14.1172 362.688 14.1172ZM365.983 9.16016V8H371.233V9.16016H369.292V14H367.925V9.16016H365.983ZM373.316 9.95312H375.086C375.852 9.95312 376.444 10.1393 376.863 10.5117C377.283 10.8841 377.493 11.3724 377.496 11.9766C377.493 12.3698 377.397 12.7187 377.207 13.0234C377.02 13.3281 376.746 13.5677 376.387 13.7422C376.03 13.9141 375.596 14 375.086 14H372.359V8H373.723V12.8398H375.086C375.393 12.8398 375.646 12.7617 375.844 12.6055C376.042 12.4466 376.141 12.2435 376.141 11.9961C376.141 11.7357 376.042 11.5234 375.844 11.3594C375.646 11.1953 375.393 11.1133 375.086 11.1133H373.316V9.95312ZM378.242 14V8H379.656V14H378.242ZM382.271 8L383.481 10.2148L384.712 8H386.208L384.399 11L386.239 14H384.751L383.481 11.8398L382.224 14H380.724L382.552 11L380.771 8H382.271Z" fill="#474649"/>
<rect width="96" height="20" transform="translate(0 24)" fill="#E4E2E4"/>
<path d="M22.0786 38V30H25.1411C25.7192 30 26.1997 30.0911 26.5825 30.2734C26.9679 30.4531 27.2557 30.6992 27.4458 31.0117C27.6385 31.3242 27.7349 31.6784 27.7349 32.0742C27.7349 32.3997 27.6724 32.6784 27.5474 32.9102C27.4224 33.1393 27.2544 33.3255 27.0435 33.4687C26.8325 33.612 26.5968 33.7148 26.3364 33.7773V33.8555C26.6203 33.8711 26.8924 33.9583 27.1528 34.1172C27.4159 34.2734 27.6307 34.4948 27.7974 34.7812C27.964 35.0677 28.0474 35.4141 28.0474 35.8203C28.0474 36.2344 27.9471 36.6068 27.7466 36.9375C27.5461 37.2656 27.244 37.5247 26.8403 37.7148C26.4367 37.9049 25.9289 38 25.3169 38H22.0786ZM23.5278 36.7891H25.0864C25.6125 36.7891 25.9914 36.6888 26.2231 36.4883C26.4575 36.2852 26.5747 36.0247 26.5747 35.707C26.5747 35.4701 26.5161 35.2565 26.3989 35.0664C26.2817 34.8737 26.1151 34.7227 25.8989 34.6133C25.6828 34.5013 25.425 34.4453 25.1255 34.4453H23.5278V36.7891ZM23.5278 33.4023H24.9614C25.2114 33.4023 25.4367 33.3568 25.6372 33.2656C25.8377 33.1719 25.9953 33.0404 26.1099 32.8711C26.2271 32.6992 26.2856 32.4961 26.2856 32.2617C26.2856 31.9518 26.1763 31.6966 25.9575 31.4961C25.7414 31.2956 25.4198 31.1953 24.9927 31.1953H23.5278V33.4023ZM30.2026 33.9531H31.9722C32.7378 33.9531 33.3302 34.1393 33.7495 34.5117C34.1688 34.8841 34.3797 35.3724 34.3823 35.9766C34.3797 36.3698 34.2834 36.7187 34.0933 37.0234C33.9058 37.3281 33.6323 37.5677 33.2729 37.7422C32.9162 37.9141 32.4826 38 31.9722 38H29.2456V32H30.6089V36.8398H31.9722C32.2795 36.8398 32.5321 36.7617 32.73 36.6055C32.9279 36.4466 33.0269 36.2435 33.0269 35.9961C33.0269 35.7357 32.9279 35.5234 32.73 35.3594C32.5321 35.1953 32.2795 35.1133 31.9722 35.1133H30.2026V33.9531ZM35.1284 38V32H36.5425V38H35.1284ZM38.0005 40.25V32H39.3911V32.9922H39.4731C39.5461 32.8464 39.6489 32.6914 39.7817 32.5273C39.9146 32.3607 40.0942 32.2187 40.3208 32.1016C40.5474 31.9818 40.8364 31.9219 41.188 31.9219C41.6515 31.9219 42.0695 32.0404 42.4419 32.2773C42.8169 32.5117 43.1138 32.8594 43.3325 33.3203C43.5539 33.7786 43.6646 34.3411 43.6646 35.0078C43.6646 35.6667 43.5565 36.2266 43.3403 36.6875C43.1242 37.1484 42.8299 37.5 42.4575 37.7422C42.0851 37.9844 41.6632 38.1055 41.1919 38.1055C40.8481 38.1055 40.563 38.0482 40.3364 37.9336C40.1099 37.819 39.9276 37.681 39.7896 37.5195C39.6541 37.3555 39.5487 37.2005 39.4731 37.0547H39.4146V40.25H38.0005ZM39.3872 35C39.3872 35.388 39.4419 35.7279 39.5513 36.0195C39.6632 36.3112 39.8234 36.5391 40.0317 36.7031C40.2427 36.8646 40.4979 36.9453 40.7974 36.9453C41.1099 36.9453 41.3716 36.862 41.5825 36.6953C41.7935 36.526 41.9523 36.2956 42.0591 36.0039C42.1685 35.7096 42.2231 35.375 42.2231 35C42.2231 34.6276 42.1698 34.2969 42.063 34.0078C41.9562 33.7187 41.7974 33.4922 41.5864 33.3281C41.3755 33.1641 41.1125 33.082 40.7974 33.082C40.4953 33.082 40.2388 33.1615 40.0278 33.3203C39.8169 33.4792 39.6567 33.7018 39.5474 33.9883C39.4406 34.2747 39.3872 34.612 39.3872 35ZM47.5317 38.1172C46.9302 38.1172 46.4106 37.9922 45.9731 37.7422C45.5382 37.4896 45.2036 37.1328 44.9692 36.6719C44.7349 36.2083 44.6177 35.6628 44.6177 35.0352C44.6177 34.418 44.7349 33.8763 44.9692 33.4102C45.2062 32.9414 45.5369 32.5768 45.9614 32.3164C46.3859 32.0534 46.8846 31.9219 47.4575 31.9219C47.8273 31.9219 48.1763 31.9818 48.5044 32.1016C48.8351 32.2187 49.1268 32.401 49.3794 32.6484C49.6346 32.8958 49.8351 33.2109 49.981 33.5937C50.1268 33.974 50.1997 34.4271 50.1997 34.9531V35.3867H45.2817V34.4336H48.8442C48.8416 34.1628 48.783 33.9219 48.6685 33.7109C48.5539 33.4974 48.3937 33.3294 48.188 33.207C47.9849 33.0846 47.7479 33.0234 47.4771 33.0234C47.188 33.0234 46.9341 33.0937 46.7153 33.2344C46.4966 33.3724 46.326 33.5547 46.2036 33.7812C46.0838 34.0052 46.0226 34.2513 46.02 34.5195V35.3516C46.02 35.7005 46.0838 36 46.2114 36.25C46.339 36.4974 46.5174 36.6875 46.7466 36.8203C46.9757 36.9505 47.244 37.0156 47.5513 37.0156C47.757 37.0156 47.9432 36.987 48.1099 36.9297C48.2765 36.8698 48.4211 36.7826 48.5435 36.668C48.6659 36.5534 48.7583 36.4115 48.8208 36.2422L50.1411 36.3906C50.0578 36.7396 49.8989 37.0443 49.6646 37.3047C49.4328 37.5625 49.1359 37.763 48.7739 37.9062C48.4119 38.0469 47.9979 38.1172 47.5317 38.1172ZM51.064 36.3555H52.4663C52.4793 36.5794 52.5796 36.7526 52.7671 36.875C52.9546 36.9974 53.1981 37.0586 53.4976 37.0586C53.8022 37.0586 54.0588 36.9922 54.2671 36.8594C54.478 36.724 54.5835 36.5195 54.5835 36.2461C54.5835 36.0846 54.5431 35.9427 54.4624 35.8203C54.3817 35.6953 54.2684 35.599 54.1226 35.5312C53.9767 35.4635 53.8049 35.4297 53.6069 35.4297H52.689V34.4258H53.6069C53.9012 34.4258 54.1239 34.3581 54.2749 34.2227C54.4285 34.0872 54.5054 33.9167 54.5054 33.7109C54.5054 33.4896 54.4246 33.3099 54.2632 33.1719C54.1043 33.0339 53.8843 32.9648 53.603 32.9648C53.3218 32.9648 53.0874 33.0286 52.8999 33.1562C52.715 33.2839 52.6187 33.4479 52.6108 33.6484H51.2163C51.2215 33.2995 51.3257 32.9961 51.5288 32.7383C51.7345 32.4805 52.0106 32.2799 52.3569 32.1367C52.7059 31.9935 53.0991 31.9219 53.5366 31.9219C54.0054 31.9219 54.4103 31.9922 54.7515 32.1328C55.0926 32.2734 55.3556 32.4701 55.5405 32.7227C55.7254 32.9727 55.8179 33.2669 55.8179 33.6055C55.8179 33.931 55.7163 34.2005 55.5132 34.4141C55.3101 34.625 55.0366 34.776 54.6929 34.8672V34.9297C54.9299 34.9427 55.1434 35.0104 55.3335 35.1328C55.5236 35.2526 55.6746 35.4154 55.7866 35.6211C55.8986 35.8268 55.9546 36.0651 55.9546 36.3359C55.9546 36.7031 55.8491 37.0208 55.6382 37.2891C55.4272 37.5547 55.1369 37.7591 54.7671 37.9023C54.3999 38.0456 53.9793 38.1172 53.5054 38.1172C53.0444 38.1172 52.6317 38.0482 52.2671 37.9102C51.9051 37.7695 51.6174 37.5677 51.4038 37.3047C51.1903 37.0417 51.077 36.7253 51.064 36.3555ZM58.7944 38.1211C58.4142 38.1211 58.0718 38.0534 57.7671 37.918C57.465 37.7799 57.2254 37.5768 57.0483 37.3086C56.8739 37.0404 56.7866 36.7096 56.7866 36.3164C56.7866 35.9779 56.8491 35.6979 56.9741 35.4766C57.0991 35.2552 57.2697 35.0781 57.4858 34.9453C57.702 34.8125 57.9455 34.7122 58.2163 34.6445C58.4897 34.5742 58.7723 34.5234 59.064 34.4922C59.4155 34.4557 59.7007 34.4232 59.9194 34.3945C60.1382 34.3633 60.297 34.3164 60.396 34.2539C60.4976 34.1888 60.5483 34.0885 60.5483 33.9531V33.9297C60.5483 33.6354 60.4611 33.4076 60.2866 33.2461C60.1121 33.0846 59.8608 33.0039 59.5327 33.0039C59.1864 33.0039 58.9116 33.0794 58.7085 33.2305C58.508 33.3815 58.3726 33.5599 58.3022 33.7656L56.9819 33.5781C57.0861 33.2135 57.258 32.9089 57.4976 32.6641C57.7371 32.4167 58.0301 32.2318 58.3765 32.1094C58.7228 31.9844 59.1056 31.9219 59.5249 31.9219C59.814 31.9219 60.1017 31.9557 60.3882 32.0234C60.6746 32.0911 60.9364 32.2031 61.1733 32.3594C61.4103 32.513 61.6004 32.7227 61.7437 32.9883C61.8895 33.2539 61.9624 33.5859 61.9624 33.9844V38H60.603V37.1758H60.5562C60.4702 37.3424 60.3491 37.4987 60.1929 37.6445C60.0392 37.7878 59.8452 37.9036 59.6108 37.9922C59.3791 38.0781 59.1069 38.1211 58.7944 38.1211ZM59.1616 37.082C59.4455 37.082 59.6916 37.026 59.8999 36.9141C60.1082 36.7995 60.2684 36.6484 60.3804 36.4609C60.495 36.2734 60.5522 36.069 60.5522 35.8477V35.1406C60.508 35.1771 60.4325 35.2109 60.3257 35.2422C60.2215 35.2734 60.1043 35.3008 59.9741 35.3242C59.8439 35.3477 59.715 35.3685 59.5874 35.3867C59.4598 35.4049 59.3491 35.4206 59.2554 35.4336C59.0444 35.4622 58.8556 35.5091 58.689 35.5742C58.5223 35.6393 58.3908 35.7305 58.2944 35.8477C58.1981 35.9622 58.1499 36.1107 58.1499 36.293C58.1499 36.5534 58.245 36.75 58.4351 36.8828C58.6252 37.0156 58.8674 37.082 59.1616 37.082ZM62.7124 33.1602V32H67.9624V33.1602H66.021V38H64.6538V33.1602H62.7124ZM70.0454 33.9531H71.8149C72.5806 33.9531 73.173 34.1393 73.5923 34.5117C74.0116 34.8841 74.2225 35.3724 74.2251 35.9766C74.2225 36.3698 74.1261 36.7187 73.936 37.0234C73.7485 37.3281 73.4751 37.5677 73.1157 37.7422C72.759 37.9141 72.3254 38 71.8149 38H69.0884V32H70.4517V36.8398H71.8149C72.1222 36.8398 72.3748 36.7617 72.5728 36.6055C72.7707 36.4466 72.8696 36.2435 72.8696 35.9961C72.8696 35.7357 72.7707 35.5234 72.5728 35.3594C72.3748 35.1953 72.1222 35.1133 71.8149 35.1133H70.0454V33.9531Z" fill="#474649"/>
<rect width="96" height="20" transform="translate(100 24)" fill="#E4E2E4"/>
<path d="M120.969 38L118.336 34.5039H117.625V38H116.176V30H117.625V33.2891H117.988L120.832 30H122.617L119.457 33.6484L122.754 38H120.969ZM125.853 38.1172C125.267 38.1172 124.759 37.9883 124.329 37.7305C123.899 37.4727 123.566 37.112 123.329 36.6484C123.095 36.1849 122.978 35.6432 122.978 35.0234C122.978 34.4036 123.095 33.8607 123.329 33.3945C123.566 32.9284 123.899 32.5664 124.329 32.3086C124.759 32.0508 125.267 31.9219 125.853 31.9219C126.438 31.9219 126.946 32.0508 127.376 32.3086C127.806 32.5664 128.138 32.9284 128.372 33.3945C128.609 33.8607 128.728 34.4036 128.728 35.0234C128.728 35.6432 128.609 36.1849 128.372 36.6484C128.138 37.112 127.806 37.4727 127.376 37.7305C126.946 37.9883 126.438 38.1172 125.853 38.1172ZM125.86 36.9844C126.178 36.9844 126.444 36.8971 126.657 36.7227C126.871 36.5456 127.03 36.3086 127.134 36.0117C127.241 35.7148 127.294 35.3841 127.294 35.0195C127.294 34.6523 127.241 34.3203 127.134 34.0234C127.03 33.724 126.871 33.4857 126.657 33.3086C126.444 33.1315 126.178 33.043 125.86 33.043C125.535 33.043 125.264 33.1315 125.048 33.3086C124.834 33.4857 124.674 33.724 124.567 34.0234C124.463 34.3203 124.411 34.6523 124.411 35.0195C124.411 35.3841 124.463 35.7148 124.567 36.0117C124.674 36.3086 124.834 36.5456 125.048 36.7227C125.264 36.8971 125.535 36.9844 125.86 36.9844ZM129.928 38V32H134.994V38H133.631V33.1602H131.279V38H129.928ZM137.812 36.0859L140.214 32H141.667V38H140.3V33.9102L137.905 38H136.448V32H137.812V36.0859ZM143.119 40.25V32H144.51V32.9922H144.592C144.665 32.8464 144.768 32.6914 144.9 32.5273C145.033 32.3607 145.213 32.2187 145.439 32.1016C145.666 31.9818 145.955 31.9219 146.307 31.9219C146.77 31.9219 147.188 32.0404 147.561 32.2773C147.936 32.5117 148.232 32.8594 148.451 33.3203C148.673 33.7786 148.783 34.3411 148.783 35.0078C148.783 35.6667 148.675 36.2266 148.459 36.6875C148.243 37.1484 147.949 37.5 147.576 37.7422C147.204 37.9844 146.782 38.1055 146.311 38.1055C145.967 38.1055 145.682 38.0482 145.455 37.9336C145.229 37.819 145.046 37.681 144.908 37.5195C144.773 37.3555 144.667 37.2005 144.592 37.0547H144.533V40.25H143.119ZM144.506 35C144.506 35.388 144.561 35.7279 144.67 36.0195C144.782 36.3112 144.942 36.5391 145.15 36.7031C145.361 36.8646 145.617 36.9453 145.916 36.9453C146.229 36.9453 146.49 36.862 146.701 36.6953C146.912 36.526 147.071 36.2956 147.178 36.0039C147.287 35.7096 147.342 35.375 147.342 35C147.342 34.6276 147.288 34.2969 147.182 34.0078C147.075 33.7187 146.916 33.4922 146.705 33.3281C146.494 33.1641 146.231 33.082 145.916 33.082C145.614 33.082 145.357 33.1615 145.146 33.3203C144.936 33.4792 144.775 33.7018 144.666 33.9883C144.559 34.2747 144.506 34.612 144.506 35ZM152.611 38.1172C152.025 38.1172 151.518 37.9883 151.088 37.7305C150.658 37.4727 150.325 37.112 150.088 36.6484C149.854 36.1849 149.736 35.6432 149.736 35.0234C149.736 34.4036 149.854 33.8607 150.088 33.3945C150.325 32.9284 150.658 32.5664 151.088 32.3086C151.518 32.0508 152.025 31.9219 152.611 31.9219C153.197 31.9219 153.705 32.0508 154.135 32.3086C154.564 32.5664 154.896 32.9284 155.131 33.3945C155.368 33.8607 155.486 34.4036 155.486 35.0234C155.486 35.6432 155.368 36.1849 155.131 36.6484C154.896 37.112 154.564 37.4727 154.135 37.7305C153.705 37.9883 153.197 38.1172 152.611 38.1172ZM152.619 36.9844C152.937 36.9844 153.202 36.8971 153.416 36.7227C153.63 36.5456 153.788 36.3086 153.893 36.0117C153.999 35.7148 154.053 35.3841 154.053 35.0195C154.053 34.6523 153.999 34.3203 153.893 34.0234C153.788 33.724 153.63 33.4857 153.416 33.3086C153.202 33.1315 152.937 33.043 152.619 33.043C152.294 33.043 152.023 33.1315 151.807 33.3086C151.593 33.4857 151.433 33.724 151.326 34.0234C151.222 34.3203 151.17 34.6523 151.17 35.0195C151.17 35.3841 151.222 35.7148 151.326 36.0117C151.433 36.3086 151.593 36.5456 151.807 36.7227C152.023 36.8971 152.294 36.9844 152.619 36.9844ZM156.687 38V32H159.206C159.917 32 160.478 32.1419 160.89 32.4258C161.304 32.7096 161.511 33.1055 161.511 33.6133C161.511 33.9492 161.394 34.224 161.159 34.4375C160.927 34.6484 160.611 34.7904 160.21 34.8633C160.525 34.8893 160.801 34.9687 161.038 35.1016C161.278 35.2344 161.465 35.4089 161.601 35.625C161.736 35.8411 161.804 36.0898 161.804 36.3711C161.804 36.7018 161.716 36.9896 161.542 37.2344C161.37 37.4766 161.119 37.6654 160.788 37.8008C160.46 37.9336 160.062 38 159.593 38H156.687ZM158.011 36.8867H159.593C159.853 36.8867 160.058 36.8255 160.206 36.7031C160.354 36.5781 160.429 36.4089 160.429 36.1953C160.429 35.9479 160.354 35.7539 160.206 35.6133C160.058 35.4701 159.853 35.3984 159.593 35.3984H158.011V36.8867ZM158.011 34.4844H159.233C159.426 34.4844 159.591 34.457 159.729 34.4023C159.868 34.3451 159.973 34.2656 160.046 34.1641C160.119 34.0599 160.155 33.9362 160.155 33.793C160.155 33.5872 160.071 33.4258 159.901 33.3086C159.735 33.1914 159.503 33.1328 159.206 33.1328H158.011V34.4844ZM164.697 38.1211C164.317 38.1211 163.975 38.0534 163.67 37.918C163.368 37.7799 163.128 37.5768 162.951 37.3086C162.777 37.0404 162.689 36.7096 162.689 36.3164C162.689 35.9779 162.752 35.6979 162.877 35.4766C163.002 35.2552 163.173 35.0781 163.389 34.9453C163.605 34.8125 163.848 34.7122 164.119 34.6445C164.393 34.5742 164.675 34.5234 164.967 34.4922C165.318 34.4557 165.604 34.4232 165.822 34.3945C166.041 34.3633 166.2 34.3164 166.299 34.2539C166.4 34.1888 166.451 34.0885 166.451 33.9531V33.9297C166.451 33.6354 166.364 33.4076 166.189 33.2461C166.015 33.0846 165.764 33.0039 165.436 33.0039C165.089 33.0039 164.814 33.0794 164.611 33.2305C164.411 33.3815 164.275 33.5599 164.205 33.7656L162.885 33.5781C162.989 33.2135 163.161 32.9089 163.4 32.6641C163.64 32.4167 163.933 32.2318 164.279 32.1094C164.626 31.9844 165.008 31.9219 165.428 31.9219C165.717 31.9219 166.005 31.9557 166.291 32.0234C166.577 32.0911 166.839 32.2031 167.076 32.3594C167.313 32.513 167.503 32.7227 167.646 32.9883C167.792 33.2539 167.865 33.5859 167.865 33.9844V38H166.506V37.1758H166.459C166.373 37.3424 166.252 37.4987 166.096 37.6445C165.942 37.7878 165.748 37.9036 165.514 37.9922C165.282 38.0781 165.01 38.1211 164.697 38.1211ZM165.064 37.082C165.348 37.082 165.594 37.026 165.803 36.9141C166.011 36.7995 166.171 36.6484 166.283 36.4609C166.398 36.2734 166.455 36.069 166.455 35.8477V35.1406C166.411 35.1771 166.335 35.2109 166.229 35.2422C166.124 35.2734 166.007 35.3008 165.877 35.3242C165.747 35.3477 165.618 35.3685 165.49 35.3867C165.363 35.4049 165.252 35.4206 165.158 35.4336C164.947 35.4622 164.758 35.5091 164.592 35.5742C164.425 35.6393 164.294 35.7305 164.197 35.8477C164.101 35.9622 164.053 36.1107 164.053 36.293C164.053 36.5534 164.148 36.75 164.338 36.8828C164.528 37.0156 164.77 37.082 165.064 37.082ZM168.615 33.1602V32H173.865V33.1602H171.924V38H170.557V33.1602H168.615ZM175.948 33.9531H177.718C178.483 33.9531 179.076 34.1393 179.495 34.5117C179.914 34.8841 180.125 35.3724 180.128 35.9766C180.125 36.3698 180.029 36.7187 179.839 37.0234C179.651 37.3281 179.378 37.5677 179.019 37.7422C178.662 37.9141 178.228 38 177.718 38H174.991V32H176.354V36.8398H177.718C178.025 36.8398 178.278 36.7617 178.476 36.6055C178.674 36.4466 178.772 36.2435 178.772 35.9961C178.772 35.7357 178.674 35.5234 178.476 35.3594C178.278 35.1953 178.025 35.1133 177.718 35.1133H175.948V33.9531Z" fill="#474649"/>
<rect width="96" height="20" transform="translate(200 24)" fill="#E4E2E4"/>
<path d="M223.491 38V30H226.554C227.132 30 227.612 30.0911 227.995 30.2734C228.381 30.4531 228.668 30.6992 228.858 31.0117C229.051 31.3242 229.147 31.6784 229.147 32.0742C229.147 32.3997 229.085 32.6784 228.96 32.9102C228.835 33.1393 228.667 33.3255 228.456 33.4687C228.245 33.612 228.009 33.7148 227.749 33.7773V33.8555C228.033 33.8711 228.305 33.9583 228.565 34.1172C228.828 34.2734 229.043 34.4948 229.21 34.7812C229.377 35.0677 229.46 35.4141 229.46 35.8203C229.46 36.2344 229.36 36.6068 229.159 36.9375C228.959 37.2656 228.657 37.5247 228.253 37.7148C227.849 37.9049 227.341 38 226.729 38H223.491ZM224.94 36.7891H226.499C227.025 36.7891 227.404 36.6888 227.636 36.4883C227.87 36.2852 227.987 36.0247 227.987 35.707C227.987 35.4701 227.929 35.2565 227.812 35.0664C227.694 34.8737 227.528 34.7227 227.312 34.6133C227.095 34.5013 226.838 34.4453 226.538 34.4453H224.94V36.7891ZM224.94 33.4023H226.374C226.624 33.4023 226.849 33.3568 227.05 33.2656C227.25 33.1719 227.408 33.0404 227.522 32.8711C227.64 32.6992 227.698 32.4961 227.698 32.2617C227.698 31.9518 227.589 31.6966 227.37 31.4961C227.154 31.2956 226.832 31.1953 226.405 31.1953H224.94V33.4023ZM233.275 38.1172C232.676 38.1172 232.162 37.9857 231.732 37.7227C231.305 37.4596 230.976 37.0964 230.744 36.6328C230.515 36.1667 230.4 35.6302 230.4 35.0234C230.4 34.4141 230.518 33.8763 230.752 33.4102C230.986 32.9414 231.317 32.5768 231.744 32.3164C232.174 32.0534 232.682 31.9219 233.268 31.9219C233.755 31.9219 234.186 32.0117 234.561 32.1914C234.938 32.3685 235.239 32.6198 235.463 32.9453C235.687 33.2682 235.814 33.6458 235.846 34.0781H234.494C234.439 33.7891 234.309 33.5482 234.104 33.3555C233.9 33.1602 233.628 33.0625 233.287 33.0625C232.998 33.0625 232.744 33.1406 232.525 33.2969C232.307 33.4505 232.136 33.6719 232.014 33.9609C231.894 34.25 231.834 34.5964 231.834 35C231.834 35.4089 231.894 35.7604 232.014 36.0547C232.133 36.3464 232.301 36.5716 232.518 36.7305C232.736 36.8867 232.993 36.9648 233.287 36.9648C233.495 36.9648 233.682 36.9258 233.846 36.8477C234.012 36.7669 234.152 36.651 234.264 36.5C234.376 36.349 234.452 36.1654 234.494 35.9492H235.846C235.812 36.3737 235.687 36.75 235.471 37.0781C235.255 37.4036 234.96 37.6589 234.588 37.8437C234.215 38.026 233.778 38.1172 233.275 38.1172ZM236.571 33.1602V32H241.821V33.1602H239.88V38H238.513V33.1602H236.571ZM244.427 38.1211C244.047 38.1211 243.704 38.0534 243.399 37.918C243.097 37.7799 242.858 37.5768 242.681 37.3086C242.506 37.0404 242.419 36.7096 242.419 36.3164C242.419 35.9779 242.481 35.6979 242.606 35.4766C242.731 35.2552 242.902 35.0781 243.118 34.9453C243.334 34.8125 243.578 34.7122 243.849 34.6445C244.122 34.5742 244.405 34.5234 244.696 34.4922C245.048 34.4557 245.333 34.4232 245.552 34.3945C245.771 34.3633 245.929 34.3164 246.028 34.2539C246.13 34.1888 246.181 34.0885 246.181 33.9531V33.9297C246.181 33.6354 246.093 33.4076 245.919 33.2461C245.744 33.0846 245.493 33.0039 245.165 33.0039C244.819 33.0039 244.544 33.0794 244.341 33.2305C244.14 33.3815 244.005 33.5599 243.935 33.7656L242.614 33.5781C242.718 33.2135 242.89 32.9089 243.13 32.6641C243.369 32.4167 243.662 32.2318 244.009 32.1094C244.355 31.9844 244.738 31.9219 245.157 31.9219C245.446 31.9219 245.734 31.9557 246.021 32.0234C246.307 32.0911 246.569 32.2031 246.806 32.3594C247.043 32.513 247.233 32.7227 247.376 32.9883C247.522 33.2539 247.595 33.5859 247.595 33.9844V38H246.235V37.1758H246.188C246.103 37.3424 245.981 37.4987 245.825 37.6445C245.672 37.7878 245.478 37.9036 245.243 37.9922C245.011 38.0781 244.739 38.1211 244.427 38.1211ZM244.794 37.082C245.078 37.082 245.324 37.026 245.532 36.9141C245.741 36.7995 245.901 36.6484 246.013 36.4609C246.127 36.2734 246.185 36.069 246.185 35.8477V35.1406C246.14 35.1771 246.065 35.2109 245.958 35.2422C245.854 35.2734 245.737 35.3008 245.606 35.3242C245.476 35.3477 245.347 35.3685 245.22 35.3867C245.092 35.4049 244.981 35.4206 244.888 35.4336C244.677 35.4622 244.488 35.5091 244.321 35.5742C244.155 35.6393 244.023 35.7305 243.927 35.8477C243.83 35.9622 243.782 36.1107 243.782 36.293C243.782 36.5534 243.877 36.75 244.067 36.8828C244.257 37.0156 244.5 37.082 244.794 37.082ZM249.017 38V32H251.536C252.247 32 252.808 32.1419 253.22 32.4258C253.634 32.7096 253.841 33.1055 253.841 33.6133C253.841 33.9492 253.724 34.224 253.489 34.4375C253.257 34.6484 252.941 34.7904 252.54 34.8633C252.855 34.8893 253.131 34.9687 253.368 35.1016C253.608 35.2344 253.795 35.4089 253.931 35.625C254.066 35.8411 254.134 36.0898 254.134 36.3711C254.134 36.7018 254.047 36.9896 253.872 37.2344C253.7 37.4766 253.449 37.6654 253.118 37.8008C252.79 37.9336 252.392 38 251.923 38H249.017ZM250.341 36.8867H251.923C252.183 36.8867 252.388 36.8255 252.536 36.7031C252.685 36.5781 252.759 36.4089 252.759 36.1953C252.759 35.9479 252.685 35.7539 252.536 35.6133C252.388 35.4701 252.183 35.3984 251.923 35.3984H250.341V36.8867ZM250.341 34.4844H251.563C251.756 34.4844 251.922 34.457 252.06 34.4023C252.198 34.3451 252.303 34.2656 252.376 34.1641C252.449 34.0599 252.485 33.9362 252.485 33.793C252.485 33.5872 252.401 33.4258 252.231 33.3086C252.065 33.1914 251.833 33.1328 251.536 33.1328H250.341V34.4844ZM256.664 36.0859L259.066 32H260.52V38H259.152V33.9102L256.758 38H255.301V32H256.664V36.0859ZM261.3 33.1602V32H266.55V33.1602H264.608V38H263.241V33.1602H261.3ZM268.633 33.9531H270.402C271.168 33.9531 271.76 34.1393 272.18 34.5117C272.599 34.8841 272.81 35.3724 272.812 35.9766C272.81 36.3698 272.714 36.7187 272.523 37.0234C272.336 37.3281 272.063 37.5677 271.703 37.7422C271.346 37.9141 270.913 38 270.402 38H267.676V32H269.039V36.8398H270.402C270.71 36.8398 270.962 36.7617 271.16 36.6055C271.358 36.4466 271.457 36.2435 271.457 35.9961C271.457 35.7357 271.358 35.5234 271.16 35.3594C270.962 35.1953 270.71 35.1133 270.402 35.1133H268.633V33.9531Z" fill="#474649"/>
<rect width="96" height="20" transform="translate(300 24)" fill="#E4E2E4"/>
<path d="M338.917 32.6992H337.456C337.414 32.4596 337.337 32.2474 337.225 32.0625C337.113 31.875 336.974 31.7161 336.807 31.5859C336.64 31.4557 336.45 31.3581 336.237 31.293C336.026 31.2253 335.798 31.1914 335.553 31.1914C335.118 31.1914 334.733 31.3008 334.397 31.5195C334.061 31.7357 333.798 32.0534 333.608 32.4727C333.418 32.8893 333.323 33.3984 333.323 34C333.323 34.612 333.418 35.1276 333.608 35.5469C333.801 35.9635 334.064 36.2786 334.397 36.4922C334.733 36.7031 335.117 36.8086 335.549 36.8086C335.789 36.8086 336.013 36.7773 336.221 36.7148C336.432 36.6497 336.621 36.5547 336.788 36.4297C336.957 36.3047 337.099 36.151 337.213 35.9687C337.331 35.7865 337.411 35.5781 337.456 35.3437L338.917 35.3516C338.862 35.7318 338.743 36.0885 338.561 36.4219C338.381 36.7552 338.146 37.0495 337.854 37.3047C337.562 37.5573 337.221 37.7552 336.831 37.8984C336.44 38.0391 336.006 38.1094 335.53 38.1094C334.827 38.1094 334.199 37.9466 333.647 37.6211C333.095 37.2956 332.66 36.8255 332.342 36.2109C332.025 35.5964 331.866 34.8594 331.866 34C331.866 33.138 332.026 32.401 332.346 31.7891C332.667 31.1745 333.103 30.7044 333.655 30.3789C334.207 30.0534 334.832 29.8906 335.53 29.8906C335.975 29.8906 336.389 29.9531 336.772 30.0781C337.155 30.2031 337.496 30.3867 337.795 30.6289C338.095 30.8685 338.341 31.1628 338.534 31.5117C338.729 31.8581 338.857 32.2539 338.917 32.6992ZM339.65 39.7422V36.8359H340.126C340.254 36.737 340.361 36.6029 340.447 36.4336C340.533 36.2617 340.603 36.0599 340.658 35.8281C340.715 35.5937 340.762 35.332 340.798 35.043C340.835 34.7513 340.867 34.4375 340.896 34.1016L341.068 32H345.404V36.8359H346.333V39.7422H344.966V38H341.041V39.7422H339.65ZM341.58 36.8359H344.052V33.1406H342.294L342.201 34.1016C342.149 34.737 342.08 35.2812 341.994 35.7344C341.908 36.1875 341.77 36.5547 341.58 36.8359ZM347.389 38V32H349.909C350.62 32 351.181 32.1419 351.592 32.4258C352.006 32.7096 352.213 33.1055 352.213 33.6133C352.213 33.9492 352.096 34.224 351.862 34.4375C351.63 34.6484 351.314 34.7904 350.913 34.8633C351.228 34.8893 351.504 34.9687 351.741 35.1016C351.98 35.2344 352.168 35.4089 352.303 35.625C352.439 35.8411 352.506 36.0898 352.506 36.3711C352.506 36.7018 352.419 36.9896 352.245 37.2344C352.073 37.4766 351.821 37.6654 351.491 37.8008C351.163 37.9336 350.764 38 350.295 38H347.389ZM348.713 36.8867H350.295C350.556 36.8867 350.76 36.8255 350.909 36.7031C351.057 36.5781 351.131 36.4089 351.131 36.1953C351.131 35.9479 351.057 35.7539 350.909 35.6133C350.76 35.4701 350.556 35.3984 350.295 35.3984H348.713V36.8867ZM348.713 34.4844H349.936C350.129 34.4844 350.294 34.457 350.432 34.4023C350.57 34.3451 350.676 34.2656 350.749 34.1641C350.821 34.0599 350.858 33.9362 350.858 33.793C350.858 33.5872 350.773 33.4258 350.604 33.3086C350.437 33.1914 350.206 33.1328 349.909 33.1328H348.713V34.4844ZM355.037 36.0859L357.439 32H358.892V38H357.525V33.9102L355.13 38H353.673V32H355.037V36.0859ZM364.313 32V33.1602H361.727V38H360.344V32H364.313Z" fill="#474649"/>
</g>
<g opacity="0.3">
<rect x="400.5" y="24.5" width="90" height="19" stroke="#737781"/>
<g clip-path="url(#clip0_7607_8749)">
<path d="M450.244 33.0547V34.3555C450.244 35.0547 450.189 35.6445 450.08 36.125C449.975 36.6055 449.822 36.9922 449.623 37.2852C449.424 37.5781 449.184 37.791 448.902 37.9238C448.625 38.0527 448.312 38.1172 447.965 38.1172C447.691 38.1172 447.436 38.0762 447.197 37.9941C446.963 37.9121 446.752 37.7812 446.564 37.6016C446.377 37.418 446.217 37.1797 446.084 36.8867C445.951 36.5938 445.85 36.2383 445.779 35.8203C445.709 35.4023 445.674 34.9141 445.674 34.3555V33.0547C445.674 32.3555 445.729 31.7695 445.838 31.2969C445.947 30.8242 446.102 30.4453 446.301 30.1602C446.504 29.8711 446.744 29.6641 447.021 29.5391C447.303 29.4141 447.615 29.3516 447.959 29.3516C448.236 29.3516 448.492 29.3926 448.727 29.4746C448.965 29.5527 449.176 29.6797 449.359 29.8555C449.547 30.0273 449.707 30.2578 449.84 30.5469C449.973 30.832 450.072 31.1816 450.139 31.5957C450.209 32.0098 450.244 32.4961 450.244 33.0547ZM449.213 34.5312V32.873C449.213 32.4902 449.195 32.1543 449.16 31.8652C449.125 31.5723 449.072 31.3223 449.002 31.1152C448.936 30.9082 448.852 30.7402 448.75 30.6113C448.648 30.4824 448.531 30.3887 448.398 30.3301C448.266 30.2676 448.119 30.2363 447.959 30.2363C447.76 30.2363 447.582 30.2852 447.426 30.3828C447.273 30.4766 447.143 30.627 447.033 30.834C446.928 31.041 446.848 31.3125 446.793 31.6484C446.738 31.9844 446.711 32.3926 446.711 32.873V34.5312C446.711 34.9141 446.729 35.252 446.764 35.5449C446.803 35.8379 446.855 36.0918 446.922 36.3066C446.992 36.5176 447.078 36.6914 447.18 36.8281C447.281 36.9648 447.398 37.0664 447.531 37.1328C447.664 37.1953 447.809 37.2266 447.965 37.2266C448.172 37.2266 448.352 37.1758 448.504 37.0742C448.66 36.9727 448.791 36.8145 448.896 36.5996C449.002 36.3809 449.08 36.1016 449.131 35.7617C449.186 35.418 449.213 35.0078 449.213 34.5312ZM451.773 37.4258C451.773 37.2422 451.83 37.0879 451.943 36.9629C452.061 36.834 452.229 36.7695 452.447 36.7695C452.666 36.7695 452.832 36.834 452.945 36.9629C453.062 37.0879 453.121 37.2422 453.121 37.4258C453.121 37.6055 453.062 37.7578 452.945 37.8828C452.832 38.0078 452.666 38.0703 452.447 38.0703C452.229 38.0703 452.061 38.0078 451.943 37.8828C451.83 37.7578 451.773 37.6055 451.773 37.4258ZM459.338 33.0547V34.3555C459.338 35.0547 459.283 35.6445 459.174 36.125C459.068 36.6055 458.916 36.9922 458.717 37.2852C458.518 37.5781 458.277 37.791 457.996 37.9238C457.719 38.0527 457.406 38.1172 457.059 38.1172C456.785 38.1172 456.529 38.0762 456.291 37.9941C456.057 37.9121 455.846 37.7812 455.658 37.6016C455.471 37.418 455.311 37.1797 455.178 36.8867C455.045 36.5938 454.943 36.2383 454.873 35.8203C454.803 35.4023 454.768 34.9141 454.768 34.3555V33.0547C454.768 32.3555 454.822 31.7695 454.932 31.2969C455.041 30.8242 455.195 30.4453 455.395 30.1602C455.598 29.8711 455.838 29.6641 456.115 29.5391C456.396 29.4141 456.709 29.3516 457.053 29.3516C457.33 29.3516 457.586 29.3926 457.82 29.4746C458.059 29.5527 458.27 29.6797 458.453 29.8555C458.641 30.0273 458.801 30.2578 458.934 30.5469C459.066 30.832 459.166 31.1816 459.232 31.5957C459.303 32.0098 459.338 32.4961 459.338 33.0547ZM458.307 34.5312V32.873C458.307 32.4902 458.289 32.1543 458.254 31.8652C458.219 31.5723 458.166 31.3223 458.096 31.1152C458.029 30.9082 457.945 30.7402 457.844 30.6113C457.742 30.4824 457.625 30.3887 457.492 30.3301C457.359 30.2676 457.213 30.2363 457.053 30.2363C456.854 30.2363 456.676 30.2852 456.52 30.3828C456.367 30.4766 456.236 30.627 456.127 30.834C456.021 31.041 455.941 31.3125 455.887 31.6484C455.832 31.9844 455.805 32.3926 455.805 32.873V34.5312C455.805 34.9141 455.822 35.252 455.857 35.5449C455.896 35.8379 455.949 36.0918 456.016 36.3066C456.086 36.5176 456.172 36.6914 456.273 36.8281C456.375 36.9648 456.492 37.0664 456.625 37.1328C456.758 37.1953 456.902 37.2266 457.059 37.2266C457.266 37.2266 457.445 37.1758 457.598 37.0742C457.754 36.9727 457.885 36.8145 457.99 36.5996C458.096 36.3809 458.174 36.1016 458.225 35.7617C458.279 35.418 458.307 35.0078 458.307 34.5312ZM465.268 33.0547V34.3555C465.268 35.0547 465.213 35.6445 465.104 36.125C464.998 36.6055 464.846 36.9922 464.646 37.2852C464.447 37.5781 464.207 37.791 463.926 37.9238C463.648 38.0527 463.336 38.1172 462.988 38.1172C462.715 38.1172 462.459 38.0762 462.221 37.9941C461.986 37.9121 461.775 37.7812 461.588 37.6016C461.4 37.418 461.24 37.1797 461.107 36.8867C460.975 36.5938 460.873 36.2383 460.803 35.8203C460.732 35.4023 460.697 34.9141 460.697 34.3555V33.0547C460.697 32.3555 460.752 31.7695 460.861 31.2969C460.971 30.8242 461.125 30.4453 461.324 30.1602C461.527 29.8711 461.768 29.6641 462.045 29.5391C462.326 29.4141 462.639 29.3516 462.982 29.3516C463.26 29.3516 463.516 29.3926 463.75 29.4746C463.988 29.5527 464.199 29.6797 464.383 29.8555C464.57 30.0273 464.73 30.2578 464.863 30.5469C464.996 30.832 465.096 31.1816 465.162 31.5957C465.232 32.0098 465.268 32.4961 465.268 33.0547ZM464.236 34.5312V32.873C464.236 32.4902 464.219 32.1543 464.184 31.8652C464.148 31.5723 464.096 31.3223 464.025 31.1152C463.959 30.9082 463.875 30.7402 463.773 30.6113C463.672 30.4824 463.555 30.3887 463.422 30.3301C463.289 30.2676 463.143 30.2363 462.982 30.2363C462.783 30.2363 462.605 30.2852 462.449 30.3828C462.297 30.4766 462.166 30.627 462.057 30.834C461.951 31.041 461.871 31.3125 461.816 31.6484C461.762 31.9844 461.734 32.3926 461.734 32.873V34.5312C461.734 34.9141 461.752 35.252 461.787 35.5449C461.826 35.8379 461.879 36.0918 461.945 36.3066C462.016 36.5176 462.102 36.6914 462.203 36.8281C462.305 36.9648 462.422 37.0664 462.555 37.1328C462.688 37.1953 462.832 37.2266 462.988 37.2266C463.195 37.2266 463.375 37.1758 463.527 37.0742C463.684 36.9727 463.814 36.8145 463.92 36.5996C464.025 36.3809 464.104 36.1016 464.154 35.7617C464.209 35.418 464.236 35.0078 464.236 34.5312Z" fill="#1A1C20"/>
</g>
<path d="M480 38.125L482.125 36L483.062 36.9375L480 40L476.938 36.9375L477.875 36L480 38.125ZM480 29.875L477.875 32L476.938 31.0625L480 28L483.062 31.0625L482.125 32L480 29.875Z" fill="#1A1C20"/>
<path d="M503.891 36.5586L505.584 31.6602H506.568L504.248 38H503.533L501.219 31.6602H502.203L503.891 36.5586ZM501.904 31.6602V38H500.873V31.6602H501.904ZM505.842 38V31.6602H506.879V38H505.842ZM509.662 36.2832L511.959 31.6602H512.996V38H511.959V33.377L509.662 38H508.631V31.6602H509.662V36.2832ZM518.264 34.4082V35.2871H515.574V34.4082H518.264ZM515.785 31.6602V38H514.748V31.6602H515.785ZM519.107 31.6602V38H518.07V31.6602H519.107Z" fill="#1B1716"/>
</g>
<defs>
<clipPath id="clip0_7607_8749">
<rect width="21" height="12" fill="white" transform="translate(445 28)"/>
</clipPath>
</defs>
</svg>
