<svg width="146" height="176" viewBox="0 0 146 176" fill="none" xmlns="http://www.w3.org/2000/svg">
<g opacity="0.3">
<path d="M8.21875 39.7812C9.28125 40.8229 10.5417 41.3438 12 41.3438C13.4583 41.3438 14.7083 40.8229 15.75 39.7812C16.8125 38.7188 17.3438 37.4583 17.3438 36C17.3438 34.5417 16.8125 33.2917 15.75 32.25C14.7083 31.1875 13.4583 30.6562 12 30.6562C10.5417 30.6562 9.28125 31.1875 8.21875 32.25C7.17708 33.2917 6.65625 34.5417 6.65625 36C6.65625 37.4583 7.17708 38.7188 8.21875 39.7812ZM7.28125 31.3125C8.59375 30 10.1667 29.3438 12 29.3438C13.8333 29.3438 15.3958 30 16.6875 31.3125C18 32.6042 18.6562 34.1667 18.6562 36C18.6562 37.8333 18 39.4062 16.6875 40.7188C15.3958 42.0104 13.8333 42.6562 12 42.6562C10.1667 42.6562 8.59375 42.0104 7.28125 40.7188C5.98958 39.4062 5.34375 37.8333 5.34375 36C5.34375 34.1667 5.98958 32.6042 7.28125 31.3125ZM9.625 33.6562C10.2917 32.9896 11.0833 32.6562 12 32.6562C12.9167 32.6562 13.6979 32.9896 14.3438 33.6562C15.0104 34.3021 15.3438 35.0833 15.3438 36C15.3438 36.9167 15.0104 37.7083 14.3438 38.375C13.6979 39.0208 12.9167 39.3438 12 39.3438C11.0833 39.3438 10.2917 39.0208 9.625 38.375C8.97917 37.7083 8.65625 36.9167 8.65625 36C8.65625 35.0833 8.97917 34.3021 9.625 33.6562Z" fill="#2850A8"/>
<path d="M33.5488 35.1367V36.0566H29.8516V35.1367H33.5488ZM29.998 31.4688V40H28.9199V31.4688H29.998ZM34.5039 31.4688V40H33.4258V31.4688H34.5039ZM38.4883 40.1172C38.1094 40.1172 37.7676 40.0605 37.4629 39.9473C37.1582 39.834 36.8984 39.6621 36.6836 39.4316C36.4688 39.1973 36.3047 38.9023 36.1914 38.5469C36.0781 38.1914 36.0215 37.7715 36.0215 37.2871V36.5723C36.0215 36.0137 36.0859 35.541 36.2148 35.1543C36.3477 34.7676 36.5254 34.457 36.748 34.2227C36.9707 33.9844 37.2227 33.8125 37.5039 33.707C37.7852 33.5977 38.0742 33.543 38.3711 33.543C38.7695 33.543 39.1094 33.6074 39.3906 33.7363C39.6719 33.8652 39.9004 34.0566 40.0762 34.3105C40.252 34.5645 40.3809 34.877 40.4629 35.248C40.5488 35.6191 40.5918 36.0469 40.5918 36.5312V37.1348H36.6309V36.25H39.5547V36.1035C39.5391 35.7754 39.4941 35.4863 39.4199 35.2363C39.3496 34.9863 39.2324 34.791 39.0684 34.6504C38.9043 34.5059 38.6719 34.4336 38.3711 34.4336C38.1797 34.4336 38.002 34.4668 37.8379 34.5332C37.6777 34.5957 37.5391 34.707 37.4219 34.8672C37.3086 35.0234 37.2188 35.2402 37.1523 35.5176C37.0898 35.7949 37.0586 36.1465 37.0586 36.5723V37.2871C37.0586 37.627 37.0898 37.9199 37.1523 38.166C37.2188 38.4082 37.3145 38.6094 37.4395 38.7695C37.5684 38.9258 37.7246 39.043 37.9082 39.1211C38.0957 39.1953 38.3086 39.2324 38.5469 39.2324C38.8945 39.2324 39.1816 39.166 39.4082 39.0332C39.6348 38.8965 39.832 38.7227 40 38.5117L40.5449 39.1621C40.4316 39.3223 40.2832 39.4766 40.0996 39.625C39.9199 39.7695 39.6973 39.8887 39.4316 39.9824C39.1699 40.0723 38.8555 40.1172 38.4883 40.1172ZM46.0703 39.3438L47.4824 33.6602H48.584L46.4922 40.9785C46.4414 41.1348 46.373 41.3027 46.2871 41.4824C46.2051 41.666 46.0996 41.8398 45.9707 42.0039C45.8418 42.168 45.6875 42.3008 45.5078 42.4023C45.3281 42.5078 45.1172 42.5605 44.875 42.5605C44.8008 42.5605 44.7051 42.5488 44.5879 42.5254C44.4746 42.502 44.3926 42.4824 44.3418 42.4668V41.5879C44.3652 41.5918 44.4023 41.5957 44.4531 41.5996C44.5039 41.6074 44.541 41.6113 44.5645 41.6113C44.7676 41.6113 44.9395 41.5781 45.0801 41.5117C45.2246 41.4492 45.3477 41.3418 45.4492 41.1895C45.5508 41.041 45.6367 40.8359 45.707 40.5742L46.0703 39.3438ZM45.1562 33.6602L46.416 38.582L46.6855 39.7246L45.9473 40.123L44.0254 33.6602H45.1562ZM53.1309 33.6602V34.5566H50.5996V33.6602H53.1309ZM50.7344 33.6602V40H49.6973V33.6602H50.7344ZM54.0625 33.6602V40H53.0254V33.6602H54.0625ZM56.7578 34.8789V42.4375H55.7207V33.6602H56.6641L56.7578 34.8789ZM60.3027 36.543V37.1348C60.3027 37.6348 60.2559 38.0723 60.1621 38.4473C60.0723 38.8184 59.9375 39.1289 59.7578 39.3789C59.582 39.625 59.3652 39.8105 59.1074 39.9355C58.8496 40.0566 58.5547 40.1172 58.2227 40.1172C57.8906 40.1172 57.6016 40.0547 57.3555 39.9297C57.1133 39.8008 56.9082 39.6152 56.7402 39.373C56.5762 39.1309 56.4453 38.8398 56.3477 38.5C56.2539 38.1562 56.1895 37.7715 56.1543 37.3457V36.4434C56.1895 35.9941 56.2539 35.5918 56.3477 35.2363C56.4414 34.877 56.5703 34.5723 56.7344 34.3223C56.9023 34.0684 57.1074 33.875 57.3496 33.7422C57.5957 33.6094 57.8828 33.543 58.2109 33.543C58.5508 33.543 58.8496 33.6016 59.1074 33.7188C59.3691 33.8359 59.5879 34.0176 59.7637 34.2637C59.9434 34.5059 60.0781 34.8164 60.168 35.1953C60.2578 35.5703 60.3027 36.0195 60.3027 36.543ZM59.2656 37.1348V36.543C59.2656 36.1914 59.2383 35.8848 59.1836 35.623C59.1328 35.3613 59.0508 35.1445 58.9375 34.9727C58.8242 34.8008 58.6816 34.6719 58.5098 34.5859C58.3379 34.5 58.1309 34.457 57.8887 34.457C57.6816 34.457 57.498 34.5 57.3379 34.5859C57.1816 34.6719 57.0469 34.7891 56.9336 34.9375C56.8203 35.082 56.7266 35.248 56.6523 35.4355C56.5781 35.6191 56.5234 35.8105 56.4883 36.0098V37.7852C56.5547 38.0352 56.6426 38.2715 56.752 38.4941C56.8613 38.7129 57.0078 38.8906 57.1914 39.0273C57.3789 39.1641 57.6152 39.2324 57.9004 39.2324C58.1387 39.2324 58.3438 39.1895 58.5156 39.1035C58.6875 39.0176 58.8281 38.8887 58.9375 38.7168C59.0508 38.541 59.1328 38.3223 59.1836 38.0605C59.2383 37.7949 59.2656 37.4863 59.2656 37.1348ZM64.7441 38.916V35.4766C64.7441 35.2266 64.7051 35.0254 64.627 34.873C64.5527 34.7207 64.4395 34.6094 64.2871 34.5391C64.1387 34.4688 63.9512 34.4336 63.7246 34.4336C63.5059 34.4336 63.3164 34.4785 63.1562 34.5684C63 34.6582 62.8789 34.7773 62.793 34.9258C62.7109 35.0742 62.6699 35.2383 62.6699 35.418H61.6328C61.6328 35.1914 61.6816 34.9668 61.7793 34.7441C61.8809 34.5215 62.0254 34.3203 62.2129 34.1406C62.4004 33.957 62.625 33.8125 62.8867 33.707C63.1523 33.5977 63.4492 33.543 63.7773 33.543C64.168 33.543 64.5137 33.6074 64.8145 33.7363C65.1152 33.8613 65.3516 34.0664 65.5234 34.3516C65.6953 34.6367 65.7812 35.0156 65.7812 35.4883V38.6172C65.7812 38.8281 65.7969 39.0527 65.8281 39.291C65.8633 39.5293 65.9121 39.7344 65.9746 39.9062V40H64.9023C64.8516 39.875 64.8125 39.709 64.7852 39.502C64.7578 39.291 64.7441 39.0957 64.7441 38.916ZM64.9082 36.1562L64.9199 36.918H64.1992C63.9531 36.918 63.7285 36.9453 63.5254 37C63.3262 37.0547 63.1543 37.1348 63.0098 37.2402C62.8652 37.3418 62.7539 37.4688 62.6758 37.6211C62.6016 37.7734 62.5645 37.9473 62.5645 38.1426C62.5645 38.3965 62.5996 38.5996 62.6699 38.752C62.7402 38.9004 62.8457 39.0078 62.9863 39.0742C63.127 39.1406 63.3047 39.1738 63.5195 39.1738C63.7812 39.1738 64.0117 39.1133 64.2109 38.9922C64.4102 38.8711 64.5645 38.7246 64.6738 38.5527C64.7871 38.3809 64.8398 38.2207 64.832 38.0723L65.0605 38.5586C65.0449 38.7109 64.9941 38.877 64.9082 39.0566C64.8262 39.2324 64.7109 39.4023 64.5625 39.5664C64.4141 39.7266 64.2383 39.8594 64.0352 39.9648C63.8359 40.0664 63.6113 40.1172 63.3613 40.1172C62.9941 40.1172 62.6719 40.0469 62.3945 39.9062C62.1211 39.7656 61.9082 39.5586 61.7559 39.2852C61.6035 39.0117 61.5273 38.6738 61.5273 38.2715C61.5273 37.9668 61.5801 37.6855 61.6855 37.4277C61.791 37.1699 61.9473 36.9473 62.1543 36.7598C62.3613 36.5684 62.6211 36.4199 62.9336 36.3145C63.25 36.209 63.6152 36.1562 64.0293 36.1562H64.9082ZM69.9473 37.2109H68.2539L68.2422 36.3438H69.6016C69.8711 36.3438 70.0938 36.3105 70.2695 36.2441C70.4492 36.1777 70.584 36.0781 70.6738 35.9453C70.7637 35.8125 70.8086 35.6484 70.8086 35.4531C70.8086 35.3008 70.7832 35.168 70.7324 35.0547C70.6816 34.9375 70.6055 34.8418 70.5039 34.7676C70.4062 34.6895 70.2832 34.6328 70.1348 34.5977C69.9863 34.5586 69.8125 34.5391 69.6133 34.5391H68.5176V40H67.4863V33.6602H69.6133C69.957 33.6602 70.2656 33.6953 70.5391 33.7656C70.8164 33.8359 71.0508 33.9434 71.2422 34.0879C71.4375 34.2285 71.5859 34.4082 71.6875 34.627C71.793 34.8457 71.8457 35.1035 71.8457 35.4004C71.8457 35.5918 71.8125 35.7734 71.7461 35.9453C71.6797 36.1172 71.5801 36.2695 71.4473 36.4023C71.3184 36.5352 71.1582 36.6445 70.9668 36.7305C70.7754 36.8125 70.5547 36.8652 70.3047 36.8887L69.9473 37.2109ZM69.9473 40H67.8672L68.4004 39.1211H69.9473C70.1855 39.1211 70.3809 39.084 70.5332 39.0098C70.6855 38.9316 70.7988 38.8223 70.873 38.6816C70.9512 38.5371 70.9902 38.3652 70.9902 38.166C70.9902 37.9668 70.9512 37.7969 70.873 37.6562C70.7988 37.5117 70.6855 37.4023 70.5332 37.3281C70.3809 37.25 70.1855 37.2109 69.9473 37.2109H68.5586L68.5703 36.3438H70.2871L70.6504 36.6719C70.9512 36.6992 71.2031 36.7852 71.4062 36.9297C71.6133 37.0742 71.7676 37.2578 71.8691 37.4805C71.9746 37.6992 72.0273 37.9375 72.0273 38.1953C72.0273 38.4922 71.9805 38.7539 71.8867 38.9805C71.793 39.207 71.6562 39.3965 71.4766 39.5488C71.2969 39.6973 71.0781 39.8105 70.8203 39.8887C70.5625 39.9629 70.2715 40 69.9473 40ZM76.9785 33.6602V34.5566H74.4531V33.6602H76.9785ZM77.9043 33.6602V40H76.873V33.6602H77.9043ZM74.207 33.6602H75.2441L75.0977 36.7188C75.0742 37.1914 75.0352 37.6094 74.9805 37.9727C74.9297 38.332 74.8574 38.6406 74.7637 38.8984C74.6738 39.1562 74.5605 39.3672 74.4238 39.5312C74.291 39.6914 74.1309 39.8105 73.9434 39.8887C73.7598 39.9629 73.5469 40 73.3047 40H72.9941V39.0449L73.1992 39.0273C73.3359 39.0156 73.4531 38.9766 73.5508 38.9102C73.6523 38.8438 73.7344 38.7461 73.7969 38.6172C73.8633 38.4844 73.916 38.3145 73.9551 38.1074C73.998 37.9004 74.0312 37.6543 74.0547 37.3691C74.0781 37.084 74.0957 36.752 74.1074 36.373L74.207 33.6602ZM80.6172 36.9766H81.7305L80.166 40H79.0527L80.6172 36.9766ZM81.4316 33.6602H83.7051V40H82.6738V34.5391H81.4316C81.1934 34.5391 80.998 34.5918 80.8457 34.6973C80.6934 34.7988 80.582 34.9316 80.5117 35.0957C80.4414 35.2598 80.4062 35.4297 80.4062 35.6055C80.4062 35.7773 80.4375 35.9434 80.5 36.1035C80.5664 36.2598 80.668 36.3887 80.8047 36.4902C80.9453 36.5918 81.125 36.6426 81.3438 36.6426H82.9316V37.5332H81.3438C81.0312 37.5332 80.752 37.4844 80.5059 37.3867C80.2637 37.2891 80.0566 37.1543 79.8848 36.9824C79.7168 36.8066 79.5879 36.6016 79.498 36.3672C79.4121 36.1289 79.3691 35.8711 79.3691 35.5938C79.3691 35.3164 79.4141 35.0605 79.5039 34.8262C79.5977 34.5918 79.7324 34.3867 79.9082 34.2109C80.0879 34.0352 80.3047 33.9004 80.5586 33.8066C80.8125 33.709 81.1035 33.6602 81.4316 33.6602ZM87.625 40.1172C87.2461 40.1172 86.9043 40.0605 86.5996 39.9473C86.2949 39.834 86.0352 39.6621 85.8203 39.4316C85.6055 39.1973 85.4414 38.9023 85.3281 38.5469C85.2148 38.1914 85.1582 37.7715 85.1582 37.2871V36.5723C85.1582 36.0137 85.2227 35.541 85.3516 35.1543C85.4844 34.7676 85.6621 34.457 85.8848 34.2227C86.1074 33.9844 86.3594 33.8125 86.6406 33.707C86.9219 33.5977 87.2109 33.543 87.5078 33.543C87.9062 33.543 88.2461 33.6074 88.5273 33.7363C88.8086 33.8652 89.0371 34.0566 89.2129 34.3105C89.3887 34.5645 89.5176 34.877 89.5996 35.248C89.6855 35.6191 89.7285 36.0469 89.7285 36.5312V37.1348H85.7676V36.25H88.6914V36.1035C88.6758 35.7754 88.6309 35.4863 88.5566 35.2363C88.4863 34.9863 88.3691 34.791 88.2051 34.6504C88.041 34.5059 87.8086 34.4336 87.5078 34.4336C87.3164 34.4336 87.1387 34.4668 86.9746 34.5332C86.8145 34.5957 86.6758 34.707 86.5586 34.8672C86.4453 35.0234 86.3555 35.2402 86.2891 35.5176C86.2266 35.7949 86.1953 36.1465 86.1953 36.5723V37.2871C86.1953 37.627 86.2266 37.9199 86.2891 38.166C86.3555 38.4082 86.4512 38.6094 86.5762 38.7695C86.7051 38.9258 86.8613 39.043 87.0449 39.1211C87.2324 39.1953 87.4453 39.2324 87.6836 39.2324C88.0312 39.2324 88.3184 39.166 88.5449 39.0332C88.7715 38.8965 88.9688 38.7227 89.1367 38.5117L89.6816 39.1621C89.5684 39.3223 89.4199 39.4766 89.2363 39.625C89.0566 39.7695 88.834 39.8887 88.5684 39.9824C88.3066 40.0723 87.9922 40.1172 87.625 40.1172ZM93.1914 33.6602V40H92.1543V33.6602H93.1914ZM94.9199 33.6602V34.5391H90.4492V33.6602H94.9199ZM97.75 39.2324C97.957 39.2324 98.1445 39.1914 98.3125 39.1094C98.4844 39.0234 98.625 38.8906 98.7344 38.7109C98.8438 38.5273 98.9062 38.2891 98.9219 37.9961H99.8945C99.8789 38.418 99.7715 38.7891 99.5723 39.1094C99.377 39.4258 99.1191 39.6738 98.7988 39.8535C98.4824 40.0293 98.1328 40.1172 97.75 40.1172C97.3398 40.1172 96.9824 40.0508 96.6777 39.918C96.377 39.7852 96.127 39.5938 95.9277 39.3438C95.7324 39.0898 95.5859 38.7832 95.4883 38.4238C95.3906 38.0605 95.3418 37.6484 95.3418 37.1875V36.4727C95.3418 36.0117 95.3906 35.6016 95.4883 35.2422C95.5859 34.8789 95.7324 34.5723 95.9277 34.3223C96.127 34.0684 96.377 33.875 96.6777 33.7422C96.9824 33.6094 97.3398 33.543 97.75 33.543C98.1797 33.543 98.5508 33.6348 98.8633 33.8184C99.1797 33.998 99.4258 34.2598 99.6016 34.6035C99.7812 34.9434 99.8789 35.3555 99.8945 35.8398H98.9219C98.9062 35.5273 98.8496 35.2676 98.752 35.0605C98.6543 34.8496 98.5215 34.6934 98.3535 34.5918C98.1855 34.4863 97.9844 34.4336 97.75 34.4336C97.4766 34.4336 97.25 34.4824 97.0703 34.5801C96.8945 34.6738 96.7559 34.8105 96.6543 34.9902C96.5527 35.1699 96.4805 35.3848 96.4375 35.6348C96.3984 35.8848 96.3789 36.1641 96.3789 36.4727V37.1875C96.3789 37.4961 96.3984 37.7773 96.4375 38.0312C96.4805 38.2812 96.5508 38.4961 96.6484 38.6758C96.75 38.8555 96.8906 38.9941 97.0703 39.0918C97.25 39.1855 97.4766 39.2324 97.75 39.2324ZM102.145 36.9766H103.258L101.693 40H100.58L102.145 36.9766ZM102.959 33.6602H105.232V40H104.201V34.5391H102.959C102.721 34.5391 102.525 34.5918 102.373 34.6973C102.221 34.7988 102.109 34.9316 102.039 35.0957C101.969 35.2598 101.934 35.4297 101.934 35.6055C101.934 35.7773 101.965 35.9434 102.027 36.1035C102.094 36.2598 102.195 36.3887 102.332 36.4902C102.473 36.5918 102.652 36.6426 102.871 36.6426H104.459V37.5332H102.871C102.559 37.5332 102.279 37.4844 102.033 37.3867C101.791 37.2891 101.584 37.1543 101.412 36.9824C101.244 36.8066 101.115 36.6016 101.025 36.3672C100.939 36.1289 100.896 35.8711 100.896 35.5938C100.896 35.3164 100.941 35.0605 101.031 34.8262C101.125 34.5918 101.26 34.3867 101.436 34.2109C101.615 34.0352 101.832 33.9004 102.086 33.8066C102.34 33.709 102.631 33.6602 102.959 33.6602Z" fill="#1B1716"/>
</g>
<path opacity="0.3" d="M10.4629 1.46875V10H9.38477V2.39453H6.05078V10H4.97266V1.46875H10.4629ZM13.2695 4.87891V12.4375H12.2324V3.66016H13.1758L13.2695 4.87891ZM16.8145 6.54297V7.13477C16.8145 7.63477 16.7676 8.07227 16.6738 8.44727C16.584 8.81836 16.4492 9.12891 16.2695 9.37891C16.0938 9.625 15.877 9.81055 15.6191 9.93555C15.3613 10.0566 15.0664 10.1172 14.7344 10.1172C14.4023 10.1172 14.1133 10.0547 13.8672 9.92969C13.625 9.80078 13.4199 9.61523 13.252 9.37305C13.0879 9.13086 12.957 8.83984 12.8594 8.5C12.7656 8.15625 12.7012 7.77148 12.666 7.3457V6.44336C12.7012 5.99414 12.7656 5.5918 12.8594 5.23633C12.9531 4.87695 13.082 4.57227 13.2461 4.32227C13.4141 4.06836 13.6191 3.875 13.8613 3.74219C14.1074 3.60937 14.3945 3.54297 14.7227 3.54297C15.0625 3.54297 15.3613 3.60156 15.6191 3.71875C15.8809 3.83594 16.0996 4.01758 16.2754 4.26367C16.4551 4.50586 16.5898 4.81641 16.6797 5.19531C16.7695 5.57031 16.8145 6.01953 16.8145 6.54297ZM15.7773 7.13477V6.54297C15.7773 6.19141 15.75 5.88477 15.6953 5.62305C15.6445 5.36133 15.5625 5.14453 15.4492 4.97266C15.3359 4.80078 15.1934 4.67188 15.0215 4.58594C14.8496 4.5 14.6426 4.45703 14.4004 4.45703C14.1934 4.45703 14.0098 4.5 13.8496 4.58594C13.6934 4.67188 13.5586 4.78906 13.4453 4.9375C13.332 5.08203 13.2383 5.24805 13.1641 5.43555C13.0898 5.61914 13.0352 5.81055 13 6.00977V7.78516C13.0664 8.03516 13.1543 8.27148 13.2637 8.49414C13.373 8.71289 13.5195 8.89062 13.7031 9.02734C13.8906 9.16406 14.127 9.23242 14.4121 9.23242C14.6504 9.23242 14.8555 9.18945 15.0273 9.10352C15.1992 9.01758 15.3398 8.88867 15.4492 8.7168C15.5625 8.54102 15.6445 8.32227 15.6953 8.06055C15.75 7.79492 15.7773 7.48633 15.7773 7.13477ZM21.2559 8.91602V5.47656C21.2559 5.22656 21.2168 5.02539 21.1387 4.87305C21.0645 4.7207 20.9512 4.60938 20.7988 4.53906C20.6504 4.46875 20.4629 4.43359 20.2363 4.43359C20.0176 4.43359 19.8281 4.47852 19.668 4.56836C19.5117 4.6582 19.3906 4.77734 19.3047 4.92578C19.2227 5.07422 19.1816 5.23828 19.1816 5.41797H18.1445C18.1445 5.19141 18.1934 4.9668 18.291 4.74414C18.3926 4.52148 18.5371 4.32031 18.7246 4.14062C18.9121 3.95703 19.1367 3.8125 19.3984 3.70703C19.6641 3.59766 19.9609 3.54297 20.2891 3.54297C20.6797 3.54297 21.0254 3.60742 21.3262 3.73633C21.627 3.86133 21.8633 4.06641 22.0352 4.35156C22.207 4.63672 22.293 5.01562 22.293 5.48828V8.61719C22.293 8.82812 22.3086 9.05273 22.3398 9.29102C22.375 9.5293 22.4238 9.73438 22.4863 9.90625V10H21.4141C21.3633 9.875 21.3242 9.70898 21.2969 9.50195C21.2695 9.29102 21.2559 9.0957 21.2559 8.91602ZM21.4199 6.15625L21.4316 6.91797H20.7109C20.4648 6.91797 20.2402 6.94531 20.0371 7C19.8379 7.05469 19.666 7.13477 19.5215 7.24023C19.377 7.3418 19.2656 7.46875 19.1875 7.62109C19.1133 7.77344 19.0762 7.94727 19.0762 8.14258C19.0762 8.39648 19.1113 8.59961 19.1816 8.75195C19.252 8.90039 19.3574 9.00781 19.498 9.07422C19.6387 9.14062 19.8164 9.17383 20.0312 9.17383C20.293 9.17383 20.5234 9.11328 20.7227 8.99219C20.9219 8.87109 21.0762 8.72461 21.1855 8.55273C21.2988 8.38086 21.3516 8.2207 21.3438 8.07227L21.5723 8.55859C21.5566 8.71094 21.5059 8.87695 21.4199 9.05664C21.3379 9.23242 21.2227 9.40234 21.0742 9.56641C20.9258 9.72656 20.75 9.85938 20.5469 9.96484C20.3477 10.0664 20.123 10.1172 19.873 10.1172C19.5059 10.1172 19.1836 10.0469 18.9062 9.90625C18.6328 9.76562 18.4199 9.55859 18.2676 9.28516C18.1152 9.01172 18.0391 8.67383 18.0391 8.27148C18.0391 7.9668 18.0918 7.68555 18.1973 7.42773C18.3027 7.16992 18.459 6.94727 18.666 6.75977C18.873 6.56836 19.1328 6.41992 19.4453 6.31445C19.7617 6.20898 20.127 6.15625 20.541 6.15625H21.4199ZM26.459 7.21094H24.7656L24.7539 6.34375H26.1133C26.3828 6.34375 26.6055 6.31055 26.7812 6.24414C26.9609 6.17773 27.0957 6.07812 27.1855 5.94531C27.2754 5.8125 27.3203 5.64844 27.3203 5.45312C27.3203 5.30078 27.2949 5.16797 27.2441 5.05469C27.1934 4.9375 27.1172 4.8418 27.0156 4.76758C26.918 4.68945 26.7949 4.63281 26.6465 4.59766C26.498 4.55859 26.3242 4.53906 26.125 4.53906H25.0293V10H23.998V3.66016H26.125C26.4688 3.66016 26.7773 3.69531 27.0508 3.76562C27.3281 3.83594 27.5625 3.94336 27.7539 4.08789C27.9492 4.22852 28.0977 4.4082 28.1992 4.62695C28.3047 4.8457 28.3574 5.10352 28.3574 5.40039C28.3574 5.5918 28.3242 5.77344 28.2578 5.94531C28.1914 6.11719 28.0918 6.26953 27.959 6.40234C27.8301 6.53516 27.6699 6.64453 27.4785 6.73047C27.2871 6.8125 27.0664 6.86523 26.8164 6.88867L26.459 7.21094ZM26.459 10H24.3789L24.9121 9.12109H26.459C26.6973 9.12109 26.8926 9.08398 27.0449 9.00977C27.1973 8.93164 27.3105 8.82227 27.3848 8.68164C27.4629 8.53711 27.502 8.36523 27.502 8.16602C27.502 7.9668 27.4629 7.79688 27.3848 7.65625C27.3105 7.51172 27.1973 7.40234 27.0449 7.32812C26.8926 7.25 26.6973 7.21094 26.459 7.21094H25.0703L25.082 6.34375H26.7988L27.1621 6.67188C27.4629 6.69922 27.7148 6.78516 27.918 6.92969C28.125 7.07422 28.2793 7.25781 28.3809 7.48047C28.4863 7.69922 28.5391 7.9375 28.5391 8.19531C28.5391 8.49219 28.4922 8.75391 28.3984 8.98047C28.3047 9.20703 28.168 9.39648 27.9883 9.54883C27.8086 9.69727 27.5898 9.81055 27.332 9.88867C27.0742 9.96289 26.7832 10 26.459 10ZM33.0566 8.91602V5.47656C33.0566 5.22656 33.0176 5.02539 32.9395 4.87305C32.8652 4.7207 32.752 4.60938 32.5996 4.53906C32.4512 4.46875 32.2637 4.43359 32.0371 4.43359C31.8184 4.43359 31.6289 4.47852 31.4688 4.56836C31.3125 4.6582 31.1914 4.77734 31.1055 4.92578C31.0234 5.07422 30.9824 5.23828 30.9824 5.41797H29.9453C29.9453 5.19141 29.9941 4.9668 30.0918 4.74414C30.1934 4.52148 30.3379 4.32031 30.5254 4.14062C30.7129 3.95703 30.9375 3.8125 31.1992 3.70703C31.4648 3.59766 31.7617 3.54297 32.0898 3.54297C32.4805 3.54297 32.8262 3.60742 33.127 3.73633C33.4277 3.86133 33.6641 4.06641 33.8359 4.35156C34.0078 4.63672 34.0938 5.01562 34.0938 5.48828V8.61719C34.0938 8.82812 34.1094 9.05273 34.1406 9.29102C34.1758 9.5293 34.2246 9.73438 34.2871 9.90625V10H33.2148C33.1641 9.875 33.125 9.70898 33.0977 9.50195C33.0703 9.29102 33.0566 9.0957 33.0566 8.91602ZM33.2207 6.15625L33.2324 6.91797H32.5117C32.2656 6.91797 32.041 6.94531 31.8379 7C31.6387 7.05469 31.4668 7.13477 31.3223 7.24023C31.1777 7.3418 31.0664 7.46875 30.9883 7.62109C30.9141 7.77344 30.877 7.94727 30.877 8.14258C30.877 8.39648 30.9121 8.59961 30.9824 8.75195C31.0527 8.90039 31.1582 9.00781 31.2988 9.07422C31.4395 9.14062 31.6172 9.17383 31.832 9.17383C32.0938 9.17383 32.3242 9.11328 32.5234 8.99219C32.7227 8.87109 32.877 8.72461 32.9863 8.55273C33.0996 8.38086 33.1523 8.2207 33.1445 8.07227L33.373 8.55859C33.3574 8.71094 33.3066 8.87695 33.2207 9.05664C33.1387 9.23242 33.0234 9.40234 32.875 9.56641C32.7266 9.72656 32.5508 9.85938 32.3477 9.96484C32.1484 10.0664 31.9238 10.1172 31.6738 10.1172C31.3066 10.1172 30.9844 10.0469 30.707 9.90625C30.4336 9.76562 30.2207 9.55859 30.0684 9.28516C29.916 9.01172 29.8398 8.67383 29.8398 8.27148C29.8398 7.9668 29.8926 7.68555 29.998 7.42773C30.1035 7.16992 30.2598 6.94727 30.4668 6.75977C30.6738 6.56836 30.9336 6.41992 31.2461 6.31445C31.5625 6.20898 31.9277 6.15625 32.3418 6.15625H33.2207ZM36.7539 6.97656H37.8672L36.3027 10H35.1895L36.7539 6.97656ZM37.5684 3.66016H39.8418V10H38.8105V4.53906H37.5684C37.3301 4.53906 37.1348 4.5918 36.9824 4.69727C36.8301 4.79883 36.7188 4.93164 36.6484 5.0957C36.5781 5.25977 36.543 5.42969 36.543 5.60547C36.543 5.77734 36.5742 5.94336 36.6367 6.10352C36.7031 6.25977 36.8047 6.38867 36.9414 6.49023C37.082 6.5918 37.2617 6.64258 37.4805 6.64258H39.0684V7.5332H37.4805C37.168 7.5332 36.8887 7.48438 36.6426 7.38672C36.4004 7.28906 36.1934 7.1543 36.0215 6.98242C35.8535 6.80664 35.7246 6.60156 35.6348 6.36719C35.5488 6.12891 35.5059 5.87109 35.5059 5.59375C35.5059 5.31641 35.5508 5.06055 35.6406 4.82617C35.7344 4.5918 35.8691 4.38672 36.0449 4.21094C36.2246 4.03516 36.4414 3.90039 36.6953 3.80664C36.9492 3.70898 37.2402 3.66016 37.5684 3.66016Z" fill="#1B1716"/>
<g opacity="0.3">
<path d="M8.21875 103.781C9.28125 104.823 10.5417 105.344 12 105.344C13.4583 105.344 14.7083 104.823 15.75 103.781C16.8125 102.719 17.3438 101.458 17.3438 100C17.3438 98.5417 16.8125 97.2917 15.75 96.25C14.7083 95.1875 13.4583 94.6562 12 94.6562C10.5417 94.6562 9.28125 95.1875 8.21875 96.25C7.17708 97.2917 6.65625 98.5417 6.65625 100C6.65625 101.458 7.17708 102.719 8.21875 103.781ZM7.28125 95.3125C8.59375 94 10.1667 93.3438 12 93.3438C13.8333 93.3438 15.3958 94 16.6875 95.3125C18 96.6042 18.6562 98.1667 18.6562 100C18.6562 101.833 18 103.406 16.6875 104.719C15.3958 106.01 13.8333 106.656 12 106.656C10.1667 106.656 8.59375 106.01 7.28125 104.719C5.98958 103.406 5.34375 101.833 5.34375 100C5.34375 98.1667 5.98958 96.6042 7.28125 95.3125ZM9.625 97.6562C10.2917 96.9896 11.0833 96.6562 12 96.6562C12.9167 96.6562 13.6979 96.9896 14.3438 97.6562C15.0104 98.3021 15.3438 99.0833 15.3438 100C15.3438 100.917 15.0104 101.708 14.3438 102.375C13.6979 103.021 12.9167 103.344 12 103.344C11.0833 103.344 10.2917 103.021 9.625 102.375C8.97917 101.708 8.65625 100.917 8.65625 100C8.65625 99.0833 8.97917 98.3021 9.625 97.6562Z" fill="#2850A8"/>
<path d="M30.0508 95.4688V104H28.9727V95.4688H30.0508ZM34.4395 95.4688L31.3574 100.162H29.623L29.4414 99.2246H30.707L33.1035 95.4688H34.4395ZM33.3262 104L30.7598 100.016L31.3633 99.0254L34.6387 104H33.3262ZM38.6113 102.916V99.4766C38.6113 99.2266 38.5723 99.0254 38.4941 98.873C38.4199 98.7207 38.3066 98.6094 38.1543 98.5391C38.0059 98.4688 37.8184 98.4336 37.5918 98.4336C37.373 98.4336 37.1836 98.4785 37.0234 98.5684C36.8672 98.6582 36.7461 98.7773 36.6602 98.9258C36.5781 99.0742 36.5371 99.2383 36.5371 99.418H35.5C35.5 99.1914 35.5488 98.9668 35.6465 98.7441C35.748 98.5215 35.8926 98.3203 36.0801 98.1406C36.2676 97.957 36.4922 97.8125 36.7539 97.707C37.0195 97.5977 37.3164 97.543 37.6445 97.543C38.0352 97.543 38.3809 97.6074 38.6816 97.7363C38.9824 97.8613 39.2188 98.0664 39.3906 98.3516C39.5625 98.6367 39.6484 99.0156 39.6484 99.4883V102.617C39.6484 102.828 39.6641 103.053 39.6953 103.291C39.7305 103.529 39.7793 103.734 39.8418 103.906V104H38.7695C38.7188 103.875 38.6797 103.709 38.6523 103.502C38.625 103.291 38.6113 103.096 38.6113 102.916ZM38.7754 100.156L38.7871 100.918H38.0664C37.8203 100.918 37.5957 100.945 37.3926 101C37.1934 101.055 37.0215 101.135 36.877 101.24C36.7324 101.342 36.6211 101.469 36.543 101.621C36.4688 101.773 36.4316 101.947 36.4316 102.143C36.4316 102.396 36.4668 102.6 36.5371 102.752C36.6074 102.9 36.7129 103.008 36.8535 103.074C36.9941 103.141 37.1719 103.174 37.3867 103.174C37.6484 103.174 37.8789 103.113 38.0781 102.992C38.2773 102.871 38.4316 102.725 38.541 102.553C38.6543 102.381 38.707 102.221 38.6992 102.072L38.9277 102.559C38.9121 102.711 38.8613 102.877 38.7754 103.057C38.6934 103.232 38.5781 103.402 38.4297 103.566C38.2812 103.727 38.1055 103.859 37.9023 103.965C37.7031 104.066 37.4785 104.117 37.2285 104.117C36.8613 104.117 36.5391 104.047 36.2617 103.906C35.9883 103.766 35.7754 103.559 35.623 103.285C35.4707 103.012 35.3945 102.674 35.3945 102.271C35.3945 101.967 35.4473 101.686 35.5527 101.428C35.6582 101.17 35.8145 100.947 36.0215 100.76C36.2285 100.568 36.4883 100.42 36.8008 100.314C37.1172 100.209 37.4824 100.156 37.8965 100.156H38.7754ZM42.3906 97.6602V104H41.3535V97.6602H42.3906ZM45.877 97.6602L43.3281 101.293H42.0449L41.8809 100.344H42.9062L44.6348 97.6602H45.877ZM44.7285 104L42.8711 101.129L43.5332 100.344L46.0293 104H44.7285ZM50.8281 100.977H51.9414L50.377 104H49.2637L50.8281 100.977ZM51.6426 97.6602H53.916V104H52.8848V98.5391H51.6426C51.4043 98.5391 51.209 98.5918 51.0566 98.6973C50.9043 98.7988 50.793 98.9316 50.7227 99.0957C50.6523 99.2598 50.6172 99.4297 50.6172 99.6055C50.6172 99.7773 50.6484 99.9434 50.7109 100.104C50.7773 100.26 50.8789 100.389 51.0156 100.49C51.1562 100.592 51.3359 100.643 51.5547 100.643H53.1426V101.533H51.5547C51.2422 101.533 50.9629 101.484 50.7168 101.387C50.4746 101.289 50.2676 101.154 50.0957 100.982C49.9277 100.807 49.7988 100.602 49.709 100.367C49.623 100.129 49.5801 99.8711 49.5801 99.5938C49.5801 99.3164 49.625 99.0605 49.7148 98.8262C49.8086 98.5918 49.9434 98.3867 50.1191 98.2109C50.2988 98.0352 50.5156 97.9004 50.7695 97.8066C51.0234 97.709 51.3145 97.6602 51.6426 97.6602ZM59.6758 97.6602V104H58.6387V97.6602H59.6758ZM59.3242 100.572V101.463C59.1289 101.545 58.9375 101.619 58.75 101.686C58.5625 101.748 58.3652 101.799 58.1582 101.838C57.9512 101.873 57.7207 101.891 57.4668 101.891C57.0566 101.891 56.6953 101.805 56.3828 101.633C56.0742 101.457 55.834 101.193 55.6621 100.842C55.4902 100.486 55.4043 100.039 55.4043 99.5V97.6484H56.4414V99.5C56.4414 99.8516 56.4805 100.137 56.5586 100.355C56.6406 100.574 56.7578 100.736 56.9102 100.842C57.0664 100.943 57.252 100.994 57.4668 100.994C57.709 100.994 57.9316 100.977 58.1348 100.941C58.3379 100.902 58.5352 100.852 58.7266 100.789C58.9219 100.727 59.1211 100.654 59.3242 100.572ZM63.6016 104.117C63.2227 104.117 62.8809 104.061 62.5762 103.947C62.2715 103.834 62.0117 103.662 61.7969 103.432C61.582 103.197 61.418 102.902 61.3047 102.547C61.1914 102.191 61.1348 101.771 61.1348 101.287V100.572C61.1348 100.014 61.1992 99.541 61.3281 99.1543C61.4609 98.7676 61.6387 98.457 61.8613 98.2227C62.084 97.9844 62.3359 97.8125 62.6172 97.707C62.8984 97.5977 63.1875 97.543 63.4844 97.543C63.8828 97.543 64.2227 97.6074 64.5039 97.7363C64.7852 97.8652 65.0137 98.0566 65.1895 98.3105C65.3652 98.5645 65.4941 98.877 65.5762 99.248C65.6621 99.6191 65.7051 100.047 65.7051 100.531V101.135H61.7441V100.25H64.668V100.104C64.6523 99.7754 64.6074 99.4863 64.5332 99.2363C64.4629 98.9863 64.3457 98.791 64.1816 98.6504C64.0176 98.5059 63.7852 98.4336 63.4844 98.4336C63.293 98.4336 63.1152 98.4668 62.9512 98.5332C62.791 98.5957 62.6523 98.707 62.5352 98.8672C62.4219 99.0234 62.332 99.2402 62.2656 99.5176C62.2031 99.7949 62.1719 100.146 62.1719 100.572V101.287C62.1719 101.627 62.2031 101.92 62.2656 102.166C62.332 102.408 62.4277 102.609 62.5527 102.77C62.6816 102.926 62.8379 103.043 63.0215 103.121C63.209 103.195 63.4219 103.232 63.6602 103.232C64.0078 103.232 64.2949 103.166 64.5215 103.033C64.748 102.896 64.9453 102.723 65.1133 102.512L65.6582 103.162C65.5449 103.322 65.3965 103.477 65.2129 103.625C65.0332 103.77 64.8105 103.889 64.5449 103.982C64.2832 104.072 63.9688 104.117 63.6016 104.117ZM68.084 102.283L70.3809 97.6602H71.418V104H70.3809V99.377L68.084 104H67.0527V97.6602H68.084V102.283ZM70.1055 95.3633H70.9844C70.9844 95.668 70.9141 95.9395 70.7734 96.1777C70.6328 96.4121 70.4316 96.5957 70.1699 96.7285C69.9082 96.8613 69.5977 96.9277 69.2383 96.9277C68.6953 96.9277 68.2656 96.7832 67.9492 96.4941C67.6367 96.2012 67.4805 95.8242 67.4805 95.3633H68.3594C68.3594 95.5938 68.4258 95.7969 68.5586 95.9727C68.6914 96.1484 68.918 96.2363 69.2383 96.2363C69.5508 96.2363 69.7734 96.1484 69.9062 95.9727C70.0391 95.7969 70.1055 95.5938 70.1055 95.3633ZM74.207 97.6602V104H73.1699V97.6602H74.207ZM77.6934 97.6602L75.1445 101.293H73.8613L73.6973 100.344H74.7227L76.4512 97.6602H77.6934ZM76.5449 104L74.6875 101.129L75.3496 100.344L77.8457 104H76.5449ZM81.9473 102.916V99.4766C81.9473 99.2266 81.9082 99.0254 81.8301 98.873C81.7559 98.7207 81.6426 98.6094 81.4902 98.5391C81.3418 98.4688 81.1543 98.4336 80.9277 98.4336C80.709 98.4336 80.5195 98.4785 80.3594 98.5684C80.2031 98.6582 80.082 98.7773 79.9961 98.9258C79.9141 99.0742 79.873 99.2383 79.873 99.418H78.8359C78.8359 99.1914 78.8848 98.9668 78.9824 98.7441C79.084 98.5215 79.2285 98.3203 79.416 98.1406C79.6035 97.957 79.8281 97.8125 80.0898 97.707C80.3555 97.5977 80.6523 97.543 80.9805 97.543C81.3711 97.543 81.7168 97.6074 82.0176 97.7363C82.3184 97.8613 82.5547 98.0664 82.7266 98.3516C82.8984 98.6367 82.9844 99.0156 82.9844 99.4883V102.617C82.9844 102.828 83 103.053 83.0312 103.291C83.0664 103.529 83.1152 103.734 83.1777 103.906V104H82.1055C82.0547 103.875 82.0156 103.709 81.9883 103.502C81.9609 103.291 81.9473 103.096 81.9473 102.916ZM82.1113 100.156L82.123 100.918H81.4023C81.1562 100.918 80.9316 100.945 80.7285 101C80.5293 101.055 80.3574 101.135 80.2129 101.24C80.0684 101.342 79.957 101.469 79.8789 101.621C79.8047 101.773 79.7676 101.947 79.7676 102.143C79.7676 102.396 79.8027 102.6 79.873 102.752C79.9434 102.9 80.0488 103.008 80.1895 103.074C80.3301 103.141 80.5078 103.174 80.7227 103.174C80.9844 103.174 81.2148 103.113 81.4141 102.992C81.6133 102.871 81.7676 102.725 81.877 102.553C81.9902 102.381 82.043 102.221 82.0352 102.072L82.2637 102.559C82.248 102.711 82.1973 102.877 82.1113 103.057C82.0293 103.232 81.9141 103.402 81.7656 103.566C81.6172 103.727 81.4414 103.859 81.2383 103.965C81.0391 104.066 80.8145 104.117 80.5645 104.117C80.1973 104.117 79.875 104.047 79.5977 103.906C79.3242 103.766 79.1113 103.559 78.959 103.285C78.8066 103.012 78.7305 102.674 78.7305 102.271C78.7305 101.967 78.7832 101.686 78.8887 101.428C78.9941 101.17 79.1504 100.947 79.3574 100.76C79.5645 100.568 79.8242 100.42 80.1367 100.314C80.4531 100.209 80.8184 100.156 81.2324 100.156H82.1113ZM89.9043 101.211H88.2109L88.1992 100.344H89.5586C89.8281 100.344 90.0508 100.311 90.2266 100.244C90.4062 100.178 90.541 100.078 90.6309 99.9453C90.7207 99.8125 90.7656 99.6484 90.7656 99.4531C90.7656 99.3008 90.7402 99.168 90.6895 99.0547C90.6387 98.9375 90.5625 98.8418 90.4609 98.7676C90.3633 98.6895 90.2402 98.6328 90.0918 98.5977C89.9434 98.5586 89.7695 98.5391 89.5703 98.5391H88.4746V104H87.4434V97.6602H89.5703C89.9141 97.6602 90.2227 97.6953 90.4961 97.7656C90.7734 97.8359 91.0078 97.9434 91.1992 98.0879C91.3945 98.2285 91.543 98.4082 91.6445 98.627C91.75 98.8457 91.8027 99.1035 91.8027 99.4004C91.8027 99.5918 91.7695 99.7734 91.7031 99.9453C91.6367 100.117 91.5371 100.27 91.4043 100.402C91.2754 100.535 91.1152 100.645 90.9238 100.73C90.7324 100.812 90.5117 100.865 90.2617 100.889L89.9043 101.211ZM89.9043 104H87.8242L88.3574 103.121H89.9043C90.1426 103.121 90.3379 103.084 90.4902 103.01C90.6426 102.932 90.7559 102.822 90.8301 102.682C90.9082 102.537 90.9473 102.365 90.9473 102.166C90.9473 101.967 90.9082 101.797 90.8301 101.656C90.7559 101.512 90.6426 101.402 90.4902 101.328C90.3379 101.25 90.1426 101.211 89.9043 101.211H88.5156L88.5273 100.344H90.2441L90.6074 100.672C90.9082 100.699 91.1602 100.785 91.3633 100.93C91.5703 101.074 91.7246 101.258 91.8262 101.48C91.9316 101.699 91.9844 101.938 91.9844 102.195C91.9844 102.492 91.9375 102.754 91.8438 102.98C91.75 103.207 91.6133 103.396 91.4336 103.549C91.2539 103.697 91.0352 103.811 90.7773 103.889C90.5195 103.963 90.2285 104 89.9043 104ZM97.1172 97.6602H98.1543L98.0781 100.033C98.0586 100.635 98 101.154 97.9023 101.592C97.8047 102.029 97.6797 102.402 97.5273 102.711C97.375 103.016 97.2031 103.271 97.0117 103.479C96.8203 103.686 96.6211 103.859 96.4141 104H95.9102L95.9336 103.115L96.1387 103.109C96.252 102.957 96.3594 102.801 96.4609 102.641C96.5625 102.477 96.6543 102.283 96.7363 102.061C96.8184 101.834 96.8848 101.559 96.9355 101.234C96.9902 100.906 97.0254 100.506 97.041 100.033L97.1172 97.6602ZM97.3574 97.6602H100.656V104H99.6191V98.6621H97.3574V97.6602ZM95.7109 103.109H101.395V105.869H100.357V104H96.748V105.869H95.7051L95.7109 103.109ZM104.852 104.117C104.473 104.117 104.131 104.061 103.826 103.947C103.521 103.834 103.262 103.662 103.047 103.432C102.832 103.197 102.668 102.902 102.555 102.547C102.441 102.191 102.385 101.771 102.385 101.287V100.572C102.385 100.014 102.449 99.541 102.578 99.1543C102.711 98.7676 102.889 98.457 103.111 98.2227C103.334 97.9844 103.586 97.8125 103.867 97.707C104.148 97.5977 104.438 97.543 104.734 97.543C105.133 97.543 105.473 97.6074 105.754 97.7363C106.035 97.8652 106.264 98.0566 106.439 98.3105C106.615 98.5645 106.744 98.877 106.826 99.248C106.912 99.6191 106.955 100.047 106.955 100.531V101.135H102.994V100.25H105.918V100.104C105.902 99.7754 105.857 99.4863 105.783 99.2363C105.713 98.9863 105.596 98.791 105.432 98.6504C105.268 98.5059 105.035 98.4336 104.734 98.4336C104.543 98.4336 104.365 98.4668 104.201 98.5332C104.041 98.5957 103.902 98.707 103.785 98.8672C103.672 99.0234 103.582 99.2402 103.516 99.5176C103.453 99.7949 103.422 100.146 103.422 100.572V101.287C103.422 101.627 103.453 101.92 103.516 102.166C103.582 102.408 103.678 102.609 103.803 102.77C103.932 102.926 104.088 103.043 104.271 103.121C104.459 103.195 104.672 103.232 104.91 103.232C105.258 103.232 105.545 103.166 105.771 103.033C105.998 102.896 106.195 102.723 106.363 102.512L106.908 103.162C106.795 103.322 106.646 103.477 106.463 103.625C106.283 103.77 106.061 103.889 105.795 103.982C105.533 104.072 105.219 104.117 104.852 104.117ZM110.418 97.6602V104H109.381V97.6602H110.418ZM112.146 97.6602V98.5391H107.676V97.6602H112.146ZM115.047 104.117C114.668 104.117 114.326 104.061 114.021 103.947C113.717 103.834 113.457 103.662 113.242 103.432C113.027 103.197 112.863 102.902 112.75 102.547C112.637 102.191 112.58 101.771 112.58 101.287V100.572C112.58 100.014 112.645 99.541 112.773 99.1543C112.906 98.7676 113.084 98.457 113.307 98.2227C113.529 97.9844 113.781 97.8125 114.062 97.707C114.344 97.5977 114.633 97.543 114.93 97.543C115.328 97.543 115.668 97.6074 115.949 97.7363C116.23 97.8652 116.459 98.0566 116.635 98.3105C116.811 98.5645 116.939 98.877 117.021 99.248C117.107 99.6191 117.15 100.047 117.15 100.531V101.135H113.189V100.25H116.113V100.104C116.098 99.7754 116.053 99.4863 115.979 99.2363C115.908 98.9863 115.791 98.791 115.627 98.6504C115.463 98.5059 115.23 98.4336 114.93 98.4336C114.738 98.4336 114.561 98.4668 114.396 98.5332C114.236 98.5957 114.098 98.707 113.98 98.8672C113.867 99.0234 113.777 99.2402 113.711 99.5176C113.648 99.7949 113.617 100.146 113.617 100.572V101.287C113.617 101.627 113.648 101.92 113.711 102.166C113.777 102.408 113.873 102.609 113.998 102.77C114.127 102.926 114.283 103.043 114.467 103.121C114.654 103.195 114.867 103.232 115.105 103.232C115.453 103.232 115.74 103.166 115.967 103.033C116.193 102.896 116.391 102.723 116.559 102.512L117.104 103.162C116.99 103.322 116.842 103.477 116.658 103.625C116.479 103.77 116.256 103.889 115.99 103.982C115.729 104.072 115.414 104.117 115.047 104.117ZM119.535 97.6602V104H118.498V97.6602H119.535ZM123.021 97.6602L120.473 101.293H119.189L119.025 100.344H120.051L121.779 97.6602H123.021ZM121.873 104L120.016 101.129L120.678 100.344L123.174 104H121.873ZM126.449 97.6602V104H125.412V97.6602H126.449ZM128.178 97.6602V98.5391H123.707V97.6602H128.178ZM128.816 101.135V100.531C128.816 100.039 128.879 99.6074 129.004 99.2363C129.129 98.8613 129.303 98.5488 129.525 98.2988C129.748 98.0488 130.008 97.8613 130.305 97.7363C130.602 97.6074 130.92 97.543 131.26 97.543C131.607 97.543 131.93 97.6074 132.227 97.7363C132.523 97.8613 132.783 98.0488 133.006 98.2988C133.232 98.5488 133.408 98.8613 133.533 99.2363C133.658 99.6074 133.721 100.039 133.721 100.531V101.135C133.721 101.627 133.658 102.061 133.533 102.436C133.408 102.807 133.234 103.117 133.012 103.367C132.789 103.617 132.529 103.805 132.232 103.93C131.936 104.055 131.615 104.117 131.271 104.117C130.928 104.117 130.607 104.055 130.311 103.93C130.014 103.805 129.752 103.617 129.525 103.367C129.303 103.117 129.129 102.807 129.004 102.436C128.879 102.061 128.816 101.627 128.816 101.135ZM129.854 100.531V101.135C129.854 101.482 129.889 101.787 129.959 102.049C130.029 102.311 130.129 102.529 130.258 102.705C130.387 102.881 130.537 103.014 130.709 103.104C130.881 103.189 131.068 103.232 131.271 103.232C131.506 103.232 131.711 103.189 131.887 103.104C132.066 103.014 132.215 102.881 132.332 102.705C132.449 102.529 132.537 102.311 132.596 102.049C132.654 101.787 132.684 101.482 132.684 101.135V100.531C132.684 100.184 132.648 99.8809 132.578 99.623C132.508 99.3613 132.408 99.1426 132.279 98.9668C132.15 98.7871 131.998 98.6543 131.822 98.5684C131.65 98.4785 131.463 98.4336 131.26 98.4336C131.061 98.4336 130.875 98.4785 130.703 98.5684C130.531 98.6543 130.381 98.7871 130.252 98.9668C130.127 99.1426 130.029 99.3613 129.959 99.623C129.889 99.8809 129.854 100.184 129.854 100.531ZM136.094 98.8789V106.438H135.057V97.6602H136L136.094 98.8789ZM139.639 100.543V101.135C139.639 101.635 139.592 102.072 139.498 102.447C139.408 102.818 139.273 103.129 139.094 103.379C138.918 103.625 138.701 103.811 138.443 103.936C138.186 104.057 137.891 104.117 137.559 104.117C137.227 104.117 136.938 104.055 136.691 103.93C136.449 103.801 136.244 103.615 136.076 103.373C135.912 103.131 135.781 102.84 135.684 102.5C135.59 102.156 135.525 101.771 135.49 101.346V100.443C135.525 99.9941 135.59 99.5918 135.684 99.2363C135.777 98.877 135.906 98.5723 136.07 98.3223C136.238 98.0684 136.443 97.875 136.686 97.7422C136.932 97.6094 137.219 97.543 137.547 97.543C137.887 97.543 138.186 97.6016 138.443 97.7188C138.705 97.8359 138.924 98.0176 139.1 98.2637C139.279 98.5059 139.414 98.8164 139.504 99.1953C139.594 99.5703 139.639 100.02 139.639 100.543ZM138.602 101.135V100.543C138.602 100.191 138.574 99.8848 138.52 99.623C138.469 99.3613 138.387 99.1445 138.273 98.9727C138.16 98.8008 138.018 98.6719 137.846 98.5859C137.674 98.5 137.467 98.457 137.225 98.457C137.018 98.457 136.834 98.5 136.674 98.5859C136.518 98.6719 136.383 98.7891 136.27 98.9375C136.156 99.082 136.062 99.248 135.988 99.4355C135.914 99.6191 135.859 99.8105 135.824 100.01V101.785C135.891 102.035 135.979 102.271 136.088 102.494C136.197 102.713 136.344 102.891 136.527 103.027C136.715 103.164 136.951 103.232 137.236 103.232C137.475 103.232 137.68 103.189 137.852 103.104C138.023 103.018 138.164 102.889 138.273 102.717C138.387 102.541 138.469 102.322 138.52 102.061C138.574 101.795 138.602 101.486 138.602 101.135ZM143.242 104.117C142.863 104.117 142.521 104.061 142.217 103.947C141.912 103.834 141.652 103.662 141.438 103.432C141.223 103.197 141.059 102.902 140.945 102.547C140.832 102.191 140.775 101.771 140.775 101.287V100.572C140.775 100.014 140.84 99.541 140.969 99.1543C141.102 98.7676 141.279 98.457 141.502 98.2227C141.725 97.9844 141.977 97.8125 142.258 97.707C142.539 97.5977 142.828 97.543 143.125 97.543C143.523 97.543 143.863 97.6074 144.145 97.7363C144.426 97.8652 144.654 98.0566 144.83 98.3105C145.006 98.5645 145.135 98.877 145.217 99.248C145.303 99.6191 145.346 100.047 145.346 100.531V101.135H141.385V100.25H144.309V100.104C144.293 99.7754 144.248 99.4863 144.174 99.2363C144.104 98.9863 143.986 98.791 143.822 98.6504C143.658 98.5059 143.426 98.4336 143.125 98.4336C142.934 98.4336 142.756 98.4668 142.592 98.5332C142.432 98.5957 142.293 98.707 142.176 98.8672C142.062 99.0234 141.973 99.2402 141.906 99.5176C141.844 99.7949 141.812 100.146 141.812 100.572V101.287C141.812 101.627 141.844 101.92 141.906 102.166C141.973 102.408 142.068 102.609 142.193 102.77C142.322 102.926 142.479 103.043 142.662 103.121C142.85 103.195 143.062 103.232 143.301 103.232C143.648 103.232 143.936 103.166 144.162 103.033C144.389 102.896 144.586 102.723 144.754 102.512L145.299 103.162C145.186 103.322 145.037 103.477 144.854 103.625C144.674 103.77 144.451 103.889 144.186 103.982C143.924 104.072 143.609 104.117 143.242 104.117Z" fill="#1B1716"/>
</g>
<g opacity="0.3">
<path opacity="0.7" d="M8.21875 135.781C9.28125 136.823 10.5417 137.344 12 137.344C13.4583 137.344 14.7083 136.823 15.75 135.781C16.8125 134.719 17.3438 133.458 17.3438 132C17.3438 130.542 16.8125 129.292 15.75 128.25C14.7083 127.188 13.4583 126.656 12 126.656C10.5417 126.656 9.28125 127.188 8.21875 128.25C7.17708 129.292 6.65625 130.542 6.65625 132C6.65625 133.458 7.17708 134.719 8.21875 135.781ZM7.28125 127.312C8.59375 126 10.1667 125.344 12 125.344C13.8333 125.344 15.3958 126 16.6875 127.312C18 128.604 18.6562 130.167 18.6562 132C18.6562 133.833 18 135.406 16.6875 136.719C15.3958 138.01 13.8333 138.656 12 138.656C10.1667 138.656 8.59375 138.01 7.28125 136.719C5.98958 135.406 5.34375 133.833 5.34375 132C5.34375 130.167 5.98958 128.604 7.28125 127.312Z" fill="#424750"/>
<path d="M33.5488 131.137V132.057H29.8516V131.137H33.5488ZM29.998 127.469V136H28.9199V127.469H29.998ZM34.5039 127.469V136H33.4258V127.469H34.5039ZM38.4883 136.117C38.1094 136.117 37.7676 136.061 37.4629 135.947C37.1582 135.834 36.8984 135.662 36.6836 135.432C36.4688 135.197 36.3047 134.902 36.1914 134.547C36.0781 134.191 36.0215 133.771 36.0215 133.287V132.572C36.0215 132.014 36.0859 131.541 36.2148 131.154C36.3477 130.768 36.5254 130.457 36.748 130.223C36.9707 129.984 37.2227 129.812 37.5039 129.707C37.7852 129.598 38.0742 129.543 38.3711 129.543C38.7695 129.543 39.1094 129.607 39.3906 129.736C39.6719 129.865 39.9004 130.057 40.0762 130.311C40.252 130.564 40.3809 130.877 40.4629 131.248C40.5488 131.619 40.5918 132.047 40.5918 132.531V133.135H36.6309V132.25H39.5547V132.104C39.5391 131.775 39.4941 131.486 39.4199 131.236C39.3496 130.986 39.2324 130.791 39.0684 130.65C38.9043 130.506 38.6719 130.434 38.3711 130.434C38.1797 130.434 38.002 130.467 37.8379 130.533C37.6777 130.596 37.5391 130.707 37.4219 130.867C37.3086 131.023 37.2188 131.24 37.1523 131.518C37.0898 131.795 37.0586 132.146 37.0586 132.572V133.287C37.0586 133.627 37.0898 133.92 37.1523 134.166C37.2188 134.408 37.3145 134.609 37.4395 134.77C37.5684 134.926 37.7246 135.043 37.9082 135.121C38.0957 135.195 38.3086 135.232 38.5469 135.232C38.8945 135.232 39.1816 135.166 39.4082 135.033C39.6348 134.896 39.832 134.723 40 134.512L40.5449 135.162C40.4316 135.322 40.2832 135.477 40.0996 135.625C39.9199 135.77 39.6973 135.889 39.4316 135.982C39.1699 136.072 38.8555 136.117 38.4883 136.117ZM42.9707 134.283L45.2676 129.66H46.3047V136H45.2676V131.377L42.9707 136H41.9395V129.66H42.9707V134.283ZM50.0078 132.971H48.9824V132.303H49.9258C50.1523 132.303 50.3301 132.266 50.459 132.191C50.5879 132.113 50.6797 132.006 50.7344 131.869C50.7891 131.732 50.8164 131.572 50.8164 131.389C50.8164 131.225 50.7852 131.07 50.7227 130.926C50.6602 130.777 50.5586 130.658 50.418 130.568C50.2773 130.475 50.0898 130.428 49.8555 130.428C49.6641 130.428 49.4902 130.473 49.334 130.562C49.1777 130.648 49.0547 130.768 48.9648 130.92C48.875 131.068 48.8301 131.236 48.8301 131.424H47.7988C47.7988 131.037 47.8906 130.705 48.0742 130.428C48.2617 130.146 48.5117 129.93 48.8242 129.777C49.1367 129.625 49.4805 129.549 49.8555 129.549C50.168 129.549 50.4473 129.59 50.6934 129.672C50.9395 129.75 51.1484 129.867 51.3203 130.023C51.4922 130.176 51.623 130.367 51.7129 130.598C51.8066 130.824 51.8535 131.088 51.8535 131.389C51.8535 131.604 51.8105 131.807 51.7246 131.998C51.6387 132.189 51.5156 132.359 51.3555 132.508C51.1953 132.652 51 132.766 50.7695 132.848C50.543 132.93 50.2891 132.971 50.0078 132.971ZM48.9824 132.561H50.0078C50.3203 132.561 50.5977 132.598 50.8398 132.672C51.082 132.742 51.2852 132.848 51.4492 132.988C51.6172 133.129 51.7422 133.303 51.8242 133.51C51.9102 133.713 51.9531 133.947 51.9531 134.213C51.9531 134.51 51.9023 134.777 51.8008 135.016C51.6992 135.25 51.5547 135.449 51.3672 135.613C51.1836 135.777 50.9629 135.902 50.7051 135.988C50.4512 136.074 50.168 136.117 49.8555 136.117C49.5039 136.117 49.1641 136.047 48.8359 135.906C48.5117 135.766 48.2441 135.549 48.0332 135.256C47.8223 134.959 47.7168 134.582 47.7168 134.125H48.748C48.748 134.316 48.793 134.498 48.8828 134.67C48.9766 134.842 49.1055 134.98 49.2695 135.086C49.4375 135.191 49.6328 135.244 49.8555 135.244C50.0898 135.244 50.2852 135.197 50.4414 135.104C50.5977 135.01 50.7148 134.885 50.793 134.729C50.8711 134.572 50.9102 134.402 50.9102 134.219C50.9102 133.98 50.875 133.789 50.8047 133.645C50.7344 133.5 50.627 133.395 50.4824 133.328C50.3379 133.258 50.1523 133.223 49.9258 133.223H48.9824V132.561ZM56.4414 134.559L58.1348 129.66H59.1191L56.7988 136H56.084L53.7695 129.66H54.7539L56.4414 134.559ZM54.4551 129.66V136H53.4238V129.66H54.4551ZM58.3926 136V129.66H59.4297V136H58.3926ZM63.3555 136.117C62.9766 136.117 62.6348 136.061 62.3301 135.947C62.0254 135.834 61.7656 135.662 61.5508 135.432C61.3359 135.197 61.1719 134.902 61.0586 134.547C60.9453 134.191 60.8887 133.771 60.8887 133.287V132.572C60.8887 132.014 60.9531 131.541 61.082 131.154C61.2148 130.768 61.3926 130.457 61.6152 130.223C61.8379 129.984 62.0898 129.812 62.3711 129.707C62.6523 129.598 62.9414 129.543 63.2383 129.543C63.6367 129.543 63.9766 129.607 64.2578 129.736C64.5391 129.865 64.7676 130.057 64.9434 130.311C65.1191 130.564 65.248 130.877 65.3301 131.248C65.416 131.619 65.459 132.047 65.459 132.531V133.135H61.498V132.25H64.4219V132.104C64.4062 131.775 64.3613 131.486 64.2871 131.236C64.2168 130.986 64.0996 130.791 63.9355 130.65C63.7715 130.506 63.5391 130.434 63.2383 130.434C63.0469 130.434 62.8691 130.467 62.7051 130.533C62.5449 130.596 62.4062 130.707 62.2891 130.867C62.1758 131.023 62.0859 131.24 62.0195 131.518C61.957 131.795 61.9258 132.146 61.9258 132.572V133.287C61.9258 133.627 61.957 133.92 62.0195 134.166C62.0859 134.408 62.1816 134.609 62.3066 134.77C62.4355 134.926 62.5918 135.043 62.7754 135.121C62.9629 135.195 63.1758 135.232 63.4141 135.232C63.7617 135.232 64.0488 135.166 64.2754 135.033C64.502 134.896 64.6992 134.723 64.8672 134.512L65.4121 135.162C65.2988 135.322 65.1504 135.477 64.9668 135.625C64.7871 135.77 64.5645 135.889 64.2988 135.982C64.0371 136.072 63.7227 136.117 63.3555 136.117ZM70.3223 132.408V133.287H67.6328V132.408H70.3223ZM67.8438 129.66V136H66.8066V129.66H67.8438ZM71.166 129.66V136H70.1289V129.66H71.166ZM76.4277 132.408V133.287H73.7383V132.408H76.4277ZM73.9492 129.66V136H72.9121V129.66H73.9492ZM77.2715 129.66V136H76.2344V129.66H77.2715ZM78.707 133.135V132.531C78.707 132.039 78.7695 131.607 78.8945 131.236C79.0195 130.861 79.1934 130.549 79.416 130.299C79.6387 130.049 79.8984 129.861 80.1953 129.736C80.4922 129.607 80.8105 129.543 81.1504 129.543C81.498 129.543 81.8203 129.607 82.1172 129.736C82.4141 129.861 82.6738 130.049 82.8965 130.299C83.123 130.549 83.2988 130.861 83.4238 131.236C83.5488 131.607 83.6113 132.039 83.6113 132.531V133.135C83.6113 133.627 83.5488 134.061 83.4238 134.436C83.2988 134.807 83.125 135.117 82.9023 135.367C82.6797 135.617 82.4199 135.805 82.123 135.93C81.8262 136.055 81.5059 136.117 81.1621 136.117C80.8184 136.117 80.498 136.055 80.2012 135.93C79.9043 135.805 79.6426 135.617 79.416 135.367C79.1934 135.117 79.0195 134.807 78.8945 134.436C78.7695 134.061 78.707 133.627 78.707 133.135ZM79.7441 132.531V133.135C79.7441 133.482 79.7793 133.787 79.8496 134.049C79.9199 134.311 80.0195 134.529 80.1484 134.705C80.2773 134.881 80.4277 135.014 80.5996 135.104C80.7715 135.189 80.959 135.232 81.1621 135.232C81.3965 135.232 81.6016 135.189 81.7773 135.104C81.957 135.014 82.1055 134.881 82.2227 134.705C82.3398 134.529 82.4277 134.311 82.4863 134.049C82.5449 133.787 82.5742 133.482 82.5742 133.135V132.531C82.5742 132.184 82.5391 131.881 82.4688 131.623C82.3984 131.361 82.2988 131.143 82.1699 130.967C82.041 130.787 81.8887 130.654 81.7129 130.568C81.541 130.479 81.3535 130.434 81.1504 130.434C80.9512 130.434 80.7656 130.479 80.5938 130.568C80.4219 130.654 80.2715 130.787 80.1426 130.967C80.0176 131.143 79.9199 131.361 79.8496 131.623C79.7793 131.881 79.7441 132.184 79.7441 132.531Z" fill="#1B1716"/>
</g>
<g opacity="0.3">
<path opacity="0.7" d="M8.21875 167.781C9.28125 168.823 10.5417 169.344 12 169.344C13.4583 169.344 14.7083 168.823 15.75 167.781C16.8125 166.719 17.3438 165.458 17.3438 164C17.3438 162.542 16.8125 161.292 15.75 160.25C14.7083 159.188 13.4583 158.656 12 158.656C10.5417 158.656 9.28125 159.188 8.21875 160.25C7.17708 161.292 6.65625 162.542 6.65625 164C6.65625 165.458 7.17708 166.719 8.21875 167.781ZM7.28125 159.312C8.59375 158 10.1667 157.344 12 157.344C13.8333 157.344 15.3958 158 16.6875 159.312C18 160.604 18.6562 162.167 18.6562 164C18.6562 165.833 18 167.406 16.6875 168.719C15.3958 170.01 13.8333 170.656 12 170.656C10.1667 170.656 8.59375 170.01 7.28125 168.719C5.98958 167.406 5.34375 165.833 5.34375 164C5.34375 162.167 5.98958 160.604 7.28125 159.312Z" fill="#424750"/>
<path d="M30.0508 159.469V168H28.9727V159.469H30.0508ZM34.4395 159.469L31.3574 164.162H29.623L29.4414 163.225H30.707L33.1035 159.469H34.4395ZM33.3262 168L30.7598 164.016L31.3633 163.025L34.6387 168H33.3262ZM35.125 165.135V164.531C35.125 164.039 35.1875 163.607 35.3125 163.236C35.4375 162.861 35.6113 162.549 35.834 162.299C36.0566 162.049 36.3164 161.861 36.6133 161.736C36.9102 161.607 37.2285 161.543 37.5684 161.543C37.916 161.543 38.2383 161.607 38.5352 161.736C38.832 161.861 39.0918 162.049 39.3145 162.299C39.541 162.549 39.7168 162.861 39.8418 163.236C39.9668 163.607 40.0293 164.039 40.0293 164.531V165.135C40.0293 165.627 39.9668 166.061 39.8418 166.436C39.7168 166.807 39.543 167.117 39.3203 167.367C39.0977 167.617 38.8379 167.805 38.541 167.93C38.2441 168.055 37.9238 168.117 37.5801 168.117C37.2363 168.117 36.916 168.055 36.6191 167.93C36.3223 167.805 36.0605 167.617 35.834 167.367C35.6113 167.117 35.4375 166.807 35.3125 166.436C35.1875 166.061 35.125 165.627 35.125 165.135ZM36.1621 164.531V165.135C36.1621 165.482 36.1973 165.787 36.2676 166.049C36.3379 166.311 36.4375 166.529 36.5664 166.705C36.6953 166.881 36.8457 167.014 37.0176 167.104C37.1895 167.189 37.377 167.232 37.5801 167.232C37.8145 167.232 38.0195 167.189 38.1953 167.104C38.375 167.014 38.5234 166.881 38.6406 166.705C38.7578 166.529 38.8457 166.311 38.9043 166.049C38.9629 165.787 38.9922 165.482 38.9922 165.135V164.531C38.9922 164.184 38.957 163.881 38.8867 163.623C38.8164 163.361 38.7168 163.143 38.5879 162.967C38.459 162.787 38.3066 162.654 38.1309 162.568C37.959 162.479 37.7715 162.434 37.5684 162.434C37.3691 162.434 37.1836 162.479 37.0117 162.568C36.8398 162.654 36.6895 162.787 36.5605 162.967C36.4355 163.143 36.3379 163.361 36.2676 163.623C36.1973 163.881 36.1621 164.184 36.1621 164.531ZM44.4766 166.559L46.1699 161.66H47.1543L44.834 168H44.1191L41.8047 161.66H42.7891L44.4766 166.559ZM42.4902 161.66V168H41.459V161.66H42.4902ZM46.4277 168V161.66H47.4648V168H46.4277ZM52.5273 158.9H53.3652C53.3652 159.283 53.3125 159.588 53.207 159.814C53.1055 160.037 52.9688 160.209 52.7969 160.33C52.625 160.451 52.4336 160.543 52.2227 160.605C52.0117 160.668 51.7969 160.729 51.5781 160.787C51.3047 160.857 51.0488 160.969 50.8105 161.121C50.5723 161.27 50.3672 161.48 50.1953 161.754C50.0273 162.027 49.9043 162.383 49.8262 162.82C49.752 163.258 49.7383 163.799 49.7852 164.443V164.982H48.9414V164.443C48.9414 163.721 49 163.09 49.1172 162.551C49.2344 162.012 49.4004 161.557 49.6152 161.186C49.8301 160.814 50.084 160.52 50.377 160.301C50.6699 160.082 50.9941 159.932 51.3496 159.85C51.5762 159.791 51.7773 159.729 51.9531 159.662C52.1328 159.592 52.2734 159.498 52.375 159.381C52.4766 159.264 52.5273 159.104 52.5273 158.9ZM51.5371 162.023C51.8848 162.023 52.1934 162.096 52.4629 162.24C52.7324 162.385 52.9609 162.586 53.1484 162.844C53.3359 163.102 53.4785 163.406 53.5762 163.758C53.6738 164.105 53.7227 164.484 53.7227 164.895V165.023C53.7227 165.465 53.6699 165.875 53.5645 166.254C53.459 166.629 53.3027 166.957 53.0957 167.238C52.8926 167.516 52.6426 167.732 52.3457 167.889C52.0488 168.045 51.7109 168.123 51.332 168.123C50.9531 168.123 50.6152 168.045 50.3184 167.889C50.0254 167.732 49.7754 167.516 49.5684 167.238C49.3652 166.957 49.209 166.629 49.0996 166.254C48.9941 165.875 48.9414 165.465 48.9414 165.023V164.895C48.9414 164.797 48.959 164.701 48.9941 164.607C49.0293 164.514 49.0703 164.418 49.1172 164.32C49.1641 164.223 49.207 164.119 49.2461 164.01C49.3672 163.658 49.5352 163.332 49.75 163.031C49.9648 162.73 50.2207 162.488 50.5176 162.305C50.8184 162.117 51.1582 162.023 51.5371 162.023ZM51.3262 162.908C51.0098 162.908 50.752 163 50.5527 163.184C50.3574 163.367 50.2129 163.611 50.1191 163.916C50.0254 164.217 49.9785 164.543 49.9785 164.895V165.023C49.9785 165.32 50.0039 165.602 50.0547 165.867C50.1055 166.133 50.1855 166.369 50.2949 166.576C50.4043 166.779 50.5449 166.939 50.7168 167.057C50.8887 167.174 51.0938 167.232 51.332 167.232C51.5703 167.232 51.7734 167.174 51.9414 167.057C52.1133 166.939 52.2539 166.779 52.3633 166.576C52.4727 166.369 52.5527 166.133 52.6035 165.867C52.6582 165.602 52.6855 165.32 52.6855 165.023V164.895C52.6855 164.629 52.6582 164.377 52.6035 164.139C52.5527 163.9 52.4727 163.689 52.3633 163.506C52.2539 163.322 52.1133 163.178 51.9414 163.072C51.7695 162.963 51.5645 162.908 51.3262 162.908ZM55.9668 166.283L58.2637 161.66H59.3008V168H58.2637V163.377L55.9668 168H54.9355V161.66H55.9668V166.283ZM64.5684 164.408V165.287H61.8789V164.408H64.5684ZM62.0898 161.66V168H61.0527V161.66H62.0898ZM65.4121 161.66V168H64.375V161.66H65.4121ZM68.1895 166.283L70.4863 161.66H71.5234V168H70.4863V163.377L68.1895 168H67.1582V161.66H68.1895V166.283ZM74.2188 162.879V170.438H73.1816V161.66H74.125L74.2188 162.879ZM77.7637 164.543V165.135C77.7637 165.635 77.7168 166.072 77.623 166.447C77.5332 166.818 77.3984 167.129 77.2188 167.379C77.043 167.625 76.8262 167.811 76.5684 167.936C76.3105 168.057 76.0156 168.117 75.6836 168.117C75.3516 168.117 75.0625 168.055 74.8164 167.93C74.5742 167.801 74.3691 167.615 74.2012 167.373C74.0371 167.131 73.9062 166.84 73.8086 166.5C73.7148 166.156 73.6504 165.771 73.6152 165.346V164.443C73.6504 163.994 73.7148 163.592 73.8086 163.236C73.9023 162.877 74.0312 162.572 74.1953 162.322C74.3633 162.068 74.5684 161.875 74.8105 161.742C75.0566 161.609 75.3438 161.543 75.6719 161.543C76.0117 161.543 76.3105 161.602 76.5684 161.719C76.8301 161.836 77.0488 162.018 77.2246 162.264C77.4043 162.506 77.5391 162.816 77.6289 163.195C77.7188 163.57 77.7637 164.02 77.7637 164.543ZM76.7266 165.135V164.543C76.7266 164.191 76.6992 163.885 76.6445 163.623C76.5938 163.361 76.5117 163.145 76.3984 162.973C76.2852 162.801 76.1426 162.672 75.9707 162.586C75.7988 162.5 75.5918 162.457 75.3496 162.457C75.1426 162.457 74.959 162.5 74.7988 162.586C74.6426 162.672 74.5078 162.789 74.3945 162.938C74.2812 163.082 74.1875 163.248 74.1133 163.436C74.0391 163.619 73.9844 163.811 73.9492 164.01V165.785C74.0156 166.035 74.1035 166.271 74.2129 166.494C74.3223 166.713 74.4688 166.891 74.6523 167.027C74.8398 167.164 75.0762 167.232 75.3613 167.232C75.5996 167.232 75.8047 167.189 75.9766 167.104C76.1484 167.018 76.2891 166.889 76.3984 166.717C76.5117 166.541 76.5938 166.322 76.6445 166.061C76.6992 165.795 76.7266 165.486 76.7266 165.135ZM78.8828 165.135V164.531C78.8828 164.039 78.9453 163.607 79.0703 163.236C79.1953 162.861 79.3691 162.549 79.5918 162.299C79.8145 162.049 80.0742 161.861 80.3711 161.736C80.668 161.607 80.9863 161.543 81.3262 161.543C81.6738 161.543 81.9961 161.607 82.293 161.736C82.5898 161.861 82.8496 162.049 83.0723 162.299C83.2988 162.549 83.4746 162.861 83.5996 163.236C83.7246 163.607 83.7871 164.039 83.7871 164.531V165.135C83.7871 165.627 83.7246 166.061 83.5996 166.436C83.4746 166.807 83.3008 167.117 83.0781 167.367C82.8555 167.617 82.5957 167.805 82.2988 167.93C82.002 168.055 81.6816 168.117 81.3379 168.117C80.9941 168.117 80.6738 168.055 80.377 167.93C80.0801 167.805 79.8184 167.617 79.5918 167.367C79.3691 167.117 79.1953 166.807 79.0703 166.436C78.9453 166.061 78.8828 165.627 78.8828 165.135ZM79.9199 164.531V165.135C79.9199 165.482 79.9551 165.787 80.0254 166.049C80.0957 166.311 80.1953 166.529 80.3242 166.705C80.4531 166.881 80.6035 167.014 80.7754 167.104C80.9473 167.189 81.1348 167.232 81.3379 167.232C81.5723 167.232 81.7773 167.189 81.9531 167.104C82.1328 167.014 82.2812 166.881 82.3984 166.705C82.5156 166.529 82.6035 166.311 82.6621 166.049C82.7207 165.787 82.75 165.482 82.75 165.135V164.531C82.75 164.184 82.7148 163.881 82.6445 163.623C82.5742 163.361 82.4746 163.143 82.3457 162.967C82.2168 162.787 82.0645 162.654 81.8887 162.568C81.7168 162.479 81.5293 162.434 81.3262 162.434C81.127 162.434 80.9414 162.479 80.7695 162.568C80.5977 162.654 80.4473 162.787 80.3184 162.967C80.1934 163.143 80.0957 163.361 80.0254 163.623C79.9551 163.881 79.9199 164.184 79.9199 164.531ZM87.6777 165.211H85.9844L85.9727 164.344H87.332C87.6016 164.344 87.8242 164.311 88 164.244C88.1797 164.178 88.3145 164.078 88.4043 163.945C88.4941 163.812 88.5391 163.648 88.5391 163.453C88.5391 163.301 88.5137 163.168 88.4629 163.055C88.4121 162.938 88.3359 162.842 88.2344 162.768C88.1367 162.689 88.0137 162.633 87.8652 162.598C87.7168 162.559 87.543 162.539 87.3438 162.539H86.248V168H85.2168V161.66H87.3438C87.6875 161.66 87.9961 161.695 88.2695 161.766C88.5469 161.836 88.7812 161.943 88.9727 162.088C89.168 162.229 89.3164 162.408 89.418 162.627C89.5234 162.846 89.5762 163.104 89.5762 163.4C89.5762 163.592 89.543 163.773 89.4766 163.945C89.4102 164.117 89.3105 164.27 89.1777 164.402C89.0488 164.535 88.8887 164.645 88.6973 164.73C88.5059 164.812 88.2852 164.865 88.0352 164.889L87.6777 165.211ZM87.6777 168H85.5977L86.1309 167.121H87.6777C87.916 167.121 88.1113 167.084 88.2637 167.01C88.416 166.932 88.5293 166.822 88.6035 166.682C88.6816 166.537 88.7207 166.365 88.7207 166.166C88.7207 165.967 88.6816 165.797 88.6035 165.656C88.5293 165.512 88.416 165.402 88.2637 165.328C88.1113 165.25 87.916 165.211 87.6777 165.211H86.2891L86.3008 164.344H88.0176L88.3809 164.672C88.6816 164.699 88.9336 164.785 89.1367 164.93C89.3438 165.074 89.498 165.258 89.5996 165.48C89.7051 165.699 89.7578 165.938 89.7578 166.195C89.7578 166.492 89.7109 166.754 89.6172 166.98C89.5234 167.207 89.3867 167.396 89.207 167.549C89.0273 167.697 88.8086 167.811 88.5508 167.889C88.293 167.963 88.002 168 87.6777 168ZM94.2754 166.916V163.477C94.2754 163.227 94.2363 163.025 94.1582 162.873C94.084 162.721 93.9707 162.609 93.8184 162.539C93.6699 162.469 93.4824 162.434 93.2559 162.434C93.0371 162.434 92.8477 162.479 92.6875 162.568C92.5312 162.658 92.4102 162.777 92.3242 162.926C92.2422 163.074 92.2012 163.238 92.2012 163.418H91.1641C91.1641 163.191 91.2129 162.967 91.3105 162.744C91.4121 162.521 91.5566 162.32 91.7441 162.141C91.9316 161.957 92.1562 161.812 92.418 161.707C92.6836 161.598 92.9805 161.543 93.3086 161.543C93.6992 161.543 94.0449 161.607 94.3457 161.736C94.6465 161.861 94.8828 162.066 95.0547 162.352C95.2266 162.637 95.3125 163.016 95.3125 163.488V166.617C95.3125 166.828 95.3281 167.053 95.3594 167.291C95.3945 167.529 95.4434 167.734 95.5059 167.906V168H94.4336C94.3828 167.875 94.3438 167.709 94.3164 167.502C94.2891 167.291 94.2754 167.096 94.2754 166.916ZM94.4395 164.156L94.4512 164.918H93.7305C93.4844 164.918 93.2598 164.945 93.0566 165C92.8574 165.055 92.6855 165.135 92.541 165.24C92.3965 165.342 92.2852 165.469 92.207 165.621C92.1328 165.773 92.0957 165.947 92.0957 166.143C92.0957 166.396 92.1309 166.6 92.2012 166.752C92.2715 166.9 92.377 167.008 92.5176 167.074C92.6582 167.141 92.8359 167.174 93.0508 167.174C93.3125 167.174 93.543 167.113 93.7422 166.992C93.9414 166.871 94.0957 166.725 94.2051 166.553C94.3184 166.381 94.3711 166.221 94.3633 166.072L94.5918 166.559C94.5762 166.711 94.5254 166.877 94.4395 167.057C94.3574 167.232 94.2422 167.402 94.0938 167.566C93.9453 167.727 93.7695 167.859 93.5664 167.965C93.3672 168.066 93.1426 168.117 92.8926 168.117C92.5254 168.117 92.2031 168.047 91.9258 167.906C91.6523 167.766 91.4395 167.559 91.2871 167.285C91.1348 167.012 91.0586 166.674 91.0586 166.271C91.0586 165.967 91.1113 165.686 91.2168 165.428C91.3223 165.17 91.4785 164.947 91.6855 164.76C91.8926 164.568 92.1523 164.42 92.4648 164.314C92.7812 164.209 93.1465 164.156 93.5605 164.156H94.4395ZM100.533 164.408V165.287H97.8438V164.408H100.533ZM98.0547 161.66V168H97.0176V161.66H98.0547ZM101.377 161.66V168H100.34V161.66H101.377ZM106.639 164.408V165.287H103.949V164.408H106.639ZM104.16 161.66V168H103.123V161.66H104.16ZM107.482 161.66V168H106.445V161.66H107.482ZM112.24 166.916V163.477C112.24 163.227 112.201 163.025 112.123 162.873C112.049 162.721 111.936 162.609 111.783 162.539C111.635 162.469 111.447 162.434 111.221 162.434C111.002 162.434 110.812 162.479 110.652 162.568C110.496 162.658 110.375 162.777 110.289 162.926C110.207 163.074 110.166 163.238 110.166 163.418H109.129C109.129 163.191 109.178 162.967 109.275 162.744C109.377 162.521 109.521 162.32 109.709 162.141C109.896 161.957 110.121 161.812 110.383 161.707C110.648 161.598 110.945 161.543 111.273 161.543C111.664 161.543 112.01 161.607 112.311 161.736C112.611 161.861 112.848 162.066 113.02 162.352C113.191 162.637 113.277 163.016 113.277 163.488V166.617C113.277 166.828 113.293 167.053 113.324 167.291C113.359 167.529 113.408 167.734 113.471 167.906V168H112.398C112.348 167.875 112.309 167.709 112.281 167.502C112.254 167.291 112.24 167.096 112.24 166.916ZM112.404 164.156L112.416 164.918H111.695C111.449 164.918 111.225 164.945 111.021 165C110.822 165.055 110.65 165.135 110.506 165.24C110.361 165.342 110.25 165.469 110.172 165.621C110.098 165.773 110.061 165.947 110.061 166.143C110.061 166.396 110.096 166.6 110.166 166.752C110.236 166.9 110.342 167.008 110.482 167.074C110.623 167.141 110.801 167.174 111.016 167.174C111.277 167.174 111.508 167.113 111.707 166.992C111.906 166.871 112.061 166.725 112.17 166.553C112.283 166.381 112.336 166.221 112.328 166.072L112.557 166.559C112.541 166.711 112.49 166.877 112.404 167.057C112.322 167.232 112.207 167.402 112.059 167.566C111.91 167.727 111.734 167.859 111.531 167.965C111.332 168.066 111.107 168.117 110.857 168.117C110.49 168.117 110.168 168.047 109.891 167.906C109.617 167.766 109.404 167.559 109.252 167.285C109.1 167.012 109.023 166.674 109.023 166.271C109.023 165.967 109.076 165.686 109.182 165.428C109.287 165.17 109.443 164.947 109.65 164.76C109.857 164.568 110.117 164.42 110.43 164.314C110.746 164.209 111.111 164.156 111.525 164.156H112.404ZM115.938 164.977H117.051L115.486 168H114.373L115.938 164.977ZM116.752 161.66H119.025V168H117.994V162.539H116.752C116.514 162.539 116.318 162.592 116.166 162.697C116.014 162.799 115.902 162.932 115.832 163.096C115.762 163.26 115.727 163.43 115.727 163.605C115.727 163.777 115.758 163.943 115.82 164.104C115.887 164.26 115.988 164.389 116.125 164.49C116.266 164.592 116.445 164.643 116.664 164.643H118.252V165.533H116.664C116.352 165.533 116.072 165.484 115.826 165.387C115.584 165.289 115.377 165.154 115.205 164.982C115.037 164.807 114.908 164.602 114.818 164.367C114.732 164.129 114.689 163.871 114.689 163.594C114.689 163.316 114.734 163.061 114.824 162.826C114.918 162.592 115.053 162.387 115.229 162.211C115.408 162.035 115.625 161.9 115.879 161.807C116.133 161.709 116.424 161.66 116.752 161.66Z" fill="#1B1716"/>
</g>
<g opacity="0.3">
<path opacity="0.7" d="M8.21875 71.7812C9.28125 72.8229 10.5417 73.3438 12 73.3438C13.4583 73.3438 14.7083 72.8229 15.75 71.7812C16.8125 70.7188 17.3438 69.4583 17.3438 68C17.3438 66.5417 16.8125 65.2917 15.75 64.25C14.7083 63.1875 13.4583 62.6562 12 62.6562C10.5417 62.6562 9.28125 63.1875 8.21875 64.25C7.17708 65.2917 6.65625 66.5417 6.65625 68C6.65625 69.4583 7.17708 70.7188 8.21875 71.7812ZM7.28125 63.3125C8.59375 62 10.1667 61.3438 12 61.3438C13.8333 61.3438 15.3958 62 16.6875 63.3125C18 64.6042 18.6562 66.1667 18.6562 68C18.6562 69.8333 18 71.4062 16.6875 72.7188C15.3958 74.0104 13.8333 74.6562 12 74.6562C10.1667 74.6562 8.59375 74.0104 7.28125 72.7188C5.98958 71.4062 5.34375 69.8333 5.34375 68C5.34375 66.1667 5.98958 64.6042 7.28125 63.3125Z" fill="#424750"/>
<rect x="27.5" y="58.5" width="90" height="19" stroke="#424750"/>
<path d="M75.4551 71.1094V72H70.6855V71.2207L73.0352 68.1094C73.3242 67.7266 73.5449 67.4023 73.6973 67.1367C73.8496 66.8672 73.9551 66.627 74.0137 66.416C74.0723 66.2012 74.1016 65.9824 74.1016 65.7598C74.1016 65.4785 74.0566 65.2246 73.9668 64.998C73.877 64.7676 73.7461 64.584 73.5742 64.4473C73.4023 64.3105 73.1953 64.2422 72.9531 64.2422C72.6367 64.2422 72.377 64.3164 72.1738 64.4648C71.9746 64.6094 71.8281 64.8125 71.7344 65.0742C71.6406 65.3359 71.5938 65.6367 71.5938 65.9766H70.5566C70.5566 65.4961 70.6445 65.0566 70.8203 64.6582C71 64.2598 71.2676 63.9434 71.623 63.709C71.9785 63.4707 72.4219 63.3516 72.9531 63.3516C73.4102 63.3516 73.8008 63.4473 74.125 63.6387C74.4531 63.8262 74.7031 64.0918 74.875 64.4355C75.0508 64.7754 75.1387 65.1738 75.1387 65.6309C75.1387 65.8809 75.1035 66.1348 75.0332 66.3926C74.9668 66.6465 74.873 66.9004 74.752 67.1543C74.6348 67.4082 74.4961 67.6582 74.3359 67.9043C74.1758 68.1504 74.0039 68.3926 73.8203 68.6309L71.9277 71.1094H75.4551ZM81.1738 67.0547V68.3555C81.1738 69.0547 81.1191 69.6445 81.0098 70.125C80.9043 70.6055 80.752 70.9922 80.5527 71.2852C80.3535 71.5781 80.1133 71.791 79.832 71.9238C79.5547 72.0527 79.2422 72.1172 78.8945 72.1172C78.6211 72.1172 78.3652 72.0762 78.127 71.9941C77.8926 71.9121 77.6816 71.7812 77.4941 71.6016C77.3066 71.418 77.1465 71.1797 77.0137 70.8867C76.8809 70.5938 76.7793 70.2383 76.709 69.8203C76.6387 69.4023 76.6035 68.9141 76.6035 68.3555V67.0547C76.6035 66.3555 76.6582 65.7695 76.7676 65.2969C76.877 64.8242 77.0312 64.4453 77.2305 64.1602C77.4336 63.8711 77.6738 63.6641 77.9512 63.5391C78.2324 63.4141 78.5449 63.3516 78.8887 63.3516C79.166 63.3516 79.4219 63.3926 79.6562 63.4746C79.8945 63.5527 80.1055 63.6797 80.2891 63.8555C80.4766 64.0273 80.6367 64.2578 80.7695 64.5469C80.9023 64.832 81.002 65.1816 81.0684 65.5957C81.1387 66.0098 81.1738 66.4961 81.1738 67.0547ZM80.1426 68.5312V66.873C80.1426 66.4902 80.125 66.1543 80.0898 65.8652C80.0547 65.5723 80.002 65.3223 79.9316 65.1152C79.8652 64.9082 79.7812 64.7402 79.6797 64.6113C79.5781 64.4824 79.4609 64.3887 79.3281 64.3301C79.1953 64.2676 79.0488 64.2363 78.8887 64.2363C78.6895 64.2363 78.5117 64.2852 78.3555 64.3828C78.2031 64.4766 78.0723 64.627 77.9629 64.834C77.8574 65.041 77.7773 65.3125 77.7227 65.6484C77.668 65.9844 77.6406 66.3926 77.6406 66.873V68.5312C77.6406 68.9141 77.6582 69.252 77.6934 69.5449C77.7324 69.8379 77.7852 70.0918 77.8516 70.3066C77.9219 70.5176 78.0078 70.6914 78.1094 70.8281C78.2109 70.9648 78.3281 71.0664 78.4609 71.1328C78.5938 71.1953 78.7383 71.2266 78.8945 71.2266C79.1016 71.2266 79.2812 71.1758 79.4336 71.0742C79.5898 70.9727 79.7207 70.8145 79.8262 70.5996C79.9316 70.3809 80.0098 70.1016 80.0605 69.7617C80.1152 69.418 80.1426 69.0078 80.1426 68.5312ZM82.7031 71.4258C82.7031 71.2422 82.7598 71.0879 82.873 70.9629C82.9902 70.834 83.1582 70.7695 83.377 70.7695C83.5957 70.7695 83.7617 70.834 83.875 70.9629C83.9922 71.0879 84.0508 71.2422 84.0508 71.4258C84.0508 71.6055 83.9922 71.7578 83.875 71.8828C83.7617 72.0078 83.5957 72.0703 83.377 72.0703C83.1582 72.0703 82.9902 72.0078 82.873 71.8828C82.7598 71.7578 82.7031 71.6055 82.7031 71.4258ZM90.2676 67.0547V68.3555C90.2676 69.0547 90.2129 69.6445 90.1035 70.125C89.998 70.6055 89.8457 70.9922 89.6465 71.2852C89.4473 71.5781 89.207 71.791 88.9258 71.9238C88.6484 72.0527 88.3359 72.1172 87.9883 72.1172C87.7148 72.1172 87.459 72.0762 87.2207 71.9941C86.9863 71.9121 86.7754 71.7812 86.5879 71.6016C86.4004 71.418 86.2402 71.1797 86.1074 70.8867C85.9746 70.5938 85.873 70.2383 85.8027 69.8203C85.7324 69.4023 85.6973 68.9141 85.6973 68.3555V67.0547C85.6973 66.3555 85.752 65.7695 85.8613 65.2969C85.9707 64.8242 86.125 64.4453 86.3242 64.1602C86.5273 63.8711 86.7676 63.6641 87.0449 63.5391C87.3262 63.4141 87.6387 63.3516 87.9824 63.3516C88.2598 63.3516 88.5156 63.3926 88.75 63.4746C88.9883 63.5527 89.1992 63.6797 89.3828 63.8555C89.5703 64.0273 89.7305 64.2578 89.8633 64.5469C89.9961 64.832 90.0957 65.1816 90.1621 65.5957C90.2324 66.0098 90.2676 66.4961 90.2676 67.0547ZM89.2363 68.5312V66.873C89.2363 66.4902 89.2188 66.1543 89.1836 65.8652C89.1484 65.5723 89.0957 65.3223 89.0254 65.1152C88.959 64.9082 88.875 64.7402 88.7734 64.6113C88.6719 64.4824 88.5547 64.3887 88.4219 64.3301C88.2891 64.2676 88.1426 64.2363 87.9824 64.2363C87.7832 64.2363 87.6055 64.2852 87.4492 64.3828C87.2969 64.4766 87.166 64.627 87.0566 64.834C86.9512 65.041 86.8711 65.3125 86.8164 65.6484C86.7617 65.9844 86.7344 66.3926 86.7344 66.873V68.5312C86.7344 68.9141 86.752 69.252 86.7871 69.5449C86.8262 69.8379 86.8789 70.0918 86.9453 70.3066C87.0156 70.5176 87.1016 70.6914 87.2031 70.8281C87.3047 70.9648 87.4219 71.0664 87.5547 71.1328C87.6875 71.1953 87.832 71.2266 87.9883 71.2266C88.1953 71.2266 88.375 71.1758 88.5273 71.0742C88.6836 70.9727 88.8145 70.8145 88.9199 70.5996C89.0254 70.3809 89.1035 70.1016 89.1543 69.7617C89.209 69.418 89.2363 69.0078 89.2363 68.5312ZM96.1973 67.0547V68.3555C96.1973 69.0547 96.1426 69.6445 96.0332 70.125C95.9277 70.6055 95.7754 70.9922 95.5762 71.2852C95.377 71.5781 95.1367 71.791 94.8555 71.9238C94.5781 72.0527 94.2656 72.1172 93.918 72.1172C93.6445 72.1172 93.3887 72.0762 93.1504 71.9941C92.916 71.9121 92.7051 71.7812 92.5176 71.6016C92.3301 71.418 92.1699 71.1797 92.0371 70.8867C91.9043 70.5938 91.8027 70.2383 91.7324 69.8203C91.6621 69.4023 91.627 68.9141 91.627 68.3555V67.0547C91.627 66.3555 91.6816 65.7695 91.791 65.2969C91.9004 64.8242 92.0547 64.4453 92.2539 64.1602C92.457 63.8711 92.6973 63.6641 92.9746 63.5391C93.2559 63.4141 93.5684 63.3516 93.9121 63.3516C94.1895 63.3516 94.4453 63.3926 94.6797 63.4746C94.918 63.5527 95.1289 63.6797 95.3125 63.8555C95.5 64.0273 95.6602 64.2578 95.793 64.5469C95.9258 64.832 96.0254 65.1816 96.0918 65.5957C96.1621 66.0098 96.1973 66.4961 96.1973 67.0547ZM95.166 68.5312V66.873C95.166 66.4902 95.1484 66.1543 95.1133 65.8652C95.0781 65.5723 95.0254 65.3223 94.9551 65.1152C94.8887 64.9082 94.8047 64.7402 94.7031 64.6113C94.6016 64.4824 94.4844 64.3887 94.3516 64.3301C94.2188 64.2676 94.0723 64.2363 93.9121 64.2363C93.7129 64.2363 93.5352 64.2852 93.3789 64.3828C93.2266 64.4766 93.0957 64.627 92.9863 64.834C92.8809 65.041 92.8008 65.3125 92.7461 65.6484C92.6914 65.9844 92.6641 66.3926 92.6641 66.873V68.5312C92.6641 68.9141 92.6816 69.252 92.7168 69.5449C92.7559 69.8379 92.8086 70.0918 92.875 70.3066C92.9453 70.5176 93.0312 70.6914 93.1328 70.8281C93.2344 70.9648 93.3516 71.0664 93.4844 71.1328C93.6172 71.1953 93.7617 71.2266 93.918 71.2266C94.125 71.2266 94.3047 71.1758 94.457 71.0742C94.6133 70.9727 94.7441 70.8145 94.8496 70.5996C94.9551 70.3809 95.0332 70.1016 95.084 69.7617C95.1387 69.418 95.166 69.0078 95.166 68.5312Z" fill="#1B1716"/>
<path d="M107 72.125L109.125 70L110.062 70.9375L107 74L103.938 70.9375L104.875 70L107 72.125ZM107 63.875L104.875 66L103.938 65.0625L107 62L110.062 65.0625L109.125 66L107 63.875Z" fill="#424750"/>
<path d="M127.64 65.0576C127.64 64.8265 127.697 64.6149 127.811 64.4229C127.924 64.2308 128.076 64.0778 128.265 63.9639C128.453 63.8467 128.66 63.7881 128.885 63.7881C129.109 63.7881 129.314 63.8467 129.5 63.9639C129.686 64.0778 129.834 64.2308 129.944 64.4229C130.055 64.6149 130.11 64.8265 130.11 65.0576C130.11 65.2887 130.055 65.5003 129.944 65.6924C129.834 65.8812 129.686 66.0326 129.5 66.1465C129.314 66.2572 129.109 66.3125 128.885 66.3125C128.66 66.3125 128.453 66.2572 128.265 66.1465C128.076 66.0326 127.924 65.8812 127.811 65.6924C127.697 65.5003 127.64 65.2887 127.64 65.0576ZM128.245 65.0576C128.245 65.2367 128.307 65.3864 128.431 65.5068C128.558 65.6273 128.709 65.6875 128.885 65.6875C129.061 65.6875 129.207 65.6273 129.324 65.5068C129.445 65.3864 129.505 65.2367 129.505 65.0576C129.505 64.8753 129.445 64.7223 129.324 64.5986C129.207 64.4749 129.061 64.4131 128.885 64.4131C128.709 64.4131 128.558 64.4749 128.431 64.5986C128.307 64.7223 128.245 64.8753 128.245 65.0576ZM134.566 68.7393H135.465C135.442 69.2275 135.343 69.6491 135.167 70.0039C134.994 70.3555 134.742 70.6257 134.41 70.8145C134.081 71.0033 133.67 71.0977 133.175 71.0977C132.82 71.0977 132.499 71.0277 132.213 70.8877C131.926 70.7477 131.681 70.5475 131.476 70.2871C131.274 70.0234 131.119 69.7077 131.012 69.3398C130.904 68.972 130.851 68.5586 130.851 68.0996V66.7861C130.851 66.3304 130.904 65.9186 131.012 65.5508C131.122 65.1829 131.28 64.8688 131.485 64.6084C131.694 64.3447 131.946 64.1429 132.242 64.0029C132.542 63.863 132.88 63.793 133.258 63.793C133.72 63.793 134.111 63.8857 134.43 64.0713C134.752 64.2536 134.999 64.5221 135.172 64.877C135.348 65.2285 135.445 65.6598 135.465 66.1709H134.566C134.544 65.7965 134.485 65.4922 134.391 65.2578C134.296 65.0202 134.156 64.846 133.971 64.7354C133.788 64.6214 133.551 64.5645 133.258 64.5645C132.997 64.5645 132.771 64.6165 132.579 64.7207C132.39 64.8249 132.234 64.9746 132.11 65.1699C131.99 65.362 131.899 65.5947 131.837 65.8682C131.778 66.1383 131.749 66.4411 131.749 66.7764V68.0996C131.749 68.4121 131.773 68.7035 131.822 68.9736C131.874 69.2438 131.956 69.4814 132.066 69.6865C132.18 69.8883 132.328 70.0462 132.511 70.1602C132.693 70.2741 132.914 70.3311 133.175 70.3311C133.504 70.3311 133.764 70.2773 133.956 70.1699C134.148 70.0625 134.29 69.8916 134.381 69.6572C134.475 69.4229 134.537 69.1169 134.566 68.7393Z" fill="#1B1716"/>
</g>
</svg>
