<svg width="81" height="20" viewBox="0 0 81 20" fill="none" xmlns="http://www.w3.org/2000/svg">
<g opacity="0.3">
<rect x="0.5" y="0.5" width="63" height="19" stroke="#737781"/>
<g clip-path="url(#clip0_7606_8743)">
<path d="M7.77344 5.42188V14H6.73633V6.77539L4.94336 7.57227V6.59375L7.61523 5.42188H7.77344ZM15.1738 9.05469V10.3555C15.1738 11.0547 15.1191 11.6445 15.0098 12.125C14.9043 12.6055 14.752 12.9922 14.5527 13.2852C14.3535 13.5781 14.1133 13.791 13.832 13.9238C13.5547 14.0527 13.2422 14.1172 12.8945 14.1172C12.6211 14.1172 12.3652 14.0762 12.127 13.9941C11.8926 13.9121 11.6816 13.7812 11.4941 13.6016C11.3066 13.418 11.1465 13.1797 11.0137 12.8867C10.8809 12.5938 10.7793 12.2383 10.709 11.8203C10.6387 11.4023 10.6035 10.9141 10.6035 10.3555V9.05469C10.6035 8.35547 10.6582 7.76953 10.7676 7.29688C10.877 6.82422 11.0312 6.44531 11.2305 6.16016C11.4336 5.87109 11.6738 5.66406 11.9512 5.53906C12.2324 5.41406 12.5449 5.35156 12.8887 5.35156C13.166 5.35156 13.4219 5.39258 13.6562 5.47461C13.8945 5.55273 14.1055 5.67969 14.2891 5.85547C14.4766 6.02734 14.6367 6.25781 14.7695 6.54688C14.9023 6.83203 15.002 7.18164 15.0684 7.5957C15.1387 8.00977 15.1738 8.49609 15.1738 9.05469ZM14.1426 10.5312V8.87305C14.1426 8.49023 14.125 8.1543 14.0898 7.86523C14.0547 7.57227 14.002 7.32227 13.9316 7.11523C13.8652 6.9082 13.7812 6.74023 13.6797 6.61133C13.5781 6.48242 13.4609 6.38867 13.3281 6.33008C13.1953 6.26758 13.0488 6.23633 12.8887 6.23633C12.6895 6.23633 12.5117 6.28516 12.3555 6.38281C12.2031 6.47656 12.0723 6.62695 11.9629 6.83398C11.8574 7.04102 11.7773 7.3125 11.7227 7.64844C11.668 7.98438 11.6406 8.39258 11.6406 8.87305V10.5312C11.6406 10.9141 11.6582 11.252 11.6934 11.5449C11.7324 11.8379 11.7852 12.0918 11.8516 12.3066C11.9219 12.5176 12.0078 12.6914 12.1094 12.8281C12.2109 12.9648 12.3281 13.0664 12.4609 13.1328C12.5938 13.1953 12.7383 13.2266 12.8945 13.2266C13.1016 13.2266 13.2812 13.1758 13.4336 13.0742C13.5898 12.9727 13.7207 12.8145 13.8262 12.5996C13.9316 12.3809 14.0098 12.1016 14.0605 11.7617C14.1152 11.418 14.1426 11.0078 14.1426 10.5312ZM21.1035 9.05469V10.3555C21.1035 11.0547 21.0488 11.6445 20.9395 12.125C20.834 12.6055 20.6816 12.9922 20.4824 13.2852C20.2832 13.5781 20.043 13.791 19.7617 13.9238C19.4844 14.0527 19.1719 14.1172 18.8242 14.1172C18.5508 14.1172 18.2949 14.0762 18.0566 13.9941C17.8223 13.9121 17.6113 13.7812 17.4238 13.6016C17.2363 13.418 17.0762 13.1797 16.9434 12.8867C16.8105 12.5938 16.709 12.2383 16.6387 11.8203C16.5684 11.4023 16.5332 10.9141 16.5332 10.3555V9.05469C16.5332 8.35547 16.5879 7.76953 16.6973 7.29688C16.8066 6.82422 16.9609 6.44531 17.1602 6.16016C17.3633 5.87109 17.6035 5.66406 17.8809 5.53906C18.1621 5.41406 18.4746 5.35156 18.8184 5.35156C19.0957 5.35156 19.3516 5.39258 19.5859 5.47461C19.8242 5.55273 20.0352 5.67969 20.2188 5.85547C20.4062 6.02734 20.5664 6.25781 20.6992 6.54688C20.832 6.83203 20.9316 7.18164 20.998 7.5957C21.0684 8.00977 21.1035 8.49609 21.1035 9.05469ZM20.0723 10.5312V8.87305C20.0723 8.49023 20.0547 8.1543 20.0195 7.86523C19.9844 7.57227 19.9316 7.32227 19.8613 7.11523C19.7949 6.9082 19.7109 6.74023 19.6094 6.61133C19.5078 6.48242 19.3906 6.38867 19.2578 6.33008C19.125 6.26758 18.9785 6.23633 18.8184 6.23633C18.6191 6.23633 18.4414 6.28516 18.2852 6.38281C18.1328 6.47656 18.002 6.62695 17.8926 6.83398C17.7871 7.04102 17.707 7.3125 17.6523 7.64844C17.5977 7.98438 17.5703 8.39258 17.5703 8.87305V10.5312C17.5703 10.9141 17.5879 11.252 17.623 11.5449C17.6621 11.8379 17.7148 12.0918 17.7812 12.3066C17.8516 12.5176 17.9375 12.6914 18.0391 12.8281C18.1406 12.9648 18.2578 13.0664 18.3906 13.1328C18.5234 13.1953 18.668 13.2266 18.8242 13.2266C19.0312 13.2266 19.2109 13.1758 19.3633 13.0742C19.5195 12.9727 19.6504 12.8145 19.7559 12.5996C19.8613 12.3809 19.9395 12.1016 19.9902 11.7617C20.0449 11.418 20.0723 11.0078 20.0723 10.5312Z" fill="#1B1716"/>
</g>
<path d="M54 14.125L56.125 12L57.0625 12.9375L54 16L50.9375 12.9375L51.875 12L54 14.125ZM54 5.875L51.875 8L50.9375 7.0625L54 4L57.0625 7.0625L56.125 8L54 5.875Z" fill="#1A1C20"/>
</g>
<path opacity="0.3" d="M71.2422 11.7988L72.6533 7.7168H73.4736L71.54 13H70.9443L69.0156 7.7168H69.8359L71.2422 11.7988ZM69.5869 7.7168V13H68.7275V7.7168H69.5869ZM72.8682 13V7.7168H73.7324V13H72.8682ZM77.207 11.7988L78.6182 7.7168H79.4385L77.5049 13H76.9092L74.9805 7.7168H75.8008L77.207 11.7988ZM75.5518 7.7168V13H74.6924V7.7168H75.5518ZM78.833 13V7.7168H79.6973V13H78.833Z" fill="#1B1716"/>
<defs>
<clipPath id="clip0_7606_8743">
<rect width="18" height="12" fill="white" transform="translate(4 4)"/>
</clipPath>
</defs>
</svg>
