<svg width="831" height="24" viewBox="0 0 831 24" fill="none" xmlns="http://www.w3.org/2000/svg">
<path opacity="0.4" d="M1.05682 8.27273H2.09659V15.142H2.18182L6.95455 8.27273H7.97727V17H6.92045V10.1477H6.83523L2.07955 17H1.05682V8.27273ZM12.6147 17.1364C12.0011 17.1364 11.4727 16.9915 11.0295 16.7017C10.5863 16.4119 10.2454 16.0128 10.0067 15.5043C9.76811 14.9957 9.64879 14.4148 9.64879 13.7614C9.64879 13.0966 9.77095 12.5099 10.0153 12.0014C10.2624 11.4901 10.6062 11.0909 11.0465 10.804C11.4897 10.5142 12.0067 10.3693 12.5977 10.3693C13.0579 10.3693 13.4727 10.4545 13.842 10.625C14.2113 10.7955 14.5138 11.0341 14.7496 11.3409C14.9854 11.6477 15.1317 12.0057 15.1886 12.4148H14.1829C14.1062 12.1165 13.9357 11.8523 13.6715 11.6222C13.4102 11.3892 13.0579 11.2727 12.6147 11.2727C12.2227 11.2727 11.8789 11.375 11.5835 11.5795C11.2908 11.7812 11.0621 12.0668 10.8974 12.4361C10.7354 12.8026 10.6545 13.233 10.6545 13.7273C10.6545 14.233 10.734 14.6733 10.8931 15.0483C11.055 15.4233 11.2823 15.7145 11.5749 15.9219C11.8704 16.1293 12.217 16.233 12.6147 16.233C12.8761 16.233 13.1133 16.1875 13.3263 16.0966C13.5394 16.0057 13.7198 15.875 13.8675 15.7045C14.0153 15.5341 14.1204 15.3295 14.1829 15.0909H15.1886C15.1317 15.4773 14.9911 15.8253 14.7667 16.1349C14.5451 16.4418 14.2511 16.6861 13.8846 16.8679C13.521 17.0469 13.0977 17.1364 12.6147 17.1364ZM16.1431 11.392V10.4545H21.4613V11.392H19.3136V17H18.3079V11.392H16.1431ZM25.2475 17.1364C24.6566 17.1364 24.1381 16.9957 23.6921 16.7145C23.2489 16.4332 22.9023 16.0398 22.6523 15.5341C22.4052 15.0284 22.2816 14.4375 22.2816 13.7614C22.2816 13.0795 22.4052 12.4844 22.6523 11.9759C22.9023 11.4673 23.2489 11.0724 23.6921 10.7912C24.1381 10.5099 24.6566 10.3693 25.2475 10.3693C25.8384 10.3693 26.3555 10.5099 26.7987 10.7912C27.2447 11.0724 27.5913 11.4673 27.8384 11.9759C28.0884 12.4844 28.2134 13.0795 28.2134 13.7614C28.2134 14.4375 28.0884 15.0284 27.8384 15.5341C27.5913 16.0398 27.2447 16.4332 26.7987 16.7145C26.3555 16.9957 25.8384 17.1364 25.2475 17.1364ZM25.2475 16.233C25.6964 16.233 26.0657 16.1179 26.3555 15.8878C26.6452 15.6577 26.8597 15.3551 26.9989 14.9801C27.1381 14.6051 27.2077 14.1989 27.2077 13.7614C27.2077 13.3239 27.1381 12.9162 26.9989 12.5384C26.8597 12.1605 26.6452 11.8551 26.3555 11.6222C26.0657 11.3892 25.6964 11.2727 25.2475 11.2727C24.7987 11.2727 24.4293 11.3892 24.1396 11.6222C23.8498 11.8551 23.6353 12.1605 23.4961 12.5384C23.3569 12.9162 23.2873 13.3239 23.2873 13.7614C23.2873 14.1989 23.3569 14.6051 23.4961 14.9801C23.6353 15.3551 23.8498 15.6577 24.1396 15.8878C24.4293 16.1179 24.7987 16.233 25.2475 16.233ZM34.794 10.4545V17H33.7884V10.4545H34.794ZM34.402 13.5739V14.5114C34.1747 14.5966 33.9489 14.6719 33.7244 14.7372C33.5 14.7997 33.2642 14.8494 33.017 14.8864C32.7699 14.9205 32.4986 14.9375 32.2031 14.9375C31.4616 14.9375 30.8665 14.7372 30.4176 14.3366C29.9716 13.9361 29.7486 13.3352 29.7486 12.5341V10.4375H30.7543V12.5341C30.7543 12.8693 30.8182 13.1449 30.946 13.3608C31.0739 13.5767 31.2472 13.7372 31.4659 13.8423C31.6847 13.9474 31.9304 14 32.2031 14C32.6293 14 33.0142 13.9616 33.358 13.8849C33.7045 13.8054 34.0526 13.7017 34.402 13.5739ZM41.0199 13.267V14.2045H37.4062V13.267H41.0199ZM37.6449 10.4545V17H36.6392V10.4545H37.6449ZM41.7869 10.4545V17H40.7812V10.4545H41.7869ZM44.6293 15.517L47.7827 10.4545H48.9418V17H47.9361V11.9375L44.7997 17H43.6236V10.4545H44.6293V15.517ZM50.7837 17V10.4545H51.7894V13.3011H52.4542L54.8065 10.4545H56.1019L53.4599 13.608L56.136 17H54.8406L52.6928 14.2386H51.7894V17H50.7837ZM60.604 17V10.4545H63.2802C63.9847 10.4545 64.5444 10.6136 64.9592 10.9318C65.3739 11.25 65.5813 11.6705 65.5813 12.1932C65.5813 12.5909 65.4634 12.8991 65.2276 13.1179C64.9918 13.3338 64.6893 13.4801 64.32 13.5568C64.5614 13.5909 64.7958 13.6761 65.0231 13.8125C65.2532 13.9489 65.4435 14.1364 65.5941 14.375C65.7447 14.6108 65.82 14.9006 65.82 15.2443C65.82 15.5795 65.7347 15.8793 65.5643 16.1435C65.3938 16.4077 65.1495 16.6165 64.8313 16.7699C64.5131 16.9233 64.1325 17 63.6893 17H60.604ZM61.5586 16.0795H63.6893C64.0359 16.0795 64.3072 15.9972 64.5032 15.8324C64.6992 15.6676 64.7972 15.4432 64.7972 15.1591C64.7972 14.821 64.6992 14.5554 64.5032 14.3622C64.3072 14.1662 64.0359 14.0682 63.6893 14.0682H61.5586V16.0795ZM61.5586 13.1989H63.2802C63.5501 13.1989 63.7816 13.1619 63.9748 13.0881C64.168 13.0114 64.3157 12.9034 64.418 12.7642C64.5231 12.6222 64.5756 12.4545 64.5756 12.2614C64.5756 11.9858 64.4606 11.7699 64.2305 11.6136C64.0004 11.4545 63.6836 11.375 63.2802 11.375H61.5586V13.1989ZM67.3423 17V10.4545H70.0185C70.723 10.4545 71.2827 10.6136 71.6974 10.9318C72.1122 11.25 72.3196 11.6705 72.3196 12.1932C72.3196 12.5909 72.2017 12.8991 71.9659 13.1179C71.7301 13.3338 71.4276 13.4801 71.0582 13.5568C71.2997 13.5909 71.5341 13.6761 71.7614 13.8125C71.9915 13.9489 72.1818 14.1364 72.3324 14.375C72.483 14.6108 72.5582 14.9006 72.5582 15.2443C72.5582 15.5795 72.473 15.8793 72.3026 16.1435C72.1321 16.4077 71.8878 16.6165 71.5696 16.7699C71.2514 16.9233 70.8707 17 70.4276 17H67.3423ZM68.2969 16.0795H70.4276C70.7741 16.0795 71.0455 15.9972 71.2415 15.8324C71.4375 15.6676 71.5355 15.4432 71.5355 15.1591C71.5355 14.821 71.4375 14.5554 71.2415 14.3622C71.0455 14.1662 70.7741 14.0682 70.4276 14.0682H68.2969V16.0795ZM68.2969 13.1989H70.0185C70.2884 13.1989 70.5199 13.1619 70.7131 13.0881C70.9062 13.0114 71.054 12.9034 71.1562 12.7642C71.2614 12.6222 71.3139 12.4545 71.3139 12.2614C71.3139 11.9858 71.1989 11.7699 70.9688 11.6136C70.7386 11.4545 70.4219 11.375 70.0185 11.375H68.2969V13.1989ZM76.7397 17.1364C76.1488 17.1364 75.6303 16.9957 75.1843 16.7145C74.7411 16.4332 74.3945 16.0398 74.1445 15.5341C73.8974 15.0284 73.7738 14.4375 73.7738 13.7614C73.7738 13.0795 73.8974 12.4844 74.1445 11.9759C74.3945 11.4673 74.7411 11.0724 75.1843 10.7912C75.6303 10.5099 76.1488 10.3693 76.7397 10.3693C77.3306 10.3693 77.8477 10.5099 78.2908 10.7912C78.7369 11.0724 79.0835 11.4673 79.3306 11.9759C79.5806 12.4844 79.7056 13.0795 79.7056 13.7614C79.7056 14.4375 79.5806 15.0284 79.3306 15.5341C79.0835 16.0398 78.7369 16.4332 78.2908 16.7145C77.8477 16.9957 77.3306 17.1364 76.7397 17.1364ZM76.7397 16.233C77.1886 16.233 77.5579 16.1179 77.8477 15.8878C78.1374 15.6577 78.3519 15.3551 78.4911 14.9801C78.6303 14.6051 78.6999 14.1989 78.6999 13.7614C78.6999 13.3239 78.6303 12.9162 78.4911 12.5384C78.3519 12.1605 78.1374 11.8551 77.8477 11.6222C77.5579 11.3892 77.1886 11.2727 76.7397 11.2727C76.2908 11.2727 75.9215 11.3892 75.6317 11.6222C75.342 11.8551 75.1275 12.1605 74.9883 12.5384C74.8491 12.9162 74.7795 13.3239 74.7795 13.7614C74.7795 14.1989 74.8491 14.6051 74.9883 14.9801C75.1275 15.3551 75.342 15.6577 75.6317 15.8878C75.9215 16.1179 76.2908 16.233 76.7397 16.233ZM80.5419 18.875V16.0625H81.0874C81.2209 15.9233 81.3359 15.7727 81.4325 15.6108C81.5291 15.4489 81.6129 15.2571 81.6839 15.0355C81.7578 14.8111 81.8203 14.5384 81.8714 14.2173C81.9226 13.8935 81.968 13.5028 82.0078 13.0455L82.2294 10.4545H86.3885V16.0625H87.3942V18.875H86.3885V17H81.5476V18.875H80.5419ZM82.2294 16.0625H85.3828V11.392H83.1669L82.9964 13.0455C82.9254 13.7301 82.8374 14.3281 82.7322 14.8395C82.6271 15.3509 82.4595 15.7585 82.2294 16.0625ZM90.6552 17.1534C90.2404 17.1534 89.864 17.0753 89.5259 16.919C89.1879 16.7599 88.9194 16.5312 88.7205 16.233C88.5217 15.9318 88.4222 15.5682 88.4222 15.142C88.4222 14.767 88.4961 14.4631 88.6438 14.2301C88.7915 13.9943 88.989 13.8097 89.2362 13.6761C89.4833 13.5426 89.756 13.4432 90.0543 13.3778C90.3555 13.3097 90.658 13.2557 90.962 13.2159C91.3597 13.1648 91.6822 13.1264 91.9293 13.1009C92.1793 13.0724 92.3612 13.0256 92.4748 12.9602C92.5913 12.8949 92.6495 12.7812 92.6495 12.6193V12.5852C92.6495 12.1648 92.5344 11.8381 92.3043 11.6051C92.0771 11.3722 91.7319 11.2557 91.2688 11.2557C90.7887 11.2557 90.4123 11.3608 90.1396 11.571C89.8668 11.7812 89.6751 12.0057 89.5643 12.2443L88.6097 11.9034C88.7802 11.5057 89.0075 11.196 89.2915 10.9744C89.5785 10.75 89.891 10.5937 90.229 10.5057C90.57 10.4148 90.9052 10.3693 91.2347 10.3693C91.445 10.3693 91.6864 10.3949 91.9592 10.446C92.2347 10.4943 92.5004 10.5952 92.756 10.7486C93.0146 10.902 93.229 11.1335 93.3995 11.4432C93.57 11.7528 93.6552 12.1676 93.6552 12.6875V17H92.6495V16.1136H92.5984C92.5302 16.2557 92.4165 16.4077 92.2575 16.5696C92.0984 16.7315 91.8867 16.8693 91.6225 16.983C91.3583 17.0966 91.0359 17.1534 90.6552 17.1534ZM90.8086 16.25C91.2063 16.25 91.5415 16.1719 91.8143 16.0156C92.0898 15.8594 92.2972 15.6577 92.4364 15.4105C92.5785 15.1634 92.6495 14.9034 92.6495 14.6307V13.7102C92.6069 13.7614 92.5131 13.8082 92.3683 13.8509C92.2262 13.8906 92.0614 13.9261 91.8739 13.9574C91.6893 13.9858 91.5089 14.0114 91.3327 14.0341C91.1594 14.054 91.0188 14.071 90.9109 14.0852C90.6495 14.1193 90.4052 14.1747 90.1779 14.2514C89.9535 14.3253 89.7717 14.4375 89.6325 14.5881C89.4961 14.7358 89.4279 14.9375 89.4279 15.1932C89.4279 15.5426 89.5572 15.8068 89.8157 15.9858C90.0771 16.1619 90.408 16.25 90.8086 16.25Z" fill="#18191B"/>
<g opacity="0.3">
<rect x="157.5" y="0.5" width="673" height="23" stroke="#737781"/>
</g>
</svg>
