<svg width="107" height="24" viewBox="0 0 107 24" fill="none" xmlns="http://www.w3.org/2000/svg">
<g opacity="0.3">
<path opacity="0.7" d="M8.21875 15.7812C9.28125 16.8229 10.5417 17.3438 12 17.3438C13.4583 17.3438 14.7083 16.8229 15.75 15.7812C16.8125 14.7188 17.3438 13.4583 17.3438 12C17.3438 10.5417 16.8125 9.29167 15.75 8.25C14.7083 7.1875 13.4583 6.65625 12 6.65625C10.5417 6.65625 9.28125 7.1875 8.21875 8.25C7.17708 9.29167 6.65625 10.5417 6.65625 12C6.65625 13.4583 7.17708 14.7188 8.21875 15.7812ZM7.28125 7.3125C8.59375 6 10.1667 5.34375 12 5.34375C13.8333 5.34375 15.3958 6 16.6875 7.3125C18 8.60417 18.6562 10.1667 18.6562 12C18.6562 13.8333 18 15.4062 16.6875 16.7188C15.3958 18.0104 13.8333 18.6562 12 18.6562C10.1667 18.6562 8.59375 18.0104 7.28125 16.7188C5.98958 15.4062 5.34375 13.8333 5.34375 12C5.34375 10.1667 5.98958 8.60417 7.28125 7.3125Z" fill="#424750"/>
<path d="M33.5488 11.1367V12.0566H29.8516V11.1367H33.5488ZM29.998 7.46875V16H28.9199V7.46875H29.998ZM34.5039 7.46875V16H33.4258V7.46875H34.5039ZM38.4883 16.1172C38.1094 16.1172 37.7676 16.0605 37.4629 15.9473C37.1582 15.834 36.8984 15.6621 36.6836 15.4316C36.4688 15.1973 36.3047 14.9023 36.1914 14.5469C36.0781 14.1914 36.0215 13.7715 36.0215 13.2871V12.5723C36.0215 12.0137 36.0859 11.541 36.2148 11.1543C36.3477 10.7676 36.5254 10.457 36.748 10.2227C36.9707 9.98438 37.2227 9.8125 37.5039 9.70703C37.7852 9.59766 38.0742 9.54297 38.3711 9.54297C38.7695 9.54297 39.1094 9.60742 39.3906 9.73633C39.6719 9.86523 39.9004 10.0566 40.0762 10.3105C40.252 10.5645 40.3809 10.877 40.4629 11.248C40.5488 11.6191 40.5918 12.0469 40.5918 12.5312V13.1348H36.6309V12.25H39.5547V12.1035C39.5391 11.7754 39.4941 11.4863 39.4199 11.2363C39.3496 10.9863 39.2324 10.791 39.0684 10.6504C38.9043 10.5059 38.6719 10.4336 38.3711 10.4336C38.1797 10.4336 38.002 10.4668 37.8379 10.5332C37.6777 10.5957 37.5391 10.707 37.4219 10.8672C37.3086 11.0234 37.2188 11.2402 37.1523 11.5176C37.0898 11.7949 37.0586 12.1465 37.0586 12.5723V13.2871C37.0586 13.627 37.0898 13.9199 37.1523 14.166C37.2188 14.4082 37.3145 14.6094 37.4395 14.7695C37.5684 14.9258 37.7246 15.043 37.9082 15.1211C38.0957 15.1953 38.3086 15.2324 38.5469 15.2324C38.8945 15.2324 39.1816 15.166 39.4082 15.0332C39.6348 14.8965 39.832 14.7227 40 14.5117L40.5449 15.1621C40.4316 15.3223 40.2832 15.4766 40.0996 15.625C39.9199 15.7695 39.6973 15.8887 39.4316 15.9824C39.1699 16.0723 38.8555 16.1172 38.4883 16.1172ZM46.0703 15.3438L47.4824 9.66016H48.584L46.4922 16.9785C46.4414 17.1348 46.373 17.3027 46.2871 17.4824C46.2051 17.666 46.0996 17.8398 45.9707 18.0039C45.8418 18.168 45.6875 18.3008 45.5078 18.4023C45.3281 18.5078 45.1172 18.5605 44.875 18.5605C44.8008 18.5605 44.7051 18.5488 44.5879 18.5254C44.4746 18.502 44.3926 18.4824 44.3418 18.4668V17.5879C44.3652 17.5918 44.4023 17.5957 44.4531 17.5996C44.5039 17.6074 44.541 17.6113 44.5645 17.6113C44.7676 17.6113 44.9395 17.5781 45.0801 17.5117C45.2246 17.4492 45.3477 17.3418 45.4492 17.1895C45.5508 17.041 45.6367 16.8359 45.707 16.5742L46.0703 15.3438ZM45.1562 9.66016L46.416 14.582L46.6855 15.7246L45.9473 16.123L44.0254 9.66016H45.1562ZM53.1309 9.66016V10.5566H50.5996V9.66016H53.1309ZM50.7344 9.66016V16H49.6973V9.66016H50.7344ZM54.0625 9.66016V16H53.0254V9.66016H54.0625ZM56.7578 10.8789V18.4375H55.7207V9.66016H56.6641L56.7578 10.8789ZM60.3027 12.543V13.1348C60.3027 13.6348 60.2559 14.0723 60.1621 14.4473C60.0723 14.8184 59.9375 15.1289 59.7578 15.3789C59.582 15.625 59.3652 15.8105 59.1074 15.9355C58.8496 16.0566 58.5547 16.1172 58.2227 16.1172C57.8906 16.1172 57.6016 16.0547 57.3555 15.9297C57.1133 15.8008 56.9082 15.6152 56.7402 15.373C56.5762 15.1309 56.4453 14.8398 56.3477 14.5C56.2539 14.1562 56.1895 13.7715 56.1543 13.3457V12.4434C56.1895 11.9941 56.2539 11.5918 56.3477 11.2363C56.4414 10.877 56.5703 10.5723 56.7344 10.3223C56.9023 10.0684 57.1074 9.875 57.3496 9.74219C57.5957 9.60938 57.8828 9.54297 58.2109 9.54297C58.5508 9.54297 58.8496 9.60156 59.1074 9.71875C59.3691 9.83594 59.5879 10.0176 59.7637 10.2637C59.9434 10.5059 60.0781 10.8164 60.168 11.1953C60.2578 11.5703 60.3027 12.0195 60.3027 12.543ZM59.2656 13.1348V12.543C59.2656 12.1914 59.2383 11.8848 59.1836 11.623C59.1328 11.3613 59.0508 11.1445 58.9375 10.9727C58.8242 10.8008 58.6816 10.6719 58.5098 10.5859C58.3379 10.5 58.1309 10.457 57.8887 10.457C57.6816 10.457 57.498 10.5 57.3379 10.5859C57.1816 10.6719 57.0469 10.7891 56.9336 10.9375C56.8203 11.082 56.7266 11.248 56.6523 11.4355C56.5781 11.6191 56.5234 11.8105 56.4883 12.0098V13.7852C56.5547 14.0352 56.6426 14.2715 56.752 14.4941C56.8613 14.7129 57.0078 14.8906 57.1914 15.0273C57.3789 15.1641 57.6152 15.2324 57.9004 15.2324C58.1387 15.2324 58.3438 15.1895 58.5156 15.1035C58.6875 15.0176 58.8281 14.8887 58.9375 14.7168C59.0508 14.541 59.1328 14.3223 59.1836 14.0605C59.2383 13.7949 59.2656 13.4863 59.2656 13.1348ZM64.7441 14.916V11.4766C64.7441 11.2266 64.7051 11.0254 64.627 10.873C64.5527 10.7207 64.4395 10.6094 64.2871 10.5391C64.1387 10.4688 63.9512 10.4336 63.7246 10.4336C63.5059 10.4336 63.3164 10.4785 63.1562 10.5684C63 10.6582 62.8789 10.7773 62.793 10.9258C62.7109 11.0742 62.6699 11.2383 62.6699 11.418H61.6328C61.6328 11.1914 61.6816 10.9668 61.7793 10.7441C61.8809 10.5215 62.0254 10.3203 62.2129 10.1406C62.4004 9.95703 62.625 9.8125 62.8867 9.70703C63.1523 9.59766 63.4492 9.54297 63.7773 9.54297C64.168 9.54297 64.5137 9.60742 64.8145 9.73633C65.1152 9.86133 65.3516 10.0664 65.5234 10.3516C65.6953 10.6367 65.7812 11.0156 65.7812 11.4883V14.6172C65.7812 14.8281 65.7969 15.0527 65.8281 15.291C65.8633 15.5293 65.9121 15.7344 65.9746 15.9062V16H64.9023C64.8516 15.875 64.8125 15.709 64.7852 15.502C64.7578 15.291 64.7441 15.0957 64.7441 14.916ZM64.9082 12.1562L64.9199 12.918H64.1992C63.9531 12.918 63.7285 12.9453 63.5254 13C63.3262 13.0547 63.1543 13.1348 63.0098 13.2402C62.8652 13.3418 62.7539 13.4688 62.6758 13.6211C62.6016 13.7734 62.5645 13.9473 62.5645 14.1426C62.5645 14.3965 62.5996 14.5996 62.6699 14.752C62.7402 14.9004 62.8457 15.0078 62.9863 15.0742C63.127 15.1406 63.3047 15.1738 63.5195 15.1738C63.7812 15.1738 64.0117 15.1133 64.2109 14.9922C64.4102 14.8711 64.5645 14.7246 64.6738 14.5527C64.7871 14.3809 64.8398 14.2207 64.832 14.0723L65.0605 14.5586C65.0449 14.7109 64.9941 14.877 64.9082 15.0566C64.8262 15.2324 64.7109 15.4023 64.5625 15.5664C64.4141 15.7266 64.2383 15.8594 64.0352 15.9648C63.8359 16.0664 63.6113 16.1172 63.3613 16.1172C62.9941 16.1172 62.6719 16.0469 62.3945 15.9062C62.1211 15.7656 61.9082 15.5586 61.7559 15.2852C61.6035 15.0117 61.5273 14.6738 61.5273 14.2715C61.5273 13.9668 61.5801 13.6855 61.6855 13.4277C61.791 13.1699 61.9473 12.9473 62.1543 12.7598C62.3613 12.5684 62.6211 12.4199 62.9336 12.3145C63.25 12.209 63.6152 12.1562 64.0293 12.1562H64.9082ZM69.9473 13.2109H68.2539L68.2422 12.3438H69.6016C69.8711 12.3438 70.0938 12.3105 70.2695 12.2441C70.4492 12.1777 70.584 12.0781 70.6738 11.9453C70.7637 11.8125 70.8086 11.6484 70.8086 11.4531C70.8086 11.3008 70.7832 11.168 70.7324 11.0547C70.6816 10.9375 70.6055 10.8418 70.5039 10.7676C70.4062 10.6895 70.2832 10.6328 70.1348 10.5977C69.9863 10.5586 69.8125 10.5391 69.6133 10.5391H68.5176V16H67.4863V9.66016H69.6133C69.957 9.66016 70.2656 9.69531 70.5391 9.76562C70.8164 9.83594 71.0508 9.94336 71.2422 10.0879C71.4375 10.2285 71.5859 10.4082 71.6875 10.627C71.793 10.8457 71.8457 11.1035 71.8457 11.4004C71.8457 11.5918 71.8125 11.7734 71.7461 11.9453C71.6797 12.1172 71.5801 12.2695 71.4473 12.4023C71.3184 12.5352 71.1582 12.6445 70.9668 12.7305C70.7754 12.8125 70.5547 12.8652 70.3047 12.8887L69.9473 13.2109ZM69.9473 16H67.8672L68.4004 15.1211H69.9473C70.1855 15.1211 70.3809 15.084 70.5332 15.0098C70.6855 14.9316 70.7988 14.8223 70.873 14.6816C70.9512 14.5371 70.9902 14.3652 70.9902 14.166C70.9902 13.9668 70.9512 13.7969 70.873 13.6562C70.7988 13.5117 70.6855 13.4023 70.5332 13.3281C70.3809 13.25 70.1855 13.2109 69.9473 13.2109H68.5586L68.5703 12.3438H70.2871L70.6504 12.6719C70.9512 12.6992 71.2031 12.7852 71.4062 12.9297C71.6133 13.0742 71.7676 13.2578 71.8691 13.4805C71.9746 13.6992 72.0273 13.9375 72.0273 14.1953C72.0273 14.4922 71.9805 14.7539 71.8867 14.9805C71.793 15.207 71.6562 15.3965 71.4766 15.5488C71.2969 15.6973 71.0781 15.8105 70.8203 15.8887C70.5625 15.9629 70.2715 16 69.9473 16ZM76.9785 9.66016V10.5566H74.4531V9.66016H76.9785ZM77.9043 9.66016V16H76.873V9.66016H77.9043ZM74.207 9.66016H75.2441L75.0977 12.7188C75.0742 13.1914 75.0352 13.6094 74.9805 13.9727C74.9297 14.332 74.8574 14.6406 74.7637 14.8984C74.6738 15.1562 74.5605 15.3672 74.4238 15.5312C74.291 15.6914 74.1309 15.8105 73.9434 15.8887C73.7598 15.9629 73.5469 16 73.3047 16H72.9941V15.0449L73.1992 15.0273C73.3359 15.0156 73.4531 14.9766 73.5508 14.9102C73.6523 14.8438 73.7344 14.7461 73.7969 14.6172C73.8633 14.4844 73.916 14.3145 73.9551 14.1074C73.998 13.9004 74.0312 13.6543 74.0547 13.3691C74.0781 13.084 74.0957 12.752 74.1074 12.373L74.207 9.66016ZM80.6172 12.9766H81.7305L80.166 16H79.0527L80.6172 12.9766ZM81.4316 9.66016H83.7051V16H82.6738V10.5391H81.4316C81.1934 10.5391 80.998 10.5918 80.8457 10.6973C80.6934 10.7988 80.582 10.9316 80.5117 11.0957C80.4414 11.2598 80.4062 11.4297 80.4062 11.6055C80.4062 11.7773 80.4375 11.9434 80.5 12.1035C80.5664 12.2598 80.668 12.3887 80.8047 12.4902C80.9453 12.5918 81.125 12.6426 81.3438 12.6426H82.9316V13.5332H81.3438C81.0312 13.5332 80.752 13.4844 80.5059 13.3867C80.2637 13.2891 80.0566 13.1543 79.8848 12.9824C79.7168 12.8066 79.5879 12.6016 79.498 12.3672C79.4121 12.1289 79.3691 11.8711 79.3691 11.5938C79.3691 11.3164 79.4141 11.0605 79.5039 10.8262C79.5977 10.5918 79.7324 10.3867 79.9082 10.2109C80.0879 10.0352 80.3047 9.90039 80.5586 9.80664C80.8125 9.70898 81.1035 9.66016 81.4316 9.66016ZM87.625 16.1172C87.2461 16.1172 86.9043 16.0605 86.5996 15.9473C86.2949 15.834 86.0352 15.6621 85.8203 15.4316C85.6055 15.1973 85.4414 14.9023 85.3281 14.5469C85.2148 14.1914 85.1582 13.7715 85.1582 13.2871V12.5723C85.1582 12.0137 85.2227 11.541 85.3516 11.1543C85.4844 10.7676 85.6621 10.457 85.8848 10.2227C86.1074 9.98438 86.3594 9.8125 86.6406 9.70703C86.9219 9.59766 87.2109 9.54297 87.5078 9.54297C87.9062 9.54297 88.2461 9.60742 88.5273 9.73633C88.8086 9.86523 89.0371 10.0566 89.2129 10.3105C89.3887 10.5645 89.5176 10.877 89.5996 11.248C89.6855 11.6191 89.7285 12.0469 89.7285 12.5312V13.1348H85.7676V12.25H88.6914V12.1035C88.6758 11.7754 88.6309 11.4863 88.5566 11.2363C88.4863 10.9863 88.3691 10.791 88.2051 10.6504C88.041 10.5059 87.8086 10.4336 87.5078 10.4336C87.3164 10.4336 87.1387 10.4668 86.9746 10.5332C86.8145 10.5957 86.6758 10.707 86.5586 10.8672C86.4453 11.0234 86.3555 11.2402 86.2891 11.5176C86.2266 11.7949 86.1953 12.1465 86.1953 12.5723V13.2871C86.1953 13.627 86.2266 13.9199 86.2891 14.166C86.3555 14.4082 86.4512 14.6094 86.5762 14.7695C86.7051 14.9258 86.8613 15.043 87.0449 15.1211C87.2324 15.1953 87.4453 15.2324 87.6836 15.2324C88.0312 15.2324 88.3184 15.166 88.5449 15.0332C88.7715 14.8965 88.9688 14.7227 89.1367 14.5117L89.6816 15.1621C89.5684 15.3223 89.4199 15.4766 89.2363 15.625C89.0566 15.7695 88.834 15.8887 88.5684 15.9824C88.3066 16.0723 87.9922 16.1172 87.625 16.1172ZM93.1914 9.66016V16H92.1543V9.66016H93.1914ZM94.9199 9.66016V10.5391H90.4492V9.66016H94.9199ZM97.75 15.2324C97.957 15.2324 98.1445 15.1914 98.3125 15.1094C98.4844 15.0234 98.625 14.8906 98.7344 14.7109C98.8438 14.5273 98.9062 14.2891 98.9219 13.9961H99.8945C99.8789 14.418 99.7715 14.7891 99.5723 15.1094C99.377 15.4258 99.1191 15.6738 98.7988 15.8535C98.4824 16.0293 98.1328 16.1172 97.75 16.1172C97.3398 16.1172 96.9824 16.0508 96.6777 15.918C96.377 15.7852 96.127 15.5938 95.9277 15.3438C95.7324 15.0898 95.5859 14.7832 95.4883 14.4238C95.3906 14.0605 95.3418 13.6484 95.3418 13.1875V12.4727C95.3418 12.0117 95.3906 11.6016 95.4883 11.2422C95.5859 10.8789 95.7324 10.5723 95.9277 10.3223C96.127 10.0684 96.377 9.875 96.6777 9.74219C96.9824 9.60938 97.3398 9.54297 97.75 9.54297C98.1797 9.54297 98.5508 9.63477 98.8633 9.81836C99.1797 9.99805 99.4258 10.2598 99.6016 10.6035C99.7812 10.9434 99.8789 11.3555 99.8945 11.8398H98.9219C98.9062 11.5273 98.8496 11.2676 98.752 11.0605C98.6543 10.8496 98.5215 10.6934 98.3535 10.5918C98.1855 10.4863 97.9844 10.4336 97.75 10.4336C97.4766 10.4336 97.25 10.4824 97.0703 10.5801C96.8945 10.6738 96.7559 10.8105 96.6543 10.9902C96.5527 11.1699 96.4805 11.3848 96.4375 11.6348C96.3984 11.8848 96.3789 12.1641 96.3789 12.4727V13.1875C96.3789 13.4961 96.3984 13.7773 96.4375 14.0312C96.4805 14.2812 96.5508 14.4961 96.6484 14.6758C96.75 14.8555 96.8906 14.9941 97.0703 15.0918C97.25 15.1855 97.4766 15.2324 97.75 15.2324ZM102.145 12.9766H103.258L101.693 16H100.58L102.145 12.9766ZM102.959 9.66016H105.232V16H104.201V10.5391H102.959C102.721 10.5391 102.525 10.5918 102.373 10.6973C102.221 10.7988 102.109 10.9316 102.039 11.0957C101.969 11.2598 101.934 11.4297 101.934 11.6055C101.934 11.7773 101.965 11.9434 102.027 12.1035C102.094 12.2598 102.195 12.3887 102.332 12.4902C102.473 12.5918 102.652 12.6426 102.871 12.6426H104.459V13.5332H102.871C102.559 13.5332 102.279 13.4844 102.033 13.3867C101.791 13.2891 101.584 13.1543 101.412 12.9824C101.244 12.8066 101.115 12.6016 101.025 12.3672C100.939 12.1289 100.896 11.8711 100.896 11.5938C100.896 11.3164 100.941 11.0605 101.031 10.8262C101.125 10.5918 101.26 10.3867 101.436 10.2109C101.615 10.0352 101.832 9.90039 102.086 9.80664C102.34 9.70898 102.631 9.66016 102.959 9.66016Z" fill="#1B1716"/>
</g>
</svg>
