<svg width="200" height="92" viewBox="0 0 200 92" fill="none" xmlns="http://www.w3.org/2000/svg">
<g opacity="0.5">
<rect width="200" height="24" fill="#D9D9E0"/>
<path d="M12.8608 16V7.27273H16.2017C16.8324 7.27273 17.3565 7.37216 17.7741 7.57102C18.1946 7.76705 18.5085 8.03551 18.7159 8.37642C18.9261 8.71733 19.0312 9.10369 19.0312 9.53551C19.0312 9.89062 18.9631 10.1946 18.8267 10.4474C18.6903 10.6974 18.5071 10.9006 18.277 11.0568C18.0469 11.2131 17.7898 11.3253 17.5057 11.3935V11.4787C17.8153 11.4957 18.1122 11.5909 18.3963 11.7642C18.6832 11.9347 18.9176 12.1761 19.0994 12.4886C19.2813 12.8011 19.3722 13.179 19.3722 13.6222C19.3722 14.0739 19.2628 14.4801 19.044 14.8409C18.8253 15.1989 18.4957 15.4815 18.0554 15.6889C17.6151 15.8963 17.0611 16 16.3935 16H12.8608ZM14.4418 14.679H16.142C16.7159 14.679 17.1293 14.5696 17.3821 14.3509C17.6378 14.1293 17.7656 13.8452 17.7656 13.4986C17.7656 13.2401 17.7017 13.0071 17.5739 12.7997C17.446 12.5895 17.2642 12.4247 17.0284 12.3054C16.7926 12.1832 16.5114 12.1222 16.1847 12.1222H14.4418V14.679ZM14.4418 10.9844H16.0057C16.2784 10.9844 16.5241 10.9347 16.7429 10.8352C16.9616 10.733 17.1335 10.5895 17.2585 10.4048C17.3864 10.2173 17.4503 9.99574 17.4503 9.74006C17.4503 9.40199 17.331 9.12358 17.0923 8.90483C16.8565 8.68608 16.5057 8.5767 16.0398 8.5767H14.4418V10.9844ZM20.6793 18.4545V9.45455H22.1964V10.5369H22.2859C22.3654 10.3778 22.4776 10.2088 22.6225 10.0298C22.7674 9.84801 22.9634 9.69318 23.2106 9.56534C23.4577 9.43466 23.7731 9.36932 24.1566 9.36932C24.6623 9.36932 25.1183 9.49858 25.5245 9.7571C25.9336 10.0128 26.2575 10.392 26.4961 10.8949C26.7376 11.3949 26.8583 12.0085 26.8583 12.7358C26.8583 13.4545 26.7404 14.0653 26.5046 14.5682C26.2688 15.071 25.9478 15.4545 25.5415 15.7188C25.1353 15.983 24.6751 16.1151 24.1609 16.1151C23.7859 16.1151 23.4748 16.0526 23.2276 15.9276C22.9805 15.8026 22.7816 15.652 22.631 15.4759C22.4833 15.2969 22.3683 15.1278 22.2859 14.9688H22.2219V18.4545H20.6793ZM22.1921 12.7273C22.1921 13.1506 22.2518 13.5213 22.3711 13.8395C22.4933 14.1577 22.668 14.4062 22.8952 14.5852C23.1254 14.7614 23.4038 14.8494 23.7305 14.8494C24.0714 14.8494 24.3569 14.7585 24.587 14.5767C24.8171 14.392 24.9904 14.1406 25.1069 13.8224C25.2262 13.5014 25.2859 13.1364 25.2859 12.7273C25.2859 12.321 25.2276 11.9602 25.1112 11.6449C24.9947 11.3295 24.8214 11.0824 24.5913 10.9034C24.3612 10.7244 24.0742 10.6349 23.7305 10.6349C23.4009 10.6349 23.1211 10.7216 22.891 10.8949C22.6609 11.0682 22.4862 11.3111 22.3668 11.6236C22.2504 11.9361 22.1921 12.304 22.1921 12.7273ZM31.0771 16.1278C30.4208 16.1278 29.854 15.9915 29.3768 15.7188C28.9023 15.4432 28.5373 15.054 28.2816 14.5511C28.0259 14.0455 27.8981 13.4503 27.8981 12.7656C27.8981 12.0923 28.0259 11.5014 28.2816 10.9929C28.5401 10.4815 28.9009 10.0838 29.364 9.79972C29.8271 9.51278 30.3711 9.36932 30.9961 9.36932C31.3995 9.36932 31.7802 9.43466 32.1381 9.56534C32.4989 9.69318 32.8171 9.89205 33.0927 10.1619C33.3711 10.4318 33.5898 10.7756 33.7489 11.1932C33.908 11.608 33.9876 12.1023 33.9876 12.6761V13.1491H28.6225V12.1094H32.5089C32.506 11.8139 32.4421 11.5511 32.3171 11.321C32.1921 11.0881 32.0174 10.9048 31.793 10.7713C31.5714 10.6378 31.3129 10.571 31.0174 10.571C30.7021 10.571 30.4251 10.6477 30.1864 10.8011C29.9478 10.9517 29.7617 11.1506 29.6282 11.3977C29.4975 11.642 29.4308 11.9105 29.4279 12.2031V13.1108C29.4279 13.4915 29.4975 13.8182 29.6367 14.0909C29.7759 14.3608 29.9705 14.5682 30.2205 14.7131C30.4705 14.8551 30.7631 14.9261 31.0984 14.9261C31.3228 14.9261 31.5259 14.8949 31.7077 14.8324C31.8896 14.767 32.0472 14.6719 32.1808 14.5469C32.3143 14.4219 32.4151 14.267 32.4833 14.0824L33.9237 14.2443C33.8327 14.625 33.6594 14.9574 33.4038 15.2415C33.1509 15.5227 32.8271 15.7415 32.4322 15.8977C32.0373 16.0511 31.5856 16.1278 31.0771 16.1278ZM39.0597 14.206L41.0028 9.45455H42.2472L39.6009 16H38.5227L35.9361 9.45455H37.1676L39.0597 14.206ZM36.7798 9.45455V16H35.2926V9.45455H36.7798ZM41.4034 16V9.45455H42.8778V16H41.4034ZM48.3026 16V10.7074H46.9048C46.5497 10.7074 46.277 10.7898 46.0866 10.9545C45.8963 11.1193 45.8026 11.3239 45.8054 11.5682C45.8026 11.8125 45.892 12.0142 46.0739 12.1733C46.2557 12.3324 46.5156 12.4119 46.8537 12.4119H48.7884V13.5369H46.8537C46.331 13.5369 45.8793 13.4545 45.4986 13.2898C45.1179 13.125 44.8253 12.892 44.6207 12.5909C44.4162 12.2898 44.3139 11.9375 44.3139 11.5341C44.3139 11.1136 44.4176 10.7486 44.625 10.4389C44.8352 10.1264 45.1335 9.88494 45.5199 9.71449C45.9091 9.54119 46.3707 9.45455 46.9048 9.45455H49.7472V16H48.3026ZM44.0753 16L45.9034 12.642H47.4247L45.5923 16H44.0753ZM54.277 16V9.45455H59.804V16H58.3168V10.7202H55.7514V16H54.277ZM64.2454 16.1278C63.6062 16.1278 63.0522 15.9872 62.5835 15.706C62.1147 15.4247 61.7511 15.0312 61.4925 14.5256C61.2369 14.0199 61.109 13.429 61.109 12.7528C61.109 12.0767 61.2369 11.4844 61.4925 10.9759C61.7511 10.4673 62.1147 10.0724 62.5835 9.79119C63.0522 9.50994 63.6062 9.36932 64.2454 9.36932C64.8846 9.36932 65.4386 9.50994 65.9073 9.79119C66.3761 10.0724 66.7383 10.4673 66.994 10.9759C67.2525 11.4844 67.3817 12.0767 67.3817 12.7528C67.3817 13.429 67.2525 14.0199 66.994 14.5256C66.7383 15.0312 66.3761 15.4247 65.9073 15.706C65.4386 15.9872 64.8846 16.1278 64.2454 16.1278ZM64.2539 14.892C64.6005 14.892 64.8903 14.7969 65.1232 14.6065C65.3562 14.4134 65.5295 14.1548 65.6431 13.831C65.7596 13.5071 65.8178 13.1463 65.8178 12.7486C65.8178 12.348 65.7596 11.9858 65.6431 11.6619C65.5295 11.3352 65.3562 11.0753 65.1232 10.8821C64.8903 10.6889 64.6005 10.5923 64.2539 10.5923C63.8988 10.5923 63.6033 10.6889 63.3675 10.8821C63.1346 11.0753 62.9599 11.3352 62.8434 11.6619C62.7298 11.9858 62.6729 12.348 62.6729 12.7486C62.6729 13.1463 62.7298 13.5071 62.8434 13.831C62.9599 14.1548 63.1346 14.4134 63.3675 14.6065C63.6033 14.7969 63.8988 14.892 64.2539 14.892ZM71.5462 16.1278C70.8928 16.1278 70.3317 15.9844 69.8629 15.6974C69.397 15.4105 69.0376 15.0142 68.7848 14.5085C68.5348 14 68.4098 13.4148 68.4098 12.7528C68.4098 12.0881 68.5376 11.5014 68.7933 10.9929C69.049 10.4815 69.4098 10.0838 69.8757 9.79972C70.3445 9.51278 70.8984 9.36932 71.5376 9.36932C72.0689 9.36932 72.5391 9.46733 72.9482 9.66335C73.3601 9.85653 73.6882 10.1307 73.9325 10.4858C74.1768 10.8381 74.3161 11.25 74.3501 11.7216H72.8757C72.8161 11.4062 72.674 11.1435 72.4496 10.9332C72.228 10.7202 71.9311 10.6136 71.5589 10.6136C71.2436 10.6136 70.9666 10.6989 70.728 10.8693C70.4893 11.0369 70.3033 11.2784 70.1697 11.5938C70.0391 11.9091 69.9737 12.2869 69.9737 12.7273C69.9737 13.1733 70.0391 13.5568 70.1697 13.8778C70.3004 14.196 70.4837 14.4418 70.7195 14.6151C70.9581 14.7855 71.2379 14.8707 71.5589 14.8707C71.7862 14.8707 71.9893 14.8281 72.1683 14.7429C72.3501 14.6548 72.5021 14.5284 72.6243 14.3636C72.7464 14.1989 72.8303 13.9986 72.8757 13.7628H74.3501C74.3132 14.2259 74.1768 14.6364 73.9411 14.9943C73.7053 15.3494 73.3842 15.6278 72.978 15.8295C72.5717 16.0284 72.0945 16.1278 71.5462 16.1278ZM75.1651 16L75.1566 14.7301H75.3825C75.5529 14.7301 75.6964 14.6918 75.8129 14.6151C75.9293 14.5384 76.0259 14.4105 76.1026 14.2315C76.1793 14.0497 76.239 13.8054 76.2816 13.4986C76.3242 13.1918 76.354 12.8097 76.3711 12.3523L76.4862 9.45455H81.2589V16H79.7674V10.7202H77.8881L77.7859 12.8295C77.7603 13.375 77.6992 13.848 77.6026 14.2486C77.5089 14.6463 77.3754 14.9744 77.2021 15.233C77.0316 15.4915 76.8171 15.6847 76.5586 15.8125C76.3001 15.9375 75.9947 16 75.6424 16H75.1651ZM85.7099 16.1278C85.0536 16.1278 84.4869 15.9915 84.0096 15.7188C83.5352 15.4432 83.1701 15.054 82.9144 14.5511C82.6587 14.0455 82.5309 13.4503 82.5309 12.7656C82.5309 12.0923 82.6587 11.5014 82.9144 10.9929C83.1729 10.4815 83.5337 10.0838 83.9968 9.79972C84.4599 9.51278 85.0039 9.36932 85.6289 9.36932C86.0323 9.36932 86.413 9.43466 86.771 9.56534C87.1317 9.69318 87.4499 9.89205 87.7255 10.1619C88.0039 10.4318 88.2227 10.7756 88.3817 11.1932C88.5408 11.608 88.6204 12.1023 88.6204 12.6761V13.1491H83.2553V12.1094H87.1417C87.1388 11.8139 87.0749 11.5511 86.9499 11.321C86.8249 11.0881 86.6502 10.9048 86.4258 10.7713C86.2042 10.6378 85.9457 10.571 85.6502 10.571C85.3349 10.571 85.0579 10.6477 84.8192 10.8011C84.5806 10.9517 84.3945 11.1506 84.261 11.3977C84.1303 11.642 84.0636 11.9105 84.0607 12.2031V13.1108C84.0607 13.4915 84.1303 13.8182 84.2695 14.0909C84.4087 14.3608 84.6033 14.5682 84.8533 14.7131C85.1033 14.8551 85.396 14.9261 85.7312 14.9261C85.9556 14.9261 86.1587 14.8949 86.3406 14.8324C86.5224 14.767 86.68 14.6719 86.8136 14.5469C86.9471 14.4219 87.0479 14.267 87.1161 14.0824L88.5565 14.2443C88.4656 14.625 88.2923 14.9574 88.0366 15.2415C87.7837 15.5227 87.4599 15.7415 87.065 15.8977C86.6701 16.0511 86.2184 16.1278 85.7099 16.1278Z" fill="#1A1C20"/>
</g>
<g opacity="0.3">
<path d="M20.2188 51.7812C21.2812 52.8229 22.5417 53.3438 24 53.3438C25.4583 53.3438 26.7083 52.8229 27.75 51.7812C28.8125 50.7188 29.3438 49.4583 29.3438 48C29.3438 46.5417 28.8125 45.2917 27.75 44.25C26.7083 43.1875 25.4583 42.6562 24 42.6562C22.5417 42.6562 21.2812 43.1875 20.2188 44.25C19.1771 45.2917 18.6562 46.5417 18.6562 48C18.6562 49.4583 19.1771 50.7188 20.2188 51.7812ZM19.2812 43.3125C20.5938 42 22.1667 41.3438 24 41.3438C25.8333 41.3438 27.3958 42 28.6875 43.3125C30 44.6042 30.6562 46.1667 30.6562 48C30.6562 49.8333 30 51.4062 28.6875 52.7188C27.3958 54.0104 25.8333 54.6562 24 54.6562C22.1667 54.6562 20.5938 54.0104 19.2812 52.7188C17.9896 51.4062 17.3438 49.8333 17.3438 48C17.3438 46.1667 17.9896 44.6042 19.2812 43.3125ZM21.625 45.6562C22.2917 44.9896 23.0833 44.6562 24 44.6562C24.9167 44.6562 25.6979 44.9896 26.3438 45.6562C27.0104 46.3021 27.3438 47.0833 27.3438 48C27.3438 48.9167 27.0104 49.7083 26.3438 50.375C25.6979 51.0208 24.9167 51.3438 24 51.3438C23.0833 51.3438 22.2917 51.0208 21.625 50.375C20.9792 49.7083 20.6562 48.9167 20.6562 48C20.6562 47.0833 20.9792 46.3021 21.625 45.6562Z" fill="#2850A8"/>
<path d="M43.5039 48.0098H41.7695L41.7578 47.1016H43.3691C43.6113 47.1016 43.8262 47.0469 44.0137 46.9375C44.2012 46.8281 44.3477 46.6719 44.4531 46.4688C44.5625 46.2617 44.6172 46.0156 44.6172 45.7305C44.6172 45.418 44.5703 45.1641 44.4766 44.9688C44.3867 44.7695 44.248 44.625 44.0605 44.5352C43.877 44.4414 43.6426 44.3945 43.3574 44.3945H41.998V52H40.9199V43.4688H43.3574C43.7246 43.4688 44.0527 43.5137 44.3418 43.6035C44.6309 43.6895 44.875 43.8262 45.0742 44.0137C45.2773 44.1973 45.4316 44.4316 45.5371 44.7168C45.6426 45.002 45.6953 45.3438 45.6953 45.7422C45.6953 46.0938 45.6152 46.4121 45.4551 46.6973C45.2988 46.9785 45.0801 47.209 44.7988 47.3887C44.5176 47.5684 44.1934 47.6836 43.8262 47.7344L43.5039 48.0098ZM43.4629 52H41.3242L41.9512 51.0801H43.4629C43.7441 51.0801 43.9824 51.0176 44.1777 50.8926C44.373 50.7676 44.5215 50.5918 44.623 50.3652C44.7285 50.1348 44.7812 49.8633 44.7812 49.5508C44.7812 49.2344 44.7383 48.9609 44.6523 48.7305C44.5664 48.5 44.4297 48.3223 44.2422 48.1973C44.0547 48.0723 43.8086 48.0098 43.5039 48.0098H42.1152L42.127 47.1016H44.002L44.2422 47.4297C44.5938 47.4648 44.8887 47.582 45.127 47.7812C45.3691 47.9766 45.5508 48.2266 45.6719 48.5312C45.7969 48.8359 45.8594 49.1719 45.8594 49.5391C45.8594 50.0703 45.7598 50.5195 45.5605 50.8867C45.3652 51.25 45.0879 51.5273 44.7285 51.7188C44.3691 51.9062 43.9473 52 43.4629 52ZM48.1973 47.8398H49.7441C50.1816 47.8398 50.5488 47.9297 50.8457 48.1094C51.1426 48.2852 51.3672 48.5293 51.5195 48.8418C51.6719 49.1504 51.748 49.502 51.748 49.8965C51.748 50.1895 51.7051 50.4648 51.6191 50.7227C51.5332 50.9766 51.4043 51.1992 51.2324 51.3906C51.0645 51.582 50.8555 51.7324 50.6055 51.8418C50.3594 51.9473 50.0723 52 49.7441 52H47.4238V45.6602H48.4551V51.1094H49.7441C49.9863 51.1094 50.1777 51.0527 50.3184 50.9395C50.459 50.8262 50.5586 50.6797 50.6172 50.5C50.6797 50.3203 50.7109 50.1328 50.7109 49.9375C50.7109 49.7461 50.6797 49.5586 50.6172 49.375C50.5586 49.1914 50.459 49.0391 50.3184 48.918C50.1777 48.793 49.9863 48.7305 49.7441 48.7305H48.1973V47.8398ZM53.6816 45.6602V52H52.6445V45.6602H53.6816ZM56.6289 45.6602V52H55.5918V45.6602H56.6289ZM60.1152 45.6602L57.5664 49.293H56.2832L56.1191 48.3438H57.1445L58.873 45.6602H60.1152ZM58.9668 52L57.1094 49.1289L57.7715 48.3438L60.2676 52H58.9668ZM64.8027 45.6602V46.5566H62.2773V45.6602H64.8027ZM65.7285 45.6602V52H64.6973V45.6602H65.7285ZM62.0312 45.6602H63.0684L62.9219 48.7188C62.8984 49.1914 62.8594 49.6094 62.8047 49.9727C62.7539 50.332 62.6816 50.6406 62.5879 50.8984C62.498 51.1562 62.3848 51.3672 62.248 51.5312C62.1152 51.6914 61.9551 51.8105 61.7676 51.8887C61.584 51.9629 61.3711 52 61.1289 52H60.8184V51.0449L61.0234 51.0273C61.1602 51.0156 61.2773 50.9766 61.375 50.9102C61.4766 50.8438 61.5586 50.7461 61.6211 50.6172C61.6875 50.4844 61.7402 50.3145 61.7793 50.1074C61.8223 49.9004 61.8555 49.6543 61.8789 49.3691C61.9023 49.084 61.9199 48.752 61.9316 48.373L62.0312 45.6602Z" fill="#1B1716"/>
</g>
<g opacity="0.3">
<path opacity="0.7" d="M20.2188 83.7812C21.2812 84.8229 22.5417 85.3438 24 85.3438C25.4583 85.3438 26.7083 84.8229 27.75 83.7812C28.8125 82.7188 29.3438 81.4583 29.3438 80C29.3438 78.5417 28.8125 77.2917 27.75 76.25C26.7083 75.1875 25.4583 74.6562 24 74.6562C22.5417 74.6562 21.2812 75.1875 20.2188 76.25C19.1771 77.2917 18.6562 78.5417 18.6562 80C18.6562 81.4583 19.1771 82.7188 20.2188 83.7812ZM19.2812 75.3125C20.5938 74 22.1667 73.3438 24 73.3438C25.8333 73.3438 27.3958 74 28.6875 75.3125C30 76.6042 30.6562 78.1667 30.6562 80C30.6562 81.8333 30 83.4062 28.6875 84.7188C27.3958 86.0104 25.8333 86.6562 24 86.6562C22.1667 86.6562 20.5938 86.0104 19.2812 84.7188C17.9896 83.4062 17.3438 81.8333 17.3438 80C17.3438 78.1667 17.9896 76.6042 19.2812 75.3125Z" fill="#424750"/>
<rect x="39.5" y="70.5" width="90" height="19" stroke="#1A1C20"/>
<g clip-path="url(#clip0_7607_8746)">
<path d="M87.7734 75.4219V84H86.7363V76.7754L84.9434 77.5723V76.5938L87.6152 75.4219H87.7734ZM90.7734 83.4258C90.7734 83.2422 90.8301 83.0879 90.9434 82.9629C91.0605 82.834 91.2285 82.7695 91.4473 82.7695C91.666 82.7695 91.832 82.834 91.9453 82.9629C92.0625 83.0879 92.1211 83.2422 92.1211 83.4258C92.1211 83.6055 92.0625 83.7578 91.9453 83.8828C91.832 84.0078 91.666 84.0703 91.4473 84.0703C91.2285 84.0703 91.0605 84.0078 90.9434 83.8828C90.8301 83.7578 90.7734 83.6055 90.7734 83.4258ZM98.3379 79.0547V80.3555C98.3379 81.0547 98.2832 81.6445 98.1738 82.125C98.0684 82.6055 97.916 82.9922 97.7168 83.2852C97.5176 83.5781 97.2773 83.791 96.9961 83.9238C96.7188 84.0527 96.4062 84.1172 96.0586 84.1172C95.7852 84.1172 95.5293 84.0762 95.291 83.9941C95.0566 83.9121 94.8457 83.7812 94.6582 83.6016C94.4707 83.418 94.3105 83.1797 94.1777 82.8867C94.0449 82.5938 93.9434 82.2383 93.873 81.8203C93.8027 81.4023 93.7676 80.9141 93.7676 80.3555V79.0547C93.7676 78.3555 93.8223 77.7695 93.9316 77.2969C94.041 76.8242 94.1953 76.4453 94.3945 76.1602C94.5977 75.8711 94.8379 75.6641 95.1152 75.5391C95.3965 75.4141 95.709 75.3516 96.0527 75.3516C96.3301 75.3516 96.5859 75.3926 96.8203 75.4746C97.0586 75.5527 97.2695 75.6797 97.4531 75.8555C97.6406 76.0273 97.8008 76.2578 97.9336 76.5469C98.0664 76.832 98.166 77.1816 98.2324 77.5957C98.3027 78.0098 98.3379 78.4961 98.3379 79.0547ZM97.3066 80.5312V78.873C97.3066 78.4902 97.2891 78.1543 97.2539 77.8652C97.2188 77.5723 97.166 77.3223 97.0957 77.1152C97.0293 76.9082 96.9453 76.7402 96.8438 76.6113C96.7422 76.4824 96.625 76.3887 96.4922 76.3301C96.3594 76.2676 96.2129 76.2363 96.0527 76.2363C95.8535 76.2363 95.6758 76.2852 95.5195 76.3828C95.3672 76.4766 95.2363 76.627 95.127 76.834C95.0215 77.041 94.9414 77.3125 94.8867 77.6484C94.832 77.9844 94.8047 78.3926 94.8047 78.873V80.5312C94.8047 80.9141 94.8223 81.252 94.8574 81.5449C94.8965 81.8379 94.9492 82.0918 95.0156 82.3066C95.0859 82.5176 95.1719 82.6914 95.2734 82.8281C95.375 82.9648 95.4922 83.0664 95.625 83.1328C95.7578 83.1953 95.9023 83.2266 96.0586 83.2266C96.2656 83.2266 96.4453 83.1758 96.5977 83.0742C96.7539 82.9727 96.8848 82.8145 96.9902 82.5996C97.0957 82.3809 97.1738 82.1016 97.2246 81.7617C97.2793 81.418 97.3066 81.0078 97.3066 80.5312ZM104.268 79.0547V80.3555C104.268 81.0547 104.213 81.6445 104.104 82.125C103.998 82.6055 103.846 82.9922 103.646 83.2852C103.447 83.5781 103.207 83.791 102.926 83.9238C102.648 84.0527 102.336 84.1172 101.988 84.1172C101.715 84.1172 101.459 84.0762 101.221 83.9941C100.986 83.9121 100.775 83.7812 100.588 83.6016C100.4 83.418 100.24 83.1797 100.107 82.8867C99.9746 82.5938 99.873 82.2383 99.8027 81.8203C99.7324 81.4023 99.6973 80.9141 99.6973 80.3555V79.0547C99.6973 78.3555 99.752 77.7695 99.8613 77.2969C99.9707 76.8242 100.125 76.4453 100.324 76.1602C100.527 75.8711 100.768 75.6641 101.045 75.5391C101.326 75.4141 101.639 75.3516 101.982 75.3516C102.26 75.3516 102.516 75.3926 102.75 75.4746C102.988 75.5527 103.199 75.6797 103.383 75.8555C103.57 76.0273 103.73 76.2578 103.863 76.5469C103.996 76.832 104.096 77.1816 104.162 77.5957C104.232 78.0098 104.268 78.4961 104.268 79.0547ZM103.236 80.5312V78.873C103.236 78.4902 103.219 78.1543 103.184 77.8652C103.148 77.5723 103.096 77.3223 103.025 77.1152C102.959 76.9082 102.875 76.7402 102.773 76.6113C102.672 76.4824 102.555 76.3887 102.422 76.3301C102.289 76.2676 102.143 76.2363 101.982 76.2363C101.783 76.2363 101.605 76.2852 101.449 76.3828C101.297 76.4766 101.166 76.627 101.057 76.834C100.951 77.041 100.871 77.3125 100.816 77.6484C100.762 77.9844 100.734 78.3926 100.734 78.873V80.5312C100.734 80.9141 100.752 81.252 100.787 81.5449C100.826 81.8379 100.879 82.0918 100.945 82.3066C101.016 82.5176 101.102 82.6914 101.203 82.8281C101.305 82.9648 101.422 83.0664 101.555 83.1328C101.688 83.1953 101.832 83.2266 101.988 83.2266C102.195 83.2266 102.375 83.1758 102.527 83.0742C102.684 82.9727 102.814 82.8145 102.92 82.5996C103.025 82.3809 103.104 82.1016 103.154 81.7617C103.209 81.418 103.236 81.0078 103.236 80.5312Z" fill="#1B1716"/>
</g>
<path d="M119 84.125L121.125 82L122.062 82.9375L119 86L115.938 82.9375L116.875 82L119 84.125ZM119 75.875L116.875 78L115.938 77.0625L119 74L122.062 77.0625L121.125 78L119 75.875Z" fill="#2850A8"/>
<path d="M142.891 82.5586L144.584 77.6602H145.568L143.248 84H142.533L140.219 77.6602H141.203L142.891 82.5586ZM140.904 77.6602V84H139.873V77.6602H140.904ZM144.842 84V77.6602H145.879V84H144.842ZM148.662 82.2832L150.959 77.6602H151.996V84H150.959V79.377L148.662 84H147.631V77.6602H148.662V82.2832ZM157.264 80.4082V81.2871H154.574V80.4082H157.264ZM154.785 77.6602V84H153.748V77.6602H154.785ZM158.107 77.6602V84H157.07V77.6602H158.107Z" fill="#1B1716"/>
</g>
<defs>
<clipPath id="clip0_7607_8746">
<rect width="21" height="12" fill="white" transform="translate(84 74)"/>
</clipPath>
</defs>
</svg>
