<svg width="1260" height="24" viewBox="0 0 1260 24" fill="none" xmlns="http://www.w3.org/2000/svg">
<g opacity="0.3">
<rect x="0.5" y="0.5" width="1279" height="23" stroke="#C3C6D2"/>
<path d="M11.3438 7.34375L18.6562 12L11.3438 16.6562V7.34375Z" fill="#1A1C20"/>
<path d="M32.294 18.1051V14.7088H32.8778C33.0739 14.5526 33.2571 14.3324 33.4276 14.0483C33.598 13.7642 33.7429 13.375 33.8622 12.8807C33.9815 12.3864 34.0639 11.7472 34.1094 10.9631L34.3395 7.27273H39.9176V14.7088H40.8892V18.0966H39.3722V16H33.8111V18.1051H32.294ZM34.7188 14.7088H38.4006V8.59801H35.7628L35.6264 10.9631C35.5895 11.5568 35.5298 12.0881 35.4474 12.5568C35.3651 13.0256 35.2614 13.4389 35.1364 13.7969C35.0114 14.152 34.8722 14.456 34.7188 14.7088ZM44.9641 16.1278C44.3249 16.1278 43.771 15.9872 43.3022 15.706C42.8335 15.4247 42.4698 15.0312 42.2113 14.5256C41.9556 14.0199 41.8278 13.429 41.8278 12.7528C41.8278 12.0767 41.9556 11.4844 42.2113 10.9759C42.4698 10.4673 42.8335 10.0724 43.3022 9.79119C43.771 9.50994 44.3249 9.36932 44.9641 9.36932C45.6033 9.36932 46.1573 9.50994 46.6261 9.79119C47.0948 10.0724 47.457 10.4673 47.7127 10.9759C47.9712 11.4844 48.1005 12.0767 48.1005 12.7528C48.1005 13.429 47.9712 14.0199 47.7127 14.5256C47.457 15.0312 47.0948 15.4247 46.6261 15.706C46.1573 15.9872 45.6033 16.1278 44.9641 16.1278ZM44.9727 14.892C45.3192 14.892 45.609 14.7969 45.842 14.6065C46.0749 14.4134 46.2482 14.1548 46.3619 13.831C46.4783 13.5071 46.5366 13.1463 46.5366 12.7486C46.5366 12.348 46.4783 11.9858 46.3619 11.6619C46.2482 11.3352 46.0749 11.0753 45.842 10.8821C45.609 10.6889 45.3192 10.5923 44.9727 10.5923C44.6175 10.5923 44.3221 10.6889 44.0863 10.8821C43.8533 11.0753 43.6786 11.3352 43.5621 11.6619C43.4485 11.9858 43.3917 12.348 43.3917 12.7486C43.3917 13.1463 43.4485 13.5071 43.5621 13.831C43.6786 14.1548 43.8533 14.4134 44.0863 14.6065C44.3221 14.7969 44.6175 14.892 44.9727 14.892ZM49.4098 16V9.45455H54.9368V16H53.4496V10.7202H50.8842V16H49.4098ZM59.3782 16.1278C58.739 16.1278 58.185 15.9872 57.7163 15.706C57.2475 15.4247 56.8839 15.0312 56.6254 14.5256C56.3697 14.0199 56.2418 13.429 56.2418 12.7528C56.2418 12.0767 56.3697 11.4844 56.6254 10.9759C56.8839 10.4673 57.2475 10.0724 57.7163 9.79119C58.185 9.50994 58.739 9.36932 59.3782 9.36932C60.0174 9.36932 60.5714 9.50994 61.0401 9.79119C61.5089 10.0724 61.8711 10.4673 62.1268 10.9759C62.3853 11.4844 62.5146 12.0767 62.5146 12.7528C62.5146 13.429 62.3853 14.0199 62.1268 14.5256C61.8711 15.0312 61.5089 15.4247 61.0401 15.706C60.5714 15.9872 60.0174 16.1278 59.3782 16.1278ZM59.3867 14.892C59.7333 14.892 60.0231 14.7969 60.256 14.6065C60.489 14.4134 60.6623 14.1548 60.7759 13.831C60.8924 13.5071 60.9506 13.1463 60.9506 12.7486C60.9506 12.348 60.8924 11.9858 60.7759 11.6619C60.6623 11.3352 60.489 11.0753 60.256 10.8821C60.0231 10.6889 59.7333 10.5923 59.3867 10.5923C59.0316 10.5923 58.7362 10.6889 58.5004 10.8821C58.2674 11.0753 58.0927 11.3352 57.9762 11.6619C57.8626 11.9858 57.8058 12.348 57.8058 12.7486C57.8058 13.1463 57.8626 13.5071 57.9762 13.831C58.0927 14.1548 58.2674 14.4134 58.5004 14.6065C58.7362 14.7969 59.0316 14.892 59.3867 14.892ZM63.3722 16L63.3636 14.7301H63.5895C63.7599 14.7301 63.9034 14.6918 64.0199 14.6151C64.1364 14.5384 64.233 14.4105 64.3097 14.2315C64.3864 14.0497 64.446 13.8054 64.4886 13.4986C64.5313 13.1918 64.5611 12.8097 64.5781 12.3523L64.6932 9.45455H69.4659V16H67.9744V10.7202H66.0952L65.9929 12.8295C65.9673 13.375 65.9063 13.848 65.8097 14.2486C65.7159 14.6463 65.5824 14.9744 65.4091 15.233C65.2386 15.4915 65.0241 15.6847 64.7656 15.8125C64.5071 15.9375 64.2017 16 63.8494 16H63.3722ZM75.5149 12.0881V13.3537H72.0291V12.0881H75.5149ZM72.5064 9.45455V16H71.0192V9.45455H72.5064ZM76.5249 9.45455V16H75.0419V9.45455H76.5249ZM79.5728 13.9119L82.1935 9.45455H83.7788V16H82.2873V11.5384L79.6751 16H78.0856V9.45455H79.5728V13.9119ZM84.63 10.7202V9.45455H90.3572V10.7202H88.2393V16H86.7479V10.7202H84.63ZM94.2138 16.1278C93.5575 16.1278 92.9908 15.9915 92.5135 15.7188C92.0391 15.4432 91.674 15.054 91.4183 14.5511C91.1626 14.0455 91.0348 13.4503 91.0348 12.7656C91.0348 12.0923 91.1626 11.5014 91.4183 10.9929C91.6768 10.4815 92.0376 10.0838 92.5007 9.79972C92.9638 9.51278 93.5078 9.36932 94.1328 9.36932C94.5362 9.36932 94.9169 9.43466 95.2749 9.56534C95.6357 9.69318 95.9538 9.89205 96.2294 10.1619C96.5078 10.4318 96.7266 10.7756 96.8857 11.1932C97.0447 11.608 97.1243 12.1023 97.1243 12.6761V13.1491H91.7592V12.1094H95.6456C95.6428 11.8139 95.5788 11.5511 95.4538 11.321C95.3288 11.0881 95.1541 10.9048 94.9297 10.7713C94.7081 10.6378 94.4496 10.571 94.1541 10.571C93.8388 10.571 93.5618 10.6477 93.3232 10.8011C93.0845 10.9517 92.8984 11.1506 92.7649 11.3977C92.6342 11.642 92.5675 11.9105 92.5646 12.2031V13.1108C92.5646 13.4915 92.6342 13.8182 92.7734 14.0909C92.9126 14.3608 93.1072 14.5682 93.3572 14.7131C93.6072 14.8551 93.8999 14.9261 94.2351 14.9261C94.4595 14.9261 94.6626 14.8949 94.8445 14.8324C95.0263 14.767 95.1839 14.6719 95.3175 14.5469C95.451 14.4219 95.5518 14.267 95.62 14.0824L97.0604 14.2443C96.9695 14.625 96.7962 14.9574 96.5405 15.2415C96.2876 15.5227 95.9638 15.7415 95.5689 15.8977C95.174 16.0511 94.7223 16.1278 94.2138 16.1278ZM97.9776 16L97.9691 14.7301H98.195C98.3654 14.7301 98.5089 14.6918 98.6254 14.6151C98.7418 14.5384 98.8384 14.4105 98.9151 14.2315C98.9918 14.0497 99.0515 13.8054 99.0941 13.4986C99.1367 13.1918 99.1665 12.8097 99.1836 12.3523L99.2987 9.45455H104.071V16H102.58V10.7202H100.701L100.598 12.8295C100.573 13.375 100.512 13.848 100.415 14.2486C100.321 14.6463 100.188 14.9744 100.015 15.233C99.8441 15.4915 99.6296 15.6847 99.3711 15.8125C99.1126 15.9375 98.8072 16 98.4549 16H97.9776ZM106.669 11.5852H108.599C109.434 11.5852 110.081 11.7884 110.538 12.1946C110.995 12.6009 111.225 13.1335 111.228 13.7926C111.225 14.2216 111.12 14.6023 110.913 14.9347C110.708 15.267 110.41 15.5284 110.018 15.7188C109.629 15.9062 109.156 16 108.599 16H105.625V9.45455H107.112V14.7344H108.599C108.934 14.7344 109.21 14.6491 109.426 14.4787C109.642 14.3054 109.75 14.0838 109.75 13.8139C109.75 13.5298 109.642 13.2983 109.426 13.1193C109.21 12.9403 108.934 12.8509 108.599 12.8509H106.669V11.5852ZM117.046 12.0881V13.3537H113.56V12.0881H117.046ZM114.038 9.45455V16H112.55V9.45455H114.038ZM118.056 9.45455V16H116.573V9.45455H118.056ZM122.472 16.1278C121.833 16.1278 121.279 15.9872 120.81 15.706C120.341 15.4247 119.978 15.0312 119.719 14.5256C119.463 14.0199 119.336 13.429 119.336 12.7528C119.336 12.0767 119.463 11.4844 119.719 10.9759C119.978 10.4673 120.341 10.0724 120.81 9.79119C121.279 9.50994 121.833 9.36932 122.472 9.36932C123.111 9.36932 123.665 9.50994 124.134 9.79119C124.603 10.0724 124.965 10.4673 125.221 10.9759C125.479 11.4844 125.608 12.0767 125.608 12.7528C125.608 13.429 125.479 14.0199 125.221 14.5256C124.965 15.0312 124.603 15.4247 124.134 15.706C123.665 15.9872 123.111 16.1278 122.472 16.1278ZM122.48 14.892C122.827 14.892 123.117 14.7969 123.35 14.6065C123.583 14.4134 123.756 14.1548 123.87 13.831C123.986 13.5071 124.044 13.1463 124.044 12.7486C124.044 12.348 123.986 11.9858 123.87 11.6619C123.756 11.3352 123.583 11.0753 123.35 10.8821C123.117 10.6889 122.827 10.5923 122.48 10.5923C122.125 10.5923 121.83 10.6889 121.594 10.8821C121.361 11.0753 121.186 11.3352 121.07 11.6619C120.956 11.9858 120.9 12.348 120.9 12.7486C120.9 13.1463 120.956 13.5071 121.07 13.831C121.186 14.1548 121.361 14.4134 121.594 14.6065C121.83 14.7969 122.125 14.892 122.48 14.892Z" fill="#1A1C20"/>
</g>
</svg>
