<svg width="98" height="24" viewBox="0 0 98 24" fill="none" xmlns="http://www.w3.org/2000/svg">
<g opacity="0.3">
<path opacity="0.7" d="M8.21875 15.7812C9.28125 16.8229 10.5417 17.3438 12 17.3438C13.4583 17.3438 14.7083 16.8229 15.75 15.7812C16.8125 14.7188 17.3438 13.4583 17.3438 12C17.3438 10.5417 16.8125 9.29167 15.75 8.25C14.7083 7.1875 13.4583 6.65625 12 6.65625C10.5417 6.65625 9.28125 7.1875 8.21875 8.25C7.17708 9.29167 6.65625 10.5417 6.65625 12C6.65625 13.4583 7.17708 14.7188 8.21875 15.7812ZM7.28125 7.3125C8.59375 6 10.1667 5.34375 12 5.34375C13.8333 5.34375 15.3958 6 16.6875 7.3125C18 8.60417 18.6562 10.1667 18.6562 12C18.6562 13.8333 18 15.4062 16.6875 16.7188C15.3958 18.0104 13.8333 18.6562 12 18.6562C10.1667 18.6562 8.59375 18.0104 7.28125 16.7188C5.98958 15.4062 5.34375 13.8333 5.34375 12C5.34375 10.1667 5.98958 8.60417 7.28125 7.3125Z" fill="#424750"/>
<path d="M30.0508 7.46875V16H28.9727V7.46875H30.0508ZM34.4395 7.46875L31.3574 12.1621H29.623L29.4414 11.2246H30.707L33.1035 7.46875H34.4395ZM33.3262 16L30.7598 12.0156L31.3633 11.0254L34.6387 16H33.3262ZM38.6113 14.916V11.4766C38.6113 11.2266 38.5723 11.0254 38.4941 10.873C38.4199 10.7207 38.3066 10.6094 38.1543 10.5391C38.0059 10.4688 37.8184 10.4336 37.5918 10.4336C37.373 10.4336 37.1836 10.4785 37.0234 10.5684C36.8672 10.6582 36.7461 10.7773 36.6602 10.9258C36.5781 11.0742 36.5371 11.2383 36.5371 11.418H35.5C35.5 11.1914 35.5488 10.9668 35.6465 10.7441C35.748 10.5215 35.8926 10.3203 36.0801 10.1406C36.2676 9.95703 36.4922 9.8125 36.7539 9.70703C37.0195 9.59766 37.3164 9.54297 37.6445 9.54297C38.0352 9.54297 38.3809 9.60742 38.6816 9.73633C38.9824 9.86133 39.2188 10.0664 39.3906 10.3516C39.5625 10.6367 39.6484 11.0156 39.6484 11.4883V14.6172C39.6484 14.8281 39.6641 15.0527 39.6953 15.291C39.7305 15.5293 39.7793 15.7344 39.8418 15.9062V16H38.7695C38.7188 15.875 38.6797 15.709 38.6523 15.502C38.625 15.291 38.6113 15.0957 38.6113 14.916ZM38.7754 12.1562L38.7871 12.918H38.0664C37.8203 12.918 37.5957 12.9453 37.3926 13C37.1934 13.0547 37.0215 13.1348 36.877 13.2402C36.7324 13.3418 36.6211 13.4688 36.543 13.6211C36.4688 13.7734 36.4316 13.9473 36.4316 14.1426C36.4316 14.3965 36.4668 14.5996 36.5371 14.752C36.6074 14.9004 36.7129 15.0078 36.8535 15.0742C36.9941 15.1406 37.1719 15.1738 37.3867 15.1738C37.6484 15.1738 37.8789 15.1133 38.0781 14.9922C38.2773 14.8711 38.4316 14.7246 38.541 14.5527C38.6543 14.3809 38.707 14.2207 38.6992 14.0723L38.9277 14.5586C38.9121 14.7109 38.8613 14.877 38.7754 15.0566C38.6934 15.2324 38.5781 15.4023 38.4297 15.5664C38.2812 15.7266 38.1055 15.8594 37.9023 15.9648C37.7031 16.0664 37.4785 16.1172 37.2285 16.1172C36.8613 16.1172 36.5391 16.0469 36.2617 15.9062C35.9883 15.7656 35.7754 15.5586 35.623 15.2852C35.4707 15.0117 35.3945 14.6738 35.3945 14.2715C35.3945 13.9668 35.4473 13.6855 35.5527 13.4277C35.6582 13.1699 35.8145 12.9473 36.0215 12.7598C36.2285 12.5684 36.4883 12.4199 36.8008 12.3145C37.1172 12.209 37.4824 12.1562 37.8965 12.1562H38.7754ZM42.3906 9.66016V16H41.3535V9.66016H42.3906ZM45.877 9.66016L43.3281 13.293H42.0449L41.8809 12.3438H42.9062L44.6348 9.66016H45.877ZM44.7285 16L42.8711 13.1289L43.5332 12.3438L46.0293 16H44.7285ZM50.9043 14.2832L53.2012 9.66016H54.2383V16H53.2012V11.377L50.9043 16H49.873V9.66016H50.9043V14.2832ZM59.5059 12.4082V13.2871H56.8164V12.4082H59.5059ZM57.0273 9.66016V16H55.9902V9.66016H57.0273ZM60.3496 9.66016V16H59.3125V9.66016H60.3496ZM63.5664 13.2402L61.5977 9.66016H62.8457L64.082 12.2852H65.1777L65.0137 13.2402H63.5664ZM64.1172 13.1289L62.7461 16H61.4395L63.4609 12.3438L64.1172 13.1289ZM65.7051 9.66016V16H64.668V9.66016H65.7051ZM68.7754 9.66016L66.8125 13.2402H65.3594L65.1953 12.2852H66.2852L67.5273 9.66016H68.7754ZM67.6211 16L66.25 13.1289L66.9121 12.3438L68.9277 16H67.6211ZM72.1094 16.1172C71.7305 16.1172 71.3887 16.0605 71.084 15.9473C70.7793 15.834 70.5195 15.6621 70.3047 15.4316C70.0898 15.1973 69.9258 14.9023 69.8125 14.5469C69.6992 14.1914 69.6426 13.7715 69.6426 13.2871V12.5723C69.6426 12.0137 69.707 11.541 69.8359 11.1543C69.9688 10.7676 70.1465 10.457 70.3691 10.2227C70.5918 9.98438 70.8438 9.8125 71.125 9.70703C71.4062 9.59766 71.6953 9.54297 71.9922 9.54297C72.3906 9.54297 72.7305 9.60742 73.0117 9.73633C73.293 9.86523 73.5215 10.0566 73.6973 10.3105C73.873 10.5645 74.002 10.877 74.084 11.248C74.1699 11.6191 74.2129 12.0469 74.2129 12.5312V13.1348H70.252V12.25H73.1758V12.1035C73.1602 11.7754 73.1152 11.4863 73.041 11.2363C72.9707 10.9863 72.8535 10.791 72.6895 10.6504C72.5254 10.5059 72.293 10.4336 71.9922 10.4336C71.8008 10.4336 71.623 10.4668 71.459 10.5332C71.2988 10.5957 71.1602 10.707 71.043 10.8672C70.9297 11.0234 70.8398 11.2402 70.7734 11.5176C70.7109 11.7949 70.6797 12.1465 70.6797 12.5723V13.2871C70.6797 13.627 70.7109 13.9199 70.7734 14.166C70.8398 14.4082 70.9355 14.6094 71.0605 14.7695C71.1895 14.9258 71.3457 15.043 71.5293 15.1211C71.7168 15.1953 71.9297 15.2324 72.168 15.2324C72.5156 15.2324 72.8027 15.166 73.0293 15.0332C73.2559 14.8965 73.4531 14.7227 73.6211 14.5117L74.166 15.1621C74.0527 15.3223 73.9043 15.4766 73.7207 15.625C73.541 15.7695 73.3184 15.8887 73.0527 15.9824C72.791 16.0723 72.4766 16.1172 72.1094 16.1172ZM76.5977 9.66016V16H75.5605V9.66016H76.5977ZM80.084 9.66016L77.5352 13.293H76.252L76.0879 12.3438H77.1133L78.8418 9.66016H80.084ZM78.9355 16L77.0781 13.1289L77.7402 12.3438L80.2363 16H78.9355ZM83.5117 9.66016V16H82.4746V9.66016H83.5117ZM85.2402 9.66016V10.5391H80.7695V9.66016H85.2402ZM85.8789 13.1348V12.5312C85.8789 12.0391 85.9414 11.6074 86.0664 11.2363C86.1914 10.8613 86.3652 10.5488 86.5879 10.2988C86.8105 10.0488 87.0703 9.86133 87.3672 9.73633C87.6641 9.60742 87.9824 9.54297 88.3223 9.54297C88.6699 9.54297 88.9922 9.60742 89.2891 9.73633C89.5859 9.86133 89.8457 10.0488 90.0684 10.2988C90.2949 10.5488 90.4707 10.8613 90.5957 11.2363C90.7207 11.6074 90.7832 12.0391 90.7832 12.5312V13.1348C90.7832 13.627 90.7207 14.0605 90.5957 14.4355C90.4707 14.8066 90.2969 15.1172 90.0742 15.3672C89.8516 15.6172 89.5918 15.8047 89.2949 15.9297C88.998 16.0547 88.6777 16.1172 88.334 16.1172C87.9902 16.1172 87.6699 16.0547 87.373 15.9297C87.0762 15.8047 86.8145 15.6172 86.5879 15.3672C86.3652 15.1172 86.1914 14.8066 86.0664 14.4355C85.9414 14.0605 85.8789 13.627 85.8789 13.1348ZM86.916 12.5312V13.1348C86.916 13.4824 86.9512 13.7871 87.0215 14.0488C87.0918 14.3105 87.1914 14.5293 87.3203 14.7051C87.4492 14.8809 87.5996 15.0137 87.7715 15.1035C87.9434 15.1895 88.1309 15.2324 88.334 15.2324C88.5684 15.2324 88.7734 15.1895 88.9492 15.1035C89.1289 15.0137 89.2773 14.8809 89.3945 14.7051C89.5117 14.5293 89.5996 14.3105 89.6582 14.0488C89.7168 13.7871 89.7461 13.4824 89.7461 13.1348V12.5312C89.7461 12.1836 89.7109 11.8809 89.6406 11.623C89.5703 11.3613 89.4707 11.1426 89.3418 10.9668C89.2129 10.7871 89.0605 10.6543 88.8848 10.5684C88.7129 10.4785 88.5254 10.4336 88.3223 10.4336C88.123 10.4336 87.9375 10.4785 87.7656 10.5684C87.5938 10.6543 87.4434 10.7871 87.3145 10.9668C87.1895 11.1426 87.0918 11.3613 87.0215 11.623C86.9512 11.8809 86.916 12.1836 86.916 12.5312ZM93.1562 10.8789V18.4375H92.1191V9.66016H93.0625L93.1562 10.8789ZM96.7012 12.543V13.1348C96.7012 13.6348 96.6543 14.0723 96.5605 14.4473C96.4707 14.8184 96.3359 15.1289 96.1562 15.3789C95.9805 15.625 95.7637 15.8105 95.5059 15.9355C95.248 16.0566 94.9531 16.1172 94.6211 16.1172C94.2891 16.1172 94 16.0547 93.7539 15.9297C93.5117 15.8008 93.3066 15.6152 93.1387 15.373C92.9746 15.1309 92.8438 14.8398 92.7461 14.5C92.6523 14.1562 92.5879 13.7715 92.5527 13.3457V12.4434C92.5879 11.9941 92.6523 11.5918 92.7461 11.2363C92.8398 10.877 92.9688 10.5723 93.1328 10.3223C93.3008 10.0684 93.5059 9.875 93.748 9.74219C93.9941 9.60938 94.2812 9.54297 94.6094 9.54297C94.9492 9.54297 95.248 9.60156 95.5059 9.71875C95.7676 9.83594 95.9863 10.0176 96.1621 10.2637C96.3418 10.5059 96.4766 10.8164 96.5664 11.1953C96.6562 11.5703 96.7012 12.0195 96.7012 12.543ZM95.6641 13.1348V12.543C95.6641 12.1914 95.6367 11.8848 95.582 11.623C95.5312 11.3613 95.4492 11.1445 95.3359 10.9727C95.2227 10.8008 95.0801 10.6719 94.9082 10.5859C94.7363 10.5 94.5293 10.457 94.2871 10.457C94.0801 10.457 93.8965 10.5 93.7363 10.5859C93.5801 10.6719 93.4453 10.7891 93.332 10.9375C93.2188 11.082 93.125 11.248 93.0508 11.4355C92.9766 11.6191 92.9219 11.8105 92.8867 12.0098V13.7852C92.9531 14.0352 93.041 14.2715 93.1504 14.4941C93.2598 14.7129 93.4062 14.8906 93.5898 15.0273C93.7773 15.1641 94.0137 15.2324 94.2988 15.2324C94.5371 15.2324 94.7422 15.1895 94.9141 15.1035C95.0859 15.0176 95.2266 14.8887 95.3359 14.7168C95.4492 14.541 95.5312 14.3223 95.582 14.0605C95.6367 13.7949 95.6641 13.4863 95.6641 13.1348Z" fill="#1B1716"/>
</g>
</svg>
