<svg width="412" height="92" viewBox="0 0 412 92" fill="none" xmlns="http://www.w3.org/2000/svg">
<g opacity="0.5">
<rect width="198" height="24" fill="#D9D9E0"/>
<path d="M12.8608 16V7.27273H16.2017C16.8324 7.27273 17.3565 7.37216 17.7741 7.57102C18.1946 7.76705 18.5085 8.03551 18.7159 8.37642C18.9261 8.71733 19.0312 9.10369 19.0312 9.53551C19.0312 9.89062 18.9631 10.1946 18.8267 10.4474C18.6903 10.6974 18.5071 10.9006 18.277 11.0568C18.0469 11.2131 17.7898 11.3253 17.5057 11.3935V11.4787C17.8153 11.4957 18.1122 11.5909 18.3963 11.7642C18.6832 11.9347 18.9176 12.1761 19.0994 12.4886C19.2813 12.8011 19.3722 13.179 19.3722 13.6222C19.3722 14.0739 19.2628 14.4801 19.044 14.8409C18.8253 15.1989 18.4957 15.4815 18.0554 15.6889C17.6151 15.8963 17.0611 16 16.3935 16H12.8608ZM14.4418 14.679H16.142C16.7159 14.679 17.1293 14.5696 17.3821 14.3509C17.6378 14.1293 17.7656 13.8452 17.7656 13.4986C17.7656 13.2401 17.7017 13.0071 17.5739 12.7997C17.446 12.5895 17.2642 12.4247 17.0284 12.3054C16.7926 12.1832 16.5114 12.1222 16.1847 12.1222H14.4418V14.679ZM14.4418 10.9844H16.0057C16.2784 10.9844 16.5241 10.9347 16.7429 10.8352C16.9616 10.733 17.1335 10.5895 17.2585 10.4048C17.3864 10.2173 17.4503 9.99574 17.4503 9.74006C17.4503 9.40199 17.331 9.12358 17.0923 8.90483C16.8565 8.68608 16.5057 8.5767 16.0398 8.5767H14.4418V10.9844ZM20.6793 18.4545V9.45455H22.1964V10.5369H22.2859C22.3654 10.3778 22.4776 10.2088 22.6225 10.0298C22.7674 9.84801 22.9634 9.69318 23.2106 9.56534C23.4577 9.43466 23.7731 9.36932 24.1566 9.36932C24.6623 9.36932 25.1183 9.49858 25.5245 9.7571C25.9336 10.0128 26.2575 10.392 26.4961 10.8949C26.7376 11.3949 26.8583 12.0085 26.8583 12.7358C26.8583 13.4545 26.7404 14.0653 26.5046 14.5682C26.2688 15.071 25.9478 15.4545 25.5415 15.7188C25.1353 15.983 24.6751 16.1151 24.1609 16.1151C23.7859 16.1151 23.4748 16.0526 23.2276 15.9276C22.9805 15.8026 22.7816 15.652 22.631 15.4759C22.4833 15.2969 22.3683 15.1278 22.2859 14.9688H22.2219V18.4545H20.6793ZM22.1921 12.7273C22.1921 13.1506 22.2518 13.5213 22.3711 13.8395C22.4933 14.1577 22.668 14.4062 22.8952 14.5852C23.1254 14.7614 23.4038 14.8494 23.7305 14.8494C24.0714 14.8494 24.3569 14.7585 24.587 14.5767C24.8171 14.392 24.9904 14.1406 25.1069 13.8224C25.2262 13.5014 25.2859 13.1364 25.2859 12.7273C25.2859 12.321 25.2276 11.9602 25.1112 11.6449C24.9947 11.3295 24.8214 11.0824 24.5913 10.9034C24.3612 10.7244 24.0742 10.6349 23.7305 10.6349C23.4009 10.6349 23.1211 10.7216 22.891 10.8949C22.6609 11.0682 22.4862 11.3111 22.3668 11.6236C22.2504 11.9361 22.1921 12.304 22.1921 12.7273ZM31.0771 16.1278C30.4208 16.1278 29.854 15.9915 29.3768 15.7188C28.9023 15.4432 28.5373 15.054 28.2816 14.5511C28.0259 14.0455 27.8981 13.4503 27.8981 12.7656C27.8981 12.0923 28.0259 11.5014 28.2816 10.9929C28.5401 10.4815 28.9009 10.0838 29.364 9.79972C29.8271 9.51278 30.3711 9.36932 30.9961 9.36932C31.3995 9.36932 31.7802 9.43466 32.1381 9.56534C32.4989 9.69318 32.8171 9.89205 33.0927 10.1619C33.3711 10.4318 33.5898 10.7756 33.7489 11.1932C33.908 11.608 33.9876 12.1023 33.9876 12.6761V13.1491H28.6225V12.1094H32.5089C32.506 11.8139 32.4421 11.5511 32.3171 11.321C32.1921 11.0881 32.0174 10.9048 31.793 10.7713C31.5714 10.6378 31.3129 10.571 31.0174 10.571C30.7021 10.571 30.4251 10.6477 30.1864 10.8011C29.9478 10.9517 29.7617 11.1506 29.6282 11.3977C29.4975 11.642 29.4308 11.9105 29.4279 12.2031V13.1108C29.4279 13.4915 29.4975 13.8182 29.6367 14.0909C29.7759 14.3608 29.9705 14.5682 30.2205 14.7131C30.4705 14.8551 30.7631 14.9261 31.0984 14.9261C31.3228 14.9261 31.5259 14.8949 31.7077 14.8324C31.8896 14.767 32.0472 14.6719 32.1808 14.5469C32.3143 14.4219 32.4151 14.267 32.4833 14.0824L33.9237 14.2443C33.8327 14.625 33.6594 14.9574 33.4038 15.2415C33.1509 15.5227 32.8271 15.7415 32.4322 15.8977C32.0373 16.0511 31.5856 16.1278 31.0771 16.1278ZM39.0597 14.206L41.0028 9.45455H42.2472L39.6009 16H38.5227L35.9361 9.45455H37.1676L39.0597 14.206ZM36.7798 9.45455V16H35.2926V9.45455H36.7798ZM41.4034 16V9.45455H42.8778V16H41.4034ZM48.3026 16V10.7074H46.9048C46.5497 10.7074 46.277 10.7898 46.0866 10.9545C45.8963 11.1193 45.8026 11.3239 45.8054 11.5682C45.8026 11.8125 45.892 12.0142 46.0739 12.1733C46.2557 12.3324 46.5156 12.4119 46.8537 12.4119H48.7884V13.5369H46.8537C46.331 13.5369 45.8793 13.4545 45.4986 13.2898C45.1179 13.125 44.8253 12.892 44.6207 12.5909C44.4162 12.2898 44.3139 11.9375 44.3139 11.5341C44.3139 11.1136 44.4176 10.7486 44.625 10.4389C44.8352 10.1264 45.1335 9.88494 45.5199 9.71449C45.9091 9.54119 46.3707 9.45455 46.9048 9.45455H49.7472V16H48.3026ZM44.0753 16L45.9034 12.642H47.4247L45.5923 16H44.0753ZM57.1321 16.1278C56.4929 16.1278 55.9389 15.9872 55.4702 15.706C55.0014 15.4247 54.6378 15.0312 54.3793 14.5256C54.1236 14.0199 53.9957 13.429 53.9957 12.7528C53.9957 12.0767 54.1236 11.4844 54.3793 10.9759C54.6378 10.4673 55.0014 10.0724 55.4702 9.79119C55.9389 9.50994 56.4929 9.36932 57.1321 9.36932C57.7713 9.36932 58.3253 9.50994 58.794 9.79119C59.2628 10.0724 59.625 10.4673 59.8807 10.9759C60.1392 11.4844 60.2685 12.0767 60.2685 12.7528C60.2685 13.429 60.1392 14.0199 59.8807 14.5256C59.625 15.0312 59.2628 15.4247 58.794 15.706C58.3253 15.9872 57.7713 16.1278 57.1321 16.1278ZM57.1406 14.892C57.4872 14.892 57.777 14.7969 58.0099 14.6065C58.2429 14.4134 58.4162 14.1548 58.5298 13.831C58.6463 13.5071 58.7045 13.1463 58.7045 12.7486C58.7045 12.348 58.6463 11.9858 58.5298 11.6619C58.4162 11.3352 58.2429 11.0753 58.0099 10.8821C57.777 10.6889 57.4872 10.5923 57.1406 10.5923C56.7855 10.5923 56.4901 10.6889 56.2543 10.8821C56.0213 11.0753 55.8466 11.3352 55.7301 11.6619C55.6165 11.9858 55.5597 12.348 55.5597 12.7486C55.5597 13.1463 55.6165 13.5071 55.7301 13.831C55.8466 14.1548 56.0213 14.4134 56.2543 14.6065C56.4901 14.7969 56.7855 14.892 57.1406 14.892ZM64.4329 16.1278C63.7795 16.1278 63.2184 15.9844 62.7496 15.6974C62.2837 15.4105 61.9244 15.0142 61.6715 14.5085C61.4215 14 61.2965 13.4148 61.2965 12.7528C61.2965 12.0881 61.4244 11.5014 61.68 10.9929C61.9357 10.4815 62.2965 10.0838 62.7624 9.79972C63.2312 9.51278 63.7852 9.36932 64.4244 9.36932C64.9556 9.36932 65.4258 9.46733 65.8349 9.66335C66.2468 9.85653 66.5749 10.1307 66.8192 10.4858C67.0636 10.8381 67.2028 11.25 67.2369 11.7216H65.7624C65.7028 11.4062 65.5607 11.1435 65.3363 10.9332C65.1147 10.7202 64.8178 10.6136 64.4457 10.6136C64.1303 10.6136 63.8533 10.6989 63.6147 10.8693C63.3761 11.0369 63.19 11.2784 63.0565 11.5938C62.9258 11.9091 62.8604 12.2869 62.8604 12.7273C62.8604 13.1733 62.9258 13.5568 63.0565 13.8778C63.1871 14.196 63.3704 14.4418 63.6062 14.6151C63.8448 14.7855 64.1246 14.8707 64.4457 14.8707C64.6729 14.8707 64.8761 14.8281 65.055 14.7429C65.2369 14.6548 65.3888 14.5284 65.511 14.3636C65.6332 14.1989 65.717 13.9986 65.7624 13.7628H67.2369C67.1999 14.2259 67.0636 14.6364 66.8278 14.9943C66.592 15.3494 66.271 15.6278 65.8647 15.8295C65.4585 16.0284 64.9812 16.1278 64.4329 16.1278ZM68.0284 10.7202V9.45455H73.7557V10.7202H71.6378V16H70.1463V10.7202H68.0284ZM76.598 16.1321C76.1832 16.1321 75.8097 16.0582 75.4773 15.9105C75.1477 15.7599 74.8864 15.5384 74.6932 15.2457C74.5028 14.9531 74.4077 14.5923 74.4077 14.1634C74.4077 13.794 74.4759 13.4886 74.6122 13.2472C74.7486 13.0057 74.9347 12.8125 75.1705 12.6676C75.4063 12.5227 75.6719 12.4134 75.9673 12.3395C76.2656 12.2628 76.5739 12.2074 76.892 12.1733C77.2756 12.1335 77.5866 12.098 77.8253 12.0668C78.0639 12.0327 78.2372 11.9815 78.3452 11.9134C78.456 11.8423 78.5114 11.733 78.5114 11.5852V11.5597C78.5114 11.2386 78.4162 10.9901 78.2259 10.8139C78.0355 10.6378 77.7614 10.5497 77.4034 10.5497C77.0256 10.5497 76.7259 10.6321 76.5043 10.7969C76.2855 10.9616 76.1378 11.1562 76.0611 11.3807L74.6207 11.1761C74.7344 10.7784 74.9219 10.446 75.1832 10.179C75.4446 9.90909 75.7642 9.70739 76.142 9.57386C76.5199 9.4375 76.9375 9.36932 77.3949 9.36932C77.7102 9.36932 78.0241 9.40625 78.3366 9.48011C78.6491 9.55398 78.9347 9.67614 79.1932 9.84659C79.4517 10.0142 79.6591 10.2429 79.8153 10.5327C79.9744 10.8224 80.054 11.1847 80.054 11.6193V16H78.571V15.1009H78.5199C78.4261 15.2827 78.294 15.4531 78.1236 15.6122C77.956 15.7685 77.7443 15.8949 77.4886 15.9915C77.2358 16.0852 76.9389 16.1321 76.598 16.1321ZM76.9986 14.9986C77.3082 14.9986 77.5767 14.9375 77.804 14.8153C78.0313 14.6903 78.206 14.5256 78.3281 14.321C78.4531 14.1165 78.5156 13.8935 78.5156 13.652V12.8807C78.4673 12.9205 78.3849 12.9574 78.2685 12.9915C78.1548 13.0256 78.027 13.0554 77.8849 13.081C77.7429 13.1065 77.6023 13.1293 77.4631 13.1491C77.3239 13.169 77.2031 13.1861 77.1009 13.2003C76.8707 13.2315 76.6648 13.2827 76.483 13.3537C76.3011 13.4247 76.1577 13.5241 76.0526 13.652C75.9474 13.777 75.8949 13.9389 75.8949 14.1378C75.8949 14.4219 75.9986 14.6364 76.206 14.7812C76.4134 14.9261 76.6776 14.9986 76.9986 14.9986ZM86.1009 12.0881V13.3537H82.6151V12.0881H86.1009ZM83.0923 9.45455V16H81.6051V9.45455H83.0923ZM87.1108 9.45455V16H85.6278V9.45455H87.1108ZM91.5266 16.1278C90.8874 16.1278 90.3335 15.9872 89.8647 15.706C89.396 15.4247 89.0323 15.0312 88.7738 14.5256C88.5181 14.0199 88.3903 13.429 88.3903 12.7528C88.3903 12.0767 88.5181 11.4844 88.7738 10.9759C89.0323 10.4673 89.396 10.0724 89.8647 9.79119C90.3335 9.50994 90.8874 9.36932 91.5266 9.36932C92.1658 9.36932 92.7198 9.50994 93.1886 9.79119C93.6573 10.0724 94.0195 10.4673 94.2752 10.9759C94.5337 11.4844 94.663 12.0767 94.663 12.7528C94.663 13.429 94.5337 14.0199 94.2752 14.5256C94.0195 15.0312 93.6573 15.4247 93.1886 15.706C92.7198 15.9872 92.1658 16.1278 91.5266 16.1278ZM91.5352 14.892C91.8817 14.892 92.1715 14.7969 92.4045 14.6065C92.6374 14.4134 92.8107 14.1548 92.9244 13.831C93.0408 13.5071 93.0991 13.1463 93.0991 12.7486C93.0991 12.348 93.0408 11.9858 92.9244 11.6619C92.8107 11.3352 92.6374 11.0753 92.4045 10.8821C92.1715 10.6889 91.8817 10.5923 91.5352 10.5923C91.18 10.5923 90.8846 10.6889 90.6488 10.8821C90.4158 11.0753 90.2411 11.3352 90.1246 11.6619C90.011 11.9858 89.9542 12.348 89.9542 12.7486C89.9542 13.1463 90.011 13.5071 90.1246 13.831C90.2411 14.1548 90.4158 14.4134 90.6488 14.6065C90.8846 14.7969 91.18 14.892 91.5352 14.892ZM95.9723 16V9.45455H98.7209C99.4964 9.45455 100.109 9.60937 100.558 9.91903C101.009 10.2287 101.235 10.6605 101.235 11.2145C101.235 11.581 101.107 11.8807 100.852 12.1136C100.599 12.3437 100.254 12.4986 99.8161 12.5781C100.16 12.6065 100.461 12.6932 100.719 12.8381C100.981 12.983 101.185 13.1733 101.333 13.4091C101.481 13.6449 101.555 13.9162 101.555 14.223C101.555 14.5838 101.46 14.8977 101.269 15.1648C101.082 15.429 100.808 15.6349 100.447 15.7827C100.089 15.9276 99.6541 16 99.1428 16H95.9723ZM97.4169 14.7855H99.1428C99.4268 14.7855 99.6499 14.7187 99.8118 14.5852C99.9737 14.4489 100.055 14.2642 100.055 14.0312C100.055 13.7614 99.9737 13.5497 99.8118 13.3963C99.6499 13.2401 99.4268 13.1619 99.1428 13.1619H97.4169V14.7855ZM97.4169 12.1648H98.7507C98.9609 12.1648 99.1413 12.1349 99.2919 12.0753C99.4425 12.0128 99.5575 11.9261 99.6371 11.8153C99.7166 11.7017 99.7564 11.5668 99.7564 11.4105C99.7564 11.1861 99.6641 11.0099 99.4794 10.8821C99.2976 10.7543 99.0447 10.6903 98.7209 10.6903H97.4169V12.1648ZM102.828 16V9.45455H104.37V12.0966H104.933L106.902 9.45455H108.76L106.335 12.6676L108.785 16H106.919L105.125 13.5327H104.37V16H102.828ZM111.147 13.9119L113.768 9.45455H115.353V16H113.862V11.5384L111.249 16H109.66V9.45455H111.147V13.9119Z" fill="#1A1C20"/>
<rect width="198" height="24" transform="translate(214)" fill="#D9D9E0"/>
<path d="M226.861 16V7.27273H230.202C230.832 7.27273 231.357 7.37216 231.774 7.57102C232.195 7.76705 232.509 8.03551 232.716 8.37642C232.926 8.71733 233.031 9.10369 233.031 9.53551C233.031 9.89062 232.963 10.1946 232.827 10.4474C232.69 10.6974 232.507 10.9006 232.277 11.0568C232.047 11.2131 231.79 11.3253 231.506 11.3935V11.4787C231.815 11.4957 232.112 11.5909 232.396 11.7642C232.683 11.9347 232.918 12.1761 233.099 12.4886C233.281 12.8011 233.372 13.179 233.372 13.6222C233.372 14.0739 233.263 14.4801 233.044 14.8409C232.825 15.1989 232.496 15.4815 232.055 15.6889C231.615 15.8963 231.061 16 230.393 16H226.861ZM228.442 14.679H230.142C230.716 14.679 231.129 14.5696 231.382 14.3509C231.638 14.1293 231.766 13.8452 231.766 13.4986C231.766 13.2401 231.702 13.0071 231.574 12.7997C231.446 12.5895 231.264 12.4247 231.028 12.3054C230.793 12.1832 230.511 12.1222 230.185 12.1222H228.442V14.679ZM228.442 10.9844H230.006C230.278 10.9844 230.524 10.9347 230.743 10.8352C230.962 10.733 231.134 10.5895 231.259 10.4048C231.386 10.2173 231.45 9.99574 231.45 9.74006C231.45 9.40199 231.331 9.12358 231.092 8.90483C230.857 8.68608 230.506 8.5767 230.04 8.5767H228.442V10.9844ZM234.679 18.4545V9.45455H236.196V10.5369H236.286C236.365 10.3778 236.478 10.2088 236.623 10.0298C236.767 9.84801 236.963 9.69318 237.211 9.56534C237.458 9.43466 237.773 9.36932 238.157 9.36932C238.662 9.36932 239.118 9.49858 239.525 9.7571C239.934 10.0128 240.257 10.392 240.496 10.8949C240.738 11.3949 240.858 12.0085 240.858 12.7358C240.858 13.4545 240.74 14.0653 240.505 14.5682C240.269 15.071 239.948 15.4545 239.542 15.7188C239.135 15.983 238.675 16.1151 238.161 16.1151C237.786 16.1151 237.475 16.0526 237.228 15.9276C236.98 15.8026 236.782 15.652 236.631 15.4759C236.483 15.2969 236.368 15.1278 236.286 14.9688H236.222V18.4545H234.679ZM236.192 12.7273C236.192 13.1506 236.252 13.5213 236.371 13.8395C236.493 14.1577 236.668 14.4062 236.895 14.5852C237.125 14.7614 237.404 14.8494 237.73 14.8494C238.071 14.8494 238.357 14.7585 238.587 14.5767C238.817 14.392 238.99 14.1406 239.107 13.8224C239.226 13.5014 239.286 13.1364 239.286 12.7273C239.286 12.321 239.228 11.9602 239.111 11.6449C238.995 11.3295 238.821 11.0824 238.591 10.9034C238.361 10.7244 238.074 10.6349 237.73 10.6349C237.401 10.6349 237.121 10.7216 236.891 10.8949C236.661 11.0682 236.486 11.3111 236.367 11.6236C236.25 11.9361 236.192 12.304 236.192 12.7273ZM245.077 16.1278C244.421 16.1278 243.854 15.9915 243.377 15.7188C242.902 15.4432 242.537 15.054 242.282 14.5511C242.026 14.0455 241.898 13.4503 241.898 12.7656C241.898 12.0923 242.026 11.5014 242.282 10.9929C242.54 10.4815 242.901 10.0838 243.364 9.79972C243.827 9.51278 244.371 9.36932 244.996 9.36932C245.4 9.36932 245.78 9.43466 246.138 9.56534C246.499 9.69318 246.817 9.89205 247.093 10.1619C247.371 10.4318 247.59 10.7756 247.749 11.1932C247.908 11.608 247.988 12.1023 247.988 12.6761V13.1491H242.623V12.1094H246.509C246.506 11.8139 246.442 11.5511 246.317 11.321C246.192 11.0881 246.017 10.9048 245.793 10.7713C245.571 10.6378 245.313 10.571 245.017 10.571C244.702 10.571 244.425 10.6477 244.186 10.8011C243.948 10.9517 243.762 11.1506 243.628 11.3977C243.498 11.642 243.431 11.9105 243.428 12.2031V13.1108C243.428 13.4915 243.498 13.8182 243.637 14.0909C243.776 14.3608 243.971 14.5682 244.221 14.7131C244.471 14.8551 244.763 14.9261 245.098 14.9261C245.323 14.9261 245.526 14.8949 245.708 14.8324C245.89 14.767 246.047 14.6719 246.181 14.5469C246.314 14.4219 246.415 14.267 246.483 14.0824L247.924 14.2443C247.833 14.625 247.659 14.9574 247.404 15.2415C247.151 15.5227 246.827 15.7415 246.432 15.8977C246.037 16.0511 245.586 16.1278 245.077 16.1278ZM253.06 14.206L255.003 9.45455H256.247L253.601 16H252.523L249.936 9.45455H251.168L253.06 14.206ZM250.78 9.45455V16H249.293V9.45455H250.78ZM255.403 16V9.45455H256.878V16H255.403ZM262.303 16V10.7074H260.905C260.55 10.7074 260.277 10.7898 260.087 10.9545C259.896 11.1193 259.803 11.3239 259.805 11.5682C259.803 11.8125 259.892 12.0142 260.074 12.1733C260.256 12.3324 260.516 12.4119 260.854 12.4119H262.788V13.5369H260.854C260.331 13.5369 259.879 13.4545 259.499 13.2898C259.118 13.125 258.825 12.892 258.621 12.5909C258.416 12.2898 258.314 11.9375 258.314 11.5341C258.314 11.1136 258.418 10.7486 258.625 10.4389C258.835 10.1264 259.134 9.88494 259.52 9.71449C259.909 9.54119 260.371 9.45455 260.905 9.45455H263.747V16H262.303ZM258.075 16L259.903 12.642H261.425L259.592 16H258.075ZM268.277 16V9.45455H273.804V16H272.317V10.7202H269.751V16H268.277ZM278.245 16.1278C277.606 16.1278 277.052 15.9872 276.583 15.706C276.115 15.4247 275.751 15.0312 275.493 14.5256C275.237 14.0199 275.109 13.429 275.109 12.7528C275.109 12.0767 275.237 11.4844 275.493 10.9759C275.751 10.4673 276.115 10.0724 276.583 9.79119C277.052 9.50994 277.606 9.36932 278.245 9.36932C278.885 9.36932 279.439 9.50994 279.907 9.79119C280.376 10.0724 280.738 10.4673 280.994 10.9759C281.252 11.4844 281.382 12.0767 281.382 12.7528C281.382 13.429 281.252 14.0199 280.994 14.5256C280.738 15.0312 280.376 15.4247 279.907 15.706C279.439 15.9872 278.885 16.1278 278.245 16.1278ZM278.254 14.892C278.6 14.892 278.89 14.7969 279.123 14.6065C279.356 14.4134 279.529 14.1548 279.643 13.831C279.76 13.5071 279.818 13.1463 279.818 12.7486C279.818 12.348 279.76 11.9858 279.643 11.6619C279.529 11.3352 279.356 11.0753 279.123 10.8821C278.89 10.6889 278.6 10.5923 278.254 10.5923C277.899 10.5923 277.603 10.6889 277.368 10.8821C277.135 11.0753 276.96 11.3352 276.843 11.6619C276.73 11.9858 276.673 12.348 276.673 12.7486C276.673 13.1463 276.73 13.5071 276.843 13.831C276.96 14.1548 277.135 14.4134 277.368 14.6065C277.603 14.7969 277.899 14.892 278.254 14.892ZM285.546 16.1278C284.893 16.1278 284.332 15.9844 283.863 15.6974C283.397 15.4105 283.038 15.0142 282.785 14.5085C282.535 14 282.41 13.4148 282.41 12.7528C282.41 12.0881 282.538 11.5014 282.793 10.9929C283.049 10.4815 283.41 10.0838 283.876 9.79972C284.344 9.51278 284.898 9.36932 285.538 9.36932C286.069 9.36932 286.539 9.46733 286.948 9.66335C287.36 9.85653 287.688 10.1307 287.933 10.4858C288.177 10.8381 288.316 11.25 288.35 11.7216H286.876C286.816 11.4062 286.674 11.1435 286.45 10.9332C286.228 10.7202 285.931 10.6136 285.559 10.6136C285.244 10.6136 284.967 10.6989 284.728 10.8693C284.489 11.0369 284.303 11.2784 284.17 11.5938C284.039 11.9091 283.974 12.2869 283.974 12.7273C283.974 13.1733 284.039 13.5568 284.17 13.8778C284.3 14.196 284.484 14.4418 284.719 14.6151C284.958 14.7855 285.238 14.8707 285.559 14.8707C285.786 14.8707 285.989 14.8281 286.168 14.7429C286.35 14.6548 286.502 14.5284 286.624 14.3636C286.746 14.1989 286.83 13.9986 286.876 13.7628H288.35C288.313 14.2259 288.177 14.6364 287.941 14.9943C287.705 15.3494 287.384 15.6278 286.978 15.8295C286.572 16.0284 286.094 16.1278 285.546 16.1278ZM289.165 16L289.157 14.7301H289.382C289.553 14.7301 289.696 14.6918 289.813 14.6151C289.929 14.5384 290.026 14.4105 290.103 14.2315C290.179 14.0497 290.239 13.8054 290.282 13.4986C290.324 13.1918 290.354 12.8097 290.371 12.3523L290.486 9.45455H295.259V16H293.767V10.7202H291.888L291.786 12.8295C291.76 13.375 291.699 13.848 291.603 14.2486C291.509 14.6463 291.375 14.9744 291.202 15.233C291.032 15.4915 290.817 15.6847 290.559 15.8125C290.3 15.9375 289.995 16 289.642 16H289.165ZM299.71 16.1278C299.054 16.1278 298.487 15.9915 298.01 15.7188C297.535 15.4432 297.17 15.054 296.914 14.5511C296.659 14.0455 296.531 13.4503 296.531 12.7656C296.531 12.0923 296.659 11.5014 296.914 10.9929C297.173 10.4815 297.534 10.0838 297.997 9.79972C298.46 9.51278 299.004 9.36932 299.629 9.36932C300.032 9.36932 300.413 9.43466 300.771 9.56534C301.132 9.69318 301.45 9.89205 301.725 10.1619C302.004 10.4318 302.223 10.7756 302.382 11.1932C302.541 11.608 302.62 12.1023 302.62 12.6761V13.1491H297.255V12.1094H301.142C301.139 11.8139 301.075 11.5511 300.95 11.321C300.825 11.0881 300.65 10.9048 300.426 10.7713C300.204 10.6378 299.946 10.571 299.65 10.571C299.335 10.571 299.058 10.6477 298.819 10.8011C298.581 10.9517 298.395 11.1506 298.261 11.3977C298.13 11.642 298.064 11.9105 298.061 12.2031V13.1108C298.061 13.4915 298.13 13.8182 298.27 14.0909C298.409 14.3608 298.603 14.5682 298.853 14.7131C299.103 14.8551 299.396 14.9261 299.731 14.9261C299.956 14.9261 300.159 14.8949 300.341 14.8324C300.522 14.767 300.68 14.6719 300.814 14.5469C300.947 14.4219 301.048 14.267 301.116 14.0824L302.556 14.2443C302.466 14.625 302.292 14.9574 302.037 15.2415C301.784 15.5227 301.46 15.7415 301.065 15.8977C300.67 16.0511 300.218 16.1278 299.71 16.1278Z" fill="#1A1C20"/>
</g>
<g opacity="0.3">
<path d="M20.2188 51.7812C21.2812 52.8229 22.5417 53.3438 24 53.3438C25.4583 53.3438 26.7083 52.8229 27.75 51.7812C28.8125 50.7188 29.3438 49.4583 29.3438 48C29.3438 46.5417 28.8125 45.2917 27.75 44.25C26.7083 43.1875 25.4583 42.6562 24 42.6562C22.5417 42.6562 21.2812 43.1875 20.2188 44.25C19.1771 45.2917 18.6562 46.5417 18.6562 48C18.6562 49.4583 19.1771 50.7188 20.2188 51.7812ZM19.2812 43.3125C20.5938 42 22.1667 41.3438 24 41.3438C25.8333 41.3438 27.3958 42 28.6875 43.3125C30 44.6042 30.6562 46.1667 30.6562 48C30.6562 49.8333 30 51.4062 28.6875 52.7188C27.3958 54.0104 25.8333 54.6562 24 54.6562C22.1667 54.6562 20.5938 54.0104 19.2812 52.7188C17.9896 51.4062 17.3438 49.8333 17.3438 48C17.3438 46.1667 17.9896 44.6042 19.2812 43.3125ZM21.625 45.6562C22.2917 44.9896 23.0833 44.6562 24 44.6562C24.9167 44.6562 25.6979 44.9896 26.3438 45.6562C27.0104 46.3021 27.3438 47.0833 27.3438 48C27.3438 48.9167 27.0104 49.7083 26.3438 50.375C25.6979 51.0208 24.9167 51.3438 24 51.3438C23.0833 51.3438 22.2917 51.0208 21.625 50.375C20.9792 49.7083 20.6562 48.9167 20.6562 48C20.6562 47.0833 20.9792 46.3021 21.625 45.6562Z" fill="#2850A8"/>
<path d="M42.0508 43.4688V52H40.9727V43.4688H42.0508ZM46.4395 43.4688L43.3574 48.1621H41.623L41.4414 47.2246H42.707L45.1035 43.4688H46.4395ZM45.3262 52L42.7598 48.0156L43.3633 47.0254L46.6387 52H45.3262ZM50.6113 50.916V47.4766C50.6113 47.2266 50.5723 47.0254 50.4941 46.873C50.4199 46.7207 50.3066 46.6094 50.1543 46.5391C50.0059 46.4688 49.8184 46.4336 49.5918 46.4336C49.373 46.4336 49.1836 46.4785 49.0234 46.5684C48.8672 46.6582 48.7461 46.7773 48.6602 46.9258C48.5781 47.0742 48.5371 47.2383 48.5371 47.418H47.5C47.5 47.1914 47.5488 46.9668 47.6465 46.7441C47.748 46.5215 47.8926 46.3203 48.0801 46.1406C48.2676 45.957 48.4922 45.8125 48.7539 45.707C49.0195 45.5977 49.3164 45.543 49.6445 45.543C50.0352 45.543 50.3809 45.6074 50.6816 45.7363C50.9824 45.8613 51.2188 46.0664 51.3906 46.3516C51.5625 46.6367 51.6484 47.0156 51.6484 47.4883V50.6172C51.6484 50.8281 51.6641 51.0527 51.6953 51.291C51.7305 51.5293 51.7793 51.7344 51.8418 51.9062V52H50.7695C50.7188 51.875 50.6797 51.709 50.6523 51.502C50.625 51.291 50.6113 51.0957 50.6113 50.916ZM50.7754 48.1562L50.7871 48.918H50.0664C49.8203 48.918 49.5957 48.9453 49.3926 49C49.1934 49.0547 49.0215 49.1348 48.877 49.2402C48.7324 49.3418 48.6211 49.4688 48.543 49.6211C48.4688 49.7734 48.4316 49.9473 48.4316 50.1426C48.4316 50.3965 48.4668 50.5996 48.5371 50.752C48.6074 50.9004 48.7129 51.0078 48.8535 51.0742C48.9941 51.1406 49.1719 51.1738 49.3867 51.1738C49.6484 51.1738 49.8789 51.1133 50.0781 50.9922C50.2773 50.8711 50.4316 50.7246 50.541 50.5527C50.6543 50.3809 50.707 50.2207 50.6992 50.0723L50.9277 50.5586C50.9121 50.7109 50.8613 50.877 50.7754 51.0566C50.6934 51.2324 50.5781 51.4023 50.4297 51.5664C50.2812 51.7266 50.1055 51.8594 49.9023 51.9648C49.7031 52.0664 49.4785 52.1172 49.2285 52.1172C48.8613 52.1172 48.5391 52.0469 48.2617 51.9062C47.9883 51.7656 47.7754 51.5586 47.623 51.2852C47.4707 51.0117 47.3945 50.6738 47.3945 50.2715C47.3945 49.9668 47.4473 49.6855 47.5527 49.4277C47.6582 49.1699 47.8145 48.9473 48.0215 48.7598C48.2285 48.5684 48.4883 48.4199 48.8008 48.3145C49.1172 48.209 49.4824 48.1562 49.8965 48.1562H50.7754ZM54.3906 45.6602V52H53.3535V45.6602H54.3906ZM57.877 45.6602L55.3281 49.293H54.0449L53.8809 48.3438H54.9062L56.6348 45.6602H57.877ZM56.7285 52L54.8711 49.1289L55.5332 48.3438L58.0293 52H56.7285ZM65.3887 48.4082V49.2871H62.6992V48.4082H65.3887ZM62.9102 45.6602V52H61.873V45.6602H62.9102ZM66.2324 45.6602V52H65.1953V45.6602H66.2324ZM70.9902 50.916V47.4766C70.9902 47.2266 70.9512 47.0254 70.873 46.873C70.7988 46.7207 70.6855 46.6094 70.5332 46.5391C70.3848 46.4688 70.1973 46.4336 69.9707 46.4336C69.752 46.4336 69.5625 46.4785 69.4023 46.5684C69.2461 46.6582 69.125 46.7773 69.0391 46.9258C68.957 47.0742 68.916 47.2383 68.916 47.418H67.8789C67.8789 47.1914 67.9277 46.9668 68.0254 46.7441C68.127 46.5215 68.2715 46.3203 68.459 46.1406C68.6465 45.957 68.8711 45.8125 69.1328 45.707C69.3984 45.5977 69.6953 45.543 70.0234 45.543C70.4141 45.543 70.7598 45.6074 71.0605 45.7363C71.3613 45.8613 71.5977 46.0664 71.7695 46.3516C71.9414 46.6367 72.0273 47.0156 72.0273 47.4883V50.6172C72.0273 50.8281 72.043 51.0527 72.0742 51.291C72.1094 51.5293 72.1582 51.7344 72.2207 51.9062V52H71.1484C71.0977 51.875 71.0586 51.709 71.0312 51.502C71.0039 51.291 70.9902 51.0957 70.9902 50.916ZM71.1543 48.1562L71.166 48.918H70.4453C70.1992 48.918 69.9746 48.9453 69.7715 49C69.5723 49.0547 69.4004 49.1348 69.2559 49.2402C69.1113 49.3418 69 49.4688 68.9219 49.6211C68.8477 49.7734 68.8105 49.9473 68.8105 50.1426C68.8105 50.3965 68.8457 50.5996 68.916 50.752C68.9863 50.9004 69.0918 51.0078 69.2324 51.0742C69.373 51.1406 69.5508 51.1738 69.7656 51.1738C70.0273 51.1738 70.2578 51.1133 70.457 50.9922C70.6562 50.8711 70.8105 50.7246 70.9199 50.5527C71.0332 50.3809 71.0859 50.2207 71.0781 50.0723L71.3066 50.5586C71.291 50.7109 71.2402 50.877 71.1543 51.0566C71.0723 51.2324 70.957 51.4023 70.8086 51.5664C70.6602 51.7266 70.4844 51.8594 70.2812 51.9648C70.082 52.0664 69.8574 52.1172 69.6074 52.1172C69.2402 52.1172 68.918 52.0469 68.6406 51.9062C68.3672 51.7656 68.1543 51.5586 68.002 51.2852C67.8496 51.0117 67.7734 50.6738 67.7734 50.2715C67.7734 49.9668 67.8262 49.6855 67.9316 49.4277C68.0371 49.1699 68.1934 48.9473 68.4004 48.7598C68.6074 48.5684 68.8672 48.4199 69.1797 48.3145C69.4961 48.209 69.8613 48.1562 70.2754 48.1562H71.1543ZM75.8359 51.2324C76.043 51.2324 76.2305 51.1914 76.3984 51.1094C76.5703 51.0234 76.7109 50.8906 76.8203 50.7109C76.9297 50.5273 76.9922 50.2891 77.0078 49.9961H77.9805C77.9648 50.418 77.8574 50.7891 77.6582 51.1094C77.4629 51.4258 77.2051 51.6738 76.8848 51.8535C76.5684 52.0293 76.2188 52.1172 75.8359 52.1172C75.4258 52.1172 75.0684 52.0508 74.7637 51.918C74.4629 51.7852 74.2129 51.5938 74.0137 51.3438C73.8184 51.0898 73.6719 50.7832 73.5742 50.4238C73.4766 50.0605 73.4277 49.6484 73.4277 49.1875V48.4727C73.4277 48.0117 73.4766 47.6016 73.5742 47.2422C73.6719 46.8789 73.8184 46.5723 74.0137 46.3223C74.2129 46.0684 74.4629 45.875 74.7637 45.7422C75.0684 45.6094 75.4258 45.543 75.8359 45.543C76.2656 45.543 76.6367 45.6348 76.9492 45.8184C77.2656 45.998 77.5117 46.2598 77.6875 46.6035C77.8672 46.9434 77.9648 47.3555 77.9805 47.8398H77.0078C76.9922 47.5273 76.9355 47.2676 76.8379 47.0605C76.7402 46.8496 76.6074 46.6934 76.4395 46.5918C76.2715 46.4863 76.0703 46.4336 75.8359 46.4336C75.5625 46.4336 75.3359 46.4824 75.1562 46.5801C74.9805 46.6738 74.8418 46.8105 74.7402 46.9902C74.6387 47.1699 74.5664 47.3848 74.5234 47.6348C74.4844 47.8848 74.4648 48.1641 74.4648 48.4727V49.1875C74.4648 49.4961 74.4844 49.7773 74.5234 50.0312C74.5664 50.2812 74.6367 50.4961 74.7344 50.6758C74.8359 50.8555 74.9766 50.9941 75.1562 51.0918C75.3359 51.1855 75.5625 51.2324 75.8359 51.2324ZM78.9648 49.1348V48.5312C78.9648 48.0391 79.0273 47.6074 79.1523 47.2363C79.2773 46.8613 79.4512 46.5488 79.6738 46.2988C79.8965 46.0488 80.1562 45.8613 80.4531 45.7363C80.75 45.6074 81.0684 45.543 81.4082 45.543C81.7559 45.543 82.0781 45.6074 82.375 45.7363C82.6719 45.8613 82.9316 46.0488 83.1543 46.2988C83.3809 46.5488 83.5566 46.8613 83.6816 47.2363C83.8066 47.6074 83.8691 48.0391 83.8691 48.5312V49.1348C83.8691 49.627 83.8066 50.0605 83.6816 50.4355C83.5566 50.8066 83.3828 51.1172 83.1602 51.3672C82.9375 51.6172 82.6777 51.8047 82.3809 51.9297C82.084 52.0547 81.7637 52.1172 81.4199 52.1172C81.0762 52.1172 80.7559 52.0547 80.459 51.9297C80.1621 51.8047 79.9004 51.6172 79.6738 51.3672C79.4512 51.1172 79.2773 50.8066 79.1523 50.4355C79.0273 50.0605 78.9648 49.627 78.9648 49.1348ZM80.002 48.5312V49.1348C80.002 49.4824 80.0371 49.7871 80.1074 50.0488C80.1777 50.3105 80.2773 50.5293 80.4062 50.7051C80.5352 50.8809 80.6855 51.0137 80.8574 51.1035C81.0293 51.1895 81.2168 51.2324 81.4199 51.2324C81.6543 51.2324 81.8594 51.1895 82.0352 51.1035C82.2148 51.0137 82.3633 50.8809 82.4805 50.7051C82.5977 50.5293 82.6855 50.3105 82.7441 50.0488C82.8027 49.7871 82.832 49.4824 82.832 49.1348V48.5312C82.832 48.1836 82.7969 47.8809 82.7266 47.623C82.6562 47.3613 82.5566 47.1426 82.4277 46.9668C82.2988 46.7871 82.1465 46.6543 81.9707 46.5684C81.7988 46.4785 81.6113 46.4336 81.4082 46.4336C81.209 46.4336 81.0234 46.4785 80.8516 46.5684C80.6797 46.6543 80.5293 46.7871 80.4004 46.9668C80.2754 47.1426 80.1777 47.3613 80.1074 47.623C80.0371 47.8809 80.002 48.1836 80.002 48.5312ZM87.4023 51.2324C87.6094 51.2324 87.7969 51.1914 87.9648 51.1094C88.1367 51.0234 88.2773 50.8906 88.3867 50.7109C88.4961 50.5273 88.5586 50.2891 88.5742 49.9961H89.5469C89.5312 50.418 89.4238 50.7891 89.2246 51.1094C89.0293 51.4258 88.7715 51.6738 88.4512 51.8535C88.1348 52.0293 87.7852 52.1172 87.4023 52.1172C86.9922 52.1172 86.6348 52.0508 86.3301 51.918C86.0293 51.7852 85.7793 51.5938 85.5801 51.3438C85.3848 51.0898 85.2383 50.7832 85.1406 50.4238C85.043 50.0605 84.9941 49.6484 84.9941 49.1875V48.4727C84.9941 48.0117 85.043 47.6016 85.1406 47.2422C85.2383 46.8789 85.3848 46.5723 85.5801 46.3223C85.7793 46.0684 86.0293 45.875 86.3301 45.7422C86.6348 45.6094 86.9922 45.543 87.4023 45.543C87.832 45.543 88.2031 45.6348 88.5156 45.8184C88.832 45.998 89.0781 46.2598 89.2539 46.6035C89.4336 46.9434 89.5312 47.3555 89.5469 47.8398H88.5742C88.5586 47.5273 88.502 47.2676 88.4043 47.0605C88.3066 46.8496 88.1738 46.6934 88.0059 46.5918C87.8379 46.4863 87.6367 46.4336 87.4023 46.4336C87.1289 46.4336 86.9023 46.4824 86.7227 46.5801C86.5469 46.6738 86.4082 46.8105 86.3066 46.9902C86.2051 47.1699 86.1328 47.3848 86.0898 47.6348C86.0508 47.8848 86.0312 48.1641 86.0312 48.4727V49.1875C86.0312 49.4961 86.0508 49.7773 86.0898 50.0312C86.1328 50.2812 86.2031 50.4961 86.3008 50.6758C86.4023 50.8555 86.543 50.9941 86.7227 51.0918C86.9023 51.1855 87.1289 51.2324 87.4023 51.2324ZM94.7676 50.043L98.0898 43.4688H99.168V52H98.0898V45.4199L94.7676 52H93.6953V43.4688H94.7676V50.043ZM104.553 48.4082V49.2871H101.863V48.4082H104.553ZM102.074 45.6602V52H101.037V45.6602H102.074ZM105.396 45.6602V52H104.359V45.6602H105.396ZM108.613 49.2402L106.645 45.6602H107.893L109.129 48.2852H110.225L110.061 49.2402H108.613ZM109.164 49.1289L107.793 52H106.486L108.508 48.3438L109.164 49.1289ZM110.752 45.6602V52H109.715V45.6602H110.752ZM113.822 45.6602L111.859 49.2402H110.406L110.242 48.2852H111.332L112.574 45.6602H113.822ZM112.668 52L111.297 49.1289L111.959 48.3438L113.975 52H112.668ZM117.156 52.1172C116.777 52.1172 116.436 52.0605 116.131 51.9473C115.826 51.834 115.566 51.6621 115.352 51.4316C115.137 51.1973 114.973 50.9023 114.859 50.5469C114.746 50.1914 114.689 49.7715 114.689 49.2871V48.5723C114.689 48.0137 114.754 47.541 114.883 47.1543C115.016 46.7676 115.193 46.457 115.416 46.2227C115.639 45.9844 115.891 45.8125 116.172 45.707C116.453 45.5977 116.742 45.543 117.039 45.543C117.438 45.543 117.777 45.6074 118.059 45.7363C118.34 45.8652 118.568 46.0566 118.744 46.3105C118.92 46.5645 119.049 46.877 119.131 47.248C119.217 47.6191 119.26 48.0469 119.26 48.5312V49.1348H115.299V48.25H118.223V48.1035C118.207 47.7754 118.162 47.4863 118.088 47.2363C118.018 46.9863 117.9 46.791 117.736 46.6504C117.572 46.5059 117.34 46.4336 117.039 46.4336C116.848 46.4336 116.67 46.4668 116.506 46.5332C116.346 46.5957 116.207 46.707 116.09 46.8672C115.977 47.0234 115.887 47.2402 115.82 47.5176C115.758 47.7949 115.727 48.1465 115.727 48.5723V49.2871C115.727 49.627 115.758 49.9199 115.82 50.166C115.887 50.4082 115.982 50.6094 116.107 50.7695C116.236 50.9258 116.393 51.043 116.576 51.1211C116.764 51.1953 116.977 51.2324 117.215 51.2324C117.562 51.2324 117.85 51.166 118.076 51.0332C118.303 50.8965 118.5 50.7227 118.668 50.5117L119.213 51.1621C119.1 51.3223 118.951 51.4766 118.768 51.625C118.588 51.7695 118.365 51.8887 118.1 51.9824C117.838 52.0723 117.523 52.1172 117.156 52.1172ZM121.645 45.6602V52H120.607V45.6602H121.645ZM125.131 45.6602L122.582 49.293H121.299L121.135 48.3438H122.16L123.889 45.6602H125.131ZM123.982 52L122.125 49.1289L122.787 48.3438L125.283 52H123.982ZM128.559 45.6602V52H127.521V45.6602H128.559ZM130.287 45.6602V46.5391H125.816V45.6602H130.287ZM130.926 49.1348V48.5312C130.926 48.0391 130.988 47.6074 131.113 47.2363C131.238 46.8613 131.412 46.5488 131.635 46.2988C131.857 46.0488 132.117 45.8613 132.414 45.7363C132.711 45.6074 133.029 45.543 133.369 45.543C133.717 45.543 134.039 45.6074 134.336 45.7363C134.633 45.8613 134.893 46.0488 135.115 46.2988C135.342 46.5488 135.518 46.8613 135.643 47.2363C135.768 47.6074 135.83 48.0391 135.83 48.5312V49.1348C135.83 49.627 135.768 50.0605 135.643 50.4355C135.518 50.8066 135.344 51.1172 135.121 51.3672C134.898 51.6172 134.639 51.8047 134.342 51.9297C134.045 52.0547 133.725 52.1172 133.381 52.1172C133.037 52.1172 132.717 52.0547 132.42 51.9297C132.123 51.8047 131.861 51.6172 131.635 51.3672C131.412 51.1172 131.238 50.8066 131.113 50.4355C130.988 50.0605 130.926 49.627 130.926 49.1348ZM131.963 48.5312V49.1348C131.963 49.4824 131.998 49.7871 132.068 50.0488C132.139 50.3105 132.238 50.5293 132.367 50.7051C132.496 50.8809 132.646 51.0137 132.818 51.1035C132.99 51.1895 133.178 51.2324 133.381 51.2324C133.615 51.2324 133.82 51.1895 133.996 51.1035C134.176 51.0137 134.324 50.8809 134.441 50.7051C134.559 50.5293 134.646 50.3105 134.705 50.0488C134.764 49.7871 134.793 49.4824 134.793 49.1348V48.5312C134.793 48.1836 134.758 47.8809 134.688 47.623C134.617 47.3613 134.518 47.1426 134.389 46.9668C134.26 46.7871 134.107 46.6543 133.932 46.5684C133.76 46.4785 133.572 46.4336 133.369 46.4336C133.17 46.4336 132.984 46.4785 132.812 46.5684C132.641 46.6543 132.49 46.7871 132.361 46.9668C132.236 47.1426 132.139 47.3613 132.068 47.623C131.998 47.8809 131.963 48.1836 131.963 48.5312ZM138.203 46.8789V54.4375H137.166V45.6602H138.109L138.203 46.8789ZM141.748 48.543V49.1348C141.748 49.6348 141.701 50.0723 141.607 50.4473C141.518 50.8184 141.383 51.1289 141.203 51.3789C141.027 51.625 140.811 51.8105 140.553 51.9355C140.295 52.0566 140 52.1172 139.668 52.1172C139.336 52.1172 139.047 52.0547 138.801 51.9297C138.559 51.8008 138.354 51.6152 138.186 51.373C138.021 51.1309 137.891 50.8398 137.793 50.5C137.699 50.1562 137.635 49.7715 137.6 49.3457V48.4434C137.635 47.9941 137.699 47.5918 137.793 47.2363C137.887 46.877 138.016 46.5723 138.18 46.3223C138.348 46.0684 138.553 45.875 138.795 45.7422C139.041 45.6094 139.328 45.543 139.656 45.543C139.996 45.543 140.295 45.6016 140.553 45.7188C140.814 45.8359 141.033 46.0176 141.209 46.2637C141.389 46.5059 141.523 46.8164 141.613 47.1953C141.703 47.5703 141.748 48.0195 141.748 48.543ZM140.711 49.1348V48.543C140.711 48.1914 140.684 47.8848 140.629 47.623C140.578 47.3613 140.496 47.1445 140.383 46.9727C140.27 46.8008 140.127 46.6719 139.955 46.5859C139.783 46.5 139.576 46.457 139.334 46.457C139.127 46.457 138.943 46.5 138.783 46.5859C138.627 46.6719 138.492 46.7891 138.379 46.9375C138.266 47.082 138.172 47.248 138.098 47.4355C138.023 47.6191 137.969 47.8105 137.934 48.0098V49.7852C138 50.0352 138.088 50.2715 138.197 50.4941C138.307 50.7129 138.453 50.8906 138.637 51.0273C138.824 51.1641 139.061 51.2324 139.346 51.2324C139.584 51.2324 139.789 51.1895 139.961 51.1035C140.133 51.0176 140.273 50.8887 140.383 50.7168C140.496 50.541 140.578 50.3223 140.629 50.0605C140.684 49.7949 140.711 49.4863 140.711 49.1348Z" fill="#1B1716"/>
</g>
<g opacity="0.3">
<path d="M232.219 51.7812C233.281 52.8229 234.542 53.3438 236 53.3438C237.458 53.3438 238.708 52.8229 239.75 51.7812C240.812 50.7188 241.344 49.4583 241.344 48C241.344 46.5417 240.812 45.2917 239.75 44.25C238.708 43.1875 237.458 42.6562 236 42.6562C234.542 42.6562 233.281 43.1875 232.219 44.25C231.177 45.2917 230.656 46.5417 230.656 48C230.656 49.4583 231.177 50.7188 232.219 51.7812ZM231.281 43.3125C232.594 42 234.167 41.3438 236 41.3438C237.833 41.3438 239.396 42 240.688 43.3125C242 44.6042 242.656 46.1667 242.656 48C242.656 49.8333 242 51.4062 240.688 52.7188C239.396 54.0104 237.833 54.6562 236 54.6562C234.167 54.6562 232.594 54.0104 231.281 52.7188C229.99 51.4062 229.344 49.8333 229.344 48C229.344 46.1667 229.99 44.6042 231.281 43.3125ZM233.625 45.6562C234.292 44.9896 235.083 44.6562 236 44.6562C236.917 44.6562 237.698 44.9896 238.344 45.6562C239.01 46.3021 239.344 47.0833 239.344 48C239.344 48.9167 239.01 49.7083 238.344 50.375C237.698 51.0208 236.917 51.3438 236 51.3438C235.083 51.3438 234.292 51.0208 233.625 50.375C232.979 49.7083 232.656 48.9167 232.656 48C232.656 47.0833 232.979 46.3021 233.625 45.6562Z" fill="#2850A8"/>
<path d="M255.504 48.0098H253.77L253.758 47.1016H255.369C255.611 47.1016 255.826 47.0469 256.014 46.9375C256.201 46.8281 256.348 46.6719 256.453 46.4688C256.562 46.2617 256.617 46.0156 256.617 45.7305C256.617 45.418 256.57 45.1641 256.477 44.9688C256.387 44.7695 256.248 44.625 256.061 44.5352C255.877 44.4414 255.643 44.3945 255.357 44.3945H253.998V52H252.92V43.4688H255.357C255.725 43.4688 256.053 43.5137 256.342 43.6035C256.631 43.6895 256.875 43.8262 257.074 44.0137C257.277 44.1973 257.432 44.4316 257.537 44.7168C257.643 45.002 257.695 45.3438 257.695 45.7422C257.695 46.0938 257.615 46.4121 257.455 46.6973C257.299 46.9785 257.08 47.209 256.799 47.3887C256.518 47.5684 256.193 47.6836 255.826 47.7344L255.504 48.0098ZM255.463 52H253.324L253.951 51.0801H255.463C255.744 51.0801 255.982 51.0176 256.178 50.8926C256.373 50.7676 256.521 50.5918 256.623 50.3652C256.729 50.1348 256.781 49.8633 256.781 49.5508C256.781 49.2344 256.738 48.9609 256.652 48.7305C256.566 48.5 256.43 48.3223 256.242 48.1973C256.055 48.0723 255.809 48.0098 255.504 48.0098H254.115L254.127 47.1016H256.002L256.242 47.4297C256.594 47.4648 256.889 47.582 257.127 47.7812C257.369 47.9766 257.551 48.2266 257.672 48.5312C257.797 48.8359 257.859 49.1719 257.859 49.5391C257.859 50.0703 257.76 50.5195 257.561 50.8867C257.365 51.25 257.088 51.5273 256.729 51.7188C256.369 51.9062 255.947 52 255.463 52ZM260.197 47.8398H261.744C262.182 47.8398 262.549 47.9297 262.846 48.1094C263.143 48.2852 263.367 48.5293 263.52 48.8418C263.672 49.1504 263.748 49.502 263.748 49.8965C263.748 50.1895 263.705 50.4648 263.619 50.7227C263.533 50.9766 263.404 51.1992 263.232 51.3906C263.064 51.582 262.855 51.7324 262.605 51.8418C262.359 51.9473 262.072 52 261.744 52H259.424V45.6602H260.455V51.1094H261.744C261.986 51.1094 262.178 51.0527 262.318 50.9395C262.459 50.8262 262.559 50.6797 262.617 50.5C262.68 50.3203 262.711 50.1328 262.711 49.9375C262.711 49.7461 262.68 49.5586 262.617 49.375C262.559 49.1914 262.459 49.0391 262.318 48.918C262.178 48.793 261.986 48.7305 261.744 48.7305H260.197V47.8398ZM265.682 45.6602V52H264.645V45.6602H265.682ZM268.629 45.6602V52H267.592V45.6602H268.629ZM272.115 45.6602L269.566 49.293H268.283L268.119 48.3438H269.145L270.873 45.6602H272.115ZM270.967 52L269.109 49.1289L269.771 48.3438L272.268 52H270.967ZM276.803 45.6602V46.5566H274.277V45.6602H276.803ZM277.729 45.6602V52H276.697V45.6602H277.729ZM274.031 45.6602H275.068L274.922 48.7188C274.898 49.1914 274.859 49.6094 274.805 49.9727C274.754 50.332 274.682 50.6406 274.588 50.8984C274.498 51.1562 274.385 51.3672 274.248 51.5312C274.115 51.6914 273.955 51.8105 273.768 51.8887C273.584 51.9629 273.371 52 273.129 52H272.818V51.0449L273.023 51.0273C273.16 51.0156 273.277 50.9766 273.375 50.9102C273.477 50.8438 273.559 50.7461 273.621 50.6172C273.688 50.4844 273.74 50.3145 273.779 50.1074C273.822 49.9004 273.855 49.6543 273.879 49.3691C273.902 49.084 273.92 48.752 273.932 48.373L274.031 45.6602Z" fill="#1B1716"/>
</g>
<g opacity="0.3">
<path opacity="0.7" d="M20.2188 83.7812C21.2812 84.8229 22.5417 85.3438 24 85.3438C25.4583 85.3438 26.7083 84.8229 27.75 83.7812C28.8125 82.7188 29.3438 81.4583 29.3438 80C29.3438 78.5417 28.8125 77.2917 27.75 76.25C26.7083 75.1875 25.4583 74.6562 24 74.6562C22.5417 74.6562 21.2812 75.1875 20.2188 76.25C19.1771 77.2917 18.6562 78.5417 18.6562 80C18.6562 81.4583 19.1771 82.7188 20.2188 83.7812ZM19.2812 75.3125C20.5938 74 22.1667 73.3438 24 73.3438C25.8333 73.3438 27.3958 74 28.6875 75.3125C30 76.6042 30.6562 78.1667 30.6562 80C30.6562 81.8333 30 83.4062 28.6875 84.7188C27.3958 86.0104 25.8333 86.6562 24 86.6562C22.1667 86.6562 20.5938 86.0104 19.2812 84.7188C17.9896 83.4062 17.3438 81.8333 17.3438 80C17.3438 78.1667 17.9896 76.6042 19.2812 75.3125Z" fill="#424750"/>
<rect x="39.5" y="70.5" width="90" height="19" stroke="#424750"/>
<g clip-path="url(#clip0_4432_48633)">
<path d="M87.7734 75.4219V84H86.7363V76.7754L84.9434 77.5723V76.5938L87.6152 75.4219H87.7734ZM90.7734 83.4258C90.7734 83.2422 90.8301 83.0879 90.9434 82.9629C91.0605 82.834 91.2285 82.7695 91.4473 82.7695C91.666 82.7695 91.832 82.834 91.9453 82.9629C92.0625 83.0879 92.1211 83.2422 92.1211 83.4258C92.1211 83.6055 92.0625 83.7578 91.9453 83.8828C91.832 84.0078 91.666 84.0703 91.4473 84.0703C91.2285 84.0703 91.0605 84.0078 90.9434 83.8828C90.8301 83.7578 90.7734 83.6055 90.7734 83.4258ZM98.3379 79.0547V80.3555C98.3379 81.0547 98.2832 81.6445 98.1738 82.125C98.0684 82.6055 97.916 82.9922 97.7168 83.2852C97.5176 83.5781 97.2773 83.791 96.9961 83.9238C96.7188 84.0527 96.4062 84.1172 96.0586 84.1172C95.7852 84.1172 95.5293 84.0762 95.291 83.9941C95.0566 83.9121 94.8457 83.7812 94.6582 83.6016C94.4707 83.418 94.3105 83.1797 94.1777 82.8867C94.0449 82.5938 93.9434 82.2383 93.873 81.8203C93.8027 81.4023 93.7676 80.9141 93.7676 80.3555V79.0547C93.7676 78.3555 93.8223 77.7695 93.9316 77.2969C94.041 76.8242 94.1953 76.4453 94.3945 76.1602C94.5977 75.8711 94.8379 75.6641 95.1152 75.5391C95.3965 75.4141 95.709 75.3516 96.0527 75.3516C96.3301 75.3516 96.5859 75.3926 96.8203 75.4746C97.0586 75.5527 97.2695 75.6797 97.4531 75.8555C97.6406 76.0273 97.8008 76.2578 97.9336 76.5469C98.0664 76.832 98.166 77.1816 98.2324 77.5957C98.3027 78.0098 98.3379 78.4961 98.3379 79.0547ZM97.3066 80.5312V78.873C97.3066 78.4902 97.2891 78.1543 97.2539 77.8652C97.2188 77.5723 97.166 77.3223 97.0957 77.1152C97.0293 76.9082 96.9453 76.7402 96.8438 76.6113C96.7422 76.4824 96.625 76.3887 96.4922 76.3301C96.3594 76.2676 96.2129 76.2363 96.0527 76.2363C95.8535 76.2363 95.6758 76.2852 95.5195 76.3828C95.3672 76.4766 95.2363 76.627 95.127 76.834C95.0215 77.041 94.9414 77.3125 94.8867 77.6484C94.832 77.9844 94.8047 78.3926 94.8047 78.873V80.5312C94.8047 80.9141 94.8223 81.252 94.8574 81.5449C94.8965 81.8379 94.9492 82.0918 95.0156 82.3066C95.0859 82.5176 95.1719 82.6914 95.2734 82.8281C95.375 82.9648 95.4922 83.0664 95.625 83.1328C95.7578 83.1953 95.9023 83.2266 96.0586 83.2266C96.2656 83.2266 96.4453 83.1758 96.5977 83.0742C96.7539 82.9727 96.8848 82.8145 96.9902 82.5996C97.0957 82.3809 97.1738 82.1016 97.2246 81.7617C97.2793 81.418 97.3066 81.0078 97.3066 80.5312ZM104.268 79.0547V80.3555C104.268 81.0547 104.213 81.6445 104.104 82.125C103.998 82.6055 103.846 82.9922 103.646 83.2852C103.447 83.5781 103.207 83.791 102.926 83.9238C102.648 84.0527 102.336 84.1172 101.988 84.1172C101.715 84.1172 101.459 84.0762 101.221 83.9941C100.986 83.9121 100.775 83.7812 100.588 83.6016C100.4 83.418 100.24 83.1797 100.107 82.8867C99.9746 82.5938 99.873 82.2383 99.8027 81.8203C99.7324 81.4023 99.6973 80.9141 99.6973 80.3555V79.0547C99.6973 78.3555 99.752 77.7695 99.8613 77.2969C99.9707 76.8242 100.125 76.4453 100.324 76.1602C100.527 75.8711 100.768 75.6641 101.045 75.5391C101.326 75.4141 101.639 75.3516 101.982 75.3516C102.26 75.3516 102.516 75.3926 102.75 75.4746C102.988 75.5527 103.199 75.6797 103.383 75.8555C103.57 76.0273 103.73 76.2578 103.863 76.5469C103.996 76.832 104.096 77.1816 104.162 77.5957C104.232 78.0098 104.268 78.4961 104.268 79.0547ZM103.236 80.5312V78.873C103.236 78.4902 103.219 78.1543 103.184 77.8652C103.148 77.5723 103.096 77.3223 103.025 77.1152C102.959 76.9082 102.875 76.7402 102.773 76.6113C102.672 76.4824 102.555 76.3887 102.422 76.3301C102.289 76.2676 102.143 76.2363 101.982 76.2363C101.783 76.2363 101.605 76.2852 101.449 76.3828C101.297 76.4766 101.166 76.627 101.057 76.834C100.951 77.041 100.871 77.3125 100.816 77.6484C100.762 77.9844 100.734 78.3926 100.734 78.873V80.5312C100.734 80.9141 100.752 81.252 100.787 81.5449C100.826 81.8379 100.879 82.0918 100.945 82.3066C101.016 82.5176 101.102 82.6914 101.203 82.8281C101.305 82.9648 101.422 83.0664 101.555 83.1328C101.688 83.1953 101.832 83.2266 101.988 83.2266C102.195 83.2266 102.375 83.1758 102.527 83.0742C102.684 82.9727 102.814 82.8145 102.92 82.5996C103.025 82.3809 103.104 82.1016 103.154 81.7617C103.209 81.418 103.236 81.0078 103.236 80.5312Z" fill="#1A1C20"/>
</g>
<path d="M119 84.125L121.125 82L122.062 82.9375L119 86L115.938 82.9375L116.875 82L119 84.125ZM119 75.875L116.875 78L115.938 77.0625L119 74L122.062 77.0625L121.125 78L119 75.875Z" fill="#424750"/>
<path d="M142.891 82.5586L144.584 77.6602H145.568L143.248 84H142.533L140.219 77.6602H141.203L142.891 82.5586ZM140.904 77.6602V84H139.873V77.6602H140.904ZM144.842 84V77.6602H145.879V84H144.842ZM148.662 82.2832L150.959 77.6602H151.996V84H150.959V79.377L148.662 84H147.631V77.6602H148.662V82.2832ZM157.264 80.4082V81.2871H154.574V80.4082H157.264ZM154.785 77.6602V84H153.748V77.6602H154.785ZM158.107 77.6602V84H157.07V77.6602H158.107Z" fill="#1B1716"/>
</g>
<g opacity="0.3">
<path opacity="0.7" d="M232.219 83.7812C233.281 84.8229 234.542 85.3438 236 85.3438C237.458 85.3438 238.708 84.8229 239.75 83.7812C240.812 82.7188 241.344 81.4583 241.344 80C241.344 78.5417 240.812 77.2917 239.75 76.25C238.708 75.1875 237.458 74.6562 236 74.6562C234.542 74.6562 233.281 75.1875 232.219 76.25C231.177 77.2917 230.656 78.5417 230.656 80C230.656 81.4583 231.177 82.7188 232.219 83.7812ZM231.281 75.3125C232.594 74 234.167 73.3438 236 73.3438C237.833 73.3438 239.396 74 240.688 75.3125C242 76.6042 242.656 78.1667 242.656 80C242.656 81.8333 242 83.4062 240.688 84.7188C239.396 86.0104 237.833 86.6562 236 86.6562C234.167 86.6562 232.594 86.0104 231.281 84.7188C229.99 83.4062 229.344 81.8333 229.344 80C229.344 78.1667 229.99 76.6042 231.281 75.3125Z" fill="#424750"/>
<rect x="251.5" y="70.5" width="90" height="19" stroke="#424750"/>
<g clip-path="url(#clip1_4432_48633)">
<path d="M299.773 75.4219V84H298.736V76.7754L296.943 77.5723V76.5938L299.615 75.4219H299.773ZM302.773 83.4258C302.773 83.2422 302.83 83.0879 302.943 82.9629C303.061 82.834 303.229 82.7695 303.447 82.7695C303.666 82.7695 303.832 82.834 303.945 82.9629C304.062 83.0879 304.121 83.2422 304.121 83.4258C304.121 83.6055 304.062 83.7578 303.945 83.8828C303.832 84.0078 303.666 84.0703 303.447 84.0703C303.229 84.0703 303.061 84.0078 302.943 83.8828C302.83 83.7578 302.773 83.6055 302.773 83.4258ZM310.338 79.0547V80.3555C310.338 81.0547 310.283 81.6445 310.174 82.125C310.068 82.6055 309.916 82.9922 309.717 83.2852C309.518 83.5781 309.277 83.791 308.996 83.9238C308.719 84.0527 308.406 84.1172 308.059 84.1172C307.785 84.1172 307.529 84.0762 307.291 83.9941C307.057 83.9121 306.846 83.7812 306.658 83.6016C306.471 83.418 306.311 83.1797 306.178 82.8867C306.045 82.5938 305.943 82.2383 305.873 81.8203C305.803 81.4023 305.768 80.9141 305.768 80.3555V79.0547C305.768 78.3555 305.822 77.7695 305.932 77.2969C306.041 76.8242 306.195 76.4453 306.395 76.1602C306.598 75.8711 306.838 75.6641 307.115 75.5391C307.396 75.4141 307.709 75.3516 308.053 75.3516C308.33 75.3516 308.586 75.3926 308.82 75.4746C309.059 75.5527 309.27 75.6797 309.453 75.8555C309.641 76.0273 309.801 76.2578 309.934 76.5469C310.066 76.832 310.166 77.1816 310.232 77.5957C310.303 78.0098 310.338 78.4961 310.338 79.0547ZM309.307 80.5312V78.873C309.307 78.4902 309.289 78.1543 309.254 77.8652C309.219 77.5723 309.166 77.3223 309.096 77.1152C309.029 76.9082 308.945 76.7402 308.844 76.6113C308.742 76.4824 308.625 76.3887 308.492 76.3301C308.359 76.2676 308.213 76.2363 308.053 76.2363C307.854 76.2363 307.676 76.2852 307.52 76.3828C307.367 76.4766 307.236 76.627 307.127 76.834C307.021 77.041 306.941 77.3125 306.887 77.6484C306.832 77.9844 306.805 78.3926 306.805 78.873V80.5312C306.805 80.9141 306.822 81.252 306.857 81.5449C306.896 81.8379 306.949 82.0918 307.016 82.3066C307.086 82.5176 307.172 82.6914 307.273 82.8281C307.375 82.9648 307.492 83.0664 307.625 83.1328C307.758 83.1953 307.902 83.2266 308.059 83.2266C308.266 83.2266 308.445 83.1758 308.598 83.0742C308.754 82.9727 308.885 82.8145 308.99 82.5996C309.096 82.3809 309.174 82.1016 309.225 81.7617C309.279 81.418 309.307 81.0078 309.307 80.5312ZM316.268 79.0547V80.3555C316.268 81.0547 316.213 81.6445 316.104 82.125C315.998 82.6055 315.846 82.9922 315.646 83.2852C315.447 83.5781 315.207 83.791 314.926 83.9238C314.648 84.0527 314.336 84.1172 313.988 84.1172C313.715 84.1172 313.459 84.0762 313.221 83.9941C312.986 83.9121 312.775 83.7812 312.588 83.6016C312.4 83.418 312.24 83.1797 312.107 82.8867C311.975 82.5938 311.873 82.2383 311.803 81.8203C311.732 81.4023 311.697 80.9141 311.697 80.3555V79.0547C311.697 78.3555 311.752 77.7695 311.861 77.2969C311.971 76.8242 312.125 76.4453 312.324 76.1602C312.527 75.8711 312.768 75.6641 313.045 75.5391C313.326 75.4141 313.639 75.3516 313.982 75.3516C314.26 75.3516 314.516 75.3926 314.75 75.4746C314.988 75.5527 315.199 75.6797 315.383 75.8555C315.57 76.0273 315.73 76.2578 315.863 76.5469C315.996 76.832 316.096 77.1816 316.162 77.5957C316.232 78.0098 316.268 78.4961 316.268 79.0547ZM315.236 80.5312V78.873C315.236 78.4902 315.219 78.1543 315.184 77.8652C315.148 77.5723 315.096 77.3223 315.025 77.1152C314.959 76.9082 314.875 76.7402 314.773 76.6113C314.672 76.4824 314.555 76.3887 314.422 76.3301C314.289 76.2676 314.143 76.2363 313.982 76.2363C313.783 76.2363 313.605 76.2852 313.449 76.3828C313.297 76.4766 313.166 76.627 313.057 76.834C312.951 77.041 312.871 77.3125 312.816 77.6484C312.762 77.9844 312.734 78.3926 312.734 78.873V80.5312C312.734 80.9141 312.752 81.252 312.787 81.5449C312.826 81.8379 312.879 82.0918 312.945 82.3066C313.016 82.5176 313.102 82.6914 313.203 82.8281C313.305 82.9648 313.422 83.0664 313.555 83.1328C313.688 83.1953 313.832 83.2266 313.988 83.2266C314.195 83.2266 314.375 83.1758 314.527 83.0742C314.684 82.9727 314.814 82.8145 314.92 82.5996C315.025 82.3809 315.104 82.1016 315.154 81.7617C315.209 81.418 315.236 81.0078 315.236 80.5312Z" fill="#1A1C20"/>
</g>
<path d="M331 84.125L333.125 82L334.062 82.9375L331 86L327.938 82.9375L328.875 82L331 84.125ZM331 75.875L328.875 78L327.938 77.0625L331 74L334.062 77.0625L333.125 78L331 75.875Z" fill="#424750"/>
<path d="M354.891 82.5586L356.584 77.6602H357.568L355.248 84H354.533L352.219 77.6602H353.203L354.891 82.5586ZM352.904 77.6602V84H351.873V77.6602H352.904ZM356.842 84V77.6602H357.879V84H356.842ZM360.662 82.2832L362.959 77.6602H363.996V84H362.959V79.377L360.662 84H359.631V77.6602H360.662V82.2832ZM369.264 80.4082V81.2871H366.574V80.4082H369.264ZM366.785 77.6602V84H365.748V77.6602H366.785ZM370.107 77.6602V84H369.07V77.6602H370.107Z" fill="#1B1716"/>
</g>
<defs>
<clipPath id="clip0_4432_48633">
<rect width="21" height="12" fill="white" transform="translate(84 74)"/>
</clipPath>
<clipPath id="clip1_4432_48633">
<rect width="21" height="12" fill="white" transform="translate(296 74)"/>
</clipPath>
</defs>
</svg>
