<svg width="86" height="20" viewBox="0 0 86 20" fill="none" xmlns="http://www.w3.org/2000/svg">
<g opacity="0.3">
<path d="M14.6562 4C15.0104 4 15.3229 4.13542 15.5938 4.40625C15.8646 4.67708 16 4.98958 16 5.34375V14.6562C16 15.0104 15.8646 15.3229 15.5938 15.5938C15.3229 15.8646 15.0104 16 14.6562 16H5.34375C4.98958 16 4.67708 15.8646 4.40625 15.5938C4.13542 15.3229 4 15.0104 4 14.6562V5.34375C4 4.98958 4.13542 4.67708 4.40625 4.40625C4.67708 4.13542 4.98958 4 5.34375 4H14.6562ZM14.6562 5.34375H5.34375V14.6562H14.6562V5.34375Z" fill="#424750"/>
</g>
<g opacity="0.3">
<rect x="22.5" y="0.5" width="63" height="19" stroke="#737781"/>
<g clip-path="url(#clip0_7606_8742)">
<path d="M31.4551 13.1094V14H26.6855V13.2207L29.0352 10.1094C29.3242 9.72656 29.5449 9.40234 29.6973 9.13672C29.8496 8.86719 29.9551 8.62695 30.0137 8.41602C30.0723 8.20117 30.1016 7.98242 30.1016 7.75977C30.1016 7.47852 30.0566 7.22461 29.9668 6.99805C29.877 6.76758 29.7461 6.58398 29.5742 6.44727C29.4023 6.31055 29.1953 6.24219 28.9531 6.24219C28.6367 6.24219 28.377 6.31641 28.1738 6.46484C27.9746 6.60938 27.8281 6.8125 27.7344 7.07422C27.6406 7.33594 27.5938 7.63672 27.5938 7.97656H26.5566C26.5566 7.49609 26.6445 7.05664 26.8203 6.6582C27 6.25977 27.2676 5.94336 27.623 5.70898C27.9785 5.4707 28.4219 5.35156 28.9531 5.35156C29.4102 5.35156 29.8008 5.44727 30.125 5.63867C30.4531 5.82617 30.7031 6.0918 30.875 6.43555C31.0508 6.77539 31.1387 7.17383 31.1387 7.63086C31.1387 7.88086 31.1035 8.13477 31.0332 8.39258C30.9668 8.64648 30.873 8.90039 30.752 9.1543C30.6348 9.4082 30.4961 9.6582 30.3359 9.9043C30.1758 10.1504 30.0039 10.3926 29.8203 10.6309L27.9277 13.1094H31.4551ZM33.8691 9.93945L33.043 9.7168L33.4062 5.46875H37.1211V6.4707H34.2793L34.0801 8.79102C34.2129 8.70117 34.373 8.61719 34.5605 8.53906C34.748 8.46094 34.9668 8.42188 35.2168 8.42188C35.5527 8.42188 35.8516 8.49023 36.1133 8.62695C36.3789 8.75977 36.6035 8.95117 36.7871 9.20117C36.9707 9.45117 37.1113 9.75195 37.209 10.1035C37.3066 10.4551 37.3555 10.8477 37.3555 11.2812C37.3555 11.6914 37.3066 12.0684 37.209 12.4121C37.1152 12.7559 36.9707 13.0566 36.7754 13.3145C36.584 13.5684 36.3418 13.7656 36.0488 13.9062C35.7598 14.0469 35.4219 14.1172 35.0352 14.1172C34.7461 14.1172 34.4727 14.0703 34.2148 13.9766C33.957 13.8789 33.7246 13.7324 33.5176 13.5371C33.3145 13.3379 33.1484 13.0918 33.0195 12.7988C32.8906 12.502 32.8105 12.1543 32.7793 11.7559H33.7578C33.7969 12.0762 33.8711 12.3457 33.9805 12.5645C34.0938 12.7832 34.2383 12.9492 34.4141 13.0625C34.5938 13.1719 34.8008 13.2266 35.0352 13.2266C35.2344 13.2266 35.4141 13.1816 35.5742 13.0918C35.7344 13.002 35.8691 12.873 35.9785 12.7051C36.0879 12.5371 36.1719 12.334 36.2305 12.0957C36.2891 11.8574 36.3184 11.5898 36.3184 11.293C36.3184 11.0234 36.2891 10.7734 36.2305 10.543C36.1719 10.3125 36.084 10.1113 35.9668 9.93945C35.8496 9.76758 35.707 9.63477 35.5391 9.54102C35.375 9.44336 35.1836 9.39453 34.9648 9.39453C34.6719 9.39453 34.4551 9.44336 34.3145 9.54102C34.1777 9.63867 34.0293 9.77148 33.8691 9.93945ZM43.1035 9.05469V10.3555C43.1035 11.0547 43.0488 11.6445 42.9395 12.125C42.834 12.6055 42.6816 12.9922 42.4824 13.2852C42.2832 13.5781 42.043 13.791 41.7617 13.9238C41.4844 14.0527 41.1719 14.1172 40.8242 14.1172C40.5508 14.1172 40.2949 14.0762 40.0566 13.9941C39.8223 13.9121 39.6113 13.7812 39.4238 13.6016C39.2363 13.418 39.0762 13.1797 38.9434 12.8867C38.8105 12.5938 38.709 12.2383 38.6387 11.8203C38.5684 11.4023 38.5332 10.9141 38.5332 10.3555V9.05469C38.5332 8.35547 38.5879 7.76953 38.6973 7.29688C38.8066 6.82422 38.9609 6.44531 39.1602 6.16016C39.3633 5.87109 39.6035 5.66406 39.8809 5.53906C40.1621 5.41406 40.4746 5.35156 40.8184 5.35156C41.0957 5.35156 41.3516 5.39258 41.5859 5.47461C41.8242 5.55273 42.0352 5.67969 42.2188 5.85547C42.4062 6.02734 42.5664 6.25781 42.6992 6.54688C42.832 6.83203 42.9316 7.18164 42.998 7.5957C43.0684 8.00977 43.1035 8.49609 43.1035 9.05469ZM42.0723 10.5312V8.87305C42.0723 8.49023 42.0547 8.1543 42.0195 7.86523C41.9844 7.57227 41.9316 7.32227 41.8613 7.11523C41.7949 6.9082 41.7109 6.74023 41.6094 6.61133C41.5078 6.48242 41.3906 6.38867 41.2578 6.33008C41.125 6.26758 40.9785 6.23633 40.8184 6.23633C40.6191 6.23633 40.4414 6.28516 40.2852 6.38281C40.1328 6.47656 40.002 6.62695 39.8926 6.83398C39.7871 7.04102 39.707 7.3125 39.6523 7.64844C39.5977 7.98438 39.5703 8.39258 39.5703 8.87305V10.5312C39.5703 10.9141 39.5879 11.252 39.623 11.5449C39.6621 11.8379 39.7148 12.0918 39.7812 12.3066C39.8516 12.5176 39.9375 12.6914 40.0391 12.8281C40.1406 12.9648 40.2578 13.0664 40.3906 13.1328C40.5234 13.1953 40.668 13.2266 40.8242 13.2266C41.0312 13.2266 41.2109 13.1758 41.3633 13.0742C41.5195 12.9727 41.6504 12.8145 41.7559 12.5996C41.8613 12.3809 41.9395 12.1016 41.9902 11.7617C42.0449 11.418 42.0723 11.0078 42.0723 10.5312Z" fill="#1B1716"/>
</g>
<path d="M76 14.125L78.125 12L79.0625 12.9375L76 16L72.9375 12.9375L73.875 12L76 14.125ZM76 5.875L73.875 8L72.9375 7.0625L76 4L79.0625 7.0625L78.125 8L76 5.875Z" fill="#1A1C20"/>
</g>
<defs>
<clipPath id="clip0_7606_8742">
<rect width="18" height="12" fill="white" transform="translate(26 4)"/>
</clipPath>
</defs>
</svg>
