<svg width="79" height="36" viewBox="0 0 79 36" fill="none" xmlns="http://www.w3.org/2000/svg">
<g opacity="0.3">
<path d="M6.98438 9.98438H17.0156L12 15L6.98438 9.98438Z" fill="#1A1C20"/>
<path d="M32.6591 11.6364C32.6591 12.5767 32.483 13.3821 32.1307 14.0526C31.7813 14.7202 31.304 15.2315 30.6989 15.5866C30.0966 15.9418 29.4134 16.1193 28.6491 16.1193C27.8849 16.1193 27.2003 15.9418 26.5952 15.5866C25.9929 15.2287 25.5156 14.7159 25.1634 14.0483C24.8139 13.3778 24.6392 12.5739 24.6392 11.6364C24.6392 10.696 24.8139 9.89205 25.1634 9.22443C25.5156 8.55398 25.9929 8.04119 26.5952 7.68608C27.2003 7.33097 27.8849 7.15341 28.6491 7.15341C29.4134 7.15341 30.0966 7.33097 30.6989 7.68608C31.304 8.04119 31.7813 8.55398 32.1307 9.22443C32.483 9.89205 32.6591 10.696 32.6591 11.6364ZM31.0696 11.6364C31.0696 10.9744 30.9659 10.4162 30.7585 9.96165C30.554 9.50426 30.2699 9.15909 29.9062 8.92614C29.5426 8.69034 29.1236 8.57244 28.6491 8.57244C28.1747 8.57244 27.7557 8.69034 27.392 8.92614C27.0284 9.15909 26.7429 9.50426 26.5355 9.96165C26.331 10.4162 26.2287 10.9744 26.2287 11.6364C26.2287 12.2983 26.331 12.858 26.5355 13.3153C26.7429 13.7699 27.0284 14.1151 27.392 14.3509C27.7557 14.5838 28.1747 14.7003 28.6491 14.7003C29.1236 14.7003 29.5426 14.5838 29.9062 14.3509C30.2699 14.1151 30.554 13.7699 30.7585 13.3153C30.9659 12.858 31.0696 12.2983 31.0696 11.6364ZM39.3313 7.03409L39.8683 8.03125C39.6779 8.19602 39.4648 8.31534 39.229 8.3892C38.9933 8.46307 38.7163 8.51136 38.3981 8.53409C38.0827 8.55398 37.7077 8.56818 37.2731 8.5767C36.7844 8.58807 36.3853 8.6804 36.0756 8.85369C35.766 9.02699 35.5288 9.28977 35.364 9.64205C35.1992 9.99148 35.0913 10.4375 35.0401 10.9801H35.1126C35.3171 10.5795 35.604 10.2741 35.9734 10.0639C36.3427 9.85369 36.7759 9.74858 37.2731 9.74858C37.8157 9.74858 38.2944 9.87074 38.7092 10.1151C39.1268 10.3565 39.4521 10.7074 39.685 11.1676C39.9208 11.6278 40.0387 12.1847 40.0387 12.8381C40.0387 13.5114 39.9123 14.0952 39.6594 14.5895C39.4066 15.081 39.0472 15.4602 38.5813 15.7273C38.1183 15.9943 37.5685 16.1278 36.9322 16.1278C36.2987 16.1278 35.7475 15.9901 35.2788 15.7145C34.8129 15.4361 34.4521 15.0256 34.1964 14.483C33.9435 13.9375 33.8171 13.2656 33.8171 12.4673V11.8793C33.8171 10.3395 34.104 9.19034 34.6779 8.43182C35.2518 7.6733 36.1026 7.28693 37.2305 7.27273C37.5657 7.26705 37.8654 7.26562 38.1296 7.26847C38.3967 7.27131 38.6296 7.25852 38.8285 7.23011C39.0273 7.2017 39.195 7.13636 39.3313 7.03409ZM36.9407 14.892C37.256 14.892 37.5288 14.8111 37.7589 14.6491C37.989 14.4844 38.1651 14.2514 38.2873 13.9503C38.4123 13.6491 38.4748 13.2926 38.4748 12.8807C38.4748 12.4744 38.4123 12.1293 38.2873 11.8452C38.1623 11.5582 37.9847 11.3395 37.7546 11.1889C37.5245 11.0384 37.2504 10.9631 36.9322 10.9631C36.6935 10.9631 36.479 11.0057 36.2887 11.0909C36.0984 11.1761 35.9364 11.3011 35.8029 11.4659C35.6694 11.6307 35.5671 11.831 35.4961 12.0668C35.4251 12.3026 35.3867 12.5739 35.381 12.8807C35.381 13.4972 35.5202 13.9872 35.7987 14.3509C36.0771 14.7116 36.4577 14.892 36.9407 14.892ZM51.1822 14.7344L51.0543 17.875H49.6012V16H48.8299V14.7344H51.1822ZM41.3512 9.45455H42.8384V14.7301H44.8967V9.45455H46.3839V14.7301H48.4421V9.45455H49.9293V16H41.3512V9.45455ZM55.2294 16.1278C54.5732 16.1278 54.0064 15.9915 53.5291 15.7188C53.0547 15.4432 52.6896 15.054 52.4339 14.5511C52.1783 14.0455 52.0504 13.4503 52.0504 12.7656C52.0504 12.0923 52.1783 11.5014 52.4339 10.9929C52.6925 10.4815 53.0533 10.0838 53.5163 9.79972C53.9794 9.51278 54.5234 9.36932 55.1484 9.36932C55.5518 9.36932 55.9325 9.43466 56.2905 9.56534C56.6513 9.69318 56.9695 9.89205 57.245 10.1619C57.5234 10.4318 57.7422 10.7756 57.9013 11.1932C58.0604 11.608 58.1399 12.1023 58.1399 12.6761V13.1491H52.7749V12.1094H56.6612C56.6584 11.8139 56.5945 11.5511 56.4695 11.321C56.3445 11.0881 56.1697 10.9048 55.9453 10.7713C55.7237 10.6378 55.4652 10.571 55.1697 10.571C54.8544 10.571 54.5774 10.6477 54.3388 10.8011C54.1001 10.9517 53.9141 11.1506 53.7805 11.3977C53.6499 11.642 53.5831 11.9105 53.5803 12.2031V13.1108C53.5803 13.4915 53.6499 13.8182 53.7891 14.0909C53.9283 14.3608 54.1229 14.5682 54.3729 14.7131C54.6229 14.8551 54.9155 14.9261 55.2507 14.9261C55.4751 14.9261 55.6783 14.8949 55.8601 14.8324C56.0419 14.767 56.1996 14.6719 56.3331 14.5469C56.4666 14.4219 56.5675 14.267 56.6357 14.0824L58.076 14.2443C57.9851 14.625 57.8118 14.9574 57.5561 15.2415C57.3033 15.5227 56.9794 15.7415 56.5845 15.8977C56.1896 16.0511 55.7379 16.1278 55.2294 16.1278ZM62.3427 16.1278C61.6864 16.1278 61.1197 15.9915 60.6424 15.7188C60.168 15.4432 59.8029 15.054 59.5472 14.5511C59.2915 14.0455 59.1637 13.4503 59.1637 12.7656C59.1637 12.0923 59.2915 11.5014 59.5472 10.9929C59.8058 10.4815 60.1665 10.0838 60.6296 9.79972C61.0927 9.51278 61.6367 9.36932 62.2617 9.36932C62.6651 9.36932 63.0458 9.43466 63.4038 9.56534C63.7646 9.69318 64.0827 9.89205 64.3583 10.1619C64.6367 10.4318 64.8555 10.7756 65.0146 11.1932C65.1737 11.608 65.2532 12.1023 65.2532 12.6761V13.1491H59.8881V12.1094H63.7745C63.7717 11.8139 63.7077 11.5511 63.5827 11.321C63.4577 11.0881 63.283 10.9048 63.0586 10.7713C62.837 10.6378 62.5785 10.571 62.283 10.571C61.9677 10.571 61.6907 10.6477 61.4521 10.8011C61.2134 10.9517 61.0273 11.1506 60.8938 11.3977C60.7631 11.642 60.6964 11.9105 60.6935 12.2031V13.1108C60.6935 13.4915 60.7631 13.8182 60.9023 14.0909C61.0415 14.3608 61.2362 14.5682 61.4862 14.7131C61.7362 14.8551 62.0288 14.9261 62.364 14.9261C62.5884 14.9261 62.7915 14.8949 62.9734 14.8324C63.1552 14.767 63.3129 14.6719 63.4464 14.5469C63.5799 14.4219 63.6808 14.267 63.7489 14.0824L65.1893 14.2443C65.0984 14.625 64.9251 14.9574 64.6694 15.2415C64.4165 15.5227 64.0927 15.7415 63.6978 15.8977C63.3029 16.0511 62.8512 16.1278 62.3427 16.1278Z" fill="#1A1C20"/>
</g>
<path opacity="0.3" d="M35.8574 31.1875H37.4219C37.3945 31.8164 37.2656 32.3496 37.0352 32.7871C36.8086 33.2207 36.4824 33.5508 36.0566 33.7773C35.6348 34.0039 35.1211 34.1172 34.5156 34.1172C34.0547 34.1172 33.6426 34.0371 33.2793 33.877C32.916 33.7129 32.6074 33.4766 32.3535 33.168C32.1035 32.8594 31.9121 32.4805 31.7793 32.0312C31.6504 31.5781 31.5859 31.0605 31.5859 30.4785V28.9961C31.5859 28.4141 31.6543 27.8965 31.791 27.4434C31.9277 26.9902 32.123 26.6074 32.377 26.2949C32.6348 25.9824 32.9473 25.7461 33.3145 25.5859C33.6816 25.4258 34.0957 25.3457 34.5566 25.3457C35.166 25.3457 35.6758 25.4609 36.0859 25.6914C36.4961 25.9219 36.8125 26.2598 37.0352 26.7051C37.2578 27.1465 37.3887 27.6855 37.4277 28.3223H35.8633C35.8477 27.9082 35.7969 27.5801 35.7109 27.3379C35.625 27.0918 35.4902 26.916 35.3066 26.8105C35.123 26.7051 34.873 26.6523 34.5566 26.6523C34.3105 26.6523 34.0977 26.6973 33.918 26.7871C33.7383 26.877 33.5918 27.0176 33.4785 27.209C33.3652 27.3965 33.2812 27.6367 33.2266 27.9297C33.1719 28.2227 33.1445 28.5742 33.1445 28.9844V30.4785C33.1445 30.873 33.168 31.2168 33.2148 31.5098C33.2617 31.8027 33.3359 32.0469 33.4375 32.2422C33.543 32.4336 33.6836 32.5781 33.8594 32.6758C34.0352 32.7695 34.2539 32.8164 34.5156 32.8164C34.832 32.8164 35.084 32.7695 35.2715 32.6758C35.459 32.5781 35.5977 32.4121 35.6875 32.1777C35.7812 31.9395 35.8379 31.6094 35.8574 31.1875ZM41.1777 31.334H39.5605L39.5488 30.2559H40.8613C41.041 30.2559 41.1855 30.2324 41.2949 30.1855C41.4043 30.1348 41.4844 30.0625 41.5352 29.9688C41.5898 29.8711 41.6172 29.75 41.6172 29.6055C41.6172 29.4844 41.5996 29.3789 41.5645 29.2891C41.5332 29.1992 41.4844 29.127 41.418 29.0723C41.3555 29.0137 41.2754 28.9707 41.1777 28.9434C41.0801 28.916 40.9688 28.9023 40.8438 28.9023H40.082V34H38.582V27.6602H40.8438C41.1914 27.6602 41.5059 27.6973 41.7871 27.7715C42.0684 27.8418 42.3086 27.9492 42.5078 28.0938C42.707 28.2383 42.8594 28.4219 42.9648 28.6445C43.0703 28.8633 43.123 29.123 43.123 29.4238C43.123 29.6152 43.084 29.7969 43.0059 29.9688C42.9316 30.1406 42.8223 30.293 42.6777 30.4258C42.5332 30.5586 42.3535 30.668 42.1387 30.7539C41.9238 30.8359 41.6777 30.8887 41.4004 30.9121L41.1777 31.334ZM41.1777 34H39.1445L39.7246 32.7578H41.1777C41.3457 32.7578 41.4805 32.7305 41.582 32.6758C41.6836 32.6211 41.7578 32.541 41.8047 32.4355C41.8516 32.3301 41.875 32.2031 41.875 32.0547C41.875 31.9062 41.8535 31.7773 41.8105 31.668C41.7676 31.5586 41.6953 31.4766 41.5938 31.4219C41.4961 31.3633 41.3574 31.334 41.1777 31.334H39.8359L39.8477 30.2559H41.3711L41.752 30.6836C42.127 30.7109 42.4336 30.7969 42.6719 30.9414C42.9141 31.082 43.0918 31.2617 43.2051 31.4805C43.3223 31.6953 43.3809 31.9316 43.3809 32.1895C43.3809 32.4902 43.332 32.7539 43.2344 32.9805C43.1367 33.207 42.9941 33.3965 42.8066 33.5488C42.623 33.6973 42.3945 33.8105 42.1211 33.8887C41.8477 33.9629 41.5332 34 41.1777 34ZM44.2715 31.0645V30.6016C44.2715 30.1055 44.332 29.668 44.4531 29.2891C44.5742 28.9062 44.7461 28.5859 44.9688 28.3281C45.1914 28.0703 45.457 27.875 45.7656 27.7422C46.0781 27.6094 46.4238 27.543 46.8027 27.543C47.1895 27.543 47.5371 27.6094 47.8457 27.7422C48.1582 27.875 48.4258 28.0703 48.6484 28.3281C48.875 28.5859 49.0469 28.9062 49.1641 29.2891C49.2852 29.668 49.3457 30.1055 49.3457 30.6016V31.0645C49.3457 31.5605 49.2852 31.998 49.1641 32.377C49.0469 32.7559 48.875 33.0762 48.6484 33.3379C48.4258 33.5957 48.1582 33.791 47.8457 33.9238C47.5371 34.0527 47.1934 34.1172 46.8145 34.1172C46.4355 34.1172 46.0898 34.0527 45.7773 33.9238C45.4688 33.791 45.2012 33.5957 44.9746 33.3379C44.748 33.0762 44.5742 32.7559 44.4531 32.377C44.332 31.998 44.2715 31.5605 44.2715 31.0645ZM45.7773 30.6016V31.0645C45.7773 31.373 45.8008 31.6406 45.8477 31.8672C45.8945 32.0898 45.9629 32.2754 46.0527 32.4238C46.1465 32.5723 46.2559 32.6836 46.3809 32.7578C46.5098 32.8281 46.6543 32.8633 46.8145 32.8633C46.9863 32.8633 47.1367 32.8281 47.2656 32.7578C47.3945 32.6836 47.502 32.5723 47.5879 32.4238C47.6738 32.2754 47.7383 32.0898 47.7812 31.8672C47.8242 31.6406 47.8457 31.373 47.8457 31.0645V30.6016C47.8457 30.3008 47.8203 30.0371 47.7695 29.8105C47.7227 29.584 47.6543 29.3965 47.5645 29.248C47.4746 29.0996 47.3652 28.9883 47.2363 28.9141C47.1074 28.8359 46.9629 28.7969 46.8027 28.7969C46.6465 28.7969 46.5059 28.8359 46.3809 28.9141C46.2559 28.9883 46.1465 29.0996 46.0527 29.248C45.9629 29.3965 45.8945 29.584 45.8477 29.8105C45.8008 30.0371 45.7773 30.3008 45.7773 30.6016ZM51.9648 31.4043L53.7051 27.6602H55.1641V34H53.6758V30.2676L51.9414 34H50.4766V27.6602H51.9648V31.4043ZM53.6816 25.1465H54.8125C54.8125 25.4824 54.7324 25.7773 54.5723 26.0312C54.4121 26.2852 54.1855 26.4844 53.8926 26.6289C53.6035 26.7734 53.2578 26.8457 52.8555 26.8457C52.25 26.8457 51.7695 26.6875 51.4141 26.3711C51.0625 26.0547 50.8867 25.6465 50.8867 25.1465H52.0117C52.0117 25.3574 52.0742 25.543 52.1992 25.7031C52.3281 25.8633 52.5469 25.9434 52.8555 25.9434C53.1562 25.9434 53.3691 25.8633 53.4941 25.7031C53.6191 25.543 53.6816 25.3574 53.6816 25.1465ZM58.75 32.8633C58.9141 32.8633 59.0586 32.8301 59.1836 32.7637C59.3086 32.6934 59.4062 32.584 59.4766 32.4355C59.5469 32.2871 59.584 32.0938 59.5879 31.8555H61.0059C61.002 32.3164 60.8984 32.7168 60.6953 33.0566C60.4961 33.3965 60.2285 33.6582 59.8926 33.8418C59.5605 34.0254 59.1875 34.1172 58.7734 34.1172C58.3516 34.1172 57.9824 34.0508 57.666 33.918C57.3535 33.7812 57.0957 33.584 56.8926 33.3262C56.6895 33.0645 56.5371 32.7461 56.4355 32.3711C56.334 31.9961 56.2832 31.5684 56.2832 31.0879V30.5723C56.2832 30.0918 56.334 29.6641 56.4355 29.2891C56.5371 28.9141 56.6895 28.5977 56.8926 28.3398C57.0957 28.0781 57.3535 27.8809 57.666 27.748C57.9785 27.6113 58.3457 27.543 58.7676 27.543C59.2168 27.543 59.6074 27.6367 59.9395 27.8242C60.2715 28.0117 60.5312 28.2871 60.7188 28.6504C60.9062 29.0098 61.002 29.4531 61.0059 29.9805H59.5879C59.584 29.7227 59.5508 29.5078 59.4883 29.3359C59.4258 29.1602 59.332 29.0273 59.207 28.9375C59.0859 28.8438 58.9316 28.7969 58.7441 28.7969C58.541 28.7969 58.375 28.8379 58.2461 28.9199C58.1211 28.998 58.0254 29.1133 57.959 29.2656C57.8926 29.418 57.8457 29.6035 57.8184 29.8223C57.7949 30.041 57.7832 30.291 57.7832 30.5723V31.0879C57.7832 31.377 57.7949 31.6328 57.8184 31.8555C57.8418 32.0742 57.8867 32.2598 57.9531 32.4121C58.0195 32.5605 58.1152 32.6738 58.2402 32.752C58.3691 32.8262 58.5391 32.8633 58.75 32.8633ZM64.7852 27.6602V34H63.2793V27.6602H64.7852ZM66.4434 27.6602V28.9023H61.6387V27.6602H66.4434ZM70.0762 31.334H68.459L68.4473 30.2559H69.7598C69.9395 30.2559 70.084 30.2324 70.1934 30.1855C70.3027 30.1348 70.3828 30.0625 70.4336 29.9688C70.4883 29.8711 70.5156 29.75 70.5156 29.6055C70.5156 29.4844 70.498 29.3789 70.4629 29.2891C70.4316 29.1992 70.3828 29.127 70.3164 29.0723C70.2539 29.0137 70.1738 28.9707 70.0762 28.9434C69.9785 28.916 69.8672 28.9023 69.7422 28.9023H68.9805V34H67.4805V27.6602H69.7422C70.0898 27.6602 70.4043 27.6973 70.6855 27.7715C70.9668 27.8418 71.207 27.9492 71.4062 28.0938C71.6055 28.2383 71.7578 28.4219 71.8633 28.6445C71.9688 28.8633 72.0215 29.123 72.0215 29.4238C72.0215 29.6152 71.9824 29.7969 71.9043 29.9688C71.8301 30.1406 71.7207 30.293 71.5762 30.4258C71.4316 30.5586 71.252 30.668 71.0371 30.7539C70.8223 30.8359 70.5762 30.8887 70.2988 30.9121L70.0762 31.334ZM70.0762 34H68.043L68.623 32.7578H70.0762C70.2441 32.7578 70.3789 32.7305 70.4805 32.6758C70.582 32.6211 70.6562 32.541 70.7031 32.4355C70.75 32.3301 70.7734 32.2031 70.7734 32.0547C70.7734 31.9062 70.752 31.7773 70.709 31.668C70.666 31.5586 70.5938 31.4766 70.4922 31.4219C70.3945 31.3633 70.2559 31.334 70.0762 31.334H68.7344L68.7461 30.2559H70.2695L70.6504 30.6836C71.0254 30.7109 71.332 30.7969 71.5703 30.9414C71.8125 31.082 71.9902 31.2617 72.1035 31.4805C72.2207 31.6953 72.2793 31.9316 72.2793 32.1895C72.2793 32.4902 72.2305 32.7539 72.1328 32.9805C72.0352 33.207 71.8926 33.3965 71.7051 33.5488C71.5215 33.6973 71.293 33.8105 71.0195 33.8887C70.7461 33.9629 70.4316 34 70.0762 34ZM76.2344 32.6289V29.582C76.2344 29.375 76.207 29.2109 76.1523 29.0898C76.1016 28.9688 76.0254 28.8809 75.9238 28.8262C75.8223 28.7676 75.6973 28.7383 75.5488 28.7383C75.3887 28.7383 75.2539 28.7715 75.1445 28.8379C75.0352 28.9004 74.9531 28.9922 74.8984 29.1133C74.8477 29.2305 74.8223 29.3691 74.8223 29.5293H73.3164C73.3164 29.2637 73.3691 29.0117 73.4746 28.7734C73.5801 28.5352 73.7324 28.3242 73.9316 28.1406C74.1309 27.9531 74.3711 27.8066 74.6523 27.7012C74.9336 27.5957 75.248 27.543 75.5957 27.543C76.0098 27.543 76.377 27.6133 76.6973 27.7539C77.0215 27.8906 77.2754 28.1113 77.459 28.416C77.6465 28.7168 77.7402 29.1113 77.7402 29.5996V32.4941C77.7402 32.8184 77.7578 33.0938 77.793 33.3203C77.832 33.5469 77.8887 33.7402 77.9629 33.9004V34H76.4395C76.373 33.8359 76.3223 33.6289 76.2871 33.3789C76.252 33.125 76.2344 32.875 76.2344 32.6289ZM76.4277 30.1328L76.4336 31.0703H75.8008C75.625 31.0703 75.4688 31.0957 75.332 31.1465C75.1992 31.1973 75.0859 31.2695 74.9922 31.3633C74.8984 31.457 74.8281 31.5684 74.7812 31.6973C74.7344 31.8262 74.7109 31.9668 74.7109 32.1191C74.7109 32.2949 74.7363 32.4414 74.7871 32.5586C74.8379 32.6719 74.9121 32.7578 75.0098 32.8164C75.1074 32.8711 75.2266 32.8984 75.3672 32.8984C75.5664 32.8984 75.7383 32.8555 75.8828 32.7695C76.0312 32.6836 76.1426 32.582 76.2168 32.4648C76.2949 32.3438 76.3242 32.2305 76.3047 32.125L76.6445 32.7344C76.6055 32.8789 76.5449 33.0312 76.4629 33.1914C76.3809 33.3516 76.2754 33.502 76.1465 33.6426C76.0215 33.7832 75.8672 33.8984 75.6836 33.9883C75.5039 34.0742 75.291 34.1172 75.0449 34.1172C74.6973 34.1172 74.3828 34.041 74.1016 33.8887C73.8242 33.7363 73.6055 33.5215 73.4453 33.2441C73.2852 32.9629 73.2051 32.627 73.2051 32.2363C73.2051 31.916 73.2578 31.627 73.3633 31.3691C73.4688 31.1113 73.623 30.8906 73.8262 30.707C74.0332 30.5234 74.2949 30.3828 74.6113 30.2852C74.9277 30.1836 75.2988 30.1328 75.7246 30.1328H76.4277Z" fill="#18191B"/>
</svg>
