<svg width="269" height="24" viewBox="0 0 269 24" fill="none" xmlns="http://www.w3.org/2000/svg">
<rect width="117" height="24" fill="#C8C6C8"/>
<path d="M46.6591 8.24432H48.4233C49.1051 8.24432 49.7102 8.39062 50.2386 8.68324C50.767 8.97585 51.1818 9.38778 51.483 9.91903C51.7841 10.4474 51.9347 11.0668 51.9347 11.777C51.9347 12.4702 51.7841 13.0767 51.483 13.5966C51.1818 14.1165 50.767 14.5213 50.2386 14.8111C49.7102 15.098 49.1051 15.2415 48.4233 15.2415H46.6591C45.9744 15.2415 45.3665 15.0994 44.8352 14.8153C44.3068 14.5284 43.892 14.125 43.5909 13.6051C43.2898 13.0852 43.1392 12.4773 43.1392 11.7812C43.1392 11.071 43.2912 10.4517 43.5952 9.9233C43.8991 9.39205 44.3153 8.98011 44.8438 8.6875C45.375 8.39205 45.9801 8.24432 46.6591 8.24432ZM46.6591 9.58239C46.2443 9.58239 45.8849 9.66761 45.581 9.83807C45.2798 10.0057 45.0469 10.2528 44.8821 10.5795C44.7173 10.9062 44.6349 11.3068 44.6349 11.7812C44.6349 12.2358 44.7173 12.6207 44.8821 12.9361C45.0497 13.2514 45.2855 13.4915 45.5895 13.6562C45.8935 13.821 46.25 13.9034 46.6591 13.9034H48.4276C48.8395 13.9034 49.1946 13.821 49.4929 13.6562C49.794 13.4886 50.0256 13.2472 50.1875 12.9318C50.3523 12.6136 50.4347 12.2287 50.4347 11.777C50.4347 11.3082 50.3523 10.9105 50.1875 10.5838C50.0256 10.2571 49.794 10.0085 49.4929 9.83807C49.1946 9.66761 48.8395 9.58239 48.4276 9.58239H46.6591ZM48.304 7.11932V16.358H46.7827V7.11932H48.304ZM55.2543 16.1321C54.8395 16.1321 54.4659 16.0582 54.1335 15.9105C53.804 15.7599 53.5426 15.5384 53.3494 15.2457C53.1591 14.9531 53.0639 14.5923 53.0639 14.1634C53.0639 13.794 53.1321 13.4886 53.2685 13.2472C53.4048 13.0057 53.5909 12.8125 53.8267 12.6676C54.0625 12.5227 54.3281 12.4134 54.6236 12.3395C54.9219 12.2628 55.2301 12.2074 55.5483 12.1733C55.9318 12.1335 56.2429 12.098 56.4815 12.0668C56.7202 12.0327 56.8935 11.9815 57.0014 11.9134C57.1122 11.8423 57.1676 11.733 57.1676 11.5852V11.5597C57.1676 11.2386 57.0724 10.9901 56.8821 10.8139C56.6918 10.6378 56.4176 10.5497 56.0597 10.5497C55.6818 10.5497 55.3821 10.6321 55.1605 10.7969C54.9418 10.9616 54.794 11.1562 54.7173 11.3807L53.277 11.1761C53.3906 10.7784 53.5781 10.446 53.8395 10.179C54.1009 9.90909 54.4205 9.70739 54.7983 9.57386C55.1761 9.4375 55.5938 9.36932 56.0511 9.36932C56.3665 9.36932 56.6804 9.40625 56.9929 9.48011C57.3054 9.55398 57.5909 9.67614 57.8494 9.84659C58.108 10.0142 58.3153 10.2429 58.4716 10.5327C58.6307 10.8224 58.7102 11.1847 58.7102 11.6193V16H57.2273V15.1009H57.1761C57.0824 15.2827 56.9503 15.4531 56.7798 15.6122C56.6122 15.7685 56.4006 15.8949 56.1449 15.9915C55.892 16.0852 55.5952 16.1321 55.2543 16.1321ZM55.6548 14.9986C55.9645 14.9986 56.233 14.9375 56.4602 14.8153C56.6875 14.6903 56.8622 14.5256 56.9844 14.321C57.1094 14.1165 57.1719 13.8935 57.1719 13.652V12.8807C57.1236 12.9205 57.0412 12.9574 56.9247 12.9915C56.8111 13.0256 56.6832 13.0554 56.5412 13.081C56.3991 13.1065 56.2585 13.1293 56.1193 13.1491C55.9801 13.169 55.8594 13.1861 55.7571 13.2003C55.527 13.2315 55.321 13.2827 55.1392 13.3537C54.9574 13.4247 54.8139 13.5241 54.7088 13.652C54.6037 13.777 54.5511 13.9389 54.5511 14.1378C54.5511 14.4219 54.6548 14.6364 54.8622 14.7812C55.0696 14.9261 55.3338 14.9986 55.6548 14.9986ZM61.7486 13.9119L64.3693 9.45455H65.9545V16H64.4631V11.5384L61.8509 16H60.2614V9.45455H61.7486V13.9119ZM63.9474 7.20455H65.1023C65.1023 7.7017 64.9219 8.10511 64.5611 8.41477C64.2031 8.72159 63.7173 8.875 63.1037 8.875C62.4957 8.875 62.0114 8.72159 61.6506 8.41477C61.2926 8.10511 61.1151 7.7017 61.1179 7.20455H62.2642C62.2642 7.40909 62.3267 7.59233 62.4517 7.75426C62.5795 7.91335 62.7969 7.9929 63.1037 7.9929C63.4048 7.9929 63.6193 7.91335 63.7472 7.75426C63.8778 7.59517 63.9446 7.41193 63.9474 7.20455ZM67.087 16L67.0785 14.7301H67.3043C67.4748 14.7301 67.6183 14.6918 67.7347 14.6151C67.8512 14.5384 67.9478 14.4105 68.0245 14.2315C68.1012 14.0497 68.1609 13.8054 68.2035 13.4986C68.2461 13.1918 68.2759 12.8097 68.293 12.3523L68.408 9.45455H73.1808V16H71.6893V10.7202H69.81L69.7077 12.8295C69.6822 13.375 69.6211 13.848 69.5245 14.2486C69.4308 14.6463 69.2972 14.9744 69.1239 15.233C68.9535 15.4915 68.739 15.6847 68.4805 15.8125C68.2219 15.9375 67.9165 16 67.5643 16H67.087Z" fill="#38383A"/>
<rect width="148" height="24" transform="translate(121)" fill="#2E3035"/>
<path d="M133.294 18.1051V14.7088H133.878C134.074 14.5526 134.257 14.3324 134.428 14.0483C134.598 13.7642 134.743 13.375 134.862 12.8807C134.982 12.3864 135.064 11.7472 135.109 10.9631L135.339 7.27273H140.918V14.7088H141.889V18.0966H140.372V16H134.811V18.1051H133.294ZM135.719 14.7088H139.401V8.59801H136.763L136.626 10.9631C136.589 11.5568 136.53 12.0881 136.447 12.5568C136.365 13.0256 136.261 13.4389 136.136 13.7969C136.011 14.152 135.872 14.456 135.719 14.7088ZM145.964 16.1278C145.325 16.1278 144.771 15.9872 144.302 15.706C143.833 15.4247 143.47 15.0312 143.211 14.5256C142.956 14.0199 142.828 13.429 142.828 12.7528C142.828 12.0767 142.956 11.4844 143.211 10.9759C143.47 10.4673 143.833 10.0724 144.302 9.79119C144.771 9.50994 145.325 9.36932 145.964 9.36932C146.603 9.36932 147.157 9.50994 147.626 9.79119C148.095 10.0724 148.457 10.4673 148.713 10.9759C148.971 11.4844 149.1 12.0767 149.1 12.7528C149.1 13.429 148.971 14.0199 148.713 14.5256C148.457 15.0312 148.095 15.4247 147.626 15.706C147.157 15.9872 146.603 16.1278 145.964 16.1278ZM145.973 14.892C146.319 14.892 146.609 14.7969 146.842 14.6065C147.075 14.4134 147.248 14.1548 147.362 13.831C147.478 13.5071 147.537 13.1463 147.537 12.7486C147.537 12.348 147.478 11.9858 147.362 11.6619C147.248 11.3352 147.075 11.0753 146.842 10.8821C146.609 10.6889 146.319 10.5923 145.973 10.5923C145.618 10.5923 145.322 10.6889 145.086 10.8821C144.853 11.0753 144.679 11.3352 144.562 11.6619C144.449 11.9858 144.392 12.348 144.392 12.7486C144.392 13.1463 144.449 13.5071 144.562 13.831C144.679 14.1548 144.853 14.4134 145.086 14.6065C145.322 14.7969 145.618 14.892 145.973 14.892ZM154.177 14.206L156.12 9.45455H157.364L154.718 16H153.64L151.053 9.45455H152.285L154.177 14.206ZM151.897 9.45455V16H150.41V9.45455H151.897ZM156.521 16V9.45455H157.995V16H156.521ZM161.434 16.1321C161.019 16.1321 160.646 16.0582 160.313 15.9105C159.984 15.7599 159.722 15.5384 159.529 15.2457C159.339 14.9531 159.244 14.5923 159.244 14.1634C159.244 13.794 159.312 13.4886 159.448 13.2472C159.585 13.0057 159.771 12.8125 160.006 12.6676C160.242 12.5227 160.508 12.4134 160.803 12.3395C161.102 12.2628 161.41 12.2074 161.728 12.1733C162.112 12.1335 162.423 12.098 162.661 12.0668C162.9 12.0327 163.073 11.9815 163.181 11.9134C163.292 11.8423 163.347 11.733 163.347 11.5852V11.5597C163.347 11.2386 163.252 10.9901 163.062 10.8139C162.871 10.6378 162.597 10.5497 162.239 10.5497C161.862 10.5497 161.562 10.6321 161.34 10.7969C161.121 10.9616 160.974 11.1562 160.897 11.3807L159.457 11.1761C159.57 10.7784 159.758 10.446 160.019 10.179C160.281 9.90909 160.6 9.70739 160.978 9.57386C161.356 9.4375 161.773 9.36932 162.231 9.36932C162.546 9.36932 162.86 9.40625 163.173 9.48011C163.485 9.55398 163.771 9.67614 164.029 9.84659C164.288 10.0142 164.495 10.2429 164.651 10.5327C164.81 10.8224 164.89 11.1847 164.89 11.6193V16H163.407V15.1009H163.356C163.262 15.2827 163.13 15.4531 162.96 15.6122C162.792 15.7685 162.58 15.8949 162.325 15.9915C162.072 16.0852 161.775 16.1321 161.434 16.1321ZM161.835 14.9986C162.144 14.9986 162.413 14.9375 162.64 14.8153C162.867 14.6903 163.042 14.5256 163.164 14.321C163.289 14.1165 163.352 13.8935 163.352 13.652V12.8807C163.303 12.9205 163.221 12.9574 163.104 12.9915C162.991 13.0256 162.863 13.0554 162.721 13.081C162.579 13.1065 162.438 13.1293 162.299 13.1491C162.16 13.169 162.039 13.1861 161.937 13.2003C161.707 13.2315 161.501 13.2827 161.319 13.3537C161.137 13.4247 160.994 13.5241 160.888 13.652C160.783 13.777 160.731 13.9389 160.731 14.1378C160.731 14.4219 160.835 14.6364 161.042 14.7812C161.249 14.9261 161.513 14.9986 161.835 14.9986ZM166.441 9.45455H167.928V14.7301H169.987V9.45455H171.474V14.7301H173.532V9.45455H175.019V16H166.441V9.45455ZM181.074 12.0881V13.3537H177.588V12.0881H181.074ZM178.065 9.45455V16H176.578V9.45455H178.065ZM182.083 9.45455V16H180.6V9.45455H182.083ZM187.513 16V10.7074H186.116C185.761 10.7074 185.488 10.7898 185.298 10.9545C185.107 11.1193 185.013 11.3239 185.016 11.5682C185.013 11.8125 185.103 12.0142 185.285 12.1733C185.467 12.3324 185.727 12.4119 186.065 12.4119H187.999V13.5369H186.065C185.542 13.5369 185.09 13.4545 184.71 13.2898C184.329 13.125 184.036 12.892 183.832 12.5909C183.627 12.2898 183.525 11.9375 183.525 11.5341C183.525 11.1136 183.629 10.7486 183.836 10.4389C184.046 10.1264 184.344 9.88494 184.731 9.71449C185.12 9.54119 185.582 9.45455 186.116 9.45455H188.958V16H187.513ZM183.286 16L185.114 12.642H186.636L184.803 16H183.286ZM194.381 16V10.7074H192.983C192.628 10.7074 192.355 10.7898 192.165 10.9545C191.974 11.1193 191.881 11.3239 191.884 11.5682C191.881 11.8125 191.97 12.0142 192.152 12.1733C192.334 12.3324 192.594 12.4119 192.932 12.4119H194.866V13.5369H192.932C192.409 13.5369 191.957 13.4545 191.577 13.2898C191.196 13.125 190.903 12.892 190.699 12.5909C190.494 12.2898 190.392 11.9375 190.392 11.5341C190.392 11.1136 190.496 10.7486 190.703 10.4389C190.913 10.1264 191.212 9.88494 191.598 9.71449C191.987 9.54119 192.449 9.45455 192.983 9.45455H195.825V16H194.381ZM190.153 16L191.982 12.642H193.503L191.67 16H190.153ZM203.21 16.1278C202.557 16.1278 201.996 15.9844 201.527 15.6974C201.061 15.4105 200.702 15.0142 200.449 14.5085C200.199 14 200.074 13.4148 200.074 12.7528C200.074 12.0881 200.202 11.5014 200.457 10.9929C200.713 10.4815 201.074 10.0838 201.54 9.79972C202.009 9.51278 202.563 9.36932 203.202 9.36932C203.733 9.36932 204.203 9.46733 204.612 9.66335C205.024 9.85653 205.352 10.1307 205.597 10.4858C205.841 10.8381 205.98 11.25 206.014 11.7216H204.54C204.48 11.4062 204.338 11.1435 204.114 10.9332C203.892 10.7202 203.595 10.6136 203.223 10.6136C202.908 10.6136 202.631 10.6989 202.392 10.8693C202.153 11.0369 201.967 11.2784 201.834 11.5938C201.703 11.9091 201.638 12.2869 201.638 12.7273C201.638 13.1733 201.703 13.5568 201.834 13.8778C201.964 14.196 202.148 14.4418 202.384 14.6151C202.622 14.7855 202.902 14.8707 203.223 14.8707C203.45 14.8707 203.653 14.8281 203.832 14.7429C204.014 14.6548 204.166 14.5284 204.288 14.3636C204.411 14.1989 204.494 13.9986 204.54 13.7628H206.014C205.977 14.2259 205.841 14.6364 205.605 14.9943C205.369 15.3494 205.048 15.6278 204.642 15.8295C204.236 16.0284 203.759 16.1278 203.21 16.1278ZM206.806 10.7202V9.45455H212.533V10.7202H210.415V16H208.924V10.7202H206.806ZM213.761 18.4545V9.45455H215.278V10.5369H215.368C215.447 10.3778 215.56 10.2088 215.705 10.0298C215.849 9.84801 216.045 9.69318 216.293 9.56534C216.54 9.43466 216.855 9.36932 217.239 9.36932C217.744 9.36932 218.2 9.49858 218.607 9.7571C219.016 10.0128 219.339 10.392 219.578 10.8949C219.82 11.3949 219.94 12.0085 219.94 12.7358C219.94 13.4545 219.822 14.0653 219.587 14.5682C219.351 15.071 219.03 15.4545 218.624 15.7188C218.217 15.983 217.757 16.1151 217.243 16.1151C216.868 16.1151 216.557 16.0526 216.31 15.9276C216.063 15.8026 215.864 15.652 215.713 15.4759C215.565 15.2969 215.45 15.1278 215.368 14.9688H215.304V18.4545H213.761ZM215.274 12.7273C215.274 13.1506 215.334 13.5213 215.453 13.8395C215.575 14.1577 215.75 14.4062 215.977 14.5852C216.207 14.7614 216.486 14.8494 216.812 14.8494C217.153 14.8494 217.439 14.7585 217.669 14.5767C217.899 14.392 218.072 14.1406 218.189 13.8224C218.308 13.5014 218.368 13.1364 218.368 12.7273C218.368 12.321 218.31 11.9602 218.193 11.6449C218.077 11.3295 217.903 11.0824 217.673 10.9034C217.443 10.7244 217.156 10.6349 216.812 10.6349C216.483 10.6349 216.203 10.7216 215.973 10.8949C215.743 11.0682 215.568 11.3111 215.449 11.6236C215.332 11.9361 215.274 12.304 215.274 12.7273ZM223.145 16.1321C222.73 16.1321 222.357 16.0582 222.024 15.9105C221.695 15.7599 221.433 15.5384 221.24 15.2457C221.05 14.9531 220.955 14.5923 220.955 14.1634C220.955 13.794 221.023 13.4886 221.159 13.2472C221.295 13.0057 221.482 12.8125 221.717 12.6676C221.953 12.5227 222.219 12.4134 222.514 12.3395C222.813 12.2628 223.121 12.2074 223.439 12.1733C223.822 12.1335 224.134 12.098 224.372 12.0668C224.611 12.0327 224.784 11.9815 224.892 11.9134C225.003 11.8423 225.058 11.733 225.058 11.5852V11.5597C225.058 11.2386 224.963 10.9901 224.773 10.8139C224.582 10.6378 224.308 10.5497 223.95 10.5497C223.572 10.5497 223.273 10.6321 223.051 10.7969C222.832 10.9616 222.685 11.1562 222.608 11.3807L221.168 11.1761C221.281 10.7784 221.469 10.446 221.73 10.179C221.991 9.90909 222.311 9.70739 222.689 9.57386C223.067 9.4375 223.484 9.36932 223.942 9.36932C224.257 9.36932 224.571 9.40625 224.884 9.48011C225.196 9.55398 225.482 9.67614 225.74 9.84659C225.999 10.0142 226.206 10.2429 226.362 10.5327C226.521 10.8224 226.601 11.1847 226.601 11.6193V16H225.118V15.1009H225.067C224.973 15.2827 224.841 15.4531 224.67 15.6122C224.503 15.7685 224.291 15.8949 224.036 15.9915C223.783 16.0852 223.486 16.1321 223.145 16.1321ZM223.545 14.9986C223.855 14.9986 224.124 14.9375 224.351 14.8153C224.578 14.6903 224.753 14.5256 224.875 14.321C225 14.1165 225.062 13.8935 225.062 13.652V12.8807C225.014 12.9205 224.932 12.9574 224.815 12.9915C224.702 13.0256 224.574 13.0554 224.432 13.081C224.29 13.1065 224.149 13.1293 224.01 13.1491C223.871 13.169 223.75 13.1861 223.648 13.2003C223.418 13.2315 223.212 13.2827 223.03 13.3537C222.848 13.4247 222.705 13.5241 222.599 13.652C222.494 13.777 222.442 13.9389 222.442 14.1378C222.442 14.4219 222.545 14.6364 222.753 14.7812C222.96 14.9261 223.224 14.9986 223.545 14.9986ZM232.648 12.0881V13.3537H229.162V12.0881H232.648ZM229.639 9.45455V16H228.152V9.45455H229.639ZM233.658 9.45455V16H232.175V9.45455H233.658ZM236.706 13.9119L239.326 9.45455H240.912V16H239.42V11.5384L236.808 16H235.218V9.45455H236.706V13.9119ZM248.023 9.45455V14.8494H249.024V18.1051H247.516V16H242.496V9.45455H243.983V14.7344H246.548V9.45455H248.023ZM252.172 16.1321C251.757 16.1321 251.384 16.0582 251.051 15.9105C250.722 15.7599 250.461 15.5384 250.267 15.2457C250.077 14.9531 249.982 14.5923 249.982 14.1634C249.982 13.794 250.05 13.4886 250.186 13.2472C250.323 13.0057 250.509 12.8125 250.745 12.6676C250.98 12.5227 251.246 12.4134 251.542 12.3395C251.84 12.2628 252.148 12.2074 252.466 12.1733C252.85 12.1335 253.161 12.098 253.4 12.0668C253.638 12.0327 253.811 11.9815 253.919 11.9134C254.03 11.8423 254.086 11.733 254.086 11.5852V11.5597C254.086 11.2386 253.99 10.9901 253.8 10.8139C253.61 10.6378 253.336 10.5497 252.978 10.5497C252.6 10.5497 252.3 10.6321 252.078 10.7969C251.86 10.9616 251.712 11.1562 251.635 11.3807L250.195 11.1761C250.309 10.7784 250.496 10.446 250.757 10.179C251.019 9.90909 251.338 9.70739 251.716 9.57386C252.094 9.4375 252.512 9.36932 252.969 9.36932C253.284 9.36932 253.598 9.40625 253.911 9.48011C254.223 9.55398 254.509 9.67614 254.767 9.84659C255.026 10.0142 255.233 10.2429 255.39 10.5327C255.549 10.8224 255.628 11.1847 255.628 11.6193V16H254.145V15.1009H254.094C254 15.2827 253.868 15.4531 253.698 15.6122C253.53 15.7685 253.319 15.8949 253.063 15.9915C252.81 16.0852 252.513 16.1321 252.172 16.1321ZM252.573 14.9986C252.882 14.9986 253.151 14.9375 253.378 14.8153C253.605 14.6903 253.78 14.5256 253.902 14.321C254.027 14.1165 254.09 13.8935 254.09 13.652V12.8807C254.042 12.9205 253.959 12.9574 253.843 12.9915C253.729 13.0256 253.601 13.0554 253.459 13.081C253.317 13.1065 253.176 13.1293 253.037 13.1491C252.898 13.169 252.777 13.1861 252.675 13.2003C252.445 13.2315 252.239 13.2827 252.057 13.3537C251.875 13.4247 251.732 13.5241 251.627 13.652C251.522 13.777 251.469 13.9389 251.469 14.1378C251.469 14.4219 251.573 14.6364 251.78 14.7812C251.988 14.9261 252.252 14.9986 252.573 14.9986Z" fill="#F0F0F6"/>
</svg>
